<svg xmlns="http://www.w3.org/2000/svg" width="250" height="279" viewBox="0 0 250 279"><g transform="translate(5359 8577)"><rect width="250" height="279" rx="10" transform="translate(-5359 -8577)" fill="#f2e6dc"/><g transform="translate(-5679.784 -8887)"><circle cx="110.974" cy="110.974" r="110.974" transform="translate(334.836 335)" fill="#f2e6dc"/><g transform="translate(334.784 339.723)"><path d="M334.784,956.869l120.633-1.427-19.176-17.95L421.9,943.071l-21.643-23.635-24.422,13.637-17.385-2.005Z" transform="translate(-334.784 -853.277)" fill="#d3bba3"/><path d="M335.309,1212.518q-.091,2.262-.093,4.546a110.974,110.974,0,1,0,221.948,0q0-2.284-.093-4.546Z" transform="translate(-335.164 -1110.813)" fill="#e6d0be"/><g transform="translate(105.573 0)"><g transform="translate(68.812 38.516)"><path d="M1810.355,731.04l-17.384,9.356,16.044-24.455a126.648,126.648,0,0,0-6.845-24.425,76.7,76.7,0,0,0-8.667,7.769l1.915,26.827L1786.028,708a70.538,70.538,0,0,0-9.574,17.068q-.521,1.37-.942,2.726l13.564,27.916-15.44-12.009c.851,10.6,5.992,18.655,12.041,20.775,9.278,3.253,22.256-6.846,24.377-27.629C1810.248,734.93,1810.343,732.987,1810.355,731.04Z" transform="translate(-1773.511 -691.516)" fill="#d3bba3"/><path d="M1883.289,755.575a89.321,89.321,0,0,0-7.475,8.717l9.39,18.109Z" transform="translate(-1863.298 -747.806)" fill="#e6d0be"/><path d="M1774.616,990.652a42.174,42.174,0,0,0-1.877,15.907l15.44,12.009Z" transform="translate(-1772.616 -954.372)" fill="#e6d0be"/><path d="M1950.445,908.007a87.049,87.049,0,0,0-1.34-15.1l-16.044,24.455Z" transform="translate(-1913.602 -868.483)" fill="#e6d0be"/><path d="M1898.027,1046.154a.267.267,0,0,1-.265-.233,95,95,0,0,1-.784-10.575,92.371,92.371,0,0,1,3.959-28.627.268.268,0,0,1,.512.156,91.819,91.819,0,0,0-3.936,28.462,94.453,94.453,0,0,0,.779,10.515.267.267,0,0,1-.23.3Z" transform="translate(-1881.882 -968.323)" fill="#d3bba3"/></g><g transform="translate(35.931)"><path d="M1502.724,420.45l20.812,9.813-20.187-27.469a147.593,147.593,0,0,1,6.454-28.851,89.389,89.389,0,0,1,10.568,8.505l-.568,31.341,9.807-21.658a82.2,82.2,0,0,1,12.2,19.271q.691,1.562,1.265,3.114l-14.058,33.33,17.226-14.933c-.335,12.388-5.818,22.082-12.727,24.924-10.6,4.36-26.326-6.589-30.081-30.647C1503.089,424.97,1502.859,422.715,1502.724,420.45Z" transform="translate(-1502.577 -373.943)" fill="#e6d0be"/><path d="M1644.114,444.072a104.1,104.1,0,0,1,9.239,9.683l-9.807,21.658Z" transform="translate(-1626.32 -435.567)" fill="#d3bba3"/><path d="M1733.578,708.482a49.153,49.153,0,0,1,3.169,18.4l-17.226,14.933Z" transform="translate(-1693.079 -667.908)" fill="#e6d0be"/><path d="M1501.658,629.481a101.447,101.447,0,0,1,.625-17.656l20.187,27.469Z" transform="translate(-1501.511 -582.974)" fill="#d3bba3"/><path d="M1675.019,795.156H1675a.267.267,0,0,1-.246-.287c.291-3.772-.012-20.859-.174-25.453a107.059,107.059,0,0,0-6.346-32.9.267.267,0,0,1,.5-.183,107.585,107.585,0,0,1,6.378,33.059c.162,4.6.465,21.724.173,25.513A.267.267,0,0,1,1675.019,795.156Z" transform="translate(-1647.997 -692.231)" fill="#d3bba3"/></g><g transform="translate(0 23.01)"><path d="M1247.315,587.663l-9.054,24.245-4.036-35.131a122.464,122.464,0,0,0-25.583-13.115,103.532,103.532,0,0,0-2.083,14.591l22.818,19.788-23.035-5.578a79.492,79.492,0,0,0,4.346,22.959q.582,1.6,1.247,3.1l34.65,9.475-23.958,5.152c9.1,7.727,20.259,9.283,27.621,5.181,11.291-6.292,15.612-26.9,1.331-45.7A57.716,57.716,0,0,0,1247.315,587.663Z" transform="translate(-1206.211 -563.663)" fill="#e6d0be"/><path d="M1205.6,683.968a112.028,112.028,0,0,0-.216,14.209l23.035,5.578Z" transform="translate(-1205.251 -669.377)" fill="#d3bba3"/><path d="M1252.466,1016.008a40.477,40.477,0,0,0,10.692,14.627l23.958-5.152Z" transform="translate(-1246.74 -961.146)" fill="#d3bba3"/><path d="M1449.326,682.686a81.622,81.622,0,0,0-13.09-10.885l4.036,35.13Z" transform="translate(-1408.221 -658.686)" fill="#d3bba3"/><path d="M1451.63,939.446a.271.271,0,0,1-.087-.014,90.179,90.179,0,0,1-33.881-20.928,89.048,89.048,0,0,1-18.695-26.886.267.267,0,1,1,.487-.22,88.519,88.519,0,0,0,18.583,26.725,89.639,89.639,0,0,0,33.679,20.8.267.267,0,0,1-.087.52Z" transform="translate(-1375.452 -851.51)" fill="#d3bba3"/></g></g></g><g transform="translate(376.059 384.453)"><g transform="translate(0 41.933)"><path d="M817.993,1089.721l-6.536,24.915,35.565-.8,9.092-10.83-10.83.535-1.337-15.042Z" transform="translate(-794.919 -1088.497)" fill="#bc8271"/><g transform="translate(18.508 6.981)"><path d="M981.608,1217.9l13.778-10.341,11.5,9.292-27.146,8.5-1.266-7.431Z" transform="translate(-960.187 -1200.098)" fill="#84524d"/><path d="M828.143,1292.318h19.638l-1.319-7.292a20.49,20.49,0,0,0-17.435,1.739S826.783,1289.508,828.143,1292.318Z" transform="translate(-827.705 -1267.132)" fill="#84524d"/><path d="M944.448,1303.926a.267.267,0,0,1-.267-.267v-4.471a.267.267,0,0,1,.535,0v4.471A.267.267,0,0,1,944.448,1303.926Z" transform="translate(-930.055 -1280.38)" fill="#363e44"/><path d="M933.984,1303.926a.267.267,0,0,1-.267-.267v-4.471a.267.267,0,0,1,.535,0v4.471A.267.267,0,0,1,933.984,1303.926Z" transform="translate(-920.86 -1280.38)" fill="#363e44"/><path d="M1103.6,1153.313l9.359,11.9s3.276-.067,9.307-3.883a8.155,8.155,0,0,0,2.711-11.006l-.1-.162c-1.9-3.172-5.94-5.129-9.282-3.548C1114.292,1147.23,1108.209,1148.9,1103.6,1153.313Z" transform="translate(-1070.135 -1146.055)" fill="#bc8271"/></g><g transform="translate(0 7.194)"><path d="M906.8,1269.795,897.7,1264l-3.932,8.285,9.6,2.663Z" transform="translate(-867.249 -1249.907)" fill="#84524d"/><path d="M854.79,1226.253c-1.055,3.1-10.4,1.462-19.429,0l-18.393-5.292,7.955-12.3,11.756,10.7c1.339,1.427,6.535-.072,11.5-.714a5.14,5.14,0,0,1,5.609,3.661C854.1,1223.387,854.445,1224.7,854.79,1226.253Z" transform="translate(-799.763 -1201.28)" fill="#84524d"/><path d="M702.8,1156.127l-6.752,13.1s-5.441-1.413-16.111-8.089c-3.729-2.333-6.222-5.478-4-9.274l.1-.162a8.1,8.1,0,0,1,9.282-3.548C690.987,1149.858,692.44,1150.645,702.8,1156.127Z" transform="translate(-675.1 -1147.811)" fill="#bc8271"/><path d="M886.545,1298.4a95.136,95.136,0,0,1-13.353-1.6l-.027-.006L859.058,1293a.267.267,0,1,1,.139-.516l14.094,3.79c7.959,1.292,16.964,2.753,18.032.071-.3-1.365-.633-2.66-.976-3.85a4.846,4.846,0,0,0-5.318-3.47c-1.313.17-2.637.4-3.918.62-2.889.5-5.383.931-6.844.543a.268.268,0,0,1,.137-.517c1.348.358,3.907-.085,6.616-.553,1.286-.222,2.616-.452,3.94-.624a5.378,5.378,0,0,1,5.9,3.853c.352,1.223.689,2.555,1,3.959l.016.073-.024.071C891.367,1297.881,889.389,1298.4,886.545,1298.4Z" transform="translate(-836.573 -1271.39)" fill="#363e44"/></g><path d="M1109.162,1202.57a.267.267,0,0,1-.211-.1l-9.672-12.329,2.783-1.831a.267.267,0,0,1,.294.447l-2.3,1.512,9.313,11.871a.267.267,0,0,1-.21.432Z" transform="translate(-1047.833 -1176.164)" fill="#363e44"/><path d="M844.556,1198.486a.264.264,0,0,1-.122-.03.267.267,0,0,1-.115-.36l6.636-12.877-6.718-3.92a.267.267,0,0,1,.27-.462l7.156,4.175-6.868,13.329A.267.267,0,0,1,844.556,1198.486Z" transform="translate(-823.607 -1169.606)" fill="#363e44"/></g><g transform="translate(6.303 18.308)"><path d="M1057.688,930.886s-.006-.006,0,0c6.361,7.247,11.988,14.17,15.995,9.463,2.674-3.142-4.557-9.392-10.028-16.111,0,0-2.072,2.34-2.072,2.34Z" transform="translate(-1017.587 -920.535)" fill="#84524d"/><path d="M833.9,898.61s-10.676-7.112-23.933-4.212c-11.935,2.611-17.248,10.763-17.248,10.763l8.624,7.888.869,15.042,27.008,1.337-.7-24.019Z" transform="translate(-784.754 -893.703)" fill="#8b865c"/><path d="M743.381,1005.456s.006-.006,0,0c-6.361,7.247-11.252,13.809-15.573,9.388-2.875-2.941,3.153-8.924,8.624-15.643,0,0,1,.6,1,.6Z" transform="translate(-727.066 -986.407)" fill="#84524d"/><g transform="translate(0.915 20.951)"><path d="M737.18,1066.449c3.962,1.982,15.194,7.374,16.111,7.822,1.714.837,7.825,3.106,6.829,4.657-.384.6-1.027.556-1.624.257.363.479,1.129,1.156.657,1.8-.555.753-1.934.044-1.986.039.418.449,1.048,1.412.713,1.906-.436.643-1.425.286-2.038-.077.015.122,1.328.982.841,1.771-.358.58-2.223-.548-3.059-.991-1.524-.742-15.777-7.02-18.518-9.159C733.967,1073.58,734.854,1066.975,737.18,1066.449Z" transform="translate(-734.612 -1066.449)" fill="#84524d"/><path d="M784.508,1077.922a.268.268,0,0,1-.113-.025c-1.178-.549-2.379-1.125-3.54-1.683-.579-.278-1.144-.549-1.684-.806a.267.267,0,1,1,.23-.483c.54.257,1.105.528,1.685.807,1.16.557,2.36,1.132,3.535,1.68a.267.267,0,0,1-.113.51Z" transform="translate(-773.633 -1073.875)" fill="#363e44"/><path d="M910.243,1155.488a.267.267,0,0,1-.193-.082,8.435,8.435,0,0,0-2.648-1.854.267.267,0,1,1,.218-.488,8.981,8.981,0,0,1,2.816,1.971.267.267,0,0,1-.192.453Z" transform="translate(-886.306 -1142.538)" fill="#363e44"/><path d="M904.328,1175.5a.266.266,0,0,1-.171-.062q-.094-.078-.193-.156a8.5,8.5,0,0,0-1.786-1.075.267.267,0,0,1,.218-.488,9.03,9.03,0,0,1,1.9,1.143q.106.083.2.166a.267.267,0,0,1-.171.473Z" transform="translate(-881.716 -1160.686)" fill="#363e44"/><path d="M898.5,1194.791a.263.263,0,0,1-.146-.044,8.588,8.588,0,0,0-1.2-.655.267.267,0,1,1,.218-.488,9.063,9.063,0,0,1,1.276.7.267.267,0,0,1-.147.491Z" transform="translate(-877.298 -1178.162)" fill="#363e44"/></g><g transform="translate(26.744 15.214)"><path d="M975.025,1019.148c-4.3,1.065-16.049,3.805-17.042,4.041-1.856.441-11.005,2.319-10.374,4.05.243.667.88.768,1.528.607-.46.388-1.355.88-1.035,1.609.376.857,1.878.467,1.929.474-.507.347-1.332,1.148-1.113,1.7.284.723,1.328.591,2.005.371-.041.116-1.511.667-1.209,1.544.222.644,2.089-.106,3-.355,1.649-.391,17.554-4.61,20.9-6.189C980.063,1023.959,977.179,1020.171,975.025,1019.148Z" transform="translate(-947.577 -1019.148)" fill="#84524d"/><path d="M1079.334,1031.36a.267.267,0,0,1-.057-.529c1.265-.277,2.559-.575,3.81-.863.629-.145,1.243-.286,1.828-.419a.268.268,0,1,1,.119.522c-.585.133-1.2.274-1.827.419-1.253.289-2.548.587-3.816.864A.264.264,0,0,1,1079.334,1031.36Z" transform="translate(-1063.12 -1028.282)" fill="#363e44"/><path d="M958.175,1079.483a.267.267,0,0,1-.147-.491,8.97,8.97,0,0,1,3.179-1.307.267.267,0,1,1,.106.524,8.436,8.436,0,0,0-2.99,1.229A.267.267,0,0,1,958.175,1079.483Z" transform="translate(-956.655 -1070.582)" fill="#363e44"/><path d="M965.466,1100.3a.267.267,0,0,1-.122-.506c.077-.039.155-.078.236-.116a9.02,9.02,0,0,1,2.1-.7.267.267,0,1,1,.106.524,8.5,8.5,0,0,0-1.978.657q-.114.054-.223.11A.267.267,0,0,1,965.466,1100.3Z" transform="translate(-963.061 -1089.296)" fill="#363e44"/><path d="M973.546,1120.408a.267.267,0,0,1-.094-.518,9.088,9.088,0,0,1,1.4-.4.267.267,0,0,1,.106.524,8.528,8.528,0,0,0-1.315.376A.27.27,0,0,1,973.546,1120.408Z" transform="translate(-970.161 -1107.316)" fill="#363e44"/></g></g><g transform="translate(23.644 0)"><ellipse cx="2.215" cy="2.602" rx="2.215" ry="2.602" transform="translate(0 10.092) rotate(-37.411)" fill="#84524d"/><ellipse cx="2.602" cy="2.215" rx="2.602" ry="2.215" transform="translate(14.36 11.024) rotate(-60.206)" fill="#84524d"/><path d="M912.494,752.992l-13.263.9-.276-4.078c-.823-4.012,2.746-6.787,6.531-7.043h.178c3.54-.239,6.685,2.05,6.524,5.7Z" transform="translate(-895.344 -742.751)" fill="#363e44"/><path d="M931.086,834.875a3.679,3.679,0,0,1-3.566-3.788l.31-10.261,7.354.222-.31,10.261A3.679,3.679,0,0,1,931.086,834.875Z" transform="translate(-920.548 -811.357)" fill="#84524d"/><path d="M916.67,781.956c.276,4.139-2.356,7.685-5.878,7.919s-6.6-2.931-6.876-7.07a5.972,5.972,0,0,1,5.9-6.781C913.333,775.789,916.394,777.817,916.67,781.956Z" transform="translate(-899.791 -771.972)" fill="#84524d"/><path d="M924.715,870.624a6.225,6.225,0,0,1-4.476-1.988.267.267,0,0,1,.383-.373,5.476,5.476,0,0,0,8.612-.573.267.267,0,1,1,.429.319,6.174,6.174,0,0,1-4.56,2.6C924.974,870.62,924.844,870.624,924.715,870.624Z" transform="translate(-914.086 -852.442)" fill="#363e44"/><path d="M1006.043,812.527a.256.256,0,0,1-.044,0,.267.267,0,0,1-.22-.307,8.588,8.588,0,0,0-.2-3.674.267.267,0,0,1,.515-.144,9.111,9.111,0,0,1,.212,3.9A.267.267,0,0,1,1006.043,812.527Z" transform="translate(-989.133 -800.264)" fill="#363e44"/><path d="M901.287,819.071a.267.267,0,0,1-.256-.19,9.12,9.12,0,0,1-.293-3.9.268.268,0,0,1,.53.076,8.586,8.586,0,0,0,.275,3.669.267.267,0,0,1-.179.333A.264.264,0,0,1,901.287,819.071Z" transform="translate(-896.936 -806.02)" fill="#363e44"/><g transform="translate(5.104 8.864)"><g transform="translate(0 0.545)"><path d="M916.514,822.145a4.113,4.113,0,0,1-1.276.41c-.334.049-.846-.656-.846-.656s-.767.481-.995.363a.834.834,0,1,1-.152-1.407c.375-.072,1.267.75,1.267.75s.971-.383,1.312-.123A4.016,4.016,0,0,1,916.514,822.145Z" transform="translate(-912.135 -820.788)" fill="#fff"/><path d="M922.92,821.03a3.328,3.328,0,0,0-1.325-.636,3.207,3.207,0,0,0-1.255.008,1.356,1.356,0,0,0,.149,1.406,2.971,2.971,0,0,0,.755.274,3.123,3.123,0,0,0,1.089.02,1.352,1.352,0,0,0,.587-1.073Z" transform="translate(-919.231 -820.336)" fill="#363e44"/></g><g transform="translate(6.53)"><path d="M965.975,817.722a4.188,4.188,0,0,0,1.5.18c.289-.02.759-.7.759-.7s.81.144,1.068-.088a4.349,4.349,0,0,0,.834-1.028,4.145,4.145,0,0,0-.986-.181c-.42-.027-1.15.7-1.15.7s-1.041-.067-1.316.2A4.148,4.148,0,0,0,965.975,817.722Z" transform="translate(-965.975 -815.899)" fill="#fff"/><path d="M972.89,816.043a3.217,3.217,0,0,0-1.057.7,1.354,1.354,0,0,0,.79,1.1,3.032,3.032,0,0,0,.9-.195,3.133,3.133,0,0,0,.945-.6,1.359,1.359,0,0,0-.159-1.2A3.3,3.3,0,0,0,972.89,816.043Z" transform="translate(-971.123 -815.839)" fill="#363e44"/></g></g><path d="M958.125,833.693a.267.267,0,0,1-.167-.477c.13-.1.2-.2.2-.272,0-.043-.029-.086-.1-.182a1.277,1.277,0,0,1-.253-.5,1.212,1.212,0,0,1,.042-.653.267.267,0,1,1,.508.168.689.689,0,0,0-.028.368.766.766,0,0,0,.16.3.812.812,0,0,1,.206.5.9.9,0,0,1-.406.689A.266.266,0,0,1,958.125,833.693Z" transform="translate(-947.142 -820.669)" fill="#363e44"/><path d="M942.188,857.638a.267.267,0,0,1-.183-.462,2.037,2.037,0,0,1,1.172-.542,2.008,2.008,0,0,1,.91.121.267.267,0,1,1-.19.5,1.459,1.459,0,0,0-.665-.089,1.5,1.5,0,0,0-.86.4A.267.267,0,0,1,942.188,857.638Z" transform="translate(-933.204 -842.813)" fill="#363e44"/></g></g><g transform="translate(335.188 434.341)"><g transform="translate(0 70.284)"><path d="M500.8,1838.859l-22.951-.44-.052,11.531,29.95,3.655Z" transform="translate(-460.854 -1825.705)" fill="#84524d"/><path d="M358.42,1838.659l1,11.621c-10.028,2.207-23.2,5.277-21.081.535,3.536-3.2,10.2-2.848,11.632-8.664a4.975,4.975,0,0,1,5.233-3.746Z" transform="translate(-338.115 -1825.679)" fill="#84524d"/><g transform="translate(35.287)"><path d="M629.062,1746.014l5.988,15.921,27.03.971c6.118,0,9.381-6.967,7.109-12.648-1.961-4.9-1.6-5.972-35.03-16.668Z" transform="translate(-629.062 -1733.59)" fill="#8b865c"/><path d="M686.823,1840.5h0l-21.3-.128a.267.267,0,0,1,0-.535h0l21.3.128a.267.267,0,0,1,0,.535Z" transform="translate(-660.869 -1826.953)" fill="#363e44"/></g></g><g transform="translate(6.908)"><g transform="translate(11.303 3.496)"><path d="M513.405,1201.312c-1.55,4.145-11.531,6.021-11.531,6.021l-11.668-6.827a11.271,11.271,0,0,1,18.663-12.644S514.984,1197.09,513.405,1201.312Z" transform="translate(-488.265 -1182.912)" fill="#84524d"/><path d="M546.78,1297.148l.144.04a4.264,4.264,0,0,0,5.306-3.209l3.291-15.24a4.264,4.264,0,0,0-8.328-1.84l-3.435,15.2A4.264,4.264,0,0,0,546.78,1297.148Z" transform="translate(-536.935 -1262.577)" fill="#84524d"/><path d="M596.206,1370.8h-.023a.267.267,0,0,1,0-.535h.007a19.984,19.984,0,0,0,5.6-.888.267.267,0,0,1,.169.507A20.153,20.153,0,0,1,596.206,1370.8Z" transform="translate(-582.861 -1346.751)" fill="#363e44"/><path d="M666.952,1252.492s3.718.805,4.01,1.485c.348.812-1.777,2.891-1.777,2.891S667.014,1252.458,666.952,1252.492Z" transform="translate(-645.28 -1244.052)" fill="#84524d"/><g transform="translate(13.052 9.325)"><path d="M595.883,1271.359a8.7,8.7,0,0,1,2.557-2.822c.356-.241,1.615,3.064,1.168,3.132A8.716,8.716,0,0,1,595.883,1271.359Z" transform="translate(-595.883 -1267.466)" fill="#fff"/><path d="M617.872,1260.245a6.144,6.144,0,0,0-1.171.625,3.42,3.42,0,0,0,1.161,3.134,6.175,6.175,0,0,0,1.359-.361,2.723,2.723,0,1,0-1.349-3.4Z" transform="translate(-614.14 -1259.802)" fill="#373e44"/></g><path d="M663.506,1304.647a.268.268,0,0,1-.267-.266,1.39,1.39,0,0,1,2.27-1.09.267.267,0,1,1-.337.415.855.855,0,0,0-1.4.671.268.268,0,0,1-.266.269Z" transform="translate(-642.017 -1288.417)" fill="#363e44"/></g><path d="M495.8,1156.227a3.246,3.246,0,0,0-5.669-.811,3.842,3.842,0,0,0-5.554,2.455,9.607,9.607,0,0,0-2.179,17.543,3.835,3.835,0,0,0,3.414,3.725,2.977,2.977,0,1,0,4.275-3.729,3.815,3.815,0,0,0-1.091-2.776,5.388,5.388,0,0,0,.4-3.543,2.56,2.56,0,0,1,2.337-3.315,3.823,3.823,0,0,0,2.1-5.38l.027-.008A3.246,3.246,0,0,0,495.8,1156.227Z" transform="translate(-468.566 -1154.089)" fill="#363e44"/><path d="M404.483,1253.877a4.68,4.68,0,0,0,3.218-8.26,4.047,4.047,0,0,0-4.57-5.62,3.049,3.049,0,0,0-5.925,1.445,3.123,3.123,0,0,0-.881,5.462,3.02,3.02,0,0,0,4.007,4.007A4.682,4.682,0,0,0,404.483,1253.877Z" transform="translate(-395.074 -1227.546)" fill="#363e44"/></g><g transform="translate(10.191 30.748)"><g transform="translate(19.37 4.752)"><path d="M581.849,1500.131c4.292,3.525,16.1,14.419,20.319,9.684,3.486-3.916-8.453-14.046-12.506-17.809Z" transform="translate(-581.849 -1486.521)" fill="#84524d"/><g transform="translate(12.774)"><path d="M688.044,1476.947h0c7.93-5.041,13.141-7.956,16.531-10.161.985-.64,2.621-2.228,3.129-2.543a5.38,5.38,0,0,1,1.24-.6c2.178-.7,3.221.7,5.674.986,2.783.327,4.792-1.15,5.1-.524.212.436-.425,1.188-2.1,2.2,1.333-.632,3.166-1.413,3.389-.707.212.837-1.875,2-3.162,2.644,1.557-.78,2.541-.751,2.563-.309.035.7-1.079,1.569-3.164,2.524,1.556-.274,1.936-.107,1.86.3-.138.751-1.862,1.505-3.449,1.947a8.848,8.848,0,0,1-4.151.1l-1.192-.208c-6.821,5.248-13.128,11.942-17.362,13.224C690.081,1486.7,685.162,1482.948,688.044,1476.947Z" transform="translate(-687.169 -1461.429)" fill="#84524d"/><path d="M702.037,1553.274a.267.267,0,0,1-.127-.5c.846-.457,2.278-1.3,3.248-1.882a.267.267,0,1,1,.275.458c-.974.585-2.415,1.433-3.269,1.894A.265.265,0,0,1,702.037,1553.274Z" transform="translate(-699.998 -1538.23)" fill="#363e44"/><path d="M864.492,1450.277c2.51-1.8,3.124-2.935,2.894-3.291-.387-.6-3.009.133-6.929,2.338C861.54,1449.7,863.408,1449.9,864.492,1450.277Z" transform="translate(-839.439 -1446.786)" fill="#84524d"/><path d="M879.355,1463.5a.261.261,0,0,1-.083-.013c-.315-.1-.605-.214-.886-.322a6.525,6.525,0,0,0-1.68-.484.267.267,0,0,1,.054-.532,7.035,7.035,0,0,1,1.818.516c.275.105.559.214.861.313a.267.267,0,0,1-.083.521Z" transform="translate(-853.506 -1460.282)" fill="#363e44"/><path d="M915.246,1485.416c-.138,0-.276-.005-.412-.015a.267.267,0,1,1,.04-.533,5.188,5.188,0,0,0,.982-.022,5.854,5.854,0,0,0,1.437-.362.267.267,0,0,1,.194.5,6.369,6.369,0,0,1-1.569.395A5.8,5.8,0,0,1,915.246,1485.416Z" transform="translate(-887.005 -1479.896)" fill="#363e44"/><path d="M918.763,1500.493q-.208,0-.413-.015a.267.267,0,0,1,.04-.533,5.154,5.154,0,0,0,.982-.022,5.82,5.82,0,0,0,1.437-.362.267.267,0,1,1,.194.5,6.351,6.351,0,0,1-1.57.395A5.782,5.782,0,0,1,918.763,1500.493Z" transform="translate(-890.094 -1493.144)" fill="#363e44"/><path d="M912.344,1519.988c-.138,0-.276-.005-.412-.015a.267.267,0,1,1,.04-.533,5.217,5.217,0,0,0,.982-.022,5.821,5.821,0,0,0,1.437-.362.267.267,0,0,1,.194.5,6.358,6.358,0,0,1-1.57.395A5.812,5.812,0,0,1,912.344,1519.988Z" transform="translate(-884.454 -1510.274)" fill="#363e44"/></g></g><path d="M452.668,1431.9l6.329-7.978s-3.083-6.679-11.414-14.34a7.466,7.466,0,0,0-10.63.519,26.842,26.842,0,0,0-3.932,5.909c-4.477,8.873-16.38,38.351-1.192,45.434s49.852-4.766,49.852-4.766-3.343-2.5-22.293-8.618a15.926,15.926,0,0,1-2.621-1.633C455.431,1445.183,449.174,1439.09,452.668,1431.9Z" transform="translate(-424.08 -1407.608)" fill="#d87355"/><path d="M439.635,1586.507h-.02a28.542,28.542,0,0,1-9.838-2.218c-5.317-2.479-7.88-7.857-7.618-15.984.238-7.379,2.773-15.495,4.858-21a.267.267,0,0,1,.5.189c-2.07,5.471-4.587,13.526-4.823,20.831-.255,7.893,2.2,13.1,7.31,15.482a28.026,28.026,0,0,0,9.651,2.17.267.267,0,0,1-.019.534Z" transform="translate(-422.14 -1530.207)" fill="#363e44"/><g transform="translate(15.53 21.706)"><path d="M562.086,1594.689c4.246,2.747,13.188,8.2,14.173,8.824,1.84,1.165,12.439,6.3,11.62,7.6-.523.83-5.01-1.96-5.83-2.385.827.742,5.636,3.859,5.237,4.661-.433.87-6.91-2.559-6.967-2.571,1.089.762,2.168,1.543,3.192,2.391a6.354,6.354,0,0,1,1.491,1.422c.607,1.051-.964.561-1.443.372a34.867,34.867,0,0,1-4.907-2.392,16.345,16.345,0,0,1,3,2.475.58.58,0,0,1,.2.353.4.4,0,0,1-.385.368,1.166,1.166,0,0,1-.563-.14,128.048,128.048,0,0,1-26.15-14.992,5.631,5.631,0,0,1-1.7-1.875,19.084,19.084,0,0,1-1.2-3.171c-.7-2.326-1.179-4.712-1.658-7.091,0,0,6.4-2.466,10.83-1.872C561.729,1586.763,561.592,1594.745,562.086,1594.689Z" transform="translate(-550.186 -1586.575)" fill="#84524d"/></g><path d="M498.527,1522.561l4.257,12.642,15.067.117-1.337-9.092Z" transform="translate(-489.263 -1508.619)" fill="#d87355"/><path d="M526.274,1563.147l-15.569-.121-2.93-8.752a.267.267,0,0,1,.507-.17l2.809,8.39,14.565.113-.936-6.556a.267.267,0,1,1,.529-.076Z" transform="translate(-497.378 -1536.177)" fill="#363e44"/></g></g><g transform="translate(406.633 497.332)"><path d="M965.977,1723.724l-33.992-.147-4.793-6.341h42.1Z" transform="translate(-927.192 -1711.926)" fill="#8b865c"/><ellipse cx="17.125" cy="2.744" rx="17.125" ry="2.744" transform="translate(4.719 8.669)" fill="#8b865c"/><ellipse cx="21.125" cy="5.088" rx="21.125" ry="5.088" transform="translate(0)" fill="#fff"/><path d="M1001.1,1711.217a.266.266,0,0,1-.232-.135c-1.112-1.949-7.88-3.419-15.743-3.419-7.563,0-14.128,1.356-15.61,3.225a.267.267,0,1,1-.419-.332c1.6-2.018,8.192-3.428,16.029-3.428,8.172,0,14.988,1.551,16.207,3.689a.267.267,0,0,1-.1.365A.264.264,0,0,1,1001.1,1711.217Z" transform="translate(-963.96 -1703.045)" fill="#d3bba3"/></g><g transform="translate(414.639 463.59)"><path d="M1031.987,1445.507l-33.992-.147-4.793-6.341h42.1Z" transform="translate(-993.202 -1433.71)" fill="#8b865c"/><ellipse cx="17.125" cy="2.744" rx="17.125" ry="2.744" transform="translate(4.719 8.669)" fill="#8b865c"/><ellipse cx="21.125" cy="5.088" rx="21.125" ry="5.088" transform="translate(0)" fill="#fff"/><path d="M1067.107,1433a.266.266,0,0,1-.232-.135c-1.112-1.949-7.88-3.419-15.743-3.419-7.563,0-14.128,1.356-15.61,3.225a.267.267,0,1,1-.419-.332c1.6-2.018,8.192-3.428,16.029-3.428,8.172,0,14.988,1.552,16.207,3.689a.267.267,0,0,1-.232.4Z" transform="translate(-1029.969 -1424.826)" fill="#d3bba3"/></g><path d="M1737.061,1706.435h-35.9a8.824,8.824,0,0,1-8.824-8.824v-7.621h47.128a7.019,7.019,0,0,1,7.019,7.019A9.426,9.426,0,0,1,1737.061,1706.435Z" transform="translate(-1192.907 -1190.653)" fill="#d3bba3"/><g transform="translate(444.352 422.113)"><path d="M1753.612,1171.023c-8.164,12.012,6.094,22.409,10.041,31.2l-.281-12.2-8.715-9.269Z" transform="translate(-1688.92 -1156.741)" fill="#776e42"/><path d="M1755.644,1054.53c1.524-.636,6.921,1.776,7.718,2.742,2.512,3.046,1.459,3.847,4.146,6.4,2.084,1.977-.378,3.525,1.813,6.625,2.726,3.856-7.206,6.883-4.223,10.769,1.541,2.007-4.671,6.616-2.815,6.9-11.258,2.886-7.137,5.582-18.4,8.468-6.2-1.492-3.993-5.345-4.168-6.626-.37-2.7,11.853.1,11.724-3.343-.076-2.019-2.972-2.888-5.208-5.3a16.854,16.854,0,0,1-3.285-6.663c-.657-7.226.292-6.433,1.631-10.45.909-2.725.16-6.039,2.245-8.55A6.585,6.585,0,0,1,1755.644,1054.53Z" transform="translate(-1678.68 -1053.266)" fill="#363e44"/><g transform="translate(12.009 54.963)"><g transform="translate(0 5.931)"><path d="M1498.765,1566.5s-23.98-6.9-30.266-2.983c-6.617,4.119-14.921,34.347-14.921,34.347l9.17,3.016,8.285-25.633s15.615,10.121,21.711,9.279S1498.765,1566.5,1498.765,1566.5Z" transform="translate(-1439.464 -1561.468)" fill="#84524d"/><path d="M1337.265,1849c.49.6,3.821,1.292,12.378,2.131a35.338,35.338,0,0,1,4.658,2.915,4.088,4.088,0,0,0,5.883-1.052,4.2,4.2,0,0,0,.6-1.812l.257-5.508-9.22-2.639-6.9,1.022C1341.424,1843.981,1336.628,1847.423,1337.265,1849Z" transform="translate(-1337.208 -1808.146)" fill="#84524d"/><path d="M1519.092,1560.258s-27.918-8.248-33.48-3.36c-3.823,3.36-9.594,17.718-9.594,17.718l12.106,7.742,4.777-10.876s13.466,7.765,19.561,6.923S1519.092,1560.258,1519.092,1560.258Z" transform="translate(-1459.182 -1555.349)" fill="#e0aa63"/></g><g transform="translate(8.164)"><path d="M1563.725,1622.313s-23.013-6.143-28.843-1.578c-6.137,4.805-10.7,35.262-10.7,35.262l8.376,2.041,8.305-27.59s15.037,9.252,21.007,7.76S1563.725,1622.313,1563.725,1622.313Z" transform="translate(-1509.671 -1605.391)" fill="#84524d"/><path d="M1737.035,1507.243s4.316,22.462-1.115,29.753c-7.412,9.95-40.541-1.126-40.541-1.126v-16.188l14.95.9a3.99,3.99,0,0,0,4.182-3.379l.011-10.75Z" transform="translate(-1660.103 -1506.45)" fill="#8b865c"/><path d="M1568.315,1616.076s-25.026-7.171-30.856-2.606c-6.137,4.805-8.051,21.58-8.051,21.58l13.514,3.425,3.349-11.288s14.221,6.275,20.191,4.784S1568.315,1616.076,1568.315,1616.076Z" transform="translate(-1514.261 -1599.155)" fill="#efbc73"/><path d="M1404.583,1910.953c.49.6,3.821,1.292,12.378,2.131a35.282,35.282,0,0,1,4.658,2.915,4.088,4.088,0,0,0,5.883-1.052,4.193,4.193,0,0,0,.6-1.812l-.2-6.458-7.859-2.51c-1.876,1.247-4.805,1.575-7.8,1.843C1408.741,1905.93,1403.945,1909.372,1404.583,1910.953Z" transform="translate(-1404.525 -1855.93)" fill="#84524d"/><path d="M1453.186,1825.594a.267.267,0,0,1-.036-.532l7.043-.954a1.781,1.781,0,0,0,1.5-1.405l2.113-10.286a.267.267,0,1,1,.524.108l-2.113,10.286a2.317,2.317,0,0,1-1.956,1.828l-7.043.954Z" transform="translate(-1447.049 -1775.12)" fill="#363e44"/></g></g><g transform="translate(0 24.196)"><path d="M2012.31,1369.885c3.056,5.512,12.8,20.926,6.65,24.661-5.086,3.09-13.949-12.31-17.32-17.6Z" transform="translate(-1909.047 -1355.681)" fill="#84524d"/><g transform="translate(16.339 2.959)"><path d="M1637.522,1327.506c-4.871,4-18.276,16.363-23.059,10.99-3.957-4.444,11.55-17.348,16.149-21.619C1633.568,1319.952,1634.567,1324.433,1637.522,1327.506Z" transform="translate(-1584.605 -1312.062)" fill="#84524d"/><path d="M1410.34,1311.394h0c-9-5.721-14.913-9.029-18.76-11.531-1.118-.727-2.975-2.529-3.552-2.887a6.118,6.118,0,0,0-1.408-.677c-2.472-.8-3.655.792-6.439,1.119-3.158.371-5.439-1.306-5.785-.594-.241.495.483,1.349,2.379,2.5h0c-1.513-.717-3.593-1.6-3.846-.8-.241.95,2.128,2.269,3.588,3-1.767-.886-2.883-.853-2.908-.351-.039.79,1.225,1.781,3.591,2.865-1.766-.31-2.2-.121-2.111.346.157.852,2.113,1.708,3.914,2.21a10.043,10.043,0,0,0,4.711.118l1.353-.236c7.741,5.956,14.9,13.553,19.7,15.007C1408.028,1322.463,1413.611,1318.205,1410.34,1311.394Z" transform="translate(-1372.912 -1293.784)" fill="#84524d"/><path d="M1641.9,1398.241a.264.264,0,0,1-.127-.032c-.962-.519-2.6-1.482-3.708-2.148a.267.267,0,0,1,.275-.459c1.105.664,2.734,1.621,3.687,2.136a.267.267,0,0,1-.127.5Z" transform="translate(-1605.794 -1381.204)" fill="#363e44"/><path d="M1431.118,1281.128c-2.848-2.041-3.545-3.331-3.284-3.735.439-.679,3.415.151,7.864,2.653C1434.468,1280.47,1432.348,1280.7,1431.118,1281.128Z" transform="translate(-1421.128 -1277.166)" fill="#84524d"/><path d="M1445.891,1296.355a.267.267,0,0,1-.083-.521c.344-.113.666-.236.978-.356a7.965,7.965,0,0,1,2.054-.584.267.267,0,1,1,.054.532,7.446,7.446,0,0,0-1.917.552c-.318.122-.647.248-1,.365A.267.267,0,0,1,1445.891,1296.355Z" transform="translate(-1436.805 -1292.743)" fill="#363e44"/><path d="M1405.874,1321.229a6.524,6.524,0,0,1-.758-.044,7.185,7.185,0,0,1-1.772-.446.267.267,0,0,1,.194-.5,6.671,6.671,0,0,0,1.64.413,5.864,5.864,0,0,0,1.121.025.267.267,0,0,1,.04.533C1406.185,1321.224,1406.03,1321.229,1405.874,1321.229Z" transform="translate(-1399.503 -1315)" fill="#363e44"/><path d="M1401.881,1338.341a6.528,6.528,0,0,1-.757-.044,7.2,7.2,0,0,1-1.773-.446.267.267,0,1,1,.194-.5,6.654,6.654,0,0,0,1.64.413,5.927,5.927,0,0,0,1.121.025.267.267,0,0,1,.04.533C1402.193,1338.335,1402.038,1338.341,1401.881,1338.341Z" transform="translate(-1395.995 -1330.037)" fill="#363e44"/><path d="M1409.164,1360.464a6.548,6.548,0,0,1-.758-.044,7.173,7.173,0,0,1-1.773-.446.267.267,0,0,1,.194-.5,6.645,6.645,0,0,0,1.64.413,5.918,5.918,0,0,0,1.122.025.263.263,0,0,1,.287.247.268.268,0,0,1-.247.286Q1409.4,1360.465,1409.164,1360.464Z" transform="translate(-1402.394 -1349.477)" fill="#363e44"/></g><path d="M1781.35,1285.52c1.8-1.884,4.244-6.994,2.009-8.339-4.873-2.931-13.482-7.144-23.032-7.39-18.353-.472-20.456,5.358-20.456,5.358l6.569,17.924,1.83,13.279c10.486,2.27,22.06,5.99,29.682,4.442,1.008,1.2,0-12.29-.367-20.313Z" transform="translate(-1679.026 -1267.703)" fill="#8b865c"/><path d="M1249.4,1305.638l12.392,5.766c3.49,1.416,15.528,1.669,21.243.051l10.571-6.98Z" transform="translate(-1248.042 -1298.204)" fill="#fff"/><ellipse cx="22.821" cy="5.542" rx="22.821" ry="5.542" transform="translate(0 0.049)" fill="#fff"/><path d="M1269.888,1264.386c-11.349,0-23.089-2.173-23.089-5.81s11.739-5.81,23.089-5.81,23.089,2.173,23.089,5.81S1281.237,1264.386,1269.888,1264.386Zm0-11.085c-13.491,0-22.554,2.728-22.554,5.275s9.063,5.275,22.554,5.275,22.554-2.727,22.554-5.275S1283.379,1253.3,1269.888,1253.3Z" transform="translate(-1245.755 -1252.767)" fill="#363e44"/><circle cx="1.106" cy="1.106" r="1.106" transform="matrix(0.871, -0.492, 0.492, 0.871, 15.899, 6.456)" fill="#8b865c"/><path d="M1464.79,1297.854l1.72-1.72,1.872.051a9.535,9.535,0,0,0,4.5.455c.144.568-1.453.941-4.856,1.113l-2.529,1.163C1464.825,1298.634,1464.409,1298.309,1464.79,1297.854Z" transform="translate(-1437.18 -1290.874)" fill="#d87355"/><path d="M1394.945,1312.836c.673.341,1.025.849,1.932.538l1.149.416c.994-.267,1.59-.589,1.516-1a2.78,2.78,0,0,0,.465-1.223l-1.908,1.027A6.523,6.523,0,0,0,1394.945,1312.836Z" transform="translate(-1375.933 -1304.433)" fill="#efbc73"/><path d="M1721.695,1559.1l-12.388-.422,4.927,27.168c23.367,5.208,44.144,1.892,36.861-21.072Z" transform="translate(-1652.169 -1521.578)" fill="#8b865c"/><path d="M1806.606,1453.022a.267.267,0,0,1-.084-.521q1.608-.531,3.2-1.048c10.124-3.3,19.687-6.42,25.922-12.363a.267.267,0,0,1,.369.387c-6.323,6.028-15.942,9.164-26.126,12.485q-1.59.518-3.2,1.047A.265.265,0,0,1,1806.606,1453.022Z" transform="translate(-1737.432 -1416.427)" fill="#776e42"/><g transform="translate(74.452 28.829)"><path d="M1882.753,1493.563c-4.868,1.059-16.456,2.986-17.58,3.219-2.1.436-13.313,3.067-13.109,4.726.1.793,2.281.383,3.015.224-.529.421-2.736,1.819-2.4,2.649.4.975,3.28-.288,3.337-.279-.581.373-2.954,1.767-2.726,2.4.3.822,2.893.188,3.662-.038-.05.129-2.5,1.123-2.183,2.118.229.731,2.61.145,3.644-.106,1.866-.386,23.818-3.7,27.819-4.833C1887.8,1503.2,1885.142,1494.782,1882.753,1493.563Z" transform="translate(-1852.062 -1493.188)" fill="#84524d"/><path d="M2016.294,1493.041a.267.267,0,0,1-.048-.53c2.5-.455,8.969-1.713,10.532-2.035a.267.267,0,1,1,.108.524c-1.565.323-8.044,1.581-10.544,2.037A.263.263,0,0,1,2016.294,1493.041Z" transform="translate(-1996.141 -1490.471)" fill="#363e44"/><path d="M1874.656,1549.039a.267.267,0,0,1-.141-.495,10.052,10.052,0,0,1,3.6-1.362.267.267,0,0,1,.09.527A9.518,9.518,0,0,0,1874.8,1549,.265.265,0,0,1,1874.656,1549.039Z" transform="translate(-1871.681 -1540.301)" fill="#363e44"/><path d="M1882.293,1572.487a.268.268,0,0,1-.115-.509c.088-.042.177-.083.269-.123a10.112,10.112,0,0,1,2.377-.715.267.267,0,1,1,.09.527,9.559,9.559,0,0,0-2.252.678c-.087.038-.172.077-.255.117A.268.268,0,0,1,1882.293,1572.487Z" transform="translate(-1878.391 -1561.352)" fill="#363e44"/><path d="M1890.823,1595.13a.267.267,0,0,1-.087-.521,10.223,10.223,0,0,1,1.578-.4.267.267,0,0,1,.09.527,9.645,9.645,0,0,0-1.5.381A.271.271,0,0,1,1890.823,1595.13Z" transform="translate(-1885.887 -1581.622)" fill="#363e44"/></g><path d="M1792.886,1566.595c-12.589,0-18.375-2.795-24.438-5.724l-.842-.406a.268.268,0,0,1,.232-.482l.843.407c7.323,3.537,14.241,6.878,33.486,5.242a.267.267,0,0,1,.045.533C1798.728,1566.461,1795.643,1566.595,1792.886,1566.595Z" transform="translate(-1703.264 -1522.7)" fill="#776e42"/></g><g transform="translate(65.906 1.219)"><g transform="translate(0 0.945)"><path d="M1803.925,1071.141c-.406.021-4.287.28-6.2,3.248-1.427,2.208-1.259,4.743-.334,8.952,1.089,4.957,2.432,7.768,4.022,8.541,2.511,1.221,8.814-3.292,10.727-8.048a10.2,10.2,0,0,0-1.863-10.3A7.652,7.652,0,0,0,1803.925,1071.141Z" transform="translate(-1794.843 -1071.112)" fill="#84524d"/><rect width="7.441" height="21.256" rx="3.721" transform="translate(7.864 7.879) rotate(-8.503)" fill="#84524d"/><g transform="translate(0 9.953)"><path d="M1784.478,1153.282a1.624,1.624,0,1,0-1,2.378C1783.748,1155.857,1784.821,1153.348,1784.478,1153.282Z" transform="translate(-1781.599 -1153.177)" fill="#fff"/><path d="M1797.885,1156.938a2.1,2.1,0,1,0,1.149-2.575,4.757,4.757,0,0,0-1.035-.322,2.637,2.637,0,0,0-1,2.378A4.731,4.731,0,0,0,1797.885,1156.938Z" transform="translate(-1795.12 -1153.936)" fill="#363e44"/></g></g><path d="M1808.935,1101.156c-.439-.918,4.067-4.665,3.8-5.983-.593-2.934,1.277-9.073,1.619-10.346-.08,1.1,2.819,4.3,2.534.774-.341-4.228,3.019-2.092-.07-5.771-3.808-4.536-4.436-6.486-8.223-9.465a11.526,11.526,0,0,0-9.512-1.924,10.1,10.1,0,0,0-2.316.962c-4.794,2.614-3.248,7.485-3.206,8.265a5.9,5.9,0,0,1,1.853-3.99,5.371,5.371,0,0,1,1.853-1.069c1.557.259,3.755.87,4.6,2.565,1.4,2.83-2.539,5.529-1.924,9.726.585,3.986,4.549,4.323,6.84,8.871,1.124,2.23-3.181,3.52-4.951,9.637C1805.153,1102.245,1804.029,1102.841,1808.935,1101.156Z" transform="translate(-1791.872 -1067.541)" fill="#363e44"/><path d="M1829.164,1174.037a.268.268,0,0,1-.138-.039,1.208,1.208,0,0,1-.683-.891,1.071,1.071,0,0,1,.29-.74c.02-.026.04-.052.058-.077a1.708,1.708,0,0,0,.256-1.091.267.267,0,0,1,.534-.024,2.22,2.22,0,0,1-.357,1.427c-.021.029-.045.06-.069.092-.115.148-.189.254-.18.372.011.148.159.312.427.474a.267.267,0,0,1-.139.5Z" transform="translate(-1822.671 -1157.871)" fill="#363e44"/><path d="M1827.553,1210.206a.268.268,0,0,1-.222-.416,1.5,1.5,0,0,1,1.024-.65,1.436,1.436,0,0,1,.85.155.267.267,0,0,1-.248.474.926.926,0,0,0-.533-.1.962.962,0,0,0-.648.417A.267.267,0,0,1,1827.553,1210.206Z" transform="translate(-1821.745 -1191.445)" fill="#363e44"/><path d="M1813.37,1163.673c2.323,3.323,3.708,4.687,4.351,7.232a10.691,10.691,0,0,1-.757,7.143c-6.866,14.632-17.658,28.145-26.832,33.15l-2.287-10.363Z" transform="translate(-1787.087 -1151.502)" fill="#776e42"/><path d="M1798.144,1063.363c1.575,8.536.266,21.768-2.98,32.209-2.294,7.379-6.441,12.63-7.32,17.08,3.414-1.673,10.85-5.887,15.953-12.763,4.514-6.082,7.537-14.032,9.606-20.79a11.087,11.087,0,0,0-2.383-10.683C1806.528,1063.454,1801.948,1063.161,1798.144,1063.363Z" transform="translate(-1787.087 -1063.318)" fill="#9e9569"/></g></g></g></g></svg>