<svg xmlns="http://www.w3.org/2000/svg" xmlns:xlink="http://www.w3.org/1999/xlink" width="250" height="272" viewBox="0 0 250 272"><defs><clipPath id="a"><path d="M1484.966,1619.6h-67.342l-1.12-25.579h68.462Z" transform="translate(-1416.504 -1594.022)" fill="none"/></clipPath><clipPath id="b"><rect width="41.805" height="24.867" fill="none"/></clipPath><clipPath id="c"><rect width="30.117" height="20.59" fill="none"/></clipPath><clipPath id="d"><rect width="38.818" height="11.757" fill="none"/></clipPath></defs><g transform="translate(6642 9031)"><g transform="translate(94 -66)"><path d="M10,0H240a10,10,0,0,1,10,10V272a0,0,0,0,1,0,0H0a0,0,0,0,1,0,0V10A10,10,0,0,1,10,0Z" transform="translate(-6736 -8965)" fill="#f2e6dc"/><g transform="translate(-7058.158 -9270)"><path d="M558.7,446.4q0,1.148-.024,2.287-.064,3.221-.311,6.4A111.246,111.246,0,0,1,459.5,557.134q-4,.435-8.077.582h-.016q-1.457.052-2.927.07c-.271.005-.545.005-.816.005H447.5c-.327,0-.655,0-.982-.005q-1.55-.008-3.091-.064a111.79,111.79,0,0,1-16.012-1.71q-1.747-.314-3.47-.687c-.29-.059-.58-.123-.869-.188a111.237,111.237,0,0,1-86.694-99.217c-.024-.279-.046-.561-.067-.84q-.246-3.177-.311-6.4-.024-1.139-.024-2.287a111.359,111.359,0,1,1,222.719,0Z" transform="translate(-0.168 0)" fill="#f2e6dc"/><g transform="translate(365.101 335)"><path d="M908.086,408.106c5.1,4.569,15.113-8.665,23.036,8.39,4.676,10.065,10.977,2.192,16.733,6.624,3.741,2.88,6.781,8.52,5.358,18.046-2.148-.62-5.96-.139-8.108-.759-.229-2.171-.479-8.215-5.547-9.273-6.185-1.292-12.622,9.61-20.7,6.664-6.8-2.482-5.608-12.11-12.221-15.425-7.934-3.977-15.151.86-26.151,4.784-4.126,1.472-12.529,2.05-15.679,2.05-6.1,0-21.877-2.741-15.438-13.621,3.592-6.069-8.683-6.669-8.062-10.211C843.208,394.53,867.108,371.408,908.086,408.106Z" transform="translate(-809.017 -381.688)" fill="#fff" opacity="0.4"/><g transform="translate(58.785 18.554)"><g transform="translate(41.236 38.022)"><g transform="translate(27.848)"><path d="M1648.983,841.075h-22.928l1.1-17.214,5.72-6.541-4.887-6.541.723-11.361h17.624l.723,11.361-4.887,6.541,5.72,6.541Z" transform="translate(-1626.055 -799.418)" fill="#d3bba3"/><path d="M1635.05,905.759h20.736l-.833-13.082h-19.071Z" transform="translate(-1633.954 -881.316)" fill="#fff"/></g><path d="M1420.387,841.075h-22.928l1.1-17.214,5.72-6.541-4.887-6.541.723-11.361h17.625l.723,11.361-4.887,6.541,5.72,6.541Z" transform="translate(-1397.459 -799.418)" fill="#d3bba3"/><path d="M1406.454,905.759h20.737l-.833-13.082h-19.071Z" transform="translate(-1405.358 -881.316)" fill="#fff"/></g><g transform="translate(35.344 79.584)"><rect width="59.755" height="12.772" fill="#e6d0be"/><rect width="56.612" height="2.14" transform="translate(1.537 2.888)" fill="#f7f1eb"/><rect width="56.612" height="2.14" transform="translate(1.537 7.55)" fill="#f7f1eb"/></g><g transform="translate(3.674)"><g transform="translate(18.447)"><path d="M1240.553,583.286h11.311l-2.05-95.98H1242.6Z" transform="translate(-1240.553 -487.306)" fill="#fff"/><path d="M1245.622,583.285h-5.069l2.05-95.98h3.019Z" transform="translate(-1240.553 -487.305)" fill="#f7f1eb"/><path d="M1256.365,493.49l.123-6.185h7.212l.123,6.185Z" transform="translate(-1254.439 -487.305)" fill="#d3bba3"/><path d="M1262.306,594.061h-7.948l.123-6.185h7.7Z" transform="translate(-1252.677 -575.625)" fill="#d3bba3"/><path d="M1260.789,694.633h-8.437l.124-6.185h8.19Z" transform="translate(-1250.915 -663.944)" fill="#d3bba3"/><path d="M1259.271,795.2h-8.926l.123-6.185h8.679Z" transform="translate(-1249.152 -752.263)" fill="#d3bba3"/></g><path d="M1089.126,583.286h11.311l-2.05-95.98h-7.212Z" transform="translate(-1089.126 -487.306)" fill="#fff"/><path d="M1094.194,583.522h-5.068l2.049-95.947,3.019,0Z" transform="translate(-1089.125 -487.542)" fill="#f7f1eb"/><path d="M1104.938,493.49l.123-6.185h7.212l.123,6.185Z" transform="translate(-1103.011 -487.305)" fill="#d3bba3"/><path d="M1110.693,594.061h-7.974l.132-6.185h7.718Z" transform="translate(-1101.063 -575.625)" fill="#d3bba3"/><path d="M1109.051,694.56h-8.48l.132-6.195,8.224.01Z" transform="translate(-1099.177 -663.872)" fill="#d3bba3"/><path d="M1107.409,795.2h-8.986l.132-6.185h8.73Z" transform="translate(-1097.291 -752.263)" fill="#d3bba3"/></g><g transform="translate(0 56.514)"><path d="M1091.484,963.012v-11.8l-7.8,11.8v-11.8l-7.8,11.8v-11.8l-15.247,23.07h38.647V951.21Z" transform="translate(-1060.433 -951.21)" fill="#d3bba3"/><rect width="35.344" height="18.987" transform="translate(0 16.856)" fill="#f7f1eb"/><g transform="translate(5.419 20.501)"><rect width="4.331" height="8.09" transform="translate(25.472 8.09) rotate(180)" fill="#e6d0be"/><rect width="4.331" height="8.09" transform="translate(14.902 8.09) rotate(180)" fill="#e6d0be"/><rect width="4.331" height="8.09" transform="translate(4.331 8.09) rotate(180)" fill="#e6d0be"/></g></g><g transform="translate(95.099 72.374)"><rect width="25.372" height="19.801" transform="translate(10.687)" fill="#d3bba3"/><rect width="25.372" height="19.801" fill="#f7f1eb"/><g transform="translate(2.606 2.752)"><rect width="3.973" height="3.972" fill="#e6d0be"/><rect width="3.973" height="3.972" transform="translate(0 7.93)" fill="#e6d0be"/><rect width="3.973" height="3.972" transform="translate(7.933)" fill="#e6d0be"/><rect width="3.973" height="3.972" transform="translate(7.933 7.93)" fill="#e6d0be"/><rect width="3.973" height="3.972" transform="translate(15.865)" fill="#e6d0be"/><rect width="3.973" height="3.972" transform="translate(15.865 7.93)" fill="#e6d0be"/></g></g></g><g transform="translate(0 0)"><path d="M634.062,337.837a4.608,4.608,0,0,0-2.25.584,6.178,6.178,0,0,0-11.51,1.21,4.493,4.493,0,0,0-6.289,4.037,5.591,5.591,0,1,0,3.106,7.566,4.625,4.625,0,0,0,8.262-.624A4.61,4.61,0,0,0,633.452,347a4.666,4.666,0,0,0,.61.041,4.6,4.6,0,1,0,0-9.2Z" transform="translate(-602.75 -335)" fill="#363e44" opacity="0.3"/><path d="M609.512,399.331a5.514,5.514,0,0,0-2.693.7,7.393,7.393,0,0,0-13.774,1.448,5.377,5.377,0,0,0-7.527,4.832,6.691,6.691,0,1,0,3.717,9.055,5.535,5.535,0,0,0,9.888-.747,5.517,5.517,0,0,0,9.659-4.324,5.6,5.6,0,0,0,.731.049,5.505,5.505,0,1,0,0-11.011Z" transform="translate(-576.413 -388.512)" fill="#363e44" opacity="0.3"/><path d="M1094.522,376.381a4.7,4.7,0,0,0,2.272.055,5.957,5.957,0,0,0,11.184,1.878,5.48,5.48,0,0,0,1.61.8c5.354,1.833,7.758-3.471,4.114-6.294,2.333-4.79-.8-6.911-2.406-7.348a5.711,5.711,0,0,0-5.406,1.645,4.609,4.609,0,0,0-2.91-2.337,4.426,4.426,0,0,0-5.5,2.951,4.116,4.116,0,0,0-.111.558,4.824,4.824,0,0,0-.567-.195,4.3,4.3,0,1,0-2.276,8.284Z" transform="translate(-1028.44 -361.006)" fill="#363e44" opacity="0.3"/><path d="M1255.107,424.036a4.4,4.4,0,0,0-2.254-.332,5.994,5.994,0,0,0-3.583-5.306,6.086,6.086,0,0,0-7.228,1.966,4.261,4.261,0,0,0-1.464-1.044,4.464,4.464,0,0,0-5.8,2.342,5.325,5.325,0,0,0-1.643-1.11,5.644,5.644,0,0,0-4.5,10.346,5.5,5.5,0,0,0,5.885-1.035,4.472,4.472,0,0,0,2.656,3.633,4.532,4.532,0,0,0,5.006-1.01,4.437,4.437,0,0,0,2.493,2.829,4.593,4.593,0,0,0,5.994-2.466,4.781,4.781,0,0,0,.208-.578,4.437,4.437,0,0,0,.531.275,4.642,4.642,0,0,0,3.7-8.51Z" transform="translate(-1146.307 -407.813)" fill="#363e44" opacity="0.3"/><path d="M881.66,358.925a5.005,5.005,0,0,0-2.5-.859,6.927,6.927,0,0,0-2.849-6.9,7.1,7.1,0,0,0-8.734.759,4.831,4.831,0,0,0-1.429-1.519,5.244,5.244,0,0,0-7.192,1.494,6.035,6.035,0,0,0-1.617-1.632,6.711,6.711,0,0,0-7.591,11.046,6.373,6.373,0,0,0,6.978.038,5.156,5.156,0,0,0,2.183,4.77,5.261,5.261,0,0,0,5.966-.118,5.086,5.086,0,0,0,2.185,3.8,5.4,5.4,0,0,0,7.44-1.6,5.848,5.848,0,0,0,.374-.627,5,5,0,0,0,.543.43,5.52,5.52,0,0,0,6.244-9.086Z" transform="translate(-814.093 -347.474)" fill="#363e44" opacity="0.3"/><path d="M991.381,474.116a4.189,4.189,0,0,0,2.1.253,5.612,5.612,0,0,0,10.139,2.792,4.088,4.088,0,0,0,6.668-1.33,5.091,5.091,0,1,0,5.3-8.491c-1.914-.75-3.727-.794-5.121.536-.228-1.412-1.455-2.145-2.888-2.706a4.2,4.2,0,0,1-7.012-1.487,4.2,4.2,0,0,0-5.442,2.36,4.155,4.155,0,0,0-.168.528,4.261,4.261,0,0,0-.5-.237,4.183,4.183,0,1,0-3.073,7.782Z" transform="translate(-938.492 -447.751)" fill="#363e44" opacity="0.3"/></g></g><path d="M558.458,1245.111a100.643,100.643,0,0,1-1.4,18.439,111.428,111.428,0,0,1-90.894,92q-3.424.59-6.879.965-4,.435-8.077.583h-.016q-1.457.052-2.927.07c-.271.005-.545.005-.816.005h-.164c-.327,0-.655,0-.982-.005-.982-.011-1.961-.032-2.938-.07a114.635,114.635,0,0,1-16.717-1.815q-1.465-.27-2.917-.577c-.29-.059-.58-.124-.869-.188A111.455,111.455,0,0,1,355,1308.376q-19.282-28.345-19.213-63.265S558.458,1245.108,558.458,1245.111Z" transform="translate(0 -799.238)" fill="#efbc73"/><g transform="translate(504.175 356.545)"><path d="M1721.466,942.074a.13.13,0,0,1-.034,0l-3.313-.96a.121.121,0,0,1-.082-.154l19.391-61.15a.124.124,0,0,1,.06-.071.12.12,0,0,1,.093-.008l3.287,1.043a.121.121,0,0,1,.079.153l-19.364,61.067A.122.122,0,0,1,1721.466,942.074Zm-3.16-1.164,3.079.892,19.292-60.837-3.055-.969Z" transform="translate(-1718.03 -834.906)" fill="#363e44"/><g transform="translate(2.809 0)"><path d="M1771.454,512.187l-28.794,14.989a2.925,2.925,0,0,0-1.244,3.943l14.985,28.8a2.922,2.922,0,0,0,3.942,1.244l28.794-14.989a2.925,2.925,0,0,0,1.244-3.943l-14.984-28.8A2.923,2.923,0,0,0,1771.454,512.187Z" transform="translate(-1741.086 -511.856)" fill="#d87355"/><path d="M1792.83,591.341a.77.77,0,0,1-.453-.381L1779.082,565.4a.774.774,0,0,1,.329-1.044l25.547-13.3a.774.774,0,0,1,1.043.329l13.294,25.555a.773.773,0,0,1-.329,1.043l-25.547,13.3A.77.77,0,0,1,1792.83,591.341Z" transform="translate(-1774.376 -546.209)" fill="#fff"/><path d="M1881.517,621.116h0a8.306,8.306,0,0,0-10.42,5.424l-2.168,6.875a2.253,2.253,0,0,0,1.47,2.826l1,.316-1.6,5.071,1.652.525.8-2.539.956.3-.8,2.539,1.7.545.8-2.539.991.316-.8,2.539,1.632.5.8-2.539.956.337-.8,2.539,1.652.486,1.6-5.071,1,.317a2.252,2.252,0,0,0,2.825-1.471l2.168-6.875A8.309,8.309,0,0,0,1881.517,621.116Zm-7.649,11.592a1.974,1.974,0,1,1,2.476-1.289A1.974,1.974,0,0,1,1873.867,632.708Zm7.265,2.292a1.974,1.974,0,1,1,2.475-1.289A1.974,1.974,0,0,1,1881.132,635Z" transform="translate(-1853.262 -607.466)" fill="#363e44"/></g></g><path d="M1290.281,1292.391a3.384,3.384,0,0,0-3,1.62,4.389,4.389,0,0,0-3.392-1.494,4.847,4.847,0,0,0-1.215.154,3.216,3.216,0,0,0,.03-.427c0-2.065-1.994-3.74-4.454-3.74a5.054,5.054,0,0,0-2.445.614c-.476-2.482-3.038-4.378-6.128-4.378-3.327,0-6.043,2.2-6.2,4.959a5.405,5.405,0,0,0-2.533-.615,5.463,5.463,0,0,0-2.251.475,3.874,3.874,0,0,0,.148-1.055c0-2.524-2.437-4.57-5.442-4.57s-5.669,1.854-5.669,4.378c0,.1-.021.313-.013.415a3.8,3.8,0,0,0-1.514-.223,4.445,4.445,0,0,0-4.241,2.6,5.271,5.271,0,0,0-4.508-2.3,5.145,5.145,0,0,0-4.738,2.72,4.734,4.734,0,0,0-2.862-.929,4.344,4.344,0,0,0-3.953,2.223,4.141,4.141,0,0,0-4.2-2.934c-2.361,0-4.275,1.607-4.275,3.59a3.044,3.044,0,0,0,.154.943,4.663,4.663,0,0,0-3.141-1.16,4.1,4.1,0,0,0-4.231,3.1h83.057a2.389,2.389,0,0,0,.325-1.194A3.074,3.074,0,0,0,1290.281,1292.391Zm-64.814,2.774a3.349,3.349,0,0,0,.182-.325,3.107,3.107,0,0,0,.091.325Z" transform="translate(-767.894 -833.333)" fill="#f7f1eb"/><path d="M537.857,1307.061a2.512,2.512,0,0,0-2.358,1.641,2.884,2.884,0,0,0-3.308-1.274h0a3.538,3.538,0,0,0-5.432-3.5,4.8,4.8,0,0,0-9.392.979l0,0a4.132,4.132,0,0,0-5.752-.031l0,0a3.459,3.459,0,0,0-6.91-.023,3.273,3.273,0,0,0-4.289.644,3.25,3.25,0,0,0-6.294.813,2.962,2.962,0,0,0-4.9,1.567,2.079,2.079,0,0,0-1.547.134,1.991,1.991,0,0,0-.635.5,2.052,2.052,0,0,0-.413.754,2.377,2.377,0,0,0-3.8.264,2.336,2.336,0,0,0-.367,1.1,1.821,1.821,0,0,0,.14.232h19.872a2.937,2.937,0,0,0,.923,0H535.69c.031.054.067.109.1.16.018-.054.031-.106.044-.16h4.186a2.513,2.513,0,0,0-2.164-3.8Zm-31.674.868c0-.016,0-.033,0-.049l.074.049h-.077Zm3.888-.018q.137-.092.265-.2c0,.046,0,.1,0,.144v.052Z" transform="translate(-128.791 -847.848)" fill="#f7f1eb"/><g transform="translate(336.042 392.553)"><g transform="translate(34.572 28.733)"><rect width="29.793" height="4.581" rx="2.29" transform="translate(39.243 79.885)" fill="#363e44"/><path d="M775.728,1385.933H641.193a2.29,2.29,0,0,0-2.289,2.29h0a2.29,2.29,0,0,0,2.289,2.291h20.371a2.232,2.232,0,0,1,1.889,2.391v.208a2.286,2.286,0,0,1-1.89,2.391H623.952a2.291,2.291,0,0,0,0,4.581h29.13a2.383,2.383,0,0,1,2.156,2.391v.208a2.382,2.382,0,0,1-2.156,2.391H637.156a2.29,2.29,0,0,0-2.29,2.29h0a2.29,2.29,0,0,0,2.29,2.29h46.952a2.4,2.4,0,0,1,2.192,2.392v.209a2.4,2.4,0,0,1-2.192,2.389H668.054a2.29,2.29,0,0,0-2.29,2.29h0a2.29,2.29,0,0,0,2.29,2.29H709.88a2.29,2.29,0,0,0,2.29-2.29h0a2.29,2.29,0,0,0-2.29-2.29H700.83a2.39,2.39,0,0,1-2.342-2.389v-.209a2.391,2.391,0,0,1,2.391-2.392h41.51a2.29,2.29,0,0,0,2.29-2.29h0a2.29,2.29,0,0,0-2.29-2.29H704.7a2.391,2.391,0,0,1-2.365-2.39v-.209a2.391,2.391,0,0,1,2.368-2.391h24.2a2.291,2.291,0,0,0,0-4.581H693.476a2.258,2.258,0,0,1-2.095-2.391v-.209a2.261,2.261,0,0,1,2.072-2.39h82.275a2.29,2.29,0,0,0,2.29-2.291h0A2.29,2.29,0,0,0,775.728,1385.933Zm-82.341,16.543v.209a2.4,2.4,0,0,1-2.192,2.39H666.39a2.372,2.372,0,0,1-2.353-2.391v-.208a2.372,2.372,0,0,1,2.353-2.391H691.2A2.4,2.4,0,0,1,693.387,1402.476ZM680.7,1392.9v.209a2.3,2.3,0,0,1-1.921,2.391H676.02a2.244,2.244,0,0,1-2.061-2.391v-.208a2.244,2.244,0,0,1,2.061-2.391h2.755A2.3,2.3,0,0,1,680.7,1392.9Z" transform="translate(-621.662 -1344.192)" fill="#363e44"/><path d="M909.945,1085.037a3.063,3.063,0,0,1-1.437-.292,2.172,2.172,0,0,1-.86-.835,4.376,4.376,0,0,1-.488-1.467c-1.85-10.09-6.385-19.662-13.784-26.855a44.608,44.608,0,0,0-3.413-3c-6.053-4.79-13.938-8.566-21.7-9.294h-.012s-9.551,8.516,1.323,13.526c3.01,1.386,4.832,4.282,5.829,7.34,1.642,5.037,1.416,10.251,1.1,15.458-.13,2.129-.254,5.441-3.133,5.417l13.949,1.877Z" transform="translate(-834.801 -1043.296)" fill="#363e44"/></g><g transform="translate(0 0)"><g transform="translate(0 13.06)"><rect width="68.124" height="28.554" transform="translate(0 1.718)" fill="#84524d"/><rect width="2.79" height="31.345" transform="translate(66.622)" fill="#bc8271"/><rect width="13.736" height="32.776" rx="6.868" transform="translate(24.556)" fill="#bc8271"/></g><g transform="translate(22.517)"><ellipse cx="5.07" cy="5.072" rx="5.07" ry="5.072" transform="translate(3.964 2.916)" fill="#bc8271"/><rect width="18.028" height="5.582" transform="translate(0 7.478)" fill="#84524d"/><rect width="1.949" height="1.601" transform="translate(8.048 1.512)" fill="#bc8271"/><rect width="14.88" height="1.512" transform="translate(1.449)" fill="#84524d"/></g></g></g><g transform="translate(467.442 488.376)"><path d="M1438.551,1790.135h-8.922a.122.122,0,0,1,0-.244h8.922a.122.122,0,0,1,0,.244Z" transform="translate(-1427.923 -1766.03)" fill="#f7f1eb"/><g transform="translate(6.673 25.724)"><path d="M1603.913,1826.685h-29.959a.122.122,0,0,1,0-.244h29.959a.122.122,0,0,1,0,.244Z" transform="translate(-1561.339 -1823.852)" fill="#f7f1eb"/><path d="M1801.69,1845.868h-9.281a.122.122,0,1,1,0-.244h9.281a.122.122,0,1,1,0,.244Z" transform="translate(-1753.181 -1840.698)" fill="#f7f1eb"/><path d="M1530.314,1805.429H1471.4a.122.122,0,0,1,0-.244h58.915a.122.122,0,1,1,0,.244Z" transform="translate(-1471.277 -1805.185)" fill="#f7f1eb"/></g><g clip-path="url(#a)"><g transform="translate(6.664 2.413)"><rect width="54.287" height="32.717" transform="translate(49.199 56.298) rotate(-150.582)" fill="#f7f1eb"/><rect width="50.517" height="29.532" transform="translate(48.247 53.795) rotate(-150.582)" fill="#776e42"/><path d="M1518.615,1669.239a.122.122,0,0,1-.06-.016l-47.287-26.664a.122.122,0,0,1-.047-.166l16.062-28.5a.122.122,0,0,1,.166-.046l47.288,26.664a.122.122,0,0,1,.046.166l-16.062,28.5a.124.124,0,0,1-.073.058A.131.131,0,0,1,1518.615,1669.239Zm-47.121-26.832,47.075,26.544,15.942-28.291-47.075-26.545Z" transform="translate(-1471.205 -1613.828)" fill="#363e44"/><rect width="10.743" height="6.475" transform="translate(46.355 17.036) rotate(-150.582)" fill="#f7f1eb"/><path d="M1771.752,1625.123l16.5,9.3h0a4.469,4.469,0,0,1-4.577.111l-9.651-5.442a4.471,4.471,0,0,1-2.275-3.974Z" transform="translate(-1735.138 -1623.747)" fill="#f7f1eb"/><path d="M1774.325,1669.105a.119.119,0,0,1-.06-.016l-9.358-5.277a.122.122,0,0,1-.046-.166l3.178-5.641a.122.122,0,0,1,.166-.046l9.358,5.277a.122.122,0,0,1,.046.166l-3.178,5.641a.121.121,0,0,1-.074.057A.111.111,0,0,1,1774.325,1669.105Zm-9.192-5.445,9.146,5.157,3.059-5.428-9.146-5.157Z" transform="translate(-1729.074 -1652.57)" fill="#363e44"/><path d="M1784.995,1634.359a4.591,4.591,0,0,1-2.255-.593l-9.651-5.442a4.591,4.591,0,0,1-2.337-4.083.122.122,0,0,1,.182-.1l16.5,9.3a.122.122,0,0,1,.005.209A4.589,4.589,0,0,1,1784.995,1634.359Zm-14-9.906a4.345,4.345,0,0,0,2.211,3.659l9.65,5.442a4.343,4.343,0,0,0,4.274,0Z" transform="translate(-1734.26 -1622.869)" fill="#363e44"/><g transform="translate(15.138 2.843)"><path d="M1632.965,1652.235a.12.12,0,0,1-.087-.037l-3.736-3.818a.123.123,0,0,1-.023-.138l1.524-3.164-1.338-.645a.122.122,0,0,1-.069-.11l.006-3.161-2.481-.654a.121.121,0,0,1-.079-.064l-1.516-3.1a.122.122,0,1,1,.219-.107l1.492,3.051,2.518.664a.122.122,0,0,1,.091.118l-.007,3.178,1.379.664a.122.122,0,0,1,.057.163l-1.539,3.2,3.676,3.756a.122.122,0,0,1-.087.207Z" transform="translate(-1621.538 -1637.167)" fill="#f2e6dc"/><path d="M1657.725,1711.409a.122.122,0,0,1-.02-.242l3.016-.5,1.444-1.723a.121.121,0,0,1,.092-.044.117.117,0,0,1,.093.042l1.341,1.534,2.069.109a.122.122,0,0,1,.115.128.12.12,0,0,1-.128.115l-2.12-.112a.122.122,0,0,1-.085-.042l-1.281-1.465-1.381,1.648a.122.122,0,0,1-.073.042l-3.06.51Z" transform="translate(-1650.034 -1700.159)" fill="#f2e6dc"/><path d="M1644.935,1712.645a.117.117,0,0,1-.036-.005l-1.455-.45a.121.121,0,0,1-.083-.088l-.274-1.169-1.563-.753-2.031-.439a.122.122,0,0,1-.079-.181l1.05-1.762-2-3.339a.121.121,0,0,1,.021-.152l3.911-3.635a.122.122,0,0,1,.166.178l-3.838,3.568,1.99,3.317a.122.122,0,0,1,0,.125l-1,1.679,1.879.406a.12.12,0,0,1,.027.009l1.629.785a.122.122,0,0,1,.066.082l.272,1.158,1.388.43a.122.122,0,0,1-.036.238Z" transform="translate(-1633.208 -1692.904)" fill="#f2e6dc"/><path d="M1602,1690.352a.122.122,0,0,1-.109-.067l-1.225-2.409-1.521-.172a.121.121,0,0,1-.07-.032l-1.663-1.572-1.824-.112a.122.122,0,0,1-.114-.129.12.12,0,0,1,.129-.114l1.868.115a.121.121,0,0,1,.076.033l1.665,1.574,1.546.174a.123.123,0,0,1,.095.066l1.254,2.468a.122.122,0,0,1-.054.164A.12.12,0,0,1,1602,1690.352Z" transform="translate(-1595.471 -1679.827)" fill="#f2e6dc"/><path d="M1597.149,1728.506a.122.122,0,0,1-.081-.031l-1.183-1.042a.122.122,0,0,1,.161-.183l1.14,1,1.839-.309.572-2.041a.122.122,0,0,1,.162-.08l1.441.568a.122.122,0,1,1-.09.227l-1.315-.519-.556,1.986a.123.123,0,0,1-.1.087l-1.973.332Z" transform="translate(-1595.798 -1715.015)" fill="#f2e6dc"/></g></g></g></g><g transform="translate(437.918 519.149)"><g transform="translate(0)"><g clip-path="url(#b)"><g transform="translate(5.185 0.252)"><path d="M1268.612,1903.7l-12.964,5.416-9.859-23.616-2.021-13.322,6.935-2.9,8.05,10.8Z" transform="translate(-1240.473 -1866.774)" fill="#f7f1eb"/><rect width="14.109" height="8.488" transform="translate(5.718 22.576) rotate(-22.671)" fill="#d87355"/><path d="M1246.521,1911.806a.127.127,0,0,1-.046-.009.123.123,0,0,1-.066-.066l-7.789-18.658a43.824,43.824,0,0,1-2.883-10.3l-1.215-8.01a.122.122,0,0,1,.074-.131l6.935-2.9a.122.122,0,0,1,.145.039l4.84,6.5a43.8,43.8,0,0,1,5.294,9.291l7.789,18.658a.122.122,0,0,1-.066.159l-12.964,5.416A.129.129,0,0,1,1246.521,1911.806Zm-11.745-36.984,1.2,7.916a43.592,43.592,0,0,0,2.868,10.241l7.742,18.546,12.74-5.322-7.742-18.546a43.571,43.571,0,0,0-5.265-9.24l-4.783-6.419Z" transform="translate(-1232.351 -1868.922)" fill="#363e44"/><rect width="10.112" height="2.95" rx="1.475" transform="translate(0 3.897) rotate(-22.671)" fill="#d87355"/></g></g></g><path d="M1267.192,2049.995h-23.2a.122.122,0,0,1,0-.244h23.2a.122.122,0,0,1,0,.244Z" transform="translate(-1235.374 -2025.006)" fill="#f7f1eb"/><path d="M1402.323,2036.336H1395.2a.122.122,0,0,1,0-.244h7.127a.122.122,0,1,1,0,.244Z" transform="translate(-1368.162 -2013.011)" fill="#f7f1eb"/></g><g transform="translate(385.852 510.993)"><g transform="translate(1.469)"><g clip-path="url(#c)"><g transform="translate(5.896 2.49)"><path d="M813.92,1838.44a8.845,8.845,0,1,0,14.853-3.94l.556-2.718a4.355,4.355,0,0,0-3.151-5.083h0a4.354,4.354,0,0,0-5.253,2.856l-.862,2.637A8.839,8.839,0,0,0,813.92,1838.44Z" transform="translate(-812.842 -1823.333)" fill="#f7f1eb"/><path d="M886.106,1800.224h0a3.27,3.27,0,0,1,2.322,4l-.245.925-6.319-1.675.245-.925A3.269,3.269,0,0,1,886.106,1800.224Z" transform="translate(-872.77 -1800.114)" fill="#d87355"/><path d="M816.166,1842.41a8.968,8.968,0,0,1-8.653-11.265,9.015,9.015,0,0,1,6.165-6.316l.842-2.575a4.475,4.475,0,0,1,8.638,2.289l-.543,2.655a8.978,8.978,0,0,1-6.45,15.213Zm-8.535-11.234.118.031a8.726,8.726,0,0,0,6.534,10.75,8.495,8.495,0,0,0,1.858.205,8.809,8.809,0,0,0,8.309-5.946,8.711,8.711,0,0,0-2.053-8.9.122.122,0,0,1-.032-.11l.556-2.718a4.232,4.232,0,0,0-8.168-2.164l-.862,2.637a.123.123,0,0,1-.083.079,8.769,8.769,0,0,0-6.058,6.161Z" transform="translate(-807.209 -1816.847)" fill="#363e44"/><path d="M858.861,1849.664a.122.122,0,0,1-.072-.024l-1.774-1.306-1.812.8a.123.123,0,0,1-.146-.036l-1.188-1.525-2.06.541a.122.122,0,0,1-.144-.163l4.316-10.794a.122.122,0,1,1,.226.09l-4.227,10.569,1.9-.5a.122.122,0,0,1,.127.043l1.179,1.513,1.79-.791a.122.122,0,0,1,.121.013l1.661,1.222L860,1838.265a.122.122,0,0,1,.242.027l-1.259,11.263a.123.123,0,0,1-.072.1A.127.127,0,0,1,858.861,1849.664Z" transform="translate(-846.242 -1832.578)" fill="#363e44"/></g></g></g><g transform="translate(0 20.468)"><path d="M802.542,1947.932H778.487a.122.122,0,1,1,0-.244h24.056a.122.122,0,1,1,0,.244Z" transform="translate(-774.514 -1947.688)" fill="#f7f1eb"/><path d="M761.709,1965.285H746.872a.122.122,0,0,1,0-.244h14.837a.122.122,0,0,1,0,.244Z" transform="translate(-746.75 -1962.927)" fill="#f7f1eb"/></g></g><g transform="translate(361.174 496.027)"><path d="M674.37,1742.731h-23.2a.122.122,0,1,1,0-.244h23.2a.122.122,0,1,1,0,.244Z" transform="translate(-638.026 -1732.052)" fill="#f7f1eb"/><path d="M712.373,1769.782h-9.752a.122.122,0,1,1,0-.243h9.752a.122.122,0,1,1,0,.243Z" transform="translate(-683.213 -1755.807)" fill="#f7f1eb"/><path d="M569.471,1754.784h-23.2a.122.122,0,0,1,0-.244h23.2a.122.122,0,0,1,0,.244Z" transform="translate(-545.906 -1742.636)" fill="#f7f1eb"/><g transform="translate(0)"><g clip-path="url(#d)"><g transform="translate(1.176 0.961)"><path d="M592.454,1715.542a5.21,5.21,0,0,1-1.511-.2.122.122,0,0,1,.071-.233c2.285.7,6.05-.673,8.8-1.672.779-.283,1.516-.551,2.11-.732a49.085,49.085,0,0,1,11.85-1.325.122.122,0,1,1-.008.244,48.763,48.763,0,0,0-11.771,1.315c-.589.179-1.322.446-2.1.728C597.651,1714.483,594.737,1715.542,592.454,1715.542Z" transform="translate(-586.346 -1705.685)" fill="#363e44"/><path d="M554.021,1697.339a.122.122,0,0,1-.122-.118,5.513,5.513,0,0,1,.681-2.509c.623-1.19,2.724-2.042,3.531-2.333-3.251-1.432-4.237-6.647-4.278-6.875a.122.122,0,0,1,.22-.091,4.446,4.446,0,0,0,2.042,1.393c2.025.753,3.2,3.253,3.384,4.787a3.256,3.256,0,0,1-2.188,3.88,14.9,14.9,0,0,0-3.194,1.837A.12.12,0,0,1,554.021,1697.339Zm.153-11.423c.333,1.365,1.534,5.378,4.33,6.356a.122.122,0,0,1,0,.231c-.03.009-2.99.958-3.7,2.321a5.7,5.7,0,0,0-.643,2.136,16.216,16.216,0,0,1,3.041-1.71,3.016,3.016,0,0,0,2.044-3.627c-.174-1.431-1.32-3.879-3.227-4.588A5.225,5.225,0,0,1,554.175,1685.916Z" transform="translate(-553.832 -1682.846)" fill="#363e44"/><path d="M624.117,1713.787a.12.12,0,0,1-.062-.017.122.122,0,0,1-.042-.167c1.723-2.879-1.157-6.289-1.186-6.323a.122.122,0,0,1,.185-.159c.031.035,3.023,3.578,1.211,6.606A.122.122,0,0,1,624.117,1713.787Z" transform="translate(-614.395 -1701.918)" fill="#363e44"/><path d="M645.334,1707.532a.121.121,0,0,1-.1-.19c1.98-2.944-1.546-7.125-1.582-7.167a.122.122,0,1,1,.185-.158c.151.177,3.683,4.364,1.6,7.462A.122.122,0,0,1,645.334,1707.532Z" transform="translate(-632.683 -1695.678)" fill="#363e44"/><path d="M665.071,1698.056a.122.122,0,0,1-.1-.187c1.891-3.007-2.19-8.139-2.232-8.19a.122.122,0,0,1,.19-.153c.174.216,4.231,5.32,2.248,8.473A.122.122,0,0,1,665.071,1698.056Z" transform="translate(-649.445 -1686.463)" fill="#363e44"/><path d="M688.67,1690.039a.122.122,0,0,1-.109-.177c2.091-4.17-2.187-9.911-2.231-9.969a.122.122,0,0,1,.194-.147c.044.059,4.413,5.92,2.254,10.225A.122.122,0,0,1,688.67,1690.039Z" transform="translate(-670.167 -1677.873)" fill="#363e44"/><path d="M713.43,1683.791a.122.122,0,0,1-.109-.176c2.168-4.414-2.284-10.9-2.329-10.969a.122.122,0,1,1,.2-.139c.046.066,4.579,6.673,2.348,11.216A.122.122,0,0,1,713.43,1683.791Z" transform="translate(-691.827 -1671.512)" fill="#363e44"/><path d="M740.507,1677.97a.122.122,0,0,1-.112-.17c2.584-5.982-1.81-11.946-1.854-12.006a.122.122,0,1,1,.195-.146c.046.061,4.525,6.135,1.883,12.249A.122.122,0,0,1,740.507,1677.97Z" transform="translate(-716.018 -1665.491)" fill="#363e44"/><g transform="translate(26.625 0.122)"><path d="M780.615,1671.341c-.2-1.174,2.464-.2,2.1-.743s-9-5.912-10.036-4.708,1.037,3.158.866,6.254c-.13,2.345-.279,6.67,1.263,5.986.985-.438,8.085-5.651,8.085-5.651C782.722,1671.437,780.786,1672.333,780.615,1671.341Zm-3.478,3.456c-.676.145-1.178-.531-1.382-1.49s.175-1.854.855-2,1.393.517,1.6,1.475A1.7,1.7,0,0,1,777.137,1674.8Z" transform="translate(-772.385 -1665.714)" fill="#e0aa63"/></g><g transform="translate(26.502)"><path d="M773.617,1677.447a.644.644,0,0,1-.373-.118c-.889-.614-.843-3.566-.7-6.069a9.067,9.067,0,0,0-.713-3.681c-.4-1.1-.708-1.969-.123-2.646a.858.858,0,0,1,.732-.214c1.326.079,4.007,1.491,5.487,2.326a25.482,25.482,0,0,1,4.011,2.607.221.221,0,0,1,.03.247c-.088.152-.348.132-.779.1-.45-.034-1.067-.081-1.27.142a.341.341,0,0,0-.062.3c.063.368.423.415,1.007.448.548.031,1.169.067,1.271.69a.122.122,0,0,1-.048.118c-.29.213-7.122,5.226-8.108,5.664A.882.882,0,0,1,773.617,1677.447Zm-1.3-12.488a.555.555,0,0,0-.431.133c-.492.569-.215,1.339.167,2.4a9.266,9.266,0,0,1,.728,3.777c-.072,1.3-.291,5.24.6,5.855a.476.476,0,0,0,.493.012c.912-.406,7.287-5.07,8-5.591-.1-.336-.46-.382-1.029-.415-.531-.031-1.132-.065-1.233-.65h0a.574.574,0,0,1,.122-.506c.283-.31.941-.26,1.468-.221a3.521,3.521,0,0,0,.517.017c-.419-.5-7.068-4.678-9.3-4.811C772.386,1664.96,772.352,1664.958,772.319,1664.958Zm3.754,9.1a1.024,1.024,0,0,1-.779-.393,2.723,2.723,0,0,1-.542-1.213,1.706,1.706,0,0,1,.948-2.147,1.217,1.217,0,0,1,1.084.353,2.308,2.308,0,0,1,.658,1.215,1.814,1.814,0,0,1-1.163,2.162h0A1,1,0,0,1,776.074,1674.061Zm.181-.142h0Zm-.339-3.391a.773.773,0,0,0-.163.017c-.612.134-.954.968-.761,1.858a2.483,2.483,0,0,0,.487,1.1.749.749,0,0,0,.751.292,1.586,1.586,0,0,0,.977-1.873,2.064,2.064,0,0,0-.585-1.088A1.054,1.054,0,0,0,775.916,1670.528Z" transform="translate(-771.381 -1664.715)" fill="#363e44"/></g></g></g></g></g></g></g></g></svg>