<svg xmlns="http://www.w3.org/2000/svg" width="250" height="279" viewBox="0 0 250 279"><g transform="translate(9778 9457)"><rect width="250" height="279" rx="10" transform="translate(-9778 -9457)" fill="#f2e6dc"/><g transform="translate(-10098.4 -9762)"><path d="M556.5,445.932a111.892,111.892,0,0,1-1.127,15.862q-.293,2.045-.661,4.066a109.847,109.847,0,0,1-4.813,17.829q-.405,1.127-.841,2.24c-.1.259-.2.519-.3.775a110.309,110.309,0,0,1-6.631,13.841c-.185.323-.369.647-.559.968-.051.094-.1.187-.163.281l-.177.3q-.41.7-.835,1.4-.735,1.211-1.5,2.4c-.118.187-.238.372-.361.556-.086.136-.174.273-.268.406-.059.1-.123.2-.193.291-.115.176-.233.355-.353.532s-.235.353-.359.529q-.148.225-.305.449c-.021.035-.045.067-.07.1-.11.16-.222.318-.332.476a.332.332,0,0,1-.051.075c-.072.11-.15.219-.23.329a.842.842,0,0,1-.083.115c-.174.249-.348.494-.527.74-.158.227-.321.455-.487.679-.115.16-.23.318-.351.476-.021.032-.045.064-.07.1-.254.348-.514.692-.774,1.035l-.048.064c-.311.412-.626.818-.942,1.224-.276.356-.554.706-.835,1.056a.085.085,0,0,1-.024.029c-.163.2-.327.406-.493.609a.082.082,0,0,1-.024.03c-.187.235-.377.468-.568.7-.431.521-.865,1.034-1.3,1.545-.211.251-.428.5-.645.746q-.446.513-.9,1.018c-.182.206-.367.414-.554.617-.013.016-.027.032-.04.045-.308.34-.618.679-.932,1.013a111.632,111.632,0,0,1-13.554,12.341l-.011.008A110.6,110.6,0,0,1,462.888,555.5c-.115.019-.23.037-.345.053-.005,0-.008,0-.011,0l-.08.011a.046.046,0,0,1-.019,0,.711.711,0,0,1-.072.011s-.005,0-.011,0a.555.555,0,0,1-.07.011c-.155.024-.313.048-.471.07-.091.016-.185.03-.278.04a.153.153,0,0,1-.048.008.212.212,0,0,1-.043.005c-.123.021-.249.037-.375.056-.011,0-.024,0-.035.005-.238.032-.474.061-.712.091l-.2.027c-.04,0-.078.008-.118.013l-.091.013-.439.056c-.2.027-.4.051-.6.075-.035.005-.07.008-.107.011-.094.013-.187.024-.287.035l-.412.048-.353.04c-.177.019-.356.038-.541.059s-.383.04-.581.061-.4.04-.6.061l-.211.021q-5.112.473-10.36.476c-.739,0-1.48-.008-2.217-.024h-.005q-5.5-.1-10.85-.738h0c-.731-.083-1.454-.177-2.179-.278q-3.831-.521-7.579-1.307c-.292-.061-.583-.123-.875-.187-.268-.056-.535-.118-.806-.176q-.9-.2-1.8-.42a111.075,111.075,0,0,1-58.977-36.725l-.008-.008a111.024,111.024,0,1,1,196.4-71.068Z" fill="#f2e6dc"/><path d="M860.965,1391.4c-5.311,26.618-19.369,50.151-40.012,66.19a110.275,110.275,0,0,1-67.9,23.25q-5.987,0-11.814-.553a115.019,115.019,0,0,1-35.151-8.939,106.621,106.621,0,0,1-16.691-9.1q-3.441-2.294-6.687-4.857,4.269-3.653,8.467-7.169c11.832-9.9,21.967-18.479,33.635-26.51,6.331-4.357,14.366-8.8,20.5-12.642,22.538-14.1,47.233-14.83,72.027-20.221C835.113,1393.421,847.313,1386.957,860.965,1391.4Z" transform="translate(-306.13 -926.823)" fill="#efbc73"/><g transform="translate(414.2 336.044)"><path d="M1016.893,343.606l-24.137,40.28h48.275Z" transform="translate(-992.756 -343.606)" fill="#fff"/><path d="M1055.352,390.113h-48.275a.268.268,0,0,1-.23-.406l24.137-40.28a.278.278,0,0,1,.46,0l24.137,40.28a.268.268,0,0,1-.23.406Zm-47.8-.536h47.329l-23.664-39.49Z" transform="translate(-1005.104 -348.615)" fill="#84524d"/><g transform="translate(22.113 13.922)"><path d="M1181.321,475.85h-5.149l-1.149-17.49h7.448Z" transform="translate(-1175.023 -458.36)" fill="#d87355"/><rect width="5.149" height="4.232" transform="translate(1.149 19.901)" fill="#d87355"/></g></g><g transform="translate(432.062 371.322)"><rect width="18.539" height="41.091" transform="translate(56.729 13.082)" fill="#f7f1eb"/><rect width="15.488" height="59.807" transform="translate(41.478 30.567)" fill="#d3bba3"/><g transform="translate(72.065 30.037)"><rect width="26.6" height="58.961" fill="#d3bba3"/><rect width="2.458" height="5.002" transform="translate(16.411 2.502)" fill="#fff"/><rect width="2.458" height="5.002" transform="translate(20.937 2.502)" fill="#fff"/><rect width="2.458" height="5.002" transform="translate(16.411 11.714)" fill="#fff"/><rect width="2.458" height="5.002" transform="translate(20.937 11.714)" fill="#fff"/><rect width="2.458" height="5.002" transform="translate(16.411 20.927)" fill="#fff"/><rect width="2.458" height="5.002" transform="translate(20.937 20.927)" fill="#fff"/><rect width="2.458" height="5.002" transform="translate(2.761 2.502)" fill="#fff"/><rect width="2.458" height="5.002" transform="translate(7.288 2.502)" fill="#fff"/><rect width="2.458" height="5.002" transform="translate(11.814 2.502)" fill="#fff"/><rect width="2.458" height="5.002" transform="translate(2.761 11.714)" fill="#fff"/><rect width="2.458" height="5.002" transform="translate(7.288 11.714)" fill="#fff"/><rect width="2.458" height="5.002" transform="translate(11.814 11.714)" fill="#fff"/><rect width="2.458" height="5.002" transform="translate(2.761 20.927)" fill="#fff"/><rect width="2.458" height="5.002" transform="translate(7.288 20.927)" fill="#fff"/><rect width="2.458" height="5.002" transform="translate(11.814 20.927)" fill="#fff"/><rect width="2.458" height="5.002" transform="translate(16.411 30.165)" fill="#fff"/><rect width="2.458" height="5.002" transform="translate(20.937 30.165)" fill="#fff"/><rect width="2.458" height="5.002" transform="translate(16.411 39.377)" fill="#fff"/><rect width="2.458" height="5.002" transform="translate(20.937 39.377)" fill="#fff"/><rect width="2.458" height="5.002" transform="translate(16.411 48.59)" fill="#fff"/><rect width="2.458" height="5.002" transform="translate(20.937 48.59)" fill="#fff"/><rect width="2.458" height="5.002" transform="translate(2.761 30.165)" fill="#fff"/><rect width="2.458" height="5.002" transform="translate(7.288 30.165)" fill="#fff"/><rect width="2.458" height="5.002" transform="translate(11.814 30.165)" fill="#fff"/><rect width="2.458" height="5.002" transform="translate(2.761 39.377)" fill="#fff"/><rect width="2.458" height="5.002" transform="translate(7.288 39.377)" fill="#fff"/><rect width="2.458" height="5.002" transform="translate(11.814 39.377)" fill="#fff"/><rect width="2.458" height="5.002" transform="translate(2.761 48.59)" fill="#fff"/><rect width="2.458" height="5.002" transform="translate(7.288 48.59)" fill="#fff"/><rect width="2.458" height="5.002" transform="translate(11.814 48.59)" fill="#fff"/></g><g transform="translate(98.596 0)"><rect width="24.325" height="81.043" transform="translate(0.051 10.817)" fill="#e6d0be"/><rect width="21.354" height="61.245" transform="translate(3.023 4.817)" fill="#e6d0be"/><rect width="9.822" height="32.723" transform="translate(7.303)" fill="#e6d0be"/><rect width="4.006" height="4.159" transform="translate(0 14.314)" fill="#fff"/><rect width="4.006" height="4.159" transform="translate(7.378 14.314)" fill="#fff"/><rect width="4.006" height="4.159" transform="translate(14.756 14.314)" fill="#fff"/><rect width="4.006" height="4.159" transform="translate(0 21.973)" fill="#fff"/><rect width="4.006" height="4.159" transform="translate(7.378 21.973)" fill="#fff"/><rect width="4.006" height="4.159" transform="translate(14.756 21.973)" fill="#fff"/><rect width="4.006" height="4.159" transform="translate(0 29.632)" fill="#fff"/><rect width="4.006" height="4.159" transform="translate(7.378 29.632)" fill="#fff"/><rect width="4.006" height="4.159" transform="translate(14.756 29.632)" fill="#fff"/><rect width="4.006" height="4.159" transform="translate(0 37.291)" fill="#fff"/><rect width="4.006" height="4.159" transform="translate(7.378 37.291)" fill="#fff"/><rect width="4.006" height="4.159" transform="translate(14.756 37.291)" fill="#fff"/><rect width="4.006" height="4.159" transform="translate(0 44.949)" fill="#fff"/><rect width="4.006" height="4.159" transform="translate(7.378 44.949)" fill="#fff"/><rect width="4.006" height="4.159" transform="translate(14.756 44.949)" fill="#fff"/><rect width="4.006" height="4.159" transform="translate(0 52.608)" fill="#fff"/><rect width="4.006" height="4.159" transform="translate(7.378 52.608)" fill="#fff"/><rect width="4.006" height="4.159" transform="translate(14.756 52.608)" fill="#fff"/><rect width="4.006" height="4.159" transform="translate(0 60.267)" fill="#fff"/><rect width="4.006" height="4.159" transform="translate(7.378 60.267)" fill="#fff"/><rect width="4.006" height="4.159" transform="translate(14.756 60.267)" fill="#fff"/><rect width="4.006" height="4.159" transform="translate(0 67.926)" fill="#fff"/><rect width="4.006" height="4.159" transform="translate(7.378 67.926)" fill="#fff"/><rect width="4.006" height="4.159" transform="translate(14.756 67.926)" fill="#fff"/><rect width="4.006" height="4.159" transform="translate(0 75.585)" fill="#fff"/><rect width="4.006" height="4.159" transform="translate(7.378 75.585)" fill="#fff"/><rect width="4.006" height="4.159" transform="translate(14.756 75.585)" fill="#fff"/><rect width="4.006" height="4.159" transform="translate(0 83.244)" fill="#fff"/></g><g transform="translate(48.015 42.235)"><rect width="25.847" height="48.231" fill="#e6d0be"/><rect width="2.988" height="3.453" transform="translate(3.21 3.183)" fill="#fff"/><rect width="2.988" height="3.453" transform="translate(8.713 3.183)" fill="#fff"/><rect width="2.988" height="3.453" transform="translate(14.217 3.183)" fill="#fff"/><rect width="2.988" height="3.453" transform="translate(19.72 3.183)" fill="#fff"/><rect width="2.988" height="3.453" transform="translate(3.21 9.542)" fill="#fff"/><rect width="2.988" height="3.453" transform="translate(8.713 9.542)" fill="#fff"/><rect width="2.988" height="3.453" transform="translate(14.217 9.542)" fill="#fff"/><rect width="2.988" height="3.453" transform="translate(19.72 9.542)" fill="#fff"/><rect width="2.988" height="3.453" transform="translate(3.21 15.902)" fill="#fff"/><rect width="2.988" height="3.453" transform="translate(8.713 15.902)" fill="#fff"/><rect width="2.988" height="3.453" transform="translate(14.217 15.902)" fill="#fff"/><rect width="2.988" height="3.453" transform="translate(19.72 15.902)" fill="#fff"/><rect width="2.988" height="3.453" transform="translate(3.21 22.261)" fill="#fff"/><rect width="2.988" height="3.453" transform="translate(8.713 22.261)" fill="#fff"/><rect width="2.988" height="3.453" transform="translate(14.217 22.261)" fill="#fff"/><rect width="2.988" height="3.453" transform="translate(19.72 22.261)" fill="#fff"/><rect width="2.988" height="3.453" transform="translate(3.21 28.62)" fill="#fff"/><rect width="2.988" height="3.453" transform="translate(8.713 28.62)" fill="#fff"/><rect width="2.988" height="3.453" transform="translate(14.217 28.62)" fill="#fff"/><rect width="2.988" height="3.453" transform="translate(19.72 28.62)" fill="#fff"/><rect width="2.988" height="3.453" transform="translate(3.21 34.98)" fill="#fff"/><rect width="2.988" height="3.453" transform="translate(8.713 34.98)" fill="#fff"/><rect width="2.988" height="3.453" transform="translate(14.217 34.98)" fill="#fff"/><rect width="2.988" height="3.453" transform="translate(19.72 34.98)" fill="#fff"/><rect width="2.988" height="3.453" transform="translate(3.21 41.339)" fill="#fff"/><rect width="2.988" height="3.453" transform="translate(8.713 41.339)" fill="#fff"/><rect width="2.988" height="3.453" transform="translate(14.217 41.339)" fill="#fff"/><rect width="2.988" height="3.453" transform="translate(19.72 41.339)" fill="#fff"/></g><g transform="translate(16.603 23.037)"><rect width="24.807" height="59.461" fill="#e6d0be"/><g transform="translate(1.903 6.528)"><g transform="translate(0 10.01)"><rect width="2.067" height="5.305" transform="translate(14.074)" fill="#f7f1eb"/><rect width="2.067" height="5.305" transform="translate(18.766)" fill="#f7f1eb"/><rect width="2.067" height="5.305" fill="#f7f1eb"/><rect width="2.067" height="5.305" transform="translate(4.691)" fill="#f7f1eb"/><rect width="2.067" height="5.305" transform="translate(9.383)" fill="#f7f1eb"/></g><rect width="2.067" height="5.305" transform="translate(14.074)" fill="#f7f1eb"/><rect width="2.067" height="5.305" transform="translate(18.766)" fill="#f7f1eb"/><rect width="2.067" height="5.305" fill="#f7f1eb"/><rect width="2.067" height="5.305" transform="translate(4.691)" fill="#f7f1eb"/><rect width="2.067" height="5.305" transform="translate(9.383)" fill="#f7f1eb"/><g transform="translate(0 20.02)"><rect width="2.067" height="5.305" transform="translate(14.074)" fill="#f7f1eb"/><rect width="2.067" height="5.305" transform="translate(18.766)" fill="#f7f1eb"/><rect width="2.067" height="5.305" fill="#f7f1eb"/><rect width="2.067" height="5.305" transform="translate(4.691)" fill="#f7f1eb"/><rect width="2.067" height="5.305" transform="translate(9.383)" fill="#f7f1eb"/></g><g transform="translate(0 40.039)"><rect width="2.067" height="5.305" transform="translate(14.074)" fill="#f7f1eb"/><rect width="2.067" height="5.305" transform="translate(18.766)" fill="#f7f1eb"/><rect width="2.067" height="5.305" fill="#f7f1eb"/><rect width="2.067" height="5.305" transform="translate(4.691)" fill="#f7f1eb"/><rect width="2.067" height="5.305" transform="translate(9.383)" fill="#f7f1eb"/></g><g transform="translate(0 30.029)"><rect width="2.067" height="5.305" transform="translate(14.074)" fill="#f7f1eb"/><rect width="2.067" height="5.305" transform="translate(18.766)" fill="#f7f1eb"/><rect width="2.067" height="5.305" fill="#f7f1eb"/><rect width="2.067" height="5.305" transform="translate(4.691)" fill="#f7f1eb"/><rect width="2.067" height="5.305" transform="translate(9.383)" fill="#f7f1eb"/></g></g></g><g transform="translate(0 46.4)"><rect width="17.117" height="35.786" fill="#d3bba3"/><g transform="translate(1.98 3.264)"><rect width="1.359" height="2.841" fill="#fff"/><rect width="1.359" height="2.841" transform="translate(3.893)" fill="#fff"/><rect width="1.359" height="2.841" transform="translate(7.786)" fill="#fff"/><rect width="1.359" height="2.841" transform="translate(11.679)" fill="#fff"/><rect width="1.359" height="2.841" transform="translate(0 6.5)" fill="#fff"/><rect width="1.359" height="2.841" transform="translate(3.893 6.5)" fill="#fff"/><rect width="1.359" height="2.841" transform="translate(7.786 6.5)" fill="#fff"/><rect width="1.359" height="2.841" transform="translate(11.679 6.5)" fill="#fff"/><rect width="1.359" height="2.841" transform="translate(0 12.999)" fill="#fff"/><rect width="1.359" height="2.841" transform="translate(3.893 12.999)" fill="#fff"/><rect width="1.359" height="2.841" transform="translate(7.786 12.999)" fill="#fff"/><rect width="1.359" height="2.841" transform="translate(11.679 12.999)" fill="#fff"/><rect width="1.359" height="2.841" transform="translate(0 25.999)" fill="#fff"/><rect width="1.359" height="2.841" transform="translate(3.893 25.999)" fill="#fff"/><rect width="1.359" height="2.841" transform="translate(7.786 25.999)" fill="#fff"/><rect width="1.359" height="2.841" transform="translate(11.679 25.999)" fill="#fff"/></g></g></g><g transform="translate(336.047 452.139)"><path d="M459.142,1302.71c-41.5,0-80.2,5.5-108.344,14.233,5.337,28.267,19.8,50.853,39.455,66.359,45.344-38.814,97.449-63.56,131.528-76.28A441.388,441.388,0,0,0,459.142,1302.71Z" transform="translate(-350.53 -1302.442)" fill="#e6d0be"/><path d="M348.857,1315.27a.268.268,0,0,1-.079-.524c29.167-9.053,68.685-14.245,108.423-14.245a440.311,440.311,0,0,1,62.678,4.315.268.268,0,1,1-.077.53,439.83,439.83,0,0,0-62.6-4.309c-39.686,0-79.147,5.183-108.264,14.221A.276.276,0,0,1,348.857,1315.27Z" transform="translate(-348.589 -1300.501)" fill="#f7f1eb"/></g><g transform="translate(335.471 442.744)"><g transform="translate(110.063 8.157)"><g transform="translate(0 0)"><path d="M1270.422,1309.579l-.08,13.219.878,1.516h-12.356l1.006-1.585.079-13.187Z" transform="translate(-1257.912 -1307.208)" fill="#84524d"/><ellipse cx="2.379" cy="5.243" rx="2.379" ry="5.243" transform="translate(2.017 4.758) rotate(-89.841)" fill="#bc8271"/><path d="M1275.382,1337.088h0a.268.268,0,0,1-.266-.269l.04-6.7a.268.268,0,0,1,.268-.266h0a.268.268,0,0,1,.266.27l-.04,6.7A.268.268,0,0,1,1275.382,1337.088Z" transform="translate(-1272.191 -1325.057)" fill="#bc8271"/><path d="M1275.142,1404.13h0a.268.268,0,0,1-.267-.27l.018-2.933a.268.268,0,0,1,.268-.266h0a.268.268,0,0,1,.266.27l-.018,2.933A.268.268,0,0,1,1275.142,1404.13Z" transform="translate(-1271.98 -1387.272)" fill="#bc8271"/><path d="M1286.576,1339.224h0a.268.268,0,0,1-.266-.269l.019-3.223a.268.268,0,0,1,.268-.266h0a.268.268,0,0,1,.266.27l-.019,3.223A.268.268,0,0,1,1286.576,1339.224Z" transform="translate(-1282.027 -1329.986)" fill="#bc8271"/><path d="M1286.213,1377.672h0a.268.268,0,0,1-.266-.269l.037-6.212a.28.28,0,0,1,.27-.266.268.268,0,0,1,.266.269l-.037,6.212A.268.268,0,0,1,1286.213,1377.672Z" transform="translate(-1281.708 -1361.143)" fill="#bc8271"/><path d="M1330.831,1338.629h0a.268.268,0,0,1-.266-.27l.015-2.474a.268.268,0,0,1,.268-.266h0a.268.268,0,0,1,.266.27l-.015,2.474A.268.268,0,0,1,1330.831,1338.629Z" transform="translate(-1320.913 -1330.121)" fill="#bc8271"/><path d="M1330.521,1377.476h0a.268.268,0,0,1-.266-.27l.026-4.229a.268.268,0,0,1,.268-.266h0a.268.268,0,0,1,.266.269l-.026,4.229A.268.268,0,0,1,1330.521,1377.476Z" transform="translate(-1320.64 -1362.713)" fill="#bc8271"/><path d="M1341.97,1332.074h0a.268.268,0,0,1-.266-.269l.009-1.454a.274.274,0,0,1,.27-.266.268.268,0,0,1,.267.269l-.009,1.454A.268.268,0,0,1,1341.97,1332.074Z" transform="translate(-1330.7 -1325.258)" fill="#bc8271"/><path d="M1341.725,1350.407h0a.268.268,0,0,1-.266-.27l.027-4.538a.268.268,0,0,1,.268-.266h0a.268.268,0,0,1,.267.27l-.027,4.537A.268.268,0,0,1,1341.725,1350.407Z" transform="translate(-1330.485 -1338.657)" fill="#bc8271"/><path d="M1341.472,1399.066h0a.268.268,0,0,1-.266-.269l.022-3.633a.268.268,0,0,1,.268-.266h0a.268.268,0,0,1,.266.27l-.022,3.633A.268.268,0,0,1,1341.472,1399.066Z" transform="translate(-1330.263 -1382.208)" fill="#bc8271"/><path d="M1308.637,1342.718h0a.268.268,0,0,1-.266-.27l.023-3.854a.268.268,0,0,1,.268-.266h0a.268.268,0,0,1,.266.27l-.023,3.854A.268.268,0,0,1,1308.637,1342.718Z" transform="translate(-1301.411 -1332.501)" fill="#bc8271"/><path d="M1308.556,1378.162h0a.268.268,0,0,1-.266-.27l0-.815a.268.268,0,0,1,.268-.266h0a.268.268,0,0,1,.266.27l-.005.815A.268.268,0,0,1,1308.556,1378.162Z" transform="translate(-1301.34 -1366.315)" fill="#bc8271"/><path d="M1308.434,1386.508h0a.268.268,0,0,1-.266-.27l.015-2.445a.268.268,0,0,1,.268-.266h0a.268.268,0,0,1,.266.27l-.015,2.445A.268.268,0,0,1,1308.434,1386.508Z" transform="translate(-1301.233 -1372.216)" fill="#bc8271"/><path d="M1308.307,1417.63h0a.268.268,0,0,1-.267-.269l.006-1.07a.268.268,0,0,1,.268-.266h0a.268.268,0,0,1,.266.27l-.006,1.069A.268.268,0,0,1,1308.307,1417.63Z" transform="translate(-1301.121 -1400.771)" fill="#bc8271"/><g transform="translate(2.393 0.163)"><path d="M1330.687,1300a.268.268,0,0,1-.074-.525c1.123-.323,1.822-.841,1.825-1.354,0-.4-.429-.82-1.185-1.143a.268.268,0,0,1,.211-.492c.978.418,1.514,1,1.51,1.639,0,.783-.812,1.464-2.213,1.866A.28.28,0,0,1,1330.687,1300Z" transform="translate(-1323.179 -1295.881)" fill="#f2e6dc"/><path d="M1271.677,1295.143a.267.267,0,0,1-.154-.049,1.554,1.554,0,0,1-.778-1.24c.008-1.244,2.144-2.211,4.87-2.211h.04a9.872,9.872,0,0,1,2.622.344.268.268,0,1,1-.147.516,9.327,9.327,0,0,0-2.478-.323c-2.564,0-4.368.877-4.372,1.678a1.1,1.1,0,0,0,.551.8.268.268,0,0,1-.154.487Z" transform="translate(-1270.745 -1291.643)" fill="#f2e6dc"/><path d="M1299.159,1307.8h-.014a2.6,2.6,0,0,1-1.565-.413.431.431,0,0,1-.136-.31c0-.25.219-.442.647-.569a.268.268,0,0,1,.153.514,1.467,1.467,0,0,0-.164.058,2.93,2.93,0,0,0,1.067.184,2.381,2.381,0,0,0,1.112-.215.268.268,0,1,1,.285.454A2.922,2.922,0,0,1,1299.159,1307.8Z" transform="translate(-1294.205 -1304.696)" fill="#f2e6dc"/><path d="M1290.619,1302.819h-.023a4.033,4.033,0,0,1-2.672-.763.835.835,0,0,1-.267-.591c.005-.868,1.509-1.333,2.93-1.333h.023a4.033,4.033,0,0,1,2.672.763.836.836,0,0,1,.267.591C1293.544,1302.354,1292.04,1302.819,1290.619,1302.819Zm-.035-2.151c-1.458,0-2.39.472-2.392.8a.317.317,0,0,0,.112.211,3.578,3.578,0,0,0,2.293.6h.024c1.458,0,2.39-.472,2.392-.8a.319.319,0,0,0-.112-.211,3.63,3.63,0,0,0-2.293-.6Z" transform="translate(-1285.605 -1299.102)" fill="#f2e6dc"/></g><path d="M1253.293,1349.057l-2.264-1.42-.008-1.344,2.3.415Z" transform="translate(-1251.021 -1339.5)" fill="#84524d"/><path d="M1349.58,1367.936l2.934-1.693v1.175l-3.242,3.425Z" transform="translate(-1337.351 -1357.029)" fill="#84524d"/></g></g><g transform="translate(79.712 12.296)"><g transform="translate(0 0)"><path d="M1002.484,1352.785l.1,22.187-1.723,4.41h17.081l-2.042-4.279-.1-3.831-.085-18.548Z" transform="translate(-1000.863 -1349.29)" fill="#84524d"/><ellipse cx="6.625" cy="3.311" rx="6.625" ry="3.311" transform="translate(1.599 0.06) rotate(-0.26)" fill="#bc8271"/><path d="M1108.979,1394.3a.268.268,0,0,1-.268-.267l-.051-12.45a.268.268,0,0,1,.267-.269h0a.268.268,0,0,1,.268.267l.051,12.45a.268.268,0,0,1-.267.269Z" transform="translate(-1095.582 -1374.411)" fill="#bc8271"/><path d="M1109.495,1516.829a.268.268,0,0,1-.268-.267l-.029-6.325a.268.268,0,0,1,.267-.269h0a.268.268,0,0,1,.268.267l.029,6.325a.268.268,0,0,1-.267.269Z" transform="translate(-1096.054 -1487.457)" fill="#bc8271"/><path d="M1095.028,1397.865a.268.268,0,0,1-.268-.267l-.025-6.658a.268.268,0,0,1,.267-.269h0a.268.268,0,0,1,.268.267l.025,6.658a.268.268,0,0,1-.267.269Z" transform="translate(-1083.346 -1382.633)" fill="#bc8271"/><path d="M1095.324,1472.1a.268.268,0,0,1-.268-.267l-.051-11.176a.268.268,0,0,1,.267-.269h0a.268.268,0,0,1,.268.267l.051,11.176a.268.268,0,0,1-.267.269Z" transform="translate(-1083.583 -1443.887)" fill="#bc8271"/><path d="M1039.152,1396.868a.268.268,0,0,1-.268-.267l-.019-5.409a.268.268,0,0,1,.267-.269h0a.268.268,0,0,1,.268.267l.019,5.409a.268.268,0,0,1-.267.269Z" transform="translate(-1034.254 -1382.854)" fill="#bc8271"/><path d="M1039.455,1472.446a.268.268,0,0,1-.268-.267l-.039-8.549a.268.268,0,0,1,.267-.269h0a.268.268,0,0,1,.268.267l.039,8.549a.268.268,0,0,1-.267.269Z" transform="translate(-1034.503 -1446.504)" fill="#bc8271"/><path d="M1025.135,1385.938a.268.268,0,0,1-.268-.267l-.011-3.708a.268.268,0,0,1,.267-.269h0a.268.268,0,0,1,.268.267l.011,3.708a.268.268,0,0,1-.267.269Z" transform="translate(-1021.945 -1374.745)" fill="#bc8271"/><path d="M1025.275,1425.811a.268.268,0,0,1-.268-.267l-.034-7.566a.268.268,0,0,1,.267-.269h0a.268.268,0,0,1,.268.267l.034,7.567a.268.268,0,0,1-.267.269Z" transform="translate(-1022.047 -1406.39)" fill="#bc8271"/><path d="M1025.648,1507.731a.268.268,0,0,1-.268-.266l-.031-6.836a.268.268,0,0,1,.267-.269h0a.268.268,0,0,1,.268.267l.031,6.835a.268.268,0,0,1-.267.269Z" transform="translate(-1022.378 -1479.014)" fill="#bc8271"/><path d="M1067.119,1403.69a.268.268,0,0,1-.268-.267l-.029-7.71a.268.268,0,0,1,.267-.269h0a.268.268,0,0,1,.268.267l.029,7.71a.268.268,0,0,1-.267.269Z" transform="translate(-1058.82 -1386.827)" fill="#bc8271"/><path d="M1067.389,1472.091a.268.268,0,0,1-.268-.267l-.006-1.359a.268.268,0,0,1,.267-.269h0a.268.268,0,0,1,.268.267l.006,1.359a.268.268,0,0,1-.267.269Z" transform="translate(-1059.077 -1452.509)" fill="#bc8271"/><path d="M1067.452,1486.012a.267.267,0,0,1-.268-.266l-.019-4.077a.268.268,0,0,1,.267-.269h0a.268.268,0,0,1,.268.267l.019,4.077a.268.268,0,0,1-.267.269Z" transform="translate(-1059.122 -1462.353)" fill="#bc8271"/><path d="M1067.694,1539.056a.268.268,0,0,1-.268-.267l-.013-2.93a.268.268,0,0,1,.267-.269h0a.268.268,0,0,1,.268.267l.014,2.93a.268.268,0,0,1-.267.269Z" transform="translate(-1059.339 -1509.969)" fill="#bc8271"/><g transform="translate(2.093 0.341)"><path d="M1020.93,1338.685a.268.268,0,0,1-.081-.012c-1.734-.547-2.731-1.456-2.736-2.493,0-.839.656-1.614,1.858-2.181a.268.268,0,1,1,.229.484c-.988.467-1.554,1.084-1.551,1.694,0,.777.887,1.519,2.362,1.985a.268.268,0,0,1-.081.523Z" transform="translate(-1018.113 -1333.154)" fill="#f2e6dc"/><path d="M1048.174,1331.885a.268.268,0,0,1-.164-.48,1.641,1.641,0,0,0,.737-1.206c-.006-1.326-2.536-2.436-5.538-2.436h-.055a10.838,10.838,0,0,0-3.143.454.268.268,0,1,1-.161-.511,11.37,11.37,0,0,1,3.3-.478h.061c3.4,0,6.063,1.3,6.07,2.969a2.1,2.1,0,0,1-.945,1.632A.265.265,0,0,1,1048.174,1331.885Z" transform="translate(-1037.048 -1327.227)" fill="#f2e6dc"/><path d="M1085.963,1337.459a.268.268,0,0,1-.235-.4.729.729,0,0,0,.094-.349c0-.622-.951-1.244-2.358-1.549a.268.268,0,0,1,.113-.524c1.711.37,2.777,1.163,2.781,2.07a1.25,1.25,0,0,1-.158.607A.267.267,0,0,1,1085.963,1337.459Z" transform="translate(-1075.349 -1333.737)" fill="#f2e6dc"/><path d="M1038.33,1360.07a7.751,7.751,0,0,1-3.963-.924.268.268,0,0,1,.29-.451,7.255,7.255,0,0,0,3.721.839,6.6,6.6,0,0,0,3.989-1.082.268.268,0,0,1,.355.4,7.015,7.015,0,0,1-4.342,1.217Z" transform="translate(-1032.287 -1354.605)" fill="#f2e6dc"/><path d="M1052.7,1347.595a3.837,3.837,0,0,1-1.927-.44.268.268,0,1,1,.3-.444,3.548,3.548,0,0,0,1.646.347,3.065,3.065,0,0,0,1.778-.432,1.109,1.109,0,0,0-.455-.231.268.268,0,0,1,.164-.51c.554.178.836.426.837.737s-.282.566-.844.749a5.068,5.068,0,0,1-1.477.223Z" transform="translate(-1046.705 -1343.611)" fill="#f2e6dc"/><path d="M1041.171,1342.221c-1.759,0-3.615-.547-3.62-1.572s1.874-1.6,3.645-1.606h.038c1.759,0,3.617.548,3.621,1.573,0,.471-.409.893-1.156,1.189a7.076,7.076,0,0,1-2.488.416Zm.027-2.641c-1.93.009-3.113.627-3.111,1.067s1.173,1.039,3.079,1.039h.042a6.525,6.525,0,0,0,2.293-.379c.505-.2.819-.463.818-.688C1044.317,1340.179,1043.134,1339.564,1041.2,1339.58Z" transform="translate(-1035.193 -1337.61)" fill="#f2e6dc"/></g><path d="M1118.621,1414.679l5.354-4.432-.006-1.249-5.656,2.523Z" transform="translate(-1104.063 -1398.736)" fill="#84524d"/><path d="M1004.811,1416.35l-1.846-1.167.011,2.424,2.225,3.59Z" transform="translate(-1002.71 -1404.171)" fill="#84524d"/><path d="M1156.578,1428.414a1.559,1.559,0,1,0,1.3,2.493A4.019,4.019,0,0,0,1156.578,1428.414Z" transform="translate(-1135.262 -1415.267)" fill="#9e9569"/></g></g><g transform="translate(95.854 0)"><path d="M1143.279,1238.821l.069,12.352-.685,1.491,10.37-.038-.695-1.587-.068-12.251Z" transform="translate(-1141.601 -1236.881)" fill="#84524d"/><ellipse cx="4.502" cy="1.846" rx="4.502" ry="1.846" transform="matrix(1, -0.003, 0.003, 1, 1.665, 0.031)" fill="#bc8271"/><g transform="translate(1.911 0.07)"><path d="M1151.657,1230.276a.268.268,0,0,1-.067-.009c-1.225-.317-1.93-.866-1.933-1.506,0-.526.469-1,1.329-1.332a.268.268,0,0,1,.194.5c-.619.24-.988.55-.987.829,0,.361.6.75,1.532.99a.268.268,0,0,1-.067.527Z" transform="translate(-1149.657 -1226.955)" fill="#f2e6dc"/><path d="M1170.169,1226.483a.268.268,0,0,1-.144-.494c.167-.106.448-.322.447-.564,0-.589-1.573-1.24-3.676-1.24h-.039a8.8,8.8,0,0,0-2.124.252.268.268,0,0,1-.134-.519,9.36,9.36,0,0,1,2.255-.268c2.054-.009,4.246.611,4.253,1.773a1.223,1.223,0,0,1-.7,1.019A.268.268,0,0,1,1170.169,1226.483Z" transform="translate(-1162.522 -1223.649)" fill="#f2e6dc"/><path d="M1173.813,1243.868a8.625,8.625,0,0,1-1.123-.072.268.268,0,0,1,.07-.531,7.521,7.521,0,0,0,1.088.067,6.1,6.1,0,0,0,2.393-.428.268.268,0,1,1,.228.485,6.546,6.546,0,0,1-2.62.479Z" transform="translate(-1169.691 -1240.546)" fill="#f2e6dc"/><path d="M1164.124,1232.635a.265.265,0,0,1-.058-.006c-.783-.172-1.2-.469-1.2-.861,0-.612.976-.852,1.56-.94a.268.268,0,1,1,.081.53c-.844.128-1.09.363-1.106.413.013.029.182.2.78.335a.268.268,0,0,1-.057.53Z" transform="translate(-1161.263 -1229.953)" fill="#f2e6dc"/><path d="M1180.578,1231.925a.268.268,0,0,1-.111-.512c.2-.089.259-.168.265-.188-.041-.118-.72-.455-2.008-.455h-.028c-.153,0-.3.006-.446.016a.268.268,0,0,1-.037-.535c.155-.01.316-.016.48-.017,1.244-.015,2.569.3,2.573.994,0,.187-.1.455-.579.673A.266.266,0,0,1,1180.578,1231.925Z" transform="translate(-1174.53 -1229.434)" fill="#f2e6dc"/></g><path d="M1211.5,1266.11a.268.268,0,0,1-.268-.267l-.035-6.176a.268.268,0,0,1,.266-.27h0a.268.268,0,0,1,.268.267l.035,6.176a.268.268,0,0,1-.267.269Z" transform="translate(-1201.819 -1254.99)" fill="#bc8271"/><path d="M1211.844,1327.641a.268.268,0,0,1-.268-.266l-.013-2.4a.268.268,0,0,1,.266-.27.277.277,0,0,1,.27.266l.014,2.4a.268.268,0,0,1-.267.27Z" transform="translate(-1202.141 -1312.377)" fill="#bc8271"/><path d="M1202.018,1268.083a.268.268,0,0,1-.268-.266l-.017-2.973a.268.268,0,0,1,.266-.269h0a.268.268,0,0,1,.268.266l.017,2.972a.268.268,0,0,1-.266.27Z" transform="translate(-1193.504 -1259.539)" fill="#bc8271"/><path d="M1202.216,1303.544a.268.268,0,0,1-.268-.267l-.032-5.729a.268.268,0,0,1,.266-.269h0a.268.268,0,0,1,.268.266l.032,5.729a.268.268,0,0,1-.266.27Z" transform="translate(-1193.665 -1288.276)" fill="#bc8271"/><path d="M1164.05,1267.532a.268.268,0,0,1-.268-.266l-.013-2.282a.268.268,0,0,1,.266-.269h0a.268.268,0,0,1,.268.266l.013,2.282a.268.268,0,0,1-.266.27Z" transform="translate(-1160.146 -1259.662)" fill="#bc8271"/><path d="M1164.251,1303.364a.268.268,0,0,1-.268-.266l-.022-3.9a.268.268,0,0,1,.266-.269h0a.268.268,0,0,1,.268.266l.022,3.9a.268.268,0,0,1-.266.27Z" transform="translate(-1160.315 -1289.724)" fill="#bc8271"/><path d="M1154.524,1261.483a.268.268,0,0,1-.268-.266l-.007-1.341a.268.268,0,1,1,.536,0l.008,1.341a.268.268,0,0,1-.266.27Z" transform="translate(-1151.781 -1255.173)" fill="#bc8271"/><path d="M1154.619,1278.4a.268.268,0,0,1-.268-.267l-.024-4.185a.268.268,0,0,1,.266-.269h0a.268.268,0,0,1,.268.267l.023,4.185a.268.268,0,0,1-.266.27Z" transform="translate(-1151.85 -1267.536)" fill="#bc8271"/><path d="M1154.869,1323a.268.268,0,0,1-.268-.266l-.017-3.068a.268.268,0,0,1,.266-.27h0a.268.268,0,0,1,.268.266l.017,3.068a.268.268,0,0,1-.266.269Z" transform="translate(-1152.076 -1307.706)" fill="#bc8271"/><path d="M1183.054,1271.306a.268.268,0,0,1-.268-.266l-.02-3.555a.268.268,0,0,1,.266-.269h0a.268.268,0,0,1,.268.266l.02,3.555a.268.268,0,0,1-.266.27Z" transform="translate(-1176.838 -1261.859)" fill="#bc8271"/><path d="M1183.237,1304a.268.268,0,0,1-.268-.266l0-.751a.268.268,0,0,1,.267-.27h0a.268.268,0,0,1,.268.266l0,.751a.268.268,0,0,1-.266.27Z" transform="translate(-1177.013 -1293.048)" fill="#bc8271"/><path d="M1183.281,1311.7a.268.268,0,0,1-.268-.266l-.012-2.255a.268.268,0,0,1,.266-.269h0a.268.268,0,0,1,.268.266l.012,2.255a.268.268,0,0,1-.266.269Z" transform="translate(-1177.044 -1298.49)" fill="#bc8271"/><path d="M1183.44,1340.107a.268.268,0,0,1-.268-.266l0-.691a.268.268,0,0,1,.267-.27h0a.268.268,0,0,1,.268.266l0,.691a.268.268,0,0,1-.267.27Z" transform="translate(-1177.192 -1324.829)" fill="#bc8271"/><path d="M1217.6,1275.685l2.438-2.072,0-.869-2.59.743Z" transform="translate(-1207.306 -1266.717)" fill="#84524d"/><path d="M1135.766,1308.1l-1.858-.7v.594l2.123,2.788Z" transform="translate(-1133.908 -1297.164)" fill="#84524d"/><path d="M1137.365,1255.231l-1.637-.6v.679l1.6,1.81Z" transform="translate(-1135.507 -1250.798)" fill="#84524d"/></g><g transform="translate(0 24.152)"><g transform="translate(4.593 0)"><path d="M395.765,1448.252l.1,20.471-1.028,2.472,15.563-.063-1.042-2.63-.1-20.3Z" transform="translate(-393.247 -1445.036)" fill="#84524d"/><ellipse cx="6.756" cy="3.06" rx="6.756" ry="3.06" transform="translate(2.496 0.054) rotate(-0.228)" fill="#bc8271"/><g transform="translate(3.001 0.294)"><path d="M409.31,1435.189a.273.273,0,0,1-.074-.01c-1.77-.507-2.789-1.354-2.794-2.325,0-.788.671-1.512,1.9-2.039a.268.268,0,1,1,.211.492c-1,.43-1.578.992-1.575,1.543,0,.694.925,1.389,2.406,1.813a.268.268,0,0,1-.074.526Z" transform="translate(-406.442 -1430.036)" fill="#f2e6dc"/><path d="M437.089,1428.9a.268.268,0,0,1-.154-.487,1.484,1.484,0,0,0,.743-1.091c-.006-1.082-2.273-2.231-5.646-2.231h-.063a12.133,12.133,0,0,0-3.214.421.268.268,0,1,1-.147-.516,12.677,12.677,0,0,1,3.358-.442h.063c3.465,0,6.176,1.209,6.184,2.764a1.928,1.928,0,0,1-.971,1.532A.266.266,0,0,1,437.089,1428.9Z" transform="translate(-425.748 -1424.557)" fill="#f2e6dc"/><path d="M442.563,1457.718a11.618,11.618,0,0,1-1.676-.118.268.268,0,1,1,.078-.53,12.254,12.254,0,0,0,1.647.112,8.5,8.5,0,0,0,3.639-.721.268.268,0,1,1,.247.475,8.909,8.909,0,0,1-3.884.782Z" transform="translate(-436.506 -1452.563)" fill="#f2e6dc"/><path d="M428.018,1439.1a.26.26,0,0,1-.063-.008c-1.088-.263-1.688-.708-1.691-1.255,0-.631.828-1.149,2.224-1.383a.268.268,0,0,1,.089.529c-1.156.194-1.778.583-1.777.852,0,.206.4.525,1.281.737a.268.268,0,0,1-.063.528Z" transform="translate(-423.859 -1435.009)" fill="#f2e6dc"/><path d="M452.71,1437.931a.268.268,0,0,1-.121-.507c.3-.153.486-.328.486-.469,0-.386-1.227-.939-3.146-.939h-.042c-.229,0-.457.01-.676.027a.268.268,0,1,1-.041-.534c.232-.018.473-.028.715-.029h.043c1.834,0,3.679.5,3.684,1.473,0,.254-.133.625-.78.95A.269.269,0,0,1,452.71,1437.931Z" transform="translate(-443.768 -1434.155)" fill="#f2e6dc"/></g><path d="M499.113,1494.58a.268.268,0,0,1-.268-.267l-.052-10.237a.268.268,0,0,1,.267-.269h0a.268.268,0,0,1,.268.267l.052,10.237a.268.268,0,0,1-.267.269Z" transform="translate(-484.587 -1476.326)" fill="#bc8271"/><path d="M499.629,1596.561a.268.268,0,0,1-.268-.267l-.02-3.973a.268.268,0,0,1,.267-.269h0a.268.268,0,0,1,.268.267l.02,3.974a.268.268,0,0,1-.267.269Z" transform="translate(-485.069 -1571.437)" fill="#bc8271"/><path d="M484.886,1497.849a.268.268,0,0,1-.268-.267l-.025-4.927a.268.268,0,0,1,.267-.269h0a.268.268,0,0,1,.268.267l.025,4.927a.268.268,0,0,1-.267.269Z" transform="translate(-472.11 -1483.863)" fill="#bc8271"/><path d="M485.184,1556.624a.268.268,0,0,1-.268-.267l-.048-9.5a.268.268,0,0,1,.267-.269h0a.268.268,0,0,1,.268.266l.048,9.5a.268.268,0,0,1-.267.27Z" transform="translate(-472.352 -1531.492)" fill="#bc8271"/><path d="M427.908,1496.937a.268.268,0,0,1-.268-.267l-.019-3.782a.268.268,0,0,1,.267-.269h0a.268.268,0,0,1,.268.267l.019,3.782a.268.268,0,0,1-.267.269Z" transform="translate(-422.05 -1484.068)" fill="#bc8271"/><path d="M428.208,1556.324a.268.268,0,0,1-.268-.267l-.033-6.465a.268.268,0,0,1,.267-.269h0a.268.268,0,0,1,.268.267l.033,6.465a.268.268,0,0,1-.267.269Z" transform="translate(-422.301 -1533.892)" fill="#bc8271"/><path d="M413.613,1486.916a.268.268,0,0,1-.268-.267l-.011-2.222a.268.268,0,0,1,.267-.269h0a.268.268,0,0,1,.268.267l.011,2.222a.268.268,0,0,1-.267.269Z" transform="translate(-409.496 -1476.633)" fill="#bc8271"/><path d="M413.755,1514.944a.268.268,0,0,1-.268-.267l-.035-6.937a.268.268,0,0,1,.267-.269h0a.268.268,0,0,1,.268.267l.035,6.937a.268.268,0,0,1-.267.269Z" transform="translate(-409.6 -1497.118)" fill="#bc8271"/><path d="M414.131,1588.863a.268.268,0,0,1-.268-.267l-.026-5.084a.268.268,0,0,1,.267-.269h0a.268.268,0,0,1,.268.267l.026,5.084a.268.268,0,0,1-.267.27Z" transform="translate(-409.938 -1563.696)" fill="#bc8271"/><path d="M456.426,1503.189a.268.268,0,0,1-.268-.267l-.03-5.891a.268.268,0,0,1,.267-.269h0a.268.268,0,0,1,.268.267l.03,5.891a.268.268,0,0,1-.267.269Z" transform="translate(-447.098 -1487.708)" fill="#bc8271"/><path d="M456.7,1557.373a.268.268,0,0,1-.268-.267l-.006-1.246a.268.268,0,0,1,.267-.269h0a.268.268,0,0,1,.268.267l.006,1.246a.268.268,0,0,1-.266.269Z" transform="translate(-447.36 -1539.399)" fill="#bc8271"/><path d="M456.765,1570.134a.268.268,0,0,1-.268-.266l-.019-3.738a.268.268,0,0,1,.267-.269h0a.268.268,0,0,1,.268.267l.019,3.738a.268.268,0,0,1-.267.269Z" transform="translate(-447.406 -1548.423)" fill="#bc8271"/><path d="M457,1617.222a.268.268,0,0,1-.268-.267l-.006-1.145a.268.268,0,0,1,.266-.269h0a.268.268,0,0,1,.268.266l.006,1.145a.268.268,0,0,1-.266.269Z" transform="translate(-447.628 -1592.076)" fill="#bc8271"/><path d="M507.294,1509.35l3.658-3.434-.007-1.441-3.887,1.231Z" transform="translate(-491.849 -1494.485)" fill="#84524d"/><path d="M384.491,1563.067,381.7,1561.9v.984l3.186,4.622Z" transform="translate(-381.703 -1544.947)" fill="#84524d"/><path d="M386.891,1475.45l-2.457-1v1.125l2.4,3Z" transform="translate(-384.102 -1468.102)" fill="#84524d"/></g><path d="M361.074,1532.355a4.015,4.015,0,0,0-2.455-1.376,3.258,3.258,0,0,0,2.922,4.147A4,4,0,0,0,361.074,1532.355Z" transform="translate(-356.765 -1517.774)" fill="#9e9569"/><path d="M346.044,1563.129a1.559,1.559,0,1,0,2.747.609A4.012,4.012,0,0,0,346.044,1563.129Z" transform="translate(-343.844 -1545.965)" fill="#9e9569"/></g></g><g transform="translate(359.305 441.766)"><g transform="translate(89.853 0)"><path d="M1386.3,1239.815a109.763,109.763,0,0,1-4.665,17.851q-.405,1.127-.84,2.24c-.661.032-1.33.062-2.008.094-.032,0-.064,0-.1.005-21.911,1-50.745-.374-71.417-1.732-15.481-1.018-26.384-2.026-26.384-2.026a178.069,178.069,0,0,1,26.135-15.522c3.908-1.93,7.87-3.782,12.028-5.72,2.6-1.216,5.284-2.464,8.071-3.79,9.286-4.416,17.408-13.384,25.113-15.226a8,8,0,0,1,2.727-.042c1.748.086,3.843,3.308,5.607,4.45,4.923,3.186,1.719,8.364,11.147,12.328C1376.548,1234.755,1381.453,1237.211,1386.3,1239.815Z" transform="translate(-1280.891 -1215.743)" fill="#efbc73"/><path d="M1890.58,1235.033q-.293,2.045-.661,4.066a109.833,109.833,0,0,1-4.813,17.829c-.27.751-1.974-18.105-20.516-25.616-13.4-5.427-11.4-14.448-8.882-16.062a.776.776,0,0,1,.238-.085c3.812-.975,7.728,2.709,10.788,5.671,4.628,4.483,7.935,6.7,15.888,10.08A61.142,61.142,0,0,1,1890.58,1235.033Z" transform="translate(-1784.361 -1215.006)" fill="#e0aa63"/></g><g transform="translate(62.241 17.389)"><path d="M1182.45,1382.863q-.405,1.127-.84,2.24c-.1.259-.2.519-.3.775a110.275,110.275,0,0,1-6.631,13.841c-.185.323-.369.647-.559.968-.051.094-.1.187-.163.281l-.177.3q-.41.7-.835,1.4c-10.721,2.427-28.917-1.353-47.364-5.189-.035-.008-.067-.013-.1-.019q-2.092-.437-4.187-.871l-.089-.019c-5.258-1.085-10.483-2.133-15.518-3l-.008,0c-1.122-.193-2.235-.38-3.335-.554-.22-.035-.439-.08-.661-.107-6.162-.727-15.232-.264-23.8.4h0c-1.687.131-3.352.27-4.974.409l-.1.008c-7.2.612-13.481,1.222-16.57,1.166h-.091c-1.967-.048-2.573-.377-1.191-1.173,3.413-1.968,5.911-3.312,8.047-4.459l1.237-.666c.187-.1.37-.2.554-.3l0,0a106.32,106.32,0,0,0,14.772-9.668c14.362-10.692,14.74-13.681,25.5-18.794a14.522,14.522,0,0,1,6.5-1.489c.2,0,.4.005.592.013a21.8,21.8,0,0,1,7.72,1.858c5.167,2.221,10.143,6.215,16.169,10.866,18.741,14.472,34.209,14.566,43.022,12.692A34.943,34.943,0,0,0,1182.45,1382.863Z" transform="translate(-1054.093 -1358.329)" fill="#ffd092"/><path d="M1116.474,1376.473c-.843,4.962-8.262,3.419-12.579,11.028a23.317,23.317,0,0,0-2.344,5.512,5.208,5.208,0,0,0-.662-.106c-28.79-.768-53.013,4.284-46.521.647,33.006-18.491,36.571-28,49.9-33.732a15.864,15.864,0,0,1,7.089-1.475c-.675.216-8.57,2.925-3.147,9.193C1112.628,1372.639,1117.368,1371.226,1116.474,1376.473Z" transform="translate(-1053.306 -1358.332)" fill="#efbc73"/></g><g transform="translate(0 45.318)"><path d="M707.75,1622.92a111.593,111.593,0,0,1-13.554,12.341l-.011.008a110.608,110.608,0,0,1-50.314,21.676c-.115.019-.23.037-.345.053-.005,0-.008,0-.011,0H643.5a.046.046,0,0,1-.019,0l-.043.008c-.005,0-.011,0-.019,0l-.062.008s-.005,0-.011,0c-.024.005-.051.008-.08.013-.155.024-.313.048-.471.07-.091.016-.185.029-.278.04a.153.153,0,0,1-.048.008.208.208,0,0,1-.043.005c-.171.024-.359.051-.56.077a.1.1,0,0,1-.04.005l-.522.069c-.064.008-.134.019-.2.027s-.139.019-.209.027l-.439.056-.709.086c-.094.013-.187.024-.287.035l-.412.048-.353.04c-.177.019-.356.038-.541.059s-.383.04-.581.061-.4.04-.6.061l-.211.021c-2.324.23-5.137.452-8.312.6-5.314.248-19.59-.882-24.88-2.473-.292-.061-.583-.123-.875-.187-.268-.056-.535-.118-.806-.177q-.9-.2-1.8-.42c-23.525-5.667-44.8-18.58-59.788-36.5.252-.075.519-.155.8-.238,1.6-.473,3.609-1.08,5.017-1.531,25.686-8.214,48.55-20.294,64.821-25.52l.008,0q.317-.1.635-.2.554-.176,1.1-.337a57.493,57.493,0,0,1,6.036-1.491,48.689,48.689,0,0,1,7.032-.8c.038,0,.072,0,.11,0a40.468,40.468,0,0,1,5.084.137c.3.025.591.051.864.08.222.024.434.048.637.075s.377.048.565.075a65.182,65.182,0,0,1,18.04,5.456q1.546.7,3.071,1.457l.008,0c14.434,7.151,27.418,17.637,41.8,22.889C699.872,1620.174,703.869,1621.586,707.75,1622.92Z" transform="translate(-540.289 -1588.531)" fill="#efbc73"/><path d="M1232.1,1602.073c-.185.323-.37.647-.56.968-.051.094-.1.187-.163.281l-.177.3q-.41.7-.835,1.4-.734,1.211-1.5,2.4c-.118.187-.238.371-.361.556-.086.136-.174.272-.268.406-.059.1-.123.2-.193.292-.115.176-.233.355-.353.532s-.235.353-.359.529q-.148.224-.305.449c-.021.035-.046.067-.07.1-.11.16-.222.318-.332.476a.337.337,0,0,1-.051.075c-.072.109-.15.219-.23.329a.819.819,0,0,1-.083.115c-.174.249-.348.495-.527.74-.158.227-.321.454-.487.679-.115.161-.23.318-.351.476-.021.032-.045.064-.07.1-.254.347-.514.692-.774,1.035l-.048.064c-.311.412-.626.818-.942,1.224-.276.356-.554.706-.835,1.056a.085.085,0,0,1-.024.029c-.163.2-.327.406-.493.609a.08.08,0,0,1-.024.03c-.187.235-.377.468-.568.7-.431.521-.865,1.035-1.3,1.545-.211.251-.428.5-.645.746q-.446.513-.9,1.018c-.182.206-.367.414-.554.618-.013.016-.027.032-.04.045-.308.34-.618.679-.931,1.013a111.643,111.643,0,0,1-13.554,12.341l-.011.008a110.6,110.6,0,0,1-50.314,21.676c-.115.019-.23.037-.345.053a.1.1,0,0,1-.029,0,.044.044,0,0,1-.019,0,.126.126,0,0,1-.043.008.048.048,0,0,1-.019,0l-.061.008s-.006,0-.011,0-.005,0-.01,0a.543.543,0,0,1-.07.011c-.155.024-.313.048-.471.069-.091.016-.185.03-.278.04a.157.157,0,0,1-.048.008.226.226,0,0,1-.043.005c-.123.021-.249.037-.375.056-.011,0-.024,0-.035.005a1.386,1.386,0,0,1-.15.016.1.1,0,0,1-.04.005c-5.035.372-28.261-13.708-26.767-27.393,1.37-12.571,8.312-15.758,12.092-28.639a5.957,5.957,0,0,0-.773-5.563c-.019-.027-.04-.051-.059-.078h0c-2.254-2.852-7.622-4.2-14.879-4.05-.142,0-.284.005-.428.011s-.292.008-.439.013c.121-.051.241-.1.361-.15l.008,0c.287-.12.576-.233.867-.342h0c.468-.179.943-.342,1.419-.494l0,0a45.125,45.125,0,0,1,12.512-1.994c.038,0,.072,0,.11,0a46.76,46.76,0,0,1,5.948.217c.222.024.434.048.637.074s.378.048.565.075a92.917,92.917,0,0,1,18.471,4.256c5.63,1.887,10.641,3.937,18.166,5.664.03.006.059.014.089.019,1.312.3,2.7.591,4.187.872.035.005.067.011.1.019a159.129,159.129,0,0,0,16.217,2.077C1208.8,1602.7,1224.633,1603.083,1232.1,1602.073Z" transform="translate(-1049.274 -1588.612)" fill="#e0aa63"/></g></g><g transform="translate(344.101 369.859)"><g transform="translate(19.865 72.418)"><g transform="translate(42.036 81.266)"><path d="M925.182,1889.051l3.7,15.587,11.913,0-2.883-15.588Z" transform="translate(-925.182 -1889.046)" fill="#84524d"/><path d="M955.692,2013.206l1.317,17.619,32.939-.012c-4.459-6.82-11.712-14.695-22.381-17.611Z" transform="translate(-951.99 -1998.139)" fill="#40484c"/></g><g transform="translate(4.403 82.18)"><path d="M623.43,1897.53l3.287,14.813h10.391v-15.759Z" transform="translate(-622.407 -1896.583)" fill="#84524d"/><path d="M619.174,2021.463c0,.645-4.175,16.926-4.175,16.926h23.907l-9.4-16.926Z" transform="translate(-614.999 -2006.312)" fill="#40484c"/></g><path d="M715.084,1221.823s-3.253,21,22.6,83.946h16.862s-13.338-76.853-14.763-86.547Z" transform="translate(-698.423 -1219.222)" fill="#40484c"/><path d="M581.046,1265.994s-6.537,33.111,2.25,80.873H598.97s2.811-69.287,6.848-79.691Z" transform="translate(-578.708 -1260.319)" fill="#40484c"/><path d="M771.653,1397.987h-.014a.268.268,0,0,1-.254-.281l.745-14.607,5.331-1.828a.268.268,0,0,1,.174.507l-4.988,1.711-.727,14.245A.268.268,0,0,1,771.653,1397.987Z" transform="translate(-748.009 -1361.597)" fill="#363e44"/></g><g transform="translate(0 11.315)"><g transform="translate(78.004)"><path d="M1057.913,749.916h0c8.226-12.878,13.815-22.172,15.653-24.974a6.165,6.165,0,0,1,1.135-1.344c2.242-1.967,4.566-.941,7.867-1.934,3.746-1.127,5.217-3.882,6.054-3.336.582.38.319,1.576-1.061,3.621h0c1.227-1.433,2.976-3.3,3.766-2.624.87.835-.926,3.274-2.085,4.7,1.4-1.722,2.664-2.218,3.01-1.729.545.77-.232,2.359-2.174,4.563,1.766-1.147,2.366-1.162,2.566-.655.366.926-1.265,2.708-2.948,4.062a12.472,12.472,0,0,1-5.161,2.351h0c-4.826,9.617-8.351,15.614-11.656,23.653C1070.772,761.391,1058.6,758.269,1057.913,749.916Z" transform="translate(-1057.913 -717.933)" fill="#84524d"/><path d="M1196.083,720.934c1.871-3.388,1.827-5.007,1.281-5.286-.919-.47-3.7,1.769-7.058,6.377C1191.943,721.865,1194.446,721.093,1196.083,720.934Z" transform="translate(-1174.243 -715.586)" fill="#84524d"/><g transform="translate(18.287 3.737)"><path d="M1229.958,792.2a.268.268,0,0,1-.234-.4,5.235,5.235,0,0,1,2.142-2.116,5.38,5.38,0,0,1,3.786-.422.268.268,0,0,1-.134.519,4.838,4.838,0,0,0-3.4.378,4.7,4.7,0,0,0-1.923,1.9A.267.267,0,0,1,1229.958,792.2Z" transform="translate(-1227.137 -783.913)" fill="#363e44"/><path d="M1208.909,749.865a.268.268,0,0,1-.081-.523,11.092,11.092,0,0,1,2.63-.386c.424-.028.863-.058,1.319-.109a.268.268,0,0,1,.059.533c-.468.052-.912.082-1.342.111a10.713,10.713,0,0,0-2.5.362A.267.267,0,0,1,1208.909,749.865Z" transform="translate(-1208.641 -748.547)" fill="#363e44"/><path d="M1275.432,748.74a.268.268,0,0,1-.087-.521,7.369,7.369,0,0,0,2.809-1.756.268.268,0,0,1,.379.379,7.906,7.906,0,0,1-3.013,1.883A.269.269,0,0,1,1275.432,748.74Z" transform="translate(-1267.094 -746.385)" fill="#363e44"/><path d="M1290.72,763.933a.268.268,0,0,1-.087-.521,7.379,7.379,0,0,0,2.809-1.755.268.268,0,1,1,.378.379,7.912,7.912,0,0,1-3.012,1.883A.265.265,0,0,1,1290.72,763.933Z" transform="translate(-1280.527 -759.734)" fill="#363e44"/><path d="M1296.661,789.47a.268.268,0,0,1-.087-.521,7.38,7.38,0,0,0,2.809-1.755.268.268,0,0,1,.379.379,7.916,7.916,0,0,1-3.013,1.883A.269.269,0,0,1,1296.661,789.47Z" transform="translate(-1285.746 -782.173)" fill="#363e44"/></g></g><g transform="translate(0 14.223)"><path d="M698.209,843.418H676.068l-.114-9.27c9.7-1.716,14.58-1.617,22.255-.561Z" transform="translate(-644.291 -832.821)" fill="#9e9569"/><path d="M595.387,845.143s-13.392-6.816-28.9-5.929c-13.866.794-27.359,6.67-27.359,6.67l6.608,16.8-2.535,32.89h48.78l-3.015-31.84Z" transform="translate(-524.063 -838.368)" fill="#fff"/><path d="M859.385,839.134l.4,62.911,15.275-.391.188-35.4,9.042,2.678a13.833,13.833,0,0,0,16.423-7.327l5.209-10.964-15.036-7.772-4.147,7.066S876.534,841.889,859.385,839.134Z" transform="translate(-805.467 -838.368)" fill="#9e9569"/><g transform="translate(0 1.324)"><path d="M432.045,848.827c-1.818.852-17.083,8.871-17.07,30.012,0,5.78,6.019,9.684,11.546,7.99l4.518-1.385,1.436,22.992,14.492-.782-.216-63.917C441.176,844.7,435.12,847.387,432.045,848.827Z" transform="translate(-414.975 -843.737)" fill="#9e9569"/><path d="M515.114,1059.157a.268.268,0,0,1-.085-.522l3.5-1.175a.268.268,0,0,1,.17.508l-3.5,1.175A.265.265,0,0,1,515.114,1059.157Z" transform="translate(-502.729 -1031.518)" fill="#363e44"/></g></g><g transform="translate(15.888 24.589)"><g transform="translate(19.953)"><path d="M710.665,943.359a.268.268,0,0,1-.252-.358l8.75-24.568a.268.268,0,0,1,.252-.178h0l19.183.168a.268.268,0,0,1,0,.536h0l-18.993-.166-8.686,24.389A.268.268,0,0,1,710.665,943.359Z" transform="translate(-710.397 -918.254)" fill="#f7f1eb"/><g transform="translate(1.71 1.946)"><path d="M743.673,958.858H724.489l8.75-24.568h19.184Z" transform="translate(-724.489 -934.29)" fill="#363e44"/></g></g><g transform="translate(0 9.727)"><path d="M546.907,1005.429a139.762,139.762,0,0,1,15.562-4.494c2.678-.667,17.14-3.876,17.829-1.839.329.973-2.429,1.717-3.369,1.942.848.193,4.187.581,4.26,1.73.086,1.35-3.962,1.5-4.024,1.539.881.109,4.41.4,4.5,1.258.115,1.118-3.248,1.833-4.265,2,.13.121,3.518-.091,3.713,1.237.143.975-2.944,1.625-4.282,1.911-2.379.595-23.059,7.421-28.33,8.337C546.437,1019.41,544.819,1008.175,546.907,1005.429Z" transform="translate(-545.934 -998.429)" fill="#84524d"/><g transform="translate(25.931 2.165)"><path d="M759.933,1017.3a.268.268,0,0,1-.074-.526,12.88,12.88,0,0,1,4.908-.431.268.268,0,1,1-.056.533,12.574,12.574,0,0,0-1.7-.061,12.412,12.412,0,0,0-3.007.474A.271.271,0,0,1,759.933,1017.3Z" transform="translate(-759.665 -1016.27)" fill="#363e44"/><path d="M773.353,1045.026a.268.268,0,0,1-.074-.525,12.93,12.93,0,0,1,3.137-.495c.128,0,.254-.006.378-.007h0a.268.268,0,0,1,0,.536c-.119,0-.24,0-.362.007a12.4,12.4,0,0,0-3.007.474A.27.27,0,0,1,773.353,1045.026Z" transform="translate(-771.457 -1040.635)" fill="#363e44"/><path d="M786.276,1072.365a.268.268,0,0,1-.074-.525,12.98,12.98,0,0,1,2.042-.412.268.268,0,0,1,.063.532,12.465,12.465,0,0,0-1.957.395A.262.262,0,0,1,786.276,1072.365Z" transform="translate(-782.812 -1064.734)" fill="#363e44"/></g></g></g></g><g transform="translate(36.251 0)"><circle cx="1.21" cy="1.21" r="1.21" transform="translate(15.284 6.679) rotate(-76.717)" fill="#363e44"/><path d="M734.97,639.926c.413-.04,4.37-.364,6.753,2.342,1.774,2.013,1.987,4.6,1.688,8.986-.351,5.168-1.283,8.208-2.771,9.229-2.351,1.612-9.394-1.993-12.043-6.505a10.407,10.407,0,0,1,.327-10.675A7.81,7.81,0,0,1,734.97,639.926Z" transform="translate(-725.641 -637.762)" fill="#84524d"/><rect width="8.339" height="21.696" rx="4.17" transform="translate(11.583 31.452) rotate(180)" fill="#84524d"/><path d="M772.678,791.924a.264.264,0,0,1-.083-.013,17.41,17.41,0,0,1-4.75-2.417.268.268,0,1,1,.319-.43,16.862,16.862,0,0,0,4.6,2.338.268.268,0,0,1-.083.523Z" transform="translate(-761.19 -768.787)" fill="#363e44"/><g transform="translate(0)"><circle cx="1.49" cy="1.49" r="1.49" transform="translate(0.235 12.289) rotate(-22.5)" fill="#363e44"/><circle cx="1.798" cy="1.798" r="1.798" transform="translate(2.608 10.249)" fill="#363e44"/><path d="M816.351,641.331a1.547,1.547,0,1,1-1.547-1.547A1.547,1.547,0,0,1,816.351,641.331Z" transform="translate(-801.186 -637.666)" fill="#363e44"/><circle cx="1.451" cy="1.451" r="1.451" transform="translate(9.872 2.403)" fill="#363e44"/><path d="M780.328,652.115a1.343,1.343,0,1,1-1.343-1.343A1.343,1.343,0,0,1,780.328,652.115Z" transform="translate(-769.892 -647.321)" fill="#363e44"/><circle cx="1.296" cy="1.296" r="1.296" transform="translate(13.895 4.073) rotate(-45)" fill="#363e44"/><path d="M817.109,633.976a1.547,1.547,0,1,1-1.547-1.547A1.547,1.547,0,0,1,817.109,633.976Z" transform="translate(-801.852 -631.203)" fill="#363e44"/><path d="M798.235,627.311a1.679,1.679,0,1,1-1.679-1.679A1.679,1.679,0,0,1,798.235,627.311Z" transform="translate(-785.037 -625.231)" fill="#363e44"/><circle cx="1.824" cy="1.824" r="1.824" transform="translate(6.807 3.602) rotate(-80.783)" fill="#363e44"/><circle cx="1.799" cy="1.799" r="1.799" transform="translate(3.836 2.099) rotate(-31.717)" fill="#363e44"/><circle cx="1.849" cy="1.849" r="1.849" transform="translate(2.769 2.034)" fill="#363e44"/><circle cx="1.547" cy="1.547" r="1.547" transform="translate(1.622 4.147)" fill="#363e44"/><path d="M722.438,676.669a1.547,1.547,0,1,1-1.547-1.547A1.547,1.547,0,0,1,722.438,676.669Z" transform="translate(-718.667 -668.716)" fill="#363e44"/><path d="M760.529,659.172a1.547,1.547,0,1,1-1.547-1.547A1.547,1.547,0,0,1,760.529,659.172Z" transform="translate(-752.137 -653.342)" fill="#363e44"/><circle cx="1.343" cy="1.343" r="1.343" transform="translate(6.365 5.188) rotate(-85.269)" fill="#363e44"/><circle cx="1.49" cy="1.49" r="1.49" transform="translate(3.813 8.843) rotate(-80.783)" fill="#363e44"/><circle cx="1.49" cy="1.49" r="1.49" transform="translate(2.588 7.726) rotate(-76.717)" fill="#363e44"/><path d="M735.633,689.148a1.749,1.749,0,1,1-1.749-1.749A1.748,1.748,0,0,1,735.633,689.148Z" transform="translate(-729.908 -679.504)" fill="#363e44"/><circle cx="1.49" cy="1.49" r="1.49" transform="translate(0 11.736) rotate(-80.783)" fill="#363e44"/></g><g transform="translate(15.3 10.65)"><path d="M870.329,710.144a6.844,6.844,0,0,1-1.567,2.571c-.237.236-1.681-2.145-1.338-2.264A6.869,6.869,0,0,1,870.329,710.144Z" transform="translate(-864.036 -710.103)" fill="#fff"/><path d="M839.881,716.729a6.437,6.437,0,0,0,3.921-.795,4.83,4.83,0,0,0,.812-.657,2.692,2.692,0,0,0-1.364-2.25,4.868,4.868,0,0,0-1,.481A6.439,6.439,0,0,0,839.881,716.729Z" transform="translate(-839.881 -712.672)" fill="#363e44"/></g><path d="M837.279,739.517a.268.268,0,0,1-.162-.481c.357-.271.548-.52.525-.684-.011-.081-.078-.142-.24-.271a2.064,2.064,0,0,1-.492-.513,2.092,2.092,0,0,1-.21-1.562.268.268,0,0,1,.526.1,1.585,1.585,0,0,0,.136,1.172,1.564,1.564,0,0,0,.375.383.966.966,0,0,1,.435.615c.054.382-.185.77-.731,1.185A.266.266,0,0,1,837.279,739.517Z" transform="translate(-821.735 -722.023)" fill="#363e44"/><path d="M818.8,769.671a.268.268,0,0,1-.268-.26.889.889,0,0,0-.292-.643.928.928,0,0,0-1.065-.021.268.268,0,1,1-.282-.455,1.45,1.45,0,0,1,1.689.063,1.434,1.434,0,0,1,.487,1.042.268.268,0,0,1-.26.276Z" transform="translate(-804.268 -750.371)" fill="#363e44"/><path d="M734.753,726.028a2.6,2.6,0,0,1-2.731-1.307,2.448,2.448,0,0,1,.5-3.4,2.33,2.33,0,0,1,2.891.6Z" transform="translate(-729.41 -709.064)" fill="#84524d"/><path d="M732.341,724.395a3,3,0,0,1-2.475-1.494,2.717,2.717,0,0,1,.588-3.768,2.58,2.58,0,0,1,3.228.645.268.268,0,0,1-.393.364,2.055,2.055,0,0,0-2.555-.553,2.186,2.186,0,0,0-.413,3.03,2.333,2.333,0,0,0,2.437,1.188.268.268,0,1,1,.13.52A2.256,2.256,0,0,1,732.341,724.395Z" transform="translate(-727.483 -707.104)" fill="#363e44"/><path d="M740.418,732.482a.267.267,0,0,1-.211-.1,1.42,1.42,0,0,1,.007-1.979,1.322,1.322,0,0,1,1.689.211.268.268,0,0,1-.358.4.816.816,0,0,0-1-.189c-.295.232-.257.793.083,1.226a.268.268,0,0,1-.211.433Z" transform="translate(-736.653 -717.096)" fill="#363e44"/><g transform="translate(6.928 11.422)"><path d="M804.791,727.06a6.844,6.844,0,0,1-3.01.1c-.327-.069.872-2.582,1.16-2.361A6.869,6.869,0,0,1,804.791,727.06Z" transform="translate(-797.982 -723.776)" fill="#fff"/><path d="M770.87,716.691a6.437,6.437,0,0,0,2.815,2.842,4.818,4.818,0,0,0,.995.319,2.692,2.692,0,0,0,1.133-2.374,4.865,4.865,0,0,0-.949-.569A6.438,6.438,0,0,0,770.87,716.691Z" transform="translate(-770.87 -716.467)" fill="#363e44"/></g></g></g></g></g></svg>