<svg xmlns="http://www.w3.org/2000/svg" width="250" height="279" viewBox="0 0 250 279"><g transform="translate(5644 8577)"><rect width="250" height="279" rx="10" transform="translate(-5644 -8577)" fill="#f2e6dc"/><g transform="translate(-5965 -8887)"><circle cx="111" cy="111" r="111" transform="translate(335 335)" fill="#f2e6dc"/><g transform="translate(442.202 339.735)"><path d="M1249.876,407.876l-31.183,54.011h62.367Z" transform="translate(-1218.693 -403.771)" fill="#fff" opacity="0.6"/><g transform="translate(5.799 0)"><g transform="translate(0 35.106)"><path d="M1287.165,685.811H1266.5l10.841-18.777a.121.121,0,1,1,.21.121l-10.631,18.413h20.246a.121.121,0,1,1,0,.243Z" transform="translate(-1266.499 -666.542)" fill="#8b865c"/><path d="M1295.925,673.687a.121.121,0,0,1-.121-.118l-.223-9.726-8.311,5.056a.121.121,0,1,1-.126-.207l8.67-5.275.233,10.146a.121.121,0,0,1-.118.124Z" transform="translate(-1284.587 -663.417)" fill="#8b865c"/></g><g transform="translate(18.908)"><path d="M1422.483,395.81a.121.121,0,0,1-.1-.182l12.469-21.6,11.891,20.6a.121.121,0,0,1-.21.121l-11.681-20.232-12.259,21.233A.121.121,0,0,1,1422.483,395.81Z" transform="translate(-1422.362 -374.031)" fill="#8b865c"/><path d="M1562.947,476.033l-8.685-5.249a.121.121,0,0,1,.126-.208l8.326,5.032.195-9.726a.121.121,0,0,1,.121-.119h0a.121.121,0,0,1,.119.124Z" transform="translate(-1538.209 -454.635)" fill="#8b865c"/></g><g transform="translate(40.984 35.738)"><path d="M1633.076,687.265h-20.724a.121.121,0,1,1,0-.243h20.3l-10.515-18.212a.121.121,0,0,1,.21-.121Z" transform="translate(-1611.273 -668.628)" fill="#8b865c"/><path d="M1613.262,787.864a.122.122,0,0,1-.059-.015l-8.859-4.951,8.717-5.2a.121.121,0,1,1,.124.208l-8.356,4.981,8.492,4.746a.121.121,0,0,1-.059.227Z" transform="translate(-1604.344 -764.454)" fill="#8b865c"/></g></g></g><g transform="translate(340.465 360.976)"><g transform="translate(0 37.054)"><path d="M407.425,860.147c13.124-3.447,31.546-6.666,51.562-5.217a30.527,30.527,0,0,1,20.89,10.446c10.662,12.311,28.4,35.981,33.435,62.086L401.047,941.627a18.669,18.669,0,0,1-20.991-18.991c.232-9.658,1.233-21.4,2.593-33.7A33.545,33.545,0,0,1,407.425,860.147Z" transform="translate(-380.05 -854.573)" fill="#fff"/><path d="M1148.348,1032.013a.122.122,0,0,1-.115-.082l-8.974-25.985a.121.121,0,1,1,.229-.079l8.974,25.985a.122.122,0,0,1-.115.161Z" transform="translate(-1047.153 -987.441)" fill="#363e44"/><path d="M615.026,1168.716a.121.121,0,0,1-.121-.113l-1.286-17.988a.121.121,0,1,1,.242-.017l1.286,17.988a.121.121,0,0,1-.112.13Z" transform="translate(-585.285 -1114.588)" fill="#363e44"/><g transform="translate(30.849)"><rect width="45.046" height="37.415" transform="matrix(0.993, -0.117, 0.117, 0.993, 6.198, 26.566)" fill="#efbc73"/><path d="M787.746,1129.1a12.675,12.675,0,0,1-12.56-11.175l-.971-8.231a.121.121,0,0,1,.106-.135l24.9-2.937a.123.123,0,0,1,.089.025.122.122,0,0,1,.045.081l.971,8.231a12.663,12.663,0,0,1-12.579,14.14Zm1.464-.329.014.12-.014-.12a12.428,12.428,0,0,0,10.874-13.783l-.957-8.111-24.657,2.909.957,8.111a12.414,12.414,0,0,0,13.783,10.874Z" transform="translate(-757.246 -1076.044)" fill="#363e44"/><rect width="6.093" height="24.05" transform="matrix(0.963, -0.271, 0.271, 0.963, 0, 4.497)" fill="#efbc73"/><path d="M676.823,1032.8a.12.12,0,0,1-.059-.016.123.123,0,0,1-.057-.073l-1.437-5.1a.121.121,0,0,1,.084-.15l5.865-1.652a.121.121,0,0,1,.15.084l1.437,5.1a.121.121,0,0,1-.084.15l-5.865,1.652A.117.117,0,0,1,676.823,1032.8Zm-1.288-5.138,1.372,4.867,5.631-1.587-1.372-4.867Z" transform="translate(-670.3 -1005.028)" fill="#363e44"/><rect width="6.093" height="24.05" transform="translate(45.616) rotate(2.233)" fill="#efbc73"/></g><g transform="translate(54.742 7.994)"><rect width="8.669" height="5.57" transform="matrix(0.626, -0.78, 0.78, 0.626, 5.314, 15.999)" fill="#d3bba3"/><rect width="12.168" height="6.251" transform="matrix(0.626, -0.78, 0.78, 0.626, 0, 13.978)" fill="#8b865c"/><path d="M929.3,988.269l-41.789,7.123A6.6,6.6,0,0,1,879.906,990l-6.949-40.768a9.082,9.082,0,0,1,1.854-7.19l10.911-13.675a9.081,9.081,0,0,1,5.573-3.288l26.471-4.512a6.6,6.6,0,0,1,7.609,5.393l9.324,54.7A6.6,6.6,0,0,1,929.3,988.269Z" transform="translate(-867.79 -920.47)" fill="#e6d0be"/><path d="M1056.745,975.254l-22.259,3.794a3.121,3.121,0,0,1-1.049-6.153L1055.7,969.1a3.121,3.121,0,0,1,1.049,6.153Z" transform="translate(-1006.635 -963.162)" fill="#fff"/><path d="M1268.752,1368.185a.121.121,0,0,1-.066-.02l-9.362-6.091a.121.121,0,0,1,.132-.2l9.362,6.09a.121.121,0,0,1-.066.223Z" transform="translate(-1207.352 -1308.307)" fill="#363e44"/><path d="M943.272,1156.449a.12.12,0,0,1-.066-.02l-9.676-6.295a.121.121,0,1,1,.132-.2l9.676,6.295a.121.121,0,0,1-.066.223Z" transform="translate(-921.08 -1122.078)" fill="#363e44"/><path d="M988.394,1395.344a.121.121,0,0,1-.1-.2l8.115-10.534a.121.121,0,1,1,.192.148L988.49,1395.3A.121.121,0,0,1,988.394,1395.344Z" transform="translate(-969.231 -1328.267)" fill="#363e44"/><path d="M1227.666,1099.328a.119.119,0,0,1-.074-.025.121.121,0,0,1-.022-.17l6.563-8.519a.121.121,0,1,1,.192.148l-6.563,8.52A.121.121,0,0,1,1227.666,1099.328Z" transform="translate(-1179.476 -1069.931)" fill="#363e44"/><g transform="translate(31.666 28.205)"><path d="M1105.147,1164.807c3.217,6.612.73,12.588-2.761,13.647s-8.966-2.516-9.88-9.811c-.91-7.262,2.148-15.668,2.148-15.668S1101.708,1157.737,1105.147,1164.807Z" transform="translate(-1092.338 -1152.975)" fill="#8b865c"/><path d="M1131.313,1222.429a.122.122,0,0,1-.116-.086l-6.438-21.215a.121.121,0,1,1,.232-.07l6.438,21.215a.122.122,0,0,1-.116.157Z" transform="translate(-1120.821 -1195.149)" fill="#363e44"/></g></g><g transform="translate(13.29 55.378)"><path d="M495.234,1312.207c14.319.156,48.057-1.147,51.355-1.143,6.166.007,39.255.907,39.643,5.7.185,2.288-6.2,2.4-8.356,2.379,1.734.879,8.759,3.533,8.294,6.064-.546,2.974-9.4,1.093-9.557,1.151,1.851.714,9.342,3.259,9.067,5.171-.357,2.487-8.035,2.208-10.33,2.019.215.333,7.676,1.713,7.376,4.7-.22,2.19-7.264,1.924-10.32,1.818-5.478,0-70.594,5.348-80.33,1.062C487.793,1339.232,489.217,1317.025,495.234,1312.207Z" transform="translate(-489.603 -1311.064)" fill="#bc8271"/><path d="M534.624,1314.433a.121.121,0,0,1,0-.243c4.613,0,23.576-.217,30.843-.386a.12.12,0,0,1,.124.119.121.121,0,0,1-.119.124C558.205,1314.216,539.238,1314.432,534.624,1314.433Z" transform="translate(-529.056 -1313.472)" fill="#363e44"/><g transform="translate(77.583 6.014)"><path d="M1139.9,1362.592a.121.121,0,0,1-.042-.007,28.025,28.025,0,0,0-10.6-1.687.125.125,0,0,1-.125-.117.121.121,0,0,1,.117-.125,28.271,28.271,0,0,1,10.692,1.7.121.121,0,0,1-.042.235Z" transform="translate(-1129.134 -1360.638)" fill="#363e44"/><path d="M1151.016,1429.1a.12.12,0,0,1-.029,0c-.264-.065-.533-.127-.8-.185a28.182,28.182,0,0,0-6.892-.615.122.122,0,0,1-.125-.117.121.121,0,0,1,.117-.125,28.451,28.451,0,0,1,6.951.62c.271.059.543.122.809.187a.121.121,0,0,1-.029.239Z" transform="translate(-1141.465 -1419.858)" fill="#363e44"/><path d="M1161.355,1493.4h-.016a28.382,28.382,0,0,0-4.534-.21.121.121,0,0,1-.008-.243,28.635,28.635,0,0,1,4.572.212.121.121,0,0,1-.015.242Z" transform="translate(-1153.339 -1476.885)" fill="#363e44"/></g></g></g><g transform="translate(39.569 0)"><path d="M761.677,857.1c.275,2.774-5,6.693-11.911,7.379s-12.854-2.122-13.129-4.9,5.218-4.464,12.132-5.15S761.4,854.331,761.677,857.1Z" transform="translate(-732.939 -817.17)" fill="#bc8271"/><g transform="translate(2.192)"><path d="M750.833,605.279s2.1-5.284-.1-8.848-8.318-4.569-11.305-4.538-14.136,4.382-6.443,15.59S750.833,605.279,750.833,605.279Z" transform="translate(-729.593 -586.705)" fill="#363e44"/><path d="M736.955,556.541s-.444-9.742-5.883-6.889,3.747,8.277,3.747,8.277Z" transform="translate(-728.737 -549.129)" fill="#363e44"/><path d="M731.181,564.9h0c-4-.022-6.467-2.33-6.834-4.6a2.688,2.688,0,0,1,1.807-3.168,2.04,2.04,0,0,1,1.775.191c2.359,1.416,3.332,7.188,3.372,7.433a.121.121,0,0,1-.12.141Zm-4.33-7.642a1.924,1.924,0,0,0-.62.106,2.457,2.457,0,0,0-1.645,2.9c.346,2.14,2.669,4.316,6.45,4.392-.167-.91-1.168-5.883-3.232-7.122A1.83,1.83,0,0,0,726.85,557.259Z" transform="translate(-724.298 -556.059)" fill="#363e44"/><path d="M795.824,597.663a.121.121,0,0,1-.121-.11c-.258-2.778-1.339-4.742-3.213-5.836-4.19-2.448-10.882.2-10.946.226a.121.121,0,1,1-.1-.221c.065-.029,6.878-2.72,11.168-.214,1.945,1.136,3.066,3.163,3.332,6.023a.121.121,0,0,1-.11.132Z" transform="translate(-774.45 -585.428)" fill="#363e44"/></g><ellipse cx="3.056" cy="3.591" rx="3.056" ry="3.591" transform="translate(0 20.218) rotate(-42.204)" fill="#bc8271"/><ellipse cx="3.591" cy="3.056" rx="3.591" ry="3.056" transform="translate(19.851 19.848) rotate(-64.953)" fill="#bc8271"/><path d="M778.911,739.476c-3.985.212-7.368-2.487-7.556-6.026l-1.235-18.171,14.431-.766,1.235,18.17C785.975,736.223,782.9,739.264,778.911,739.476Z" transform="translate(-762.37 -694.45)" fill="#bc8271"/><path d="M761.168,705.464c-9.591,1.509-12.251-15.433-12.251-15.433l18.077-2.413S770.626,703.976,761.168,705.464Z" transform="translate(-743.738 -670.818)" fill="#363e44"/><path d="M770.31,649.371c1.286,7.776-2.519,4.964-7.336,5.691s-8.964,5.568-10.1-3.06c-.42-3.173.365-5.69,2.043-7.428,1.322-1.37,3.621.679,5.744.359,1.982-.3,3.444-2.993,5.075-2.216A8.459,8.459,0,0,1,770.31,649.371Z" transform="translate(-747.113 -631.241)" fill="#bc8271"/><path d="M893.613,683.027h-.01a.121.121,0,0,1-.111-.131,12.09,12.09,0,0,0-.71-5.134.121.121,0,1,1,.227-.084,12.333,12.333,0,0,1,.725,5.238A.121.121,0,0,1,893.613,683.027Z" transform="translate(-870.144 -662.013)" fill="#363e44"/><path d="M751.079,703.966a.121.121,0,0,1-.113-.077,12.336,12.336,0,0,1-.832-5.223.121.121,0,1,1,.242.014,12.1,12.1,0,0,0,.816,5.119.121.121,0,0,1-.068.157A.12.12,0,0,1,751.079,703.966Z" transform="translate(-744.789 -680.425)" fill="#363e44"/><path d="M834.507,727a.121.121,0,0,1-.1-.2.8.8,0,0,0,.23-.642.678.678,0,0,0-.276-.344,1.5,1.5,0,0,1-.439-.51,1.431,1.431,0,0,1-.131-.76.123.123,0,0,1,.131-.111.121.121,0,0,1,.111.131,1.194,1.194,0,0,0,.107.633,1.289,1.289,0,0,0,.376.431.889.889,0,0,1,.357.474,1.02,1.02,0,0,1-.275.847A.12.12,0,0,1,834.507,727Z" transform="translate(-818.315 -703.169)" fill="#363e44"/><path d="M810.847,756.617a2.471,2.471,0,0,1-2.021-1.024.121.121,0,0,1,.2-.143,2.269,2.269,0,0,0,.789.678,2.314,2.314,0,0,0,1.453.21.121.121,0,1,1,.043.239A2.612,2.612,0,0,1,810.847,756.617Z" transform="translate(-796.359 -730.377)" fill="#bc8271"/><g transform="translate(6.914 16.97)"><g transform="translate(9.054)"><path d="M841.851,689.02h-.021c0,.046-.025.107-.072.113a1.376,1.376,0,0,0-.082.263c-.048.138-.258.054-.21-.083.032-.092-.246.118-.371.19-.4.228-.807.438-1.222.636-.193.092-.387.186-.584.271a5.373,5.373,0,0,1-.721.3,5.606,5.606,0,0,0-.707,1.117,5.777,5.777,0,0,0,1.882.127c0-.014,0-.028,0-.043a8.8,8.8,0,0,1,2.362-.968,5.763,5.763,0,0,0,1.341-1.78A5.726,5.726,0,0,0,841.851,689.02Z" transform="translate(-837.86 -689.014)" fill="#fff"/><path d="M845.27,689.475a4.606,4.606,0,0,0-1.572,1.29,1.869,1.869,0,0,0,1.142,1.249,4.32,4.32,0,0,0,1.457-.385,4.106,4.106,0,0,0,.925-.616,1.877,1.877,0,0,0-.262-1.939A4.439,4.439,0,0,0,845.27,689.475Z" transform="translate(-842.99 -689.067)" fill="#363e44"/></g><g transform="translate(0 1.782)"><path d="M764.7,705.039l.021-.005c.018.043.056.094.1.086a1.368,1.368,0,0,1,.157.226c.087.117.263-.026.176-.143-.059-.078.27.038.411.069.449.1.9.176,1.357.239.212.03.425.061.638.083a5.39,5.39,0,0,0,.779.073,5.61,5.61,0,0,1,1.01.853,5.775,5.775,0,0,1-1.756.686c-.005-.013-.01-.026-.015-.04a8.8,8.8,0,0,0-2.543-.214,5.764,5.764,0,0,1-1.814-1.295A5.727,5.727,0,0,1,764.7,705.039Z" transform="translate(-763.223 -704.872)" fill="#fff"/><path d="M776.35,703.739a4.606,4.606,0,0,1,1.887.758,1.87,1.87,0,0,1-.714,1.534,4.319,4.319,0,0,1-1.505.07,4.105,4.105,0,0,1-1.067-.31,1.877,1.877,0,0,1-.333-1.928A4.441,4.441,0,0,1,776.35,703.739Z" transform="translate(-773.119 -703.702)" fill="#363e44"/></g></g></g></g><g transform="translate(465.865 408.273)"><path d="M1829.774,1092.156a1.905,1.905,0,0,1-1.856-1.508,1.9,1.9,0,0,1,1.467-2.249c16.3-3.43,24.062-9.571,24.42-19.327.189-5.155-1.154-7.95-2.71-11.187a35.183,35.183,0,0,1-3.966-13.7c-.537-6.212,1.9-11.142,4.264-15.91,2.6-5.255,4.848-9.793,2.915-15.445-1.245-3.639-5.554-7.307-19.015-4.113a1.9,1.9,0,0,1-.877-3.7c6.942-1.648,12.52-1.735,16.578-.261a10.929,10.929,0,0,1,6.907,6.84c2.445,7.149-.376,12.848-3.105,18.36-2.227,4.5-4.33,8.746-3.884,13.9a31.517,31.517,0,0,0,3.606,12.386c1.7,3.538,3.306,6.879,3.082,12.971a19.082,19.082,0,0,1-7.4,14.655c-4.521,3.666-11.074,6.364-20.035,8.249a1.888,1.888,0,0,1-.393.041Zm14.514-84.906c6.7,0,9.313,2.759,10.249,5.5,1.966,5.748-.3,10.328-2.927,15.631-2.346,4.738-4.771,9.638-4.24,15.782a34.974,34.974,0,0,0,3.943,13.62c1.57,3.266,2.925,6.086,2.734,11.3-.362,9.885-8.183,16.1-24.612,19.555a1.656,1.656,0,0,0-1.28,1.961,1.662,1.662,0,0,0,1.618,1.316h0a1.664,1.664,0,0,0,.342-.036c8.922-1.877,15.442-4.56,19.932-8.2a18.85,18.85,0,0,0,7.309-14.475c.221-6.033-1.372-9.348-3.059-12.857a31.725,31.725,0,0,1-3.629-12.471c-.452-5.219,1.666-9.5,3.908-14.025,2.707-5.468,5.506-11.121,3.093-18.174a10.692,10.692,0,0,0-6.76-6.691c-4.013-1.458-9.544-1.367-16.439.269a1.656,1.656,0,1,0,.765,3.223A39.761,39.761,0,0,1,1844.288,1007.25Z" transform="translate(-1777.639 -995.864)" fill="#363e44"/><rect width="62.646" height="93.444" transform="translate(2.796 0.121)" fill="#8b865c"/><path d="M1476.521,1032.7h-62.646a.121.121,0,0,1-.121-.121V939.131a.121.121,0,0,1,.121-.121h62.646a.121.121,0,0,1,.121.121v93.444A.121.121,0,0,1,1476.521,1032.7Zm-62.525-.243h62.4v-93.2H1414Z" transform="translate(-1413.753 -939.01)" fill="#363e44"/><rect width="52.358" height="33.953" transform="translate(7.955 6.135)" fill="#fff"/><path d="M1602.449,1059.6l8.676-21.994H1623.7l-11.184,17.353H1623.7l-21.255,21.994,6.846-17.353Z" transform="translate(-1579.558 -1025.646)" fill="#efbc73"/></g><g transform="translate(338.592 430.88)"><g transform="translate(0 0)"><g transform="translate(0 20.188)"><path d="M445.371,1352.482H390.693a12.286,12.286,0,0,1-12.272-12.272v-5.374a12.286,12.286,0,0,1,12.272-12.272,12.043,12.043,0,0,0,12.029-12.029v-18.642a.121.121,0,1,1,.243,0v18.642a12.286,12.286,0,0,1-12.272,12.272,12.043,12.043,0,0,0-12.029,12.029v5.374a12.043,12.043,0,0,0,12.029,12.029h54.678a.121.121,0,0,1,0,.243Z" transform="translate(-376.745 -1291.771)" fill="#363e44"/><g transform="translate(24.791 8.427)"><path d="M590.576,1374.694c-5.429,4.958-11.865,4.267-13.87,1.219s-.128-9.311,6.609-12.255c6.707-2.93,15.634-2.38,15.634-2.38S596.382,1369.392,590.576,1374.694Z" transform="translate(-575.099 -1361.238)" fill="#776e42"/><path d="M569.09,1400.619a.121.121,0,0,1-.067-.223l18.521-12.186a.121.121,0,0,1,.133.2L569.157,1400.6A.122.122,0,0,1,569.09,1400.619Z" transform="translate(-568.969 -1384.921)" fill="#363e44"/></g><g transform="translate(0 4.058)"><path d="M377.419,1337.055c3.217,6.612.73,12.588-2.761,13.647s-8.966-2.515-9.88-9.811c-.91-7.262,2.148-15.668,2.148-15.668S373.979,1329.985,377.419,1337.055Z" transform="translate(-364.609 -1325.223)" fill="#8b865c"/><path d="M403.584,1394.678a.121.121,0,0,1-.116-.086l-6.438-21.215a.121.121,0,1,1,.232-.07l6.438,21.215a.122.122,0,0,1-.116.157Z" transform="translate(-393.092 -1367.397)" fill="#363e44"/></g><g transform="translate(6.697 37.093)"><path d="M434.591,1612.721c-3.887,6.241-10.27,7.315-13.024,4.923s-2.641-8.93,3.05-13.585c5.665-4.634,14.409-6.518,14.409-6.518S438.747,1606.047,434.591,1612.721Z" transform="translate(-419.812 -1597.541)" fill="#8b865c"/><path d="M423.618,1651.715a.121.121,0,0,1-.092-.2l14.538-16.739a.121.121,0,0,1,.183.159l-14.537,16.739A.121.121,0,0,1,423.618,1651.715Z" transform="translate(-423.049 -1630.222)" fill="#363e44"/></g></g><g transform="translate(14.3)"><g transform="translate(5.619)"><path d="M529.973,1137.307a1.165,1.165,0,0,1-1.165-1.165v-9.618a1.165,1.165,0,0,1,2.33,0v9.618A1.165,1.165,0,0,1,529.973,1137.307Z" transform="translate(-528.808 -1125.359)" fill="#363e44"/><path d="M612.861,1137.307a1.165,1.165,0,0,1-1.165-1.165v-9.618a1.165,1.165,0,0,1,2.33,0v9.618A1.165,1.165,0,0,1,612.861,1137.307Z" transform="translate(-601.641 -1125.359)" fill="#363e44"/></g><path d="M517.619,1232.625a8.577,8.577,0,0,1-8.577-8.577v-10.691H526.2v10.691A8.577,8.577,0,0,1,517.619,1232.625Z" transform="translate(-505.821 -1202.683)" fill="#efbc73"/><path d="M504.774,1212.9H483.8a1.31,1.31,0,1,1,0-2.621h20.975a1.31,1.31,0,1,1,0,2.621Z" transform="translate(-482.488 -1199.982)" fill="#e0aa63"/></g></g><g transform="translate(43.024 38.439)"><path d="M882.22,1498.483H727.637a8.37,8.37,0,0,1-8.37-8.37v-5.9a13.482,13.482,0,0,0,3.352-8.9v-4.4a5.257,5.257,0,0,1,5.257-5.257h7.847a86.025,86.025,0,0,1,58.758-23.4l9.572-.025a38.009,38.009,0,0,1,24.092,8.53l15.912,12.95a11.231,11.231,0,0,0,5.444,2.4l22.266,3.58a22.513,22.513,0,0,1,18.756,19.363A8.371,8.371,0,0,1,882.22,1498.483Z" transform="translate(-719.267 -1442.225)" fill="#efbc73"/><g transform="translate(119.096 33.886)"><circle cx="13.753" cy="13.753" r="13.753" transform="translate(0 19.449) rotate(-45)" fill="#363e44"/><circle cx="9.725" cy="9.725" r="9.725" transform="translate(5.697 19.449) rotate(-45)" fill="#d3bba3"/></g><g transform="translate(15.191 33.886)"><circle cx="13.753" cy="13.753" r="13.753" transform="translate(0 19.449) rotate(-45)" fill="#363e44"/><circle cx="9.725" cy="9.725" r="9.725" transform="translate(5.697 19.449) rotate(-45)" fill="#d3bba3"/></g><path d="M967.322,1493.8h88.209l-23.556-17.82a10.511,10.511,0,0,0-5.458-2.091,103.29,103.29,0,0,0-62.545,14.723Z" transform="translate(-934.286 -1469.721)" fill="#363e44"/><ellipse cx="3.199" cy="9.861" rx="3.199" ry="9.861" transform="matrix(0.352, -0.936, 0.936, 0.352, 148.63, 35.09)" fill="#fff"/><path d="M751.96,1690.748H744.8l.3-6.261h9.636Z" transform="translate(-741.699 -1655.098)" fill="#d87355"/><path d="M1106.716,1540.108H1043.49a.121.121,0,0,1-.1-.051l-19.328-26.967a.121.121,0,0,1-.01-.125l3.931-7.862a.121.121,0,1,1,.217.108l-3.9,7.8,19.249,26.857h63.08l5.353-13.878a17.089,17.089,0,0,0-7.126-20.811l-20.754-12.165a.121.121,0,0,1,.123-.209l20.755,12.166a17.331,17.331,0,0,1,7.228,21.107l-5.383,13.956A.121.121,0,0,1,1106.716,1540.108Z" transform="translate(-987.068 -1486.652)" fill="#363e44"/><path d="M1360.568,1660.981a.121.121,0,0,1-.12-.1l-4.253-30.466a.121.121,0,0,1,.24-.034l4.253,30.466a.121.121,0,0,1-.1.137Z" transform="translate(-1278.928 -1607.459)" fill="#363e44"/><ellipse cx="6.115" cy="0.883" rx="6.115" ry="0.883" transform="translate(42.998 28.029)" fill="#ffd092"/><ellipse cx="6.115" cy="0.883" rx="6.115" ry="0.883" transform="translate(83.219 28.029)" fill="#ffd092"/><path d="M742.046,1792.118h-8.3a10.268,10.268,0,0,1,8.3-6.182h0a3.091,3.091,0,1,1,0,6.182Z" transform="translate(-731.988 -1744.24)" fill="#ffd092"/><path d="M2065.143,1817.44h-3.156a1.425,1.425,0,0,1-1.416-1.583l.353-3.173a1.425,1.425,0,0,1,1.416-1.267h3.156a1.425,1.425,0,0,1,1.417,1.583l-.353,3.173A1.425,1.425,0,0,1,2065.143,1817.44Z" transform="translate(-1897.847 -1766.63)" fill="#ffd092"/></g></g></g></g></svg>