<svg xmlns="http://www.w3.org/2000/svg" width="250" height="279" viewBox="0 0 250 279"><g transform="translate(10899 9457)"><rect width="250" height="279" rx="10" transform="translate(-10899 -9457)" fill="#f2e6dc"/><g transform="translate(-11220 -9762)"><circle cx="111" cy="111" r="111" transform="translate(335 335)" fill="#f2e6dc"/><g transform="translate(337.482 394.72)"><path d="M372.5,891.8a13.308,13.308,0,0,0,19.246-11.439,9.043,9.043,0,0,0,9.361-15.335,12.507,12.507,0,0,0,4.3-20.783,12.509,12.509,0,1,0-23.918-7.1,9.045,9.045,0,0,0-8.991,4.959c-.053.107-.1.215-.151.324a11.148,11.148,0,0,0-10.776,15.837,9.042,9.042,0,0,0,4.219,17.5A13.311,13.311,0,0,0,372.5,891.8Zm11.812-37.415c.008.089.019.178.029.267-.108-.049-.217-.094-.326-.141C384.116,854.475,384.216,854.434,384.314,854.39Z" transform="translate(-355.461 -827.289)" fill="#e6d0be"/><path d="M631.624,871.632a.122.122,0,0,1-.078-.029,4.342,4.342,0,0,1-.566-6.422.122.122,0,0,1,.171-.015,4.341,4.341,0,0,1,.566,6.422.12.12,0,0,1-.082.043Zm-.535-6.2a4.068,4.068,0,0,0,.52,5.9,4.068,4.068,0,0,0-.52-5.9Z" transform="translate(-596.539 -860.546)" fill="#d3bba3"/><path d="M488.862,956.928a.121.121,0,0,1-.072-.024,4.562,4.562,0,0,1-1.194-6.329.121.121,0,0,1,.175-.033,4.562,4.562,0,0,1,1.194,6.329.121.121,0,0,1-.08.055Zm-1.129-6.105a4.288,4.288,0,0,0,1.094,5.8,4.288,4.288,0,0,0-1.094-5.8Z" transform="translate(-470.885 -935.569)" fill="#d3bba3"/><path d="M620.15,1037.008a5.435,5.435,0,0,1-3.024-1.087.121.121,0,0,1-.014-.178,4.562,4.562,0,0,1,6.421-.5.121.121,0,0,1,.014.178,5.3,5.3,0,0,1-3.107,1.578C620.343,1037,620.246,1037.008,620.15,1037.008Zm-2.763-1.2a4.288,4.288,0,1,0,2.851-1.4A5.047,5.047,0,0,0,617.388,1035.811Z" transform="translate(-585.343 -1009.06)" fill="#d3bba3"/><path d="M564.212,1170.015a4.273,4.273,0,0,1-1.6-.292,5.3,5.3,0,0,1-2.488-2.439.121.121,0,0,1,.067-.165,4.562,4.562,0,0,1,5.972,2.411.121.121,0,0,1-.067.165A5.8,5.8,0,0,1,564.212,1170.015Zm-3.806-2.713a4.288,4.288,0,1,0,3.177.013A5.045,5.045,0,0,0,560.406,1167.3Z" transform="translate(-535.285 -1125.612)" fill="#d3bba3"/><path d="M774.339,951.756a.121.121,0,0,1-.112-.074,4.562,4.562,0,0,1,2.175-6.062.121.121,0,0,1,.168.06,4.562,4.562,0,0,1-2.175,6.062A.123.123,0,0,1,774.339,951.756ZM776.4,945.9a4.288,4.288,0,1,0,.111,3.175A5.045,5.045,0,0,0,776.4,945.9Z" transform="translate(-723.077 -931.253)" fill="#d3bba3"/><path d="M725.931,1113.93a4.865,4.865,0,0,1-2.624-.7,5.3,5.3,0,0,1-1.972-2.873.121.121,0,0,1,.1-.149,4.562,4.562,0,0,1,5.4,3.516.121.121,0,0,1-.1.149A5.163,5.163,0,0,1,725.931,1113.93Zm-4.322-3.5a4.288,4.288,0,1,0,3.115.625A5.044,5.044,0,0,0,721.61,1110.431Z" transform="translate(-676.947 -1075.838)" fill="#d3bba3"/><path d="M386.6,1130.075a.121.121,0,0,1-.121-.114,4.562,4.562,0,0,1,4.079-4.984.121.121,0,0,1,.138.113,4.562,4.562,0,0,1-4.079,4.984Zm3.856-4.834a4.288,4.288,0,0,0-3.738,4.568,4.288,4.288,0,0,0,3.738-4.568Z" transform="translate(-382.716 -1088.863)" fill="#d3bba3"/></g><g transform="translate(421.869 366.089)"><path d="M1224.481,816.428h-2.541l.5-92.576h1.541Z" transform="translate(-1201.213 -707.769)" fill="#e6d0be"/><g transform="translate(0 0)"><path d="M1072.993,685.757l-2.7.687-1.15,2.322-18.064-8.207Z" transform="translate(-1051.078 -669.729)" fill="#e6d0be"/><path d="M1231.749,723.359l2.115,1.815,2.562-.394,3.673,19.5Z" transform="translate(-1209.831 -707.336)" fill="#e6d0be"/><path d="M1227.394,607.385l.8-2.669-1.4-2.182,16.336-11.26Z" transform="translate(-1205.48 -591.275)" fill="#e6d0be"/></g></g><g transform="translate(447.322 388.66)"><path d="M1401.137,846.988h-96.62V806.893h63.8l17.041-28.881,15.776,28.881Z" transform="translate(-1299.226 -777.929)" fill="#fff"/><path d="M1858.508,846.988l-33.449-.01-.027-42.382,8.056-17.567,9.643-9.017,9.894,9.954,5.883,16.63Z" transform="translate(-1756.596 -777.929)" fill="#d3bba3"/><path d="M1329.451,807.8H1260.9l9.584-19.1,9.9-11.374,66.855.076-10.251,11.164Z" transform="translate(-1260.9 -777.333)" fill="#9e6c5a"/><path d="M1988.706,809.132a.122.122,0,0,1-.115-.081l-7.217-20.448-9.662-9.734a.121.121,0,0,1,.172-.171l9.682,9.754a.121.121,0,0,1,.028.045l7.226,20.474a.121.121,0,0,1-.114.162Z" transform="translate(-1885.451 -778.5)" fill="#9e6c5a"/><rect width="11.266" height="9.554" transform="translate(80.668 17.61)" fill="#e6d0be"/><g transform="translate(17.461 40.068)"><rect width="24.861" height="26.585" transform="translate(2.411 2.396)" fill="#d3bba3"/><path d="M1434.157,1135.5a.121.121,0,0,1-.121-.121v-27.512h-28.96v27.271a.121.121,0,0,1-.243,0v-27.392a.121.121,0,0,1,.121-.121h29.2a.121.121,0,0,1,.121.121v27.633A.121.121,0,0,1,1434.157,1135.5Z" transform="translate(-1404.834 -1107.623)" fill="#9e6c5a"/><path d="M1404.955,1136.273a.121.121,0,0,1-.107-.179l14.929-27.526a.121.121,0,0,1,.228.059l-.178,27.392a.121.121,0,0,1-.121.12h0a.121.121,0,0,1-.12-.122l.175-26.907-14.7,27.1A.121.121,0,0,1,1404.955,1136.273Z" transform="translate(-1404.834 -1108.398)" fill="#9e6c5a"/><path d="M1542.289,1136.273a.122.122,0,0,1-.108-.065l-14.274-27.526a.121.121,0,0,1,.215-.112L1542.4,1136.1a.121.121,0,0,1-.108.177Z" transform="translate(-1512.965 -1108.398)" fill="#9e6c5a"/></g><g transform="translate(74.675 38.908)"><rect width="17.128" height="28.029" transform="translate(1.95 2.121)" fill="#e6d0be"/><path d="M1963.361,1129.577h0a.121.121,0,0,1-.121-.122l.089-29.471a.121.121,0,0,1,.121-.121h0a.121.121,0,0,1,.121.122l-.089,29.471A.121.121,0,0,1,1963.361,1129.577Z" transform="translate(-1952.713 -1099.645)" fill="#fff"/><path d="M1876.586,1128.057a.121.121,0,0,1-.121-.121v-29.752a.121.121,0,0,1,.121-.121h20.875a.121.121,0,0,1,.121.121v29.484a.121.121,0,1,1-.243,0v-29.363h-20.633v29.63A.121.121,0,0,1,1876.586,1128.057Z" transform="translate(-1876.465 -1098.063)" fill="#fff"/></g></g><g transform="translate(363.779 352.227)"><path d="M594.333,510.974h-22.1V489.045h28.043v30.534Z" transform="translate(-572.233 -487.585)" fill="#fff"/><path d="M603.826,507.783a.121.121,0,0,1-.1-.052l-5.907-8.552H575.783a.121.121,0,0,1-.121-.121V477.128a.121.121,0,0,1,.121-.121h28.043a.121.121,0,0,1,.121.121v30.534a.121.121,0,0,1-.085.116A.124.124,0,0,1,603.826,507.783ZM575.9,498.936h21.978a.121.121,0,0,1,.1.052l5.722,8.285V477.25H575.9Z" transform="translate(-575.246 -477.007)" fill="#d3bba3"/><path d="M632.038,529.87h0a4.055,4.055,0,0,1,5.734,0l.032.032.024-.024a4.065,4.065,0,0,1,5.749,0h0a4.065,4.065,0,0,1,0,5.749l-5.76,5.76-5.78-5.782A4.054,4.054,0,0,1,632.038,529.87Z" transform="translate(-623.74 -522.413)" fill="#d87355"/></g><path d="M1129.286,392.934c.018-.224.03-.45.03-.679a8.273,8.273,0,0,0-11.535-7.6,5.889,5.889,0,0,0-8.585-3.59,12.9,12.9,0,0,0-23.855,1.3,10.646,10.646,0,0,0-12,10.572Z" transform="translate(-648.771 -33.988)" fill="#fff"/><g transform="translate(337.222 452.508)"><path d="M460.94,1303.649c-41.59,0-79.424,5.35-107.626,14.1a111.092,111.092,0,0,0,218,.872C542.844,1309.356,503.9,1303.649,460.94,1303.649Z" transform="translate(-353.314 -1303.649)" fill="#9e9569"/><g transform="translate(39.73 0.431)"><path d="M726.115,1664.873c-16.05,11.372-30.974,23.826-45.3,36.049a107.013,107.013,0,0,0,34.782,18.655C710.875,1702.924,715.137,1682.752,726.115,1664.873Z" transform="translate(-680.814 -1621.484)" fill="#776e42"/><path d="M1193.945,1398.893a218.664,218.664,0,0,0-26.453,12.063c-16.72,15.992-26.995,59.165-17.551,80.091a123.37,123.37,0,0,0,23.765,0C1163.794,1467.027,1176.495,1416.529,1193.945,1398.893Z" transform="translate(-1089.866 -1387.77)" fill="#776e42"/><path d="M1394.817,1333a178.5,178.5,0,0,0-27.834,7.994c-17.45,17.636-30.151,68.134-20.239,92.156a116.952,116.952,0,0,0,26.271-5.608C1362.83,1403.052,1376.777,1349.673,1394.817,1333Z" transform="translate(-1262.904 -1329.87)" fill="#8b865c"/><path d="M996.58,1498.329a305.9,305.9,0,0,0-32.325,20.2c-10.978,17.879-15.24,38.051-10.519,54.7a121.428,121.428,0,0,0,25.293,5.183C969.585,1557.494,979.86,1514.321,996.58,1498.329Z" transform="translate(-918.954 -1475.143)" fill="#8b865c"/><path d="M2001.9,1308.032c-7.912,20.1-13.17,44.885-8.12,59.6,10.532-15.4,17.388-34.965,18.657-58.887Q2007.115,1308.212,2001.9,1308.032Z" transform="translate(-1832.76 -1307.932)" fill="#776e42"/><path d="M1820.461,1307.3a160,160,0,0,0-18.738.434c-13.019,21.97-21.214,62.873-13.326,83.472a96.324,96.324,0,0,0,23.943-24.306C1807.291,1352.19,1812.549,1327.4,1820.461,1307.3Z" transform="translate(-1651.316 -1307.204)" fill="#8b865c"/><path d="M1603.841,1311.609a162.656,162.656,0,0,0-18.494,2.595c-18.04,16.674-31.987,70.053-21.8,94.542a104.935,104.935,0,0,0,26.97-13.664C1582.627,1374.482,1590.822,1333.579,1603.841,1311.609Z" transform="translate(-1453.434 -1311.075)" fill="#776e42"/></g></g><g transform="translate(390.478 443)"><g transform="translate(115.777 0)"><path d="M1762.522,1245.766c-.73,0-1.746-3.024-2.473-5.573a78.046,78.046,0,0,1-2.167-10.067c-.629-4.651.122-4.8.369-4.85.979-.2,2.752,4.182,4.058,8.754,1.139-5.075,3.207-8.143,3.778-8.028s.762,1.187.629,3.289c-.314,4.968-2.856,16.38-4.175,16.474h-.019Zm-4.194-20.255a.149.149,0,0,0-.03,0c-.182.036-.731.474-.176,4.579a77.782,77.782,0,0,0,2.16,10.033c1.216,4.265,1.973,5.4,2.234,5.4h.006c.349-.025,1.186-1.929,2.2-6.051a65.555,65.555,0,0,0,1.748-10.2c.166-2.628-.249-3-.435-3.035-.358.03-2.466,2.873-3.6,8.317a.121.121,0,0,1-.115.1.12.12,0,0,1-.121-.089C1760.548,1228.593,1758.91,1225.511,1758.328,1225.511Z" transform="translate(-1756.31 -1225.27)" fill="#363e44"/><path d="M1746.73,1373.549c-.019-.2-.032-2.552-.032-2.756a6.308,6.308,0,1,1,12.617,0c0,.2-.013,2.557-.032,2.756Z" transform="translate(-1746.698 -1347.596)" fill="#d87355"/><path d="M1810.226,1400.613h-3.139a.121.121,0,1,1,0-.243h3.139a.121.121,0,1,1,0,.243Z" transform="translate(-1799.655 -1379.128)" fill="#363e44"/><path d="M1758.269,1421.4h-3.139a.121.121,0,1,1,0-.243h3.139a.121.121,0,1,1,0,.243Z" transform="translate(-1754 -1397.39)" fill="#363e44"/></g><g transform="translate(0 63.855)"><path d="M808.145,1772.14c-.73,0-1.746-3.024-2.473-5.573A78.064,78.064,0,0,1,803.5,1756.5c-.628-4.651.122-4.8.369-4.85.979-.2,2.752,4.182,4.058,8.754,1.139-5.075,3.211-8.143,3.778-8.027s.762,1.187.63,3.288c-.314,4.968-2.856,16.38-4.175,16.474h-.019Zm-4.194-20.255a.149.149,0,0,0-.03,0c-.182.036-.731.474-.176,4.58a77.775,77.775,0,0,0,2.16,10.033c1.216,4.265,1.973,5.4,2.234,5.4h.006c.349-.025,1.186-1.929,2.2-6.051a65.575,65.575,0,0,0,1.749-10.2c.166-2.628-.249-3-.435-3.035-.358.03-2.466,2.873-3.6,8.317a.121.121,0,0,1-.115.1.124.124,0,0,1-.121-.089C806.171,1754.967,804.533,1751.885,803.951,1751.885Z" transform="translate(-801.933 -1751.644)" fill="#363e44"/><path d="M792.353,1899.924c-.019-.2-.032-2.552-.032-2.756a6.309,6.309,0,1,1,12.617,0c0,.2-.013,2.557-.032,2.756Z" transform="translate(-792.321 -1873.971)" fill="#d87355"/><path d="M857.148,1931.956h-3.139a.121.121,0,1,1,0-.243h3.139a.121.121,0,1,1,0,.243Z" transform="translate(-846.419 -1909.869)" fill="#363e44"/><path d="M805.192,1952.739h-3.139a.121.121,0,1,1,0-.243h3.139a.121.121,0,1,1,0,.243Z" transform="translate(-800.765 -1928.13)" fill="#363e44"/></g><g transform="translate(100.01 32.116)"><path d="M1626.225,1510.4h-.009l-2.7-.208a.121.121,0,0,1-.1-.067c-6.809-13.594-7.048-15.716-6.5-16.047.335-.2,1.131.094,4.3,4.114,0-7.154.5-8.135.94-8.181.5-.052,1.333,1.141,3.227,10.786.729-3.823,1.7-5.71,2.2-6.051a.288.288,0,0,1,.219-.06.263.263,0,0,1,.165.125c.525.8.37,6.281-1.628,15.492A.121.121,0,0,1,1626.225,1510.4Zm-2.622-.445,2.526.194c2.289-10.589,1.937-14.946,1.628-15.222-.262.075-1.42,1.813-2.243,6.545a.121.121,0,0,1-.118.1.116.116,0,0,1-.12-.1c-.734-3.787-1.377-6.658-1.91-8.532-.739-2.6-1.109-2.7-1.177-2.689s-.335.131-.524,2.039c-.137,1.391-.2,3.495-.2,6.252a.121.121,0,0,1-.217.075c-3.294-4.209-4.037-4.431-4.2-4.332-.107.064-.34.551,1.141,4.147C1619.266,1501.056,1621.088,1504.932,1623.6,1509.955Z" transform="translate(-1616.73 -1490.01)" fill="#363e44"/><path d="M1631.574,1650.249c-.019-.2-.032-2.552-.032-2.756a6.308,6.308,0,1,1,12.617,0c0,.2-.013,2.557-.032,2.756Z" transform="translate(-1629.745 -1622.845)" fill="#d87355"/><path d="M1647.178,1675.581h-3.139a.121.121,0,1,1,0-.243h3.139a.121.121,0,0,1,0,.243Z" transform="translate(-1640.62 -1652.856)" fill="#363e44"/><path d="M1699.135,1696.364H1696a.121.121,0,1,1,0-.243h3.139a.121.121,0,0,1,0,.243Z" transform="translate(-1686.274 -1671.117)" fill="#363e44"/></g><g transform="translate(54.114 32.116)"><path d="M1247.887,1510.4h-.009l-2.7-.208a.121.121,0,0,1-.1-.067c-6.808-13.594-7.048-15.717-6.5-16.047.335-.2,1.131.094,4.3,4.114,0-7.154.5-8.135.94-8.181.505-.052,1.333,1.141,3.228,10.786.729-3.823,1.7-5.71,2.2-6.051a.288.288,0,0,1,.219-.06.263.263,0,0,1,.165.125c.525.8.37,6.281-1.628,15.492A.121.121,0,0,1,1247.887,1510.4Zm-2.622-.445,2.526.194c2.289-10.589,1.937-14.946,1.628-15.222-.262.075-1.42,1.813-2.243,6.545a.122.122,0,0,1-.118.1h0a.121.121,0,0,1-.119-.1c-.734-3.787-1.377-6.658-1.91-8.532-.739-2.6-1.108-2.7-1.177-2.689s-.335.131-.524,2.039c-.137,1.391-.2,3.495-.2,6.252a.121.121,0,0,1-.217.075c-3.294-4.209-4.037-4.431-4.2-4.332-.107.064-.34.551,1.141,4.147C1240.927,1501.056,1242.75,1504.932,1245.265,1509.955Z" transform="translate(-1238.392 -1490.01)" fill="#2d353a"/><path d="M1253.235,1650.249c-.019-.2-.032-2.552-.032-2.756a6.309,6.309,0,1,1,12.617,0c0,.2-.013,2.557-.032,2.756Z" transform="translate(-1251.406 -1622.845)" fill="#d87355"/><path d="M1268.839,1675.581H1265.7a.121.121,0,0,1,0-.243h3.139a.121.121,0,0,1,0,.243Z" transform="translate(-1262.281 -1652.856)" fill="#363e44"/><path d="M1320.8,1696.364h-3.139a.121.121,0,0,1,0-.243h3.139a.121.121,0,0,1,0,.243Z" transform="translate(-1307.935 -1671.117)" fill="#363e44"/></g><g transform="translate(94.921 68.829)"><path d="M1585.6,1815.865h-.009l-3.079-.237a.122.122,0,0,1-.1-.067c-2.889-5.767-4.981-10.217-6.22-13.226-1.688-4.1-1.525-4.853-1.194-5.051.378-.226,1.282.116,4.914,4.726,0-8.19.562-9.309,1.056-9.361.569-.061,1.509,1.31,3.679,12.373.829-4.384,1.968-6.6,2.515-6.977a.312.312,0,0,1,.237-.066.283.283,0,0,1,.178.136c.6.913.419,7.154-1.859,17.654A.121.121,0,0,1,1585.6,1815.865Zm-3-.474,2.905.223a93.634,93.634,0,0,0,2.032-12.955c.221-3.155-.032-4.356-.189-4.444-.254.016-1.622,2-2.575,7.483a.121.121,0,0,1-.118.1h0a.121.121,0,0,1-.119-.1c-.838-4.319-1.571-7.593-2.179-9.731-.826-2.9-1.255-3.092-1.361-3.079-.258.027-.856,1-.839,9.471a.121.121,0,0,1-.217.075c-3.764-4.81-4.622-5.06-4.816-4.944-.16.1-.353.75,1.294,4.75C1577.646,1805.235,1579.725,1809.659,1582.6,1815.391Z" transform="translate(-1574.781 -1792.647)" fill="#363e44"/><path d="M1591.611,1975.242c-.022-.227-.036-2.91-.036-3.143a7.194,7.194,0,0,1,14.388,0c0,.233-.015,2.916-.036,3.143Z" transform="translate(-1589.538 -1944.008)" fill="#d87355"/><path d="M1609.529,2004.237h-3.58a.121.121,0,0,1,0-.243h3.58a.121.121,0,1,1,0,.243Z" transform="translate(-1602.062 -1978.355)" fill="#363e44"/><path d="M1668.78,2027.937h-3.58a.121.121,0,0,1,0-.243h3.58a.121.121,0,0,1,0,.243Z" transform="translate(-1654.125 -1999.18)" fill="#363e44"/></g><g transform="translate(47.553 66.02)"><path d="M1195.128,1792.7h-.01l-3.079-.237a.122.122,0,0,1-.1-.067c-2.889-5.767-4.981-10.217-6.22-13.226-1.688-4.1-1.525-4.853-1.194-5.051.378-.226,1.282.116,4.914,4.726,0-8.19.562-9.309,1.056-9.361.571-.059,1.51,1.31,3.679,12.373.829-4.385,1.968-6.6,2.515-6.977a.312.312,0,0,1,.237-.065.284.284,0,0,1,.178.136c.6.913.419,7.155-1.859,17.654A.121.121,0,0,1,1195.128,1792.7Zm-3-.474,2.905.223a93.669,93.669,0,0,0,2.032-12.954c.221-3.155-.032-4.356-.189-4.444-.254.016-1.622,2-2.575,7.482a.121.121,0,0,1-.118.1h0a.121.121,0,0,1-.119-.1c-.838-4.319-1.571-7.593-2.179-9.731-.826-2.9-1.252-3.091-1.361-3.079-.258.027-.856,1-.839,9.471a.121.121,0,0,1-.217.075c-3.764-4.81-4.621-5.06-4.816-4.944-.16.1-.353.75,1.294,4.75C1187.177,1782.073,1189.257,1786.5,1192.127,1792.229Z" transform="translate(-1184.313 -1769.485)" fill="#363e44"/><path d="M1201.142,1952.079c-.022-.227-.036-2.91-.036-3.143a7.194,7.194,0,0,1,14.388,0c0,.233-.014,2.916-.036,3.143Z" transform="translate(-1199.069 -1920.845)" fill="#d87355"/><path d="M1219.06,1981.073h-3.58a.121.121,0,1,1,0-.243h3.58a.121.121,0,1,1,0,.243Z" transform="translate(-1211.593 -1955.192)" fill="#363e44"/><path d="M1278.311,2004.774h-3.58a.121.121,0,0,1,0-.243h3.58a.121.121,0,1,1,0,.243Z" transform="translate(-1263.656 -1976.017)" fill="#363e44"/></g></g><g transform="translate(335.429 376.274)"><g transform="translate(67.118 26.23)"><g transform="translate(14.583 19.026)"><path d="M1020.672,1048.29c4.769,3.41,16.4,10.885,17.5,11.66,2.068,1.449,12.962,9.51,11.969,11.209-.474.812-2.643-.647-3.362-1.161.376.7,2.111,3.24,1.361,3.98-.881.87-3.411-1.838-3.477-1.855.454.674,2.371,3.285,1.83,3.862-.7.751-3.215-1.143-3.94-1.745-.006.162,1.824,2.864,1.374,3.306-.5.489-2.882-1.221-3.89-1.81-1.838-1.286-9.249-5.9-12.956-7.968a78.762,78.762,0,0,1-14.864-10.2C1010.735,1056.355,1017.522,1048.5,1020.672,1048.29Z" transform="translate(-1012.011 -1048.29)" fill="#e2a18d"/><path d="M1149.7,1146.432a7.186,7.186,0,0,1-3.446-1.621c-1.976-1.382-14.04-8.635-14.162-8.708a.121.121,0,0,1-.023-.19l10.561-10.4a.121.121,0,0,1,.16-.009c.037.029,3.764,2.967,7.309,6.094a65.257,65.257,0,0,1,4.8,4.588c1.453,1.591,2,2.559,1.712,3.048a1.043,1.043,0,0,1-.723.484,3.7,3.7,0,0,1-2.19-.427l.12.186c.66,1.024,1.658,2.571.931,3.289-.653.645-1.831-.044-2.683-.7.678.87,1.331,1.911.844,2.582a.8.8,0,0,1-.573.324c-.855.108-2.178-.748-2.927-1.3.555.813,1.37,2.062.829,2.579A.764.764,0,0,1,1149.7,1146.432Zm-17.349-10.456c1.335.8,12.173,7.329,14.051,8.643,1.164.976,3.227,1.891,3.673,1.464.418-.4-.5-1.738-.94-2.381-.263-.383-.314-.465-.311-.544a.121.121,0,0,1,.2-.089c.754.625,2.408,1.779,3.288,1.668a.558.558,0,0,0,.406-.226c.5-.687-.647-2.071-1.332-2.9-.11-.133-.21-.253-.292-.358a.121.121,0,0,1,.126-.192c.037.01.053.023.2.153,1.991,1.753,2.819,1.717,3.161,1.378.586-.579-.385-2.085-.965-2.984-.158-.245-.294-.457-.379-.615a.121.121,0,0,1,.178-.156,3.7,3.7,0,0,0,2.425.642.811.811,0,0,0,.565-.369c.235-.4-.293-1.888-6.464-7.331-3.245-2.863-6.643-5.566-7.216-6.02Z" transform="translate(-1117.47 -1116.115)" fill="#fff"/><path d="M1275.407,1203.788a.121.121,0,0,1-.1-.052,11.4,11.4,0,0,0-3.142-3.033.121.121,0,0,1,.132-.2,11.651,11.651,0,0,1,3.209,3.1.121.121,0,0,1-.1.191Z" transform="translate(-1240.557 -1182.017)" fill="#fff"/><path d="M1263.54,1228.714a.121.121,0,0,1-.091-.042q-.108-.124-.224-.249a11.467,11.467,0,0,0-2.155-1.811.121.121,0,0,1,.132-.2,11.712,11.712,0,0,1,2.2,1.85q.119.128.229.254a.121.121,0,0,1-.091.2Z" transform="translate(-1230.807 -1204.784)" fill="#fff"/><path d="M1251.928,1252.721a.121.121,0,0,1-.082-.032,11.548,11.548,0,0,0-1.463-1.127.121.121,0,1,1,.132-.2,11.814,11.814,0,0,1,1.494,1.151.122.122,0,0,1-.081.211Z" transform="translate(-1221.417 -1226.707)" fill="#fff"/><path d="M1203.281,1177.4a5.249,5.249,0,0,0-6.076-1.475c-.28.047-.564.085-.846.111a.121.121,0,0,1-.022-.242c.276-.025.555-.062.828-.108a10.936,10.936,0,0,0,1.616-.4.122.122,0,0,1,.1.012c2.7,1.683,4.519,2.142,4.86,1.719.313-.387-.418-1.957-2.388-4.1a.121.121,0,1,1,.179-.164c1.464,1.595,2.971,3.709,2.4,4.418A.8.8,0,0,1,1203.281,1177.4Z" transform="translate(-1173.879 -1157.611)" fill="#fff"/></g><path d="M891.8,891.453c.244,20.027,19.818,35.737,25.854,31.063,4.993-3.866-8.99-22.493-12.956-27.842C898.76,891.581,896.154,893.341,891.8,891.453Z" transform="translate(-891.801 -891.453)" fill="#e2a18d"/><g transform="translate(37.298 39.295)"><path d="M1226.426,1215.594c.179.343-.324.959-1.124,1.377s-1.594.479-1.773.136.324-.959,1.124-1.377S1226.247,1215.251,1226.426,1215.594Z" transform="translate(-1220.554 -1215.372)" fill="#363e44"/><ellipse cx="0.7" cy="1.634" rx="0.7" ry="1.634" transform="translate(2.299 3.963) rotate(-74.159)" fill="#363e44"/><path d="M1253.451,1216.869c.335.193.241.984-.211,1.765s-1.089,1.258-1.423,1.065-.241-.984.21-1.765S1253.116,1216.675,1253.451,1216.869Z" transform="translate(-1245.265 -1216.649)" fill="#363e44"/><path d="M1243,1270.12c.335.193.241.984-.211,1.765s-1.089,1.258-1.423,1.065-.241-.984.211-1.765S1242.666,1269.926,1243,1270.12Z" transform="translate(-1236.082 -1263.44)" fill="#363e44"/><path d="M1202.252,1313.094c.163.35-.367.944-1.185,1.326s-1.613.407-1.777.057.367-.944,1.184-1.326S1202.088,1312.744,1202.252,1313.094Z" transform="translate(-1199.261 -1301.022)" fill="#363e44"/><path d="M1250.694,1331.652c.335.193.241.984-.211,1.765s-1.089,1.258-1.423,1.065-.241-.984.211-1.765S1250.359,1331.459,1250.694,1331.652Z" transform="translate(-1242.843 -1317.509)" fill="#363e44"/><path d="M1205.972,1370.468c.335-.193.972.283,1.423,1.065s.545,1.572.211,1.765-.972-.284-1.423-1.065S1205.637,1370.661,1205.972,1370.468Z" transform="translate(-1204.982 -1351.615)" fill="#363e44"/></g></g><g transform="translate(0 43.917)"><path d="M362.809,1314.833l-23.781-3.483-.495,25.556,20.7.676a17.977,17.977,0,0,0-9.1-10.562Z" transform="translate(-338.533 -1278.099)" fill="#9e6c5a"/><path d="M669.274,1042.995s35.927-11.3,45.775-2.189c9.063,8.388-1.786,41.024-1.786,41.024l-16.175-1.327-1.355-16.828s-19.162,6.352-23.844,2.6C667.316,1062.618,669.274,1042.995,669.274,1042.995Z" transform="translate(-628.785 -1037.253)" fill="#efbc73"/><path d="M480.563,1118.617s4.783,37.358-5.927,45.443c-9.856,7.439-40.064-9-40.064-9l4.83-18.989,16.135,4.939s-2.869-19.983,1.646-23.929C461.594,1113.226,480.563,1118.617,480.563,1118.617Z" transform="translate(-422.921 -1106.176)" fill="#efbc73"/><path d="M820.176,1231.5a.121.121,0,0,1-.121-.12c-.023-1.846-.085-3.769-.182-5.715a.121.121,0,0,1,.242-.012c.1,1.949.159,3.875.183,5.724a.121.121,0,0,1-.12.123Z" transform="translate(-761.48 -1202.697)" fill="#363e44"/><path d="M623.63,1330.217a.121.121,0,0,1-.1-.06c-4.149-7.066-14.72-9.609-14.826-9.634a.121.121,0,1,1,.055-.236,32.752,32.752,0,0,1,5.892,2.156c2.933,1.4,6.891,3.848,9.088,7.591a.121.121,0,0,1-.1.183Z" transform="translate(-575.843 -1285.949)" fill="#363e44"/><path d="M933.533,1409.883H899.647l3.171-14.039,13.225,1.085,9.6,2.928a10.415,10.415,0,0,1,7.891,10.026Z" transform="translate(-831.577 -1352.343)" fill="#9e6c5a"/></g><g transform="translate(28.993 19.281)"><path d="M592.723,841.466c5.088-5.156,14.6-9.777,25.063-5.781,10.787,4.118,18.733,13.245,18.733,13.245L624.68,859.252l-5.621,15.472-41.526,2.125S584.491,849.809,592.723,841.466Z" transform="translate(-577.533 -834.174)" fill="#d87355"/><path d="M710.914,959.944c-.457,20.024,18.555,36.409,24.751,31.949,5.125-3.689-8.2-22.793-11.973-28.279C717.865,960.316,715.2,961.984,710.914,959.944Z" transform="translate(-694.727 -944.687)" fill="#e2a18d"/><rect width="19.166" height="13.055" transform="translate(11.794 16.074) rotate(-18.395)" fill="#d87355"/><path d="M689.412,959.919a.121.121,0,0,1-.115-.083l-2.543-7.647a.121.121,0,0,1,.23-.077l2.5,7.532,17.956-5.971-2.914-8.763a.121.121,0,0,1,.23-.077l2.952,8.878a.121.121,0,0,1-.077.153l-18.187,6.048A.119.119,0,0,1,689.412,959.919Z" transform="translate(-673.499 -931.336)" fill="#363e44"/><path d="M965.221,958.793l-.021,0a.122.122,0,0,1-.1-.14c.311-1.827.538-3.692.675-5.543.138-1.869.186-3.766.144-5.639a.121.121,0,0,1,.119-.124.117.117,0,0,1,.124.119c.042,1.881-.007,3.786-.145,5.662-.137,1.859-.365,3.731-.678,5.565A.121.121,0,0,1,965.221,958.793Z" transform="translate(-918.084 -933.616)" fill="#363e44"/></g><g transform="translate(58.782 54.367)"><path d="M832.053,1123.39c4.647,3.575,16.006,11.453,17.085,12.266,2.016,1.52,12.621,9.958,11.569,11.621-.5.794-2.619-.739-3.32-1.278.351.714,2,3.312,1.221,4.026-.911.839-3.345-1.956-3.41-1.976.43.689,2.254,3.365,1.694,3.923-.729.726-3.173-1.255-3.877-1.882-.012.162,1.722,2.926,1.258,3.352-.515.472-2.838-1.321-3.824-1.945-1.792-1.349-9.037-6.218-12.669-8.416a78.754,78.754,0,0,1-14.5-10.717C821.84,1131.1,828.9,1123.485,832.053,1123.39Z" transform="translate(-823.09 -1123.39)" fill="#e2a18d"/><path d="M957.169,1226.5a7.028,7.028,0,0,1-3.437-1.742c-1.927-1.45-13.73-9.121-13.849-9.2a.121.121,0,0,1-.016-.191l10.919-10.023a.121.121,0,0,1,.16,0c.036.031,3.657,3.1,7.091,6.346a65.324,65.324,0,0,1,4.638,4.753c1.4,1.641,1.907,2.628,1.6,3.106a1.043,1.043,0,0,1-.74.458,3.7,3.7,0,0,1-2.174-.5l.113.19c.624,1.046,1.567,2.627.816,3.319-.674.621-1.828-.109-2.657-.789.647.893,1.264,1.957.753,2.61a.8.8,0,0,1-.583.3c-.861.078-2.151-.824-2.88-1.4.526.832,1.3,2.109.738,2.607A.73.73,0,0,1,957.169,1226.5Zm-17.022-11.058c1.307.85,11.909,7.751,13.74,9.129,1.13,1.016,3.158,2,3.62,1.592.431-.385-.438-1.755-.856-2.413-.249-.392-.3-.476-.292-.554a.121.121,0,0,1,.2-.082c.731.651,2.347,1.86,3.227,1.782a.559.559,0,0,0,.414-.211c.522-.669-.574-2.092-1.23-2.943-.1-.137-.2-.261-.279-.368a.121.121,0,0,1,.133-.188c.037.011.052.025.2.16,1.929,1.822,2.756,1.814,3.111,1.488.606-.558-.312-2.1-.86-3.016-.149-.25-.278-.467-.357-.627a.121.121,0,0,1,.183-.15,3.7,3.7,0,0,0,2.4.727.813.813,0,0,0,.577-.349c.249-.393-.227-1.9-6.2-7.553-3.143-2.974-6.444-5.795-7-6.268Z" transform="translate(-925.667 -1195.377)" fill="#fff"/><path d="M1083.386,1285.542a.121.121,0,0,1-.1-.055,11.4,11.4,0,0,0-3.034-3.141.121.121,0,1,1,.139-.2,11.652,11.652,0,0,1,3.1,3.208.121.121,0,0,1-.1.187Z" transform="translate(-1049.008 -1262.868)" fill="#fff"/><path d="M1070.654,1310.037a.121.121,0,0,1-.094-.045q-.1-.127-.215-.256a11.479,11.479,0,0,0-2.091-1.886.121.121,0,1,1,.139-.2,11.717,11.717,0,0,1,2.135,1.926q.114.131.22.262a.121.121,0,0,1-.094.2Z" transform="translate(-1038.467 -1285.279)" fill="#fff"/><path d="M1058.209,1333.623a.121.121,0,0,1-.085-.034,11.542,11.542,0,0,0-1.423-1.177.121.121,0,1,1,.139-.2,11.8,11.8,0,0,1,1.453,1.2.121.121,0,0,1-.084.208Z" transform="translate(-1028.317 -1306.861)" fill="#fff"/></g><g transform="translate(57.411 0)"><g transform="translate(8.826 4.595)"><path d="M886.893,783.014h0A3.246,3.246,0,0,0,890.9,780.8l2-6.9a3.247,3.247,0,0,0-2.213-4.022h0a3.246,3.246,0,0,0-4.023,2.212l-2,6.9A3.246,3.246,0,0,0,886.893,783.014Z" transform="translate(-884.536 -762.876)" fill="#bc8271"/><path d="M910.114,736.685a5.36,5.36,0,0,1,3.254,3.168c.478,1.637-.1,3.181-1.452,5.626-1.6,2.879-2.952,4.377-4.083,4.563-1.787.294-4.868-3.68-5.175-6.99A6.612,6.612,0,0,1,905.725,737,4.963,4.963,0,0,1,910.114,736.685Z" transform="translate(-900.438 -733.493)" fill="#bc8271"/><path d="M909.406,811.5a.121.121,0,0,1-.039-.006c-2.217-.753-3.523-3.671-4.1-5.344a.121.121,0,1,1,.229-.08c.566,1.631,1.833,4.474,3.953,5.194a.121.121,0,0,1-.039.236Z" transform="translate(-902.743 -794.723)" fill="#363e44"/><g transform="translate(7.002 8.171)"><path d="M942.261,780.466a4.039,4.039,0,0,0,.343,1.741,2.842,2.842,0,0,0,.315.526.851.851,0,1,0,1.352-1.028,2.971,2.971,0,0,0-.621-.6q-.066-.048-.133-.092t-.144-.09A4.085,4.085,0,0,0,942.261,780.466Z" transform="translate(-942.259 -780.466)" fill="#fff"/><path d="M947.444,788.6a3.8,3.8,0,0,0-.658-2.267,2.97,2.97,0,0,0-.623-.6,1.587,1.587,0,0,0-1,.961c-.017.048-.032.1-.045.143a2.837,2.837,0,0,0,.313.525A3.8,3.8,0,0,0,947.444,788.6Z" transform="translate(-944.775 -785.089)" fill="#363e44"/></g><path d="M966.854,813.481a.121.121,0,0,1-.052-.231c.13-.062.289-.161.305-.276.007-.05-.014-.091-.058-.173a1.248,1.248,0,0,1-.112-.258,1.139,1.139,0,0,1,.008-.635.121.121,0,0,1,.234.066.9.9,0,0,0-.009.5,1.011,1.011,0,0,0,.093.211.5.5,0,0,1,.085.323c-.026.181-.17.332-.441.461A.12.12,0,0,1,966.854,813.481Z" transform="translate(-956.761 -799.845)" fill="#363e44"/><path d="M942.916,821.678a.121.121,0,0,1-.111-.074,1.248,1.248,0,0,1-.072-.808,1.227,1.227,0,0,1,.485-.708.313.313,0,0,1,.246-.042c.151.043.178.2.2.345a.973.973,0,0,0,.213.515,1.347,1.347,0,0,0,.49.348.121.121,0,1,1-.093.224,1.593,1.593,0,0,1-.578-.411,1.193,1.193,0,0,1-.27-.633.591.591,0,0,0-.041-.159s-.018.005-.054.026a1,1,0,0,0-.307,1.207.122.122,0,0,1-.112.169Z" transform="translate(-935.64 -807.066)" fill="#363e44"/><g transform="translate(1.72 5.52)"><path d="M902.189,761.351a1.763,1.763,0,1,1-2.031-1.719A1.89,1.89,0,0,1,902.189,761.351Z" transform="translate(-898.711 -759.493)" fill="#bc8271"/><path d="M903.816,787.678a1.82,1.82,0,0,1-1.336-.617.121.121,0,1,1,.178-.164,1.548,1.548,0,0,0,1.375.522.121.121,0,1,1,.037.24A1.666,1.666,0,0,1,903.816,787.678Z" transform="translate(-901.994 -783.431)" fill="#363e44"/><path d="M912.928,760.593a.121.121,0,0,1-.12-.1,1.81,1.81,0,0,0-1.748-1.632.123.123,0,0,1-.127-.115.121.121,0,0,1,.115-.127,2.032,2.032,0,0,1,2,1.838.121.121,0,0,1-.1.138Z" transform="translate(-909.45 -758.614)" fill="#363e44"/><path d="M905.376,767.7a.121.121,0,0,1-.12-.1,1.1,1.1,0,0,1,.148-.753.856.856,0,0,1,.6-.4.886.886,0,0,1,.82.338.121.121,0,0,1-.188.154.647.647,0,0,0-.595-.252.617.617,0,0,0-.427.293.855.855,0,0,0-.114.587.121.121,0,0,1-.1.138Z" transform="translate(-904.45 -765.486)" fill="#363e44"/></g><g transform="translate(1.748)"><path d="M904.035,718.59a9.578,9.578,0,0,1,6.135,3.08,2.9,2.9,0,0,0,1.777-1.263c.826-1.423.168-4-2.092-5.753a3.108,3.108,0,0,1,.312,1.564,3.785,3.785,0,0,0-1.188-1.98c-1.424-1.365-3.88-1.525-6.251-.285a2.692,2.692,0,0,1,1.444.129,5.555,5.555,0,0,0-1.4.168,6.594,6.594,0,0,0-3.825,2.979A6.226,6.226,0,0,1,904.035,718.59Z" transform="translate(-898.947 -713.112)" fill="#84524d"/><path d="M960.645,745.3h0a.121.121,0,0,1-.109-.073,9.431,9.431,0,0,0-1.9-2.858.121.121,0,1,1,.174-.169,9.664,9.664,0,0,1,1.836,2.673,2.675,2.675,0,0,0-.41-2.559.121.121,0,0,1,.191-.149,2.921,2.921,0,0,1,.331,3.067A.122.122,0,0,1,960.645,745.3Z" transform="translate(-951.36 -738.6)" fill="#363e44"/></g></g><path d="M880.551,772.5a.121.121,0,0,1-.1-.048,47.048,47.048,0,0,1-5.761-9.962,47.843,47.843,0,0,1-3.779-19.323.121.121,0,0,1,.121-.12h0a.122.122,0,0,1,.12.123,47.6,47.6,0,0,0,3.759,19.225,46.8,46.8,0,0,0,5.668,9.827,23.406,23.406,0,0,0,9.473-9.642,24.888,24.888,0,0,0,2.394-15.482.121.121,0,1,1,.239-.04,25.132,25.132,0,0,1-2.418,15.635,23.647,23.647,0,0,1-9.665,9.793A.12.12,0,0,1,880.551,772.5Z" transform="translate(-863.739 -734.818)" fill="#776e42"/><ellipse cx="3.699" cy="16.786" rx="3.699" ry="16.786" transform="translate(0 6.888) rotate(-68.614)" fill="#8b865c"/><path d="M920.614,692.7c-.2-6.176-.957-7.826-1.717-7.954-.726-.122-1.457,1.141-2.278.855-.884-.308-.612-1.976-1.3-2.366s-2.371.463-6.559,5.335a17.633,17.633,0,0,0,11.857,4.13Z" transform="translate(-896.993 -682.194)" fill="#776e42"/><path d="M942.389,994.658a.122.122,0,0,1-.118-.093,18.551,18.551,0,0,1,.431-10.272.121.121,0,0,1,.206-.041,24.974,24.974,0,0,1,4.1,6.5.121.121,0,1,1-.223.1,24.728,24.728,0,0,0-3.919-6.277,18.3,18.3,0,0,0-.359,9.935.121.121,0,0,1-.09.146A.119.119,0,0,1,942.389,994.658Z" transform="translate(-925.98 -946.727)" fill="#776e42"/><path d="M980.305,1035.612a.427.427,0,1,0,.323-.51A.427.427,0,0,0,980.305,1035.612Z" transform="translate(-959.852 -991.436)" fill="#8b865c"/><path d="M944.069,1065.89a.427.427,0,1,0,.323-.51A.427.427,0,0,0,944.069,1065.89Z" transform="translate(-928.012 -1018.041)" fill="#8b865c"/><path d="M946.562,980.646a.545.545,0,1,0,.412-.652A.545.545,0,0,0,946.562,980.646Z" transform="translate(-930.2 -943.011)" fill="#8b865c"/></g></g><circle cx="14.052" cy="14.052" r="14.052" transform="translate(500.124 364.846) rotate(-45)" fill="#e6d0be"/></g></g></svg>