<svg xmlns="http://www.w3.org/2000/svg" width="250" height="279" viewBox="0 0 250 279"><g transform="translate(9225 9457)"><rect width="250" height="279" rx="10" transform="translate(-9225 -9457)" fill="#f2e6dc"/><g transform="translate(-9548.878 -9761.686)"><ellipse cx="111.5" cy="112" rx="111.5" ry="112" transform="translate(334.878 334.685)" fill="#f2e6dc"/><g transform="translate(340.039 397.655)"><path d="M789.985,930.761H773.151V860.32l8.417-12.012,8.417,12.012Z" transform="translate(-724.709 -848.309)" fill="#e6d0be"/><path d="M591.551,930.761H574.717V860.32l8.417-12.012,8.417,12.012Z" transform="translate(-550.496 -848.309)" fill="#e6d0be"/><path d="M393.117,930.761H376.283V860.32l8.417-12.012,8.417,12.012Z" transform="translate(-376.283 -848.309)" fill="#e6d0be"/><path d="M988.418,930.761H971.584V860.32L980,848.309l8.417,12.012Z" transform="translate(-898.922 -848.309)" fill="#e6d0be"/><path d="M1186.852,930.761h-16.834V860.32l8.417-12.012,8.417,12.012Z" transform="translate(-1073.134 -848.309)" fill="#e6d0be"/><path d="M1385.286,930.761h-16.834V860.32l8.417-12.012,8.417,12.012Z" transform="translate(-1247.347 -848.309)" fill="#e6d0be"/><path d="M1583.719,930.761h-16.834V860.32l8.417-12.012,8.417,12.012Z" transform="translate(-1421.56 -848.309)" fill="#e6d0be"/><path d="M1782.153,930.761h-16.834V860.32l8.417-12.012,8.417,12.012Z" transform="translate(-1595.773 -848.309)" fill="#e6d0be"/><path d="M1980.587,930.761h-16.834V860.32l8.417-12.012,8.417,12.012Z" transform="translate(-1769.986 -848.309)" fill="#e6d0be"/><rect width="190.435" height="6.457" transform="translate(11.084 24.926)" fill="#e6d0be"/><rect width="190.435" height="6.457" transform="translate(11.084 63.964)" fill="#e6d0be"/></g><g transform="translate(336.057 378.021)"><path d="M606.339,1655.013l14.107-50.332,65.462,1.493,14.007,49.063h-41.55l-4.719-8.036-4.3,8.036Z" transform="translate(-574.276 -1492.725)" fill="#84524d"/><g transform="translate(0 14.719)"><path d="M346.774,1036.9c-14.807-21.6,25.523-50.034,72.128-50.034,35.028,0,81.129,27.14,75.576,48.176-5.085,19.264-35.873,12.681-35.873,12.681l-1.324,20.893-48.708-.738-3.237-1.693-2.5,1.606-15.02-.227-7.084-29.446-12.146,1.321S354.374,1047.99,346.774,1036.9Z" transform="translate(-343.661 -965.041)" fill="#fff"/><path d="M866.782,1007.248a.12.12,0,0,1-.06-.016.122.122,0,0,1-.062-.1l-.534-16.428a.122.122,0,0,1,.118-.126.125.125,0,0,1,.126.118l.527,16.226,10.97-6.209a.122.122,0,0,1,.114,0l10.836,5.37.319-14.91a.121.121,0,0,1,.125-.12.122.122,0,0,1,.12.125l-.323,15.1a.122.122,0,0,1-.176.107l-10.95-5.427-11.089,6.277A.121.121,0,0,1,866.782,1007.248Z" transform="translate(-802.354 -968.296)" fill="#363e44"/><path d="M1075.743,1095.66l5.739-.087,11.534-76.3-5.414-1.786Z" transform="translate(-986.385 -991.924)" fill="#363e44"/><path d="M737.3,1084.01l-5.739-.087-13.47-77.719,5.557-.963Z" transform="translate(-672.388 -981.171)" fill="#363e44"/><path d="M362.05,1232.606h-.018a.122.122,0,0,1-.1-.139c1.048-6.985,5.49-12.771,10.334-13.459a10.4,10.4,0,0,1,6.967,1.577.122.122,0,1,1-.133.2,10.15,10.15,0,0,0-6.8-1.54c-4.741.673-9.095,6.371-10.127,13.253A.122.122,0,0,1,362.05,1232.606Z" transform="translate(-359.698 -1168.76)" fill="#363e44"/><g transform="translate(125.824)"><path d="M1524.185,829.6c1.846-5.758,1.291-8.226.369-8.49-1.55-.443-5.138,3.828-8.9,11.9C1518.119,832.275,1521.724,830.337,1524.185,829.6Z" transform="translate(-1498.427 -819.486)" fill="#e2a18d"/><path d="M1374.686,865.778s0,0,0,0c8.725-22.221,14.489-38.155,16.462-43a9.639,9.639,0,0,1,1.335-2.4c2.843-3.692,6.715-2.82,11.476-5.338,5.4-2.857,6.827-7.524,8.274-6.939,1.006.407.965,2.319-.533,5.87h0c1.448-2.567,3.565-5.963,4.981-5.159,1.586,1.016-.432,5.3-1.779,7.829,1.631-3.063,3.414-4.2,4.092-3.559,1.067,1.016.356,3.686-1.957,7.65h0c2.361-2.291,3.276-2.5,3.736-1.779.84,1.308-1.122,4.532-3.294,7.116a19.484,19.484,0,0,1-7.2,5.161h0c-4.5,16.2-10.69,39.37-10.69,39.37C1397.5,873.2,1379.506,872.905,1374.686,865.778Z" transform="translate(-1374.662 -808.043)" fill="#e2a18d"/><path d="M1539.631,879.1a.122.122,0,0,1-.059-.229,17.123,17.123,0,0,1,3.85-1.359c.645-.173,1.311-.351,2-.568a.122.122,0,1,1,.073.233c-.695.219-1.364.4-2.011.571a16.939,16.939,0,0,0-3.8,1.337A.121.121,0,0,1,1539.631,879.1Z" transform="translate(-1519.367 -868.529)" fill="#363e44"/><path d="M1647.932,855.905a.122.122,0,0,1-.061-.228,11.817,11.817,0,0,0,3.873-3.629.122.122,0,0,1,.2.136,12.058,12.058,0,0,1-3.953,3.7A.122.122,0,0,1,1647.932,855.905Z" transform="translate(-1614.449 -846.63)" fill="#363e44"/><path d="M1675.779,874.47a.122.122,0,0,1-.062-.228,11.814,11.814,0,0,0,3.873-3.629.122.122,0,1,1,.2.136,12.062,12.062,0,0,1-3.953,3.7A.121.121,0,0,1,1675.779,874.47Z" transform="translate(-1638.897 -862.928)" fill="#363e44"/><path d="M1692.487,911.6a.122.122,0,0,1-.062-.228,11.812,11.812,0,0,0,3.873-3.629.122.122,0,0,1,.2.136,12.06,12.06,0,0,1-3.953,3.7A.121.121,0,0,1,1692.487,911.6Z" transform="translate(-1653.566 -895.526)" fill="#363e44"/><path d="M1591.29,933.539a.122.122,0,0,1-.116-.159,7.886,7.886,0,0,1,2.55-3.749,8.109,8.109,0,0,1,5.473-1.725.122.122,0,0,1,.115.129.121.121,0,0,1-.129.115,7.862,7.862,0,0,0-5.305,1.671,7.641,7.641,0,0,0-2.47,3.633A.122.122,0,0,1,1591.29,933.539Z" transform="translate(-1564.721 -913.265)" fill="#363e44"/><path d="M1374.617,1170.7a.122.122,0,0,1-.114-.167c1.923-4.9,3.819-9.789,5.795-14.946a.122.122,0,1,1,.228.087c-1.976,5.157-3.872,10.046-5.8,14.948A.122.122,0,0,1,1374.617,1170.7Z" transform="translate(-1374.495 -1113.1)" fill="#363e44"/></g></g><g transform="translate(7.29 46.617)"><g transform="translate(122.788 19.22)"><path d="M1442.778,1314.328a16.665,16.665,0,0,1-14.878-24.143,13.665,13.665,0,0,1-10.78-23.959,13.661,13.661,0,1,1,13.259-23.83,17.159,17.159,0,1,1,26.647,15.847,29.166,29.166,0,0,1,2.669,5.342,27.017,27.017,0,0,1,1.576,13.736,17.653,17.653,0,0,1-5.166,10.333,16.676,16.676,0,0,1-13.326,26.675Zm-14.661-24.422a.122.122,0,0,1,.108.178,16.413,16.413,0,1,0,27.617-2.372.122.122,0,0,1,.016-.165c5.556-4.993,7.04-14.812,3.609-23.876a28.889,28.889,0,0,0-2.711-5.4.122.122,0,0,1,.035-.168,16.915,16.915,0,1,0-26.187-15.487.122.122,0,0,1-.189.092,13.417,13.417,0,1,0-13.019,23.375.122.122,0,0,1,.026.205,13.42,13.42,0,0,0,10.675,23.616Z" transform="translate(-1409.35 -1226.834)" fill="#8b865c"/><path d="M1654.613,1425.74a.122.122,0,0,1-.118-.093,127,127,0,0,1,.751-64.372.122.122,0,0,1,.236.065,126.756,126.756,0,0,0-.75,64.249.122.122,0,0,1-.089.148A.125.125,0,0,1,1654.613,1425.74Z" transform="translate(-1621.254 -1344.786)" fill="#8b865c"/><path d="M1665.772,1363.446a.122.122,0,0,1-.07-.222,95.831,95.831,0,0,0,10.055-8.163c1.71-1.592,3.622-3.553,5.682-5.827a.122.122,0,1,1,.181.164c-2.065,2.279-3.981,4.244-5.7,5.841a96.107,96.107,0,0,1-10.081,8.184A.122.122,0,0,1,1665.772,1363.446Z" transform="translate(-1634.366 -1334.259)" fill="#8b865c"/></g><g transform="translate(45.746 19.643)"><path d="M827.6,1318.03a18.287,18.287,0,0,1-17.93-21.695,19.367,19.367,0,0,1-10.105-7.674,29.657,29.657,0,0,1-5.106-14.293,32.017,32.017,0,0,1,.041-6.567,18.832,18.832,0,1,1,18.559-28.5,15.044,15.044,0,0,1,11.407-7.181,14.99,14.99,0,0,1,13.192,24.216,14.994,14.994,0,0,1,.992,28.824,18.281,18.281,0,0,1-9.274,32.787Q828.487,1318.03,827.6,1318.03Zm-49.1-67.122a18.707,18.707,0,0,0,16.155,16.667.122.122,0,0,1,.106.135,31.736,31.736,0,0,0-.054,6.635c1.015,10.6,7.241,19.559,15.142,21.786a.122.122,0,0,1,.087.141,18.04,18.04,0,1,0,28.381-11.062.122.122,0,0,1,.037-.215,14.75,14.75,0,0,0-.935-28.469.122.122,0,0,1-.067-.2,14.746,14.746,0,1,0-24.182-16.733.121.121,0,0,1-.1.06h0a.122.122,0,0,1-.1-.059,18.589,18.589,0,0,0-34.46,11.309Z" transform="translate(-778.168 -1230.304)" fill="#8b865c"/><path d="M971.736,1409.4a.122.122,0,0,1-.119-.1,139.215,139.215,0,0,0-31.9-62.948.122.122,0,1,1,.183-.162,139.461,139.461,0,0,1,31.953,63.058.122.122,0,0,1-.094.145Z" transform="translate(-919.974 -1332.012)" fill="#9e9569"/><path d="M938.754,1619.544a.118.118,0,0,1-.035-.005,105.5,105.5,0,0,1-13.332-5.055,139.317,139.317,0,0,1-17.706-10.14.122.122,0,1,1,.137-.2,139.039,139.039,0,0,0,17.671,10.12,105.269,105.269,0,0,0,13.3,5.043.122.122,0,0,1-.035.239Z" transform="translate(-891.825 -1558.492)" fill="#9e9569"/></g><g transform="translate(136.506)"><ellipse cx="62.685" cy="15.057" rx="62.685" ry="15.057" transform="translate(0 111.546) rotate(-62.839)" fill="#efbc73"/><path d="M1620.7,1235.191a2.093,2.093,0,0,1-.97-.221c-2.569-1.318-1.974-8.382,1.676-19.89,3.632-11.451,9.843-25.965,17.489-40.868s15.814-28.414,23-38.043c7.219-9.677,12.61-14.28,15.179-12.962s1.974,8.382-1.676,19.89c-3.632,11.451-9.843,25.965-17.49,40.868l-.109-.056.109.056c-7.646,14.9-15.814,28.414-23,38.043C1628.5,1230.6,1623.535,1235.191,1620.7,1235.191Zm55.4-111.962c-2.714,0-7.715,4.649-14.009,13.086-7.176,9.618-15.335,23.116-22.976,38.008s-13.846,29.392-17.474,40.831c-3.557,11.216-4.213,18.36-1.8,19.6s7.836-3.459,14.872-12.891c7.176-9.618,15.335-23.116,22.975-38.008s13.846-29.392,17.474-40.831c3.557-11.216,4.212-18.36,1.8-19.6A1.866,1.866,0,0,0,1676.1,1123.228Z" transform="translate(-1606.391 -1116.442)" fill="#fff"/><path d="M1626.845,1236a.851.851,0,0,1-.395-.09c-2.04-1.047,1.2-10.673,4.277-18.565,4.325-11.093,10.918-25.408,18.563-40.309s15.429-28.605,21.916-38.588c4.615-7.1,10.547-15.348,12.586-14.3s-1.2,10.673-4.277,18.565c-4.325,11.092-10.918,25.408-18.563,40.309l-.109-.056.109.056c-7.645,14.9-15.429,28.605-21.916,38.588C1634.69,1228.3,1629.177,1236,1626.845,1236Zm56.541-111.7c-.61,0-1.783.67-4.033,3.277a106.863,106.863,0,0,0-7.942,11.006c-6.483,9.976-14.262,23.673-21.9,38.567s-14.23,29.2-18.553,40.286a106.836,106.836,0,0,0-4.308,12.87c-.961,4-.576,5.136-.084,5.389s1.643-.1,4.328-3.211a106.948,106.948,0,0,0,7.942-11.006c6.483-9.976,14.262-23.673,21.9-38.567s14.23-29.2,18.553-40.286a106.966,106.966,0,0,0,4.309-12.87c.961-4,.576-5.136.084-5.389A.637.637,0,0,0,1683.386,1124.3Z" transform="translate(-1613.109 -1117.383)" fill="#fff"/><path d="M1630.283,1236.4a.18.18,0,0,1-.088-.026c-.235-.121-.86-.441,7.037-17.157,5.061-10.712,12.058-24.816,19.7-39.715s15.02-28.808,20.77-39.167c8.974-16.167,9.6-15.844,9.833-15.724s.86.441-7.037,17.158c-5.061,10.712-12.058,24.816-19.7,39.715s-15.02,28.808-20.77,39.167C1631.934,1235.236,1630.633,1236.4,1630.283,1236.4Zm57.135-111.557c-.3.13-1.852,1.808-9.731,16.027-5.714,10.311-13.007,24.07-20.535,38.744s-14.452,28.622-19.495,39.277c-6.955,14.693-7.413,16.931-7.343,17.252.3-.13,1.852-1.808,9.731-16.027,5.714-10.311,13.007-24.07,20.535-38.744l.109.056-.109-.056c7.528-14.673,14.452-28.622,19.495-39.277C1687.03,1127.4,1687.488,1125.167,1687.419,1124.846Z" transform="translate(-1616.854 -1117.849)" fill="#fff"/><path d="M2039.9,1151.335h-.016a19.941,19.941,0,0,1-11.759-5.968.122.122,0,0,1,.176-.169,19.7,19.7,0,0,0,11.615,5.9.122.122,0,0,1-.016.243Z" transform="translate(-1966.281 -1135.909)" fill="#fff"/><path d="M2016.771,1178.485h-.016a23.938,23.938,0,0,1-14.115-7.164.122.122,0,1,1,.176-.169,23.694,23.694,0,0,0,13.971,7.092.122.122,0,0,1-.016.243Z" transform="translate(-1943.911 -1158.695)" fill="#fff"/><path d="M1992.55,1210.1h-.014a26.178,26.178,0,0,1-16.28-8.259.122.122,0,0,1,.179-.166,25.934,25.934,0,0,0,16.129,8.182.122.122,0,0,1-.014.243Z" transform="translate(-1920.748 -1185.49)" fill="#fff"/><path d="M1964.306,1245.106h-.014a30.417,30.417,0,0,1-18.915-9.595.122.122,0,1,1,.179-.166,30.173,30.173,0,0,0,18.765,9.519.122.122,0,0,1-.014.243Z" transform="translate(-1893.638 -1215.052)" fill="#fff"/><path d="M1942.653,1287.308h-.014a30.417,30.417,0,0,1-18.915-9.6.122.122,0,0,1,.179-.166,30.172,30.172,0,0,0,18.765,9.519.122.122,0,0,1-.014.243Z" transform="translate(-1874.629 -1252.102)" fill="#fff"/><path d="M1921,1329.51h-.014a30.416,30.416,0,0,1-18.915-9.6.122.122,0,0,1,.179-.166,30.171,30.171,0,0,0,18.764,9.519.122.122,0,0,1-.014.243Z" transform="translate(-1855.62 -1289.153)" fill="#fff"/><path d="M1899.349,1371.711h-.014a30.416,30.416,0,0,1-18.915-9.595.122.122,0,1,1,.179-.166,30.173,30.173,0,0,0,18.765,9.518.122.122,0,0,1-.014.243Z" transform="translate(-1836.61 -1326.203)" fill="#fff"/><path d="M1877.7,1413.913h-.014a30.418,30.418,0,0,1-18.915-9.6.122.122,0,0,1,.179-.166,30.172,30.172,0,0,0,18.765,9.519.122.122,0,0,1-.014.243Z" transform="translate(-1817.601 -1363.254)" fill="#fff"/><path d="M1856.044,1456.115h-.014a30.416,30.416,0,0,1-18.915-9.595.122.122,0,1,1,.179-.166,30.173,30.173,0,0,0,18.765,9.519.122.122,0,0,1-.014.243Z" transform="translate(-1798.591 -1400.305)" fill="#fff"/><path d="M1834.392,1498.317h-.014a30.416,30.416,0,0,1-18.915-9.6.122.122,0,1,1,.179-.166,30.173,30.173,0,0,0,18.765,9.518.122.122,0,0,1-.014.243Z" transform="translate(-1779.582 -1437.355)" fill="#fff"/><path d="M1812.739,1540.518h-.014a30.415,30.415,0,0,1-18.915-9.6.122.122,0,0,1,.179-.166,30.172,30.172,0,0,0,18.764,9.519.122.122,0,0,1-.014.243Z" transform="translate(-1760.572 -1474.406)" fill="#fff"/><path d="M1769.987,1571.894h-.014a30.417,30.417,0,0,1-18.915-9.6.122.122,0,0,1,.179-.166,30.172,30.172,0,0,0,18.765,9.519.122.122,0,0,1-.014.243Z" transform="translate(-1723.038 -1501.952)" fill="#fff"/><path d="M1748.334,1614.1h-.014a30.416,30.416,0,0,1-18.915-9.6.122.122,0,1,1,.179-.166,30.173,30.173,0,0,0,18.765,9.519.122.122,0,0,1-.014.243Z" transform="translate(-1704.028 -1539.002)" fill="#fff"/><path d="M1726.682,1656.3h-.014a30.418,30.418,0,0,1-18.915-9.595.122.122,0,1,1,.179-.166,30.173,30.173,0,0,0,18.765,9.518.122.122,0,0,1-.014.243Z" transform="translate(-1685.019 -1576.053)" fill="#fff"/><path d="M1705.029,1698.5h-.014a30.417,30.417,0,0,1-18.915-9.6.122.122,0,0,1,.179-.166,30.173,30.173,0,0,0,18.765,9.519.122.122,0,0,1-.014.243Z" transform="translate(-1666.009 -1613.103)" fill="#fff"/><path d="M1653.521,1110.389a163.772,163.772,0,0,0-21.431,20.7c-9.558,11.091-29.509,34.861-33.669,69.962-1.292,10.9-1.343,25.28,1.209,25.742,3.848.7,9.572-30.985,27.337-69.4A333.562,333.562,0,0,1,1653.521,1110.389Z" transform="translate(-1588.297 -1105.383)" fill="#a8a073"/><path d="M1673.525,1264.977c19.726-31.2,21.589-69.624,21.589-69.624a191.787,191.787,0,0,0-20.672,27.483c-18.606,30.544-38.02,72.631-32.648,75.892C1645.761,1301.136,1662.734,1282.046,1673.525,1264.977Z" transform="translate(-1626.341 -1179.976)" fill="#a8a073"/><path d="M1685.28,1153.958a163.764,163.764,0,0,1-4.313,29.48c-3.435,14.233-11.107,44.3-37.193,68.154-8.1,7.408-19.752,15.835-21.615,14.032-2.81-2.72,19.586-25.847,40.427-62.679A333.523,333.523,0,0,0,1685.28,1153.958Z" transform="translate(-1609.69 -1143.634)" fill="#8b865c"/></g><g transform="translate(10.853 43.602)"><path d="M529.626,1611.548c9.312.577,19.711-8.11,13.258-20.355-3.425-6.5-11.4-11.069-18.18-20.977-13.656-19.964-13.079-35.048-19.5-35.2-5.383-.131-10.029,10.53-11.685,16.8-4.709,17.821,5.564,34.779,9.692,40.963C504.965,1595.4,515.011,1610.642,529.626,1611.548Z" transform="translate(-492.306 -1521.776)" fill="#363e44"/><path d="M540.546,1538.674c-1.207-5.012-3.3-8.9-6.991-9.159-4.266-.3-6.594,4.093-8.276,9.774,1.266-1.672,3.364-2.81,4.808-2.492a3.934,3.934,0,0,1,2.843,3.576,4.629,4.629,0,0,1,4.11-3.731C539.169,1536.525,540.4,1538.491,540.546,1538.674Z" transform="translate(-521.254 -1516.939)" fill="#8b865c"/><path d="M593.111,1442.774a.122.122,0,0,1-.121-.112,18.74,18.74,0,0,1,6.749-16.044.122.122,0,0,1,.156.188,18.5,18.5,0,0,0-6.662,15.836.122.122,0,0,1-.111.132Z" transform="translate(-580.643 -1426.59)" fill="#8b865c"/><path d="M646.953,1667.38c1.025-.268,2.355,10.386,11.01,22.766,7.981,11.415,16.483,16.135,15.887,16.951-.678.927-12.773-3.657-20.341-14.492C645.6,1681.28,645.815,1667.677,646.953,1667.38Z" transform="translate(-627.566 -1637.985)" fill="#40484c"/></g><g transform="translate(83.228 32.256)"><path d="M1163.829,1532.224a44.1,44.1,0,0,1,14.514,15.223c5.747,10.061,3.619,31.808,3.45,35.872,5.29-.316,14.625-6.5,19.915-6.818-1.055-4-4.153-17.637-2.135-26.343,3.469-14.967,14.336-23.118,17.4-25.261-1.837-1.4-14.521-10.759-31.114-7.1A38.166,38.166,0,0,0,1163.829,1532.224Z" transform="translate(-1154.237 -1494.581)" fill="#776e42"/><path d="M1151.859,1371.926a10.756,10.756,0,0,0-17.41-7.8c0-.148,0-.3,0-.447a5.457,5.457,0,0,0-8.557-4.166,12.915,12.915,0,0,0-25.742,2.07c.007.111.019.22.028.329a7.124,7.124,0,0,0-4.562,6.282c-.236,0-.471-.008-.71.007a10.267,10.267,0,1,0,7.206,18.1,9.256,9.256,0,0,0,15.108,3.137,8.438,8.438,0,0,0,16.347.2,8.584,8.584,0,0,0,10.744-6.807A10.758,10.758,0,0,0,1151.859,1371.926Z" transform="translate(-1085.247 -1346.154)" fill="#9e9569"/><path d="M1138.39,1381.875a8.552,8.552,0,0,1-8.259-6.335,9.378,9.378,0,0,1-15.092-3.172,10.38,10.38,0,0,1-16.914-7.434,8.553,8.553,0,0,1,2.109-6.712,9.8,9.8,0,0,1,6.655-2.667c.163-.01,1.183.011,2.214.034l.472.01c.164-2.738,1.268-6.222,3.86-7.3-.045-.087-.121-.223-.177-.322a1.84,1.84,0,0,1-.252-.522,13.037,13.037,0,0,1,25.963-2.29,5.582,5.582,0,0,1,8.579,4.371c0,.069.006.137.007.2a10.879,10.879,0,1,1,9.841,19.058,8.705,8.705,0,0,1-10.766,6.862,8.556,8.556,0,0,1-7.722,6.2Q1138.648,1381.875,1138.39,1381.875Zm-8.193-6.691a.131.131,0,0,1,.033,0,.122.122,0,0,1,.085.089,8.316,8.316,0,0,0,16.11.2.122.122,0,0,1,.15-.086,8.462,8.462,0,0,0,10.591-6.711.122.122,0,0,1,.084-.1,10.61,10.61,0,0,0,7.466-10.788h0a10.634,10.634,0,0,0-17.212-7.713.122.122,0,0,1-.2-.1c0-.132.005-.285,0-.437a5.335,5.335,0,0,0-8.366-4.073.122.122,0,0,1-.191-.088,12.793,12.793,0,0,0-25.5,2.05,4.586,4.586,0,0,0,.221.417,1.86,1.86,0,0,1,.244.5.122.122,0,0,1-.078.124c-2.435.932-3.675,4.312-3.824,7.248a.118.118,0,0,1-.123.116l-.592-.012c-.757-.017-2.025-.045-2.193-.035a9.565,9.565,0,0,0-6.493,2.592,8.32,8.32,0,0,0-2.041,6.529,10.131,10.131,0,0,0,16.641,7.156.122.122,0,0,1,.192.048,9.134,9.134,0,0,0,14.909,3.1A.122.122,0,0,1,1130.2,1375.184Z" transform="translate(-1096.532 -1333.637)" fill="#8b865c"/><path d="M1272.131,1686.244c-.326,0-.566-.645-1.105-2.1a49.706,49.706,0,0,0-2.568-5.942,40.237,40.237,0,0,0-5.2-7.663.122.122,0,1,1,.185-.159,40.48,40.48,0,0,1,5.237,7.709,49.9,49.9,0,0,1,2.58,5.97,6.232,6.232,0,0,0,.881,1.938s.023-.013.047-.053c.4-.645.272-4.334-.706-7.912a24.861,24.861,0,0,0-3.271-7.173.122.122,0,1,1,.2-.135,25.107,25.107,0,0,1,3.3,7.244c.938,3.432,1.157,7.325.678,8.1a.324.324,0,0,1-.207.164A.26.26,0,0,1,1272.131,1686.244Z" transform="translate(-1241.5 -1629.241)" fill="#9e9569"/><path d="M1392.441,1688.952h-.031c-.866-.08-1.118-3.742-.905-6.129a18.028,18.028,0,0,1,2.348-7.341.122.122,0,0,1,.212.121,17.785,17.785,0,0,0-2.317,7.242c-.274,3.065.233,5.823.684,5.865.282.026.662-1.208,1.032-2.4.236-.761.5-1.624.833-2.516a32.148,32.148,0,0,1,6.685-10.616.122.122,0,0,1,.179.166,31.908,31.908,0,0,0-6.635,10.535c-.327.886-.593,1.745-.829,2.5C1393.2,1687.976,1392.9,1688.952,1392.441,1688.952Z" transform="translate(-1354.06 -1631.698)" fill="#9e9569"/><path d="M1257.37,1569.122a.122.122,0,0,1-.12-.1,8.942,8.942,0,0,1,15.286-7.605.122.122,0,0,1-.177.169,8.7,8.7,0,0,0-14.868,7.4.122.122,0,0,1-.1.14Z" transform="translate(-1236.154 -1531.19)" fill="#8b865c"/><g transform="translate(30.659 20.786)"><path d="M1336.546,1510.787a.119.119,0,0,1-.027,0,.122.122,0,0,1-.092-.146,9.008,9.008,0,0,1,.6-1.778,8.91,8.91,0,0,1,5.884-4.927.122.122,0,1,1,.061.236,8.709,8.709,0,0,0-6.307,6.523A.122.122,0,0,1,1336.546,1510.787Z" transform="translate(-1336.424 -1503.929)" fill="#8b865c"/></g><path d="M1214.959,1498.975a.122.122,0,0,1-.109-.066,7.5,7.5,0,0,1,10.892-9.642.122.122,0,0,1-.138.2,7.259,7.259,0,0,0-10.537,9.329.122.122,0,0,1-.108.178Z" transform="translate(-1198.303 -1469.133)" fill="#8b865c"/><path d="M1447.833,1547.925a.122.122,0,0,1-.113-.17,6.888,6.888,0,0,0-10.055-8.482.122.122,0,1,1-.131-.206,7.134,7.134,0,0,1,10.411,8.782A.122.122,0,0,1,1447.833,1547.925Z" transform="translate(-1394.484 -1513.008)" fill="#8b865c"/><g transform="translate(3.421 30.9)"><path d="M1113.4,1588.716a.122.122,0,0,1-.085-.21,6.085,6.085,0,0,1,1.067-.825,6.246,6.246,0,0,1,5.561-.432.122.122,0,0,1-.089.228,6,6,0,0,0-5.345.413,5.824,5.824,0,0,0-1.024.792A.122.122,0,0,1,1113.4,1588.716Z" transform="translate(-1113.276 -1586.794)" fill="#8b865c"/></g></g><g transform="translate(120.561 73.462)"><path d="M1576.769,2095.794l-.863,2.247,1.019-.64.627.885.846-1.029,1.055,1.114.566-1.136,1.616,1.33-1.021-3.551Z" transform="translate(-1553.349 -2043.286)" fill="#363e44"/><path d="M1441.434,1749.263c0,14.2-9.837,25.8-25,25.8s-25.329-11.475-25.329-25.672c0-12.2,7.266-19.531,18.435-19.909,1.946-.066,5.139,1.134,7.266,1.134,2.477,0,6.031-1.26,8.208-1.134C1435.917,1730.11,1441.434,1737.387,1441.434,1749.263Z" transform="translate(-1391.108 -1722.362)" fill="#efbc73"/><path d="M1600.986,1681.694a.122.122,0,0,1-.117-.088c-.8-2.764.085-6.141,2.705-10.325a.122.122,0,0,1,.207.13c-2.581,4.122-3.457,7.435-2.677,10.128a.122.122,0,0,1-.083.151A.121.121,0,0,1,1600.986,1681.694Z" transform="translate(-1575.016 -1671.223)" fill="#363e44"/></g><g transform="translate(43.66 52.162)"><path d="M815.642,1575.958c12.466-10.259,4.876-31.981-.326-38.668-9.616-12.362-17.766-10.837-24.116-15.709-3.751-2.878-18.085-21.659-26.971-17.888-7.593,3.222.79,23.217,1.913,28.832,1.485,7.428-3.239,20.267,3.389,34.009C776.03,1580.01,800.391,1588.51,815.642,1575.958Z" transform="translate(-761.08 -1502.404)" fill="#8b865c"/><path d="M851.258,1568.038c12.466-10.259,9.63-26.751,4.427-33.439-9.616-12.362-17.766-10.837-24.115-15.709-3.751-2.878-24.554-24.517-33.44-20.746-7.593,3.222,7.259,26.075,8.382,31.69,1.485,7.428-2.608,14.968,1.88,25.939C814.055,1569.621,836.007,1580.589,851.258,1568.038Z" transform="translate(-791.718 -1497.583)" fill="#efbc73"/><path d="M854.908,1572.8a27.8,27.8,0,0,1-6.8-.866c-9.232-2.327-17.586-9.15-20.788-16.978-2.77-6.772-2.279-12.3-1.846-17.171a30.751,30.751,0,0,0-.04-8.791c-.327-1.637-1.855-4.8-3.625-8.463-3.659-7.575-8.213-17-6.568-21.376a3.355,3.355,0,0,1,1.883-1.987c7.377-3.131,22.731,10.937,30.109,17.7,1.558,1.428,2.789,2.555,3.453,3.064a27.217,27.217,0,0,0,7.215,3.591c4.979,1.894,10.622,4.041,16.923,12.14,2.29,2.943,4.658,8.55,4.438,15.459a24.344,24.344,0,0,1-24.352,23.681Zm-35.383-75.841a5.852,5.852,0,0,0-2.306.434,3.12,3.12,0,0,0-1.75,1.848c-1.608,4.275,3.113,14.048,6.559,21.184,1.777,3.678,3.311,6.854,3.644,8.521a30.937,30.937,0,0,1,.044,8.86c-.431,4.847-.919,10.34,1.828,17.057,3.174,7.759,11.461,14.524,20.621,16.834,8.118,2.047,15.95.407,22.055-4.617l.078.094-.078-.094a23.664,23.664,0,0,0,8.795-17.968c.18-5.639-1.542-11.645-4.386-15.3-6.259-8.046-11.868-10.179-16.817-12.062a27.4,27.4,0,0,1-7.276-3.625c-.672-.516-1.906-1.646-3.469-3.078C840.436,1508.966,827.328,1496.956,819.525,1496.956Z" transform="translate(-808.326 -1496.717)" fill="#8b865c"/><path d="M1008.907,1712.348c5.35-3.7,4.761-15.552-.475-22.756-6.688-9.2-21.716-11.854-26.246-6.582-3.847,4.477.157,14.338,4.465,19.854C992.163,1709.922,1003.192,1716.3,1008.907,1712.348Z" transform="translate(-953.837 -1657.915)" fill="#b77250"/></g><g transform="translate(94.89 85.539)"><path d="M1681.869,1791.786q28.424-23.442,30.32-21.461,1.126,1.175-7.084,11.3,17.528-4.056,18.126-2.312.707,2.064-22.3,12.251c10.467-.557,15.139,1.082,15.159,1.823.029,1.1-10.329,3.922-33.357,4.192Z" transform="translate(-1620.707 -1770.171)" fill="#776e42"/><path d="M1229.845,1891.691c-6.572,1.507-50.525,17.189-49.018,23.761s47.9,1.545,54.474.038a12.208,12.208,0,1,0-5.456-23.8Z" transform="translate(-1180.789 -1876.585)" fill="#b77250"/><path d="M1604.861,2046.1a.122.122,0,0,1-.119-.1l-1.319-6.194a.122.122,0,0,1,.239-.051l1.319,6.194a.122.122,0,0,1-.094.145Z" transform="translate(-1551.834 -2006.765)" fill="#363e44"/><path d="M1543.646,1945.6a.122.122,0,0,1-.119-.1l-1.319-6.194a.122.122,0,0,1,.239-.051l1.319,6.194a.122.122,0,0,1-.094.145Z" transform="translate(-1498.09 -1918.53)" fill="#363e44"/><path d="M1451.459,2043.083a.122.122,0,0,1-.119-.1l-1.319-6.194a.122.122,0,1,1,.239-.051l1.319,6.194a.122.122,0,0,1-.094.145Z" transform="translate(-1417.156 -2004.118)" fill="#363e44"/><path d="M1326.015,1995.483a.122.122,0,0,1-.119-.1l-1.319-6.194a.122.122,0,0,1,.239-.051l1.319,6.194a.122.122,0,0,1-.094.145Z" transform="translate(-1307.023 -1962.328)" fill="#363e44"/></g><g transform="translate(90.132 98.958)"><path d="M1658.391,1896.385q31.976-18.3,33.51-16.03.911,1.348-8.891,9.938,17.961-1.037,18.256.783.348,2.154-24.046,8.308c10.411,1.22,14.738,3.624,14.633,4.358-.157,1.091-10.843,2.121-33.586-1.5Z" transform="translate(-1595.228 -1880.104)" fill="#8b865c"/><path d="M1194.143,1944.031c-6.732.374-52.7,8.406-52.328,15.138s46.952,9.616,53.684,9.241a12.208,12.208,0,1,0-1.356-24.379Z" transform="translate(-1141.812 -1936.211)" fill="#d87355"/><path d="M1566.543,2098.031a.122.122,0,0,1-.122-.117l-.253-6.328a.122.122,0,1,1,.244-.01l.253,6.328a.122.122,0,0,1-.117.127Z" transform="translate(-1514.371 -2065.661)" fill="#363e44"/><path d="M1523.188,1988.631a.122.122,0,0,1-.122-.117l-.253-6.328a.122.122,0,1,1,.244-.01l.253,6.328a.122.122,0,0,1-.117.127Z" transform="translate(-1476.308 -1969.615)" fill="#363e44"/><path d="M1415.855,2069.144a.122.122,0,0,1-.122-.117l-.253-6.328a.122.122,0,0,1,.117-.127.124.124,0,0,1,.127.117l.253,6.328a.122.122,0,0,1-.117.127Z" transform="translate(-1382.076 -2040.299)" fill="#363e44"/><path d="M1300.256,2001.032a.122.122,0,0,1-.122-.117l-.253-6.328a.122.122,0,0,1,.244-.01l.253,6.328a.122.122,0,0,1-.117.127Z" transform="translate(-1280.587 -1980.502)" fill="#363e44"/></g><g transform="translate(0 21.719)"><path d="M416.621,1247.313c9.366,4.309,26.934,11.151,29.1,12.122,4.05,1.817,25.535,12.13,24.383,15.391-.55,1.558-4.779-.241-6.191-.891.881,1.087,4.719,4.9,3.67,6.423-1.233,1.794-6.5-2.044-6.62-2.052,1.007,1.013,5.182,4.887,4.44,6.063-.965,1.529-5.93-.909-7.383-1.708.043.282,4.1,4.342,3.468,5.254-.7,1.01-5.382-1.153-7.317-1.838-3.6-1.611-17.927-7.121-25.013-9.467-16.644-5.509-25.31-9.947-25.31-9.947S399.649,1248.093,416.621,1247.313Z" transform="translate(-403.389 -1247.313)" fill="#e2a18d"/><path d="M852.586,1433.106a.121.121,0,0,1-.085-.035,20.158,20.158,0,0,0-6.46-4.216.122.122,0,1,1,.092-.226,20.388,20.388,0,0,1,6.538,4.267.122.122,0,0,1-.085.21Z" transform="translate(-791.944 -1406.49)" fill="#363e44"/><path d="M840.416,1479.787a.122.122,0,0,1-.075-.026c-.154-.12-.313-.24-.472-.357a20.271,20.271,0,0,0-4.342-2.425.122.122,0,0,1,.092-.226,20.517,20.517,0,0,1,4.394,2.454c.161.118.322.24.478.361a.122.122,0,0,1-.075.218Z" transform="translate(-782.713 -1448.74)" fill="#363e44"/><path d="M828.379,1524.806a.121.121,0,0,1-.063-.018,20.4,20.4,0,0,0-2.913-1.468.122.122,0,0,1,.092-.226,20.643,20.643,0,0,1,2.948,1.485.122.122,0,0,1-.064.226Z" transform="translate(-773.825 -1489.424)" fill="#363e44"/><path d="M794.449,1365.76c6.52-1.1,11.319-1.923,11.776-.992.362.738-.282,2.759-5.6,4.928Z" transform="translate(-746.716 -1350.077)" fill="#e2a18d"/><path d="M826.958,1383.945a.121.121,0,0,1-.059-.015c-1.355-.747-2.824-1.531-4.369-2.328a.122.122,0,1,1,.112-.217c1.546.8,3.018,1.583,4.375,2.331a.122.122,0,0,1-.059.229Z" transform="translate(-771.312 -1365.008)" fill="#363e44"/></g></g><g transform="translate(41.121 0)"><ellipse cx="33.806" cy="5.334" rx="33.806" ry="5.334" transform="translate(0 18.679) rotate(-12.415)" fill="#e0aa63"/><g transform="translate(20.82 6.822)"><ellipse cx="2.89" cy="3.396" rx="2.89" ry="3.396" transform="translate(0.389 16.813) rotate(-46.532)" fill="#e2a18d"/><path d="M876.516,870.591a2.413,2.413,0,0,1-2.322-2.1,1.728,1.728,0,0,1,.444-1.4,1.905,1.905,0,0,1,2.31-.251.122.122,0,1,1-.115.215,1.665,1.665,0,0,0-2.018.2,1.487,1.487,0,0,0-.378,1.206,2.1,2.1,0,0,0,.66,1.287,1.847,1.847,0,0,0,2.342.294.122.122,0,1,1,.148.194A1.748,1.748,0,0,1,876.516,870.591Z" transform="translate(-871.367 -851.531)" fill="#363e44"/><path d="M1015.482,823.937a2.928,2.928,0,1,0,3.9-2.154A3.174,3.174,0,0,0,1015.482,823.937Z" transform="translate(-995.196 -812.067)" fill="#e2a18d"/><path d="M1030.459,836.679h-.018a.122.122,0,0,1,0-.244h.017a1.76,1.76,0,0,0,1.57-1.213,1.94,1.94,0,0,0,.031-1.337,1.371,1.371,0,0,0-.8-.85,1.506,1.506,0,0,0-1.642.5.122.122,0,0,1-.183-.162,1.747,1.747,0,0,1,1.911-.564,1.612,1.612,0,0,1,.942,1,2.184,2.184,0,0,1-.033,1.505A2,2,0,0,1,1030.459,836.679Z" transform="translate(-1007.645 -821.802)" fill="#363e44"/><path d="M916.91,894.221h0a6.071,6.071,0,0,1-5.786-6.342l.563-17.216,12.129.556-.563,17.216A6.071,6.071,0,0,1,916.91,894.221Z" transform="translate(-903.795 -855.121)" fill="#e2a18d"/><path d="M908.779,866.215c-9.482,2.255-12.657-13.681-12.657-13.681L913,848.968S917.973,864.029,908.779,866.215Z" transform="translate(-890.629 -836.075)" fill="#84524d"/><circle cx="6.186" cy="6.186" r="6.186" transform="translate(0 6.081) rotate(-16.309)" fill="#84524d"/><path d="M912.772,804.7c1.9,8.438-2.322,4.276-6.813,5.3s-6.941,7.368-9.448-1.578c-1.461-5.212,1.708-8.925,6.2-9.954S911.582,799.419,912.772,804.7Z" transform="translate(-890.655 -791.512)" fill="#e2a18d"/><path d="M1027.9,837.172a.122.122,0,0,1-.122-.115,13.94,13.94,0,0,0-1.3-4.973.122.122,0,1,1,.222-.1,14.183,14.183,0,0,1,1.326,5.06.122.122,0,0,1-.114.129Z" transform="translate(-1005.063 -821.101)" fill="#363e44"/><path d="M895.834,867.373a.122.122,0,0,1-.11-.069,18.156,18.156,0,0,1-1.04-3.111,11.605,11.605,0,0,1-.293-2.4.122.122,0,0,1,.12-.124.124.124,0,0,1,.124.12,11.353,11.353,0,0,0,.287,2.353,18.194,18.194,0,0,0,1.022,3.059.122.122,0,0,1-.11.175Z" transform="translate(-889.11 -847.223)" fill="#363e44"/><path d="M975.712,875.862a.122.122,0,0,1-.1-.2.918.918,0,0,0,.254-.74.773.773,0,0,0-.321-.392,1.687,1.687,0,0,1-.5-.565,1.6,1.6,0,0,1-.156-.848.122.122,0,1,1,.243.017,1.359,1.359,0,0,0,.13.72,1.462,1.462,0,0,0,.434.486.979.979,0,0,1,.4.523,1.138,1.138,0,0,1-.3.947A.122.122,0,0,1,975.712,875.862Z" transform="translate(-959.782 -857.18)" fill="#363e44"/><path d="M955.9,914.4a2.347,2.347,0,0,1-.916-.183,2.381,2.381,0,0,1-.881-.648.122.122,0,1,1,.186-.158,2.136,2.136,0,0,0,.79.581,2.183,2.183,0,0,0,1.38.094.122.122,0,1,1,.061.236A2.5,2.5,0,0,1,955.9,914.4Z" transform="translate(-941.511 -892.613)" fill="#fff"/><path d="M886.2,757.656s4.5-.123,8.105-6.286c0,0,10.4,9.559,14.546-4.908,0,0-3.511,2.351-6.021.056-3.994-3.651-12.393-5.689-14.106,2.653Z" transform="translate(-881.917 -743.343)" fill="#84524d"/><g transform="translate(7.092 12.313)"><g transform="translate(8.448)"><path d="M981.959,844.256h0l-.02,0c0,.043-.016.1-.06.11a1.267,1.267,0,0,0-.058.25c-.036.131-.237.068-.2-.063.024-.088-.221.126-.333.2-.356.239-.722.462-1.1.674-.174.1-.348.2-.525.292a5.013,5.013,0,0,1-.651.332,5.237,5.237,0,0,0-.583,1.088,5.388,5.388,0,0,0,1.761-.008c0-.013,0-.026,0-.04a8.219,8.219,0,0,1,2.134-1.06,1.067,1.067,0,1,0-.367-1.778Z" transform="translate(-978.432 -844.218)" fill="#fff"/><path d="M984.594,845.035a4.3,4.3,0,0,0-1.377,1.307,1.744,1.744,0,0,0,1.147,1.086,4.029,4.029,0,0,0,1.33-.457,3.83,3.83,0,0,0,.819-.636,1.752,1.752,0,0,0-.374-1.788A4.145,4.145,0,0,0,984.594,845.035Z" transform="translate(-982.633 -844.507)" fill="#363e44"/></g><g transform="translate(0 2.379)"><path d="M910.556,865.687h0l.019-.007c.02.038.059.084.1.073a1.278,1.278,0,0,1,.161.2c.089.1.243-.042.154-.145-.06-.069.254.018.387.037.425.061.851.1,1.279.131.2.013.4.028.6.034a5.024,5.024,0,0,0,.73.016,5.232,5.232,0,0,1,1,.726,5.386,5.386,0,0,1-1.589.758c-.006-.012-.011-.024-.017-.036a8.212,8.212,0,0,0-2.383-.027,1.067,1.067,0,1,1-.442-1.761Z" transform="translate(-909.222 -865.44)" fill="#fff"/><path d="M921.329,863.716a4.3,4.3,0,0,1,1.808.579,1.745,1.745,0,0,1-.561,1.477,4.031,4.031,0,0,1-1.4.167,3.838,3.838,0,0,1-1.014-.217,1.752,1.752,0,0,1-.44-1.773A4.146,4.146,0,0,1,921.329,863.716Z" transform="translate(-918.372 -863.709)" fill="#363e44"/></g></g></g><g transform="translate(1.127)"><path d="M879.544,697.514c-6.737-9.342-8.332-10.306-10.1-10.017-1.454.237-1.393,2.837-3.332,3.227s-3.272-1.894-5.057-1.589c-1.486.254-3.064,3.054-3.708,13.677Z" transform="translate(-836.891 -687.455)" fill="#efbc73"/><path d="M877.088,751.67l-20.6,4.554-.307,2.51,22.492-5.026Z" transform="translate(-835.871 -743.832)" fill="#363e44"/><path d="M722.606,757.436a294.41,294.41,0,0,1,33.165-5.589c-1.256-2.646-16.27-1.678-34.1,2.246-17.926,3.946-32.019,9.412-31.888,12.329A291.594,291.594,0,0,1,722.606,757.436Z" transform="translate(-689.788 -742.682)" fill="#efbc73"/></g></g></g><g transform="translate(439.392 339.342)"><path d="M1190.25,385.072l.048-.01a18.609,18.609,0,0,0,14.529-14.49h0l.01.048a18.61,18.61,0,0,0,14.49,14.529h0l-.048.01a18.609,18.609,0,0,0-14.529,14.49h0l-.01-.048a18.61,18.61,0,0,0-14.49-14.529Z" transform="translate(-1190.25 -370.572)" fill="#fff"/><path d="M1351.808,674.1l.023,0a9.115,9.115,0,0,0,7.117-7.1h0l0,.024a9.116,9.116,0,0,0,7.1,7.117h0l-.023,0a9.115,9.115,0,0,0-7.117,7.1h0l0-.023a9.116,9.116,0,0,0-7.1-7.117Z" transform="translate(-1332.088 -630.818)" fill="#fff"/></g><g transform="translate(473.66 335.763)"><g transform="translate(0 13.107)"><path d="M1495.651,448.629a24.657,24.657,0,1,0,24.657,24.657A24.657,24.657,0,0,0,1495.651,448.629Zm-.04,45.619a20.762,20.762,0,1,1,20.762-20.762A20.762,20.762,0,0,1,1495.611,494.248Z" transform="translate(-1470.994 -448.629)" fill="#d87355"/></g><g transform="translate(7.52 0)"><rect width="4.935" height="3.023" transform="translate(1.93 1.172)" fill="#a8a073"/><rect width="23.934" height="44.167" transform="translate(4.891 15.175)" fill="#efbc73"/><path d="M1596.613,425.937a42.112,42.112,0,0,1-23.934,0l6.292-5.511,11.268.041Z" transform="translate(-1567.787 -410.762)" fill="#efbc73"/><rect width="9.623" height="7.587" transform="translate(11.985 2.282)" fill="#a8a073"/><path d="M1534.074,371.8l-1.469-1.136c4.709-2.3,6.915-5.844,6.925-10.211l3.076,2.355C1542.1,367.053,1538.792,369.952,1534.074,371.8Z" transform="translate(-1532.605 -358.108)" fill="#a8a073"/><rect width="18.691" height="5.428" transform="translate(4.213)" fill="#a8a073"/><rect width="11.35" height="2.498" transform="translate(11.183 7.927)" fill="#e0aa63"/></g><g transform="translate(9.952 20.319)"><g transform="translate(3.701)"><path d="M1603.844,517.716c0,4.915-4.7,8.9-10.5,8.9s-10.5-3.984-10.5-8.9,4.608-9.995,10.405-9.995S1603.844,512.8,1603.844,517.716Z" transform="translate(-1582.851 -507.721)" fill="#363e44"/><circle cx="2.008" cy="2.008" r="2.008" transform="translate(3.974 10.438) rotate(-76.717)" fill="#fff"/><circle cx="2.008" cy="2.008" r="2.008" transform="translate(11.764 9.128) rotate(-45)" fill="#fff"/><path d="M1636.816,650.382c.269-.009.269-.023.538-.04v1.222c.269-.038.807-.093,1.346-.165v-1.3c0-.042.269-.088.538-.138v1.349c.269-.081,1.092-.234,1.6-.342l.081-2.889h-9.484v2.856c.538.16,1.076.287,1.346.389v-1.4c.269.052.538.1.538.144v1.361c.807.081,1.076.135,1.615.165v-1.27a2.744,2.744,0,0,0,.538.046v1.247c.538.011.807,0,1.346-.02Z" transform="translate(-1625.504 -630.952)" fill="#363e44"/></g><g transform="translate(2.078 16.107)"><path d="M1770.39,641.494c-.479.531-1.112.669-1.415.309a1.345,1.345,0,0,1,.318-1.614c.479-.531,1.112-.669,1.415-.309A1.346,1.346,0,0,1,1770.39,641.494Z" transform="translate(-1744.492 -639.68)" fill="#363e44"/><ellipse cx="1.161" cy="0.941" rx="1.161" ry="0.941" transform="matrix(0.961, -0.278, 0.278, 0.961, 24.306, 1.84)" fill="#363e44"/><path d="M1577.933,753.8c.233-.676.762-1.051,1.182-.838a1.345,1.345,0,0,1,.338,1.609c-.233.676-.762,1.051-1.182.838A1.345,1.345,0,0,1,1577.933,753.8Z" transform="translate(-1576.814 -739.081)" fill="#363e44"/><path d="M1570.3,746.649a.935.935,0,0,1,1.358.389,1.214,1.214,0,0,1-.7,1.41.935.935,0,0,1-1.358-.389A1.214,1.214,0,0,1,1570.3,746.649Z" transform="translate(-1569.549 -733.474)" fill="#363e44"/><rect width="1.253" height="26.773" transform="translate(25.355 1.143) rotate(62.518)" fill="#363e44"/></g><g transform="translate(0 18.872)"><path d="M1765.248,745.88c-.715-.014-1.234-.4-1.161-.867s.713-.831,1.428-.817,1.234.4,1.161.867S1765.963,745.894,1765.248,745.88Z" transform="translate(-1738.259 -734.203)" fill="#363e44"/><ellipse cx="0.941" cy="1.161" rx="0.941" ry="1.161" transform="translate(24.904 12.07) rotate(-57.029)" fill="#363e44"/><path d="M1553.541,672.859c.663-.266,1.293-.112,1.407.345s-.332,1.043-1,1.31-1.293.112-1.407-.345S1552.877,673.125,1553.541,672.859Z" transform="translate(-1552.528 -671.459)" fill="#363e44"/><path d="M1556.737,662.441a.935.935,0,0,1,.6,1.281,1.214,1.214,0,0,1-1.522.4.935.935,0,0,1-.6-1.281A1.214,1.214,0,0,1,1556.737,662.441Z" transform="translate(-1554.802 -662.331)" fill="#363e44"/><rect width="1.253" height="26.773" transform="translate(27.142 10.827) rotate(111.611)" fill="#363e44"/></g></g><path d="M1537.8,756.121a20.755,20.755,0,0,1-33.017,0h-4.539a24.665,24.665,0,0,0,42.174,0Z" transform="translate(-1496.671 -705.482)" fill="#d87355"/><rect width="3.373" height="44.881" transform="translate(40.451 20.557) rotate(41.051)" fill="#d87355"/></g></g></g></svg>