<svg xmlns="http://www.w3.org/2000/svg" width="85" height="85" viewBox="0 0 85 85">
  <g id="Grupo_86284" data-name="Grupo 86284" transform="translate(-632 -749)">
    <circle id="Elipse_4853" data-name="Elipse 4853" cx="42.5" cy="42.5" r="42.5" transform="translate(632 749)" fill="#0b481e"/>
    <path id="Trazado_122711" data-name="Trazado 122711" d="M-9.167-12.981v2.329H-9.3a4.447,4.447,0,0,0-2.729.8,3.358,3.358,0,0,0-1.314,2.21,3.464,3.464,0,0,1,2.531-.984A3.231,3.231,0,0,1-8.165-7.418a4.892,4.892,0,0,1,.984,3.182A4.48,4.48,0,0,1-7.756-2,4.108,4.108,0,0,1-9.365-.4a4.622,4.622,0,0,1-2.29.576,4.777,4.777,0,0,1-2.435-.62,4.26,4.26,0,0,1-1.67-1.771,5.832,5.832,0,0,1-.615-2.654V-6.056a7.387,7.387,0,0,1,.848-3.555A6.149,6.149,0,0,1-13.1-12.085a6.923,6.923,0,0,1,3.489-.9Zm-2.672,6.618a1.7,1.7,0,0,0-.984.272,1.73,1.73,0,0,0-.589.668v.888q0,2.426,1.679,2.426A1.362,1.362,0,0,0-10.6-2.716a2.472,2.472,0,0,0,.453-1.521,2.426,2.426,0,0,0-.461-1.534A1.476,1.476,0,0,0-11.839-6.363ZM-.062-4.948a3.128,3.128,0,0,1-2.145.861,3.463,3.463,0,0,1-2.76-1.178,4.64,4.64,0,0,1-1.02-3.146A4.722,4.722,0,0,1-5.414-10.7a4.287,4.287,0,0,1,1.6-1.67,4.373,4.373,0,0,1,2.281-.615,4.245,4.245,0,0,1,2.29.637,4.29,4.29,0,0,1,1.6,1.8,6.189,6.189,0,0,1,.589,2.685v1.134A7.693,7.693,0,0,1,2.114-3.05,5.734,5.734,0,0,1-.255-.659,7.4,7.4,0,0,1-3.841.176h-.185V-2.2l.563-.009Q-.4-2.355-.062-4.948ZM-1.406-6.223A1.442,1.442,0,0,0-.018-7.058v-1.23a3.2,3.2,0,0,0-.413-1.819A1.3,1.3,0,0,0-1.547-10.7a1.225,1.225,0,0,0-1.046.668,2.968,2.968,0,0,0-.422,1.617,2.661,2.661,0,0,0,.431,1.6A1.378,1.378,0,0,0-1.406-6.223Zm5.941-4.113a2.512,2.512,0,0,1,.773-1.916,2.9,2.9,0,0,1,2.074-.729,2.9,2.9,0,0,1,2.083.725,2.578,2.578,0,0,1,.765,1.964v.633a2.5,2.5,0,0,1-.765,1.907A2.889,2.889,0,0,1,7.4-7.031a2.968,2.968,0,0,1-2.079-.716,2.524,2.524,0,0,1-.787-1.964Zm1.907.675a1.062,1.062,0,0,0,.255.738.9.9,0,0,0,.7.284q.923,0,.923-1.17v-.524a1.12,1.12,0,0,0-.246-.747.857.857,0,0,0-.694-.293.876.876,0,0,0-.686.284,1.114,1.114,0,0,0-.255.773Zm4.175,6.524A2.487,2.487,0,0,1,11.4-5.054a2.924,2.924,0,0,1,2.07-.721,2.956,2.956,0,0,1,2.083.712,2.565,2.565,0,0,1,.773,1.986v.615a2.509,2.509,0,0,1-.765,1.916,2.9,2.9,0,0,1-2.074.721A2.968,2.968,0,0,1,11.4-.541,2.524,2.524,0,0,1,10.617-2.5Zm1.9.675a1.039,1.039,0,0,0,.281.72.891.891,0,0,0,.686.31.808.808,0,0,0,.923-.8l.009-.9a1.075,1.075,0,0,0-.255-.747.886.886,0,0,0-.694-.284.893.893,0,0,0-.677.266,1.061,1.061,0,0,0-.272.72ZM7.963-.958l-1.38-.694,6.249-10,1.38.694Z" transform="translate(675 798)" fill="#fff"/>
  </g>
</svg>
