<svg xmlns="http://www.w3.org/2000/svg" xmlns:xlink="http://www.w3.org/1999/xlink" width="81" height="81" viewBox="0 0 81 81">
  <defs>
    <clipPath id="clip-path">
      <rect id="Rectángulo_34606" data-name="Rectángulo 34606" width="81" height="81" transform="translate(323 10280)" fill="#01f6ff" stroke="#707070" stroke-width="1"/>
    </clipPath>
  </defs>
  <g id="Enmascarar_grupo_135" data-name="Enmascarar grupo 135" transform="translate(-323 -10280)" clip-path="url(#clip-path)">
    <g id="alimentos-organicos" transform="translate(323 10280)">
      <g id="Grupo_85353" data-name="Grupo 85353">
        <g id="Grupo_85352" data-name="Grupo 85352">
          <ellipse id="Elipse_5038" data-name="Elipse 5038" cx="9.822" cy="9.82" rx="9.822" ry="9.82" transform="matrix(0.945, -0.328, 0.328, 0.945, 39.555, 33.5)" fill="#82b339"/>
          <g id="Grupo_85341" data-name="Grupo 85341">
            <ellipse id="Elipse_5039" data-name="Elipse 5039" cx="9.669" cy="9.667" rx="9.669" ry="9.667" transform="translate(41.289 17.299)" fill="#fc435f"/>
            <path id="Trazado_120815" data-name="Trazado 120815" d="M60.552,25.757a9.674,9.674,0,0,0-12.758-7.927,9.667,9.667,0,0,1,0,18.271A9.67,9.67,0,0,0,60.552,25.757Z" fill="#eb2f4b"/>
            <path id="Trazado_120816" data-name="Trazado 120816" d="M46.493,19.749l-2.576-4.207,4.468,1.683L53.4,15.377l-2.342,3.8,2.368,2.886L48.961,21.8l-3.882,2.962Z" fill="#aad667"/>
          </g>
          <g id="Grupo_85343" data-name="Grupo 85343">
            <path id="Trazado_120817" data-name="Trazado 120817" d="M23.684,9.134a8.613,8.613,0,0,0-6.5,5.694,8.639,8.639,0,1,0,1.655,8.444A8.627,8.627,0,1,0,23.684,9.134Z" fill="#82b339"/>
            <path id="Trazado_120818" data-name="Trazado 120818" d="M27.138,16.54a8.843,8.843,0,0,0-1.48.429,8.816,8.816,0,0,0-15.886,3.1,8.837,8.837,0,1,0,1.865,17.522L13.4,46.585A9.631,9.631,0,1,0,32.3,42.88l-1.762-8.99a8.84,8.84,0,0,0-3.4-17.349Z" fill="#aad667"/>
            <g id="Grupo_85342" data-name="Grupo 85342">
              <path id="Trazado_120819" data-name="Trazado 120819" d="M37.5,23.518a8.812,8.812,0,0,0-11.827-6.553A8.842,8.842,0,0,1,24.211,33.89l1.762,8.99a9.644,9.644,0,0,1-6.28,10.965A9.625,9.625,0,0,0,32.3,42.88l-1.762-8.99A8.831,8.831,0,0,0,37.5,23.518Z" fill="#99c94f"/>
              <path id="Trazado_120820" data-name="Trazado 120820" d="M19.33,16.969a8.783,8.783,0,0,1,6.32-.012,8.815,8.815,0,0,0-10.431-3.234A8.873,8.873,0,0,1,19.33,16.969Z" fill="#99c94f"/>
            </g>
          </g>
          <g id="Grupo_85346" data-name="Grupo 85346">
            <path id="Trazado_120821" data-name="Trazado 120821" d="M77.847,8.05a3.071,3.071,0,0,0-1.179-.209c.019-.044.038-.088.056-.134A4.785,4.785,0,0,0,69.086,2.4a3.079,3.079,0,0,0-5.053,3.5,4.785,4.785,0,0,0,2.6,9.158L63.63,29.863l4.162.807,2.8-13.722a3.079,3.079,0,0,0,5.156-3.113,3.079,3.079,0,0,0,2.1-5.785Z" fill="#aad667"/>
            <g id="Grupo_85344" data-name="Grupo 85344">
              <path id="Trazado_120822" data-name="Trazado 120822" d="M67.67,1.514a4.775,4.775,0,0,1,1.344.8,3.07,3.07,0,0,0-2.453-1.078A4.786,4.786,0,0,1,67.67,1.514Z" fill="#aad667" stroke="#99c94f" stroke-miterlimit="10" stroke-width="0.158"/>
              <path id="Trazado_120823" data-name="Trazado 120823" d="M77.847,8.05a3.068,3.068,0,0,0-1.179-.209c.019-.044.038-.088.056-.134A4.785,4.785,0,0,0,69.1,2.384,4.786,4.786,0,0,1,70.4,7.708c-.018.045-.037.089-.056.134a3.079,3.079,0,1,1-.925,5.994,3.076,3.076,0,0,1-3.354,4.05L63.63,29.863l4.162.807,2.8-13.722a3.079,3.079,0,0,0,5.156-3.113,3.079,3.079,0,0,0,2.1-5.785Z" fill="#99c94f"/>
            </g>
            <g id="Grupo_85345" data-name="Grupo 85345">
              <path id="Trazado_120824" data-name="Trazado 120824" d="M72.631,33.535c.28,7.243-8.583,26.857-12.594,26.079s-5.022-22.306-1.93-28.895a7.553,7.553,0,0,1,14.523,2.816Z" fill="#fd9e35"/>
              <path id="Trazado_120825" data-name="Trazado 120825" d="M72.631,33.535a7.434,7.434,0,0,0-6.114-7.325,7.283,7.283,0,0,0-4.61.529,7.505,7.505,0,0,1,4.4,6.8c.2,5.263-4.42,17.056-8.5,22.812.586,1.866,1.335,3.092,2.237,3.267,4.011.778,12.874-18.836,12.594-26.079Z" fill="#fd8500"/>
              <path id="Trazado_120826" data-name="Trazado 120826" d="M56.38,44.043l4.725.916" fill="#fd9e35"/>
            </g>
          </g>
          <g id="Grupo_85347" data-name="Grupo 85347">
            <ellipse id="Elipse_5040" data-name="Elipse 5040" cx="9.822" cy="9.82" rx="9.822" ry="9.82" transform="matrix(0.945, -0.328, 0.328, 0.945, 25.313, 33.501)" fill="#fc435f"/>
            <path id="Trazado_120827" data-name="Trazado 120827" d="M39.539,29.887a9.773,9.773,0,0,0-4.9.368,9.817,9.817,0,0,1,0,18.588,9.818,9.818,0,1,0,4.908-18.955Z" fill="#eb2f4b"/>
            <path id="Trazado_120828" data-name="Trazado 120828" d="M36.284,30.889,35.046,25.95l3.88,3.035,5.5-.273-3.479,3.017L42.393,35.3l-4.311-1.632-4.738,1.72Z" fill="#aad667"/>
          </g>
          <g id="Grupo_85351" data-name="Grupo 85351">
            <path id="Trazado_120829" data-name="Trazado 120829" d="M1.187,36.883H14.237v42.93H1.187Z" fill="#8f5a46"/>
            <path id="Trazado_120830" data-name="Trazado 120830" d="M66.761,36.883H79.811v42.93H66.761Z" fill="#8f5a46"/>
            <g id="Grupo_85348" data-name="Grupo 85348">
              <path id="Trazado_120831" data-name="Trazado 120831" d="M1.187,43.114H79.811V53.63H1.187Z" fill="#e8b266"/>
              <path id="Trazado_120832" data-name="Trazado 120832" d="M73.484,43.114h6.328V53.63H73.484Z" fill="#d9a359"/>
              <path id="Trazado_120833" data-name="Trazado 120833" d="M1.187,53.634H79.811V64.15H1.187Z" fill="#ffdeb0"/>
              <path id="Trazado_120834" data-name="Trazado 120834" d="M73.484,53.634h6.328V64.15H73.484Z" fill="#f7c783"/>
              <path id="Trazado_120835" data-name="Trazado 120835" d="M1.187,64.15H79.811V74.666H1.187Z" fill="#e8b266"/>
              <path id="Trazado_120836" data-name="Trazado 120836" d="M73.484,64.15h6.328V74.666H73.484Z" fill="#d9a359"/>
            </g>
            <g id="Grupo_85350" data-name="Grupo 85350">
              <g id="Grupo_85349" data-name="Grupo 85349">
                <path id="Trazado_120837" data-name="Trazado 120837" fill="#8f5a46"/>
              </g>
            </g>
          </g>
        </g>
      </g>
      <g id="Grupo_85354" data-name="Grupo 85354">
        <path id="Trazado_120838" data-name="Trazado 120838" d="M79.811,35.7H73.7a13.846,13.846,0,0,0,.118-2.207,8.75,8.75,0,0,0-3.923-7.195l1.515-7.434a4.264,4.264,0,0,0,5.677-3.688,4.267,4.267,0,0,0,1.191-8.229L78.165,6.9A5.974,5.974,0,0,0,69.182.859a4.267,4.267,0,0,0-6.649,4.482,5.971,5.971,0,0,0,2.644,10.939L63.406,25a7.939,7.939,0,0,0-1.69.511,10.919,10.919,0,0,0-7.657-8.951L54.406,16a1.2,1.2,0,0,0-1.42-1.736l-4.6,1.694-4.054-1.527a1.2,1.2,0,0,0-1.43,1.73l1.376,2.248a10.937,10.937,0,0,0-4.149,9.328l-.823.041-.671-.525a10.033,10.033,0,0,0-3.487-9.814,9.91,9.91,0,0,0-.181-1.715,9.8,9.8,0,0,0-17.685-3.714,9.361,9.361,0,0,0-1.295.23A9.805,9.805,0,0,0,1.049,22.375a9.934,9.934,0,0,0,.377,1.381A10.025,10.025,0,0,0,2.654,35.7H1.187A1.186,1.186,0,0,0,0,36.883v42.93A1.186,1.186,0,0,0,1.187,81H14.237a1.186,1.186,0,0,0,1.186-1.186v-3.96h50.15v3.96A1.186,1.186,0,0,0,66.761,81H79.811A1.186,1.186,0,0,0,81,79.813V36.883A1.186,1.186,0,0,0,79.811,35.7ZM78.625,73.48H2.373V65.337H78.625ZM2.373,44.3H78.625v8.143H2.373ZM29.3,38.019a8.619,8.619,0,0,1,5.09-6.4L32.351,34.74a1.209,1.209,0,0,0,1.4,1.764l4.324-1.57,3.9,1.476q1.776.217,1.52-1.553l-1.041-2.581a8.683,8.683,0,0,1,3.642,9.65H29.5A8.622,8.622,0,0,1,29.3,38.019Zm25.825,3.909H48.541a11.43,11.43,0,0,0,.091-4.36,11.014,11.014,0,0,0,6.827-.724c-.179,1.553-.292,3.262-.332,5.084Zm23.5,21.037H2.373V54.821H78.625Zm0-21.037H67.947V38.07H78.625Zm-7.179-8.346a12.115,12.115,0,0,1-.139,2.116H66.761a1.186,1.186,0,0,0-1.186,1.186v5.044H57.5c.036-1.552.127-3.022.266-4.368l3.549.688a1.188,1.188,0,0,0,.452-2.33L58.083,35.2a16.132,16.132,0,0,1,1.1-3.98,6.386,6.386,0,0,1,7.109-3.849A6.265,6.265,0,0,1,71.446,33.581ZM64.491,13.694A3.636,3.636,0,0,1,64.47,7a1.186,1.186,0,0,0,.58-1.713,1.9,1.9,0,0,1,3.1-2.15,1.186,1.186,0,0,0,1.717.152,3.621,3.621,0,0,1,5.744,4,1.2,1.2,0,0,0,1.076,1.747A1.987,1.987,0,0,1,78.5,11.6a1.888,1.888,0,0,1-2.371,1.106q-1.695-.182-1.5,1.512a1.911,1.911,0,0,1-3.169,1.914q-1.364-.948-2.028.575L67.68,25.279a9.614,9.614,0,0,0-1.834-.366L67.8,15.287a1.186,1.186,0,0,0-1.372-1.4,3.6,3.6,0,0,1-1.936-.189ZM47.967,18.335a1.185,1.185,0,0,0,.828,0l1.787-.659-.538.873a1.187,1.187,0,0,0,.093,1.376l.649.79-1.754-.1a1.184,1.184,0,0,0-.789.241l-1.055.805.449-1.59a1.186,1.186,0,0,0-.13-.942l-.771-1.259ZM44.9,21.022l-.964,3.418A1.2,1.2,0,0,0,45.8,25.705l3.532-2.7,4.02.235a1.2,1.2,0,0,0,.986-1.937l-1.831-2.231.247-.4a8.474,8.474,0,0,1,6.686,8.289,10.1,10.1,0,0,0-2.407,3.25,16.469,16.469,0,0,0-1.108,3.624,8.481,8.481,0,0,1-8.179.977,10.935,10.935,0,0,0-3.617-4.272l1.079-.936a1.2,1.2,0,0,0-.836-2.081l-1.87.093a8.4,8.4,0,0,1,2.4-6.6Zm-3.844,9.045-.882.765a1.187,1.187,0,0,0-.323,1.34l.427,1.059L38.5,32.56a1.186,1.186,0,0,0-.825-.006l-1.394.506.995-1.523a1.187,1.187,0,0,0,.158-.937l-.4-1.586,1.158.906a1.2,1.2,0,0,0,.79.251ZM23.912,10.3a7.44,7.44,0,0,1,8.672,5.62,9.922,9.922,0,0,0-5.674-.543c-.274.054-.548.12-.82.2A10.015,10.015,0,0,0,20.3,12.137,7.433,7.433,0,0,1,23.912,10.3ZM4.5,16.327a7.424,7.424,0,0,1,8.615-2.876,10.017,10.017,0,0,0-4.271,5.5q-.386.045-.763.118a9.934,9.934,0,0,0-4.778,2.4,7.4,7.4,0,0,1,1.2-5.136ZM6.314,35.6A7.646,7.646,0,0,1,9.805,21.256a1.187,1.187,0,0,0,1.126-.931A7.629,7.629,0,0,1,24.68,17.641a1.187,1.187,0,0,0,1.4.435,7.724,7.724,0,0,1,1.282-.372,7.644,7.644,0,0,1,8.965,6.041,7.678,7.678,0,0,1,.136,1.809l-.69-.54A1.2,1.2,0,0,0,33.9,26.238l.7,2.781a11.01,11.01,0,0,0-7.541,12.907h-3.5l-.682-3.479a7.118,7.118,0,0,0,3.428-2.718,1.187,1.187,0,0,0-1.971-1.322A4.774,4.774,0,0,1,22.4,36.072l-.99-5.053a10.253,10.253,0,0,0,5.438-4.088,1.187,1.187,0,0,0-1.971-1.322,7.9,7.9,0,0,1-3.927,3.064l-1.129-5.76a1.187,1.187,0,0,0-2.329.456l1.129,5.76a7.9,7.9,0,0,1-4.793-1.354A1.187,1.187,0,0,0,12.5,29.742a10.263,10.263,0,0,0,5.753,1.769c.275,0,.55-.014.826-.036l.99,5.053a4.773,4.773,0,0,1-2.409-.814,1.187,1.187,0,0,0-1.326,1.968,7.162,7.162,0,0,0,4.2,1.222l.592,3.022H15.424V36.883A1.186,1.186,0,0,0,14.237,35.7H6.462a1.229,1.229,0,0,0-.148-.1Zm6.737,2.472v3.857H2.373V38.07Zm0,40.557H2.373V75.853H13.051Zm54.9,0V75.853H78.625v2.774Z" fill="#060606"/>
        <path id="Trazado_120839" data-name="Trazado 120839" d="M7.712,47.185a1.187,1.187,0,0,0,0,2.373A1.187,1.187,0,0,0,7.712,47.185Z" fill="#060606"/>
        <path id="Trazado_120840" data-name="Trazado 120840" d="M7.712,60.079a1.187,1.187,0,0,0,0-2.373A1.187,1.187,0,0,0,7.712,60.079Z" fill="#060606"/>
        <path id="Trazado_120841" data-name="Trazado 120841" d="M7.712,70.609a1.187,1.187,0,0,0,0-2.373A1.187,1.187,0,0,0,7.712,70.609Z" fill="#060606"/>
        <path id="Trazado_120842" data-name="Trazado 120842" d="M73.006,47.185a1.187,1.187,0,0,0,0,2.373A1.187,1.187,0,0,0,73.006,47.185Z" fill="#060606"/>
        <path id="Trazado_120843" data-name="Trazado 120843" d="M73.006,60.079a1.187,1.187,0,0,0,0-2.373A1.187,1.187,0,0,0,73.006,60.079Z" fill="#060606"/>
        <path id="Trazado_120844" data-name="Trazado 120844" d="M73.006,70.609a1.187,1.187,0,0,0,0-2.373A1.187,1.187,0,0,0,73.006,70.609Z" fill="#060606"/>
      </g>
    </g>
  </g>
</svg>
