<svg xmlns="http://www.w3.org/2000/svg" xmlns:xlink="http://www.w3.org/1999/xlink" width="223" height="223" viewBox="0 0 223 223">
  <defs>
    <clipPath id="clip-path">
      <path id="Trazado_118237" data-name="Trazado 118237" d="M686.136,672.628a3.812,3.812,0,0,1,5,1.1,3.812,3.812,0,0,1-5-1.1Z" transform="translate(-686.136 -672.141)" fill="none"/>
    </clipPath>
  </defs>
  <g id="Herbicide_ban" data-name="Herbicide ban" transform="translate(-335 -335)">
    <circle id="Elipse_4864" data-name="Elipse 4864" cx="111.5" cy="111.5" r="111.5" transform="translate(335 335)" fill="#f2e6dc"/>
    <g id="Grupo_84528" data-name="Grupo 84528" transform="translate(527.447 409.557)">
      <path id="Trazado_118173" data-name="Trazado 118173" d="M2041.24,1153.356h-1.912l.376-69.66h1.16Z" transform="translate(-2024.089 -1067.018)" fill="#d3bba3"/>
      <g id="Grupo_84527" data-name="Grupo 84527" transform="translate(0)">
        <path id="Trazado_118174" data-name="Trazado 118174" d="M2047.93,1080.764l2.018.569,1.624-1.08,8.681,12.146Z" transform="translate(-2031.643 -1063.995)" fill="#d3bba3"/>
        <path id="Trazado_118175" data-name="Trazado 118175" d="M2029.8,963.6l-.7-1.979-1.818-.707,4.945-14.087Z" transform="translate(-2013.511 -946.832)" fill="#d3bba3"/>
        <path id="Trazado_118176" data-name="Trazado 118176" d="M1930.594,1084.016l-1.527,1.437.09,1.948-14.882,1.189Z" transform="translate(-1914.275 -1067.299)" fill="#d3bba3"/>
      </g>
    </g>
    <g id="Grupo_84530" data-name="Grupo 84530" transform="translate(359.965 341.808)">
      <path id="Trazado_118177" data-name="Trazado 118177" d="M725.692,483.756s4.911,33.228-2.615,45.92a86.029,86.029,0,0,1-153.469-76.83c4.318-10.376,25.63-16.824,25.63-16.824s7.112-23.012,15.622-27.236A86.149,86.149,0,0,1,692,411.341c4.4,2.541,9.471,12.69,9.471,12.69s8.757,1.267,11.38,4.168a86.167,86.167,0,0,1,13.787,20.526C732.1,460.114,725.692,483.756,725.692,483.756Z" transform="translate(-560.217 -398.768)" fill="#f7f1eb"/>
      <path id="Trazado_118178" data-name="Trazado 118178" d="M682.387,492.564c-2.462,1.483-1.121,5.339-3.575,6.722-4.208,2.371-15.466-4.85-14.808-10.257.712-5.853,15.5-10.534,20.858-6.01,3.45,2.912,1.609,8.471,4.949,9.9,2.832,1.21,7.778-1.238,8.838-4.949,1.4-4.9-4.781-9.193-5.3-9.545-6.252-4.22-14.861-1.91-18.029-1.061-6.844,1.836-8.4,4.528-11.666,3.535-3.45-1.048-4.162-4.793-5.406-7.788A86.318,86.318,0,0,0,617,517.168c3.07,4.353,10.553,4.87,13.07,12.516,1.324,4.021.4,7.362,3.182,9.545,2.833,2.223,5.86.383,8.131,2.828,1.347,1.45.814,2.671,1.768,7.778.92,4.927,1.381,7.391,2.828,8.838,4.174,4.172,14.44.985,14.495-.707.036-1.121-4.429-.787-6.01-3.889-1.649-3.235,1.879-6.2.354-9.192-1.674-3.282-6.919-1.676-8.485-4.6-1.616-3.014-4.751-1.888.145-4.512,7.182-3.849,24.539,8.385,31.68,5.509,8.887-3.578.29-29.549,10.951-34.582,5.376-2.538,9.508-.706,10.252-2.828C700.764,499.863,687.274,489.622,682.387,492.564Z" transform="translate(-607.598 -463.089)" fill="#e6d0be"/>
      <path id="Trazado_118179" data-name="Trazado 118179" d="M989.674,1115.5a21.407,21.407,0,0,1,13.1-.452,22.516,22.516,0,0,1,9.207,4.44c5.8,4.773,4.093,8.728,8.972,11.963,5.274,3.5,11.064,1.394,11.963,4.112.487,1.472-1.192,2.146-2.617,5.607-2.529,6.142.058,10.576-2.617,12.336-1.461.962-4.486,1.122-4.486,1.122a17.828,17.828,0,0,1-.747,6.355c-.711,1.928-1.473,1.866-3.365,4.486-2.65,3.669-1.918,4.846-3.846,7.257-2.882,3.606-5.639,2.377-7.369,4.83-3.65,5.175,5.76,14.687,2.991,17.944-2.1,2.467-10.693.769-14.455-4.486-2.653-3.706-.693-6.1-2.243-15.2a77.639,77.639,0,0,0-4.984-16.449c-2.842-6.8-4.985-9.319-4.193-13.656.682-3.733,2.713-4.288,2.448-7.029-.5-5.219-8.1-5.66-8.972-10.467S984.1,1117.682,989.674,1115.5Z" transform="translate(-924.944 -1026.079)" fill="#e6d0be"/>
      <path id="Trazado_118180" data-name="Trazado 118180" d="M1574.024,779.306c-11.974-2.879-15.084-3.74-20.289-2.314-4.5,1.233-8.116,3.54-15.347,8.153-6.895,4.4-8.109,6.273-8.633,7.194-2.98,5.233-1.545,11.026,0,17.266,1.349,5.448,2.823,11.4,6.714,12.47,1.865.512-2.111,6.313,3.672,3.928,7.385-3.047-3.044,11.459-1.653,12.672,2.772,2.417,13.059-11.055,16.686-4.13,2.427,4.633,8.122,3.8,10.072,9.113,1.329,3.622-.809,5.393,0,9.113a13.805,13.805,0,0,0,5.214,7.482,86.114,86.114,0,0,0,3.564-80.946Z" transform="translate(-1407.604 -729.347)" fill="#e6d0be"/>
      <path id="Trazado_118181" data-name="Trazado 118181" d="M1495.558,510.931a86.376,86.376,0,0,0-20.851-16.857,10.332,10.332,0,0,0,.44,6.772c1.323,2.682,4.074,3.732,3.837,6.235-.234,2.469-3.2,4.533-5.755,5.276-4.356,1.267-7.124-1.424-8.633,0-2.266,2.137,2.813,9.294.48,11.511-1.528,1.451-4.29-1.061-7.194.48-2.75,1.459-4.541,5.976-2.878,9.113,1.293,2.438,4.346,3.425,6.714,3.357,1.986-.057,4.653-.887,11.99-9.113,6.779-7.6,7.749-10.529,10.551-10.551,4.709-.039,8.211,8.18,9.113,7.674.837-.47-3.889-6.6-2.4-10.551C1491.605,512.6,1493.261,511.561,1495.558,510.931Z" transform="translate(-1342.925 -481.498)" fill="#e6d0be"/>
      <g id="Grupo_84529" data-name="Grupo 84529" transform="translate(0 0)">
        <path id="Trazado_118182" data-name="Trazado 118182" d="M626.159,563.423l-.511,0a86.275,86.275,0,0,1,.483-172.549l.511,0a86.274,86.274,0,0,1,85.777,86.77l-.269,0,.269,0a86.275,86.275,0,0,1-86.26,85.779Zm-.022-172.013a85.738,85.738,0,0,0-.486,171.474h.508a85.738,85.738,0,0,0,.48-171.474Z" transform="translate(-539.87 -390.872)" fill="#b77250"/>
      </g>
    </g>
    <g id="Grupo_84532" data-name="Grupo 84532" transform="translate(350.123 486.364)">
      <path id="Trazado_118183" data-name="Trazado 118183" d="M553.055,1577.135c-35.6,0-72.774,9.538-93.952,16.237a111.577,111.577,0,0,0,79.218,54.086q7.858.437,16.2.434a162.648,162.648,0,0,0,27.714-2.353,111.738,111.738,0,0,0,73.719-59.863C628.262,1580.351,592.327,1577.135,553.055,1577.135Z" transform="translate(-459.103 -1577.135)" fill="#a8a073"/>
      <g id="Grupo_84531" data-name="Grupo 84531" transform="translate(58.391 7.848)">
        <path id="Trazado_118184" data-name="Trazado 118184" d="M1184.727,1641.541c-9.137,2.317-17.98,5.087-26.556,8.194-16.785,10.863-26.942,40.887-17.462,55.1a105.383,105.383,0,0,0,24.181-.493C1154.939,1688.026,1167.209,1653.521,1184.727,1641.541Z" transform="translate(-1112.843 -1641.541)" fill="#9e9569"/>
        <path id="Trazado_118185" data-name="Trazado 118185" d="M983.6,1708.783c-11.259,4.079-22.057,8.741-32.451,13.724-11.021,12.144-15.791,24.561-11.052,35.873a78.158,78.158,0,0,0,26.4,5.5C957.021,1749.67,966.82,1719.646,983.6,1708.783Z" transform="translate(-938.277 -1700.589)" fill="#8b865c"/>
      </g>
      <path id="Trazado_118186" data-name="Trazado 118186" d="M1998.055,1580.295c-1.707-.09-3.354-.163-4.728-.2-4.88,8.387-8.75,17.975-9.836,26.443A111.314,111.314,0,0,0,1998.055,1580.295Z" transform="translate(-1797.732 -1579.738)" fill="#9e9569"/>
      <path id="Trazado_118187" data-name="Trazado 118187" d="M1791.074,1579.9c-11.3,12.9-18.975,35.412-15.734,50.317a112.14,112.14,0,0,0,24.708-24.169c1.087-8.467,4.956-18.056,9.836-26.443Q1800.29,1579.378,1791.074,1579.9Z" transform="translate(-1614.29 -1579.246)" fill="#8b865c"/>
      <path id="Trazado_118188" data-name="Trazado 118188" d="M1593.446,1582.517q-9.474.525-18.566,1.763c-17.424,10.9-31.04,44.869-22.943,62.243a111.218,111.218,0,0,0,25.775-13.688C1574.47,1617.929,1582.147,1595.418,1593.446,1582.517Z" transform="translate(-1416.662 -1581.861)" fill="#9e9569"/>
      <path id="Trazado_118189" data-name="Trazado 118189" d="M1336.847,1665.259c1.878-.123,3.675-.526,5.542-.708a110.674,110.674,0,0,0,19.7-5.326c-8.1-17.374,5.519-51.345,22.943-62.242a248.374,248.374,0,0,0-27.943,5.43C1339.57,1614.391,1326.9,1648.942,1336.847,1665.259Z" transform="translate(-1226.813 -1594.564)" fill="#8b865c"/>
      <path id="Trazado_118190" data-name="Trazado 118190" d="M718.2,1842.517a111.134,111.134,0,0,0,28.644,14.76c-3.912-11.055.445-24.185,11.052-35.873C743.984,1828.073,730.8,1835.318,718.2,1842.517Z" transform="translate(-686.626 -1791.638)" fill="#9e9569"/>
    </g>
    <g id="Grupo_84539" data-name="Grupo 84539" transform="translate(415.845 377.633)">
      <g id="Grupo_84533" data-name="Grupo 84533" transform="translate(0 27.613)">
        <path id="Trazado_118191" data-name="Trazado 118191" d="M1049.376,911.46a50.936,50.936,0,1,0,50.936,50.936A50.936,50.936,0,0,0,1049.376,911.46Zm-.083,94.239a42.89,42.89,0,1,1,42.89-42.89A42.89,42.89,0,0,1,1049.294,1005.7Z" transform="translate(-998.44 -911.46)" fill="#d87355"/>
      </g>
      <g id="Grupo_84534" data-name="Grupo 84534" transform="translate(23.058 0)">
        <rect id="Rectángulo_34179" data-name="Rectángulo 34179" width="10.194" height="6.244" transform="translate(56.854 8.665) rotate(180)" fill="#363e44"/>
        <path id="Trazado_118192" data-name="Trazado 118192" d="M1198.687,859.807l13.144-11.251,23.31-.061,13.031,11.4v91.266h-49.436V859.807Z" transform="translate(-1197.344 -828.555)" fill="#efbc73"/>
        <path id="Trazado_118193" data-name="Trazado 118193" d="M1239.565,943.616a.269.269,0,0,1-.269-.269V855.492l-13.887-11.375-23.542.133-13.619,11.06V942a.269.269,0,0,1-.537,0V855.376a.269.269,0,0,1,.051-.363l13.84-11.24a.27.27,0,0,1,.168-.06l23.733-.134h0a.269.269,0,0,1,.17.061l14.061,11.517a.269.269,0,0,1,.1.208v87.982A.269.269,0,0,1,1239.565,943.616Z" transform="translate(-1187.662 -824.238)" fill="#84524d"/>
        <rect id="Rectángulo_34180" data-name="Rectángulo 34180" width="19.879" height="15.674" transform="translate(36.083 20.389) rotate(180)" fill="#363e44"/>
        <path id="Trazado_118194" data-name="Trazado 118194" d="M1535.032,748.031l3.036-2.346c-9.728-4.752-14.284-12.072-14.306-21.094l-6.354,4.865C1518.46,738.228,1525.287,744.217,1535.032,748.031Z" transform="translate(-1477.225 -719.751)" fill="#363e44"/>
        <rect id="Rectángulo_34181" data-name="Rectángulo 34181" width="38.611" height="11.214" transform="translate(52.14 11.214) rotate(180)" fill="#363e44"/>
        <path id="Trazado_118195" data-name="Trazado 118195" d="M1219.951,842.072l-5.015,10.747-15.852.09,14.24-12.269Z" transform="translate(-1197.693 -821.656)" fill="#ffd092"/>
        <rect id="Rectángulo_34182" data-name="Rectángulo 34182" width="23.447" height="5.161" transform="translate(37.74 21.535) rotate(180)" fill="#e0aa63"/>
        <path id="Trazado_118196" data-name="Trazado 118196" d="M1300.775,814.121a.269.269,0,0,1-.269-.269v-4.269a.268.268,0,0,1,.269-.269h23.778a.268.268,0,0,1,.268.266l.045,4.176a.268.268,0,0,1-.266.272h0a.269.269,0,0,1-.269-.266l-.042-3.91h-23.243v4A.269.269,0,0,1,1300.775,814.121Z" transform="translate(-1286.755 -794.149)" fill="#84524d"/>
      </g>
      <g id="Grupo_84538" data-name="Grupo 84538" transform="translate(20.828 42.244)">
        <g id="Grupo_84535" data-name="Grupo 84535" transform="translate(7.646)">
          <path id="Trazado_118197" data-name="Trazado 118197" d="M1275.472,1052.177c0,10.153-9.708,18.384-21.684,18.384s-21.684-8.231-21.684-18.384,9.52-20.647,21.5-20.647S1275.472,1042.024,1275.472,1052.177Z" transform="translate(-1232.104 -1031.53)" fill="#363e44"/>
          <circle id="Elipse_4865" data-name="Elipse 4865" cx="4.148" cy="4.148" r="4.148" transform="translate(8.44 21.909) rotate(-80.783)" fill="#fff"/>
          <circle id="Elipse_4866" data-name="Elipse 4866" cx="4.148" cy="4.148" r="4.148" transform="translate(26.021 14.707)" fill="#fff"/>
          <path id="Trazado_118198" data-name="Trazado 118198" d="M1343.752,1326.718c.556-.019.556-.047,1.112-.082v2.525c.556-.079,1.668-.193,2.78-.342v-2.676c0-.086.556-.182,1.112-.284v2.787c.556-.167,2.256-.483,3.3-.706l.167-5.967h-19.592v5.9c1.112.331,2.224.593,2.78.8v-2.9c.556.108,1.112.207,1.112.3v2.812c1.668.167,2.224.28,3.336.341v-2.623a5.651,5.651,0,0,0,1.112.094v2.576c1.112.022,1.668.006,2.78-.042Z" transform="translate(-1320.383 -1286.58)" fill="#363e44"/>
        </g>
        <g id="Grupo_84536" data-name="Grupo 84536" transform="translate(4.292 32.478)">
          <ellipse id="Elipse_4867" data-name="Elipse 4867" cx="2.693" cy="1.732" rx="2.693" ry="1.732" transform="matrix(0.592, -0.806, 0.806, 0.592, 49.374, 4.34)" fill="#363e44"/>
          <path id="Trazado_118199" data-name="Trazado 118199" d="M1622.818,1333.313a1.932,1.932,0,0,1-2.268-1.836,2.508,2.508,0,0,1,2.462-2.12,1.932,1.932,0,0,1,2.268,1.836A2.508,2.508,0,0,1,1622.818,1333.313Z" transform="translate(-1569.858 -1325.539)" fill="#363e44"/>
          <ellipse id="Elipse_4868" data-name="Elipse 4868" cx="2.693" cy="1.732" rx="2.693" ry="1.732" transform="translate(1.578 34.217) rotate(-76.699)" fill="#363e44"/>
          <path id="Trazado_118200" data-name="Trazado 118200" d="M1206.125,1525.924a1.932,1.932,0,0,1,2.805.8,2.509,2.509,0,0,1-1.438,2.913,1.932,1.932,0,0,1-2.805-.8A2.509,2.509,0,0,1,1206.125,1525.924Z" transform="translate(-1204.579 -1497.912)" fill="#363e44"/>
          <rect id="Rectángulo_34183" data-name="Rectángulo 34183" width="2.589" height="55.306" transform="matrix(0.461, 0.887, -0.887, 0.461, 52.378, 3.157)" fill="#363e44"/>
        </g>
        <g id="Grupo_84537" data-name="Grupo 84537" transform="translate(0 38.615)">
          <ellipse id="Elipse_4869" data-name="Elipse 4869" cx="2.693" cy="1.732" rx="2.693" ry="1.732" transform="translate(53.208 21.243) rotate(-4.605)" fill="#363e44"/>
          <path id="Trazado_118201" data-name="Trazado 118201" d="M1598.806,1539.563a1.931,1.931,0,0,1-.1-2.916,2.508,2.508,0,0,1,3.214.473,1.932,1.932,0,0,1,.1,2.917A2.509,2.509,0,0,1,1598.806,1539.563Z" transform="translate(-1545.846 -1513.362)" fill="#363e44"/>
          <path id="Trazado_118202" data-name="Trazado 118202" d="M1171.451,1373.235c1.37-.55,2.672-.231,2.907.713s-.685,2.155-2.056,2.705-2.672.231-2.907-.712S1170.081,1373.785,1171.451,1373.235Z" transform="translate(-1169.359 -1369.973)" fill="#363e44"/>
          <ellipse id="Elipse_4870" data-name="Elipse 4870" cx="1.944" cy="2.399" rx="1.944" ry="2.399" transform="translate(0.341 3.829) rotate(-80.03)" fill="#363e44"/>
          <rect id="Rectángulo_34184" data-name="Rectángulo 34184" width="2.589" height="55.306" transform="translate(56.069 22.738) rotate(111.611)" fill="#363e44"/>
        </g>
      </g>
      <path id="Trazado_118203" data-name="Trazado 118203" d="M1136.541,1547.73a42.875,42.875,0,0,1-68.206,0h-9.376a50.951,50.951,0,0,0,87.123,0Z" transform="translate(-1051.584 -1442.583)" fill="#d87355"/>
      <rect id="Rectángulo_34185" data-name="Rectángulo 34185" width="6.968" height="92.715" transform="matrix(0.754, 0.657, -0.657, 0.754, 83.564, 43.004)" fill="#d87355"/>
    </g>
    <g id="Grupo_84558" data-name="Grupo 84558" transform="translate(340.718 351.106)">
      <g id="Grupo_84542" data-name="Grupo 84542" transform="translate(15.399 61.449)">
        <path id="Trazado_118204" data-name="Trazado 118204" d="M573.129,1705H583.4l1.966,14.284H569.9Z" transform="translate(-562.393 -1615.614)" fill="#fff"/>
        <path id="Trazado_118205" data-name="Trazado 118205" d="M829.509,1521.284H813.761l12.351,22.567h10.311Z" transform="translate(-776.537 -1454.281)" fill="#84524d"/>
        <path id="Trazado_118206" data-name="Trazado 118206" d="M570.628,1521.284H556.641l5.7,22.388h8.853Z" transform="translate(-550.749 -1454.281)" fill="#84524d"/>
        <path id="Trazado_118207" data-name="Trazado 118207" d="M894.53,1720.586h29.7s-5.211-13.644-16.885-14.106l-10.311-.006Z" transform="translate(-847.464 -1616.904)" fill="#fff"/>
        <path id="Trazado_118208" data-name="Trazado 118208" d="M515.361,972.477l-7.071,69.674h20.869L530.027,993l12.665,49.151h20.5l-23.272-70.71Z" transform="translate(-508.29 -971.441)" fill="#363e44"/>
        <g id="Grupo_84540" data-name="Grupo 84540" transform="translate(6.269 92.346)">
          <path id="Trazado_118209" data-name="Trazado 118209" d="M619.427,1747.463a1.937,1.937,0,0,1-.953-.254l-4.121-2.327a.269.269,0,0,1,.088-.5l4.668-.782a1.943,1.943,0,0,1,1.15,3.673A1.945,1.945,0,0,1,619.427,1747.463Zm-4.148-2.676,3.46,1.954a1.405,1.405,0,1,0,.459-2.61Z" transform="translate(-607.578 -1741.83)" fill="#84524d"/>
          <path id="Trazado_118210" data-name="Trazado 118210" d="M561.673,1733.143a1.943,1.943,0,1,1,.965-3.635l4.12,2.327a.269.269,0,0,1-.088.5l-4.667.781A2.017,2.017,0,0,1,561.673,1733.143Zm.01-3.351a1.4,1.4,0,0,0-.6.137,1.405,1.405,0,0,0,.832,2.656l3.918-.656-3.459-1.954A1.4,1.4,0,0,0,561.684,1729.793Z" transform="translate(-559.739 -1729.255)" fill="#84524d"/>
        </g>
        <path id="Trazado_118211" data-name="Trazado 118211" d="M641.133,1136.255a.265.265,0,0,1-.062-.007l-5.524-1.309a.269.269,0,1,1,.124-.523l5.524,1.309a.269.269,0,0,1-.062.53Z" transform="translate(-619.858 -1114.55)" fill="#fff"/>
        <g id="Grupo_84541" data-name="Grupo 84541" transform="translate(54.188 84.755)">
          <path id="Trazado_118212" data-name="Trazado 118212" d="M1000.867,1672.053a.269.269,0,0,1-.219-.425l2.748-3.853a1.92,1.92,0,0,1,1.581-.814h.009a1.942,1.942,0,0,1,.512,3.814l-4.559,1.269A.279.279,0,0,1,1000.867,1672.053Zm4.11-4.555a1.387,1.387,0,0,0-1.144.589l-2.307,3.234,3.828-1.065a1.405,1.405,0,0,0-.371-2.759Z" transform="translate(-994.795 -1666.961)" fill="#84524d"/>
          <path id="Trazado_118213" data-name="Trazado 118213" d="M954.918,1709.526h-.009a1.943,1.943,0,0,1-.512-3.814l4.559-1.268a.269.269,0,0,1,.291.415l-2.748,3.853A1.92,1.92,0,0,1,954.918,1709.526Zm3.45-4.361-3.828,1.065a1.405,1.405,0,0,0,.371,2.759h.006a1.388,1.388,0,0,0,1.144-.589Z" transform="translate(-952.973 -1699.868)" fill="#84524d"/>
        </g>
      </g>
      <g id="Grupo_84552" data-name="Grupo 84552" transform="translate(0 24.102)">
        <g id="Grupo_84545" data-name="Grupo 84545" transform="translate(46.5)">
          <path id="Trazado_118214" data-name="Trazado 118214" d="M763.515,813.316c6.379,1.53,24.52,7.073,26.764-.568,1.856-6.321-16.05-10.94-22.286-12.87Z" transform="translate(-763.515 -783.436)" fill="#84524d"/>
          <g id="Grupo_84544" data-name="Grupo 84544" transform="translate(14.513)">
            <path id="Trazado_118215" data-name="Trazado 118215" d="M885.778,691.717h0c6.414-10.042,10.773-17.29,12.206-19.475a4.816,4.816,0,0,1,.885-1.048c1.748-1.534,3.561-.734,6.135-1.508,2.921-.879,4.068-3.027,4.721-2.6.454.3.249,1.229-.827,2.823h0c.957-1.118,2.32-2.577,2.937-2.047.679.651-.722,2.553-1.626,3.663,1.094-1.343,2.077-1.73,2.347-1.349.425.6-.181,1.839-1.7,3.558h0c1.377-.895,1.845-.907,2-.511.285.722-.986,2.111-2.3,3.168a9.726,9.726,0,0,1-4.025,1.833h0c-3.763,7.5-6.513,12.176-9.09,18.445C895.805,700.664,886.313,698.23,885.778,691.717Z" transform="translate(-885.392 -666.776)" fill="#84524d"/>
            <path id="Trazado_118216" data-name="Trazado 118216" d="M882.882,838.127a.269.269,0,0,1-.226-.413c.853-1.336,1.739-2.73,2.666-4.2a.269.269,0,0,1,.454.287c-.928,1.47-1.813,2.864-2.667,4.2A.268.268,0,0,1,882.882,838.127Z" transform="translate(-882.614 -812.865)" fill="#363e44"/>
            <path id="Trazado_118217" data-name="Trazado 118217" d="M993.072,669.125c1.459-2.642,1.425-3.9,1-4.122-.717-.366-2.885,1.38-5.5,4.973C989.843,669.851,991.8,669.249,993.072,669.125Z" transform="translate(-975.656 -664.955)" fill="#84524d"/>
            <g id="Grupo_84543" data-name="Grupo 84543" transform="translate(14.586 2.854)">
              <path id="Trazado_118218" data-name="Trazado 118218" d="M1018.924,724.079a.269.269,0,0,1-.235-.4,4.142,4.142,0,0,1,1.7-1.674,4.263,4.263,0,0,1,3-.335.269.269,0,0,1-.134.52,3.714,3.714,0,0,0-2.611.29,3.605,3.605,0,0,0-1.475,1.458A.269.269,0,0,1,1018.924,724.079Z" transform="translate(-1016.664 -717.498)" fill="#363e44"/>
              <path id="Trazado_118219" data-name="Trazado 118219" d="M1002.581,691.2a.269.269,0,0,1-.081-.525,8.7,8.7,0,0,1,2.066-.3c.33-.022.671-.045,1.025-.085a.269.269,0,0,1,.059.534c-.365.04-.713.064-1.048.087a8.323,8.323,0,0,0-1.94.28A.268.268,0,0,1,1002.581,691.2Z" transform="translate(-1002.312 -690.057)" fill="#363e44"/>
              <path id="Trazado_118220" data-name="Trazado 118220" d="M1054.231,690.332a.269.269,0,0,1-.088-.523,5.693,5.693,0,0,0,2.168-1.355.269.269,0,1,1,.379.38,6.238,6.238,0,0,1-2.372,1.483A.275.275,0,0,1,1054.231,690.332Z" transform="translate(-1047.668 -688.376)" fill="#363e44"/>
              <path id="Trazado_118221" data-name="Trazado 118221" d="M1066.1,702.127a.269.269,0,0,1-.088-.523,5.687,5.687,0,0,0,2.167-1.355.269.269,0,0,1,.379.38,6.218,6.218,0,0,1-2.372,1.482A.269.269,0,0,1,1066.1,702.127Z" transform="translate(-1058.09 -698.734)" fill="#363e44"/>
              <path id="Trazado_118222" data-name="Trazado 118222" d="M1070.712,721.956a.269.269,0,0,1-.088-.523,5.691,5.691,0,0,0,2.167-1.355.269.269,0,0,1,.379.38,6.233,6.233,0,0,1-2.372,1.483A.267.267,0,0,1,1070.712,721.956Z" transform="translate(-1062.141 -716.146)" fill="#363e44"/>
            </g>
          </g>
        </g>
        <path id="Trazado_118223" data-name="Trazado 118223" d="M394.714,821.92c-4.4,3.545-17.454,11.946-11.065,20.493,2.41,3.224,13.272-7.127,17.872-10.364Z" transform="translate(-381.92 -802.792)" fill="#84524d"/>
        <path id="Trazado_118224" data-name="Trazado 118224" d="M454.65,764.815c1.617-1.495,13.739-12.335,30.225-9.638,9.507,1.555,15.547,4.284,19.04,6.5-3.487,6.309-4.616,7.706-6.583,10.154,1.005,5.114,1.646,13.7,2.652,18.819-7.474-.066-32.7.262-40.3,0,1.355-4.327,4.168-11.168,5.523-15.495l-3.147,2.623C459.633,773.731,456.814,768.617,454.65,764.815Z" transform="translate(-445.787 -743.806)" fill="#fff"/>
        <g id="Grupo_84551" data-name="Grupo 84551" transform="translate(2.307 19.333)">
          <g id="Grupo_84548" data-name="Grupo 84548" transform="translate(24.459)">
            <g id="Grupo_84546" data-name="Grupo 84546">
              <path id="Trazado_118225" data-name="Trazado 118225" d="M601.838,843.752a.276.276,0,0,1-.09-.015.269.269,0,0,1-.163-.344l6.983-19.606a.269.269,0,0,1,.253-.178H624.13a.269.269,0,0,1,0,.537h-15.12l-6.919,19.428A.269.269,0,0,1,601.838,843.752Z" transform="translate(-601.569 -823.609)" fill="#d87355"/>
            </g>
            <g id="Grupo_84547" data-name="Grupo 84547" transform="translate(1.005 1.217)">
              <path id="Trazado_118226" data-name="Trazado 118226" d="M625.129,853.2H609.82l6.983-19.606h15.309Z" transform="translate(-609.82 -833.592)" fill="#d87355"/>
            </g>
          </g>
          <g id="Grupo_84550" data-name="Grupo 84550" transform="translate(0 9.496)">
            <path id="Trazado_118227" data-name="Trazado 118227" d="M403.659,904.66c5.238.35,17.613.565,18.82.634,2.257.129,14.349,1.136,14.393,2.9.021.841-2.318.753-3.107.7.617.357,3.133,1.472,2.912,2.389-.261,1.077-3.463.208-3.521.225.663.3,3.352,1.384,3.213,2.078-.182.9-2.986.644-3.822.527.072.126,2.774.784,2.6,1.87-.125.8-2.7.555-3.814.454-2-.113-25.4-.167-29.741-.732C399.891,915.481,401.358,906.3,403.659,904.66Z" transform="translate(-400.854 -904.279)" fill="#84524d"/>
            <path id="Trazado_118228" data-name="Trazado 118228" d="M433.1,902.565h-.009c-2.668-.087-9.617-.4-11.3-.491a.269.269,0,0,1,.03-.536c1.684.094,8.626.4,11.292.49a.269.269,0,0,1-.009.537Z" transform="translate(-419.01 -901.537)" fill="#363e44"/>
            <g id="Grupo_84549" data-name="Grupo 84549" transform="translate(28.813 3.421)">
              <path id="Trazado_118229" data-name="Trazado 118229" d="M641.429,930.989a.272.272,0,0,1-.106-.022,10.038,10.038,0,0,0-3.762-.817.269.269,0,0,1,.006-.537h.006a10.594,10.594,0,0,1,3.962.86.269.269,0,0,1-.106.516Z" transform="translate(-637.299 -929.613)" fill="#363e44"/>
              <path id="Trazado_118230" data-name="Trazado 118230" d="M644.119,955.446a.265.265,0,0,1-.079-.012c-.092-.028-.187-.056-.283-.083a10.126,10.126,0,0,0-2.455-.358.269.269,0,0,1-.263-.275.265.265,0,0,1,.275-.263,10.656,10.656,0,0,1,2.586.378c.1.028.2.057.3.087a.269.269,0,0,1-.079.526Z" transform="translate(-640.583 -951.429)" fill="#363e44"/>
              <path id="Trazado_118231" data-name="Trazado 118231" d="M646.57,979.086a.268.268,0,0,1-.049,0,10.185,10.185,0,0,0-1.619-.166.269.269,0,0,1-.263-.275.263.263,0,0,1,.275-.263,10.745,10.745,0,0,1,1.7.175.269.269,0,0,1-.049.533Z" transform="translate(-643.744 -972.435)" fill="#363e44"/>
            </g>
          </g>
        </g>
      </g>
      <g id="Grupo_84557" data-name="Grupo 84557" transform="translate(9.327 0)">
        <path id="Trazado_118232" data-name="Trazado 118232" d="M505.709,565.482a8.771,8.771,0,1,1,8.771-8.771A8.781,8.781,0,0,1,505.709,565.482Zm0-17a8.234,8.234,0,1,0,8.234,8.233A8.243,8.243,0,0,0,505.709,548.477Z" transform="translate(-492.249 -538.098)" fill="#363e44"/>
        <circle id="Elipse_4871" data-name="Elipse 4871" cx="10.594" cy="10.594" r="10.594" transform="translate(0 14.982) rotate(-45)" fill="#363e44"/>
        <circle id="Elipse_4872" data-name="Elipse 4872" cx="7.147" cy="7.147" r="7.147" transform="translate(18.988 16.082)" fill="#363e44"/>
        <path id="Trazado_118233" data-name="Trazado 118233" d="M658.963,641.756c-1.579,1.122-6.04-1.923-6.04-1.923l-2.552-5.339a4.934,4.934,0,0,1,4.934-4.934h0a4.934,4.934,0,0,1,4.934,4.934S660.572,640.613,658.963,641.756Z" transform="translate(-626.985 -609.771)" fill="#84524d"/>
        <ellipse id="Elipse_4873" data-name="Elipse 4873" cx="5.713" cy="2.342" rx="5.713" ry="2.342" transform="translate(20.941 35.073)" fill="#84524d"/>
        <rect id="Rectángulo_34186" data-name="Rectángulo 34186" width="6.098" height="12.473" transform="translate(23.386 24.667)" fill="#84524d"/>
        <path id="Trazado_118234" data-name="Trazado 118234" d="M724.393,680.693s1.384,1.45,1.31,1.833c-.088.457-1.629.736-1.629.736S724.43,680.7,724.393,680.693Z" transform="translate(-691.707 -654.674)" fill="#84524d"/>
        <path id="Trazado_118235" data-name="Trazado 118235" d="M673.905,715a.28.28,0,0,1-.047,0,15.245,15.245,0,0,1-4.63-2.156.269.269,0,1,1,.3-.444,15.031,15.031,0,0,0,4.421,2.071.269.269,0,0,1-.047.533Z" transform="translate(-643.442 -682.475)" fill="#363e44"/>
        <g id="Grupo_84555" data-name="Grupo 84555" transform="translate(27.744 24.977)">
          <path id="Trazado_118236" data-name="Trazado 118236" d="M686.136,672.628a4.694,4.694,0,0,1,2-.487c.232,0-.206,1.858-.426,1.753A4.7,4.7,0,0,1,686.136,672.628Z" transform="translate(-686.136 -672.141)" fill="#fff"/>
          <g id="Grupo_84554" data-name="Grupo 84554" transform="translate(0 0)">
            <g id="Grupo_84553" data-name="Grupo 84553" clip-path="url(#clip-path)">
              <circle id="Elipse_4874" data-name="Elipse 4874" cx="1.848" cy="1.848" r="1.848" transform="translate(1.501 -0.589)" fill="#363e44"/>
            </g>
          </g>
        </g>
        <path id="Trazado_118238" data-name="Trazado 118238" d="M704.943,701.028a1.025,1.025,0,0,1-.558-.164,1.035,1.035,0,0,1-.46-.985.269.269,0,1,1,.534.064.489.489,0,0,0,.752.47.269.269,0,0,1,.291.452A1.031,1.031,0,0,1,704.943,701.028Z" transform="translate(-674.007 -671.313)" fill="#363e44"/>
        <path id="Trazado_118239" data-name="Trazado 118239" d="M639.255,625.639a3.04,3.04,0,0,1,3.2,1.035l1.053-.576s-.61-6.714,6.748-4.075c0,0-2.523-5.638-7.446-3.567S639.255,625.639,639.255,625.639Z" transform="translate(-617.069 -599.619)" fill="#363e44"/>
        <g id="Grupo_84556" data-name="Grupo 84556" transform="translate(22.036 24.942)">
          <path id="Trazado_118240" data-name="Trazado 118240" d="M639.377,674.109a1.6,1.6,0,1,0,1-2.2A1.715,1.715,0,0,0,639.377,674.109Z" transform="translate(-639.29 -671.852)" fill="#84524d"/>
          <path id="Trazado_118241" data-name="Trazado 118241" d="M644.974,677.05a.269.269,0,0,1-.257-.192.717.717,0,0,0-.832-.559.616.616,0,0,0-.4.461.269.269,0,0,1-.522-.129,1.146,1.146,0,0,1,.772-.846,1.25,1.25,0,0,1,1.5.92.269.269,0,0,1-.257.346Z" transform="translate(-642.505 -675.266)" fill="#363e44"/>
        </g>
        <path id="Trazado_118242" data-name="Trazado 118242" d="M640.5,698.02a1.739,1.739,0,1,1,1.739-1.739A1.741,1.741,0,0,1,640.5,698.02Zm0-2.942a1.2,1.2,0,1,0,1.2,1.2A1.2,1.2,0,0,0,640.5,695.078Z" transform="translate(-616.793 -666.834)" fill="#efbc73"/>
      </g>
    </g>
    <g id="Grupo_84570" data-name="Grupo 84570" transform="translate(390.35 475.554)">
      <g id="Grupo_84559" data-name="Grupo 84559" transform="translate(74.307 52.867)">
        <path id="Trazado_118243" data-name="Trazado 118243" d="M1404.794,1929.09l-.028,0a6.193,6.193,0,0,1-5.769-6.564.269.269,0,0,1,.091-.195.266.266,0,0,1,.205-.065,6.194,6.194,0,0,1,5.769,6.564.269.269,0,0,1-.269.262Zm-5.251-6.244a5.58,5.58,0,1,0,3.587,1.864A6.546,6.546,0,0,0,1399.543,1922.846Z" transform="translate(-1398.997 -1922.262)" fill="#363e44"/>
        <path id="Trazado_118244" data-name="Trazado 118244" d="M1444.1,1981.546a.269.269,0,0,1-.237-.4c.814-1.525.525-2.364.182-2.925-.131-.214-.28-.415-.438-.627a4.266,4.266,0,0,1-.953-1.924,4.386,4.386,0,0,1,.209-1.939.269.269,0,0,1,.511.166,3.843,3.843,0,0,0-.19,1.686,3.78,3.78,0,0,0,.854,1.689c.158.213.321.432.465.668.385.629.786,1.673-.167,3.458A.268.268,0,0,1,1444.1,1981.546Z" transform="translate(-1437.3 -1967.301)" fill="#363e44"/>
        <path id="Trazado_118245" data-name="Trazado 118245" d="M1444.612,1929.709a.268.268,0,0,1-.269-.267,6.194,6.194,0,0,1,5.9-6.446.265.265,0,0,1,.2.07.268.268,0,0,1,.087.2,6.194,6.194,0,0,1-5.9,6.446Zm5.372-6.136a5.58,5.58,0,1,0-1.465,3.768A6.544,6.544,0,0,0,1449.984,1923.573Z" transform="translate(-1438.817 -1922.906)" fill="#363e44"/>
      </g>
      <g id="Grupo_84560" data-name="Grupo 84560" transform="translate(105.703 28.625)">
        <path id="Trazado_118246" data-name="Trazado 118246" d="M1662.44,1730.156h-.028a6.194,6.194,0,0,1-5.769-6.565.269.269,0,0,1,.3-.261,6.195,6.195,0,0,1,5.769,6.565.268.268,0,0,1-.269.262Zm-5.251-6.244a5.58,5.58,0,1,0,3.587,1.864A6.544,6.544,0,0,0,1657.188,1723.912Z" transform="translate(-1656.642 -1723.328)" fill="#363e44"/>
        <path id="Trazado_118247" data-name="Trazado 118247" d="M1701.744,1782.611a.269.269,0,0,1-.237-.4c.814-1.525.525-2.364.182-2.925-.131-.214-.28-.414-.438-.627a4.262,4.262,0,0,1-.953-1.924,4.389,4.389,0,0,1,.209-1.939.269.269,0,1,1,.511.166,3.845,3.845,0,0,0-.19,1.686,3.779,3.779,0,0,0,.854,1.69c.158.213.321.432.465.667.385.629.786,1.672-.167,3.458A.268.268,0,0,1,1701.744,1782.611Z" transform="translate(-1694.945 -1768.366)" fill="#363e44"/>
        <path id="Trazado_118248" data-name="Trazado 118248" d="M1702.257,1730.774a.269.269,0,0,1-.269-.267,6.194,6.194,0,0,1,5.9-6.445.265.265,0,0,1,.2.069.268.268,0,0,1,.087.2,6.193,6.193,0,0,1-5.9,6.445Zm5.372-6.136a5.58,5.58,0,1,0-1.465,3.767A6.543,6.543,0,0,0,1707.629,1724.638Z" transform="translate(-1696.462 -1723.971)" fill="#363e44"/>
      </g>
      <g id="Grupo_84561" data-name="Grupo 84561" transform="translate(147.23 8.366)">
        <path id="Trazado_118249" data-name="Trazado 118249" d="M2043.875,1564.646a.269.269,0,0,1-.269-.267,6.3,6.3,0,0,1,6.006-6.559.269.269,0,0,1,.291.266,6.3,6.3,0,0,1-6.006,6.56Zm5.477-6.249a5.69,5.69,0,1,0-1.493,3.845A6.67,6.67,0,0,0,2049.351,1558.4Z" transform="translate(-2037.978 -1557.727)" fill="#363e44"/>
        <path id="Trazado_118250" data-name="Trazado 118250" d="M2003.323,1564.018l-.028,0a6.3,6.3,0,0,1-5.871-6.68.268.268,0,0,1,.3-.26,6.3,6.3,0,0,1,5.871,6.68.269.269,0,0,1-.269.262Zm-5.353-6.36a5.689,5.689,0,1,0,3.662,1.9A6.674,6.674,0,0,0,1997.97,1557.658Z" transform="translate(-1997.424 -1557.074)" fill="#363e44"/>
        <path id="Trazado_118251" data-name="Trazado 118251" d="M2043.353,1617.436a.266.266,0,0,1-.126-.032.268.268,0,0,1-.111-.364c.83-1.555.535-2.411.185-2.983-.133-.218-.285-.422-.446-.639a4.34,4.34,0,0,1-.969-1.957,4.466,4.466,0,0,1,.213-1.973.269.269,0,0,1,.511.166,3.916,3.916,0,0,0-.193,1.72,3.848,3.848,0,0,0,.87,1.723c.161.216.327.44.474.679.391.64.8,1.7-.17,3.517A.268.268,0,0,1,2043.353,1617.436Z" transform="translate(-2036.434 -1602.939)" fill="#363e44"/>
      </g>
      <g id="Grupo_84562" data-name="Grupo 84562" transform="translate(118.372 0)">
        <path id="Trazado_118252" data-name="Trazado 118252" d="M1807.056,1496a.269.269,0,0,1-.269-.267,6.3,6.3,0,0,1,6.006-6.559.264.264,0,0,1,.2.07.267.267,0,0,1,.087.2,6.3,6.3,0,0,1-6.006,6.559Zm5.477-6.25a5.689,5.689,0,1,0-1.493,3.846A6.672,6.672,0,0,0,1812.533,1489.749Z" transform="translate(-1801.16 -1489.079)" fill="#363e44"/>
        <path id="Trazado_118253" data-name="Trazado 118253" d="M1766.506,1495.367l-.028,0a6.3,6.3,0,0,1-5.871-6.68.269.269,0,0,1,.3-.26,6.3,6.3,0,0,1,5.871,6.68.269.269,0,0,1-.269.262Zm-5.353-6.36a5.689,5.689,0,1,0,3.662,1.9A6.672,6.672,0,0,0,1761.153,1489.007Z" transform="translate(-1760.607 -1488.423)" fill="#363e44"/>
        <path id="Trazado_118254" data-name="Trazado 118254" d="M1806.534,1548.79a.269.269,0,0,1-.237-.4c.83-1.555.535-2.411.185-2.983-.134-.218-.285-.422-.446-.639a4.335,4.335,0,0,1-.969-1.957,4.452,4.452,0,0,1,.213-1.972.269.269,0,0,1,.511.166,3.911,3.911,0,0,0-.193,1.72,3.851,3.851,0,0,0,.87,1.723c.161.216.328.44.474.679.391.64.8,1.7-.17,3.516A.268.268,0,0,1,1806.534,1548.79Z" transform="translate(-1799.615 -1534.293)" fill="#363e44"/>
      </g>
      <g id="Grupo_84563" data-name="Grupo 84563" transform="translate(127.17 28.901)">
        <path id="Trazado_118255" data-name="Trazado 118255" d="M1879.26,1733.166a.269.269,0,0,1-.269-.267,6.3,6.3,0,0,1,6.006-6.559.259.259,0,0,1,.2.07.267.267,0,0,1,.087.2,6.3,6.3,0,0,1-6.006,6.56Zm5.477-6.25a5.69,5.69,0,1,0-1.493,3.846A6.673,6.673,0,0,0,1884.737,1726.916Z" transform="translate(-1873.363 -1726.247)" fill="#363e44"/>
        <path id="Trazado_118256" data-name="Trazado 118256" d="M1838.709,1732.538l-.028,0a6.3,6.3,0,0,1-5.871-6.68.27.27,0,0,1,.091-.195.267.267,0,0,1,.205-.065,6.3,6.3,0,0,1,5.871,6.68.269.269,0,0,1-.269.262Zm-5.353-6.36a5.688,5.688,0,1,0,3.662,1.9A6.673,6.673,0,0,0,1833.356,1726.178Z" transform="translate(-1832.81 -1725.594)" fill="#363e44"/>
        <path id="Trazado_118257" data-name="Trazado 118257" d="M1878.739,1785.958a.268.268,0,0,1-.237-.4c.83-1.555.535-2.411.185-2.984-.133-.218-.285-.422-.446-.639a4.338,4.338,0,0,1-.969-1.957,4.459,4.459,0,0,1,.212-1.972.269.269,0,1,1,.511.166,3.916,3.916,0,0,0-.193,1.72,3.852,3.852,0,0,0,.87,1.723c.161.216.327.44.473.679.391.64.8,1.7-.17,3.517A.268.268,0,0,1,1878.739,1785.958Z" transform="translate(-1871.821 -1771.461)" fill="#363e44"/>
      </g>
      <g id="Grupo_84564" data-name="Grupo 84564" transform="translate(99.027 53.735)">
        <path id="Trazado_118258" data-name="Trazado 118258" d="M1648.31,1936.962a.269.269,0,0,1-.269-.268,6.3,6.3,0,0,1,6.006-6.559.265.265,0,0,1,.2.069.269.269,0,0,1,.087.2,6.3,6.3,0,0,1-6.006,6.559Zm5.477-6.25a5.689,5.689,0,1,0-1.493,3.846A6.671,6.671,0,0,0,1653.786,1930.713Z" transform="translate(-1642.413 -1930.044)" fill="#363e44"/>
        <path id="Trazado_118259" data-name="Trazado 118259" d="M1607.759,1936.333h-.028a6.3,6.3,0,0,1-5.871-6.68.268.268,0,0,1,.3-.26,6.3,6.3,0,0,1,5.871,6.68.269.269,0,0,1-.269.262Zm-5.353-6.36a5.688,5.688,0,1,0,3.662,1.9A6.671,6.671,0,0,0,1602.406,1929.973Z" transform="translate(-1601.86 -1929.389)" fill="#363e44"/>
        <path id="Trazado_118260" data-name="Trazado 118260" d="M1647.787,1989.753a.269.269,0,0,1-.237-.4c.83-1.555.535-2.411.186-2.983-.133-.218-.285-.422-.446-.639a4.336,4.336,0,0,1-.97-1.957,4.459,4.459,0,0,1,.213-1.972.269.269,0,0,1,.511.166,3.921,3.921,0,0,0-.193,1.719,3.855,3.855,0,0,0,.87,1.723c.161.216.328.44.474.679.391.64.8,1.7-.17,3.516A.268.268,0,0,1,1647.787,1989.753Z" transform="translate(-1640.868 -1975.256)" fill="#363e44"/>
      </g>
      <g id="Grupo_84565" data-name="Grupo 84565" transform="translate(48.516 65.02)">
        <path id="Trazado_118261" data-name="Trazado 118261" d="M1233.8,2029.564a.269.269,0,0,1-.269-.268,6.3,6.3,0,0,1,6.006-6.559.264.264,0,0,1,.2.07.269.269,0,0,1,.087.2,6.3,6.3,0,0,1-6.006,6.559Zm5.476-6.25a5.689,5.689,0,1,0-1.493,3.846A6.675,6.675,0,0,0,1239.28,2023.314Z" transform="translate(-1227.907 -2022.645)" fill="#363e44"/>
        <path id="Trazado_118262" data-name="Trazado 118262" d="M1193.253,2028.935h-.028a6.3,6.3,0,0,1-5.871-6.68.268.268,0,0,1,.3-.26,6.3,6.3,0,0,1,5.871,6.68.269.269,0,0,1-.269.262Zm-5.353-6.36a5.688,5.688,0,1,0,3.662,1.9A6.67,6.67,0,0,0,1187.9,2022.575Z" transform="translate(-1187.354 -2021.991)" fill="#363e44"/>
        <path id="Trazado_118263" data-name="Trazado 118263" d="M1233.281,2082.356a.269.269,0,0,1-.237-.4c.83-1.555.535-2.412.185-2.983-.133-.218-.285-.422-.446-.639a4.337,4.337,0,0,1-.969-1.958,4.454,4.454,0,0,1,.213-1.972.269.269,0,1,1,.511.166,3.916,3.916,0,0,0-.193,1.72,3.852,3.852,0,0,0,.87,1.724c.161.216.327.44.474.679.391.64.8,1.7-.17,3.516A.268.268,0,0,1,1233.281,2082.356Z" transform="translate(-1226.362 -2067.859)" fill="#363e44"/>
      </g>
      <g id="Grupo_84566" data-name="Grupo 84566" transform="translate(75.795 25.27)">
        <path id="Trazado_118264" data-name="Trazado 118264" d="M1457.661,1703.366a.268.268,0,0,1-.269-.267,6.3,6.3,0,0,1,6.006-6.559.264.264,0,0,1,.2.069.268.268,0,0,1,.087.2,6.3,6.3,0,0,1-6.006,6.559Zm5.477-6.25a5.689,5.689,0,1,0-1.493,3.846A6.674,6.674,0,0,0,1463.138,1697.116Z" transform="translate(-1451.765 -1696.448)" fill="#363e44"/>
        <path id="Trazado_118265" data-name="Trazado 118265" d="M1417.111,1702.739l-.028,0a6.3,6.3,0,0,1-5.871-6.68.269.269,0,0,1,.3-.26,6.3,6.3,0,0,1,5.871,6.68.268.268,0,0,1-.269.262Zm-5.353-6.36a5.688,5.688,0,1,0,3.662,1.9A6.672,6.672,0,0,0,1411.758,1696.379Z" transform="translate(-1411.212 -1695.795)" fill="#363e44"/>
        <path id="Trazado_118266" data-name="Trazado 118266" d="M1457.138,1756.156a.268.268,0,0,1-.237-.4c.829-1.555.535-2.411.185-2.983-.133-.218-.285-.422-.446-.638a4.339,4.339,0,0,1-.97-1.958,4.452,4.452,0,0,1,.213-1.973.269.269,0,0,1,.511.166,3.9,3.9,0,0,0-.193,1.72,3.854,3.854,0,0,0,.87,1.723c.161.216.327.44.473.679.391.64.8,1.7-.17,3.517A.268.268,0,0,1,1457.138,1756.156Z" transform="translate(-1450.219 -1741.659)" fill="#363e44"/>
      </g>
      <g id="Grupo_84567" data-name="Grupo 84567" transform="translate(0 46.137)">
        <path id="Trazado_118267" data-name="Trazado 118267" d="M835.668,1874.612a.269.269,0,0,1-.269-.268,6.3,6.3,0,0,1,6.006-6.559.266.266,0,0,1,.2.07.269.269,0,0,1,.087.2,6.3,6.3,0,0,1-6.006,6.559Zm5.477-6.25a5.69,5.69,0,1,0-1.494,3.846A6.675,6.675,0,0,0,841.144,1868.362Z" transform="translate(-829.771 -1867.693)" fill="#363e44"/>
        <path id="Trazado_118268" data-name="Trazado 118268" d="M795.115,1873.984l-.028,0a6.3,6.3,0,0,1-5.871-6.68.268.268,0,0,1,.091-.195.265.265,0,0,1,.205-.065,6.3,6.3,0,0,1,5.871,6.68.27.27,0,0,1-.269.262Zm-5.353-6.36a5.69,5.69,0,0,0,5.076,5.777,5.689,5.689,0,0,0-5.076-5.777Z" transform="translate(-789.216 -1867.04)" fill="#363e44"/>
        <path id="Trazado_118269" data-name="Trazado 118269" d="M835.145,1927.4a.269.269,0,0,1-.237-.4c.83-1.555.535-2.411.185-2.984-.133-.218-.285-.422-.446-.639a4.34,4.34,0,0,1-.969-1.957,4.455,4.455,0,0,1,.213-1.972.269.269,0,0,1,.511.166,3.912,3.912,0,0,0-.193,1.72,3.856,3.856,0,0,0,.87,1.723c.161.216.327.44.473.679.391.64.8,1.7-.17,3.516A.268.268,0,0,1,835.145,1927.4Z" transform="translate(-828.226 -1912.906)" fill="#363e44"/>
      </g>
      <g id="Grupo_84568" data-name="Grupo 84568" transform="translate(51.042 37.548)">
        <path id="Trazado_118270" data-name="Trazado 118270" d="M1254.532,1804.125a.269.269,0,0,1-.269-.268,6.3,6.3,0,0,1,6.006-6.559.265.265,0,0,1,.2.07.27.27,0,0,1,.087.2,6.3,6.3,0,0,1-6.006,6.559Zm5.477-6.25a5.69,5.69,0,1,0-1.493,3.846A6.672,6.672,0,0,0,1260.008,1797.875Z" transform="translate(-1248.635 -1797.206)" fill="#363e44"/>
        <path id="Trazado_118271" data-name="Trazado 118271" d="M1213.981,1803.493l-.028,0a6.3,6.3,0,0,1-5.871-6.68.268.268,0,0,1,.091-.195.265.265,0,0,1,.205-.065,6.3,6.3,0,0,1,5.871,6.68.269.269,0,0,1-.269.262Zm-5.353-6.36a5.689,5.689,0,1,0,3.662,1.9A6.672,6.672,0,0,0,1208.628,1797.133Z" transform="translate(-1208.082 -1796.549)" fill="#363e44"/>
        <path id="Trazado_118272" data-name="Trazado 118272" d="M1254.009,1856.915a.269.269,0,0,1-.237-.4c.83-1.555.535-2.411.185-2.983-.133-.218-.285-.423-.446-.639a4.339,4.339,0,0,1-.969-1.957,4.447,4.447,0,0,1,.213-1.972.269.269,0,1,1,.511.167,3.9,3.9,0,0,0-.193,1.719,3.853,3.853,0,0,0,.87,1.723c.161.216.327.44.474.679.391.64.8,1.7-.17,3.516A.269.269,0,0,1,1254.009,1856.915Z" transform="translate(-1247.09 -1842.417)" fill="#363e44"/>
      </g>
      <g id="Grupo_84569" data-name="Grupo 84569" transform="translate(25.824 53.882)">
        <path id="Trazado_118273" data-name="Trazado 118273" d="M1047.587,1938.169a.269.269,0,0,1-.269-.267,6.3,6.3,0,0,1,6.006-6.559.269.269,0,0,1,.291.266,6.3,6.3,0,0,1-6.006,6.559Zm5.477-6.25a5.69,5.69,0,1,0-1.493,3.846A6.673,6.673,0,0,0,1053.063,1931.919Z" transform="translate(-1041.69 -1931.25)" fill="#363e44"/>
        <path id="Trazado_118274" data-name="Trazado 118274" d="M1007.034,1937.537h-.028a6.3,6.3,0,0,1-5.871-6.68.268.268,0,0,1,.091-.2.264.264,0,0,1,.205-.065,6.3,6.3,0,0,1,5.871,6.68.269.269,0,0,1-.269.262Zm-5.353-6.36a5.689,5.689,0,1,0,3.662,1.9A6.671,6.671,0,0,0,1001.681,1931.177Z" transform="translate(-1001.135 -1930.593)" fill="#363e44"/>
        <path id="Trazado_118275" data-name="Trazado 118275" d="M1047.063,1990.959a.264.264,0,0,1-.126-.032.268.268,0,0,1-.11-.363c.83-1.555.535-2.411.185-2.983-.133-.219-.285-.423-.446-.639a4.338,4.338,0,0,1-.969-1.957,4.453,4.453,0,0,1,.213-1.972.269.269,0,0,1,.511.166,3.915,3.915,0,0,0-.193,1.72,3.852,3.852,0,0,0,.87,1.723c.161.217.327.44.473.679.391.64.8,1.7-.17,3.516A.268.268,0,0,1,1047.063,1990.959Z" transform="translate(-1040.145 -1976.462)" fill="#363e44"/>
      </g>
    </g>
  </g>
</svg>
