<svg xmlns="http://www.w3.org/2000/svg" width="216.094" height="216.162" viewBox="0 0 216.094 216.162">
  <g id="Global_warming" data-name="Global warming" transform="translate(-335.289 -335)">
    <ellipse id="Elipse_4977" data-name="Elipse 4977" cx="108.047" cy="108.081" rx="108.047" ry="108.081" transform="translate(335.289 335)" fill="#f2e6dc"/>
    <g id="Grupo_85089" data-name="Grupo 85089" transform="translate(342.82 341.988)">
      <g id="Grupo_85085" data-name="Grupo 85085" transform="translate(7.265 0)">
        <path id="Trazado_120257" data-name="Trazado 120257" d="M460.55,437.3h20.581l-.984-17.827-5.135-6.774,4.387-6.774-.649-11.766H462.93l-.649,11.766,4.387,6.774-5.135,6.774Z" transform="translate(-460.55 -394.161)" fill="#363e44"/>
        <path id="Trazado_120258" data-name="Trazado 120258" d="M487.491,507.32H468.877l.748-13.549h17.119Z" transform="translate(-467.893 -482.005)" fill="#d87355"/>
      </g>
      <g id="Grupo_85086" data-name="Grupo 85086" transform="translate(31.069 0)">
        <path id="Trazado_120259" data-name="Trazado 120259" d="M662.07,437.3h20.581l-.984-17.827-5.135-6.774,4.387-6.774-.649-11.766h-15.82l-.649,11.766,4.387,6.774-5.135,6.774Z" transform="translate(-662.07 -394.161)" fill="#363e44"/>
        <path id="Trazado_120260" data-name="Trazado 120260" d="M689.011,507.32H670.4l.748-13.549h17.119Z" transform="translate(-669.414 -482.005)" fill="#d87355"/>
      </g>
      <g id="Grupo_85087" data-name="Grupo 85087" transform="translate(0 43.142)">
        <rect id="Rectángulo_34513" data-name="Rectángulo 34513" width="59.673" height="17.988" transform="translate(59.673 17.988) rotate(180)" fill="#d3bba3"/>
        <rect id="Rectángulo_34514" data-name="Rectángulo 34514" width="56.535" height="3.013" transform="translate(58.138 7.08) rotate(180)" fill="#e6d0be"/>
        <rect id="Rectángulo_34515" data-name="Rectángulo 34515" width="56.535" height="3.013" transform="translate(58.138 13.647) rotate(180)" fill="#e6d0be"/>
      </g>
      <g id="Grupo_85088" data-name="Grupo 85088" transform="translate(55.59 16.635)">
        <path id="Trazado_120261" data-name="Trazado 120261" d="M879.187,546.372V534.994l9.522,11.378V534.994l9.522,11.378V534.994l18.612,26.672H869.666V534.994Z" transform="translate(-869.666 -534.994)" fill="#d3bba3"/>
        <rect id="Rectángulo_34516" data-name="Rectángulo 34516" width="43.144" height="26.741" transform="translate(47.134 44.495) rotate(180)" fill="#e6d0be"/>
        <rect id="Rectángulo_34517" data-name="Rectángulo 34517" width="9.43" height="6.271" transform="translate(17.334 28.788) rotate(180)" fill="#d3bba3"/>
        <rect id="Rectángulo_34518" data-name="Rectángulo 34518" width="9.43" height="6.271" transform="translate(17.334 39.732) rotate(180)" fill="#d3bba3"/>
        <rect id="Rectángulo_34519" data-name="Rectángulo 34519" width="9.43" height="6.271" transform="translate(30.303 28.788) rotate(180)" fill="#d3bba3"/>
        <rect id="Rectángulo_34520" data-name="Rectángulo 34520" width="9.43" height="6.271" transform="translate(30.303 39.732) rotate(180)" fill="#d3bba3"/>
        <rect id="Rectángulo_34521" data-name="Rectángulo 34521" width="9.43" height="6.271" transform="translate(43.272 28.788) rotate(180)" fill="#d3bba3"/>
        <rect id="Rectángulo_34522" data-name="Rectángulo 34522" width="9.43" height="6.271" transform="translate(43.272 39.732) rotate(180)" fill="#d3bba3"/>
      </g>
    </g>
    <path id="Trazado_120262" data-name="Trazado 120262" d="M903.975,379.925a37.965,37.965,0,0,0-37.959-37.971c-9.834,0-20.787,4.8-30.251,11.413l-84.208,56.717,97.984,70.634,48.438-80.3A37.8,37.8,0,0,0,903.975,379.925Z" transform="translate(-367.098 -6.133)" fill="#ffd092" opacity="0.4"/>
    <g id="Grupo_85091" data-name="Grupo 85091" transform="translate(340.342 384.385)">
      <path id="Trazado_120263" data-name="Trazado 120263" d="M514.348,824.4s4.115,27.849-2.191,38.485a72.083,72.083,0,0,1-128.581-64.392c3.618-8.7,21.474-14.1,21.474-14.1s5.959-19.287,13.089-22.827A72.159,72.159,0,0,1,486.12,763.7c3.686,2.13,7.935,10.635,7.935,10.635s7.337,1.062,9.535,3.493a72.222,72.222,0,0,1,11.551,17.2C519.718,804.581,514.348,824.4,514.348,824.4Z" transform="translate(-378.073 -753.968)" fill="#d3bba3"/>
      <path id="Trazado_120264" data-name="Trazado 120264" d="M479.495,833.72c-2.063,1.243-.939,4.475-3,5.634-3.526,1.987-12.958-4.065-12.407-8.6.6-4.9,12.986-8.828,17.475-5.037,2.89,2.441,1.348,7.1,4.147,8.3,2.373,1.014,6.517-1.037,7.405-4.148,1.173-4.108-4.006-7.7-4.443-8-5.238-3.537-12.451-1.6-15.106-.889-5.734,1.539-7.038,3.795-9.774,2.963-2.89-.878-3.487-4.017-4.529-6.527a72.333,72.333,0,0,0-34.559,36.925c2.573,3.648,8.842,4.081,10.95,10.49,1.109,3.37.335,6.17,2.666,8,2.373,1.863,4.91.321,6.812,2.37,1.128,1.216.682,2.239,1.481,6.518.771,4.13,1.157,6.195,2.37,7.407,3.5,3.5,12.1.826,12.144-.593.03-.939-3.711-.66-5.035-3.259-1.381-2.711,1.574-5.2.3-7.7-1.4-2.75-5.8-1.4-7.109-3.852-1.354-2.526,1.229-7.875,5.331-10.074,6.017-3.226,10.307,3,16.291.593,7.446-3,5.285-14.448,14.217-18.666,4.5-2.127,7.966-.592,8.59-2.37C494.892,839.836,483.589,831.253,479.495,833.72Z" transform="translate(-419.199 -809.816)" fill="#f7f1eb"/>
      <path id="Trazado_120265" data-name="Trazado 120265" d="M746.528,1372.8a17.932,17.932,0,0,1,10.974-.379,18.861,18.861,0,0,1,7.714,3.721c4.857,4,3.429,7.315,7.517,10.026,4.419,2.93,9.27,1.168,10.023,3.446.408,1.233-1,1.8-2.192,4.7-2.119,5.148.048,8.864-2.193,10.339a9.674,9.674,0,0,1-3.758.94,14.938,14.938,0,0,1-.626,5.326c-.6,1.616-1.234,1.564-2.819,3.76-2.22,3.075-1.607,4.061-3.222,6.082-2.415,3.022-4.724,1.992-6.174,4.048-3.058,4.337,4.826,12.309,2.506,15.039-1.757,2.067-8.959.645-12.111-3.76-2.223-3.106-.58-5.108-1.879-12.741a65.1,65.1,0,0,0-4.176-13.785c-2.381-5.7-4.177-7.81-3.513-11.445.572-3.128,2.273-3.594,2.051-5.891-.423-4.374-6.791-4.744-7.517-8.772S741.859,1374.627,746.528,1372.8Z" transform="translate(-694.661 -1298.655)" fill="#f7f1eb"/>
      <path id="Trazado_120266" data-name="Trazado 120266" d="M1250.684,1082.076c-10.032-2.413-12.638-3.134-17-1.939-3.771,1.033-6.8,2.967-12.859,6.833-5.777,3.687-6.794,5.258-7.233,6.029-2.5,4.385-1.295,9.24,0,14.471,1.13,4.566,2.365,9.555,5.626,10.451,1.563.429,2.388-.412,7.233-2.412,6.188-2.553,9.282-3.83,10.448-2.814,2.323,2.025-5.048,9.872-2.009,15.676,2.033,3.883,6.8,3.183,8.438,7.637,1.113,3.036-.677,4.52,0,7.637a11.571,11.571,0,0,0,4.369,6.271,72.193,72.193,0,0,0,2.986-67.841Z" transform="translate(-1113.617 -1041.006)" fill="#f7f1eb"/>
      <g id="Grupo_85090" data-name="Grupo 85090" transform="translate(4.208 0)">
        <path id="Trazado_120267" data-name="Trazado 120267" d="M485.888,897.486h-.429a72.427,72.427,0,1,1,.429,0Zm-.025-144.164A71.969,71.969,0,1,0,557.814,825.7h0a72.034,72.034,0,0,0-71.526-72.377Z" transform="translate(-413.697 -753.086)" fill="#363e44"/>
      </g>
      <path id="Trazado_120268" data-name="Trazado 120268" d="M1182.991,849.669a72.37,72.37,0,0,0-17.47-14.128,8.664,8.664,0,0,0,.369,5.675c1.109,2.248,3.413,3.128,3.215,5.225-.2,2.069-2.682,3.8-4.822,4.422-3.65,1.062-5.968-1.193-7.233,0-1.9,1.791,2.357,7.79.4,9.647-1.28,1.216-3.594-.89-6.028.4-2.3,1.223-3.8,5.009-2.411,7.637,1.083,2.043,3.642,2.87,5.625,2.814,1.664-.047,3.9-.744,10.046-7.637,5.68-6.369,6.492-8.824,8.84-8.843,3.946-.032,6.88,6.856,7.635,6.431.7-.394-3.259-5.532-2.009-8.843C1179.678,851.071,1181.066,850.2,1182.991,849.669Z" transform="translate(-1057.474 -825.801)" fill="#f7f1eb"/>
    </g>
    <g id="Grupo_85092" data-name="Grupo 85092" transform="translate(347.681 456.585)">
      <rect id="Rectángulo_34523" data-name="Rectángulo 34523" width="12.551" height="68.364" rx="6.276" transform="translate(8.993)" fill="#fff"/>
      <path id="Trazado_120269" data-name="Trazado 120269" d="M603.691,1440.183h-2.413a.118.118,0,0,1,0-.236h2.413a.118.118,0,0,1,0,.236Z" transform="translate(-582.147 -1431.014)" fill="#363e44"/>
      <path id="Trazado_120270" data-name="Trazado 120270" d="M603.691,1506.328h-2.413a.118.118,0,0,1,0-.236h2.413a.118.118,0,0,1,0,.236Z" transform="translate(-582.147 -1489.346)" fill="#363e44"/>
      <path id="Trazado_120271" data-name="Trazado 120271" d="M603.691,1572.473h-2.413a.118.118,0,0,1,0-.236h2.413a.118.118,0,0,1,0,.236Z" transform="translate(-582.147 -1547.678)" fill="#363e44"/>
      <path id="Trazado_120272" data-name="Trazado 120272" d="M603.691,1638.617h-2.413a.118.118,0,0,1,0-.236h2.413a.118.118,0,0,1,0,.236Z" transform="translate(-582.147 -1606.009)" fill="#363e44"/>
      <path id="Trazado_120273" data-name="Trazado 120273" d="M603.691,1704.762h-2.413a.118.118,0,1,1,0-.236h2.413a.118.118,0,1,1,0,.236Z" transform="translate(-582.147 -1664.341)" fill="#363e44"/>
      <path id="Trazado_120274" data-name="Trazado 120274" d="M603.691,1770.906h-2.413a.118.118,0,1,1,0-.236h2.413a.118.118,0,1,1,0,.236Z" transform="translate(-582.147 -1722.672)" fill="#363e44"/>
      <ellipse id="Elipse_4978" data-name="Elipse 4978" cx="15.268" cy="15.273" rx="15.268" ry="15.273" transform="translate(0 50.907)" fill="#fff"/>
      <ellipse id="Elipse_4979" data-name="Elipse 4979" cx="6.276" cy="6.278" rx="6.276" ry="6.278" transform="translate(8.993 59.902)" fill="#d87355"/>
      <rect id="Rectángulo_34524" data-name="Rectángulo 34524" width="2.456" height="60.425" rx="1.228" transform="translate(14.04 6.423)" fill="#d87355"/>
    </g>
    <g id="Grupo_85094" data-name="Grupo 85094" transform="translate(407.324 335.703)">
      <path id="Trazado_120275" data-name="Trazado 120275" d="M1011.5,449.921a.119.119,0,0,1-.118-.118.122.122,0,0,1,.005-.036l20.948-65.675L1006.892,434a.118.118,0,0,1-.21-.107l25.107-49.258a.118.118,0,0,1-.1-.107l-27.44,36.5a.118.118,0,0,1-.212-.071.116.116,0,0,1,.024-.071l28.047-37.3L989.572,420.8a.118.118,0,1,1-.155-.178l36.911-32.291a.117.117,0,0,1,.033-.047l5.866-5.115-51.844,22.761a.118.118,0,0,1-.095-.216L1027.7,384.9a.118.118,0,0,1,.045-.034l3.705-1.616L963.595,400.99a.118.118,0,0,1-.144-.084.114.114,0,0,1,0-.03.118.118,0,0,1,.088-.114l67.429-17.634L984.107,389.5a.118.118,0,0,1-.133-.1.114.114,0,0,1,0-.016.118.118,0,0,1,.1-.117l47.066-6.4H991.047a.118.118,0,1,1,0-.236h39.436l-85.251-8.4a.118.118,0,0,1-.107-.117.114.114,0,0,1,0-.012.119.119,0,0,1,.129-.106l85.5,8.425L1020.2,380.2a.118.118,0,0,1-.094-.115.126.126,0,0,1,0-.025.118.118,0,0,1,.14-.091l7.672,1.616-2.078-.54a.118.118,0,0,1-.088-.1l-58.069-15.73a.118.118,0,0,1-.087-.114.113.113,0,0,1,0-.031.118.118,0,0,1,.145-.083l56.771,15.378a.118.118,0,0,1,.1-.02l7.171,1.984-58.068-29.617a.118.118,0,1,1,.107-.21l57.161,29.154a.123.123,0,0,1,.016-.041.118.118,0,0,1,.092-.057L986.54,348.026a.118.118,0,0,1,.142-.189l44.628,33.576-31.442-29.851a.118.118,0,1,1,.163-.171l31.127,29.551-3.981-4.568a.118.118,0,1,1,.178-.155l4.781,5.487-23.916-40.574a.118.118,0,0,1,.2-.12l23.579,40-1.446-3.317a.118.118,0,0,1,.217-.095l1.959,4.494-1.493-26.869a.067.067,0,0,1,0-.007.118.118,0,0,1,.112-.118.116.116,0,0,1,.124.111l1.487,26.77,1.63-6.282a.119.119,0,0,1,.143-.085l.332-1.2a.118.118,0,1,1,.228.063l-2.067,7.476.634-1.047a.118.118,0,1,1,.2.122l-.683,1.127,5.876-5.124a.118.118,0,0,1,.167.011.117.117,0,0,1,.029.078.119.119,0,0,1-.04.089l-5.871,5.12,4.392-1.916a.118.118,0,0,1,.156.061.12.12,0,0,1,.01.047.118.118,0,0,1-.071.108l-4.756,2.075,12.3,2.592a.118.118,0,0,1,.094.115.128.128,0,0,1,0,.024.119.119,0,0,1-.14.091l-7.671-1.616,2.078.539a.118.118,0,0,1,.089.115.114.114,0,0,1,0,.028l1.2.332a.118.118,0,0,1-.063.228l-7.474-2.067,1.047.635a.118.118,0,0,1-.123.2l-1.127-.683,5.123,5.878a.118.118,0,1,1-.178.155L1033.3,383.4l1.915,4.394a.118.118,0,0,1-.217.094l-1.313-3.012,17.093,53.872a.118.118,0,0,1-.225.071l-17.155-54.07,6.954,35.577a.124.124,0,0,1,0,.023.118.118,0,0,1-.234.022l-7.02-35.911,2.207,39.117s0,0,0,.007a.117.117,0,0,1-.031.079l.679,12.212s0,0,0,.007a.118.118,0,0,1-.236.006l-2.875-51.746-4.826,42.367a.118.118,0,0,1-.235-.013.086.086,0,0,1,0-.014l4.794-42.084-1.4,5.39a.118.118,0,0,1-.143.085l-.332,1.2a.118.118,0,1,1-.228-.063l.682-2.467-19.55,61.292A.118.118,0,0,1,1011.5,449.921Z" transform="translate(-945.125 -340.954)" fill="#efbc73"/>
      <g id="Grupo_85093" data-name="Grupo 85093" transform="translate(57.967 9.866)">
        <ellipse id="Elipse_4980" data-name="Elipse 4980" cx="30.251" cy="30.26" rx="30.251" ry="30.26" fill="#efbc73"/>
      </g>
    </g>
    <g id="Grupo_85097" data-name="Grupo 85097" transform="translate(514.751 390.132)">
      <g id="Grupo_85095" data-name="Grupo 85095" transform="translate(0 0.118)">
        <path id="Trazado_120276" data-name="Trazado 120276" d="M1868.864,843.889H1857.2l-2.6-41.144h16.874Z" transform="translate(-1854.593 -802.744)" fill="#d87355"/>
        <rect id="Rectángulo_34525" data-name="Rectángulo 34525" width="11.667" height="9.955" transform="translate(2.604 46.816)" fill="#d87355"/>
      </g>
      <g id="Grupo_85096" data-name="Grupo 85096" transform="translate(2.485 0)">
        <path id="Trazado_120277" data-name="Trazado 120277" d="M1890.023,843.125h-11.667a.118.118,0,0,1-.118-.111l-2.6-41.145a.118.118,0,0,1,.118-.126h16.874a.118.118,0,0,1,.118.126l-2.6,41.145A.118.118,0,0,1,1890.023,843.125Zm-11.556-.236h11.446l2.589-40.908h-16.623Z" transform="translate(-1875.634 -801.744)" fill="#363e44"/>
        <path id="Trazado_120278" data-name="Trazado 120278" d="M1909.461,1208.271h-11.667a.118.118,0,0,1-.118-.118V1198.2a.118.118,0,0,1,.118-.118h11.667a.118.118,0,0,1,.118.118v9.955A.118.118,0,0,1,1909.461,1208.271Zm-11.549-.236h11.431v-9.719h-11.431Z" transform="translate(-1895.072 -1151.264)" fill="#363e44"/>
      </g>
    </g>
    <rect id="Rectángulo_34526" data-name="Rectángulo 34526" width="84.581" height="82.092" transform="translate(550.925 550.952) rotate(180)" fill="#9e9569"/>
    <g id="Grupo_85112" data-name="Grupo 85112" transform="translate(403.669 401.959)">
      <g id="Grupo_85105" data-name="Grupo 85105" transform="translate(0)">
        <path id="Trazado_120279" data-name="Trazado 120279" d="M1775.116,1588.668c4.257,10.595,18.683,40.229,4.254,47.343-11.935,5.885-24.514-23.717-29.521-33.894Z" transform="translate(-1651.139 -1507.542)" fill="#e2a18d"/>
        <path id="Trazado_120280" data-name="Trazado 120280" d="M1088.365,1526.389c-11.026,2.957-46.437,18.557-51.768,3.375-4.409-12.558,29.33-22.742,40.031-26.494C1080.067,1512.171,1084.925,1517.487,1088.365,1526.389Z" transform="translate(-1021.789 -1432.23)" fill="#e2a18d"/>
        <g id="Grupo_85101" data-name="Grupo 85101">
          <path id="Trazado_120281" data-name="Trazado 120281" d="M1038.151,1384.684c-5.264-5.188,3.863-22.1,4.895-23.629,7.095-10.508,21.929-27.953,27.432-24.27,5.187,3.471,3.729,17.646-8.355,33.038C1051.372,1383.516,1042.5,1388.972,1038.151,1384.684Z" transform="translate(-1022.076 -1284.97)" fill="#e2a18d"/>
          <g id="Grupo_85099" data-name="Grupo 85099">
            <path id="Trazado_120282" data-name="Trazado 120282" d="M1162.235,1274.049h0a5.232,5.232,0,0,0,7.35-.663l16.456-18.173-7.031-6.522-16.667,17.977A5.236,5.236,0,0,0,1162.235,1274.049Z" transform="translate(-1131.64 -1207.722)" fill="#84524d"/>
            <ellipse id="Elipse_4981" data-name="Elipse 4981" cx="8.393" cy="8.701" rx="8.393" ry="8.701" transform="translate(0 20.452) rotate(-62.205)" fill="#363e44"/>
            <path id="Trazado_120283" data-name="Trazado 120283" d="M986.607,931.495l-7.187,13.759-42.493-9.219,17.849-34.17Z" transform="translate(-934.241 -901.865)" fill="#d87355"/>
            <rect id="Rectángulo_34527" data-name="Rectángulo 34527" width="15.482" height="10.348" transform="translate(45.187 43.369) rotate(-62.405)" fill="#efbc73"/>
            <g id="Grupo_85098" data-name="Grupo 85098" transform="translate(47.681 32.345)">
              <rect id="Rectángulo_34528" data-name="Rectángulo 34528" width="2.727" height="7.36" transform="translate(0 9.885) rotate(-62.405)" fill="#e0aa63"/>
              <rect id="Rectángulo_34529" data-name="Rectángulo 34529" width="2.727" height="7.36" transform="translate(1.951 6.151) rotate(-62.405)" fill="#e0aa63"/>
              <rect id="Rectángulo_34530" data-name="Rectángulo 34530" width="2.727" height="7.36" transform="translate(3.901 2.417) rotate(-62.405)" fill="#e0aa63"/>
            </g>
          </g>
          <g id="Grupo_85100" data-name="Grupo 85100" transform="translate(30.069 44.616)">
            <path id="Trazado_120284" data-name="Trazado 120284" d="M1237.963,1280c.816-.8,2.508-.351,3.949.458,2.346,1.316,3.784,4.055,2.583,5.373-.842.923-3.555.376-5.615-1.825C1237.533,1282.568,1237.135,1280.816,1237.963,1280Z" transform="translate(-1229.407 -1279.58)" fill="#e2a18d"/>
            <path id="Trazado_120285" data-name="Trazado 120285" d="M1169.473,1357c.97-.609,2.682.042,3.759,1.3,1.641,1.91,2.824,4.774,1.368,5.8-1.021.72-3.553-.4-5.092-2.989C1168.5,1359.417,1168.49,1357.62,1169.473,1357Z" transform="translate(-1168.744 -1347.654)" fill="#e2a18d"/>
            <path id="Trazado_120286" data-name="Trazado 120286" d="M1213.248,1305.723c.9-.849,2.9-.566,4.36.485,2.222,1.6,4.178,4.291,2.851,5.684-.929.976-3.925.4-6.2-1.93C1212.773,1308.438,1212.334,1306.584,1213.248,1305.723Z" transform="translate(-1207.572 -1302.195)" fill="#e2a18d"/>
            <path id="Trazado_120287" data-name="Trazado 120287" d="M1189.207,1330.324c1-.736,2.948-.216,4.271,1,2.016,1.854,3.636,4.759,2.153,5.984-1.039.859-3.944-.073-5.925-2.656C1188.412,1332.963,1188.2,1331.07,1189.207,1330.324Z" transform="translate(-1186.23 -1324.031)" fill="#e2a18d"/>
          </g>
          <path id="Trazado_120288" data-name="Trazado 120288" d="M1277.938,1345.989a11.031,11.031,0,0,0,2.53-5.9c.576-5.031-1.848-10.48-3.713-10.424a2.716,2.716,0,0,0-2.432,2.756c-.076,2.285.747,3.3.635,5.032-.147,2.271-2.8,2.994-3.354,5.482C1270.616,1347.414,1275.857,1348.042,1277.938,1345.989Z" transform="translate(-1229.277 -1279.131)" fill="#e2a18d"/>
        </g>
        <path id="Trazado_120289" data-name="Trazado 120289" d="M1341.066,1490.415l19.746-19.469s-17.946-16.165-41.94-18.419c-24.964-2.345-47.391,6.5-47.391,6.5l3.109,31.982s2.438-.6,8.245-4.306l1.514,49.418h62.118Z" transform="translate(-1229.277 -1387.133)" fill="#363e44"/>
        <g id="Grupo_85104" data-name="Grupo 85104" transform="translate(53.558 95.987)">
          <g id="Grupo_85102" data-name="Grupo 85102">
            <path id="Trazado_120290" data-name="Trazado 120290" d="M1437.708,1726.061h0c-23.4-4.048-39.918-7.368-45.059-8.193a9.584,9.584,0,0,0-2.731-.1c-4.606.513-5.862,4.256-10.46,7.006-5.216,3.121-9.92,1.923-10.169,3.456-.173,1.066,1.474,2.018,5.266,2.576h0c-2.93-.093-6.91-.046-6.956,1.574.046,1.873,4.728,2.367,7.575,2.527-3.446-.194-5.336.735-5.137,1.644.313,1.432,2.95,2.2,7.515,2.284h0c-3.167.826-3.812,1.5-3.44,2.26.679,1.39,4.432,1.384,7.75.871a19.376,19.376,0,0,0,8.1-3.463h0c16.092,4.534,35.3,9.731,48.156,12.015C1440.844,1751,1437.6,1734.908,1437.708,1726.061Z" transform="translate(-1367.599 -1717.326)" fill="#e2a18d"/>
            <path id="Trazado_120291" data-name="Trazado 120291" d="M1453.188,1720.38c-5.848-1.4-7.661-3.148-7.409-4.068.423-1.547,5.906-2.395,14.712-1.423C1458.593,1716.6,1455.085,1718.668,1453.188,1720.38Z" transform="translate(-1436.524 -1714.476)" fill="#e2a18d"/>
          </g>
          <path id="Trazado_120292" data-name="Trazado 120292" d="M1840.794,1766.468l-.02,0c-5.165-.894-10.3-1.805-15.7-2.785a.118.118,0,1,1,.042-.232c5.4.98,10.533,1.891,15.7,2.785a.118.118,0,0,1-.02.234Z" transform="translate(-1770.951 -1757.662)" fill="#363e44"/>
          <g id="Grupo_85103" data-name="Grupo 85103" transform="translate(6.943 1.428)">
            <path id="Trazado_120293" data-name="Trazado 120293" d="M1492.207,1730.767a.118.118,0,0,1-.078-.207c.541-.475,1.036-.949,1.516-1.409a17.025,17.025,0,0,1,3.141-2.573.118.118,0,1,1,.118.2,16.858,16.858,0,0,0-3.1,2.539c-.481.461-.979.938-1.523,1.416A.118.118,0,0,1,1492.207,1730.767Z" transform="translate(-1484.327 -1726.563)" fill="#363e44"/>
            <path id="Trazado_120294" data-name="Trazado 120294" d="M1426.495,1815.882a.118.118,0,0,1-.005-.236,11.75,11.75,0,0,0,5.085-1.422.118.118,0,0,1,.113.208,11.989,11.989,0,0,1-5.187,1.45Z" transform="translate(-1426.377 -1803.857)" fill="#363e44"/>
            <path id="Trazado_120295" data-name="Trazado 120295" d="M1427.96,1850.258a.118.118,0,0,1-.005-.236,11.748,11.748,0,0,0,5.085-1.421.118.118,0,0,1,.113.208,11.99,11.99,0,0,1-5.187,1.45Z" transform="translate(-1427.669 -1834.172)" fill="#363e44"/>
            <path id="Trazado_120296" data-name="Trazado 120296" d="M1451.676,1884.745a.118.118,0,0,1-.005-.236,11.757,11.757,0,0,0,5.085-1.422.118.118,0,0,1,.113.208,11.994,11.994,0,0,1-5.187,1.45Z" transform="translate(-1448.583 -1864.586)" fill="#363e44"/>
          </g>
        </g>
      </g>
      <g id="Grupo_85111" data-name="Grupo 85111" transform="translate(71.548 31.578)">
        <path id="Trazado_120297" data-name="Trazado 120297" d="M1570.207,1339.355h0a6.685,6.685,0,0,0,4.689-8.209l-3.7-13.558a6.685,6.685,0,0,0-8.21-4.69h0a6.686,6.686,0,0,0-4.69,8.209l3.7,13.558A6.685,6.685,0,0,0,1570.207,1339.355Z" transform="translate(-1553.553 -1295.715)" fill="#e2a18d"/>
        <path id="Trazado_120298" data-name="Trazado 120298" d="M1538.838,1224.908c-.45-.285-4.8-2.953-9.1-1.231-3.2,1.281-4.945,4.123-7.148,9.331-2.594,6.134-3.289,10.163-2.174,12.2,1.761,3.213,11.931,3.164,17.586-.477a13.381,13.381,0,0,0,5.816-12.437C1543.365,1227.434,1539.125,1225.09,1538.838,1224.908Z" transform="translate(-1519.898 -1216.735)" fill="#e2a18d"/>
        <g id="Grupo_85108" data-name="Grupo 85108" transform="translate(1.375 9.029)">
          <g id="Grupo_85106" data-name="Grupo 85106">
            <path id="Trazado_120299" data-name="Trazado 120299" d="M1534.352,1247.261c-.015.042-.055.061-.07.1,0,0,0,0,0,.005a10.5,10.5,0,0,1-1.241,1.432,5.815,5.815,0,0,1-.636.39c-.156.112-.3.219-.463.323a8.8,8.8,0,0,1-.314-3.88A9.254,9.254,0,0,1,1534.352,1247.261Z" transform="translate(-1531.538 -1245.634)" fill="#fff"/>
            <path id="Trazado_120300" data-name="Trazado 120300" d="M1535.526,1262.877a6.206,6.206,0,0,1-.534-1.177,3.408,3.408,0,0,1,2.408-2.265,6.535,6.535,0,0,1,1.308,1.556,8.226,8.226,0,0,1,.864,5l-.1.036A8.21,8.21,0,0,1,1535.526,1262.877Z" transform="translate(-1534.584 -1257.805)" fill="#363e44"/>
          </g>
          <g id="Grupo_85107" data-name="Grupo 85107" transform="translate(7.597 9.033)">
            <path id="Trazado_120301" data-name="Trazado 120301" d="M1599.589,1323.674a2.942,2.942,0,0,1-1.3,1.441,8.934,8.934,0,0,1-2.431-2.118,8.9,8.9,0,0,1,4.316-.87A5,5,0,0,1,1599.589,1323.674Z" transform="translate(-1595.853 -1322.103)" fill="#fff"/>
            <path id="Trazado_120302" data-name="Trazado 120302" d="M1618.57,1322.308a5.957,5.957,0,0,1,.765.12,2.755,2.755,0,1,1-.813,3.609,6.49,6.49,0,0,1-1.81-.724A3.465,3.465,0,0,1,1618.57,1322.308Z" transform="translate(-1614.248 -1322.284)" fill="#363e44"/>
          </g>
        </g>
        <path id="Trazado_120303" data-name="Trazado 120303" d="M1595.358,1197.226a6.734,6.734,0,0,1,3.364,6.1c-.349,6.052-3.312,9.367-10.219,11.149.813-2.007.409-5.34.159-7.115a6.366,6.366,0,0,1,1.589-5.535c-6.429-2.582-8.493-3.836-8.342-4.366.159-.553,2.75-.514,2.75-.514s-5.717-.5-5.783-1.313c-.02-.253.226-.9,2.892-1.566-5.487.665-5.812.259-5.9-.027-.248-.843,2.28-3.751,6.017-5.237a10.027,10.027,0,0,1,7.657.5C1594.3,1191.489,1595.569,1195.648,1595.358,1197.226Z" transform="translate(-1569.245 -1186.009)" fill="#84524d"/>
        <g id="Grupo_85109" data-name="Grupo 85109" transform="translate(16.03 21.773)">
          <path id="Trazado_120304" data-name="Trazado 120304" d="M1657.25,1354.447c-1.686,1.312-2.155,3.531-1.046,4.957s3.374,1.518,5.061.206,2.155-3.531,1.046-4.957S1658.936,1353.135,1657.25,1354.447Z" transform="translate(-1655.603 -1353.521)" fill="#e2a18d"/>
          <path id="Trazado_120305" data-name="Trazado 120305" d="M1691.472,1371.869a.118.118,0,0,1-.056-.222,2.22,2.22,0,0,0,.316-.206,1.719,1.719,0,0,0,.511-2.354,1.318,1.318,0,0,0-.477-.382.118.118,0,0,1,.1-.213,1.551,1.551,0,0,1,.561.45,1.953,1.953,0,0,1-.552,2.685,2.446,2.446,0,0,1-.35.228A.116.116,0,0,1,1691.472,1371.869Z" transform="translate(-1687.131 -1366.714)" fill="#363e44"/>
        </g>
        <path id="Trazado_120306" data-name="Trazado 120306" d="M1555.9,1321.625a.118.118,0,0,1-.117-.1,1.133,1.133,0,0,1,1-1.408,3.339,3.339,0,0,0,.733-.273,2.806,2.806,0,0,0,.91-.8.118.118,0,0,1,.189.142,3.039,3.039,0,0,1-.987.866,3.532,3.532,0,0,1-.781.293,1.109,1.109,0,0,0-.663.344,1.085,1.085,0,0,0-.161.808.118.118,0,0,1-.1.131Z" transform="translate(-1551.527 -1301.298)" fill="#363e44"/>
        <path id="Trazado_120307" data-name="Trazado 120307" d="M1573.235,1418.748c-.557,0-1.143-.022-1.757-.072a.118.118,0,1,1,.019-.235,16.672,16.672,0,0,0,8.656-1.3.118.118,0,0,1,.113.207A15.927,15.927,0,0,1,1573.235,1418.748Z" transform="translate(-1565.29 -1387.84)" fill="#363e44"/>
        <path id="Trazado_120308" data-name="Trazado 120308" d="M1559.892,1369.576a1.688,1.688,0,1,0,3.289-.757c-.209-.909-.736.169-1.645.378S1559.683,1368.667,1559.892,1369.576Z" transform="translate(-1555.142 -1344.923)" fill="#363e44"/>
        <g id="Grupo_85110" data-name="Grupo 85110" transform="translate(12.248)">
          <path id="Trazado_120309" data-name="Trazado 120309" d="M1632.016,1184.825c-2-6.568-7.056-9.331-8.432-10.3a5.626,5.626,0,0,1,1.634-3.9c2.342-2.167,7.493-2.015,11.773,1.515-.4-.146-2.572-.322-3.092.074a7.34,7.34,0,0,1,4.25,1.407c3.188,2.115,4.533,6.7,3.194,11.71a5.223,5.223,0,0,0-.857-2.679,10.778,10.778,0,0,1,.277,2.723,12.79,12.79,0,0,1-4.012,8.5A12.078,12.078,0,0,0,1632.016,1184.825Z" transform="translate(-1623.584 -1169.197)" fill="#84524d"/>
          <path id="Trazado_120310" data-name="Trazado 120310" d="M1667.653,1231.139a.118.118,0,0,1-.062-.017,18.389,18.389,0,0,0-6.255-2.4.118.118,0,0,1-.052-.209,5.546,5.546,0,0,1,5.82-.662.118.118,0,1,1-.1.214,5.307,5.307,0,0,0-5.362.476,18.636,18.636,0,0,1,6.073,2.381.118.118,0,0,1-.062.219Z" transform="translate(-1656.792 -1220.449)" fill="#363e44"/>
        </g>
      </g>
    </g>
  </g>
</svg>
