<svg xmlns="http://www.w3.org/2000/svg" xmlns:xlink="http://www.w3.org/1999/xlink" width="85" height="85" viewBox="0 0 85 85">
  <defs>
    <clipPath id="clip-path">
      <rect id="Rectángulo_34611" data-name="Rectángulo 34611" width="85" height="85" transform="translate(1020 11966)" fill="#fff" stroke="#707070" stroke-width="1"/>
    </clipPath>
  </defs>
  <g id="Grupo_86295" data-name="Grupo 86295" transform="translate(-1020 -12071)">
    <circle id="Elipse_4912" data-name="Elipse 4912" cx="42.5" cy="42.5" r="42.5" transform="translate(1020 12071)" fill="#ffa686"/>
    <g id="Enmascarar_grupo_140" data-name="Enmascarar grupo 140" transform="translate(0 105)" clip-path="url(#clip-path)">
      <g id="campo" transform="translate(1020 11966)">
        <path id="Trazado_120961" data-name="Trazado 120961" d="M21.873,47.657H83.755V32.186a46.007,46.007,0,0,0-60.263,13.2Z" fill="#8bc727"/>
        <path id="Trazado_120962" data-name="Trazado 120962" d="M41.31,35.554a46.076,46.076,0,0,1,23.8-9.246A46.007,46.007,0,0,0,23.492,45.39l-1.619,2.266H53.191L49.649,45a80.734,80.734,0,0,0-8.05-5.318,2.488,2.488,0,0,1-.289-4.128Z" fill="#81b823"/>
        <path id="Trazado_120963" data-name="Trazado 120963" d="M1.245,47.657H83.755v36.1H1.245Z" fill="#dc8758"/>
        <path id="Trazado_120964" data-name="Trazado 120964" d="M48.3,83.755H36.7l2.078-36.1h7.449Z" fill="#a2e62e"/>
        <path id="Trazado_120965" data-name="Trazado 120965" d="M38.776,47.657,36.7,83.755h4.15l2.078-36.1Z" fill="#97d729"/>
        <path id="Trazado_120966" data-name="Trazado 120966" d="M71.513,83.755h-11.6l-6.234-36.1h7.449Z" fill="#8bc727"/>
        <path id="Trazado_120967" data-name="Trazado 120967" d="M53.673,47.657l6.234,36.1h4.15l-6.234-36.1Z" fill="#81b823"/>
        <path id="Trazado_120968" data-name="Trazado 120968" d="M83.755,83.755l-15.184-36.1h7.449l7.735,14.929Z" fill="#a2e62e"/>
        <path id="Trazado_120969" data-name="Trazado 120969" d="M72.721,47.657h-4.15l15.184,36.1V73.888Z" fill="#97d729"/>
        <path id="Trazado_120970" data-name="Trazado 120970" d="M25.092,83.755h-11.6l10.391-36.1h7.449Z" fill="#8bc727"/>
        <path id="Trazado_120971" data-name="Trazado 120971" d="M23.878,47.657l-10.391,36.1h4.15l10.391-36.1Z" fill="#81b823"/>
        <path id="Trazado_120972" data-name="Trazado 120972" d="M1.245,83.755V62.586L8.981,47.657h7.449Z" fill="#a2e62e"/>
        <path id="Trazado_120973" data-name="Trazado 120973" d="M4.566,62.586,12.3,47.657H8.981L1.245,62.586V83.755l3.32-7.894Z" fill="#97d729"/>
        <path id="Trazado_120974" data-name="Trazado 120974" d="M47.657,47.657H1.245V32.186A77.352,77.352,0,0,1,47.657,47.657Z" fill="#a2e62e"/>
        <path id="Trazado_120975" data-name="Trazado 120975" d="M1.245,32.186V47.657h8.3V32.633a77.344,77.344,0,0,0-8.3-.447Z" fill="#97d729"/>
        <circle id="Elipse_5041" data-name="Elipse 5041" cx="5.157" cy="5.157" r="5.157" transform="translate(16.716 8.981)" fill="#ffe177"/>
        <path id="Trazado_120976" data-name="Trazado 120976" d="M21.7,14.137a5.155,5.155,0,0,1,2.667-4.517,5.157,5.157,0,1,0,0,9.033A5.155,5.155,0,0,1,21.7,14.137Z" fill="#ffd15b"/>
        <path id="Trazado_120977" data-name="Trazado 120977" d="M71.754,9.14l-.126,0A6.315,6.315,0,0,0,60.052,7.111a5.051,5.051,0,1,0-2.187,9.6H71.754a3.788,3.788,0,0,0,0-7.576Z" fill="#eaf6ff"/>
        <path id="Trazado_120978" data-name="Trazado 120978" d="M64.5,16.715a5.051,5.051,0,1,1,2.187-9.6,6.345,6.345,0,0,1,2.068-2.079,6.316,6.316,0,0,0-8.709,2.079,5.051,5.051,0,1,0-2.187,9.6Z" fill="#d8ecfe"/>
        <g id="Grupo_85368" data-name="Grupo 85368">
          <path id="Trazado_120979" data-name="Trazado 120979" d="M85,32.187a1.245,1.245,0,0,0-.627-1.081,47.645,47.645,0,0,0-54.363,5.287q-2.991-1.174-6.066-2.1a1.245,1.245,0,0,0-.719,2.384,76.15,76.15,0,0,1,20.533,9.737H2.49V33.442a76.142,76.142,0,0,1,15.571,1.871,1.245,1.245,0,0,0,.551-2.428A78.634,78.634,0,0,0,1.245,30.942,1.245,1.245,0,0,0,0,32.187V83.755A1.25,1.25,0,0,0,1.264,85H83.736A1.252,1.252,0,0,0,85,83.755ZM72.45,82.509,62.776,48.9h4.968L81.88,82.509Zm-22.972,0-.668-11.6a1.245,1.245,0,1,0-2.486.143l.66,11.453H38.017L39.952,48.9h5.1l.963,16.738A1.245,1.245,0,0,0,48.5,65.5L47.543,48.9h5.082l5.8,33.608Zm-22.907,0,5.8-33.608h5.082L35.522,82.509Zm-23.451,0L17.256,48.9h4.968L12.55,82.509ZM2.491,48.9H6.933L2.491,57.476Zm7.247,0h4.817L2.491,77.583V62.889ZM82.509,77.583,70.445,48.9h4.817l7.247,13.987ZM78.067,48.9h4.443v8.574ZM32.6,37.466A45.158,45.158,0,0,1,82.51,32.916v13.5H48.07A78.407,78.407,0,0,0,32.6,37.466ZM15.142,82.509,24.816,48.9h5.033l-5.8,33.608Zm45.814,0L55.152,48.9h5.033l9.674,33.608Z"/>
          <path id="Trazado_120980" data-name="Trazado 120980" d="M28.275,14.137a6.4,6.4,0,1,0-6.4,6.4A6.409,6.409,0,0,0,28.275,14.137Zm-6.4,3.912a3.912,3.912,0,1,1,3.912-3.912A3.916,3.916,0,0,1,21.873,18.049Z"/>
          <path id="Trazado_120981" data-name="Trazado 120981" d="M21.873,5.069a1.245,1.245,0,0,0,1.245-1.245V1.245a1.245,1.245,0,0,0-2.49,0V3.824A1.245,1.245,0,0,0,21.873,5.069Z"/>
          <path id="Trazado_120982" data-name="Trazado 120982" d="M20.628,24.451V27.03a1.245,1.245,0,0,0,2.49,0V24.451a1.245,1.245,0,0,0-2.49,0Z"/>
          <path id="Trazado_120983" data-name="Trazado 120983" d="M15.638,5.828a1.258,1.258,0,0,0,1.7.456,1.245,1.245,0,0,0,.456-1.7L16.5,2.35A1.245,1.245,0,0,0,14.348,3.6Z"/>
          <path id="Trazado_120984" data-name="Trazado 120984" d="M27.24,25.925a1.258,1.258,0,0,0,1.7.456,1.245,1.245,0,0,0,.456-1.7l-1.289-2.233a1.245,1.245,0,0,0-2.157,1.245Z"/>
          <path id="Trazado_120985" data-name="Trazado 120985" d="M10.085,8.77l2.233,1.289a1.258,1.258,0,0,0,1.7-.456,1.245,1.245,0,0,0-.456-1.7L11.33,6.613A1.245,1.245,0,1,0,10.085,8.77Z"/>
          <path id="Trazado_120986" data-name="Trazado 120986" d="M30.182,20.372l2.233,1.289a1.258,1.258,0,0,0,1.7-.456,1.245,1.245,0,0,0-.456-1.7l-2.233-1.289a1.245,1.245,0,0,0-1.245,2.157Z"/>
          <path id="Trazado_120987" data-name="Trazado 120987" d="M8.981,15.383h2.578a1.245,1.245,0,1,0,0-2.49H8.981a1.245,1.245,0,0,0,0,2.49Z"/>
          <path id="Trazado_120988" data-name="Trazado 120988" d="M30.941,14.137a1.245,1.245,0,0,0,1.245,1.245h2.578a1.245,1.245,0,0,0,0-2.49H32.186A1.245,1.245,0,0,0,30.941,14.137Z"/>
          <path id="Trazado_120989" data-name="Trazado 120989" d="M12.318,18.216l-2.233,1.289a1.245,1.245,0,0,0-.456,1.7,1.258,1.258,0,0,0,1.7.456l2.233-1.289a1.245,1.245,0,1,0-1.245-2.157Z"/>
          <path id="Trazado_120990" data-name="Trazado 120990" d="M29.726,9.6a1.258,1.258,0,0,0,1.7.456L33.66,8.77a1.245,1.245,0,0,0-1.245-2.157L30.182,7.9A1.245,1.245,0,0,0,29.726,9.6Z"/>
          <path id="Trazado_120991" data-name="Trazado 120991" d="M14.8,26.381a1.258,1.258,0,0,0,1.7-.456l1.289-2.233a1.245,1.245,0,1,0-2.157-1.245L14.348,24.68A1.245,1.245,0,0,0,14.8,26.381Z"/>
          <path id="Trazado_120992" data-name="Trazado 120992" d="M26.407,6.284a1.258,1.258,0,0,0,1.7-.456L29.4,3.6A1.245,1.245,0,0,0,27.24,2.35L25.951,4.583A1.245,1.245,0,0,0,26.407,6.284Z"/>
          <path id="Trazado_120993" data-name="Trazado 120993" d="M57.865,17.961h6.744a1.245,1.245,0,0,0,0-2.49H57.865a3.806,3.806,0,1,1,1.648-7.238,1.245,1.245,0,0,0,1.6-.472A5.07,5.07,0,0,1,70.407,9.39q.493,1.045,1.346.994a2.543,2.543,0,0,1,0,5.087H70.035a1.245,1.245,0,0,0,0,2.49h1.718a5.034,5.034,0,0,0,.842-10A7.585,7.585,0,0,0,65.44,2.844a7.505,7.505,0,0,0-5.847,2.765,6.3,6.3,0,1,0-1.729,12.352Z"/>
        </g>
      </g>
    </g>
  </g>
</svg>
