<svg xmlns="http://www.w3.org/2000/svg" xmlns:xlink="http://www.w3.org/1999/xlink" width="81" height="81" viewBox="0 0 81 81">
  <defs>
    <clipPath id="clip-path">
      <rect id="Rectángulo_34605" data-name="Rectángulo 34605" width="81" height="81" transform="translate(323 9657)" fill="#01f6ff" stroke="#707070" stroke-width="1"/>
    </clipPath>
  </defs>
  <g id="Enmascarar_grupo_134" data-name="Enmascarar grupo 134" transform="translate(-323 -9657)" clip-path="url(#clip-path)">
    <g id="bioquimica" transform="translate(323 9657)">
      <path id="Trazado_120802" data-name="Trazado 120802" d="M66.2,60.321,49.992,41V27.369H45.246L35.754,42.732,52.365,79.813h4.746A11.863,11.863,0,0,0,66.2,60.321Z" fill="#aaf4f9"/>
      <path id="Trazado_120803" data-name="Trazado 120803" d="M52.465,63.375V51.337l-7.219-8.6V27.369H31.008V41L14.8,60.321a11.863,11.863,0,0,0,9.087,19.492H52.365A11.879,11.879,0,0,0,64.23,67.948Z" fill="#dffdff"/>
      <path id="Trazado_120804" data-name="Trazado 120804" d="M49.992,25H45.246v4.746h4.746a2.373,2.373,0,0,0,0-4.746Z" fill="#5ae6ef"/>
      <path id="Trazado_120805" data-name="Trazado 120805" d="M47.619,27.369A2.373,2.373,0,0,0,45.246,25H31.008a2.373,2.373,0,1,0,0,4.746H45.246A2.373,2.373,0,0,0,47.619,27.369Z" fill="#aaf4f9"/>
      <path id="Trazado_120806" data-name="Trazado 120806" d="M40.5,20.171,48.883,8.624l10.6-7.437A18.985,18.985,0,0,1,40.5,20.171Z" fill="#3db462"/>
      <path id="Trazado_120807" data-name="Trazado 120807" d="M59.484,1.187,40.5,20.171A18.985,18.985,0,0,1,59.484,1.187Z" fill="#59cc3a"/>
      <path id="Trazado_120808" data-name="Trazado 120808" d="M40.5,20.171,32.117,8.624l-10.6-7.437A18.985,18.985,0,0,0,40.5,20.171Z" fill="#59cc3a"/>
      <path id="Trazado_120809" data-name="Trazado 120809" d="M21.515,1.187,40.5,20.171A18.985,18.985,0,0,0,21.515,1.187Z" fill="#90d766"/>
      <path id="Trazado_120810" data-name="Trazado 120810" d="M62.562,63.372l-10.1-12.035H47.719l4.646,23.73h4.746a7.127,7.127,0,0,0,7.119-7.119A7.028,7.028,0,0,0,62.562,63.372Z" fill="#09d7e5"/>
      <path id="Trazado_120811" data-name="Trazado 120811" d="M59.484,67.948a7.028,7.028,0,0,0-1.668-4.576l-10.1-12.035H28.535l-10.1,12.038a7.025,7.025,0,0,0-1.666,4.574,7.127,7.127,0,0,0,7.119,7.119H52.365A7.127,7.127,0,0,0,59.484,67.948Z" fill="#5ae6ef"/>
      <path id="Trazado_120812" data-name="Trazado 120812" d="M40.5,21.357A20.194,20.194,0,0,0,60.671,1.187,1.186,1.186,0,0,0,59.484,0,20.2,20.2,0,0,0,40.5,13.354,20.2,20.2,0,0,0,21.515,0a1.186,1.186,0,0,0-1.187,1.187A20.194,20.194,0,0,0,40.5,21.357ZM58.256,2.415A17.825,17.825,0,0,1,41.728,18.942,17.825,17.825,0,0,1,58.256,2.415ZM39.271,18.942A17.825,17.825,0,0,1,22.744,2.415,17.825,17.825,0,0,1,39.271,18.942Z"/>
      <path id="Trazado_120813" data-name="Trazado 120813" d="M67.107,59.559,51.179,40.573V30.725a3.559,3.559,0,0,0-1.187-6.915H31.008a3.559,3.559,0,0,0-1.187,6.915v9.849L13.893,59.558A13.05,13.05,0,0,0,23.889,81H57.111a13.05,13.05,0,0,0,10-21.441Zm-36.1-33.376H49.992a1.187,1.187,0,0,1,0,2.373H31.008a1.187,1.187,0,1,1,0-2.373Zm26.1,52.444H23.889a10.677,10.677,0,0,1-8.178-17.543L31.917,41.768A1.187,1.187,0,0,0,32.194,41V30.929H48.806V41a1.186,1.186,0,0,0,.277.763L65.29,61.085a10.677,10.677,0,0,1-8.178,17.542Z"/>
      <path id="Trazado_120814" data-name="Trazado 120814" d="M63.471,62.609l-10.1-12.035a1.187,1.187,0,0,0-.909-.424H28.535a1.187,1.187,0,0,0-.909.424l-3.524,4.2A1.187,1.187,0,0,0,25.919,56.3l3.169-3.777H51.912l9.742,11.612a5.857,5.857,0,0,1,1.39,3.813,5.939,5.939,0,0,1-5.933,5.933H23.889a5.939,5.939,0,0,1-5.933-5.933,5.853,5.853,0,0,1,1.388-3.811l3.524-4.2a1.187,1.187,0,0,0-1.818-1.525l-3.524,4.2a8.2,8.2,0,0,0-1.944,5.337,8.315,8.315,0,0,0,8.306,8.306H57.111a8.315,8.315,0,0,0,8.306-8.306A8.2,8.2,0,0,0,63.471,62.609Z"/>
    </g>
  </g>
</svg>
