<svg xmlns="http://www.w3.org/2000/svg" xmlns:xlink="http://www.w3.org/1999/xlink" width="85" height="85" viewBox="0 0 85 85">
  <defs>
    <clipPath id="clip-path">
      <rect id="Rectángulo_34588" data-name="Rectángulo 34588" width="85" height="85" transform="translate(830 6251)" fill="#fff" stroke="#707070" stroke-width="1"/>
    </clipPath>
  </defs>
  <g id="Grupo_85315" data-name="Grupo 85315" transform="translate(-830 -6251)">
    <circle id="Elipse_4908" data-name="Elipse 4908" cx="42.5" cy="42.5" r="42.5" transform="translate(830 6251)" fill="#0b481e"/>
    <g id="Enmascarar_grupo_131" data-name="Enmascarar grupo 131" clip-path="url(#clip-path)">
      <g id="participacion" transform="translate(830 6251)">
        <g id="Grupo_85313" data-name="Grupo 85313">
          <path id="Trazado_120721" data-name="Trazado 120721" d="M71.049,83.755H55.574a1.368,1.368,0,0,1-1.367-1.367V42.474a1.368,1.368,0,0,1,1.367-1.367H71.049a1.368,1.368,0,0,1,1.367,1.367V82.387a1.367,1.367,0,0,1-1.367,1.368Z" fill="#6ce79a"/>
          <path id="Trazado_120722" data-name="Trazado 120722" d="M64.024,83.755h7.024a1.368,1.368,0,0,0,1.367-1.367V42.474a1.368,1.368,0,0,0-1.367-1.367H68.983C68.851,46.206,68.061,76.292,64.024,83.755Z" fill="#00d8a2"/>
          <path id="Trazado_120723" data-name="Trazado 120723" d="M53.359,36.044a5.1,5.1,0,0,1,2.076,2.033l9.931,1.128,5.28-1.128a23.276,23.276,0,0,1,.911-4.458l2.448-7.913,2.387-8.541a2.439,2.439,0,0,0-2.349-3.095h-.008a2.439,2.439,0,0,0-2.292,1.605L69.408,22.1l1.6-10.936a2.439,2.439,0,1,0-4.825-.708L64.479,22.1V8.664A2.439,2.439,0,0,0,62.04,6.225h-.052a2.439,2.439,0,0,0-2.439,2.439V22.1L57.868,11.758A2.439,2.439,0,0,0,55.461,9.71H55.4a2.439,2.439,0,0,0-2.416,2.767L54.74,25.4a4.764,4.764,0,0,1-.87,3.447.743.743,0,0,1-1.253-.082l-1.8-3.312a2.634,2.634,0,1,0-4.519,2.7l2.327,3.571a12.765,12.765,0,0,0,4.738,4.321Z" fill="#ffd3a3"/>
          <path id="Trazado_120724" data-name="Trazado 120724" d="M55.436,38.077a5.1,5.1,0,0,1,.648,2.447l.022.583H70.517V40.5a23.283,23.283,0,0,1,.129-2.424H55.436Z" fill="#ffbe84"/>
          <path id="Trazado_120725" data-name="Trazado 120725" d="M33.7,83.755H18.224a1.368,1.368,0,0,1-1.367-1.367V37.494a1.368,1.368,0,0,1,1.367-1.367H33.7a1.368,1.368,0,0,1,1.367,1.367V82.387A1.368,1.368,0,0,1,33.7,83.755Z" fill="#ffab56"/>
          <path id="Trazado_120726" data-name="Trazado 120726" d="M26.674,83.755H33.7a1.368,1.368,0,0,0,1.367-1.367V37.494A1.368,1.368,0,0,0,33.7,36.126H31.633C31.5,41.226,30.711,76.292,26.674,83.755Z" fill="#ff982a"/>
          <path id="Trazado_120727" data-name="Trazado 120727" d="M16.009,31.064A5.1,5.1,0,0,1,18.086,33.1l9.931,1.128L33.3,33.1a23.276,23.276,0,0,1,.911-4.458l2.448-7.913,2.387-8.541a2.439,2.439,0,0,0-2.349-3.095h-.008A2.439,2.439,0,0,0,34.395,10.7l-2.337,6.427,1.6-10.936a2.439,2.439,0,1,0-4.825-.708L27.129,17.124V3.684A2.439,2.439,0,0,0,24.69,1.245h-.052A2.439,2.439,0,0,0,22.2,3.684v13.44L20.518,6.777A2.439,2.439,0,0,0,18.111,4.73h-.062A2.439,2.439,0,0,0,15.632,7.5L17.39,20.421a4.764,4.764,0,0,1-.87,3.447.743.743,0,0,1-1.253-.082l-1.8-3.312a2.634,2.634,0,1,0-4.519,2.7l2.327,3.571a12.763,12.763,0,0,0,4.738,4.321Z" fill="#ffe6c2"/>
          <path id="Trazado_120728" data-name="Trazado 120728" d="M18.085,33.1a5.1,5.1,0,0,1,.648,2.447l.022.583H33.167v-.606A23.282,23.282,0,0,1,33.3,33.1H18.085Z" fill="#ffd3a3"/>
          <path id="Trazado_120729" data-name="Trazado 120729" d="M57.593,83.755H42.118a1.368,1.368,0,0,1-1.367-1.367V66.743a1.368,1.368,0,0,1,1.367-1.367H57.593a1.368,1.368,0,0,1,1.367,1.367V82.387a1.368,1.368,0,0,1-1.367,1.367Z" fill="#88bde7"/>
          <path id="Trazado_120730" data-name="Trazado 120730" d="M50.569,83.755h7.024a1.368,1.368,0,0,0,1.367-1.367V66.743a1.368,1.368,0,0,0-1.367-1.367H55.527A38.262,38.262,0,0,1,50.569,83.755Z" fill="#5faee2"/>
          <path id="Trazado_120731" data-name="Trazado 120731" d="M39.9,60.312a5.1,5.1,0,0,1,2.076,2.033l9.931,1.128,5.28-1.128a23.275,23.275,0,0,1,.911-4.458l2.448-7.913,2.387-8.541a2.439,2.439,0,0,0-2.349-3.095h-.008a2.439,2.439,0,0,0-2.292,1.605l-2.337,6.427,1.6-10.936a2.439,2.439,0,1,0-4.825-.708L51.023,46.373V32.933a2.439,2.439,0,0,0-2.439-2.439h-.052a2.439,2.439,0,0,0-2.439,2.439v13.44L44.413,36.026a2.439,2.439,0,0,0-2.407-2.047h-.062a2.439,2.439,0,0,0-2.416,2.767L41.284,49.67a4.764,4.764,0,0,1-.87,3.447.743.743,0,0,1-1.253-.082l-1.8-3.312a2.634,2.634,0,1,0-4.519,2.7l2.327,3.571A12.761,12.761,0,0,0,39.9,60.312Z" fill="#ffe6c2"/>
          <path id="Trazado_120732" data-name="Trazado 120732" d="M41.98,62.346a5.1,5.1,0,0,1,.648,2.447l.022.583H57.062V64.77a23.283,23.283,0,0,1,.129-2.424H41.98Z" fill="#ffd3a3"/>
        </g>
        <path id="Trazado_120733" data-name="Trazado 120733" d="M76.979,14.283a3.688,3.688,0,0,0-5.049-.792l.314-2.142a3.679,3.679,0,0,0-6.523-2.825,3.71,3.71,0,0,0-7.417.139V9.8a3.754,3.754,0,0,0-5.68-.074,3.682,3.682,0,0,0-.876,2.919L53.506,25.57a3.505,3.505,0,0,1-.229,1.806l-1.37-2.516a3.879,3.879,0,1,0-6.656,3.973l.863,1.324a3.676,3.676,0,0,0-1.265,2.776v1.136a3.753,3.753,0,0,0-5.68-.074,3.683,3.683,0,0,0-.875,2.919l1.757,12.925a3.506,3.506,0,0,1-.229,1.806l-1.37-2.516a3.844,3.844,0,0,0-2.14-1.811V37.494a2.617,2.617,0,0,0-1.893-2.512,22.012,22.012,0,0,1,.978-5.975l2.448-7.913.01-.033,2.387-8.54a3.686,3.686,0,0,0-5.662-4.01L34.9,6.369a3.679,3.679,0,0,0-6.523-2.825,3.711,3.711,0,0,0-7.417.139V4.82a3.753,3.753,0,0,0-5.68-.074A3.683,3.683,0,0,0,14.4,7.665l1.757,12.925a3.505,3.505,0,0,1-.229,1.806l-1.37-2.516A3.879,3.879,0,1,0,7.9,23.852l2.327,3.571a14.039,14.039,0,0,0,5.2,4.742A3.855,3.855,0,0,1,17.445,35a2.617,2.617,0,0,0-1.833,2.494v7.083a1.245,1.245,0,1,0,2.49,0V37.494a.123.123,0,0,1,.122-.122H33.7a.123.123,0,0,1,.122.122V47.3a3.924,3.924,0,0,0-.741.338A3.876,3.876,0,0,0,31.8,53.1l2.026,3.109V82.387a.123.123,0,0,1-.122.123H18.224a.123.123,0,0,1-.122-.123v-33a1.245,1.245,0,0,0-2.49,0v33A2.616,2.616,0,0,0,18.224,85H33.7a2.616,2.616,0,0,0,2.613-2.613V59.273a14.025,14.025,0,0,0,3.011,2.141,3.855,3.855,0,0,1,2.016,2.835,2.617,2.617,0,0,0-1.833,2.494V82.387A2.616,2.616,0,0,0,42.118,85h3.194a1.245,1.245,0,0,0,0-2.49H42.118A.123.123,0,0,1,42,82.387V66.743a.123.123,0,0,1,.122-.122H57.593a.123.123,0,0,1,.122.122V82.387a.123.123,0,0,1-.122.123H50.127a1.245,1.245,0,0,0,0,2.49H71.049a2.616,2.616,0,0,0,2.613-2.613V42.474a2.617,2.617,0,0,0-1.893-2.512,22.011,22.011,0,0,1,.978-5.975l.346-1.119a1.245,1.245,0,0,0-2.379-.736l-.346,1.12a24.5,24.5,0,0,0-1.088,6.61H64.159a3.692,3.692,0,0,0-5.685-2.1l.314-2.142a3.679,3.679,0,0,0-6.523-2.825,3.688,3.688,0,0,0-3.681-3.544h-.09l-1.157-1.776A1.388,1.388,0,1,1,49.72,26.05l1.8,3.313a1.988,1.988,0,0,0,3.352.219,5.983,5.983,0,0,0,1.1-4.348L54.216,12.31a1.178,1.178,0,0,1,.284-.946,1.237,1.237,0,0,1,2.139.594L58.32,22.3a1.245,1.245,0,0,0,2.474-.2V8.664a1.22,1.22,0,0,1,2.439,0V22.1a1.245,1.245,0,0,0,2.477.181l1.708-11.644A1.2,1.2,0,0,1,68.6,9.621a1.193,1.193,0,0,1,1.181,1.367l-1.6,10.936a1.245,1.245,0,0,0,2.4.606L72.915,16.1a1.2,1.2,0,0,1,1.129-.786,1.193,1.193,0,0,1,1.149,1.515l-2.382,8.524-.666,2.153a1.245,1.245,0,1,0,2.379.736l.671-2.169.01-.033,2.387-8.54a3.655,3.655,0,0,0-.613-3.219ZM19.94,34.881a6.342,6.342,0,0,0-3.35-4.919,11.547,11.547,0,0,1-4.276-3.9L9.987,22.492A1.388,1.388,0,1,1,12.37,21.07l1.8,3.313a1.988,1.988,0,0,0,3.352.219,5.983,5.983,0,0,0,1.1-4.348L16.866,7.329a1.178,1.178,0,0,1,.284-.946,1.237,1.237,0,0,1,2.139.594L20.97,17.324a1.245,1.245,0,0,0,2.474-.2V3.684a1.22,1.22,0,0,1,2.439,0v13.44a1.245,1.245,0,0,0,2.477.181L30.069,5.661a1.2,1.2,0,0,1,1.181-1.02A1.193,1.193,0,0,1,32.43,6.007l-1.6,10.936a1.245,1.245,0,0,0,2.4.606l2.337-6.427a1.2,1.2,0,0,1,1.129-.786,1.193,1.193,0,0,1,1.149,1.515l-2.382,8.524-2.443,7.9a24.5,24.5,0,0,0-1.088,6.61H19.94Zm51.109,7.471a.123.123,0,0,1,.122.122V82.387a.123.123,0,0,1-.122.122H60.2q0-.061,0-.123V66.743a2.617,2.617,0,0,0-1.893-2.512,22.007,22.007,0,0,1,.978-5.975l2.448-7.913.01-.033,2.224-7.959h7.075ZM49.778,32.933v13.44a1.245,1.245,0,0,0,2.477.181L53.963,34.91a1.2,1.2,0,0,1,1.181-1.02,1.193,1.193,0,0,1,1.181,1.367l-1.6,10.936a1.245,1.245,0,0,0,2.4.606l2.337-6.427a1.2,1.2,0,0,1,2.08-.314,1.184,1.184,0,0,1,.2,1.043l-2.382,8.524-2.443,7.9a24.5,24.5,0,0,0-1.088,6.61H43.834a6.342,6.342,0,0,0-3.35-4.919c-3.241-1.71-4.352-4.017-6.6-7.47a1.389,1.389,0,1,1,2.383-1.422l1.8,3.312a1.988,1.988,0,0,0,3.352.22,5.983,5.983,0,0,0,1.1-4.348L40.76,36.577a1.178,1.178,0,0,1,.284-.946,1.237,1.237,0,0,1,2.139.594l1.681,10.347a1.245,1.245,0,0,0,2.474-.2V32.933a1.22,1.22,0,0,1,2.44,0Z"/>
      </g>
    </g>
  </g>
</svg>
