<svg xmlns="http://www.w3.org/2000/svg" xmlns:xlink="http://www.w3.org/1999/xlink" width="85" height="85" viewBox="0 0 85 85">
  <defs>
    <clipPath id="clip-path">
      <rect id="Rectángulo_34607" data-name="Rectángulo 34607" width="85" height="85" transform="translate(180 11850)" fill="#fff" stroke="#707070" stroke-width="1"/>
    </clipPath>
  </defs>
  <g id="Grupo_86293" data-name="Grupo 86293" transform="translate(-180 -11955)">
    <g id="Enmascarar_grupo_136" data-name="Enmascarar grupo 136" transform="translate(0 105)" clip-path="url(#clip-path)">
      <g id="selva" transform="translate(180 11850)">
        <g id="Grupo_85363" data-name="Grupo 85363">
          <path id="Trazado_120845" data-name="Trazado 120845" d="M24.623,63.248a7,7,0,0,1,6.88-7,6.865,6.865,0,0,1,5.62,2.923.685.685,0,0,0,.85.229,4.126,4.126,0,0,1,4.367.514.68.68,0,0,0,.919-.06,2.746,2.746,0,0,1,3.984,0,.68.68,0,0,0,.919.06,4.124,4.124,0,0,1,6.383,1.587.681.681,0,0,0,.835.39,2.733,2.733,0,0,1,1.016-.139A2.8,2.8,0,0,1,59,64.585v9.591H29.574L24.623,66.76Z" fill="#69b47d"/>
          <path id="Trazado_120846" data-name="Trazado 120846" d="M56.395,61.757a2.733,2.733,0,0,0-1.016.139.681.681,0,0,1-.835-.39,4.118,4.118,0,0,0-5.7-2.031,4.139,4.139,0,0,1,1.882,2.031.681.681,0,0,0,.835.39,2.733,2.733,0,0,1,1.016-.139,2.8,2.8,0,0,1,2.607,2.828v9.591H59V64.585a2.8,2.8,0,0,0-2.607-2.828Z" fill="#3c8c82"/>
          <path id="Trazado_120847" data-name="Trazado 120847" d="M24.623,13.75V25.309a.688.688,0,0,0,.688.687h2.063a2.75,2.75,0,0,0,2.75-2.75v-9.5h5.5v9.5a8.251,8.251,0,0,1-8.251,8.25H25.311a.688.688,0,0,0-.688.687V67.637h-5.5v-32.7a.688.688,0,0,0-.688-.687H16.372A8.251,8.251,0,0,1,8.121,26V13.75h5.5V26a2.75,2.75,0,0,0,2.75,2.75h2.063a.688.688,0,0,0,.688-.687V13.75Z" fill="#d1a184"/>
          <g id="Grupo_85357" data-name="Grupo 85357">
            <path id="Trazado_120848" data-name="Trazado 120848" d="M21.492,26H25.31a.688.688,0,0,1-.688-.687V13.75H20.8v11.56A.688.688,0,0,0,21.492,26Z" fill="#c68a65"/>
            <path id="Trazado_120849" data-name="Trazado 120849" d="M31.806,13.75v9.5a8.251,8.251,0,0,1-8.251,8.25H21.492a.688.688,0,0,0-.688.687V67.637h3.818V32.185a.688.688,0,0,1,.688-.687h2.063a8.251,8.251,0,0,0,8.251-8.25v-9.5Z" fill="#c68a65"/>
            <path id="Trazado_120850" data-name="Trazado 120850" d="M12.554,28.747h3.818A2.75,2.75,0,0,1,13.622,26V13.75H9.8V26a2.75,2.75,0,0,0,2.75,2.75Z" fill="#c68a65"/>
          </g>
          <path id="Trazado_120851" data-name="Trazado 120851" d="M21.949,17.746H4A2.75,2.75,0,0,1,1.245,15v-2.75a5.5,5.5,0,0,1,5.5-5.5H9.968a5.5,5.5,0,0,0,3.89-1.611l2.278-2.278a5.5,5.5,0,0,1,3.89-1.611H31.5a5.5,5.5,0,0,1,5.5,5.5A2.75,2.75,0,0,0,39.75,9.5a5.5,5.5,0,1,1,0,11h-9.7a5.5,5.5,0,0,1-2.46-.581l-3.178-1.589A5.5,5.5,0,0,0,21.949,17.746Z" fill="#aad264"/>
          <path id="Trazado_120852" data-name="Trazado 120852" d="M59,36.743V47.315a.688.688,0,0,1-.688.688H56.252a2.75,2.75,0,0,1-2.75-2.75V36.743H48v8.509A8.251,8.251,0,0,0,56.252,53.5h2.063a.688.688,0,0,1,.688.688V67.965h5.5V56.941a.688.688,0,0,1,.688-.688h2.063A8.251,8.251,0,0,0,75.5,48V36.743H70V48a2.75,2.75,0,0,1-2.75,2.75H65.19a.688.688,0,0,1-.688-.688V36.743H59Z" fill="#d1a184"/>
          <g id="Grupo_85358" data-name="Grupo 85358">
            <path id="Trazado_120853" data-name="Trazado 120853" d="M67.772,50.753c.333,0,.445-.059.418-.167a2.74,2.74,0,0,1-.937.167Z" fill="#c68a65"/>
            <path id="Trazado_120854" data-name="Trazado 120854" d="M61.405,50.753H65.19a.688.688,0,0,1-.688-.687V36.743H60.717V50.065A.688.688,0,0,0,61.405,50.753Z" fill="#c68a65"/>
            <path id="Trazado_120855" data-name="Trazado 120855" d="M71.719,36.743V48a8.251,8.251,0,0,1-8.251,8.251H61.405a.688.688,0,0,0-.688.687V67.965H64.5V56.941a.688.688,0,0,1,.688-.687h2.063A8.251,8.251,0,0,0,75.5,48V36.743Z" fill="#c68a65"/>
            <path id="Trazado_120856" data-name="Trazado 120856" d="M52.467,48h3.785a2.75,2.75,0,0,1-2.75-2.75V36.743H49.716v8.509A2.75,2.75,0,0,0,52.467,48Z" fill="#c68a65"/>
          </g>
          <path id="Trazado_120857" data-name="Trazado 120857" d="M59.079,39.752H41.125A2.75,2.75,0,0,1,38.375,37v-2.75a5.5,5.5,0,0,1,5.5-5.5H47.1a5.5,5.5,0,0,0,3.89-1.611l2.278-2.278a5.5,5.5,0,0,1,3.89-1.611H68.628a5.5,5.5,0,0,1,5.5,5.5,2.75,2.75,0,0,0,2.75,2.75,5.5,5.5,0,1,1,0,11h-9.7a5.5,5.5,0,0,1-2.46-.581l-3.178-1.589a5.5,5.5,0,0,0-2.46-.581Z" fill="#aad264"/>
          <g id="Grupo_85360" data-name="Grupo 85360">
            <path id="Trazado_120858" data-name="Trazado 120858" d="M49.376,70.085a2.8,2.8,0,0,1,2.607-2.828A2.733,2.733,0,0,1,53,67.4a.681.681,0,0,0,.835-.39,4.124,4.124,0,0,1,6.383-1.587.68.68,0,0,0,.919-.06,2.746,2.746,0,0,1,3.984,0,.68.68,0,0,0,.919.06,4.126,4.126,0,0,1,4.367-.514.685.685,0,0,0,.85-.229,6.865,6.865,0,0,1,5.62-2.922,7,7,0,0,1,6.88,7v5.428H49.376Z" fill="#8cbe69"/>
            <path id="Trazado_120859" data-name="Trazado 120859" d="M35.624,70.085a2.8,2.8,0,0,0-2.607-2.828A2.733,2.733,0,0,0,32,67.4a.681.681,0,0,1-.835-.39,4.124,4.124,0,0,0-6.383-1.587.68.68,0,0,1-.919-.06,2.746,2.746,0,0,0-3.984,0,.68.68,0,0,1-.919.06,4.126,4.126,0,0,0-4.367-.514.685.685,0,0,1-.85-.229,6.865,6.865,0,0,0-5.62-2.922,7,7,0,0,0-6.88,7v5.428H35.624Z" fill="#8cbe69"/>
            <g id="Grupo_85359" data-name="Grupo 85359">
              <path id="Trazado_120860" data-name="Trazado 120860" d="M76.875,61.753a6.871,6.871,0,0,0-1.924.277,7.06,7.06,0,0,1,4.986,6.718v5.428h3.818V68.748a7,7,0,0,0-6.88-7Z" fill="#6ea573"/>
              <path id="Trazado_120861" data-name="Trazado 120861" d="M33.017,67.257A2.733,2.733,0,0,0,32,67.4a.681.681,0,0,1-.835-.39,4.118,4.118,0,0,0-5.7-2.031,4.139,4.139,0,0,1,1.882,2.031.681.681,0,0,0,.835.39,2.733,2.733,0,0,1,1.016-.139,2.8,2.8,0,0,1,2.607,2.828v4.091h3.818V70.085a2.8,2.8,0,0,0-2.607-2.828Z" fill="#6ea573"/>
            </g>
          </g>
          <g id="Grupo_85361" data-name="Grupo 85361">
            <path id="Trazado_120862" data-name="Trazado 120862" d="M3.9,83.755H81.1A2.656,2.656,0,0,0,83.755,81.1V74.082a1.328,1.328,0,0,0-1.328-1.328H2.573a1.328,1.328,0,0,0-1.328,1.328V81.1A2.656,2.656,0,0,0,3.9,83.755Z" fill="#aad264"/>
            <path id="Trazado_120863" data-name="Trazado 120863" d="M82.427,72.754H78.608a1.328,1.328,0,0,1,1.328,1.328V81.1a2.656,2.656,0,0,1-2.656,2.656H81.1A2.656,2.656,0,0,0,83.755,81.1V74.082A1.328,1.328,0,0,0,82.427,72.754Z" fill="#8cbe69"/>
          </g>
          <g id="Grupo_85362" data-name="Grupo 85362">
            <path id="Trazado_120864" data-name="Trazado 120864" d="M76.879,31.5a2.75,2.75,0,0,1-2.75-2.75,5.5,5.5,0,0,0-5.5-5.5H64.81a5.5,5.5,0,0,1,5.5,5.5,2.75,2.75,0,0,0,2.75,2.75,5.5,5.5,0,1,1,0,11h3.818a5.5,5.5,0,1,0,0-11Z" fill="#8cbe69"/>
            <path id="Trazado_120865" data-name="Trazado 120865" d="M39.75,9.5A2.75,2.75,0,0,1,37,6.745a5.5,5.5,0,0,0-5.5-5.5H27.68a5.5,5.5,0,0,1,5.5,5.5,2.75,2.75,0,0,0,2.75,2.75,5.5,5.5,0,1,1,0,11H39.75a5.5,5.5,0,1,0,0-11Z" fill="#8cbe69"/>
          </g>
        </g>
        <g id="Grupo_85364" data-name="Grupo 85364">
          <path id="Trazado_120866" data-name="Trazado 120866" d="M63.257,15a1.245,1.245,0,0,0,2.49,0,1.505,1.505,0,0,1,3.01,0,1.245,1.245,0,0,0,2.49,0,1.505,1.505,0,0,1,3.01,0,1.245,1.245,0,0,0,2.49,0A3.993,3.993,0,0,0,70,12.1,3.993,3.993,0,0,0,63.257,15Z"/>
          <path id="Trazado_120867" data-name="Trazado 120867" d="M53.5,7.995A1.245,1.245,0,0,0,54.746,6.75a1.505,1.505,0,0,1,3.01,0,1.245,1.245,0,0,0,2.49,0,1.505,1.505,0,0,1,3.01,0,1.245,1.245,0,0,0,2.49,0A3.994,3.994,0,0,0,59,3.854a3.994,3.994,0,0,0-6.746,2.9A1.245,1.245,0,0,0,53.5,7.995Z"/>
          <path id="Trazado_120868" data-name="Trazado 120868" d="M82.624,62.961a7.989,7.989,0,0,0-5.746-2.452h0A8.135,8.135,0,0,0,70.507,63.6a5.326,5.326,0,0,0-1.879-.338,5.384,5.384,0,0,0-2.88.842V57.5h1.505a9.507,9.507,0,0,0,9.5-9.5V43.747h.13a6.745,6.745,0,1,0,0-13.491,1.507,1.507,0,0,1-1.505-1.505,6.753,6.753,0,0,0-6.746-6.746h-4.5a1.245,1.245,0,0,0,0,2.49h4.5a4.26,4.26,0,0,1,4.255,4.255,4,4,0,0,0,4,4,4.255,4.255,0,1,1,0,8.51h-9.7a4.278,4.278,0,0,1-1.9-.449L62.1,39.219a6.779,6.779,0,0,0-3.017-.712H41.125A1.507,1.507,0,0,1,39.62,37v-2.75A4.26,4.26,0,0,1,43.875,30H47.1a6.7,6.7,0,0,0,4.77-1.976l2.278-2.278A4.228,4.228,0,0,1,57.155,24.5h1.158a1.245,1.245,0,0,0,0-2.49H57.155a6.7,6.7,0,0,0-4.77,1.976L50.107,26.26A4.228,4.228,0,0,1,47.1,27.506H43.875a6.753,6.753,0,0,0-6.746,6.746V37a4,4,0,0,0,4,4h.13v6.128a7.69,7.69,0,0,1-9.886-7.373V31.858a9.507,9.507,0,0,0,5.5-8.611V21.742h2.88a6.745,6.745,0,1,0,0-13.491,1.507,1.507,0,0,1-1.505-1.505A6.754,6.754,0,0,0,31.5,0H20.025a6.7,6.7,0,0,0-4.77,1.976L12.977,4.254A4.228,4.228,0,0,1,9.968,5.5H6.746A6.753,6.753,0,0,0,0,12.246V15a4,4,0,0,0,2.75,3.8V37a6.746,6.746,0,0,0,13.492,0V35.489c.043,0,.086,0,.13,0h1.505V63.477a5.351,5.351,0,0,0-3.384.12,8.135,8.135,0,0,0-6.367-3.088h0a7.99,7.99,0,0,0-5.746,2.452A8.245,8.245,0,0,0,0,68.748V81.1A3.906,3.906,0,0,0,3.9,85H7.966a1.245,1.245,0,0,0,0-2.49H3.9A1.413,1.413,0,0,1,2.49,81.1V74H82.51v7.1A1.413,1.413,0,0,1,81.1,82.51H13.776a1.245,1.245,0,0,0,0,2.49H81.1A3.906,3.906,0,0,0,85,81.1V68.748A8.244,8.244,0,0,0,82.624,62.961ZM68.758,43.747V48a1.507,1.507,0,0,1-1.505,1.5H65.748V43.591a6.748,6.748,0,0,0,1.429.156Zm-5.5-1.163v7.481A1.935,1.935,0,0,0,65.19,52h2.063a4,4,0,0,0,4-4V43.747h3.011V48a7.014,7.014,0,0,1-7.006,7.005H65.19a1.935,1.935,0,0,0-1.933,1.933v6.324c-.043,0-.086-.006-.13-.006a4.013,4.013,0,0,0-2.525.9c-.116-.077-.235-.149-.356-.216V54.19a1.935,1.935,0,0,0-1.933-1.933H56.252a7.014,7.014,0,0,1-7.006-7.005V41h3.01v4.255a4,4,0,0,0,4,4h2.063a1.935,1.935,0,0,0,1.933-1.933V41.162a4.252,4.252,0,0,1,.735.284Zm-15.127,27.5v1.424H36.869V70.085a4.036,4.036,0,0,0-3.789-4.071,3.979,3.979,0,0,0-.978.07,5.358,5.358,0,0,0-6.234-2.607v-.228A5.767,5.767,0,0,1,27.534,59.2,5.519,5.519,0,0,1,31.5,57.5h0a5.641,5.641,0,0,1,4.6,2.394,1.921,1.921,0,0,0,2.4.636,2.882,2.882,0,0,1,3.047.359,1.933,1.933,0,0,0,2.6-.17,1.5,1.5,0,0,1,2.179,0,1.933,1.933,0,0,0,2.6.17,2.844,2.844,0,0,1,1.807-.639A2.878,2.878,0,0,1,53.4,62a1.935,1.935,0,0,0,2.377,1.08A1.478,1.478,0,0,1,56.331,63a1.425,1.425,0,0,1,.777.286,5.361,5.361,0,0,0-4.21,2.8,3.989,3.989,0,0,0-.979-.07,4.036,4.036,0,0,0-3.789,4.071ZM54.746,41h3.01v5.76H56.252a1.507,1.507,0,0,1-1.505-1.505Zm-11,0h2.908a7.7,7.7,0,0,1-2.908,4.852Zm-4.683,8.938a10.167,10.167,0,0,0,2.193-.24V53.5a1.245,1.245,0,0,0,2.49,0V48.79a10.246,10.246,0,0,0,3.074-2.451,9.508,9.508,0,0,0,9.432,8.409h1.505v6.058a3.916,3.916,0,0,0-1.3-.292,3.983,3.983,0,0,0-.978.07,5.369,5.369,0,0,0-7.7-1.925,3.989,3.989,0,0,0-5.05,0,5.385,5.385,0,0,0-2.976-.9,5.326,5.326,0,0,0-1.879.338A8.135,8.135,0,0,0,31.5,55.008h0a7.978,7.978,0,0,0-5.631,2.34V32.742h1.505a9.515,9.515,0,0,0,1.505-.121v7.13A10.2,10.2,0,0,0,39.062,49.935ZM34.379,23.247A7,7,0,0,1,31.369,29V21.741h3.01Zm-8.511-2.8,1.162.581a6.769,6.769,0,0,0,1.848.609v1.608a1.507,1.507,0,0,1-1.505,1.505H25.868ZM2.49,12.246A4.26,4.26,0,0,1,6.746,7.99H9.968a6.7,6.7,0,0,0,4.77-1.976l2.278-2.278A4.228,4.228,0,0,1,20.025,2.49H31.5a4.26,4.26,0,0,1,4.255,4.255,4,4,0,0,0,4,4,4.255,4.255,0,1,1,0,8.51h-9.7a4.277,4.277,0,0,1-1.9-.449l-3.178-1.589a6.78,6.78,0,0,0-3.017-.712H4A1.507,1.507,0,0,1,2.49,15Zm6.876,6.746h3.01V26a3.986,3.986,0,0,0,1.375,3.012v3.483A7.015,7.015,0,0,1,9.366,26ZM15,26.131c-.042,0-.083,0-.123.006,0-.046-.007-.093-.007-.14V18.992h3.01V27.5H16.372c-.044,0-.087,0-.13-.007v-.119A1.245,1.245,0,0,0,15,26.131ZM13.752,37a4.256,4.256,0,0,1-8.511,0V18.991H6.876V26a9.511,9.511,0,0,0,6.876,9.125Zm2.62-4c-.044,0-.087,0-.13,0v-3.01c.043,0,.086,0,.13,0h2.063a1.935,1.935,0,0,0,1.933-1.933V18.991h1.582a4.28,4.28,0,0,1,1.429.248v6.07a1.935,1.935,0,0,0,1.933,1.933h2.063a3.971,3.971,0,0,0,1.505-.3v3.141a7,7,0,0,1-1.505.165H25.311a1.935,1.935,0,0,0-1.933,1.933V63.559a3.922,3.922,0,0,0-3.01,0V34.935A1.935,1.935,0,0,0,18.435,33H16.372ZM2.49,71.509V68.749A5.769,5.769,0,0,1,4.156,64.7,5.519,5.519,0,0,1,8.121,63h0a5.642,5.642,0,0,1,4.6,2.394,1.921,1.921,0,0,0,2.405.636,2.881,2.881,0,0,1,3.047.359,1.934,1.934,0,0,0,2.6-.17,1.5,1.5,0,0,1,2.179,0,1.934,1.934,0,0,0,2.6.17,2.844,2.844,0,0,1,1.807-.639A2.878,2.878,0,0,1,30.021,67.5a1.935,1.935,0,0,0,2.378,1.08,1.488,1.488,0,0,1,.554-.076,1.567,1.567,0,0,1,1.426,1.584v1.424H2.49Zm48.131,0V70.085A1.567,1.567,0,0,1,52.047,68.5a1.5,1.5,0,0,1,.555.076,1.934,1.934,0,0,0,2.377-1.08,2.878,2.878,0,0,1,2.648-1.747,2.845,2.845,0,0,1,1.807.639,1.934,1.934,0,0,0,2.6-.17,1.5,1.5,0,0,1,2.179,0,1.934,1.934,0,0,0,2.6.17,2.88,2.88,0,0,1,3.047-.359,1.922,1.922,0,0,0,2.405-.636A5.642,5.642,0,0,1,76.876,63h0a5.519,5.519,0,0,1,3.965,1.7,5.768,5.768,0,0,1,1.666,4.047v2.761H50.621Z"/>
        </g>
      </g>
    </g>
  </g>
</svg>
