<svg xmlns="http://www.w3.org/2000/svg" width="295" height="314.987" viewBox="0 0 295 314.987">
  <g id="Grupo_85403" data-name="Grupo 85403" transform="translate(8808 -3334.013)">
    <rect id="Rectángulo_34614" data-name="Rectángulo 34614" width="295" height="164" transform="translate(-8808 3485)" fill="#deebad"/>
    <g id="rio" transform="translate(-8808 3334.013)">
      <path id="Trazado_121038" data-name="Trazado 121038" d="M293.81,146.9A146.9,146.9,0,1,1,0,146.9c0-2.878.083-5.745.247-8.581q.414-7.132,1.486-14.061a146.931,146.931,0,0,1,290.343,0q1.069,6.926,1.486,14.061c.164,2.836.247,5.7.247,8.581Zm0,0" transform="translate(0)" fill="#96d6d4"/>
      <path id="Trazado_121039" data-name="Trazado 121039" d="M377.714,48.388a24.765,24.765,0,1,1-24.765-24.763A24.766,24.766,0,0,1,377.714,48.388Zm0,0" transform="translate(-139.857 -10.068)" fill="#ffbb16"/>
      <path id="Trazado_121040" data-name="Trazado 121040" d="M321.864,176.108H151.375a9.179,9.179,0,0,1-6.241-2.327,9.4,9.4,0,0,1,.688-14.638l48.071-35.233a9.39,9.39,0,0,1,8-1.486,9.139,9.139,0,0,1,3.1,1.486l15.254,11.183a9.393,9.393,0,0,0,12.221-.966l28.488-28.733a9.382,9.382,0,0,1,10.486-1.966,9.258,9.258,0,0,1,2.854,1.966L328.537,160.1a9.392,9.392,0,0,1-6.673,16Zm0,0" transform="translate(-60.499 -43.731)" fill="#757177"/>
      <path id="Trazado_121041" data-name="Trazado 121041" d="M324.64,103.428c-4.138-1.728-13.9,13.515-17.287,20.674s6.247,6.254,3.773,10.679S290.288,159.4,290.288,159.4l-16.278,5.732-7.225-7.231,1.8-6.536,17.083-17.233,28.488-28.733a9.383,9.383,0,0,1,10.486-1.966Zm0,0" transform="translate(-113.691 -43.73)" fill="#2f373b"/>
      <path id="Trazado_121042" data-name="Trazado 121042" d="M201.894,136.891c-5.691-1.708-21.317,45.569-21.317,45.569l-35.442,5.788a9.4,9.4,0,0,1,.688-14.638l48.071-35.233a9.39,9.39,0,0,1,8-1.486Zm0,0" transform="translate(-60.499 -58.197)" fill="#2f373b"/>
      <path id="Trazado_121043" data-name="Trazado 121043" d="M293.7,211.413a22.935,22.935,0,0,1-41.378-1.39,22.934,22.934,0,0,1-42.039,0,22.934,22.934,0,0,1-42.039,0,22.93,22.93,0,0,1-42.034,0,22.934,22.934,0,0,1-42.039,0,22.934,22.934,0,0,1-42.039,0,22.935,22.935,0,0,1-41.377,1.39q.3-3.857.785-7.651a145.412,145.412,0,0,1,3.916-19.65,22.921,22.921,0,0,1,36.677,7.581,22.929,22.929,0,0,1,42.039,0,22.929,22.929,0,0,1,42.039,0,22.926,22.926,0,0,1,42.034,0,22.929,22.929,0,0,1,42.039,0,22.929,22.929,0,0,1,42.039,0A22.921,22.921,0,0,1,289,184.112a145.416,145.416,0,0,1,3.916,19.65q.494,3.8.785,7.651Zm0,0" transform="translate(-0.321 -75.824)" fill="#0a9327"/>
      <path id="Trazado_121044" data-name="Trazado 121044" d="M293.809,239.185A146.9,146.9,0,1,1,0,239.185a148.429,148.429,0,0,1,1.733-22.642H292.077a148.429,148.429,0,0,1,1.733,22.642Zm0,0" transform="translate(0 -92.281)" fill="#2cce5a"/>
      <path id="Trazado_121045" data-name="Trazado 121045" d="M400.948,150.576a5.644,5.644,0,0,1-5.012-4.279,5.641,5.641,0,0,1-9.789-4.311,5.642,5.642,0,0,1-7.857-7.256,5.64,5.64,0,0,1-5.082-9.412,5.641,5.641,0,0,1-1.748-10.553,5.642,5.642,0,0,1,1.769-10.549,5.64,5.64,0,0,1,5.1-9.4,5.641,5.641,0,0,1,7.875-7.236,5.64,5.64,0,0,1,9.8-4.293A5.64,5.64,0,0,1,406.66,82.4a5.643,5.643,0,0,1,10.372,2.629,5.641,5.641,0,0,1,8.951,5.855,5.639,5.639,0,0,1,6.566,8.44,5.641,5.641,0,0,1,3.474,10.121,5.64,5.64,0,0,1,3.844,5.346v.078a5.643,5.643,0,0,1-3.853,5.337,5.641,5.641,0,0,1-3.5,10.112,5.639,5.639,0,0,1-6.586,8.424,5.641,5.641,0,0,1-8.964,5.837,5.64,5.64,0,0,1-10.374,2.611,5.643,5.643,0,0,1-5.169,3.4c-.159,0-.316-.007-.475-.02Zm0,0" transform="translate(-157.021 -33.664)" fill="#21bf4a"/>
      <path id="Trazado_121046" data-name="Trazado 121046" d="M401,81.9a7,7,0,0,1,2.782-.619,3.727,3.727,0,0,1,2.878,1.123,5.644,5.644,0,0,0-5.176-3.414q-.232,0-.464.02A5.646,5.646,0,0,0,396,83.285a5.641,5.641,0,0,0-9.825,3.784c0,.168.009.338.025.509a5.64,5.64,0,0,0-7.875,7.236,5.706,5.706,0,0,0-.973-.085,5.642,5.642,0,0,0-4.129,9.486,5.648,5.648,0,0,0-4.678,4.645,5.757,5.757,0,0,0-.076.935,5.642,5.642,0,0,0,2.986,4.97,5.641,5.641,0,0,0,1.751,10.551,5.642,5.642,0,0,0,4.12,9.5,5.406,5.406,0,0,0,.964-.085,5.64,5.64,0,0,0,7.855,7.256c-.016.173-.022.345-.022.516a5.64,5.64,0,0,0,9.814,3.795,5.644,5.644,0,0,0,5.01,4.281c.159.013.318.018.475.018a5.623,5.623,0,0,0,3.114-.941,5.84,5.84,0,0,0,.874-.717,5.164,5.164,0,0,1-1.372.179,7.813,7.813,0,0,1-3.1-.708c-2.109-.928-3.367-3.636-3.367-5.9,0-.179.009-.354.025-.527a5.64,5.64,0,0,1-7.855-7.254,5.641,5.641,0,0,1-5.084-9.415,5.639,5.639,0,0,1-1.748-10.551,5.645,5.645,0,0,1-2.988-4.97,5.753,5.753,0,0,1,.076-.935,5.642,5.642,0,0,1,4.678-4.645,5.644,5.644,0,0,1,5.1-9.4,5.643,5.643,0,0,1,7.877-7.236c-.016-.168-.022-.338-.022-.507A5.642,5.642,0,0,1,401,81.9Zm0,0" transform="translate(-157.021 -33.663)" fill="#17aa3d"/>
      <path id="Trazado_121047" data-name="Trazado 121047" d="M435.127,204.871H400.543a9.113,9.113,0,0,0,9.381-7.895V180.5a5.57,5.57,0,0,0,2,.744c.159.027.316.045.473.058s.314.022.471.022a5.646,5.646,0,0,0,4.965-2.977,5.645,5.645,0,0,0,4.985,3.01,5.706,5.706,0,0,0,2.934-.823v16.44a9.113,9.113,0,0,0,9.379,7.893Zm0,0" transform="translate(-170.693 -76.005)" fill="#ab5816"/>
      <path id="Trazado_121048" data-name="Trazado 121048" d="M412.865,182.926a5.619,5.619,0,0,0,2.118-.417v16.065c0,2.022-.894,7.895-3.385,7.895H400.547a9.112,9.112,0,0,0,9.379-7.895V182.1a5.57,5.57,0,0,0,2,.744c.159.027.316.045.473.058s.316.022.471.022Zm0,0" transform="translate(-170.695 -77.603)" fill="#8c3e09"/>
      <path id="Trazado_121049" data-name="Trazado 121049" d="M38.742,150.576a5.639,5.639,0,0,1-5.01-4.279,5.642,5.642,0,0,1-9.791-4.311,5.641,5.641,0,0,1-7.855-7.256A5.641,5.641,0,0,1,11,125.317a5.641,5.641,0,0,1-1.748-10.553,5.641,5.641,0,0,1,1.769-10.549,5.64,5.64,0,0,1,5.1-9.4A5.641,5.641,0,0,1,24,87.578a5.64,5.64,0,0,1,9.8-4.293A5.641,5.641,0,0,1,44.455,82.4a5.642,5.642,0,0,1,10.37,2.629,5.641,5.641,0,0,1,8.951,5.855,5.64,5.64,0,0,1,6.568,8.44,5.641,5.641,0,0,1,3.474,10.121,5.64,5.64,0,0,1,3.844,5.346v.078a5.643,5.643,0,0,1-3.853,5.337,5.641,5.641,0,0,1-3.5,10.112,5.639,5.639,0,0,1-6.586,8.424,5.641,5.641,0,0,1-8.964,5.837A5.64,5.64,0,0,1,44.388,147.2a5.644,5.644,0,0,1-5.171,3.4c-.157,0-.316-.007-.475-.02Zm0,0" transform="translate(-2.666 -33.664)" fill="#21bf4a"/>
      <path id="Trazado_121050" data-name="Trazado 121050" d="M38.8,81.9a7,7,0,0,1,2.782-.619,3.723,3.723,0,0,1,2.878,1.123,5.644,5.644,0,0,0-5.176-3.414c-.152,0-.309.007-.464.02A5.646,5.646,0,0,0,33.8,83.285a5.639,5.639,0,0,0-9.823,3.784c0,.168.007.338.022.509a5.642,5.642,0,0,0-7.875,7.236,5.64,5.64,0,0,0-5.1,9.4,5.641,5.641,0,0,0-4.678,4.645,5.76,5.76,0,0,0-.078.935,5.644,5.644,0,0,0,2.988,4.97,5.641,5.641,0,0,0,1.751,10.551,5.641,5.641,0,0,0,4.118,9.5,5.388,5.388,0,0,0,.964-.085,5.642,5.642,0,0,0,7.857,7.256c-.016.173-.025.345-.025.516a5.64,5.64,0,0,0,9.814,3.795,5.644,5.644,0,0,0,5.01,4.281c.159.013.318.018.475.018a5.63,5.63,0,0,0,3.116-.941,5.936,5.936,0,0,0,.872-.717,5.14,5.14,0,0,1-1.372.179,7.813,7.813,0,0,1-3.1-.708c-2.109-.928-3.365-3.636-3.365-5.9,0-.179.009-.354.022-.527a5.64,5.64,0,0,1-7.855-7.254,5.645,5.645,0,0,1-6.608-5.552,5.669,5.669,0,0,1,1.524-3.862A5.639,5.639,0,0,1,20.7,114.763a5.644,5.644,0,0,1-2.988-4.97,5.76,5.76,0,0,1,.078-.935,5.641,5.641,0,0,1,4.678-4.645A5.639,5.639,0,0,1,26.6,94.73a5.7,5.7,0,0,1,.973.083,5.641,5.641,0,0,1,7.875-7.236c-.016-.168-.022-.338-.022-.507A5.642,5.642,0,0,1,38.8,81.9Zm0,0" transform="translate(-2.667 -33.663)" fill="#17aa3d"/>
      <path id="Trazado_121051" data-name="Trazado 121051" d="M72.923,204.871H38.34a9.112,9.112,0,0,0,9.379-7.895V180.5a5.581,5.581,0,0,0,2,.744c.157.027.314.045.471.058s.316.022.473.022a5.645,5.645,0,0,0,4.963-2.977,5.645,5.645,0,0,0,4.985,3.01,5.706,5.706,0,0,0,2.934-.823v16.44a9.113,9.113,0,0,0,9.381,7.893Zm0,0" transform="translate(-16.339 -76.005)" fill="#ab5816"/>
      <path id="Trazado_121052" data-name="Trazado 121052" d="M50.66,182.926a5.608,5.608,0,0,0,2.116-.417v16.065c0,2.022-.892,7.895-3.385,7.895H38.34a9.112,9.112,0,0,0,9.379-7.895V182.1a5.581,5.581,0,0,0,2,.744c.157.027.314.045.471.058s.316.022.473.022Zm0,0" transform="translate(-16.339 -77.603)" fill="#8c3e09"/>
      <path id="Trazado_121053" data-name="Trazado 121053" d="M83.449,155.167a6,6,0,0,1-5.33-4.555A6,6,0,0,1,67.7,146.026a6,6,0,0,1-8.359-7.722,6,6,0,0,1-5.409-10.015,6,6,0,0,1-1.863-11.228,6,6,0,0,1,1.883-11.226,6,6,0,0,1,5.427-10,6,6,0,0,1,8.379-7.7,6,6,0,0,1,10.428-4.568,6,6,0,0,1,11.342-.937,6,6,0,0,1,11.033,2.8,6,6,0,0,1,9.524,6.232,6,6,0,0,1,6.989,8.982,6,6,0,0,1,3.7,10.769,6,6,0,0,1,4.091,5.689v.083a6,6,0,0,1-4.1,5.678,6,6,0,0,1-3.719,10.762,6,6,0,0,1-7.009,8.964,6,6,0,0,1-9.54,6.211,6,6,0,0,1-11.04,2.777,6,6,0,0,1-5.5,3.62c-.166,0-.334-.009-.5-.022Zm0,0" transform="translate(-20.83 -33.664)" fill="#21bf4a"/>
      <path id="Trazado_121054" data-name="Trazado 121054" d="M83.5,82.088a7.5,7.5,0,0,1,2.961-.659,3.966,3.966,0,0,1,3.062,1.195,6.007,6.007,0,0,0-5.508-3.631c-.164,0-.327.007-.493.02a5.936,5.936,0,0,0-3.434,1.441,6,6,0,0,0-1.908,3.107,6,6,0,0,0-10.453,4.024c0,.182.009.361.027.545a6,6,0,0,0-8.381,7.7,6.007,6.007,0,0,0-7.039,5.9,6.022,6.022,0,0,0,1.612,4.1,6,6,0,0,0-1.883,11.224,6.01,6.01,0,0,0-3.19,5.295,6.085,6.085,0,0,0,.081.982,6.007,6.007,0,0,0,4.972,4.952,6,6,0,0,0,4.382,10.107,5.883,5.883,0,0,0,1.027-.09,6,6,0,0,0,8.361,7.72c-.016.184-.027.365-.027.547a6,6,0,0,0,10.444,4.039,6,6,0,0,0,5.33,4.555c.17.016.341.02.507.02a5.966,5.966,0,0,0,3.313-1,6.191,6.191,0,0,0,.93-.762,5.521,5.521,0,0,1-1.459.188,8.3,8.3,0,0,1-3.3-.751c-2.246-.991-3.582-3.869-3.582-6.274,0-.191.009-.379.025-.56a6,6,0,0,1-8.359-7.72,5.883,5.883,0,0,1-1.027.09,6,6,0,0,1-4.382-10.107,6,6,0,0,1-4.972-4.952,6.085,6.085,0,0,1-.081-.982,6.007,6.007,0,0,1,3.192-5.295,6,6,0,0,1,1.878-11.224,6,6,0,0,1,5.429-10,6,6,0,0,1,8.379-7.7c-.016-.182-.022-.361-.022-.542a6,6,0,0,1,3.587-5.5Zm0,0" transform="translate(-20.83 -33.663)" fill="#17aa3d"/>
      <path id="Trazado_121055" data-name="Trazado 121055" d="M119.819,212.944h-36.8c7.346,0,9.982-6.252,9.982-8.4V187.013a5.961,5.961,0,0,0,2.123.791c.17.027.336.047.5.063s.334.022.5.022a6.007,6.007,0,0,0,5.281-3.167,6.01,6.01,0,0,0,5.306,3.2,6,6,0,0,0,3.123-.874v17.493c0,2.15,2.636,8.4,9.98,8.4Zm0,0" transform="translate(-35.379 -78.72)" fill="#ab5816"/>
      <path id="Trazado_121056" data-name="Trazado 121056" d="M96.128,189.591a5.994,5.994,0,0,0,2.253-.442v17.094c0,2.15-.95,8.4-3.6,8.4H83.019c7.346,0,9.982-6.252,9.982-8.4V188.715a5.973,5.973,0,0,0,2.125.791c.168.027.334.047.5.063s.334.022.5.022Zm0,0" transform="translate(-35.379 -80.421)" fill="#8c3e09"/>
      <path id="Trazado_121057" data-name="Trazado 121057" d="M293.809,249.628a146.5,146.5,0,0,1-11.488,57.06H11.488A146.5,146.5,0,0,1,0,249.628c0-2.878.083-5.745.247-8.581H293.563c.164,2.836.247,5.7.247,8.581Zm0,0" transform="translate(0 -102.723)" fill="#0084a6"/>
      <g id="Grupo_85390" data-name="Grupo 85390" transform="translate(0 138.324)">
        <path id="Trazado_121058" data-name="Trazado 121058" d="M336.288,467.406H324.306v-3c0-8.224-7.973-11.217-8.054-11.248a3,3,0,1,1,2.049-5.633c.448.161,10.114,3.8,11.764,13.884h.464c1.65-10.087,11.316-13.723,11.764-13.884a3,3,0,0,1,2.06,5.629c-.359.137-8.065,3.143-8.065,11.253Zm0,0" transform="translate(-133.93 -328.961)" fill="#17aa3d"/>
        <path id="Trazado_121059" data-name="Trazado 121059" d="M336.819,461.023a3.123,3.123,0,0,1-.684-.078,3,3,0,0,1-2.239-3.6c.038-.168,2.728-12.468-4.669-19.865a3,3,0,1,1,4.241-4.241c9.791,9.794,6.418,24.828,6.27,25.462A3,3,0,0,1,336.819,461.023Zm0,0" transform="translate(-139.927 -322.578)" fill="#17aa3d"/>
        <path id="Trazado_121060" data-name="Trazado 121060" d="M169.17,459.954H157.189v-3c0-8.224-7.973-11.219-8.054-11.248a3,3,0,1,1,2.049-5.635c.448.164,10.114,3.8,11.764,13.884h.464c1.65-10.087,11.316-13.721,11.764-13.884a3,3,0,0,1,2.06,5.631c-.361.137-8.065,3.14-8.065,11.251Zm0,0" transform="translate(-62.713 -325.786)" fill="#17aa3d"/>
        <path id="Trazado_121061" data-name="Trazado 121061" d="M169.7,453.573a3.007,3.007,0,0,1-2.923-3.676c.038-.166,2.728-12.468-4.669-19.863a3,3,0,0,1,4.239-4.241c9.793,9.791,6.418,24.828,6.27,25.462a3,3,0,0,1-2.916,2.318Zm0,0" transform="translate(-68.71 -319.403)" fill="#17aa3d"/>
        <path id="Trazado_121062" data-name="Trazado 121062" d="M293.809,249.628H0c0-2.878.083-5.745.247-8.581H293.563c.164,2.836.247,5.7.247,8.581Zm0,0" transform="translate(0 -241.047)" fill="#17aa3d"/>
      </g>
      <path id="Trazado_121063" data-name="Trazado 121063" d="M260.2,284.343c-24.615,0-69.153,10.549-32.817,14.649s25.783,14.068,2.338,14.068H138.886c66.808,0,35.747-16.413,1.755-16.413-16.993,0-28.715-12.891,37.513-12.891S225.422,272,206.389,272c-38.268,0-37.488-16,1.65-16h39.268c-21.622,1.448-33.465,12.519-8.209,12.519,36.076,0,45.713,15.823,21.1,15.823Zm0,0" transform="translate(-54.293 -109.095)" fill="#69b8d4"/>
      <path id="Trazado_121064" data-name="Trazado 121064" d="M168.808,283.437c0-1.726-7.812-3.125-17.451-3.125s-17.451,1.4-17.451,3.125,7.812,3.127,17.451,3.127S168.808,285.164,168.808,283.437Zm0,0" transform="translate(-57.065 -119.456)" fill="#69b8d4"/>
      <path id="Trazado_121065" data-name="Trazado 121065" d="M384.861,317.479c0-1.726-7.814-3.127-17.453-3.127s-17.451,1.4-17.451,3.127,7.814,3.125,17.451,3.125S384.861,319.2,384.861,317.479Zm0,0" transform="translate(-149.135 -133.962)" fill="#69b8d4"/>
    </g>
  </g>
</svg>
