<svg xmlns="http://www.w3.org/2000/svg" width="820" height="251.001" viewBox="0 0 820 251.001">
  <g id="Grupo_86309" data-name="Grupo 86309" transform="translate(-390 -10843.023)">
    <rect id="Rectángulo_34460" data-name="Rectángulo 34460" width="820" height="56" transform="translate(390 10843.023)" fill="#cee284"/>
    <path id="Rectángulo_34462" data-name="Rectángulo 34462" d="M0,0H410a0,0,0,0,1,0,0V132a0,0,0,0,1,0,0H20A20,20,0,0,1,0,112V0A0,0,0,0,1,0,0Z" transform="translate(390 10899.023)" fill="#deebad"/>
    <path id="Rectángulo_34461" data-name="Rectángulo 34461" d="M0,0H410a0,0,0,0,1,0,0V112a20,20,0,0,1-20,20H0a0,0,0,0,1,0,0V0A0,0,0,0,1,0,0Z" transform="translate(800 10899.023)" fill="#eff5d6"/>
    <path id="Unión_2" data-name="Unión 2" d="M4026,11724h14v-24h53v24h13l-40,39Z" transform="translate(-3266 -668.977)" fill="#0b481e"/>
  </g>
</svg>
