<svg xmlns="http://www.w3.org/2000/svg" width="820" height="251.001" viewBox="0 0 820 251.001">
  <g id="Grupo_86308" data-name="Grupo 86308" transform="translate(-390 -10576.023)">
    <g id="Grupo_86307" data-name="Grupo 86307">
      <rect id="Rectángulo_34456" data-name="Rectángulo 34456" width="820" height="56" transform="translate(390 10576.023)" fill="#44c6ff"/>
      <path id="Rectángulo_34457" data-name="Rectángulo 34457" d="M0,0H410a0,0,0,0,1,0,0V132a0,0,0,0,1,0,0H20A20,20,0,0,1,0,112V0A0,0,0,0,1,0,0Z" transform="translate(390 10632.023)" fill="#84d9ff"/>
      <path id="Rectángulo_34458" data-name="Rectángulo 34458" d="M0,0H410a0,0,0,0,1,0,0V112a20,20,0,0,1-20,20H0a0,0,0,0,1,0,0V0A0,0,0,0,1,0,0Z" transform="translate(800 10632.023)" fill="#b8e9ff"/>
      <path id="Unión_1" data-name="Unión 1" d="M4026,11724h14v-24h53v24h13l-40,39Z" transform="translate(-3266 -935.977)" fill="#0b481e"/>
    </g>
  </g>
</svg>
