<svg xmlns="http://www.w3.org/2000/svg" width="820" height="188" viewBox="0 0 820 188">
  <g id="Grupo_86310" data-name="Grupo 86310" transform="translate(-390 -11110.023)">
    <rect id="Rectángulo_34464" data-name="Rectángulo 34464" width="820" height="56" transform="translate(390 11110.023)" fill="#afafaf"/>
    <path id="Rectángulo_34466" data-name="Rectángulo 34466" d="M0,0H410a0,0,0,0,1,0,0V132a0,0,0,0,1,0,0H20A20,20,0,0,1,0,112V0A0,0,0,0,1,0,0Z" transform="translate(390 11166.023)" fill="#e8e8e8"/>
    <path id="Rectángulo_34465" data-name="Rectángulo 34465" d="M0,0H410a0,0,0,0,1,0,0V112a20,20,0,0,1-20,20H0a0,0,0,0,1,0,0V0A0,0,0,0,1,0,0Z" transform="translate(800 11166.023)" fill="#f6f6f6"/>
  </g>
</svg>
