<svg xmlns="http://www.w3.org/2000/svg" xmlns:xlink="http://www.w3.org/1999/xlink" width="54" height="54" viewBox="0 0 54 54">
  <defs>
    <clipPath id="clip-path">
      <rect id="Rectángulo_34443" data-name="Rectángulo 34443" width="54" height="54" transform="translate(1156 10935)" fill="#fff" stroke="#707070" stroke-width="1"/>
    </clipPath>
  </defs>
  <g id="Enmascarar_grupo_121" data-name="Enmascarar grupo 121" transform="translate(-1156 -10935)" clip-path="url(#clip-path)">
    <g id="cavar" transform="translate(1156 10935)">
      <g id="Grupo_84930" data-name="Grupo 84930">
        <path id="Trazado_119465" data-name="Trazado 119465" d="M20.723,22.709c-3.949.874-5.417,5.645-4.036,9.36,1.241-4.306,14.025-6.724,18.273-8.874l-3.408-5.311C22.8,16.37,23.856,22.017,20.723,22.709Z" fill="#aa6a51" fill-rule="evenodd"/>
      </g>
      <g id="Grupo_84931" data-name="Grupo 84931">
        <path id="Trazado_119466" data-name="Trazado 119466" d="M31.2,17.825A10.4,10.4,0,0,0,26.3,18a8.4,8.4,0,0,1-.526,7.079l8.742-1.809-2.8-4.221Z" fill="#935b44" fill-rule="evenodd"/>
      </g>
      <g id="Grupo_84932" data-name="Grupo 84932">
        <path id="Trazado_119467" data-name="Trazado 119467" d="M30.748,16.769l.969,2.278,1.055,2.484-9.6,4.861c-5.235,2.651-7.519,4.7-8.189,7.025a6.487,6.487,0,0,0-.17,2.559l19.648-7.747a4.432,4.432,0,0,0,2.523-5.719l-2.215-5.588a1.155,1.155,0,0,1,.652-1.5l3.68-1.449a3.266,3.266,0,0,0-1.354-3.414l-5.187,2.046a3.207,3.207,0,0,0-1.809,4.163Z" fill="#f3f0f3" fill-rule="evenodd"/>
      </g>
      <g id="Grupo_84933" data-name="Grupo 84933">
        <path id="Trazado_119468" data-name="Trazado 119468" d="M14.914,33.671a6.7,6.7,0,0,0-.1,2.305l19.648-7.747a4.432,4.432,0,0,0,2.523-5.719l-2.215-5.588a1.155,1.155,0,0,1,.652-1.5l3.68-1.449a3.92,3.92,0,0,0-1.354-3.414l-1.773.7q.049.165.117.331l.158.4c.55,1.39.58,1.249-.72,1.762l-1.582.623a1.845,1.845,0,0,0-.96,2.418l2.027,5.123c.9,2.257-.257,4.055-2.52,4.947Z" fill="#e2dee2" fill-rule="evenodd"/>
      </g>
      <g id="Grupo_84934" data-name="Grupo 84934">
        <path id="Trazado_119469" data-name="Trazado 119469" d="M38.054,12.18l.158.4a4.413,4.413,0,0,0,5.39,2.591l-.269-4.613L40.213,6.613a4.386,4.386,0,0,0-2.159,5.567Z" fill="#025f80" fill-rule="evenodd"/>
      </g>
      <g id="Grupo_84935" data-name="Grupo 84935">
        <path id="Trazado_119470" data-name="Trazado 119470" d="M40.213,6.613l3.39,8.561a3.428,3.428,0,0,0,.335-.116L51.687,12a2.4,2.4,0,0,0,1.351-3.11L51.4,4.764a2.4,2.4,0,0,0-3.118-1.348L40.536,6.469q-.166.067-.323.143Z" fill="#ffbd86" fill-rule="evenodd"/>
      </g>
      <g id="Grupo_84936" data-name="Grupo 84936">
        <path id="Trazado_119471" data-name="Trazado 119471" d="M10.424,39.3H1.751a.964.964,0,0,0-.96.96v9.533a.96.96,0,0,0,.96.957h50.5a.962.962,0,0,0,.963-.957V40.261c0-1.67-1.585-2.666-3.124-2.731a2.651,2.651,0,0,0-2.556-2.192c-1.567,0-1.815-.221-2.323-.576-2.167-1.524-3.447-1.742-5.417,0-.463.408-.526.576-2.093.576A2.651,2.651,0,0,0,35.14,37.53c-4.042-.382-5.265,2.442-5.471,3.063-.478,1.431-3.552,1.079-4.631,3.56-1.623,3.733-8.6,3.137-10.2-.37-1.076-2.362-2.493-4.428-4.413-4.482Z" fill="#aa6a51" fill-rule="evenodd"/>
      </g>
      <g id="Grupo_84937" data-name="Grupo 84937">
        <path id="Trazado_119472" data-name="Trazado 119472" d="M44.551,36.772A2.651,2.651,0,0,1,47.1,38.964c1.54.066,3.124,1.062,3.124,2.731v9.056h2.018a.962.962,0,0,0,.963-.957V40.261c0-1.67-1.585-2.666-3.124-2.731a2.651,2.651,0,0,0-2.556-2.192c-1.567,0-1.815-.221-2.323-.576-2.167-1.524-3.447-1.742-5.417,0-.09.08-.167.152-.242.215a5.65,5.65,0,0,1,2.682,1.22c.505.355.756.576,2.323.576Z" fill="#935b44" fill-rule="evenodd"/>
      </g>
      <g id="Grupo_84938" data-name="Grupo 84938">
        <path id="Trazado_119473" data-name="Trazado 119473" d="M7.775,39.3c1.919.054,3.052,2.12,4.129,4.482,1.034,2.272,4.326,3.322,6.96,2.767a5.465,5.465,0,0,1-4.027-2.767c-1.076-2.362-2.493-4.428-4.413-4.482Z" fill="#935b44" fill-rule="evenodd"/>
      </g>
      <g id="Grupo_84939" data-name="Grupo 84939">
        <path id="Trazado_119474" data-name="Trazado 119474" d="M42.47,12.311a4.425,4.425,0,0,1-4.715-1.434,4.311,4.311,0,0,0,.3,1.3l.158.4a4.413,4.413,0,0,0,5.39,2.591l-.185-3.2Z" fill="#024c67" fill-rule="evenodd"/>
      </g>
      <g id="Grupo_84940" data-name="Grupo 84940">
        <path id="Trazado_119475" data-name="Trazado 119475" d="M42.476,12.326l1,2.533a.352.352,0,0,0,.456.2h0L51.687,12a2.4,2.4,0,0,0,1.351-3.11l-1.13-2.851a2.394,2.394,0,0,1-1.354,3.1L42.8,12.195c-.111.045-.224.084-.335.116Z" fill="#f6a96c" fill-rule="evenodd"/>
      </g>
      <g id="Grupo_84941" data-name="Grupo 84941">
        <path id="Trazado_119476" data-name="Trazado 119476" d="M47.472,42.689a.791.791,0,1,0,0-1.582H38.455a.791.791,0,0,0,0,1.582Z"/>
        <path id="Trazado_119477" data-name="Trazado 119477" d="M6.153,47a.791.791,0,0,0,.791.791h6.081a.791.791,0,0,0,0-1.582H6.944A.791.791,0,0,0,6.153,47Z"/>
        <path id="Trazado_119478" data-name="Trazado 119478" d="M50.7,36.8a3.421,3.421,0,0,0-3.169-2.254c-1.253,0-1.427-.122-1.808-.389l-.06-.042c-2.235-1.571-4-2.066-6.4.054l-.1.091c-.251.226-.319.287-1.468.287A3.416,3.416,0,0,0,34.565,36.7a5.567,5.567,0,0,0-5.646,3.637c-.094.28-.67.512-1.28.759a5.369,5.369,0,0,0-3.326,2.737c-.555,1.277-2.012,2.05-3.9,2.066-2.2.02-4.191-.988-4.858-2.449-.225-.495-.415-.977-.6-1.443-.7-1.772-1.356-3.445-3.378-3.5H7.617a.791.791,0,1,0,0,1.582h3.929c.885.03,1.237.712,1.941,2.5.182.463.389.987.631,1.52,1.077,2.36,3.944,3.4,6.311,3.374,2.529-.022,4.523-1.151,5.335-3.017a3.909,3.909,0,0,1,2.467-1.9c.916-.37,1.863-.752,2.189-1.725.16-.48,1.134-2.856,4.646-2.525a.791.791,0,0,0,.851-.635,1.865,1.865,0,0,1,1.78-1.553c1.526,0,1.93-.156,2.527-.693l.09-.08c1.571-1.388,2.4-1.378,4.441.056l.059.041a3.818,3.818,0,0,0,2.717.677,1.865,1.865,0,0,1,1.78,1.553.791.791,0,0,0,.743.638c1.147.049,2.367.746,2.367,1.941v5.608H29.453a.791.791,0,1,0,0,1.582H52.418v2.343a.171.171,0,0,1-.172.166H1.751a.168.168,0,0,1-.169-.166V43.742H8.561a.791.791,0,0,0,0-1.582H1.582v-1.9a.171.171,0,0,1,.169-.169H3.963a.791.791,0,0,0,0-1.582H1.751A1.753,1.753,0,0,0,0,40.261v9.533a1.751,1.751,0,0,0,1.751,1.748h50.5A1.753,1.753,0,0,0,54,49.794V40.261a3.655,3.655,0,0,0-3.3-3.46Z"/>
        <path id="Trazado_119479" data-name="Trazado 119479" d="M14.023,36.062a.791.791,0,0,0,1.077.65l8.811-3.474a.791.791,0,0,0-.58-1.472l-7.776,3.066c.1-2.457,1.764-4.59,7.972-7.735l9.6-4.861a.791.791,0,0,0,.371-1.015L31.48,16.47a2.416,2.416,0,0,1,1.367-3.127l4.229-1.668a5.275,5.275,0,0,0,.242.8l.16.406a5.3,5.3,0,0,0,.367.742l-2.719,1.071a1.949,1.949,0,0,0-1.1,2.524L36.246,22.8a3.543,3.543,0,0,1-.053,2.732,3.654,3.654,0,0,1-2.025,1.96l-7.5,2.958a.791.791,0,1,0,.58,1.472l7.5-2.958a5.225,5.225,0,0,0,2.9-2.8,5.114,5.114,0,0,0,.072-3.944L35.5,16.63a.364.364,0,0,1,.206-.47L38.918,14.9a5.259,5.259,0,0,0,3.413,1.258,5.14,5.14,0,0,0,1.487-.219l.008,0,.009,0,.057-.02,8.085-3.17a3.186,3.186,0,0,0,1.8-4.137l-1.635-4.13A3.2,3.2,0,0,0,47.994,2.68l-8.072,3.2-.057.025-.015.008,0,0a5.239,5.239,0,0,0-2.863,4.1l-4.717,1.86a4,4,0,0,0-2.32,5.011c-4.864-.376-6.413,1.793-7.569,3.412-.672.942-1.088,1.482-1.825,1.644A6.3,6.3,0,0,0,16.2,25.494a8.9,8.9,0,0,0-.679,5.288,6.7,6.7,0,0,0-1.5,5.279ZM48.575,4.152a1.616,1.616,0,0,1,2.093.9L52.3,9.185a1.6,1.6,0,0,1-.9,2.083l-7.35,2.882L41.24,7.057ZM39.833,7.8l2.679,6.766a3.614,3.614,0,0,1-3.563-2.274l-.159-.4A3.583,3.583,0,0,1,39.833,7.8ZM20.893,23.482a4.708,4.708,0,0,0,2.771-2.27c1.152-1.614,2.343-3.281,6.978-2.668l1.112,2.616-8.943,4.527a30.252,30.252,0,0,0-5.833,3.636c-.027-2.6,1.276-5.255,3.915-5.84Z"/>
      </g>
    </g>
  </g>
</svg>
