<svg xmlns="http://www.w3.org/2000/svg" xmlns:xlink="http://www.w3.org/1999/xlink" width="54" height="54" viewBox="0 0 54 54">
  <defs>
    <clipPath id="clip-path">
      <rect id="Rectángulo_34449" data-name="Rectángulo 34449" width="54" height="54" transform="translate(526 11058)" fill="#fff" stroke="#707070" stroke-width="1"/>
    </clipPath>
  </defs>
  <g id="Enmascarar_grupo_122" data-name="Enmascarar grupo 122" transform="translate(-526 -11058)" clip-path="url(#clip-path)">
    <g id="_x31_9_Save_Water" transform="translate(526 11058)">
      <g id="Grupo_84944" data-name="Grupo 84944">
        <path id="Trazado_119480" data-name="Trazado 119480" d="M47.8,27.814v.873a.631.631,0,0,0,.63.63H52.8a.63.63,0,0,0,.63-.63v-.873a.631.631,0,0,0-.63-.63H48.427A.631.631,0,0,0,47.8,27.814Z" fill="#fff"/>
        <path id="Trazado_119481" data-name="Trazado 119481" d="M52.72,24.39v2.8H48.513V25.971a2.636,2.636,0,0,0-2.632-2.632H42.923V19.131h4.539A5.262,5.262,0,0,1,52.72,24.39Z" fill="#9ec33b"/>
        <path id="Trazado_119482" data-name="Trazado 119482" d="M42.923,18.6v5.264a1.572,1.572,0,0,1-1.575,1.575H39.216a19.651,19.651,0,0,0,0-8.414h2.132A1.572,1.572,0,0,1,42.923,18.6Z" fill="#fccd43"/>
        <path id="Trazado_119483" data-name="Trazado 119483" d="M42.923,18.6v5.264a1.572,1.572,0,0,1-1.575,1.575H39.216Z" opacity="0.1"/>
        <path id="Trazado_119484" data-name="Trazado 119484" d="M39.672,21.232A19.545,19.545,0,0,1,20.118,40.785c-.447,0-.893-.016-1.329-.049A19.545,19.545,0,0,1,.565,21.232a18.688,18.688,0,0,1,.1-1.91,19.552,19.552,0,0,1,39.01,1.91Z" fill="#70c6ec"/>
        <path id="Trazado_119485" data-name="Trazado 119485" d="M37.54,30.116A19.561,19.561,0,0,1,6.3,35.066L35.229,8.828A19.558,19.558,0,0,1,37.54,30.116Z" opacity="0.1"/>
        <g id="Grupo_84942" data-name="Grupo 84942">
          <path id="Trazado_119486" data-name="Trazado 119486" d="M34.372,32.661c.005.673-.108,1.41-.14,2.109a19.51,19.51,0,0,1-14.113,6.016c-.447,0-.893-.016-1.329-.049a6.891,6.891,0,0,1,.42-2.814,2.4,2.4,0,0,1,.565-.968,5.213,5.213,0,0,1,1.291-.657c.436-.21.861-.63.786-1.108a1.42,1.42,0,0,0-.436-.7q-1.2-1.292-2.4-2.583a1.935,1.935,0,0,1-.7-1.42,1.8,1.8,0,0,1,1-1.157,11.558,11.558,0,0,1,5.106-1.55,8.625,8.625,0,0,1-.231-2.8,2.887,2.887,0,0,1,1.49-2.26,4.217,4.217,0,0,1,1.593-.285,6.294,6.294,0,0,1,2.335.178,2.148,2.148,0,0,1,1.517,1.641c.108.925-.6,1.835-.371,2.733.2.791,1.028,1.211,1.668,1.711a5.17,5.17,0,0,1,1.953,3.966Z" fill="#fff"/>
          <path id="Trazado_119487" data-name="Trazado 119487" d="M28.916,3.777q-.016,1.743-.043,3.487a1.58,1.58,0,0,1-.414,1.286c-.36.28-.861.194-1.313.237a2.32,2.32,0,0,0-2.034,1.862,3.153,3.153,0,0,1-.167.818c-.533,1.114-2.454.3-3.363,1.141s-.016,2.389-.409,3.551a1.642,1.642,0,0,1-3.051.151,3.617,3.617,0,0,0-.425-.963c-.506-.592-1.5-.274-2.206-.613a1.952,1.952,0,0,1-.613-2.486c.35-.877,1.006-1.6,1.318-2.491a6.144,6.144,0,0,0,.215-2.507,5.677,5.677,0,0,0-2.33-4.611A19.564,19.564,0,0,1,28.916,3.777Z" fill="#fff"/>
          <path id="Trazado_119488" data-name="Trazado 119488" d="M9.277,35.442A2.941,2.941,0,0,1,8.6,36.976a.19.19,0,0,1-.032.032,19.514,19.514,0,0,1-8-15.776,18.688,18.688,0,0,1,.1-1.91A3.177,3.177,0,0,1,3.18,21.474c.065.253.1.554.317.694a.784.784,0,0,0,.441.1A6.514,6.514,0,0,0,6.1,21.942a1.546,1.546,0,0,1,.829-.135c.457.1.694.6.829,1.044a10.416,10.416,0,0,1,.452,3.175,1.387,1.387,0,0,1-.344,1.065,3.028,3.028,0,0,1-.931.35,2.083,2.083,0,0,0-.872,2.712A8.608,8.608,0,0,0,8,32.645a3.849,3.849,0,0,1,1.281,2.8Z" fill="#fff"/>
        </g>
        <g id="Grupo_84943" data-name="Grupo 84943">
          <path id="Trazado_119489" data-name="Trazado 119489" d="M52.1,37.3a1.482,1.482,0,1,1-2.963,0c0-.819,1.484-3.442,1.484-3.442S52.1,36.479,52.1,37.3Z" fill="#70c6ec"/>
          <path id="Trazado_119490" data-name="Trazado 119490" d="M53.411,49.514a2.8,2.8,0,1,1-5.593,0c0-1.545,2.8-6.5,2.8-6.5S53.411,47.969,53.411,49.514Z" fill="#70c6ec"/>
        </g>
      </g>
      <g id="Grupo_84945" data-name="Grupo 84945">
        <path id="Trazado_119491" data-name="Trazado 119491" d="M53.286,26.723V24.39a5.828,5.828,0,0,0-5.821-5.821H46.412V14.593h2.754a.562.562,0,0,0,0-1.125H42.533a.562.562,0,0,0,0,1.125h2.754v3.976h-1.8a2.138,2.138,0,0,0-2.134-2.1h-1.69A19.981,19.981,0,0,0,29.173,3.275l-.031-.014h0a19.833,19.833,0,0,0-9.021-2.139A20.113,20.113,0,1,0,39.668,26h1.682a2.138,2.138,0,0,0,2.134-2.1h2.4a2.072,2.072,0,0,1,2.07,2.07v.751a1.193,1.193,0,0,0-.717,1.092v.873a1.194,1.194,0,0,0,1.193,1.193h4.378A1.194,1.194,0,0,0,54,28.687v-.873A1.193,1.193,0,0,0,53.286,26.723ZM28.352,4.132q-.016,1.562-.039,3.126c-.013,1.169-.3.882-1.211.969a2.883,2.883,0,0,0-2.542,2.326,3.559,3.559,0,0,1-.12.671c-.315.657-2.19,0-3.237.97-1.165,1.075-.223,2.786-.56,3.784a1.132,1.132,0,0,1-.969.732c-1.127.054-1.064-1.181-1.547-1.73-.69-.807-1.827-.484-2.392-.756-.518-.246-.589-1.115-.332-1.77.329-.826.988-1.55,1.325-2.51a6.658,6.658,0,0,0,.247-2.735A6.13,6.13,0,0,0,15.2,2.9a18.931,18.931,0,0,1,4.917-.658,18.714,18.714,0,0,1,8.231,1.885ZM13.964,3.279a5.052,5.052,0,0,1,1.889,4.008,5.68,5.68,0,0,1-.185,2.282c-.286.812-.936,1.531-1.311,2.472a2.489,2.489,0,0,0,.893,3.2c.775.373,1.735.136,2.027.477.179.2.465,2.215,2.452,2.117a2.25,2.25,0,0,0,1.979-1.5c.425-1.257-.348-2.759.258-3.318.789-.728,3.367.429,3.673-2.063A1.755,1.755,0,0,1,27.2,9.347c1.355-.128,2.214-.149,2.236-2.075Q29.456,6,29.469,4.72a18.972,18.972,0,0,1,5.451,28.414,5.691,5.691,0,0,0-2.153-4.882c-.6-.472-1.325-.849-1.47-1.408-.173-.672.507-1.614.385-2.663a2.692,2.692,0,0,0-1.894-2.1,8.073,8.073,0,0,0-4.344.129A3.407,3.407,0,0,0,23.632,24.9a7.541,7.541,0,0,0,.121,2.369,12.156,12.156,0,0,0-4.727,1.572c-1.543.919-1.7,2.054-.421,3.443C20.99,34.862,21.27,35.1,21.3,35.277c.051.326-.653.6-.868.684a2.5,2.5,0,0,0-1.747,1.772,7.751,7.751,0,0,0-.462,2.38,18.82,18.82,0,0,1-8.86-3.245c1-1.657.354-3.194-.95-4.605a8.349,8.349,0,0,1-1.827-2.315c-.271-.69-.13-1.726.548-1.98s1.615-.219,1.638-1.933a10.934,10.934,0,0,0-.476-3.345c-.419-1.392-1.2-1.682-2.37-1.282a6.322,6.322,0,0,1-2.1.3,3.487,3.487,0,0,0-2.541-2.784A18.931,18.931,0,0,1,13.964,3.279ZM1.17,20.085c1.937.824,1.164,2,2.018,2.552.685.456,2.413,0,3.141-.179.481-.164.651-.23.888.557a9.8,9.8,0,0,1,.428,3c-.012.875-.215.633-.91.9a2.627,2.627,0,0,0-1.2,3.445,8.934,8.934,0,0,0,2.047,2.667c.91.985,1.511,2.014.86,3.173A19.02,19.02,0,0,1,1.17,20.085Zm18.175,20.11a6.594,6.594,0,0,1,.394-2.079c.272-.746.44-.842,1.109-1.111.9-.36,1.711-.944,1.56-1.9-.1-.61-.306-.693-2.977-3.581-.741-.805-.81-1.129.166-1.711a11,11,0,0,1,4.857-1.474.562.562,0,0,0,.518-.668,8.224,8.224,0,0,1-.227-2.611,2.362,2.362,0,0,1,1.172-1.831,7.262,7.262,0,0,1,3.51-.085,1.614,1.614,0,0,1,1.139,1.173c.089.765-.638,1.719-.357,2.809.261,1.012,1.2,1.5,1.866,2.013,1.888,1.482,1.761,3.188,1.616,5.38a18.844,18.844,0,0,1-13.569,5.705c-.261,0-.517-.017-.775-.028ZM42.363,23.867a1.014,1.014,0,0,1-1.013,1.012H39.9A19.936,19.936,0,0,0,39.9,17.59h1.452A1.014,1.014,0,0,1,42.363,18.6v5.264Zm3.521-1.091h-2.4V19.694h3.976a4.7,4.7,0,0,1,4.7,4.7v2.231H49.079V25.97A3.2,3.2,0,0,0,45.884,22.776Zm6.991,5.911a.068.068,0,0,1-.068.068H48.43a.068.068,0,0,1-.068-.068v-.873a.068.068,0,0,1,.068-.068h4.378a.068.068,0,0,1,.068.068Z"/>
        <path id="Trazado_119492" data-name="Trazado 119492" d="M52.661,37.3c0-.9-1.188-3.073-1.552-3.718a.563.563,0,0,0-.49-.286h0a.562.562,0,0,0-.49.286c-.365.645-1.557,2.822-1.557,3.719a2.044,2.044,0,1,0,4.088,0Zm-2.963,0a8.75,8.75,0,0,1,.921-2.254,8.765,8.765,0,0,1,.918,2.254.919.919,0,1,1-1.838,0Z"/>
        <path id="Trazado_119493" data-name="Trazado 119493" d="M50.622,42.455h0a.562.562,0,0,0-.49.286c-.294.52-2.874,5.128-2.874,6.774a3.359,3.359,0,1,0,6.718,0c0-1.646-2.571-6.253-2.865-6.773A.563.563,0,0,0,50.622,42.455Zm0,9.3a2.241,2.241,0,0,1-2.239-2.239c0-.87,1.224-3.437,2.238-5.329,1.011,1.892,2.231,4.459,2.231,5.329A2.237,2.237,0,0,1,50.622,51.753Z"/>
      </g>
    </g>
  </g>
</svg>
