<svg xmlns="http://www.w3.org/2000/svg" xmlns:xlink="http://www.w3.org/1999/xlink" width="399.666" height="399.667" viewBox="0 0 399.666 399.667">
  <defs>
    <clipPath id="clip-path">
      <rect id="Rectángulo_34414" data-name="Rectángulo 34414" width="56" height="56" transform="translate(859 9511)" fill="#fff" stroke="#707070" stroke-width="1"/>
    </clipPath>
    <clipPath id="clip-path-2">
      <rect id="Rectángulo_34417" data-name="Rectángulo 34417" width="56" height="56" transform="translate(701 7842.023)" fill="#fff" stroke="#707070" stroke-width="1"/>
    </clipPath>
    <clipPath id="clip-path-3">
      <rect id="Rectángulo_34415" data-name="Rectángulo 34415" width="56" height="56" transform="translate(856 7679.023)" fill="#fff" stroke="#707070" stroke-width="1"/>
    </clipPath>
    <clipPath id="clip-path-4">
      <rect id="Rectángulo_34416" data-name="Rectángulo 34416" width="56" height="56" transform="translate(701 7679.023)" fill="#fff" stroke="#707070" stroke-width="1"/>
    </clipPath>
  </defs>
  <g id="Grupo_86304" data-name="Grupo 86304" transform="translate(-600.333 -7612.356)">
    <g id="Grupo_86230" data-name="Grupo 86230">
      <g id="Grupo_84888" data-name="Grupo 84888" transform="translate(8.95 7509.307)">
        <path id="Trazado_119191" data-name="Trazado 119191" d="M738.333,297.77h194.72c-2.671-106.338-88.382-192.049-194.72-194.72Z" transform="translate(57.997)" fill="#ffd3c3"/>
        <path id="Trazado_119192" data-name="Trazado 119192" d="M786.1,297.77V103.05c-106.338,2.671-192.049,88.382-194.72,194.72Z" fill="#adce32"/>
        <path id="Trazado_119193" data-name="Trazado 119193" d="M738.333,250V444.72c106.338-2.671,192.049-88.382,194.72-194.72Z" transform="translate(57.997 57.997)" fill="#ffa686"/>
        <path id="Trazado_119194" data-name="Trazado 119194" d="M786.1,250H591.383c2.671,106.338,88.382,192.049,194.72,194.72Z" transform="translate(0 57.997)" fill="#deebad"/>
      </g>
      <path id="Trazado_122766" data-name="Trazado 122766" d="M11.013-10.415H7.172V0H4.087V-10.415H.316V-12.8h10.7ZM16.778.176a4.889,4.889,0,0,1-3.542-1.305,4.507,4.507,0,0,1-1.354-3.4v-.246a5.84,5.84,0,0,1,.541-2.575A3.955,3.955,0,0,1,14-9.075a4.763,4.763,0,0,1,2.461-.611,4.117,4.117,0,0,1,3.164,1.244,4.887,4.887,0,0,1,1.16,3.467v1.151H14.9a2.135,2.135,0,0,0,.694,1.257,2.066,2.066,0,0,0,1.389.457,2.662,2.662,0,0,0,2.2-.984l1.354,1.6A3.784,3.784,0,0,1,18.962-.277,5.3,5.3,0,0,1,16.778.176ZM16.444-7.4q-1.3,0-1.547,1.723h2.988v-.229a1.467,1.467,0,0,0-.36-1.1A1.434,1.434,0,0,0,16.444-7.4ZM26-2.109a1.317,1.317,0,0,0,.967-.338,1.241,1.241,0,0,0,.334-.945h2.777A3.288,3.288,0,0,1,28.956-.826a4.168,4.168,0,0,1-2.887,1,4.22,4.22,0,0,1-3.27-1.3,5.125,5.125,0,0,1-1.2-3.6v-.123A5.792,5.792,0,0,1,22.135-7.4a3.872,3.872,0,0,1,1.534-1.7,4.573,4.573,0,0,1,2.373-.593,4.116,4.116,0,0,1,2.944,1.028,3.647,3.647,0,0,1,1.09,2.786H27.3A1.626,1.626,0,0,0,26.938-7a1.244,1.244,0,0,0-.967-.4q-1.151,0-1.345,1.468a10.357,10.357,0,0,0-.062,1.283,4.068,4.068,0,0,0,.343,1.986A1.187,1.187,0,0,0,26-2.109Zm8.051-7.4.1,1.116a3.225,3.225,0,0,1,2.716-1.292,2.713,2.713,0,0,1,2.219.888,4.226,4.226,0,0,1,.76,2.672V0H36.87V-6a1.6,1.6,0,0,0-.29-1.059A1.342,1.342,0,0,0,35.525-7.4a1.413,1.413,0,0,0-1.292.686V0H31.271V-9.51Zm7.058,4.667a5.613,5.613,0,0,1,.554-2.536,3.96,3.96,0,0,1,1.591-1.709,4.791,4.791,0,0,1,2.435-.6,4.373,4.373,0,0,1,3.366,1.323,5.076,5.076,0,0,1,1.23,3.6v.105a4.925,4.925,0,0,1-1.235,3.529A4.384,4.384,0,0,1,45.7.176a4.434,4.434,0,0,1-3.261-1.217,4.761,4.761,0,0,1-1.327-3.3Zm2.962.185a3.538,3.538,0,0,0,.413,1.934,1.376,1.376,0,0,0,1.222.615q1.582,0,1.617-2.435v-.3q0-2.558-1.635-2.558-1.485,0-1.608,2.206ZM54.712,0H51.741V-13.5h2.971Zm1.45-4.843a5.613,5.613,0,0,1,.554-2.536,3.96,3.96,0,0,1,1.591-1.709,4.791,4.791,0,0,1,2.435-.6,4.373,4.373,0,0,1,3.366,1.323,5.076,5.076,0,0,1,1.23,3.6v.105A4.925,4.925,0,0,1,64.1-1.129,4.384,4.384,0,0,1,60.759.176,4.434,4.434,0,0,1,57.5-1.042a4.761,4.761,0,0,1-1.327-3.3Zm2.962.185a3.538,3.538,0,0,0,.413,1.934,1.376,1.376,0,0,0,1.222.615q1.582,0,1.617-2.435v-.3q0-2.558-1.635-2.558-1.485,0-1.608,2.206ZM66.3-4.825a6.421,6.421,0,0,1,.475-2.549,3.821,3.821,0,0,1,1.362-1.709,3.591,3.591,0,0,1,2.065-.6,2.855,2.855,0,0,1,2.32,1l.105-.826h2.689V-.36a4.009,4.009,0,0,1-.584,2.184,3.75,3.75,0,0,1-1.692,1.424,6.219,6.219,0,0,1-2.566.5,5.365,5.365,0,0,1-2.026-.4,3.657,3.657,0,0,1-1.5-1.028L68.186.58a2.716,2.716,0,0,0,2.18.976A1.764,1.764,0,0,0,72.334-.466v-.3a2.781,2.781,0,0,1-2.153.94,3.437,3.437,0,0,1-2.812-1.332A5.517,5.517,0,0,1,66.3-4.72Zm2.971.185a3.383,3.383,0,0,0,.439,1.85,1.386,1.386,0,0,0,1.23.681,1.573,1.573,0,0,0,1.4-.642v-4a1.534,1.534,0,0,0-1.38-.65,1.4,1.4,0,0,0-1.239.708A3.858,3.858,0,0,0,69.267-4.641ZM80.227,0H77.247V-9.51h2.979ZM79.119-13.324h3.129L79.8-10.564l-2.417,0ZM87.486,0a3.344,3.344,0,0,1-.281-.853A2.754,2.754,0,0,1,84.92.176a3.374,3.374,0,0,1-2.285-.813,2.588,2.588,0,0,1-.94-2.043,2.66,2.66,0,0,1,1.143-2.338,5.821,5.821,0,0,1,3.322-.791h.914v-.5q0-1.316-1.134-1.316a.927.927,0,0,0-1.055,1.042H81.923A2.655,2.655,0,0,1,83.1-8.825a4.931,4.931,0,0,1,2.993-.86,4.323,4.323,0,0,1,2.874.888,3.086,3.086,0,0,1,1.081,2.435v4.21a4.311,4.311,0,0,0,.4,2V0ZM85.632-1.934a1.652,1.652,0,0,0,.918-.237,1.487,1.487,0,0,0,.523-.536V-4.228h-.861q-1.547,0-1.547,1.389a.848.848,0,0,0,.272.655A.986.986,0,0,0,85.632-1.934Z" transform="translate(840 7930.023)" fill="#12263f"/>
      <path id="Trazado_122767" data-name="Trazado 122767" d="M8.235-2.391H4.008L3.27,0h-3.3L4.667-12.8h2.9L12.3,0H8.982ZM4.746-4.772H7.5L6.117-9.211ZM15.891-9.51l.1,1.116A3.27,3.27,0,0,1,18.7-9.686a2.407,2.407,0,0,1,2.435,1.433,3.165,3.165,0,0,1,2.795-1.433q2.892,0,2.971,3.5V0H23.933V-6a1.813,1.813,0,0,0-.246-1.063,1.048,1.048,0,0,0-.9-.334,1.4,1.4,0,0,0-1.31.782l.009.123V0H18.519V-5.985a1.906,1.906,0,0,0-.237-1.081,1.045,1.045,0,0,0-.905-.334,1.42,1.42,0,0,0-1.3.782V0H13.113V-9.51ZM37.424-4.676a5.8,5.8,0,0,1-.967,3.595A3.238,3.238,0,0,1,33.732.176,2.81,2.81,0,0,1,31.395-.976L31.271,0H28.617V-13.5h2.962v4.755a2.711,2.711,0,0,1,2.136-.94,3.239,3.239,0,0,1,2.742,1.274,5.826,5.826,0,0,1,.967,3.586Zm-2.971-.189a3.866,3.866,0,0,0-.365-1.952A1.229,1.229,0,0,0,32.968-7.4a1.418,1.418,0,0,0-1.389.763v3.773a1.426,1.426,0,0,0,1.406.755,1.258,1.258,0,0,0,1.327-1.018A7.309,7.309,0,0,0,34.453-4.865ZM41.854,0H38.883V-9.51h2.971ZM38.707-11.962A1.322,1.322,0,0,1,39.164-13a1.724,1.724,0,0,1,1.187-.4,1.724,1.724,0,0,1,1.187.4,1.322,1.322,0,0,1,.457,1.037,1.322,1.322,0,0,1-.457,1.037,1.724,1.724,0,0,1-1.187.4,1.724,1.724,0,0,1-1.187-.4A1.322,1.322,0,0,1,38.707-11.962ZM48.278.176a4.889,4.889,0,0,1-3.542-1.305,4.507,4.507,0,0,1-1.354-3.4v-.246a5.84,5.84,0,0,1,.541-2.575A3.955,3.955,0,0,1,45.5-9.075a4.763,4.763,0,0,1,2.461-.611,4.117,4.117,0,0,1,3.164,1.244,4.887,4.887,0,0,1,1.16,3.467v1.151H46.4a2.135,2.135,0,0,0,.694,1.257,2.066,2.066,0,0,0,1.389.457,2.662,2.662,0,0,0,2.2-.984l1.354,1.6A3.784,3.784,0,0,1,50.462-.277,5.3,5.3,0,0,1,48.278.176ZM47.944-7.4q-1.3,0-1.547,1.723h2.988v-.229a1.467,1.467,0,0,0-.36-1.1A1.434,1.434,0,0,0,47.944-7.4ZM56.2-9.51l.1,1.116A3.225,3.225,0,0,1,59.01-9.686a2.713,2.713,0,0,1,2.219.888,4.226,4.226,0,0,1,.76,2.672V0H59.019V-6a1.6,1.6,0,0,0-.29-1.059A1.342,1.342,0,0,0,57.674-7.4a1.413,1.413,0,0,0-1.292.686V0H53.42V-9.51Zm10.881-2.364V-9.51h1.564v2.057H67.078V-3.1a1.111,1.111,0,0,0,.193.747,1.037,1.037,0,0,0,.765.211,4.345,4.345,0,0,0,.738-.053V-.079A5.466,5.466,0,0,1,67.1.176a3.1,3.1,0,0,1-2.259-.721,2.954,2.954,0,0,1-.729-2.188v-4.72H62.9V-9.51h1.213v-2.364ZM74.408.176a4.889,4.889,0,0,1-3.542-1.305,4.507,4.507,0,0,1-1.354-3.4v-.246a5.84,5.84,0,0,1,.541-2.575,3.955,3.955,0,0,1,1.578-1.727,4.763,4.763,0,0,1,2.461-.611,4.117,4.117,0,0,1,3.164,1.244,4.887,4.887,0,0,1,1.16,3.467v1.151H72.527a2.135,2.135,0,0,0,.694,1.257,2.066,2.066,0,0,0,1.389.457,2.662,2.662,0,0,0,2.2-.984l1.354,1.6A3.784,3.784,0,0,1,76.592-.277,5.3,5.3,0,0,1,74.408.176ZM74.074-7.4q-1.3,0-1.547,1.723h2.988v-.229a1.467,1.467,0,0,0-.36-1.1A1.434,1.434,0,0,0,74.074-7.4Z" transform="translate(688 7930.023)" fill="#12263f"/>
      <path id="Trazado_122765" data-name="Trazado 122765" d="M7.567-3.4a1.268,1.268,0,0,0-.479-1.055,5.954,5.954,0,0,0-1.683-.782,16.147,16.147,0,0,1-1.969-.782Q.949-7.242.949-9.378a3.011,3.011,0,0,1,.62-1.876A4.008,4.008,0,0,1,3.322-12.52a6.823,6.823,0,0,1,2.549-.453,5.969,5.969,0,0,1,2.474.492,3.917,3.917,0,0,1,1.7,1.4A3.661,3.661,0,0,1,10.652-9H7.576A1.547,1.547,0,0,0,7.1-10.213a1.867,1.867,0,0,0-1.3-.431,2.106,2.106,0,0,0-1.305.365,1.119,1.119,0,0,0-.479.927,1.127,1.127,0,0,0,.527.892A6.65,6.65,0,0,0,6.4-7.633a11.36,11.36,0,0,1,2.18.918,3.663,3.663,0,0,1,2.074,3.3A3.125,3.125,0,0,1,9.387-.782,5.629,5.629,0,0,1,5.915.176,6.888,6.888,0,0,1,3.1-.382,4.247,4.247,0,0,1,1.2-1.912,3.985,3.985,0,0,1,.563-4.148H3.656a1.963,1.963,0,0,0,.532,1.516,2.513,2.513,0,0,0,1.727.488,1.985,1.985,0,0,0,1.208-.33A1.088,1.088,0,0,0,7.567-3.4Zm4.157-1.441a5.613,5.613,0,0,1,.554-2.536,3.96,3.96,0,0,1,1.591-1.709,4.791,4.791,0,0,1,2.435-.6A4.373,4.373,0,0,1,19.67-8.363a5.076,5.076,0,0,1,1.23,3.6v.105a4.925,4.925,0,0,1-1.235,3.529A4.384,4.384,0,0,1,16.321.176a4.434,4.434,0,0,1-3.261-1.217,4.761,4.761,0,0,1-1.327-3.3Zm2.962.185A3.538,3.538,0,0,0,15.1-2.725a1.376,1.376,0,0,0,1.222.615q1.582,0,1.617-2.435v-.3Q17.938-7.4,16.3-7.4q-1.485,0-1.608,2.206Zm11.54,2.549a1.317,1.317,0,0,0,.967-.338,1.241,1.241,0,0,0,.334-.945H30.3A3.288,3.288,0,0,1,29.184-.826a4.168,4.168,0,0,1-2.887,1,4.22,4.22,0,0,1-3.27-1.3,5.125,5.125,0,0,1-1.2-3.6v-.123A5.792,5.792,0,0,1,22.364-7.4a3.872,3.872,0,0,1,1.534-1.7,4.573,4.573,0,0,1,2.373-.593,4.116,4.116,0,0,1,2.944,1.028A3.647,3.647,0,0,1,30.3-5.871H27.527A1.626,1.626,0,0,0,27.167-7a1.244,1.244,0,0,0-.967-.4q-1.151,0-1.345,1.468a10.357,10.357,0,0,0-.062,1.283,4.068,4.068,0,0,0,.343,1.986A1.187,1.187,0,0,0,26.227-2.109ZM34.682,0H31.711V-9.51h2.971ZM31.535-11.962A1.322,1.322,0,0,1,31.992-13a1.724,1.724,0,0,1,1.187-.4,1.724,1.724,0,0,1,1.187.4,1.322,1.322,0,0,1,.457,1.037,1.322,1.322,0,0,1-.457,1.037,1.724,1.724,0,0,1-1.187.4,1.724,1.724,0,0,1-1.187-.4A1.322,1.322,0,0,1,31.535-11.962ZM41.106.176a4.889,4.889,0,0,1-3.542-1.305,4.507,4.507,0,0,1-1.354-3.4v-.246a5.84,5.84,0,0,1,.541-2.575,3.955,3.955,0,0,1,1.578-1.727,4.763,4.763,0,0,1,2.461-.611,4.117,4.117,0,0,1,3.164,1.244,4.887,4.887,0,0,1,1.16,3.467v1.151H39.226a2.135,2.135,0,0,0,.694,1.257,2.066,2.066,0,0,0,1.389.457,2.662,2.662,0,0,0,2.2-.984l1.354,1.6A3.784,3.784,0,0,1,43.291-.277,5.3,5.3,0,0,1,41.106.176ZM40.772-7.4q-1.3,0-1.547,1.723h2.988v-.229a1.467,1.467,0,0,0-.36-1.1A1.434,1.434,0,0,0,40.772-7.4Zm5.159,2.575a5.809,5.809,0,0,1,.976-3.56,3.211,3.211,0,0,1,2.725-1.3,2.731,2.731,0,0,1,2.145,1V-13.5h2.971V0H52.084l-.149-1.02a2.8,2.8,0,0,1-2.32,1.2,3.205,3.205,0,0,1-2.689-1.3A5.993,5.993,0,0,1,45.932-4.825Zm2.962.185q0,2.531,1.477,2.531a1.458,1.458,0,0,0,1.406-.826V-6.557A1.419,1.419,0,0,0,50.388-7.4q-1.371,0-1.485,2.215ZM61.787,0a3.344,3.344,0,0,1-.281-.853A2.754,2.754,0,0,1,59.221.176a3.374,3.374,0,0,1-2.285-.813A2.588,2.588,0,0,1,56-2.681a2.66,2.66,0,0,1,1.143-2.338A5.821,5.821,0,0,1,60.46-5.81h.914v-.5q0-1.316-1.134-1.316a.927.927,0,0,0-1.055,1.042H56.224A2.655,2.655,0,0,1,57.4-8.825a4.931,4.931,0,0,1,2.993-.86,4.323,4.323,0,0,1,2.874.888,3.086,3.086,0,0,1,1.081,2.435v4.21a4.311,4.311,0,0,0,.4,2V0ZM59.933-1.934a1.652,1.652,0,0,0,.918-.237,1.487,1.487,0,0,0,.523-.536V-4.228h-.861q-1.547,0-1.547,1.389a.848.848,0,0,0,.272.655A.986.986,0,0,0,59.933-1.934ZM65.61-4.825a5.809,5.809,0,0,1,.976-3.56,3.211,3.211,0,0,1,2.725-1.3,2.731,2.731,0,0,1,2.145,1V-13.5h2.971V0H71.763l-.149-1.02a2.8,2.8,0,0,1-2.32,1.2,3.205,3.205,0,0,1-2.689-1.3A5.993,5.993,0,0,1,65.61-4.825Zm2.962.185q0,2.531,1.477,2.531a1.458,1.458,0,0,0,1.406-.826V-6.557A1.419,1.419,0,0,0,70.066-7.4q-1.371,0-1.485,2.215Z" transform="translate(847 7767.023)" fill="#12263f"/>
      <path id="Trazado_122764" data-name="Trazado 122764" d="M8.9-5.432H4.052v3.059h5.73V0H.967V-12.8H9.8v2.382H4.052v2.7H8.9Zm5.854,3.322a1.317,1.317,0,0,0,.967-.338,1.241,1.241,0,0,0,.334-.945h2.777A3.288,3.288,0,0,1,17.714-.826a4.168,4.168,0,0,1-2.887,1,4.22,4.22,0,0,1-3.27-1.3,5.125,5.125,0,0,1-1.2-3.6v-.123A5.792,5.792,0,0,1,10.894-7.4a3.872,3.872,0,0,1,1.534-1.7A4.573,4.573,0,0,1,14.8-9.686a4.116,4.116,0,0,1,2.944,1.028,3.647,3.647,0,0,1,1.09,2.786H16.058A1.626,1.626,0,0,0,15.7-7a1.244,1.244,0,0,0-.967-.4q-1.151,0-1.345,1.468a10.357,10.357,0,0,0-.062,1.283,4.068,4.068,0,0,0,.343,1.986A1.187,1.187,0,0,0,14.757-2.109Zm4.957-2.733a5.613,5.613,0,0,1,.554-2.536,3.96,3.96,0,0,1,1.591-1.709,4.791,4.791,0,0,1,2.435-.6,4.373,4.373,0,0,1,3.366,1.323,5.076,5.076,0,0,1,1.23,3.6v.105a4.925,4.925,0,0,1-1.235,3.529A4.384,4.384,0,0,1,24.311.176,4.434,4.434,0,0,1,21.05-1.042a4.761,4.761,0,0,1-1.327-3.3Zm2.962.185a3.538,3.538,0,0,0,.413,1.934,1.376,1.376,0,0,0,1.222.615q1.582,0,1.617-2.435v-.3q0-2.558-1.635-2.558-1.485,0-1.608,2.206ZM32.915-9.51l.1,1.116a3.225,3.225,0,0,1,2.716-1.292,2.713,2.713,0,0,1,2.219.888,4.226,4.226,0,0,1,.76,2.672V0H35.736V-6a1.6,1.6,0,0,0-.29-1.059A1.342,1.342,0,0,0,34.392-7.4a1.413,1.413,0,0,0-1.292.686V0H30.138V-9.51Zm7.058,4.667a5.613,5.613,0,0,1,.554-2.536,3.96,3.96,0,0,1,1.591-1.709,4.791,4.791,0,0,1,2.435-.6,4.373,4.373,0,0,1,3.366,1.323,5.076,5.076,0,0,1,1.23,3.6v.105a4.925,4.925,0,0,1-1.235,3.529A4.384,4.384,0,0,1,44.569.176a4.434,4.434,0,0,1-3.261-1.217,4.761,4.761,0,0,1-1.327-3.3Zm2.962.185a3.538,3.538,0,0,0,.413,1.934,1.376,1.376,0,0,0,1.222.615q1.582,0,1.617-2.435v-.3q0-2.558-1.635-2.558-1.485,0-1.608,2.206ZM53.253-9.51l.1,1.116a3.27,3.27,0,0,1,2.716-1.292A2.407,2.407,0,0,1,58.5-8.253a3.165,3.165,0,0,1,2.795-1.433q2.892,0,2.971,3.5V0H61.295V-6a1.813,1.813,0,0,0-.246-1.063,1.048,1.048,0,0,0-.9-.334,1.4,1.4,0,0,0-1.31.782l.009.123V0H55.881V-5.985a1.906,1.906,0,0,0-.237-1.081,1.045,1.045,0,0,0-.905-.334,1.42,1.42,0,0,0-1.3.782V0H50.476V-9.51ZM69.188,0H66.208V-9.51h2.979ZM68.08-13.324h3.129l-2.443,2.76-2.417,0ZM76.447,0a3.344,3.344,0,0,1-.281-.853A2.754,2.754,0,0,1,73.881.176,3.374,3.374,0,0,1,71.6-.637a2.588,2.588,0,0,1-.94-2.043A2.66,2.66,0,0,1,71.8-5.019,5.821,5.821,0,0,1,75.12-5.81h.914v-.5q0-1.316-1.134-1.316a.927.927,0,0,0-1.055,1.042H70.884a2.655,2.655,0,0,1,1.173-2.239,4.931,4.931,0,0,1,2.993-.86,4.323,4.323,0,0,1,2.874.888A3.086,3.086,0,0,1,79-6.363v4.21a4.311,4.311,0,0,0,.4,2V0ZM74.593-1.934a1.652,1.652,0,0,0,.918-.237,1.487,1.487,0,0,0,.523-.536V-4.228h-.861q-1.547,0-1.547,1.389a.848.848,0,0,0,.272.655A.986.986,0,0,0,74.593-1.934Z" transform="translate(686 7767.023)" fill="#12263f"/>
      <g id="Enmascarar_grupo_109" data-name="Enmascarar grupo 109" transform="translate(-3 -1668.977)" clip-path="url(#clip-path)">
        <g id="zumbido" transform="translate(859 9511)">
          <g id="Grupo_84900" data-name="Grupo 84900">
            <g id="Grupo_84889" data-name="Grupo 84889">
              <path id="Trazado_119195" data-name="Trazado 119195" d="M46.1,36.835a.469.469,0,0,0-.5,0,2.356,2.356,0,0,0,0,4.135.469.469,0,0,0,.5,0,2.356,2.356,0,0,0,0-4.135Z" fill="#95d6a4"/>
              <path id="Trazado_119196" data-name="Trazado 119196" d="M46.069,38.9a2.326,2.326,0,0,1,.627-1.569,2.831,2.831,0,0,0-.6-.5.469.469,0,0,0-.5,0,2.356,2.356,0,0,0,0,4.135.469.469,0,0,0,.5,0,2.825,2.825,0,0,0,.6-.5A2.326,2.326,0,0,1,46.069,38.9Z" fill="#95d6a4"/>
              <path id="Trazado_119197" data-name="Trazado 119197" d="M46.491,43.894a.491.491,0,0,1-.238-.461,2.463,2.463,0,0,1,3.841-1.984.49.49,0,0,1,.238.461,2.463,2.463,0,0,1-3.841,1.984Z" fill="#95d6a4"/>
              <path id="Trazado_119198" data-name="Trazado 119198" d="M48.186,43.894a.49.49,0,0,1-.238-.461A2.57,2.57,0,0,1,49.28,41.3a2.3,2.3,0,0,1,.255-.112,2.463,2.463,0,0,0-1.95.112,2.569,2.569,0,0,0-1.332,2.131.491.491,0,0,0,.238.461,2.615,2.615,0,0,0,2.254.259A3.005,3.005,0,0,1,48.186,43.894Z" fill="#95d6a4"/>
              <path id="Trazado_119199" data-name="Trazado 119199" d="M45.2,43.894a.491.491,0,0,0,.238-.461A2.463,2.463,0,0,0,41.6,41.449a.49.49,0,0,0-.238.461A2.463,2.463,0,0,0,45.2,43.894Z" fill="#95d6a4"/>
              <path id="Trazado_119200" data-name="Trazado 119200" d="M44.391,44.041a2.57,2.57,0,0,1-1.332-2.131.491.491,0,0,1,.238-.461,3,3,0,0,1,.559-.259,2.615,2.615,0,0,0-2.254.259.491.491,0,0,0-.238.461A2.57,2.57,0,0,0,42.7,44.041a2.463,2.463,0,0,0,1.95.112A2.339,2.339,0,0,1,44.391,44.041Z" fill="#95d6a4"/>
              <path id="Trazado_119201" data-name="Trazado 119201" d="M34.2,36.835a.469.469,0,0,0-.5,0,2.356,2.356,0,0,0,0,4.135.469.469,0,0,0,.5,0,2.356,2.356,0,0,0,0-4.135Z" fill="#95d6a4"/>
              <path id="Trazado_119202" data-name="Trazado 119202" d="M34.171,38.9a2.326,2.326,0,0,1,.627-1.569,2.831,2.831,0,0,0-.6-.5.469.469,0,0,0-.5,0,2.356,2.356,0,0,0,0,4.135.469.469,0,0,0,.5,0,2.825,2.825,0,0,0,.6-.5A2.325,2.325,0,0,1,34.171,38.9Z" fill="#95d6a4"/>
              <path id="Trazado_119203" data-name="Trazado 119203" d="M34.593,43.894a.49.49,0,0,1-.238-.461A2.463,2.463,0,0,1,38.2,41.449a.49.49,0,0,1,.238.461,2.463,2.463,0,0,1-3.841,1.984Z" fill="#95d6a4"/>
              <path id="Trazado_119204" data-name="Trazado 119204" d="M36.288,43.894a.49.49,0,0,1-.238-.461A2.57,2.57,0,0,1,37.382,41.3a2.3,2.3,0,0,1,.255-.112,2.463,2.463,0,0,0-1.95.112,2.569,2.569,0,0,0-1.332,2.131.491.491,0,0,0,.238.461,2.615,2.615,0,0,0,2.254.259A3,3,0,0,1,36.288,43.894Z" fill="#95d6a4"/>
              <path id="Trazado_119205" data-name="Trazado 119205" d="M33.307,43.894a.49.49,0,0,0,.238-.461A2.463,2.463,0,0,0,29.7,41.449a.49.49,0,0,0-.238.461,2.463,2.463,0,0,0,3.841,1.984Z" fill="#95d6a4"/>
              <path id="Trazado_119206" data-name="Trazado 119206" d="M32.493,44.041a2.57,2.57,0,0,1-1.332-2.131.491.491,0,0,1,.238-.461,3,3,0,0,1,.559-.259,2.615,2.615,0,0,0-2.254.259.491.491,0,0,0-.238.461A2.57,2.57,0,0,0,30.8,44.041a2.463,2.463,0,0,0,1.95.112A2.339,2.339,0,0,1,32.493,44.041Z" fill="#95d6a4"/>
              <path id="Trazado_119207" data-name="Trazado 119207" d="M22.3,36.835a.469.469,0,0,0-.5,0,2.356,2.356,0,0,0,0,4.135.469.469,0,0,0,.5,0,2.356,2.356,0,0,0,0-4.135Z" fill="#95d6a4"/>
              <path id="Trazado_119208" data-name="Trazado 119208" d="M22.272,38.9a2.326,2.326,0,0,1,.627-1.569,2.831,2.831,0,0,0-.6-.5.469.469,0,0,0-.5,0,2.356,2.356,0,0,0,0,4.135.469.469,0,0,0,.5,0,2.825,2.825,0,0,0,.6-.5A2.326,2.326,0,0,1,22.272,38.9Z" fill="#95d6a4"/>
              <path id="Trazado_119209" data-name="Trazado 119209" d="M22.695,43.894a.49.49,0,0,1-.238-.461A2.463,2.463,0,0,1,26.3,41.449a.49.49,0,0,1,.238.461,2.463,2.463,0,0,1-3.841,1.984Z" fill="#95d6a4"/>
              <path id="Trazado_119210" data-name="Trazado 119210" d="M24.39,43.894a.49.49,0,0,1-.238-.461A2.57,2.57,0,0,1,25.484,41.3a2.3,2.3,0,0,1,.255-.112,2.463,2.463,0,0,0-1.95.112,2.569,2.569,0,0,0-1.332,2.131.491.491,0,0,0,.238.461,2.615,2.615,0,0,0,2.254.259A3.005,3.005,0,0,1,24.39,43.894Z" fill="#95d6a4"/>
              <path id="Trazado_119211" data-name="Trazado 119211" d="M21.408,43.894a.49.49,0,0,0,.238-.461,2.463,2.463,0,0,0-3.841-1.984.49.49,0,0,0-.238.461,2.463,2.463,0,0,0,3.841,1.984Z" fill="#95d6a4"/>
              <path id="Trazado_119212" data-name="Trazado 119212" d="M20.595,44.041a2.57,2.57,0,0,1-1.332-2.131.491.491,0,0,1,.238-.461,3,3,0,0,1,.559-.259,2.615,2.615,0,0,0-2.254.259.491.491,0,0,0-.238.461A2.57,2.57,0,0,0,18.9,44.041a2.463,2.463,0,0,0,1.95.112A2.339,2.339,0,0,1,20.595,44.041Z" fill="#95d6a4"/>
              <path id="Trazado_119213" data-name="Trazado 119213" d="M10.4,36.835a.469.469,0,0,0-.5,0,2.356,2.356,0,0,0,0,4.135.469.469,0,0,0,.5,0,2.356,2.356,0,0,0,0-4.135Z" fill="#95d6a4"/>
              <path id="Trazado_119214" data-name="Trazado 119214" d="M10.374,38.9A2.326,2.326,0,0,1,11,37.333a2.831,2.831,0,0,0-.6-.5.469.469,0,0,0-.5,0,2.356,2.356,0,0,0,0,4.135.469.469,0,0,0,.5,0,2.825,2.825,0,0,0,.6-.5A2.326,2.326,0,0,1,10.374,38.9Z" fill="#95d6a4"/>
              <path id="Trazado_119215" data-name="Trazado 119215" d="M10.8,43.894a.49.49,0,0,1-.238-.461A2.463,2.463,0,0,1,14.4,41.449a.49.49,0,0,1,.238.461A2.463,2.463,0,0,1,10.8,43.894Z" fill="#95d6a4"/>
              <path id="Trazado_119216" data-name="Trazado 119216" d="M12.492,43.894a.49.49,0,0,1-.238-.461A2.57,2.57,0,0,1,13.586,41.3a2.3,2.3,0,0,1,.255-.112,2.463,2.463,0,0,0-1.95.112,2.569,2.569,0,0,0-1.332,2.131.491.491,0,0,0,.238.461,2.615,2.615,0,0,0,2.254.259A3,3,0,0,1,12.492,43.894Z" fill="#95d6a4"/>
              <path id="Trazado_119217" data-name="Trazado 119217" d="M9.51,43.894a.49.49,0,0,0,.238-.461A2.57,2.57,0,0,0,8.416,41.3a2.569,2.569,0,0,0-2.509.147.49.49,0,0,0-.238.461A2.57,2.57,0,0,0,7,44.041,2.569,2.569,0,0,0,9.51,43.894Z" fill="#95d6a4"/>
              <path id="Trazado_119218" data-name="Trazado 119218" d="M8.7,44.041A2.57,2.57,0,0,1,7.365,41.91a.491.491,0,0,1,.238-.461,3,3,0,0,1,.559-.259,2.615,2.615,0,0,0-2.254.259.491.491,0,0,0-.238.461A2.57,2.57,0,0,0,7,44.041a2.463,2.463,0,0,0,1.95.112A2.339,2.339,0,0,1,8.7,44.041Z" fill="#95d6a4"/>
            </g>
            <path id="Trazado_119219" data-name="Trazado 119219" d="M12.912,46.748h6.38v8.441h-6.38Z" fill="#ccf49f"/>
            <path id="Trazado_119220" data-name="Trazado 119220" d="M24.811,46.748h6.38v8.441h-6.38Z" fill="#ccf49f"/>
            <path id="Trazado_119221" data-name="Trazado 119221" d="M53.543,46.748H48.607v8.441h4.936a1.229,1.229,0,0,0,1.229-1.229V47.976a1.229,1.229,0,0,0-1.229-1.229Z" fill="#ccf49f"/>
            <path id="Trazado_119222" data-name="Trazado 119222" d="M36.709,46.748h6.38v8.441h-6.38Z" fill="#ccf49f"/>
            <path id="Trazado_119223" data-name="Trazado 119223" d="M7.394,46.748H2.458A1.229,1.229,0,0,0,1.23,47.976V53.96a1.229,1.229,0,0,0,1.229,1.229H7.394V46.748Z" fill="#ccf49f"/>
            <path id="Trazado_119224" data-name="Trazado 119224" d="M12.912,51.589h6.38v3.6h-6.38Z" fill="#b3e59f"/>
            <path id="Trazado_119225" data-name="Trazado 119225" d="M24.811,51.589h6.38v3.6h-6.38Z" fill="#b3e59f"/>
            <path id="Trazado_119226" data-name="Trazado 119226" d="M7.394,51.589H2.459A1.229,1.229,0,0,1,1.23,50.36v3.6a1.229,1.229,0,0,0,1.229,1.229H7.394Z" fill="#b3e59f"/>
            <path id="Trazado_119227" data-name="Trazado 119227" d="M53.543,51.589H48.607v3.6h4.936a1.229,1.229,0,0,0,1.229-1.229v-3.6A1.229,1.229,0,0,1,53.543,51.589Z" fill="#b3e59f"/>
            <path id="Trazado_119228" data-name="Trazado 119228" d="M36.709,51.589h6.38v3.6h-6.38Z" fill="#b3e59f"/>
            <path id="Trazado_119229" data-name="Trazado 119229" d="M7.179,46.748h5.949v8.441H7.179Z" fill="#b3e59f"/>
            <path id="Trazado_119230" data-name="Trazado 119230" d="M19.077,46.748h5.949v8.441H19.077Z" fill="#b3e59f"/>
            <path id="Trazado_119231" data-name="Trazado 119231" d="M30.975,46.748h5.949v8.441H30.975Z" fill="#b3e59f"/>
            <path id="Trazado_119232" data-name="Trazado 119232" d="M42.873,46.748h5.949v8.441H42.873Z" fill="#b3e59f"/>
            <path id="Trazado_119233" data-name="Trazado 119233" d="M7.179,51.589h5.949v3.6H7.179Z" fill="#95d6a4"/>
            <path id="Trazado_119234" data-name="Trazado 119234" d="M19.077,51.589h5.949v3.6H19.077Z" fill="#95d6a4"/>
            <path id="Trazado_119235" data-name="Trazado 119235" d="M30.975,51.589h5.949v3.6H30.975Z" fill="#95d6a4"/>
            <path id="Trazado_119236" data-name="Trazado 119236" d="M42.873,51.589h5.949v3.6H42.873Z" fill="#95d6a4"/>
            <g id="Grupo_84891" data-name="Grupo 84891">
              <g id="Grupo_84890" data-name="Grupo 84890">
                <path id="Trazado_119237" data-name="Trazado 119237" d="M33.232,8.789V8.736A3.382,3.382,0,0,0,29.86,5.364H26.129a3.382,3.382,0,0,0-3.372,3.372v.053Z" fill="#365e7d"/>
              </g>
            </g>
            <path id="Trazado_119238" data-name="Trazado 119238" d="M30.25,5.387a3.377,3.377,0,0,0-.39-.023H26.129a3.382,3.382,0,0,0-3.372,3.372v.053h4.512V8.736A3.383,3.383,0,0,1,30.25,5.387Z" fill="#294b64"/>
            <path id="Trazado_119239" data-name="Trazado 119239" d="M25.649,15.547V17.77a.823.823,0,0,0,.823.823h3.045a.823.823,0,0,0,.823-.823V15.547Z" fill="#eeebee"/>
            <path id="Trazado_119240" data-name="Trazado 119240" d="M28.1,17.77V15.547H25.649V17.77a.823.823,0,0,0,.823.823h2.454A.823.823,0,0,1,28.1,17.77Z" fill="#d6d4d6"/>
            <path id="Trazado_119241" data-name="Trazado 119241" d="M15.356,1.9h-7.3a1.414,1.414,0,0,0,0,2.828h7.3a1.414,1.414,0,1,0,0-2.828Z" fill="#eeebee"/>
            <path id="Trazado_119242" data-name="Trazado 119242" d="M40.633,1.9h7.3a1.414,1.414,0,1,1,0,2.828h-7.3a1.414,1.414,0,0,1,0-2.828Z" fill="#eeebee"/>
            <path id="Trazado_119243" data-name="Trazado 119243" d="M11.5,3.313A1.414,1.414,0,0,1,12.916,1.9H8.058a1.414,1.414,0,0,0,0,2.828h4.858A1.414,1.414,0,0,1,11.5,3.313Z" fill="#d6d4d6"/>
            <path id="Trazado_119244" data-name="Trazado 119244" d="M44.077,3.313A1.414,1.414,0,0,1,45.49,1.9H40.633a1.414,1.414,0,0,0,0,2.828H45.49A1.414,1.414,0,0,1,44.077,3.313Z" fill="#d6d4d6"/>
            <path id="Trazado_119245" data-name="Trazado 119245" d="M46.445,7.381H40.431a4.438,4.438,0,0,0-1.95.453,8.312,8.312,0,0,1-3.652.845H21.159a8.311,8.311,0,0,1-3.652-.845,4.438,4.438,0,0,0-1.95-.453H9.544A1.237,1.237,0,0,0,8.307,8.619v.933a1.237,1.237,0,0,0,1.237,1.237h6.02a3.508,3.508,0,0,1,2.2.773l4.133,3.321a3.508,3.508,0,0,0,2.2.773H31.9a3.508,3.508,0,0,0,2.2-.773l4.133-3.321a3.508,3.508,0,0,1,2.2-.773h6.02a1.237,1.237,0,0,0,1.237-1.237V8.619a1.237,1.237,0,0,0-1.237-1.237Z" fill="#477b9e"/>
            <g id="Grupo_84893" data-name="Grupo 84893">
              <g id="Grupo_84892" data-name="Grupo 84892">
                <path id="Trazado_119246" data-name="Trazado 119246" d="M29.628,12.339H26.361a.82.82,0,0,1,0-1.641h3.267a.82.82,0,0,1,0,1.641Z" fill="#cbe2ff"/>
              </g>
            </g>
            <g id="Grupo_84895" data-name="Grupo 84895">
              <g id="Grupo_84894" data-name="Grupo 84894">
                <path id="Trazado_119247" data-name="Trazado 119247" d="M23.749,14.444V9.992A1.316,1.316,0,0,1,25.061,8.68h-3.9a8.311,8.311,0,0,1-3.652-.845,4.438,4.438,0,0,0-1.95-.453H9.544A1.237,1.237,0,0,0,8.307,8.619v.933a1.237,1.237,0,0,0,1.237,1.237h6.02a3.507,3.507,0,0,1,2.2.773l4.133,3.321a3.508,3.508,0,0,0,2.2.773h.472A1.317,1.317,0,0,1,23.749,14.444Z" fill="#365e7d"/>
              </g>
            </g>
            <g id="Grupo_84897" data-name="Grupo 84897">
              <g id="Grupo_84896" data-name="Grupo 84896">
                <path id="Trazado_119248" data-name="Trazado 119248" d="M33.232,8.789V8.736A3.382,3.382,0,0,0,29.86,5.364H26.129a3.382,3.382,0,0,0-3.372,3.372v.053Z" fill="#365e7d"/>
              </g>
            </g>
            <path id="Trazado_119249" data-name="Trazado 119249" d="M30.25,5.387a3.377,3.377,0,0,0-.39-.023H26.129a3.382,3.382,0,0,0-3.372,3.372v.053h4.512V8.736A3.383,3.383,0,0,1,30.25,5.387Z" fill="#294b64"/>
            <path id="Trazado_119250" data-name="Trazado 119250" d="M25.649,15.547V17.77a.823.823,0,0,0,.823.823h3.045a.823.823,0,0,0,.823-.823V15.547Z" fill="#eeebee"/>
            <path id="Trazado_119251" data-name="Trazado 119251" d="M28.1,17.77V15.547H25.649V17.77a.823.823,0,0,0,.823.823h2.454A.823.823,0,0,1,28.1,17.77Z" fill="#d6d4d6"/>
            <path id="Trazado_119252" data-name="Trazado 119252" d="M15.356,1.9h-7.3a1.414,1.414,0,0,0,0,2.828h7.3a1.414,1.414,0,1,0,0-2.828Z" fill="#eeebee"/>
            <path id="Trazado_119253" data-name="Trazado 119253" d="M40.633,1.9h7.3a1.414,1.414,0,1,1,0,2.828h-7.3a1.414,1.414,0,0,1,0-2.828Z" fill="#eeebee"/>
            <path id="Trazado_119254" data-name="Trazado 119254" d="M11.5,3.313A1.414,1.414,0,0,1,12.916,1.9H8.058a1.414,1.414,0,0,0,0,2.828h4.858A1.414,1.414,0,0,1,11.5,3.313Z" fill="#d6d4d6"/>
            <path id="Trazado_119255" data-name="Trazado 119255" d="M44.077,3.313A1.414,1.414,0,0,1,45.49,1.9H40.633a1.414,1.414,0,0,0,0,2.828H45.49A1.414,1.414,0,0,1,44.077,3.313Z" fill="#d6d4d6"/>
            <path id="Trazado_119256" data-name="Trazado 119256" d="M46.445,7.381H40.431a4.438,4.438,0,0,0-1.95.453,8.312,8.312,0,0,1-3.652.845H21.159a8.311,8.311,0,0,1-3.652-.845,4.438,4.438,0,0,0-1.95-.453H9.544A1.237,1.237,0,0,0,8.307,8.619v.933a1.237,1.237,0,0,0,1.237,1.237h6.02a3.508,3.508,0,0,1,2.2.773l4.133,3.321a3.508,3.508,0,0,0,2.2.773H31.9a3.508,3.508,0,0,0,2.2-.773l4.133-3.321a3.508,3.508,0,0,1,2.2-.773h6.02a1.237,1.237,0,0,0,1.237-1.237V8.619a1.237,1.237,0,0,0-1.237-1.237Z" fill="#477b9e"/>
            <g id="Grupo_84899" data-name="Grupo 84899">
              <g id="Grupo_84898" data-name="Grupo 84898">
                <path id="Trazado_119257" data-name="Trazado 119257" d="M23.749,14.444V9.992A1.316,1.316,0,0,1,25.061,8.68h-3.9a8.311,8.311,0,0,1-3.652-.845,4.438,4.438,0,0,0-1.95-.453H9.544A1.237,1.237,0,0,0,8.307,8.619v.933a1.237,1.237,0,0,0,1.237,1.237h6.02a3.507,3.507,0,0,1,2.2.773l4.133,3.321a3.508,3.508,0,0,0,2.2.773h.472A1.317,1.317,0,0,1,23.749,14.444Z" fill="#365e7d"/>
              </g>
            </g>
          </g>
          <g id="Grupo_84901" data-name="Grupo 84901">
            <path id="Trazado_119258" data-name="Trazado 119258" d="M8.063,5.538h2.829V6.552H9.55A2.06,2.06,0,0,0,7.492,8.61v.933A2.06,2.06,0,0,0,9.55,11.6h1.342v.454a.82.82,0,0,0,1.641,0V11.6h3.037a2.7,2.7,0,0,1,1.683.592l1.691,1.359L16.089,16.01a.821.821,0,0,0-.285.621v3.1a.82.82,0,0,0,1.641,0V17.008l2.8-2.412,1.142.918a4.344,4.344,0,0,0,2.711.954h.737v1.4a1.645,1.645,0,0,0,1.643,1.643h3.045a1.645,1.645,0,0,0,1.643-1.643v-1.4H31.9a4.343,4.343,0,0,0,2.711-.954l1.142-.918,2.8,2.412v2.727a.82.82,0,0,0,1.641,0v-3.1a.821.821,0,0,0-.285-.621l-2.854-2.459,1.69-1.358A2.7,2.7,0,0,1,40.43,11.6h3.037v.454a.82.82,0,1,0,1.641,0V11.6H46.45a2.06,2.06,0,0,0,2.058-2.058V8.61A2.06,2.06,0,0,0,46.45,6.552H45.108V5.538h2.829a2.234,2.234,0,1,0,0-4.468H45.108V.82a.82.82,0,1,0-1.641,0v.25H40.638a2.234,2.234,0,0,0,0,4.468h2.829V6.552h-3.03a5.289,5.289,0,0,0-2.31.536,7.534,7.534,0,0,1-3.291.762h-.85a4.213,4.213,0,0,0-4.06-3.424h-.012A.82.82,0,0,0,29.9,6.067,2.565,2.565,0,0,1,32.3,7.85H23.7a2.565,2.565,0,0,1,2.4-1.783.82.82,0,0,0-.011-1.641h-.012a4.213,4.213,0,0,0-4.06,3.424h-.85a7.533,7.533,0,0,1-3.291-.762,5.289,5.289,0,0,0-2.31-.536h-3.03V5.538h2.829a2.234,2.234,0,0,0,0-4.468H12.533V.82a.82.82,0,1,0-1.641,0v.25H8.063a2.234,2.234,0,0,0,0,4.468ZM29.523,17.874l-3.048,0v-1.4h3.05ZM40.638,3.9a.594.594,0,0,1,0-1.187h7.3a.594.594,0,1,1,0,1.187ZM15.563,8.193a3.639,3.639,0,0,1,1.589.369,9.183,9.183,0,0,0,4.012.929H34.836a9.185,9.185,0,0,0,4.012-.928,3.639,3.639,0,0,1,1.589-.37H46.45a.417.417,0,0,1,.417.417v.933a.417.417,0,0,1-.417.417h-6.02a4.343,4.343,0,0,0-2.711.954l-2.446,1.965h0l-1.687,1.355a2.7,2.7,0,0,1-1.683.592H24.1a2.7,2.7,0,0,1-1.683-.592l-1.686-1.355h0L18.28,10.913a4.343,4.343,0,0,0-2.711-.954H9.55a.417.417,0,0,1-.417-.417V8.609a.418.418,0,0,1,.417-.417h6.013Zm-7.5-5.482h7.3a.594.594,0,0,1,0,1.187h-7.3a.594.594,0,0,1,0-1.187Z"/>
            <path id="Trazado_119259" data-name="Trazado 119259" d="M26.366,12.33h3.267a.82.82,0,0,0,0-1.641H26.366a.82.82,0,0,0,0,1.641Z"/>
            <path id="Trazado_119260" data-name="Trazado 119260" d="M20,26.2a.82.82,0,1,0-1.179,1.141,12.757,12.757,0,0,0,18.362,0A.82.82,0,1,0,36,26.2a11.116,11.116,0,0,1-16,0Z"/>
            <path id="Trazado_119261" data-name="Trazado 119261" d="M22.283,23.817a.82.82,0,0,0-1.2,1.121,9.457,9.457,0,0,0,13.829,0,.82.82,0,0,0-1.2-1.122,7.816,7.816,0,0,1-11.433,0Z"/>
            <path id="Trazado_119262" data-name="Trazado 119262" d="M28,24.642a6.175,6.175,0,0,0,4.656-2.125.82.82,0,1,0-1.237-1.078,4.524,4.524,0,0,1-6.838,0,.82.82,0,1,0-1.237,1.078A6.175,6.175,0,0,0,28,24.642Z"/>
            <path id="Trazado_119263" data-name="Trazado 119263" d="M2.458,56H53.542a2.051,2.051,0,0,0,2.049-2.049V52.873a.82.82,0,0,0-1.641,0v1.078a.409.409,0,0,1-.408.408h-3.9v-6.8h3.9a.409.409,0,0,1,.408.408v1.078a.82.82,0,0,0,1.641,0V47.967a2.051,2.051,0,0,0-2.049-2.049H46.633V44.863a3.515,3.515,0,0,0,1.281.249,3.174,3.174,0,0,0,1.462-.351,3.393,3.393,0,0,0,1.773-2.794,1.3,1.3,0,0,0-.636-1.232,3.472,3.472,0,0,0-2.737-.4,3.073,3.073,0,0,0,.366-1.445,3.281,3.281,0,0,0-1.613-2.764,1.282,1.282,0,0,0-1.364,0,3.281,3.281,0,0,0-1.613,2.764,3.074,3.074,0,0,0,.366,1.445,3.472,3.472,0,0,0-2.737.4,1.3,1.3,0,0,0-.636,1.232,3.393,3.393,0,0,0,1.773,2.794,3.175,3.175,0,0,0,1.462.351,3.506,3.506,0,0,0,1.212-.222v1.028H34.735V44.863a3.517,3.517,0,0,0,1.281.248,3.176,3.176,0,0,0,1.462-.351,3.393,3.393,0,0,0,1.773-2.794,1.3,1.3,0,0,0-.636-1.232,3.472,3.472,0,0,0-2.737-.4,3.073,3.073,0,0,0,.366-1.445,3.281,3.281,0,0,0-1.613-2.764h0a1.282,1.282,0,0,0-1.364,0,3.281,3.281,0,0,0-1.613,2.764,3.075,3.075,0,0,0,.366,1.445,3.471,3.471,0,0,0-2.737.4,1.3,1.3,0,0,0-.636,1.232,3.393,3.393,0,0,0,1.773,2.794,3.175,3.175,0,0,0,1.462.351,3.505,3.505,0,0,0,1.212-.222v1.028H22.837V44.863a3.515,3.515,0,0,0,1.281.249,3.175,3.175,0,0,0,1.462-.351,3.393,3.393,0,0,0,1.773-2.795,1.3,1.3,0,0,0-.636-1.232,3.472,3.472,0,0,0-2.737-.4,3.073,3.073,0,0,0,.366-1.445,3.281,3.281,0,0,0-1.613-2.764,1.282,1.282,0,0,0-1.364,0,3.281,3.281,0,0,0-1.613,2.764,3.074,3.074,0,0,0,.366,1.445,3.471,3.471,0,0,0-2.737.4,1.3,1.3,0,0,0-.636,1.232,3.393,3.393,0,0,0,1.773,2.794,3.174,3.174,0,0,0,1.462.351A3.506,3.506,0,0,0,21.2,44.89v1.028H10.939V44.863a3.3,3.3,0,0,0,2.743-.1,3.393,3.393,0,0,0,1.773-2.794,1.3,1.3,0,0,0-.636-1.232,3.471,3.471,0,0,0-2.737-.4,3.073,3.073,0,0,0,.366-1.445,3.281,3.281,0,0,0-1.613-2.764h0a1.282,1.282,0,0,0-1.364,0,3.281,3.281,0,0,0-1.613,2.764,3.075,3.075,0,0,0,.366,1.445,3.471,3.471,0,0,0-2.737.4,1.3,1.3,0,0,0-.636,1.232,3.393,3.393,0,0,0,1.773,2.794,3.175,3.175,0,0,0,1.462.351A3.505,3.505,0,0,0,9.3,44.89v1.028H2.458A2.051,2.051,0,0,0,.409,47.967v5.984A2.051,2.051,0,0,0,2.458,56Zm45.5-13.979a1.692,1.692,0,0,1,1.527.023A1.616,1.616,0,0,1,47.1,43.28,1.692,1.692,0,0,1,47.961,42.021ZM43.072,43.3a1.693,1.693,0,0,1-.864-1.259A1.616,1.616,0,0,1,44.6,43.28,1.693,1.693,0,0,1,43.072,43.3Zm2.776-5.652a1.506,1.506,0,0,1,0,2.484,1.506,1.506,0,0,1,0-2.484Zm-2.154,9.907H48v6.8H43.693Zm-5.949,0h4.308v6.8H37.744Zm-1.681-5.537a1.693,1.693,0,0,1,1.527.023A1.616,1.616,0,0,1,35.2,43.28,1.692,1.692,0,0,1,36.062,42.021ZM31.173,43.3a1.692,1.692,0,0,1-.864-1.259A1.616,1.616,0,0,1,32.7,43.28,1.692,1.692,0,0,1,31.173,43.3Zm2.776-5.652a1.506,1.506,0,0,1,0,2.484,1.506,1.506,0,0,1,0-2.484Zm-2.154,9.907H36.1v6.8H31.795Zm-5.949,0h4.308v6.8H25.846Zm-1.681-5.537a1.692,1.692,0,0,1,1.527.023A1.616,1.616,0,0,1,23.3,43.28,1.693,1.693,0,0,1,24.164,42.021ZM19.275,43.3a1.692,1.692,0,0,1-.864-1.258A1.616,1.616,0,0,1,20.8,43.28a1.692,1.692,0,0,1-1.527.023Zm2.776-5.652a1.506,1.506,0,0,1,0,2.484,1.506,1.506,0,0,1,0-2.484ZM19.9,47.559h4.309v6.8H19.9Zm-5.949,0h4.309v6.8H13.948Zm-1.681-5.537a1.692,1.692,0,0,1,1.527.023A1.616,1.616,0,0,1,11.4,43.28,1.692,1.692,0,0,1,12.266,42.021ZM7.377,43.3a1.693,1.693,0,0,1-.864-1.259A1.616,1.616,0,0,1,8.9,43.28,1.694,1.694,0,0,1,7.377,43.3Zm2.776-5.652a1.506,1.506,0,0,1,0,2.484,1.506,1.506,0,0,1,0-2.484ZM8,47.559h4.308v6.8H8Zm-5.949.408a.409.409,0,0,1,.408-.408h3.9v6.8h-3.9a.409.409,0,0,1-.408-.408Z"/>
          </g>
        </g>
      </g>
      <g id="Enmascarar_grupo_159" data-name="Enmascarar grupo 159" transform="translate(-3)" clip-path="url(#clip-path-2)">
        <g id="ecologia" transform="translate(701 7842.023)">
          <circle id="Elipse_5147" data-name="Elipse 5147" cx="4.375" cy="4.375" r="4.375" transform="translate(37.567 15.153)" fill="#ffd54f"/>
          <path id="Trazado_122604" data-name="Trazado 122604" d="M41.948,15.153a4.361,4.361,0,0,0-1.641.317,4.375,4.375,0,0,1-.011,8.111,4.375,4.375,0,1,0,1.652-8.428Z" fill="#ffc328"/>
          <path id="Trazado_122605" data-name="Trazado 122605" d="M26.359,12.768h3.281v6.759H26.359Z" fill="#a35418"/>
          <path id="Trazado_122606" data-name="Trazado 122606" d="M22.454,30.437C22.42,17.831,17.914,6.8,12.359,6.8S2.3,17.831,2.264,30.437Z" fill="#329c9d"/>
          <path id="Trazado_122607" data-name="Trazado 122607" d="M12.359,6.8a4.4,4.4,0,0,0-1.641.327c4.775,1.909,8.424,11.969,8.454,23.307h3.281C22.42,17.831,17.914,6.8,12.359,6.8Z" fill="#2d8b8c"/>
          <path id="Trazado_122608" data-name="Trazado 122608" d="M20.159,15.677a2.415,2.415,0,0,1-1.717.8c-1.521,0-1.521-1.277-3.042-1.277s-1.52,1.277-3.041,1.277S10.839,15.2,9.318,15.2,7.8,16.478,6.277,16.478a2.413,2.413,0,0,1-1.717-.8C6.411,10.33,9.217,6.8,12.359,6.8S18.308,10.331,20.159,15.677Z" fill="#f3f3f3"/>
          <path id="Trazado_122609" data-name="Trazado 122609" d="M12.359,6.8a4.4,4.4,0,0,0-1.64.327c2.5,1,4.693,4.237,6.217,8.722a2.1,2.1,0,0,0,1.506.626,2.415,2.415,0,0,0,1.717-.8C18.308,10.331,15.5,6.8,12.359,6.8Z" fill="#e4e4e4"/>
          <path id="Trazado_122610" data-name="Trazado 122610" d="M30.949,12.768h-5.9a5.974,5.974,0,1,1,0-11.948h5.9a5.974,5.974,0,0,1,0,11.948Z" fill="#6de470"/>
          <path id="Trazado_122611" data-name="Trazado 122611" d="M30.949.82H27.668a5.974,5.974,0,0,1,0,11.948h3.281a5.974,5.974,0,0,0,0-11.948Z" fill="#4dcc68"/>
          <ellipse id="Elipse_5148" data-name="Elipse 5148" cx="19.25" cy="9.078" rx="19.25" ry="9.078" transform="translate(8.75 18.375)" fill="#6de470"/>
          <path id="Trazado_122612" data-name="Trazado 122612" d="M28,18.375q-.829,0-1.641.033c9.863.393,17.609,4.292,17.609,9.045S36.223,36.105,26.359,36.5q.811.032,1.641.033c10.631,0,19.25-4.064,19.25-9.078S38.631,18.375,28,18.375Z" fill="#4dcc68"/>
          <path id="Trazado_122613" data-name="Trazado 122613" d="M55.18,26.162a.333.333,0,0,0-.364-.332c-1.909.192-2.03,1.885-4.167,1.885-2.265,0-2.265-1.9-4.531-1.9s-2.265,1.9-4.53,1.9-2.265-1.9-4.53-1.9-2.265,1.9-4.53,1.9-2.265-1.9-4.53-1.9-2.265,1.9-4.529,1.9-2.265-1.9-4.53-1.9-2.265,1.9-4.53,1.9-2.265-1.9-4.53-1.9-2.265,1.9-4.53,1.9c-2.137,0-2.258-1.693-4.166-1.885a.333.333,0,0,0-.364.332V28A27.18,27.18,0,1,0,55.18,28Z" fill="#bdf9ff"/>
          <g id="Grupo_86227" data-name="Grupo 86227">
            <path id="Trazado_122614" data-name="Trazado 122614" d="M29.247,27.715a2.83,2.83,0,0,0,1.641-.469c-.861-.563-1.357-1.433-2.889-1.433a2.829,2.829,0,0,0-1.641.47C27.219,26.845,27.715,27.715,29.247,27.715Z" fill="#8bf0ff"/>
            <path id="Trazado_122615" data-name="Trazado 122615" d="M47.368,27.715a2.833,2.833,0,0,0,1.641-.469c-.862-.563-1.358-1.434-2.891-1.434a2.83,2.83,0,0,0-1.641.469C45.339,26.845,45.836,27.715,47.368,27.715Z" fill="#8bf0ff"/>
            <path id="Trazado_122616" data-name="Trazado 122616" d="M38.307,27.715a2.83,2.83,0,0,0,1.641-.469c-.861-.563-1.358-1.433-2.889-1.433a2.83,2.83,0,0,0-1.641.469C36.279,26.845,36.775,27.715,38.307,27.715Z" fill="#8bf0ff"/>
            <path id="Trazado_122617" data-name="Trazado 122617" d="M20.188,27.715a2.829,2.829,0,0,0,1.641-.47c-.861-.563-1.357-1.433-2.889-1.433a2.83,2.83,0,0,0-1.641.469c.861.563,1.357,1.433,2.889,1.433Z" fill="#8bf0ff"/>
            <path id="Trazado_122618" data-name="Trazado 122618" d="M54.816,25.83c-1.447.145-1.867,1.154-2.917,1.633V28A27.18,27.18,0,0,1,26.359,55.129c.543.032,1.09.051,1.641.051A27.18,27.18,0,0,0,55.18,28V26.162a.333.333,0,0,0-.364-.332Z" fill="#8bf0ff"/>
            <path id="Trazado_122619" data-name="Trazado 122619" d="M2.069,27.715a2.829,2.829,0,0,0,1.64-.469c-.789-.516-1.271-1.29-2.525-1.416a.333.333,0,0,0-.364.332v1.3A2.929,2.929,0,0,0,2.069,27.715Z" fill="#8bf0ff"/>
            <path id="Trazado_122620" data-name="Trazado 122620" d="M11.128,27.715a2.83,2.83,0,0,0,1.641-.469c-.861-.563-1.357-1.433-2.889-1.433a2.829,2.829,0,0,0-1.641.47C9.1,26.845,9.6,27.715,11.128,27.715Z" fill="#8bf0ff"/>
          </g>
          <path id="Trazado_122621" data-name="Trazado 122621" d="M42.872,37.334c0,1.082-1.459,1.96-2.924,1.96a2,2,0,1,1,0-3.919C41.413,35.375,42.872,36.252,42.872,37.334Z" fill="#f75632"/>
          <path id="Trazado_122622" data-name="Trazado 122622" d="M45.192,38.975c-1.281,0-2.32-.735-2.32-1.641s1.039-1.641,2.32-1.641S46.474,38.975,45.192,38.975Z" fill="#e33629"/>
          <g id="Grupo_86228" data-name="Grupo 86228">
            <path id="Trazado_122623" data-name="Trazado 122623" d="M41.951,13.178h0a.82.82,0,0,0,.82-.819v-.815a.82.82,0,0,0-.819-.821h0a.82.82,0,0,0-.82.819v.815A.82.82,0,0,0,41.951,13.178Z"/>
            <path id="Trazado_122624" data-name="Trazado 122624" d="M37.248,13.017l.406.706a.82.82,0,0,0,1.422-.818L38.67,12.2a.82.82,0,0,0-1.422.818Z"/>
            <path id="Trazado_122625" data-name="Trazado 122625" d="M35.444,14.816a.82.82,0,0,0-.822,1.42l.705.408a.82.82,0,1,0,.822-1.42Z"/>
            <path id="Trazado_122626" data-name="Trazado 122626" d="M47.735,23.831l.705.408a.82.82,0,0,0,.822-1.42l-.705-.408a.82.82,0,0,0-.822,1.42Z"/>
            <path id="Trazado_122627" data-name="Trazado 122627" d="M49.112,18.717a.82.82,0,0,0,0,1.641h.816a.82.82,0,0,0,0-1.641h-.815Z"/>
            <path id="Trazado_122628" data-name="Trazado 122628" d="M48.157,16.772a.815.815,0,0,0,.408-.109l.706-.406a.82.82,0,0,0-.818-1.422l-.706.406a.82.82,0,0,0,.41,1.531Z"/>
            <path id="Trazado_122629" data-name="Trazado 122629" d="M45.124,14.033a.82.82,0,0,0,1.121-.3l.408-.705a.82.82,0,1,0-1.42-.822l-.408.705a.82.82,0,0,0,.3,1.121Z"/>
            <path id="Trazado_122630" data-name="Trazado 122630" d="M55.62,25.306a1.153,1.153,0,0,0-.886-.292,4.041,4.041,0,0,0-2.347,1.122,2.369,2.369,0,0,1-3.476,0A4.959,4.959,0,0,0,47.6,25.27,7.625,7.625,0,0,0,45.89,22.9a5.195,5.195,0,0,0-3.941-8.572h-.007a5.2,5.2,0,0,0-5.1,4.213,37.556,37.556,0,0,0-6.378-.917v-4.04h.488a6.8,6.8,0,0,0,6.476-8.856.82.82,0,1,0-1.564.5,5.158,5.158,0,0,1-4.912,6.718h-5.9a5.154,5.154,0,1,1,0-10.307h5.9a5.1,5.1,0,0,1,3.208,1.12.82.82,0,1,0,1.022-1.283A6.816,6.816,0,0,0,30.949,0h-5.9a6.794,6.794,0,1,0,0,13.588h.488v4.04c-1.3.078-2.573.216-3.807.412-1.989-7.562-5.473-12.057-9.372-12.057-2.243,0-4.384,1.5-6.191,4.332A30.592,30.592,0,0,0,2.4,20.611.82.82,0,1,0,4,20.931,39.185,39.185,0,0,1,4.989,17a2.752,2.752,0,0,0,1.288.3,2.917,2.917,0,0,0,2.049-.831,1.327,1.327,0,0,1,1.985,0,2.94,2.94,0,0,0,4.1,0,1.327,1.327,0,0,1,1.985,0,2.918,2.918,0,0,0,2.049.831,2.751,2.751,0,0,0,1.287-.3q.2.648.384,1.332a28.913,28.913,0,0,0-4.811,1.41c-3.5,1.391-5.939,3.345-6.9,5.524a4.952,4.952,0,0,0-1.314.867,2.367,2.367,0,0,1-3.474,0c-.1-.084-.2-.172-.316-.26.048-.529.1-1.059.169-1.58a.82.82,0,0,0-1.628-.2c-.04.328-.078.66-.112.993a3.815,3.815,0,0,0-.459-.074A1.153,1.153,0,0,0,0,26.162V28A27.992,27.992,0,0,0,48.243,47.345a.82.82,0,0,0-1.186-1.134A26.359,26.359,0,0,1,1.641,28V26.772a3.351,3.351,0,0,1,.917.62,3.981,3.981,0,0,0,5.585,0,2.368,2.368,0,0,1,3.475,0,3.982,3.982,0,0,0,5.585,0,2.368,2.368,0,0,1,3.475,0,3.981,3.981,0,0,0,5.585,0,2.367,2.367,0,0,1,3.474,0,3.982,3.982,0,0,0,5.585,0,2.368,2.368,0,0,1,3.475,0,3.982,3.982,0,0,0,5.585,0,2.368,2.368,0,0,1,3.475,0,3.983,3.983,0,0,0,5.586,0,3.347,3.347,0,0,1,.917-.62V28a26.156,26.156,0,0,1-5.077,15.556.82.82,0,0,0,1.324.969A27.785,27.785,0,0,0,56,28V26.162a1.157,1.157,0,0,0-.38-.856ZM18.442,15.657a1.328,1.328,0,0,1-.994-.447,2.939,2.939,0,0,0-4.1,0,1.328,1.328,0,0,1-1.986,0,2.939,2.939,0,0,0-4.1,0,1.328,1.328,0,0,1-.994.447,1.107,1.107,0,0,1-.75-.249C7.3,10.6,9.811,7.623,12.359,7.623c2.52,0,5.051,2.959,6.831,7.786a1.106,1.106,0,0,1-.748.248Zm20.99,1.353a3.531,3.531,0,0,1,2.51-1.037h0a3.554,3.554,0,0,1,2.684,5.879A17.972,17.972,0,0,0,40.7,19.745c-.719-.286-1.477-.545-2.267-.778a3.528,3.528,0,0,1,1-1.957ZM27.18,13.589H28.82v3.974q-.409-.008-.82-.008t-.82.008ZM43.326,26.136a2.368,2.368,0,0,1-3.475,0,3.982,3.982,0,0,0-5.585,0,2.368,2.368,0,0,1-3.475,0,3.981,3.981,0,0,0-5.585,0,2.367,2.367,0,0,1-3.474,0,3.982,3.982,0,0,0-5.585,0,2.368,2.368,0,0,1-3.475,0,4.061,4.061,0,0,0-2.251-1.111C12.831,21.635,20,19.2,28,19.2s15.168,2.44,17.579,5.829a4.06,4.06,0,0,0-2.253,1.111Z"/>
            <path id="Trazado_122631" data-name="Trazado 122631" d="M14.01,34.851a3.164,3.164,0,0,0,4.417,0,1.551,1.551,0,0,1,2.306,0,3.164,3.164,0,0,0,4.417,0,1.551,1.551,0,0,1,2.306,0,3.149,3.149,0,0,0,2.208.9.82.82,0,1,0,0-1.641,1.552,1.552,0,0,1-1.153-.514,3.164,3.164,0,0,0-4.417,0,1.551,1.551,0,0,1-2.306,0,3.164,3.164,0,0,0-4.417,0,1.551,1.551,0,0,1-2.306,0,3.164,3.164,0,0,0-4.417,0,1.551,1.551,0,0,1-1.153.514.82.82,0,0,0,0,1.641,3.149,3.149,0,0,0,2.208-.9,1.551,1.551,0,0,1,2.306,0Z"/>
            <path id="Trazado_122632" data-name="Trazado 122632" d="M34.242,40.682a.82.82,0,0,0-.82-.82,1.552,1.552,0,0,1-1.153-.514,3.164,3.164,0,0,0-4.417,0,1.551,1.551,0,0,1-2.306,0,3.164,3.164,0,0,0-4.417,0,1.551,1.551,0,0,1-2.306,0,3.164,3.164,0,0,0-4.417,0,1.551,1.551,0,0,1-1.153.514.82.82,0,1,0,0,1.641,3.149,3.149,0,0,0,2.208-.9,1.551,1.551,0,0,1,2.306,0,3.164,3.164,0,0,0,4.417,0,1.551,1.551,0,0,1,2.306,0,3.164,3.164,0,0,0,4.417,0,1.551,1.551,0,0,1,2.306,0,3.149,3.149,0,0,0,2.208.9.82.82,0,0,0,.82-.82Z"/>
            <path id="Trazado_122633" data-name="Trazado 122633" d="M31.928,45.485a3.164,3.164,0,0,0-4.417,0,1.551,1.551,0,0,1-2.307,0,3.164,3.164,0,0,0-4.417,0A1.552,1.552,0,0,1,19.635,46a.82.82,0,0,0,0,1.641,3.149,3.149,0,0,0,2.208-.9,1.551,1.551,0,0,1,2.306,0,3.164,3.164,0,0,0,4.417,0,1.551,1.551,0,0,1,2.306,0,3.149,3.149,0,0,0,2.208.9.82.82,0,0,0,0-1.641,1.551,1.551,0,0,1-1.153-.514Z"/>
            <path id="Trazado_122634" data-name="Trazado 122634" d="M42.894,35.641a3.422,3.422,0,0,0-.489-.381,4.632,4.632,0,0,0-2.457-.706,2.808,2.808,0,1,0,0,5.56,4.634,4.634,0,0,0,2.457-.706,3.434,3.434,0,0,0,.489-.381,3.586,3.586,0,0,0,2.3.768c1.049,0,1.781-1.012,1.781-2.461s-.732-2.461-1.781-2.461a3.586,3.586,0,0,0-2.3.768Zm-2.946,2.832c-.933,0-1.56-.458-1.56-1.139s.627-1.139,1.56-1.139c1.2,0,2.1.691,2.1,1.139s-.9,1.139-2.1,1.139Zm5.195-.319c-.821-.017-1.45-.448-1.45-.82s.63-.8,1.45-.82a1.86,1.86,0,0,1,0,1.64Z"/>
          </g>
        </g>
      </g>
      <g id="Enmascarar_grupo_160" data-name="Enmascarar grupo 160" clip-path="url(#clip-path-3)">
        <g id="XMLID_1020_" transform="translate(856 7679.023)">
          <g id="XMLID_1910_">
            <circle id="XMLID_1515_" cx="26.906" cy="26.906" r="26.906" transform="translate(1.094 1.094)" fill="#80b6ff"/>
            <g id="Grupo_86229" data-name="Grupo 86229">
              <path id="XMLID_1106_" d="M11.524,11.334H6.877A26.791,26.791,0,0,0,1.094,28a27.134,27.134,0,0,0,.258,3.728h.087a9.693,9.693,0,0,0,9.253-6.807,9.693,9.693,0,0,1,3.484-4.9l.171-.127a4.745,4.745,0,0,0-2.824-8.558Z" fill="#89df8f"/>
              <path id="XMLID_1674_" d="M35.684,15.3a8.206,8.206,0,0,0,3.761,6.9l2.846,1.834a5.277,5.277,0,0,1,.282,8.676,5.325,5.325,0,0,0-2.156,4.279,3.926,3.926,0,0,0,3.926,3.926h7.27A26.916,26.916,0,0,0,44.931,7.09H43.89A8.206,8.206,0,0,0,35.684,15.3Z" fill="#89df8f"/>
            </g>
          </g>
          <path id="XMLID_1821_" d="M19.032,37.8h0a8.968,8.968,0,0,0-8.968,8.968v5.517H28V46.767A8.968,8.968,0,0,0,19.032,37.8Z" fill="#c5d3de"/>
          <path id="XMLID_1820_" d="M19.031,29.157h0a3.82,3.82,0,0,0-3.82,3.82v.912a3.82,3.82,0,0,0,3.82,3.82h0a3.82,3.82,0,0,0,3.82-3.82v-.912A3.82,3.82,0,0,0,19.031,29.157Z" fill="#f2b394"/>
          <path id="XMLID_1824_" d="M36.969,37.8h0a8.968,8.968,0,0,1,8.968,8.968v5.517H28V46.767A8.968,8.968,0,0,1,36.969,37.8Z" fill="#ffcd69"/>
          <path id="XMLID_1823_" d="M36.969,29.157h0a3.82,3.82,0,0,1,3.82,3.82v.912a3.82,3.82,0,0,1-3.82,3.82h0a3.82,3.82,0,0,1-3.82-3.82v-.912A3.82,3.82,0,0,1,36.969,29.157Z" fill="#f2b394"/>
          <path id="XMLID_1807_" d="M10.063,45.938h0a8.968,8.968,0,0,0-8.968,8.968H19.031A8.968,8.968,0,0,0,10.063,45.938Z" fill="#ffcd69"/>
          <path id="XMLID_1806_" d="M10.063,37.3h0a3.82,3.82,0,0,0-3.82,3.82v.912a3.82,3.82,0,0,0,3.82,3.82h0a3.82,3.82,0,0,0,3.82-3.82v-.912A3.82,3.82,0,0,0,10.063,37.3Z" fill="#f5c6af"/>
          <path id="XMLID_1812_" d="M28,45.938h0a8.968,8.968,0,0,0-8.968,8.968H36.969A8.968,8.968,0,0,0,28,45.938Z" fill="#ff7d97"/>
          <path id="XMLID_1811_" d="M28,37.3h0a3.82,3.82,0,0,0-3.82,3.82v.912A3.82,3.82,0,0,0,28,45.848h0a3.82,3.82,0,0,0,3.82-3.82v-.912A3.82,3.82,0,0,0,28,37.3Z" fill="#f2b394"/>
          <path id="XMLID_1816_" d="M45.938,45.938h0a8.968,8.968,0,0,0-8.968,8.968H54.906A8.968,8.968,0,0,0,45.938,45.938Z" fill="#c5d3de"/>
          <path id="XMLID_1815_" d="M45.938,37.3h0a3.82,3.82,0,0,0-3.82,3.82v.912a3.82,3.82,0,0,0,3.82,3.82h0a3.82,3.82,0,0,0,3.82-3.82v-.912A3.82,3.82,0,0,0,45.938,37.3Z" fill="#f5c6af"/>
          <path id="XMLID_1906_" d="M22.886,23.547a4.282,4.282,0,0,0,4.394.933,4.888,4.888,0,0,0,3.244-4.6V17.789a3.789,3.789,0,0,0-7.11-1.822l-1.328,2.421a4.282,4.282,0,0,0,.8,5.16Z" fill="#89df8f"/>
          <g id="XMLID_4_">
            <path id="XMLID_768_" d="M49.773,45.6a28.05,28.05,0,0,0,5.142-25.347,1.094,1.094,0,1,0-2.1.6,25.885,25.885,0,0,1-2.052,19.317A4.921,4.921,0,0,0,45.938,36.2h0a4.907,4.907,0,0,0-3.868,1.889c-.139-.082-.278-.161-.42-.236a2.824,2.824,0,0,1-.138-.873,4.249,4.249,0,0,1,1.713-3.4,6.37,6.37,0,0,0-.341-10.474l-2.846-1.834A7.112,7.112,0,0,1,43.89,8.184h.666a26.208,26.208,0,0,1,4.029,4.24A1.094,1.094,0,1,0,50.328,11.1a28.255,28.255,0,0,0-9.662-8.08A28.005,28.005,0,0,0,0,28,27.929,27.929,0,0,0,6.227,45.6,10.078,10.078,0,0,0,0,54.906,1.094,1.094,0,0,0,1.094,56H54.906A1.094,1.094,0,0,0,56,54.906a10.077,10.077,0,0,0-6.227-9.3ZM12.789,41.116v.912a2.727,2.727,0,0,1-5.453,0v-.912a2.729,2.729,0,0,1,2.726-2.726h0A2.729,2.729,0,0,1,12.789,41.116Zm2.188.912v-.912a4.912,4.912,0,0,0-.11-1.033,7.879,7.879,0,0,1,8.33,0,4.911,4.911,0,0,0-.11,1.033v.912A4.9,4.9,0,0,0,24.5,45.472a10.12,10.12,0,0,0-5.468,4.874,10.12,10.12,0,0,0-5.468-4.874,4.9,4.9,0,0,0,1.413-3.444Zm6.781-8.139a2.727,2.727,0,0,1-5.453,0v-.912a2.729,2.729,0,0,1,2.726-2.726h0a2.729,2.729,0,0,1,2.726,2.726Zm8.969,7.227v.912a2.727,2.727,0,0,1-5.453,0v-.912A2.729,2.729,0,0,1,28,38.39h0A2.729,2.729,0,0,1,30.726,41.116Zm2.187.912v-.912a4.916,4.916,0,0,0-.11-1.033,7.881,7.881,0,0,1,8.33,0,4.912,4.912,0,0,0-.11,1.034v.912a4.9,4.9,0,0,0,1.413,3.444,10.12,10.12,0,0,0-5.468,4.874A10.12,10.12,0,0,0,31.5,45.472a4.9,4.9,0,0,0,1.413-3.444ZM39.7,33.889a2.726,2.726,0,0,1-5.453,0v-.912a2.729,2.729,0,0,1,2.726-2.726h0A2.729,2.729,0,0,1,39.7,32.977v.912Zm6.242,4.5h0a2.729,2.729,0,0,1,2.726,2.726v.912a2.727,2.727,0,0,1-5.453,0v-.912A2.729,2.729,0,0,1,45.937,38.39ZM28,2.187a25.661,25.661,0,0,1,13.882,4.03,9.3,9.3,0,0,0-3.029,16.9L41.7,24.947a4.183,4.183,0,0,1,.224,6.877c-.051.038-.1.078-.149.118a4.922,4.922,0,0,0-4.8-3.879h0a4.919,4.919,0,0,0-4.914,4.914v.912a4.9,4.9,0,0,0,1.411,3.441,9.93,9.93,0,0,0-1.6.761A4.907,4.907,0,0,0,28,36.2h0a4.907,4.907,0,0,0-3.868,1.888,9.943,9.943,0,0,0-1.6-.76,4.9,4.9,0,0,0,1.411-3.441v-.912a4.92,4.92,0,0,0-4.914-4.914h0a4.919,4.919,0,0,0-4.914,4.914v.912a4.9,4.9,0,0,0,1.411,3.441,9.935,9.935,0,0,0-1.6.761A4.907,4.907,0,0,0,10.063,36.2h0A4.921,4.921,0,0,0,5.239,40.18a25.714,25.714,0,0,1-2.612-7.424,10.7,10.7,0,0,0,5.2-2.032,10.715,10.715,0,0,0,3.906-5.477,8.545,8.545,0,0,1,3.091-4.35L15,20.771A5.839,5.839,0,0,0,11.524,10.24H9.286A25.742,25.742,0,0,1,28,2.187ZM7.428,12.427h4.1A3.651,3.651,0,0,1,13.7,19.013l-.171.127A10.717,10.717,0,0,0,9.648,24.6a8.555,8.555,0,0,1-7.33,5.993Q2.19,29.3,2.187,28A25.679,25.679,0,0,1,7.428,12.427ZM2.263,53.812a7.887,7.887,0,0,1,7.8-6.781h0a7.887,7.887,0,0,1,7.8,6.781Zm17.938,0A7.887,7.887,0,0,1,28,47.031h0a7.887,7.887,0,0,1,7.8,6.781Zm17.938,0a7.887,7.887,0,0,1,7.8-6.781h0a7.887,7.887,0,0,1,7.8,6.781Z"/>
            <path id="XMLID_1169_" d="M22.132,24.339a5.352,5.352,0,0,0,5.517,1.171,6,6,0,0,0,3.97-5.633V17.789a4.882,4.882,0,0,0-9.163-2.348l-1.328,2.421a5.381,5.381,0,0,0,1,6.477Zm.913-5.425,1.328-2.421a2.7,2.7,0,0,1,5.058,1.3v2.087a3.8,3.8,0,0,1-2.518,3.573,3.188,3.188,0,0,1-3.868-4.536Z"/>
            <path id="XMLID_1178_" d="M52.076,17.068a1.094,1.094,0,1,0-.773-.32A1.1,1.1,0,0,0,52.076,17.068Z"/>
          </g>
        </g>
      </g>
      <g id="Enmascarar_grupo_158" data-name="Enmascarar grupo 158" transform="translate(-3)" clip-path="url(#clip-path-4)">
        <g id="sostenible" transform="translate(701 7679.023)">
          <g id="Grupo_86225" data-name="Grupo 86225">
            <g id="Grupo_86224" data-name="Grupo 86224">
              <path id="Trazado_122594" data-name="Trazado 122594" d="M55.039,27.8,49.13,21.244a.542.542,0,0,0-.8,0L42.416,27.8a.542.542,0,0,0,.4.9h2.926a.544.544,0,0,1,.543.56A18.3,18.3,0,0,1,12.475,38.39.676.676,0,0,0,11.4,38.3L8.972,40.99a.68.68,0,0,0-.052.843A23.162,23.162,0,0,0,51.154,29.227.54.54,0,0,1,51.7,28.7h2.942a.542.542,0,0,0,.4-.9Z" fill="#5392f9"/>
              <path id="Trazado_122595" data-name="Trazado 122595" d="M28,5.541A23.16,23.16,0,0,0,4.84,28.7H1.363a.542.542,0,0,0-.4.9L6.87,36.159a.542.542,0,0,0,.8,0l5.909-6.553a.542.542,0,0,0-.4-.9H9.7a18.3,18.3,0,0,1,33.821-9.688.676.676,0,0,0,1.075.092l2.428-2.693a.68.68,0,0,0,.052-.843A23.136,23.136,0,0,0,28,5.541Z" fill="#5392f9"/>
            </g>
            <path id="Trazado_122596" data-name="Trazado 122596" d="M40.186,22.36a1.116,1.116,0,0,0-.593-1.026,5.662,5.662,0,0,0-8.314,4.8,1.116,1.116,0,0,0,.593,1.026,5.662,5.662,0,0,0,8.314-4.8Z" fill="#6dc17d"/>
            <path id="Trazado_122597" data-name="Trazado 122597" d="M15.814,22.36a1.116,1.116,0,0,1,.593-1.026,5.662,5.662,0,0,1,8.314,4.8,1.116,1.116,0,0,1-.593,1.026,5.662,5.662,0,0,1-8.314-4.8Z" fill="#6dc17d"/>
            <circle id="Elipse_5146" data-name="Elipse 5146" cx="8.477" cy="8.477" r="8.477" transform="translate(19.523 2.378)" fill="#e9a52d"/>
            <path id="Trazado_122598" data-name="Trazado 122598" d="M28,2.378a8.519,8.519,0,0,0-1.477.131,8.475,8.475,0,0,1,0,16.692A8.476,8.476,0,1,0,28,2.378Z" fill="#e38523"/>
            <path id="Trazado_122599" data-name="Trazado 122599" d="M17.8,53.622H38.2a.549.549,0,0,0,.549-.549V33.66a.549.549,0,0,0-.549-.549H17.8a.549.549,0,0,0-.549.549V53.072A.55.55,0,0,0,17.8,53.622Z" fill="#e9a52d"/>
            <path id="Trazado_122600" data-name="Trazado 122600" d="M38.2,33.111H35.249a.549.549,0,0,1,.549.549V53.072a.549.549,0,0,1-.549.549H38.2a.549.549,0,0,0,.549-.549V33.66A.55.55,0,0,0,38.2,33.111Z" fill="#e38523"/>
            <path id="Trazado_122601" data-name="Trazado 122601" d="M25.167,33.111v6.535a.238.238,0,0,0,.379.191l2.312-1.719a.238.238,0,0,1,.284,0l2.312,1.719a.238.238,0,0,0,.379-.191V33.111Z" fill="#f7f3f1"/>
          </g>
          <g id="Grupo_86226" data-name="Grupo 86226">
            <path id="Trazado_122602" data-name="Trazado 122602" d="M55.647,27.247l-5.91-6.553a1.363,1.363,0,0,0-2.023,0l-5.908,6.552a1.346,1.346,0,0,0-.234,1.465,1.364,1.364,0,0,0,1.245.809h2.637A17.333,17.333,0,0,1,39.57,41.8V33.66a1.371,1.371,0,0,0-1.37-1.37H28.819V31.8a4.6,4.6,0,0,1,2.467-4.043,1.9,1.9,0,0,0,.2.124A6.482,6.482,0,0,0,41,22.39a1.947,1.947,0,0,0-1.028-1.781,6.482,6.482,0,0,0-9.518,5.5,1.908,1.908,0,0,0,.007.236,6.381,6.381,0,0,0-1.647,1.275v-7.5a9.318,9.318,0,0,0,8.049-6.472,17.557,17.557,0,0,1,5.96,5.808,1.5,1.5,0,0,0,2.379.2l2.429-2.694a1.5,1.5,0,0,0,.118-1.857A24.177,24.177,0,0,0,35.972,6.08a9.291,9.291,0,0,0-15.949,0A24.079,24.079,0,0,0,10.83,11.96a.82.82,0,0,0,1.175,1.145,22.471,22.471,0,0,1,7.081-4.892,9.216,9.216,0,0,0-.317,3.744A19.048,19.048,0,0,0,8.882,28.7a.82.82,0,0,0,.82.82h2.851L7.271,35.381,1.988,29.521H4.839a.82.82,0,0,0,.82-.82,22.2,22.2,0,0,1,4-12.752.82.82,0,1,0-1.346-.938,23.816,23.816,0,0,0-4.276,12.87H1.362A1.362,1.362,0,0,0,.35,30.155l5.91,6.554a1.363,1.363,0,0,0,2.023,0l5.907-6.552a1.362,1.362,0,0,0-1.011-2.275H10.542a17.405,17.405,0,0,1,8.587-14.239,9.318,9.318,0,0,0,8.05,6.473v7.5a6.6,6.6,0,0,0-1.647-1.275,1.907,1.907,0,0,0,.007-.236,6.482,6.482,0,0,0-9.518-5.5,1.947,1.947,0,0,0-1.028,1.781,6.475,6.475,0,0,0,9.518,5.5,1.9,1.9,0,0,0,.2-.124l.2.115A4.548,4.548,0,0,1,27.178,31.8v.486H17.8a1.371,1.371,0,0,0-1.37,1.37V41.8a17.459,17.459,0,0,1-3.258-3.844,1.5,1.5,0,0,0-2.38-.206L8.362,40.441A1.494,1.494,0,0,0,8.243,42.3a24.164,24.164,0,0,0,8.184,7.408v3.365a1.371,1.371,0,0,0,1.37,1.37h13.19a.82.82,0,0,0,0-1.641H18.068V33.931h6.278v5.714a1.058,1.058,0,0,0,1.689.849L28,39.034l1.964,1.46a1.058,1.058,0,0,0,1.689-.849V33.931H37.93V52.8H34.814a.82.82,0,0,0,0,1.641H38.2a1.371,1.371,0,0,0,1.37-1.37V49.708A24,24,0,0,0,51.964,29.521h2.671a1.362,1.362,0,0,0,1.012-2.274ZM34.516,22.141a4.819,4.819,0,0,1,4.693-.082.3.3,0,0,1,.157.272A4.839,4.839,0,0,1,33.02,26.76l3.493-2.017a.82.82,0,1,0-.82-1.421L32.2,25.34A4.81,4.81,0,0,1,34.516,22.141ZM19.05,26.353a4.819,4.819,0,0,1-2.418-4.023.3.3,0,0,1,.157-.272A4.839,4.839,0,0,1,23.8,25.34L20.3,23.322a.82.82,0,1,0-.82,1.421l3.493,2.017a4.81,4.81,0,0,1-3.927-.407ZM46.342,15.947l-2.227,2.469a19.193,19.193,0,0,0-6.887-6.459,9.219,9.219,0,0,0-.317-3.745A22.561,22.561,0,0,1,46.342,15.947Zm-26-5.092A7.656,7.656,0,1,1,28,18.512a7.665,7.665,0,0,1-7.656-7.656ZM9.656,41.456l2.226-2.468a19.085,19.085,0,0,0,4.545,4.93v3.9A22.537,22.537,0,0,1,9.656,41.456Zm20.356-2.97L28.63,37.459a1.051,1.051,0,0,0-1.262,0l-1.382,1.027V33.931h4.025v4.555ZM51.693,27.881a1.368,1.368,0,0,0-1.361,1.328,22.353,22.353,0,0,1-10.761,18.6v-3.9a19.3,19.3,0,0,0,5.266-6.156,18.9,18.9,0,0,0,2.27-8.473,1.364,1.364,0,0,0-1.362-1.408h-2.3l5.282-5.858,5.283,5.858H51.693Z"/>
            <path id="Trazado_122603" data-name="Trazado 122603" d="M28.819,15.89v-.664a2.8,2.8,0,0,0,2.312-2.179c.174-.975-.273-2.25-2.049-2.905l-.322-.118a12.787,12.787,0,0,1-1.673-.685.466.466,0,0,1-.229-.482.865.865,0,0,1,.658-.718,2.494,2.494,0,0,1,2.067.475.82.82,0,0,0,1.052-1.259A4.5,4.5,0,0,0,28.819,6.5V5.82a.82.82,0,0,0-1.641,0v.71c-.045.012-.09.023-.135.037a2.513,2.513,0,0,0-1.816,2.12A2.09,2.09,0,0,0,26.3,10.779a13.865,13.865,0,0,0,1.892.784l.321.118c.337.124,1.109.478,1,1.077a1.3,1.3,0,0,1-1.346.891,2.6,2.6,0,0,1-1.912-.8.82.82,0,1,0-1.216,1.1,4.162,4.162,0,0,0,2.135,1.225v.716a.82.82,0,1,0,1.641,0Z"/>
          </g>
        </g>
      </g>
    </g>
  </g>
</svg>
