<svg xmlns="http://www.w3.org/2000/svg" xmlns:xlink="http://www.w3.org/1999/xlink" width="190" height="166" viewBox="0 0 190 166">
  <defs>
    <clipPath id="clip-path">
      <rect id="Imagen_12" data-name="Imagen 12" width="190" height="166" rx="19" transform="translate(915 5111)" fill="#01f6ff"/>
    </clipPath>
  </defs>
  <g id="Enmascarar_grupo_148" data-name="Enmascarar grupo 148" transform="translate(-915 -5111)" clip-path="url(#clip-path)">
    <g id="desechos-marinos" transform="translate(923.273 5107.273)">
      <path id="Trazado_121417" data-name="Trazado 121417" d="M8.412,88.556a25.4,25.4,0,0,0,14.522-4.529.691.691,0,0,1,.792,0,25.545,25.545,0,0,0,29.043,0,.691.691,0,0,1,.792,0,25.545,25.545,0,0,0,29.043,0,.691.691,0,0,1,.792,0,25.545,25.545,0,0,0,29.043,0,.691.691,0,0,1,.792,0,25.545,25.545,0,0,0,29.043,0,.691.691,0,0,1,.792,0A25.535,25.535,0,0,0,165.2,87.392l.8-.617a83,83,0,1,0-166,0l.743.6a25.483,25.483,0,0,0,7.669,1.18Z" fill="#ffe5de"/>
      <path id="Trazado_121418" data-name="Trazado 121418" d="M97.917,88.556a25.4,25.4,0,0,0,14.521-4.529.691.691,0,0,1,.792,0,25.4,25.4,0,0,0,14.521,4.529c.059,0,.118,0,.178,0a16.092,16.092,0,1,0-31.937-.069q.957.072,1.925.072Z" fill="#fe9901"/>
      <path id="Trazado_121419" data-name="Trazado 121419" d="M22.934,84.027a.691.691,0,0,1,.792,0,25.379,25.379,0,0,0,9.042,3.936A8.3,8.3,0,1,0,18.695,79.4a8.3,8.3,0,0,0-6.839,8.169c0,.251.013.5.035.743A25.365,25.365,0,0,0,22.934,84.027Z" fill="#fe9901"/>
      <path id="Trazado_121420" data-name="Trazado 121420" d="M14.985,87.7a8.306,8.306,0,0,1,6.42-5.586A8.3,8.3,0,0,1,33.32,78.475a8.3,8.3,0,0,0-14.625.929,8.3,8.3,0,0,0-6.839,8.169c0,.251.015.5.037.743A25.38,25.38,0,0,0,14.985,87.7Z" fill="#fb8801"/>
      <path id="Trazado_121421" data-name="Trazado 121421" d="M52.768,84.027a.691.691,0,0,1,.792,0,25.4,25.4,0,0,0,8.769,3.878,8.3,8.3,0,1,0-16.074-.635,25.453,25.453,0,0,0,6.514-3.244Z" fill="#fee903"/>
      <path id="Trazado_121422" data-name="Trazado 121422" d="M51.525,84.831A8.3,8.3,0,0,1,57.083,77.7a8.3,8.3,0,0,0-10.828,9.575A25.429,25.429,0,0,0,51.525,84.831Z" fill="#f4d902"/>
      <path id="Trazado_121423" data-name="Trazado 121423" d="M68.082,88.556A25.4,25.4,0,0,0,80.6,85.276l-3.367-5.833a1.694,1.694,0,0,0-1.467-.847H64.69a1.694,1.694,0,0,0-1.467.847l-4.286,7.423A25.461,25.461,0,0,0,68.082,88.556Z" fill="#fff"/>
      <path id="Trazado_121424" data-name="Trazado 121424" d="M63.918,88.214l5.064-8.771a1.694,1.694,0,0,1,1.467-.847H64.69a1.694,1.694,0,0,0-1.467.847l-4.286,7.423A25.3,25.3,0,0,0,63.918,88.214Z" fill="#f2fbff"/>
      <g id="Grupo_85580" data-name="Grupo 85580">
        <path id="Trazado_121425" data-name="Trazado 121425" d="M173.1,72.532l-4.256-4.256a1.2,1.2,0,0,0-1.7,0l-7.377,7.377a1.2,1.2,0,0,1-1.7,0l-9.079-9.079a1.2,1.2,0,0,1,0-1.7l7.377-7.377a1.2,1.2,0,0,0,0-1.7L152.1,51.536a1.2,1.2,0,0,0-1.7,0L116.164,85.776a25.543,25.543,0,0,0,26.11-1.748.691.691,0,0,1,.792,0,25.4,25.4,0,0,0,14.521,4.529c.409,0,.817-.013,1.224-.032L173.1,74.235a1.2,1.2,0,0,0,0-1.7Z" fill="#596c76"/>
        <path id="Trazado_121426" data-name="Trazado 121426" d="M121.965,87.9l32.521-32.521a1.2,1.2,0,0,1,1.148-.311l-3.529-3.529a1.2,1.2,0,0,0-1.7,0L116.164,85.776A25.311,25.311,0,0,0,121.965,87.9Z" fill="#465a61"/>
      </g>
      <path id="Trazado_121427" data-name="Trazado 121427" d="M157.586,88.217a25.093,25.093,0,0,1-14.329-4.468,1.031,1.031,0,0,0-1.178,0,25.207,25.207,0,0,1-28.657,0,1.031,1.031,0,0,0-1.178,0,25.207,25.207,0,0,1-28.657,0,1.031,1.031,0,0,0-1.178,0,25.207,25.207,0,0,1-28.657,0,1.031,1.031,0,0,0-1.178,0,25.207,25.207,0,0,1-28.657,0,1.031,1.031,0,0,0-1.178,0A25.229,25.229,0,0,1,0,86.776,83.38,83.38,0,0,0,1.543,102.7h0l1.179.88a24.367,24.367,0,0,0,22.967-2.524.694.694,0,0,1,.793,0,24.383,24.383,0,0,0,27.664,0,.694.694,0,0,1,.793,0,24.382,24.382,0,0,0,27.664,0,.694.694,0,0,1,.793,0,24.383,24.383,0,0,0,27.664,0,.694.694,0,0,1,.793,0,24.383,24.383,0,0,0,27.664,0,.694.694,0,0,1,.793,0,24.41,24.41,0,0,0,22.482,2.722l1.664-1.079h0A83.377,83.377,0,0,0,166,86.774,25.1,25.1,0,0,1,157.586,88.217Z" fill="#01c0fa"/>
      <path id="Trazado_121428" data-name="Trazado 121428" d="M125.685,105.359a24.247,24.247,0,0,0,13.832-4.3.694.694,0,0,1,.793,0,24.228,24.228,0,0,0,8.638,3.745l-5.325-9.222a1.194,1.194,0,0,0-1.034-.6H130.935a1.194,1.194,0,0,0-1.034.6l-5.621,9.736c.467.027.935.044,1.406.044Z" fill="#fff"/>
      <path id="Trazado_121429" data-name="Trazado 121429" d="M125.685,105.359a24.519,24.519,0,0,0,4.342-.389l5.422-9.392a1.194,1.194,0,0,1,1.034-.6h-5.548a1.2,1.2,0,0,0-1.034.6l-5.621,9.736c.466.027.935.044,1.405.044Z" fill="#f2fbff"/>
      <path id="Trazado_121430" data-name="Trazado 121430" d="M154.142,105.02a23.935,23.935,0,0,1-13.639-4.243,1.033,1.033,0,0,0-1.178,0,24.043,24.043,0,0,1-27.279,0,1.033,1.033,0,0,0-1.178,0,24.043,24.043,0,0,1-27.279,0,1.033,1.033,0,0,0-1.178,0,24.043,24.043,0,0,1-27.279,0,1.033,1.033,0,0,0-1.178,0,24.043,24.043,0,0,1-27.279,0,1.033,1.033,0,0,0-1.178,0A24.06,24.06,0,0,1,1.542,102.7a83.011,83.011,0,0,0,162.914,0A23.952,23.952,0,0,1,154.142,105.02Z" fill="#26a6fe"/>
      <path id="Trazado_121431" data-name="Trazado 121431" d="M36.038,123.275a24.528,24.528,0,0,0,4.276.378,24.249,24.249,0,0,0,11.548-2.906L43.38,102.825a1.694,1.694,0,0,0-2.256-.807L30.281,107.15a1.694,1.694,0,0,0-.807,2.256Z" fill="#fee903"/>
      <path id="Trazado_121432" data-name="Trazado 121432" d="M36.038,123.275a24.528,24.528,0,0,0,4.276.378c.071,0,.143,0,.214,0l-5.411-11.434a1.694,1.694,0,0,1,.807-2.256l8.851-4.188-1.394-2.947a1.694,1.694,0,0,0-2.256-.807L30.281,107.15a1.694,1.694,0,0,0-.807,2.256Z" fill="#f4d902"/>
      <g id="Grupo_85581" data-name="Grupo 85581">
        <path id="Trazado_121433" data-name="Trazado 121433" d="M68.771,123.653a24.247,24.247,0,0,0,13.832-4.3.694.694,0,0,1,.793,0A24.232,24.232,0,0,0,96.2,123.63l5.528-10.346a16.2,16.2,0,0,0-.883-16.7,2.684,2.684,0,0,1-.14-2.768l6-11.221L95.9,76.819l-6,11.222a2.688,2.688,0,0,1-2.379,1.422H87.49a16.208,16.208,0,0,0-14.34,8.55L60.266,122.124a24.313,24.313,0,0,0,8.5,1.529Z" fill="#3ec3a4"/>
        <path id="Trazado_121434" data-name="Trazado 121434" d="M66.731,123.566l12.178-22.79a16.208,16.208,0,0,1,14.34-8.55h.037A2.688,2.688,0,0,0,95.665,90.8l5.865-10.977L95.9,76.818l-6,11.222a2.688,2.688,0,0,1-2.379,1.422H87.49a16.208,16.208,0,0,0-14.34,8.55L60.266,122.123a24.219,24.219,0,0,0,6.465,1.443Z" fill="#0bb494"/>
        <path id="Trazado_121435" data-name="Trazado 121435" d="M110.993,75.441,99.488,69.293a1.549,1.549,0,0,0-2.1.636l-2.624,4.911a1.549,1.549,0,0,0,.636,2.1l11.505,6.147a1.549,1.549,0,0,0,2.1-.636l2.624-4.911A1.549,1.549,0,0,0,110.993,75.441Z" fill="#0bb494"/>
        <path id="Trazado_121436" data-name="Trazado 121436" d="M101.146,76.6a1.549,1.549,0,0,1-.636-2.1l1.938-3.627-2.96-1.582a1.549,1.549,0,0,0-2.1.636l-2.624,4.911a1.549,1.549,0,0,0,.636,2.1l11.505,6.148a1.549,1.549,0,0,0,2.1-.636l.686-1.284Z" fill="#00a887"/>
        <path id="Trazado_121437" data-name="Trazado 121437" d="M82.6,119.35a.694.694,0,0,1,.793,0,24.4,24.4,0,0,0,3.7,2.1l6.744-12.622a2.1,2.1,0,0,0-.863-2.842l-8.89-4.75a2.1,2.1,0,0,0-2.842.863L69.735,123.633A24.227,24.227,0,0,0,82.6,119.35Z" fill="#fff"/>
        <path id="Trazado_121438" data-name="Trazado 121438" d="M74.452,122.985,84.725,103.76a2.1,2.1,0,0,1,2.023-1.1l-2.663-1.423a2.1,2.1,0,0,0-2.842.863L69.735,123.634a24.409,24.409,0,0,0,4.717-.649Z" fill="#f2fbff"/>
      </g>
      <g id="Grupo_85582" data-name="Grupo 85582">
        <path id="Trazado_121439" data-name="Trazado 121439" d="M111.06,119.35a.693.693,0,0,1,.793,0,24.392,24.392,0,0,0,23.83,2.161,16.309,16.309,0,0,0-6.118-7.415,2.685,2.685,0,0,1-1.2-2.5l1.206-12.665L117.384,97.77l-1.206,12.665a2.689,2.689,0,0,1-1.647,2.229l-.035.015a16.248,16.248,0,0,0-9.072,9.56,24.335,24.335,0,0,0,5.636-2.89Z" fill="#3ec3a4"/>
        <path id="Trazado_121440" data-name="Trazado 121440" d="M111.06,119.35a.693.693,0,0,1,.793,0c.357.246.721.478,1.088.7a16.293,16.293,0,0,1,7.935-7.046l.035-.015a2.687,2.687,0,0,0,1.647-2.229l1.179-12.39-6.353-.6-1.206,12.665a2.689,2.689,0,0,1-1.647,2.229l-.035.015a16.248,16.248,0,0,0-9.072,9.56,24.315,24.315,0,0,0,5.636-2.889Z" fill="#0bb494"/>
        <path id="Trazado_121441" data-name="Trazado 121441" d="M130.777,90.68l-12.986-1.236a1.548,1.548,0,0,0-1.688,1.4l-.528,5.543a1.548,1.548,0,0,0,1.4,1.688l12.986,1.236a1.549,1.549,0,0,0,1.688-1.4l.528-5.543A1.549,1.549,0,0,0,130.777,90.68Z" fill="#0bb494"/>
        <path id="Trazado_121442" data-name="Trazado 121442" d="M122.137,95.544a1.549,1.549,0,0,1-1.4-1.688l.39-4.094-3.341-.318a1.548,1.548,0,0,0-1.688,1.4l-.528,5.543a1.549,1.549,0,0,0,1.4,1.688l12.986,1.236a1.549,1.549,0,0,0,1.688-1.4l.138-1.45Z" fill="#00a887"/>
      </g>
      <path id="Trazado_121443" data-name="Trazado 121443" d="M8.358,123.06a83.027,83.027,0,0,0,149.283,0,24.07,24.07,0,0,1-17.138-3.989,1.033,1.033,0,0,0-1.178,0,24.043,24.043,0,0,1-27.279,0,1.033,1.033,0,0,0-1.178,0,24.043,24.043,0,0,1-27.279,0,1.033,1.033,0,0,0-1.178,0,24.043,24.043,0,0,1-27.279,0,1.033,1.033,0,0,0-1.178,0,24.043,24.043,0,0,1-27.279,0,1.033,1.033,0,0,0-1.178,0,23.935,23.935,0,0,1-13.639,4.243,24.221,24.221,0,0,1-3.5-.254Z" fill="#0593fc"/>
      <g id="Grupo_85583" data-name="Grupo 85583">
        <path id="Trazado_121444" data-name="Trazado 121444" d="M49.014,43.992a3.973,3.973,0,0,1,3.973-3.973H68.35a3.973,3.973,0,1,0,0-7.946H33.916a3.973,3.973,0,1,0,0,7.946h.721a3.973,3.973,0,1,1,0,7.946H16.846a3.973,3.973,0,1,0,0,7.946H55.635a3.973,3.973,0,1,0,0-7.946H52.987A3.973,3.973,0,0,1,49.014,43.992Z" fill="#fff3de"/>
        <path id="Trazado_121445" data-name="Trazado 121445" d="M110.151,28.612h10.883a3.973,3.973,0,1,0,0-7.946H89.02a3.973,3.973,0,1,0,0,7.946h2.517a4.06,4.06,0,0,1,4.1,3.9,3.973,3.973,0,0,1-3.972,4.048H83.246a3.973,3.973,0,0,0,0,7.946h27.363a4.06,4.06,0,0,0,4.1-3.9,3.973,3.973,0,0,0-3.972-4.048h-.721a3.973,3.973,0,0,1-3.972-4.048,4.059,4.059,0,0,1,4.1-3.9Z" fill="#fff3de"/>
        <path id="Trazado_121446" data-name="Trazado 121446" d="M133.908,54.543h-10.33a3.973,3.973,0,1,1,0-7.946h10.33a3.973,3.973,0,1,1,0,7.946Z" fill="#fff3de"/>
        <path id="Trazado_121447" data-name="Trazado 121447" d="M85.446,59.624H75.115a3.973,3.973,0,1,1,0-7.946h10.33a3.973,3.973,0,1,1,0,7.946Z" fill="#fff3de"/>
        <path id="Trazado_121448" data-name="Trazado 121448" d="M74.869,15.492A3.973,3.973,0,0,0,70.9,11.518h-7.54a3.973,3.973,0,0,0,0,7.946H70.9A3.973,3.973,0,0,0,74.869,15.492Z" fill="#fff3de"/>
      </g>
      <g id="Grupo_85587" data-name="Grupo 85587">
        <g id="Grupo_85584" data-name="Grupo 85584">
          <path id="Trazado_121449" data-name="Trazado 121449" d="M38.843,137.264a1.42,1.42,0,0,0,0-.691c-.546-2.156-1.161-4.191-1.835-6.087a1.379,1.379,0,0,1,1.622-1.8,18.589,18.589,0,0,1,9.474,5.572,18.6,18.6,0,0,1,28.981,1.852,1.4,1.4,0,0,1,0,1.612A18.6,18.6,0,0,1,48.1,139.577a18.59,18.59,0,0,1-9.474,5.572,1.379,1.379,0,0,1-1.622-1.8C37.682,141.455,38.3,139.42,38.843,137.264Z" fill="#8ebac5"/>
        </g>
        <g id="Grupo_85585" data-name="Grupo 85585">
          <path id="Trazado_121450" data-name="Trazado 121450" d="M41.2,143.351c.675-1.9,1.289-3.931,1.835-6.087a1.42,1.42,0,0,0,0-.691c-.546-2.156-1.161-4.191-1.835-6.087a1.342,1.342,0,0,1,.026-.979,18.416,18.416,0,0,0-2.6-.818,1.379,1.379,0,0,0-1.622,1.8c.674,1.9,1.289,3.931,1.835,6.087a1.42,1.42,0,0,1,0,.691c-.546,2.156-1.161,4.191-1.835,6.087a1.379,1.379,0,0,0,1.622,1.8,18.5,18.5,0,0,0,2.6-.818,1.341,1.341,0,0,1-.026-.979Z" fill="#7ca1b1"/>
        </g>
        <g id="Grupo_85586" data-name="Grupo 85586">
          <circle id="Elipse_5076" data-name="Elipse 5076" cx="2.803" cy="2.803" r="2.803" transform="translate(62.847 132.966)" fill="#596c76"/>
        </g>
      </g>
      <g id="Grupo_85591" data-name="Grupo 85591">
        <g id="Grupo_85588" data-name="Grupo 85588">
          <path id="Trazado_121451" data-name="Trazado 121451" d="M126.14,142.9a1.42,1.42,0,0,1,0-.691c.546-2.156,1.161-4.191,1.835-6.087a1.379,1.379,0,0,0-1.622-1.8,18.588,18.588,0,0,0-9.474,5.572A18.6,18.6,0,0,0,87.9,141.747a1.4,1.4,0,0,0,0,1.612,18.6,18.6,0,0,0,28.981,1.852,18.59,18.59,0,0,0,9.474,5.572,1.379,1.379,0,0,0,1.622-1.8C127.3,147.088,126.686,145.054,126.14,142.9Z" fill="#8ebac5"/>
        </g>
        <g id="Grupo_85589" data-name="Grupo 85589">
          <path id="Trazado_121452" data-name="Trazado 121452" d="M92.063,143.358a1.4,1.4,0,0,1,0-1.612,18.6,18.6,0,0,1,13.172-7.807A18.6,18.6,0,0,0,87.9,141.746a1.4,1.4,0,0,0,0,1.612,18.6,18.6,0,0,0,17.336,7.807A18.6,18.6,0,0,1,92.063,143.358Z" fill="#7ca1b1"/>
        </g>
        <g id="Grupo_85590" data-name="Grupo 85590">
          <circle id="Elipse_5077" data-name="Elipse 5077" cx="2.803" cy="2.803" r="2.803" transform="translate(96.529 138.6)" fill="#596c76"/>
        </g>
      </g>
    </g>
  </g>
</svg>
