<svg xmlns="http://www.w3.org/2000/svg" xmlns:xlink="http://www.w3.org/1999/xlink" width="190" height="166" viewBox="0 0 190 166">
  <defs>
    <clipPath id="clip-path">
      <rect id="Imagen_15" data-name="Imagen 15" width="190" height="166" rx="19" transform="translate(495 5740)" fill="#01f6ff"/>
    </clipPath>
  </defs>
  <g id="Enmascarar_grupo_151" data-name="Enmascarar grupo 151" transform="translate(-495 -5740)" clip-path="url(#clip-path)">
    <g id="combustible-fosil_1_" data-name="combustible-fosil (1)" transform="translate(507 5740)">
      <path id="Trazado_121498" data-name="Trazado 121498" d="M28.782,144.612H137.218a79.434,79.434,0,1,0-108.436,0Z" fill="#fe3d97"/>
      <g id="Grupo_85637" data-name="Grupo 85637">
        <path id="Trazado_121499" data-name="Trazado 121499" d="M130.088,7.85a4.362,4.362,0,0,1-1.461.255H109.675a4.363,4.363,0,0,1-1.461-.255V18.156h21.873Z" fill="#6ad9fb"/>
      </g>
      <path id="Trazado_121500" data-name="Trazado 121500" d="M59.907,49.693v.343c-.56.884-3.578,5.988-2.238,11.26.785,3.086,2.916,5.609,6.338,7.505-.767,1.761-3.353,8.531-.668,14.381,1.675,3.649,5.077,6.2,10.116,7.571L82.466,123a8.973,8.973,0,0,0-1.7,6.646c.459,2.451,2.176,4.585,5.106,6.35-1,1.088-3.266,3.95-2.93,7.274.236,2.332,1.7,4.393,4.357,6.131-.085.108-.18.234-.279.376H131.11a79.876,79.876,0,0,0,6.108-5.16V49.693Z" fill="#2a428b"/>
      <path id="Trazado_121501" data-name="Trazado 121501" d="M60.393,49.693H28.782v94.919a79.879,79.879,0,0,0,6.108,5.16H87.623a5.873,5.873,0,0,1,.411-.486c-9.564-5.815-1.378-13.4-1.378-13.4C76.929,130.447,83,123.1,83,123.1L73.848,90.354c-17.59-4.6-9.209-21.766-9.209-21.766-12.264-6.43-4.245-18.408-4.245-18.408Z" fill="#1d2e79"/>
      <path id="Trazado_121502" data-name="Trazado 121502" d="M59.291,25.775l.412.452c-1.057,1-3.926,4.072-3.9,7.982.016,2.687,1.4,5.191,4.107,7.446v.256h77.311V25.775Z" fill="#2a428b"/>
      <path id="Trazado_121503" data-name="Trazado 121503" d="M28.782,41.912H60.393v-.486c-9.241-7.493,0-15.164,0-15.164l-.444-.486H28.782Z" fill="#1d2e79"/>
      <path id="Trazado_121504" data-name="Trazado 121504" d="M87.416,157.553c.187.193.383.384.6.57a7.671,7.671,0,0,0-1.386,5.54,5.9,5.9,0,0,0,.921,2.205,78.988,78.988,0,0,0,31.121-8.315H87.416Z" fill="#2a428b"/>
      <path id="Trazado_121505" data-name="Trazado 121505" d="M88.682,158.04c-.207-.161-.393-.324-.57-.486H47.328A79.1,79.1,0,0,0,83,166c1.721,0,3.428-.059,5.121-.167C85.336,162.084,88.682,158.04,88.682,158.04Z" fill="#1d2e79"/>
      <path id="Trazado_121506" data-name="Trazado 121506" d="M124.546,21.885a4.377,4.377,0,0,1,4.377-4.377H59.745a4.377,4.377,0,0,0,0,8.754h69.178A4.377,4.377,0,0,1,124.546,21.885Z" fill="#3f57a0"/>
      <path id="Trazado_121507" data-name="Trazado 121507" d="M141.6,21.885a4.377,4.377,0,0,0-4.377-4.377h-8.944a4.377,4.377,0,1,0,0,8.754h8.944A4.377,4.377,0,0,0,141.6,21.885Z" fill="#5071b3"/>
      <path id="Trazado_121508" data-name="Trazado 121508" d="M56.016,21.885a4.377,4.377,0,0,1,4.377-4.377H28.782a4.377,4.377,0,0,0,0,8.754H60.393A4.377,4.377,0,0,1,56.016,21.885Z" fill="#2a428b"/>
      <path id="Trazado_121509" data-name="Trazado 121509" d="M119.8,4.377A4.377,4.377,0,0,1,124.176,0h-14.5a4.377,4.377,0,0,0,0,8.754h14.5A4.377,4.377,0,0,1,119.8,4.377Z" fill="#ade9f7"/>
      <path id="Trazado_121510" data-name="Trazado 121510" d="M133,4.377A4.377,4.377,0,0,0,128.627,0h-5.1a4.377,4.377,0,0,0,0,8.754h5.1A4.377,4.377,0,0,0,133,4.377Z" fill="#e8f8fc"/>
      <path id="Trazado_121511" data-name="Trazado 121511" d="M87.135,149.286c.054.037.107.074.162.111a6.924,6.924,0,0,0-1.6,4.552,5.951,5.951,0,0,0,2.229,4.091h29.768a79.467,79.467,0,0,0,14.05-8.754Z" fill="#3f57a0"/>
      <path id="Trazado_121512" data-name="Trazado 121512" d="M34.256,149.286a79.467,79.467,0,0,0,14.05,8.754H88.682c-5.242-4.085-.648-8.754-.648-8.754Z" fill="#2a428b"/>
      <path id="Trazado_121513" data-name="Trazado 121513" d="M108.28,107.079c-5.894-1.478-8.835-7.5-8.864-7.556l-.035-.073-.056-.057C99.193,99.257,86.047,85.7,84.7,75.661A7.678,7.678,0,0,1,86.3,69.275c2.805-3.169,8.211-3.22,8.532-3.22h.015l.2,0,.319-.306a36.218,36.218,0,0,0-31.451,3.28c-.863,2.059-3.151,8.528-.57,14.15,1.675,3.649,5.077,6.2,10.116,7.571l9.012,32.243a8.973,8.973,0,0,0-1.7,6.646c.443,2.36,2.055,4.426,4.79,6.152a36.163,36.163,0,0,0,33.2-30.708c-3.742,2.13-7.257,2.8-10.477,1.994Z" fill="#fef156"/>
      <path id="Trazado_121514" data-name="Trazado 121514" d="M94.842,65.568c-.234,0-11.993-.055-10.623,10.158C85.6,86.042,98.978,99.733,98.978,99.733s6.334,13.274,19.683,5.961A36.191,36.191,0,0,0,94.842,65.568Z" fill="#fffbb3"/>
      <path id="Trazado_121515" data-name="Trazado 121515" d="M83,123.1,73.848,90.354c-17.59-4.6-9.209-21.766-9.209-21.766A36.153,36.153,0,0,0,83,135.884c1.14,0,2.267-.055,3.381-.159C77.049,130.305,83,123.1,83,123.1Z" fill="#ffd402"/>
      <path id="Trazado_121516" data-name="Trazado 121516" d="M95.627,94.464A51.889,51.889,0,0,1,84.219,75.726a1.285,1.285,0,0,0-2.437,0A51.889,51.889,0,0,1,70.373,94.464C60.3,105.4,68.134,123.1,83,123.1S105.7,105.4,95.627,94.464Z" fill="#ff953a"/>
      <path id="Trazado_121517" data-name="Trazado 121517" d="M151.48,76.429V98.8a14.952,14.952,0,0,0,6.983,12.62,79.807,79.807,0,0,0,.56-47.948A14.962,14.962,0,0,0,151.48,76.429Z" fill="#fc77a6"/>
      <path id="Trazado_121518" data-name="Trazado 121518" d="M14.52,76.429V98.8a14.952,14.952,0,0,1-6.983,12.62,79.807,79.807,0,0,1-.56-47.948A14.962,14.962,0,0,1,14.52,76.429Z" fill="#fc77a6"/>
      <circle id="Elipse_5085" data-name="Elipse 5085" cx="6.412" cy="6.412" r="6.412" transform="translate(83.819 98.974)" fill="#ffc242"/>
      <path id="Trazado_121519" data-name="Trazado 121519" d="M124.546,45.8a4.377,4.377,0,0,1,4.377-4.377H59.745a4.377,4.377,0,0,0,0,8.754h69.178A4.377,4.377,0,0,1,124.546,45.8Z" fill="#3f57a0"/>
      <path id="Trazado_121520" data-name="Trazado 121520" d="M141.6,45.8a4.377,4.377,0,0,0-4.377-4.377h-8.944a4.377,4.377,0,1,0,0,8.754h8.944A4.377,4.377,0,0,0,141.6,45.8Z" fill="#5071b3"/>
      <path id="Trazado_121521" data-name="Trazado 121521" d="M56.016,45.8a4.377,4.377,0,0,1,4.377-4.377H28.782a4.377,4.377,0,1,0,0,8.754H60.393A4.377,4.377,0,0,1,56.016,45.8Z" fill="#2a428b"/>
    </g>
  </g>
</svg>
