<svg xmlns="http://www.w3.org/2000/svg" xmlns:xlink="http://www.w3.org/1999/xlink" width="190" height="166" viewBox="0 0 190 166">
  <defs>
    <clipPath id="clip-path">
      <rect id="Imagen_17" data-name="Imagen 17" width="190" height="166" rx="19" transform="translate(495 6158)" fill="#01f6ff"/>
    </clipPath>
  </defs>
  <g id="Enmascarar_grupo_153" data-name="Enmascarar grupo 153" transform="translate(-495 -6158)" clip-path="url(#clip-path)">
    <g id="recursos-naturales" transform="translate(484.529 6135.528)">
      <g id="Grupo_85641" data-name="Grupo 85641">
        <path id="Trazado_121549" data-name="Trazado 121549" d="M99.08,146.543v.021c-.211-.127-.422-.232-.633-.338A4.427,4.427,0,0,1,99.08,146.543Z" fill="#0f0d0b"/>
      </g>
      <circle id="Elipse_5086" data-name="Elipse 5086" cx="83" cy="83" r="83" transform="translate(22.472 22.472)" fill="#b1e0e7"/>
      <path id="Trazado_121550" data-name="Trazado 121550" d="M166.878,112.317c-10.1,1.981-11.885,48.228-25.64,46.743s-8.005-.66-9.024-19.506c-1.019-18.873-19.862-18.213-22.037-34.086s6.989-11.638,6.356-26.41S92.4,61.5,104.151,49.07c0,0,15.764-5.447,24.457-3.246,8.419,2.145,19.753-10.262,20.413-10.978a82.884,82.884,0,0,1,39.451,70.622c0,.274,0,.578-.027.852-8.5-4.181-23.522-17.221-29.245-16.838-6.792.441,17.8,20.854,7.678,22.835Z" fill="#138843"/>
      <path id="Trazado_121551" data-name="Trazado 121551" d="M61.893,123.626c2.5,3.384,11.939,28.117,8.282,37.691a132.8,132.8,0,0,0-5.282,16.561A82.951,82.951,0,0,1,39.967,54.544c-.027-.027.027-.027.027-.027,1.1-.3,23.632-6.6,29.714-2.86,6.219,3.8,14.747,15.572,14.251,30.7S69.708,95.043,61.9,100.24c-7.788,5.227-2.479,20,0,23.385Z" fill="#138843"/>
      <circle id="Elipse_5087" data-name="Elipse 5087" cx="63.536" cy="63.536" r="63.536" transform="translate(28.039 27.33)" fill="#4fc2bc"/>
      <path id="Trazado_121552" data-name="Trazado 121552" d="M155.107,90.875a63.363,63.363,0,0,1-22.887,48.812v-.127c-1.034-18.879-19.871-18.226-22.044-34.089-2.173-15.884,6.982-11.644,6.349-26.41-.633-14.787-24.132-17.551-12.382-30,0,0,15.779-5.442,24.469-3.249a11.259,11.259,0,0,0,6.919-.8A63.263,63.263,0,0,1,155.107,90.875Z" fill="#135a2e"/>
      <g id="Grupo_85642" data-name="Grupo 85642">
        <path id="Trazado_121553" data-name="Trazado 121553" d="M183.141,183.141a7.677,7.677,0,0,1-10.821,0l-61.469-61.469,10.821-10.821,61.469,61.469a7.677,7.677,0,0,1,0,10.821Z" fill="#925030"/>
      </g>
      <g id="Grupo_85643" data-name="Grupo 85643">
        <path id="Trazado_121554" data-name="Trazado 121554" d="M134.635,123.813l-3.409,7.413,51.915,51.915a7.677,7.677,0,0,0,0-10.821Z" fill="#643016"/>
      </g>
      <g id="Grupo_85644" data-name="Grupo 85644">
        <path id="Trazado_121555" data-name="Trazado 121555" d="M141.21,130.391a72.894,72.894,0,0,1-10.821,10.821l-20.061-20.061,10.821-10.821Z" fill="#643016"/>
      </g>
      <g id="Grupo_85645" data-name="Grupo 85645">
        <path id="Trazado_121556" data-name="Trazado 121556" d="M141.206,130.384a68.64,68.64,0,0,1-5.126,5.7l-4.852-4.852,3.4-7.425Z" fill="#11100f"/>
      </g>
      <path id="Trazado_121557" data-name="Trazado 121557" d="M61.891,123.634c1.835,2.468,7.32,16.243,8.775,27.233a63.581,63.581,0,0,1-35-90.242c.021-.021.021-.021.021-.042,1.329-2.067,2.763-4.092,4.282-6.033-.042-.042.021-.042.021-.042,1.1-.3,23.626-6.6,29.722-2.848,6.2,3.8,14.745,15.568,14.239,30.692C83.47,97.5,69.717,95.03,61.891,100.24c-7.784,5.231-2.468,20,0,23.394Z" fill="#135a2e"/>
      <circle id="Elipse_5088" data-name="Elipse 5088" cx="59.317" cy="59.317" r="59.317" transform="translate(27.591 27.591)" fill="#b1e0e7"/>
      <path id="Trazado_121558" data-name="Trazado 121558" d="M128.9,129.114c-7.516-6.238-15.509-11.587-17.112-23.284-3.076-22.482,9.9-16.483,8.988-37.383-.823-19.6-30.064-24.3-20.078-39.269a59.622,59.622,0,0,1,28.2,99.937Z" fill="#4fc2bc"/>
      <path id="Trazado_121559" data-name="Trazado 121559" d="M80.538,73.02C79.846,94.385,60.427,90.927,49.39,98.272c-10.973,7.387-3.478,28.233,0,33.006a22.4,22.4,0,0,1,1.707,3.046A55.656,55.656,0,0,1,45,129.032,59.447,59.447,0,0,1,63.863,32.239C72.027,39.3,81.165,54.356,80.538,73.02Z" fill="#4fc2bc"/>
      <circle id="Elipse_5089" data-name="Elipse 5089" cx="30.074" cy="30.074" r="30.074" transform="translate(56.835 59.653)" fill="#135a2e"/>
      <g id="Grupo_85646" data-name="Grupo 85646">
        <path id="Trazado_121560" data-name="Trazado 121560" d="M99.643,76.99a12.735,12.735,0,0,1-25.469,0c0-7.016,12.735-25.741,12.735-25.741S99.643,69.976,99.643,76.99Z" fill="#7ec6ee"/>
        <path id="Trazado_121561" data-name="Trazado 121561" d="M99.643,76.99A12.72,12.72,0,0,1,86.909,89.725V51.249S99.643,69.976,99.643,76.99Z" fill="#28afe5"/>
      </g>
      <g id="Grupo_85647" data-name="Grupo 85647">
        <path id="Trazado_121562" data-name="Trazado 121562" d="M59.727,97.382a29.7,29.7,0,0,1,25.062-3.445A29.728,29.728,0,0,1,46.395,118.85,29.641,29.641,0,0,1,59.727,97.382Z" fill="#149f49"/>
        <path id="Trazado_121563" data-name="Trazado 121563" d="M46.4,118.833A29.7,29.7,0,0,1,84.8,93.948Z" fill="#138843"/>
      </g>
      <g id="Grupo_85648" data-name="Grupo 85648">
        <path id="Trazado_121564" data-name="Trazado 121564" d="M134.346,114.331l-27.431-26.52V100.73L89.02,94.043l27.429,26.52V107.645Z" fill="#fdc20f"/>
        <path id="Trazado_121565" data-name="Trazado 121565" d="M116.449,107.645v12.918L89.02,94.043l22.662,14.462V98.485l22.664,15.846Z" fill="#faa31b"/>
      </g>
      <g id="Grupo_85649" data-name="Grupo 85649">
        <path id="Trazado_121566" data-name="Trazado 121566" d="M95.053,134.1H86.078a1.837,1.837,0,0,0-1.835,1.835v.011a2.11,2.11,0,0,0,2.109,2.109H94.79a2.11,2.11,0,0,0,2.109-2.109A1.844,1.844,0,0,0,95.053,134.1Z" fill="#4fc2bc"/>
        <path id="Trazado_121567" data-name="Trazado 121567" d="M91.866,42.452H82.89a1.837,1.837,0,0,0-1.835,1.835V44.3a2.11,2.11,0,0,0,2.109,2.109H91.6A2.11,2.11,0,0,0,93.712,44.3,1.846,1.846,0,0,0,91.866,42.452Z" fill="#4fc2bc"/>
        <path id="Trazado_121568" data-name="Trazado 121568" d="M79.827,125.832H70.852a1.837,1.837,0,0,0-1.835,1.835v.011a2.11,2.11,0,0,0,2.109,2.109h8.438a2.11,2.11,0,0,0,2.109-2.109A1.845,1.845,0,0,0,79.827,125.832Z" fill="#4fc2bc"/>
      </g>
      <path id="Trazado_121569" data-name="Trazado 121569" d="M86.909,23.373a63.526,63.526,0,1,0,63.536,63.536A63.536,63.536,0,0,0,86.909,23.373Zm0,122.832a59.307,59.307,0,1,1,59.317-59.3,59.381,59.381,0,0,1-59.317,59.3Z" fill="#925030"/>
      <path id="Trazado_121570" data-name="Trazado 121570" d="M27.591,86.909a59.381,59.381,0,0,0,59.317,59.3v4.219a63.526,63.526,0,1,1,0-127.051v4.219A59.386,59.386,0,0,0,27.591,86.909Z" fill="#a95c3d"/>
      <g id="Grupo_85650" data-name="Grupo 85650">
        <path id="Trazado_121571" data-name="Trazado 121571" d="M39.151,73.379a2.169,2.169,0,0,1-.677-.112,2.113,2.113,0,0,1-1.321-2.677,52.786,52.786,0,0,1,88.588-19.057,2.11,2.11,0,0,1-3.086,2.879,48.564,48.564,0,0,0-81.5,17.536,2.116,2.116,0,0,1-2,1.43Z" fill="#fff"/>
      </g>
    </g>
  </g>
</svg>
