<svg xmlns="http://www.w3.org/2000/svg" xmlns:xlink="http://www.w3.org/1999/xlink" width="298.126" height="346" viewBox="0 0 298.126 346">
  <defs>
    <clipPath id="clip-path">
      <circle id="Elipse_5142" data-name="Elipse 5142" cx="61.136" cy="61.136" r="61.136" transform="translate(0 29.035) rotate(-13.737)" fill="none"/>
    </clipPath>
  </defs>
  <g id="Grupo_86300" data-name="Grupo 86300" transform="translate(-1121.937 -6439.023)">
    <rect id="Rect치ngulo_34750" data-name="Rect치ngulo 34750" width="298.063" height="346" rx="20" transform="translate(1122 6439.023)" fill="#ffe9e1"/>
    <path id="Rect치ngulo_34757" data-name="Rect치ngulo 34757" d="M0,0H298.063a0,0,0,0,1,0,0V24a20,20,0,0,1-20,20H20A20,20,0,0,1,0,24V0A0,0,0,0,1,0,0Z" transform="translate(1121.937 6739.813)" fill="#adce32"/>
    <path id="Trazado_122760" data-name="Trazado 122760" d="M-27.961-4.023h-1.484V0h-2.742V-11.375h4.477a5,5,0,0,1,3.164.9,3.041,3.041,0,0,1,1.141,2.536,3.693,3.693,0,0,1-.48,1.967,3.41,3.41,0,0,1-1.5,1.264l2.375,4.593V0h-2.937Zm-1.484-2.109h1.734a1.557,1.557,0,0,0,1.176-.411,1.59,1.59,0,0,0,.395-1.147,1.608,1.608,0,0,0-.4-1.155,1.542,1.542,0,0,0-1.172-.419h-1.734ZM-17.781.156A4.345,4.345,0,0,1-20.93-1a4.006,4.006,0,0,1-1.2-3.02v-.219a5.191,5.191,0,0,1,.48-2.289,3.516,3.516,0,0,1,1.4-1.535,4.233,4.233,0,0,1,2.188-.543A3.659,3.659,0,0,1-15.25-7.5a4.344,4.344,0,0,1,1.031,3.082V-3.4h-5.234a1.9,1.9,0,0,0,.617,1.117,1.836,1.836,0,0,0,1.234.406,2.366,2.366,0,0,0,1.953-.875l1.2,1.422A3.363,3.363,0,0,1-15.84-.246,4.713,4.713,0,0,1-17.781.156Zm-.3-6.734q-1.156,0-1.375,1.531H-16.8v-.2a1.3,1.3,0,0,0-.32-.98A1.275,1.275,0,0,0-18.078-6.578Zm8.492,4.7a1.171,1.171,0,0,0,.859-.3,1.1,1.1,0,0,0,.3-.84h2.469a2.922,2.922,0,0,1-1,2.281A3.705,3.705,0,0,1-9.523.156,3.751,3.751,0,0,1-12.43-1a4.556,4.556,0,0,1-1.062-3.2v-.109a5.149,5.149,0,0,1,.473-2.262,3.441,3.441,0,0,1,1.363-1.508,4.065,4.065,0,0,1,2.109-.527A3.658,3.658,0,0,1-6.93-7.7a3.242,3.242,0,0,1,.969,2.477H-8.43a1.445,1.445,0,0,0-.32-1.008,1.106,1.106,0,0,0-.859-.352q-1.023,0-1.2,1.3a9.206,9.206,0,0,0-.055,1.141,3.616,3.616,0,0,0,.3,1.766A1.055,1.055,0,0,0-9.586-1.875ZM-2.07,0H-4.711V-8.453H-2.07Zm-2.8-10.633a1.175,1.175,0,0,1,.406-.922,1.533,1.533,0,0,1,1.055-.359,1.533,1.533,0,0,1,1.055.359,1.175,1.175,0,0,1,.406.922,1.175,1.175,0,0,1-.406.922,1.533,1.533,0,0,1-1.055.359,1.533,1.533,0,0,1-1.055-.359A1.175,1.175,0,0,1-4.867-10.633ZM3.125-1.875a1.171,1.171,0,0,0,.859-.3,1.1,1.1,0,0,0,.3-.84H6.75a2.922,2.922,0,0,1-1,2.281A3.705,3.705,0,0,1,3.188.156,3.751,3.751,0,0,1,.281-1,4.556,4.556,0,0,1-.781-4.2v-.109A5.149,5.149,0,0,1-.309-6.574,3.441,3.441,0,0,1,1.055-8.082a4.065,4.065,0,0,1,2.109-.527A3.658,3.658,0,0,1,5.781-7.7,3.242,3.242,0,0,1,6.75-5.219H4.281a1.445,1.445,0,0,0-.32-1.008A1.106,1.106,0,0,0,3.1-6.578q-1.023,0-1.2,1.3a9.206,9.206,0,0,0-.055,1.141,3.616,3.616,0,0,0,.3,1.766A1.055,1.055,0,0,0,3.125-1.875ZM10.641,0H8V-12h2.641Zm6.383,0a2.973,2.973,0,0,1-.25-.758,2.448,2.448,0,0,1-2.031.914,3,3,0,0,1-2.031-.723,2.3,2.3,0,0,1-.836-1.816,2.364,2.364,0,0,1,1.016-2.078,5.174,5.174,0,0,1,2.953-.7h.813v-.448q0-1.17-1.008-1.17a.824.824,0,0,0-.937.926H12.078a2.36,2.36,0,0,1,1.043-1.99,4.383,4.383,0,0,1,2.66-.765,3.843,3.843,0,0,1,2.555.789A2.743,2.743,0,0,1,19.3-5.656v3.742a3.832,3.832,0,0,0,.359,1.781V0ZM15.375-1.719a1.469,1.469,0,0,0,.816-.211,1.322,1.322,0,0,0,.465-.477V-3.758h-.766q-1.375,0-1.375,1.234a.754.754,0,0,0,.242.582A.876.876,0,0,0,15.375-1.719Zm8.211-6.734V.289A3.068,3.068,0,0,1,22.727,2.6a3.3,3.3,0,0,1-2.375.813,5.607,5.607,0,0,1-1.242-.133V1.289a5.037,5.037,0,0,0,.742.07A.963.963,0,0,0,20.945.273V-8.453Zm-2.836-2.18a1.175,1.175,0,0,1,.406-.922,1.533,1.533,0,0,1,1.055-.359,1.533,1.533,0,0,1,1.055.359,1.175,1.175,0,0,1,.406.922,1.175,1.175,0,0,1-.406.922,1.533,1.533,0,0,1-1.055.359,1.533,1.533,0,0,1-1.055-.359A1.175,1.175,0,0,1,20.75-10.633ZM29.164.156A4.345,4.345,0,0,1,26.016-1a4.006,4.006,0,0,1-1.2-3.02v-.219a5.191,5.191,0,0,1,.48-2.289,3.516,3.516,0,0,1,1.4-1.535,4.233,4.233,0,0,1,2.188-.543A3.659,3.659,0,0,1,31.7-7.5a4.344,4.344,0,0,1,1.031,3.082V-3.4H27.492a1.9,1.9,0,0,0,.617,1.117,1.836,1.836,0,0,0,1.234.406A2.366,2.366,0,0,0,31.3-2.75l1.2,1.422A3.363,3.363,0,0,1,31.105-.246,4.713,4.713,0,0,1,29.164.156Zm-.3-6.734q-1.156,0-1.375,1.531h2.656v-.2a1.3,1.3,0,0,0-.32-.98A1.275,1.275,0,0,0,28.867-6.578Z" transform="translate(1272.937 6767.813)" fill="#12263f"/>
    <g id="Grupo_85867" data-name="Grupo 85867" transform="translate(841.184 6357.073)">
      <g id="Grupo_85839" data-name="Grupo 85839" transform="translate(533.151 255.768)">
        <path id="Trazado_122050" data-name="Trazado 122050" d="M603.11,316.554a3.658,3.658,0,0,1-.344-1.424,4.383,4.383,0,0,1,.141-1.277,3.816,3.816,0,0,1,.513-1.166,3.2,3.2,0,0,1,1.033-1.01,1.9,1.9,0,0,1,2.613.638,1.7,1.7,0,0,1,.1.177,3.2,3.2,0,0,1,.3,1.412,3.824,3.824,0,0,1-.214,1.256,4.384,4.384,0,0,1-.588,1.143,3.66,3.66,0,0,1-1.071,1,1.747,1.747,0,0,1-2.4-.592C603.163,316.658,603.134,316.605,603.11,316.554Z" transform="translate(-602.763 -299.975)" fill="#6aa049"/>
        <path id="Trazado_122051" data-name="Trazado 122051" d="M608.487,300.365a2.562,2.562,0,0,1-.588-1,2.289,2.289,0,0,1-.089-.918,1.954,1.954,0,0,1,.3-.857,2.184,2.184,0,0,1,.83-.771,2.293,2.293,0,0,1,2.794.447,2.189,2.189,0,0,1,.547.993,1.956,1.956,0,0,1,.012.906,2.305,2.305,0,0,1-.372.844,2.559,2.559,0,0,1-.871.765A2.106,2.106,0,0,1,608.487,300.365Z" transform="translate(-603.929 -296.532)" fill="#6aa049"/>
        <path id="Trazado_122052" data-name="Trazado 122052" d="M615,306.207a3.746,3.746,0,0,1-.23-1.462,4.527,4.527,0,0,1,.243-1.28,3.914,3.914,0,0,1,.605-1.14,3.265,3.265,0,0,1,1.111-.945,1.891,1.891,0,0,1,2.549.809,2.055,2.055,0,0,1,.092.207,3.263,3.263,0,0,1,.191,1.446,3.914,3.914,0,0,1-.315,1.253,4.483,4.483,0,0,1-.678,1.112,3.732,3.732,0,0,1-1.15.931,1.737,1.737,0,0,1-2.338-.749A1.718,1.718,0,0,1,615,306.207Z" transform="translate(-605.544 -297.606)" fill="#6aa049"/>
      </g>
      <g id="Grupo_85840" data-name="Grupo 85840" transform="translate(302.15 209.771)">
        <path id="Trazado_122053" data-name="Trazado 122053" d="M307.611,236.845a3.666,3.666,0,0,1,1.164.887,4.369,4.369,0,0,1,.7,1.08,3.812,3.812,0,0,1,.338,1.227,3.2,3.2,0,0,1-.164,1.435,1.9,1.9,0,0,1-2.431,1.154,1.868,1.868,0,0,1-.185-.077,3.2,3.2,0,0,1-1.127-.9,3.809,3.809,0,0,1-.626-1.11,4.391,4.391,0,0,1-.265-1.257,3.672,3.672,0,0,1,.2-1.45,1.747,1.747,0,0,1,2.235-1.054C307.5,236.8,307.559,236.82,307.611,236.845Z" transform="translate(-302.812 -236.674)" fill="#6aa049"/>
        <path id="Trazado_122054" data-name="Trazado 122054" d="M313.871,253.214a2.579,2.579,0,0,1,1.087.4,2.316,2.316,0,0,1,.648.656,1.97,1.97,0,0,1,.312.851,2.183,2.183,0,0,1-.158,1.121,2.293,2.293,0,0,1-2.45,1.415,2.191,2.191,0,0,1-1.05-.424,1.958,1.958,0,0,1-.582-.7,2.315,2.315,0,0,1-.244-.89,2.57,2.57,0,0,1,.194-1.143A2.108,2.108,0,0,1,313.871,253.214Z" transform="translate(-304.299 -240.499)" fill="#6aa049"/>
        <path id="Trazado_122055" data-name="Trazado 122055" d="M304.918,252.362a3.74,3.74,0,0,1,1.1.989,4.521,4.521,0,0,1,.619,1.146,3.911,3.911,0,0,1,.25,1.266,3.267,3.267,0,0,1-.266,1.435,1.891,1.891,0,0,1-2.488.98,2.065,2.065,0,0,1-.2-.1,3.261,3.261,0,0,1-1.06-1,3.921,3.921,0,0,1-.546-1.17,4.494,4.494,0,0,1-.175-1.29,3.716,3.716,0,0,1,.3-1.448,1.741,1.741,0,0,1,2.464-.8Z" transform="translate(-302.15 -240.252)" fill="#6aa049"/>
      </g>
      <g id="Grupo_85841" data-name="Grupo 85841" transform="translate(465.777 122.638)">
        <path id="Trazado_122056" data-name="Trazado 122056" d="M528.81,144.658a3.663,3.663,0,0,1-1.389-.464,4.365,4.365,0,0,1-1.008-.8,3.8,3.8,0,0,1-.715-1.054,3.2,3.2,0,0,1-.308-1.41,1.9,1.9,0,0,1,1.927-1.877,1.926,1.926,0,0,1,.2.013,3.22,3.22,0,0,1,1.358.491,3.857,3.857,0,0,1,.95.848,4.4,4.4,0,0,1,.657,1.105,3.659,3.659,0,0,1,.277,1.438,1.747,1.747,0,0,1-1.774,1.719C528.927,144.668,528.867,144.664,528.81,144.658Z" transform="translate(-517.473 -126.936)" fill="#6aa049"/>
        <path id="Trazado_122057" data-name="Trazado 122057" d="M517.858,131.56a2.576,2.576,0,0,1-1.159-.032,2.3,2.3,0,0,1-.825-.413,1.953,1.953,0,0,1-.57-.7,2.2,2.2,0,0,1-.213-1.113,2.293,2.293,0,0,1,1.863-2.13,2.194,2.194,0,0,1,1.131.062,1.962,1.962,0,0,1,.775.471,2.294,2.294,0,0,1,.519.764,2.561,2.561,0,0,1,.186,1.143A2.108,2.108,0,0,1,517.858,131.56Z" transform="translate(-515.087 -124.173)" fill="#6aa049"/>
        <path id="Trazado_122058" data-name="Trazado 122058" d="M526.377,129.049a3.732,3.732,0,0,1-1.36-.581,4.484,4.484,0,0,1-.956-.885,3.935,3.935,0,0,1-.646-1.118,3.265,3.265,0,0,1-.211-1.444,1.891,1.891,0,0,1,2.039-1.731c.072.006.154.018.224.032a3.273,3.273,0,0,1,1.328.606,3.933,3.933,0,0,1,.894.931,4.521,4.521,0,0,1,.583,1.165,3.74,3.74,0,0,1,.178,1.468,1.737,1.737,0,0,1-1.876,1.585C526.507,129.071,526.441,129.061,526.377,129.049Z" transform="translate(-516.964 -123.284)" fill="#6aa049"/>
      </g>
      <g id="Grupo_85846" data-name="Grupo 85846" transform="translate(344.89 120.496)">
        <g id="Grupo_85842" data-name="Grupo 85842">
          <path id="Trazado_122059" data-name="Trazado 122059" d="M366.688,120.5s15.42,21.62,0,29.886" transform="translate(-359.835 -120.496)" fill="#a6db6d"/>
          <path id="Trazado_122060" data-name="Trazado 122060" d="M366.688,120.5v29.886" transform="translate(-359.835 -120.496)" fill="#a6db6d"/>
          <path id="Trazado_122061" data-name="Trazado 122061" d="M364.623,120.5s-15.419,21.62,0,29.886" transform="translate(-357.77 -120.496)" fill="#a6db6d"/>
        </g>
        <g id="Grupo_85843" data-name="Grupo 85843" transform="translate(6.535 9.697)">
          <path id="Trazado_122062" data-name="Trazado 122062" d="M366.592,164.7a.318.318,0,0,1-.318-.318V133.433a.318.318,0,1,1,.636,0v30.945A.318.318,0,0,1,366.592,164.7Z" transform="translate(-366.274 -133.115)" fill="#6aa049"/>
        </g>
        <g id="Grupo_85844" data-name="Grupo 85844" transform="translate(3.109 12.823)">
          <path id="Trazado_122063" data-name="Trazado 122063" d="M365.56,141.688a.315.315,0,0,1-.237-.107l-3.426-3.868a.318.318,0,1,1,.476-.422l3.188,3.6,3.189-3.6a.318.318,0,1,1,.476.422l-3.426,3.868A.317.317,0,0,1,365.56,141.688Z" transform="translate(-361.816 -137.183)" fill="#6aa049"/>
        </g>
        <g id="Grupo_85845" data-name="Grupo 85845" transform="translate(3.109 17.81)">
          <path id="Trazado_122064" data-name="Trazado 122064" d="M365.56,148.177a.316.316,0,0,1-.237-.108L361.9,144.2a.318.318,0,0,1,.476-.422l3.188,3.6,3.189-3.6a.318.318,0,0,1,.476.422l-3.426,3.868A.318.318,0,0,1,365.56,148.177Z" transform="translate(-361.816 -143.673)" fill="#6aa049"/>
        </g>
      </g>
      <g id="Grupo_85851" data-name="Grupo 85851" transform="translate(325.927 130.781)">
        <g id="Grupo_85847" data-name="Grupo 85847" transform="translate(0 0)">
          <path id="Trazado_122065" data-name="Trazado 122065" d="M342.011,133.88s15.42,21.62,0,29.886" transform="translate(-335.158 -133.88)" fill="#a6db6d"/>
          <path id="Trazado_122066" data-name="Trazado 122066" d="M342.011,133.88v29.886" transform="translate(-335.158 -133.88)" fill="#a6db6d"/>
          <path id="Trazado_122067" data-name="Trazado 122067" d="M339.946,133.88s-15.419,21.62,0,29.886" transform="translate(-333.093 -133.88)" fill="#a6db6d"/>
        </g>
        <g id="Grupo_85848" data-name="Grupo 85848" transform="translate(6.535 9.697)">
          <path id="Trazado_122068" data-name="Trazado 122068" d="M341.916,178.081a.318.318,0,0,1-.319-.318V146.817a.319.319,0,0,1,.637,0v30.945A.318.318,0,0,1,341.916,178.081Z" transform="translate(-341.597 -146.499)" fill="#6aa049"/>
        </g>
        <g id="Grupo_85849" data-name="Grupo 85849" transform="translate(3.109 12.823)">
          <path id="Trazado_122069" data-name="Trazado 122069" d="M340.883,155.072a.319.319,0,0,1-.238-.107l-3.427-3.869a.318.318,0,1,1,.476-.421l3.19,3.6,3.188-3.6a.318.318,0,1,1,.476.421l-3.426,3.869A.318.318,0,0,1,340.883,155.072Z" transform="translate(-337.138 -150.567)" fill="#6aa049"/>
        </g>
        <g id="Grupo_85850" data-name="Grupo 85850" transform="translate(3.109 17.81)">
          <path id="Trazado_122070" data-name="Trazado 122070" d="M340.883,161.56a.316.316,0,0,1-.238-.107l-3.427-3.868a.318.318,0,1,1,.476-.422l3.19,3.6,3.188-3.6a.318.318,0,1,1,.476.422l-3.426,3.868A.315.315,0,0,1,340.883,161.56Z" transform="translate(-337.138 -157.057)" fill="#6aa049"/>
        </g>
      </g>
      <g id="Grupo_85856" data-name="Grupo 85856" transform="translate(534.73 183.573)">
        <g id="Grupo_85852" data-name="Grupo 85852">
          <path id="Trazado_122071" data-name="Trazado 122071" d="M613.737,202.582s15.419,21.62,0,29.887" transform="translate(-606.884 -202.582)" fill="#a6db6d"/>
          <path id="Trazado_122072" data-name="Trazado 122072" d="M613.737,202.582v29.887" transform="translate(-606.884 -202.582)" fill="#a6db6d"/>
          <path id="Trazado_122073" data-name="Trazado 122073" d="M611.672,202.582s-15.42,21.62,0,29.887" transform="translate(-604.818 -202.582)" fill="#a6db6d"/>
        </g>
        <g id="Grupo_85853" data-name="Grupo 85853" transform="translate(6.535 9.698)">
          <path id="Trazado_122074" data-name="Trazado 122074" d="M613.64,246.784a.318.318,0,0,1-.318-.318V215.52a.318.318,0,1,1,.636,0v30.945A.318.318,0,0,1,613.64,246.784Z" transform="translate(-613.322 -215.202)" fill="#6aa049"/>
        </g>
        <g id="Grupo_85854" data-name="Grupo 85854" transform="translate(3.109 12.824)">
          <path id="Trazado_122075" data-name="Trazado 122075" d="M612.608,223.775h0a.315.315,0,0,1-.237-.107l-3.426-3.869a.318.318,0,1,1,.476-.421l3.188,3.6,3.19-3.6a.318.318,0,0,1,.476.421l-3.427,3.869A.317.317,0,0,1,612.608,223.775Z" transform="translate(-608.864 -219.271)" fill="#6aa049"/>
        </g>
        <g id="Grupo_85855" data-name="Grupo 85855" transform="translate(3.109 17.809)">
          <path id="Trazado_122076" data-name="Trazado 122076" d="M612.608,230.263h0a.316.316,0,0,1-.237-.108l-3.426-3.868a.318.318,0,1,1,.476-.422l3.188,3.6,3.19-3.6a.318.318,0,1,1,.476.422l-3.427,3.868A.318.318,0,0,1,612.608,230.263Z" transform="translate(-608.864 -225.758)" fill="#6aa049"/>
        </g>
      </g>
      <g id="Grupo_85861" data-name="Grupo 85861" transform="translate(516.216 165.865)">
        <g id="Grupo_85857" data-name="Grupo 85857" transform="translate(0)">
          <path id="Trazado_122077" data-name="Trazado 122077" d="M589.644,179.537s15.419,21.62,0,29.886" transform="translate(-582.791 -179.537)" fill="#a6db6d"/>
          <path id="Trazado_122078" data-name="Trazado 122078" d="M589.644,179.537v29.886" transform="translate(-582.791 -179.537)" fill="#a6db6d"/>
          <path id="Trazado_122079" data-name="Trazado 122079" d="M587.579,179.537s-15.42,21.62,0,29.886" transform="translate(-580.725 -179.537)" fill="#a6db6d"/>
        </g>
        <g id="Grupo_85858" data-name="Grupo 85858" transform="translate(6.534 9.697)">
          <path id="Trazado_122080" data-name="Trazado 122080" d="M589.547,223.738a.318.318,0,0,1-.318-.318V192.474a.318.318,0,1,1,.636,0V223.42A.318.318,0,0,1,589.547,223.738Z" transform="translate(-589.229 -192.156)" fill="#6aa049"/>
        </g>
        <g id="Grupo_85859" data-name="Grupo 85859" transform="translate(3.109 12.823)">
          <path id="Trazado_122081" data-name="Trazado 122081" d="M588.515,200.729a.316.316,0,0,1-.237-.107l-3.426-3.868a.318.318,0,1,1,.476-.422l3.188,3.6,3.19-3.6a.318.318,0,0,1,.476.422l-3.427,3.868A.316.316,0,0,1,588.515,200.729Z" transform="translate(-584.771 -196.225)" fill="#6aa049"/>
        </g>
        <g id="Grupo_85860" data-name="Grupo 85860" transform="translate(3.109 17.809)">
          <path id="Trazado_122082" data-name="Trazado 122082" d="M588.515,207.218h0a.316.316,0,0,1-.237-.108l-3.426-3.868a.318.318,0,1,1,.476-.422l3.188,3.6,3.19-3.6a.318.318,0,0,1,.476.422l-3.427,3.868A.316.316,0,0,1,588.515,207.218Z" transform="translate(-584.771 -202.713)" fill="#6aa049"/>
        </g>
      </g>
      <g id="Grupo_85866" data-name="Grupo 85866" transform="translate(312.163 131.624)">
        <path id="Trazado_122083" data-name="Trazado 122083" d="M516.41,243.909l35.074-23.348,17.354,28.752s12.157,16.179,7.063,32.063-21.59,23.034-29.51,23.256Z" transform="translate(-361.779 -154.796)" fill="#84a756"/>
        <path id="Trazado_122084" data-name="Trazado 122084" d="M369.271,239.175,391.2,281.257l-14.4-8.195-8.455,13.288s-4.834,11.075,8.234,15.5c0,0-51.384,4.873-53.6-27.464,0,0-.221-15.946,10.853-25.249L320.4,239.175Z" transform="translate(-316.39 -159.106)" fill="#84a756"/>
        <path id="Trazado_122085" data-name="Trazado 122085" d="M399.384,136.544S388.9,134.551,376.533,156.7s-20.781,34.773-20.781,34.773L404.7,218.714l44.683-66.223S430.392,135.215,399.384,136.544Z" transform="translate(-324.576 -135.323)" fill="#84a756"/>
        <path id="Trazado_122086" data-name="Trazado 122086" d="M585.048,260.209H464.527a13,13,0,0,1,1.937-12.5,11.558,11.558,0,0,1,11.317-3.6,20.007,20.007,0,0,1,29.365-26.043c-1.3-6.061,4.926-10.9,10.484-13.643,6.835-3.376,14.944-6.206,21.886-3.059,8.436,3.823,11.062,14.579,10.833,23.838a12.406,12.406,0,0,1,19.617,14.117,14.173,14.173,0,0,1,15.871,3.174c3.915,4.233,3.853,12.681,1.05,17.72Z" transform="translate(-349.576 -150.033)" fill="#fff"/>
        <path id="Trazado_122087" data-name="Trazado 122087" d="M402.871,210.536h-87.1a9.392,9.392,0,0,1,1.4-9.033,8.354,8.354,0,0,1,8.178-2.6,14.458,14.458,0,0,1,21.221-18.82c-.941-4.381,3.56-7.876,7.578-9.86,4.939-2.439,10.8-4.485,15.817-2.211,6.1,2.763,7.995,10.537,7.83,17.227a8.965,8.965,0,0,1,14.176,10.2,10.244,10.244,0,0,1,11.47,2.294c2.829,3.059,2.785,9.165.758,12.806Z" transform="translate(-315.181 -142.397)" fill="#fff"/>
        <g id="Grupo_85862" data-name="Grupo 85862" transform="translate(27.672 20.273)">
          <circle id="Elipse_5139" data-name="Elipse 5139" cx="82.849" cy="82.849" r="82.849" fill="#a6db6d" opacity="0.35" style="mix-blend-mode: multiply;isolation: isolate"/>
          <circle id="Elipse_5140" data-name="Elipse 5140" cx="71.107" cy="71.107" r="71.107" transform="translate(1.27 141.647) rotate(-80.783)" fill="#a6db6d" opacity="0.3" style="mix-blend-mode: multiply;isolation: isolate"/>
        </g>
        <g id="Grupo_85865" data-name="Grupo 85865" transform="translate(36.616 30.932)">
          <g id="Grupo_85864" data-name="Grupo 85864" transform="translate(0 0)" clip-path="url(#clip-path)">
            <g id="Grupo_85863" data-name="Grupo 85863">
              <circle id="Elipse_5141" data-name="Elipse 5141" cx="61.136" cy="61.136" r="61.136" transform="translate(0 29.035) rotate(-13.737)" fill="#365f7a"/>
              <path id="Trazado_122088" data-name="Trazado 122088" d="M444.086,191.618c-1.332.229-.5,3.5.538,4.362a9.849,9.849,0,0,0,3.746,1.453c1.3.37,2.679,1.054,3.118,2.331.29.844.118,1.83.578,2.593,1.148,1.906,4.893.683,5.783,2.723.394.9-.045,2.065.516,2.875.412.594,1.234.788,1.659,1.372,1.093,1.5-1.208,3.058-2.318,4.548a3.989,3.989,0,0,0,.3,4.972c1.415,1.485,3.687,1.607,5.691,2.043s4.252,1.768,4.163,3.818c-.072,1.66-1.683,2.885-1.988,4.518-.628,3.369,4.418,6.282,3.015,9.409a11.434,11.434,0,0,1-1.155,1.657c-1.764,2.582-.727,6.084.516,8.954s2.66,6.1,1.482,8.994c-.487,1.2-1.375,2.185-1.978,3.327-1.674,3.168-.964,7.066.3,10.421,1.369,3.65,4.255,7.587,8.13,7.162,1.277-.14,2.459-.761,3.73-.951s2.822.255,3.216,1.478a3.647,3.647,0,0,1,.028,1.574c-.333,2.575-.737,5.315-2.448,7.267-1.033,1.178-2.45,1.951-3.573,3.042s-1.961,2.754-1.372,4.2c.246.606.729,1.235.476,1.837a1.708,1.708,0,0,1-.9.752l-14.951,7.458c-1.465.731-3.518,1.343-4.5.037-1.055-1.4.328-3.27,1.47-4.6a13.38,13.38,0,0,0,3.439-7.455,7.958,7.958,0,0,0-3.227-7.269c-2.592-1.7-5.955-1.327-9.048-1.156s-6.648-.13-8.53-2.59c-.8-1.044-1.215-2.4-2.244-3.216-2.617-2.082-6.411.824-9.721.349-3.418-.491-5.736-4.529-9.186-4.4-2.2.082-3.907,1.856-5.792,3s-4.918,1.348-5.772-.685c-.387-.921-.165-2.03-.644-2.906-1.009-1.846-4.163-1.28-5.362-3.01-.475-.685-.52-1.588-.945-2.305-.829-1.4-2.71-1.621-4.31-1.9s-3.483-1.171-3.5-2.8,1.983-2.587,3.563-2.258,2.842,1.471,4.181,2.371a9.019,9.019,0,0,0,6.79,1.7c2.342-.517,4.378-2.768,4.046-5.143-.357-2.554-3.138-4.454-2.951-7.025.21-2.88,3.715-4.017,6-5.779a8.913,8.913,0,0,0,2.866-9.807,6.961,6.961,0,0,1-.6-2.079c-.066-2.114,2.307-3.291,4.082-4.442a9.368,9.368,0,0,0,4.425-6.695,6.291,6.291,0,0,0-3.989-6.557c1.274-1.638.229-4.219-1.558-5.275s-3.989-1.019-6.063-.951c-2.531.081-5.221.214-7.3,1.664-2.019,1.41-3.9,4.1-6.22,3.274a4.337,4.337,0,0,1-1.863-1.591,18.034,18.034,0,0,1-3.277-7.248s-23.112,19.239-17.556,54.075,33.34,58.345,70.74,52.147,48.728-25.432,54.284-46.376S493.312,183.146,444.086,191.618Z" transform="translate(-365.932 -178.85)" fill="#365f7a" opacity="0.34" style="mix-blend-mode: multiply;isolation: isolate"/>
              <path id="Trazado_122089" data-name="Trazado 122089" d="M390.242,225.292a9.561,9.561,0,0,1,10.2,4.737,15.2,15.2,0,0,0,1.7,3.2c.8.913,2.281,1.409,3.22.643a3.116,3.116,0,0,0,.788-2.6,17.53,17.53,0,0,1,.025-3.99,3.7,3.7,0,0,1,2.364-2.972c1.406-.391,2.864.44,4.322.4a26.286,26.286,0,0,0,3.5-.858c1.189-.2,2.7.287,2.893,1.478.147.891-.524,1.794-.287,2.666.475,1.749,3.533,1.077,4.508,2.6.892,1.4-.722,3.028-2.135,3.9l-8.924,5.519c1.329.758,2.872,2.019,2.4,3.474-.251.765-.993,1.235-1.548,1.817-1.527,1.6-1.636,4.06-2.621,6.041-1.4,2.81-4.475,4.493-5.877,7.3a7.479,7.479,0,0,0,.962,7.982,4.084,4.084,0,0,1,1.044,1.557c.147.614-.281,1.408-.908,1.332a1.59,1.59,0,0,1-.768-.44c-2.659-2.187-6.413-2.271-9.856-2.251a8.046,8.046,0,0,0-3.064.417c-2.309.962-3.194,3.808-3.188,6.31a15.652,15.652,0,0,0,2.269,8.052,2.809,2.809,0,0,0,1.225,1.243,1.1,1.1,0,0,0,1.466-.565,2.5,2.5,0,0,1,4.941-.728c.16,1.045-.341,2.175.091,3.14.869,1.941,3.98.934,5.762,2.094,1.807,1.176,1.481,3.956,2.667,5.756a3.966,3.966,0,0,0,5.879.562c.463-.473.8-1.067,1.306-1.493a2.883,2.883,0,0,1,4.172.745c1.344-1.151,2.941-2.277,4.7-2.131,2.836.235,4.588,3.586,7.405,4,1.4.2,2.832-.374,4.229-.142,3.153.524,4.712,4.8,7.894,5.1,2.057.193,4.348-1.372,6.039-.184.765.536,1.18,1.545,2.057,1.865a7.6,7.6,0,0,0,1.81.134,2.671,2.671,0,0,1,.666,5.15c-2.38.91-3.506,4.608-2.774,7.05.284.945.808,1.937.463,2.862-.477,1.281-2.162,1.45-3.466,1.86a8.891,8.891,0,0,0-2.943,2.206,5.169,5.169,0,0,0-.669,1.847s-8.158.529-14.34-.851a4.509,4.509,0,0,0-1.473-4.069,11.4,11.4,0,0,0-3.751-1.608c-3.386-1.007-6.931-2.264-9.137-5.022-2.333-2.914-2.693-6.893-2.91-10.619a3.345,3.345,0,0,0-.951-2.619c-.9-.662-2.176-.254-3.275-.47a5.771,5.771,0,0,1-2.849-1.979c-2.2-2.318-4.575-4.729-7.668-5.53a10.158,10.158,0,0,1-3.188-.983c-.771-.511-1.3-1.345-2.125-1.769-1.435-.739-3.39-.053-4.66-1.048a5.233,5.233,0,0,1-1.265-1.989,11.686,11.686,0,0,0-3.5-4.263,15.1,15.1,0,0,1-1.5-1.049s-3.868-11.415-2.821-21.8,3.7-21.506,10.584-30.006Z" transform="translate(-366.48 -186.48)" fill="#a6db6d"/>
              <path id="Trazado_122090" data-name="Trazado 122090" d="M526.552,240.282c1.735,2.926,3.078,11.482,3.078,11.482,2.444,10.77,1.851,19.224-1.9,32.1s-15.286,22.51-15.286,22.51c-1.873-3.413.084-6.283,2.049-8.11.742-.69,1.668-1.319,1.908-2.3a7.183,7.183,0,0,0-.307-2.65c-.526-3.764,3.733-6.748,3.774-10.548a2.884,2.884,0,0,0-.469-1.739c-.841-1.156-2.553-1.094-3.971-.914-2.955.374-6.4,1.091-7.639,3.8a4.04,4.04,0,0,1-.634,1.19c-.983,1.02-2.775-.035-3.31-1.345s-.491-2.856-1.291-4.025c-.953-1.393-3.091-2.525-2.469-4.1.394-1,1.81-1.409,1.955-2.47a4.036,4.036,0,0,0-.229-1.333c-.261-1.256.326-2.51.728-3.728a13.617,13.617,0,0,0-.376-9.459c-.773-1.837-1.983-3.737-1.472-5.663.276-1.038,1.028-1.9,1.318-2.934a6.389,6.389,0,0,0-.52-3.921,10.228,10.228,0,0,1-.994-3.871,2.918,2.918,0,0,1,2.257-2.919,4.62,4.62,0,0,1,2.6.862c3.609,1.982,8.161,2.9,11.815,1a29.182,29.182,0,0,1,3.553-1.984c1.282-.451,3.248-.614,3.968.539Z" transform="translate(-394.588 -189.968)" fill="#a6db6d"/>
              <path id="Trazado_122091" data-name="Trazado 122091" d="M468.3,192.386c-.714,1.679,1.062,2.918,2.4,3.346,1.485.474,3.243.529,4.283,1.691.768.856.926,2.107,1.591,3.046,1.925,2.72,6.461,1.319,9.214,3.2a1.612,1.612,0,0,1,.853,1.581c-.127.49-.608.8-.871,1.23-1.178,1.932,2.493,4.09,1.7,6.209-.635,1.7-3.3,1.338-4.584,2.618a1.069,1.069,0,0,0-.362.739c.012.564.65.87,1.188,1.04q4.729,1.5,9.588,2.546c.967.207,2.075.5,2.484,1.406.717,1.576-1.324,3.593-.314,5a1.984,1.984,0,0,0,2.269.5,7.671,7.671,0,0,0,2.06-1.388,17.084,17.084,0,0,1,14.059-2.985s-9.008-20.318-31.883-27.774C481.976,194.387,472.278,192.231,468.3,192.386Z" transform="translate(-387.216 -179.201)" fill="#a6db6d"/>
            </g>
            <path id="Trazado_122092" data-name="Trazado 122092" d="M400.115,225.656a3.8,3.8,0,0,1,.814,3.8c-.342,1.316-1.3,2.38-1.8,3.645-1.78,4.518-3.32,8.069-3.954,12.492-.421,2.935-.967,6.174-2.679,8.6a3.15,3.15,0,0,1-1.59,1.3,2.706,2.706,0,0,1-3.015-1.776,7.375,7.375,0,0,1-.168-3.788,74.786,74.786,0,0,1,5.914-20.442c.722-1.6,1.651-3.311,3.3-3.906C396.94,225.577,399.071,224.743,400.115,225.656Z" transform="translate(-368.558 -186.809)" fill="#fff" opacity="0.43"/>
            <path id="Trazado_122093" data-name="Trazado 122093" d="M408.77,214.1a2.474,2.474,0,0,1,2.576,1.7,3.14,3.14,0,0,1-.487,2.547,7.456,7.456,0,0,1-1.912,1.852,5.523,5.523,0,0,1-1.833.978,1.966,1.966,0,0,1-2.476-1.062,3.953,3.953,0,0,1,.639-4.142,6.038,6.038,0,0,1,3.854-1.973" transform="translate(-372.435 -184.21)" fill="#fff" opacity="0.43"/>
          </g>
        </g>
        <path id="Trazado_122094" data-name="Trazado 122094" d="M323.8,286.4s-2.757,13.541,8.981,30.6L349.4,348.45s7.674,17.054,19.673,17.718h52.087V313.052l-43.854-.261S329,318.044,323.8,286.4Z" transform="translate(-317.112 -170.043)" fill="#96d457"/>
        <path id="Trazado_122095" data-name="Trazado 122095" d="M412.533,136.2s19.712,3.323,32.115,21.262,20.6,33,20.6,33l-13.732,7.752,50.161,4.208,20.661-45.847-14.122,7.752-10.631-17.276s-7.684-10.631-20.675-11.739S412.533,136.2,412.533,136.2Z" transform="translate(-337.725 -134.977)" fill="#96d457"/>
        <path id="Trazado_122096" data-name="Trazado 122096" d="M564.821,277.959c.871,6.31.487,14.059-6.684,22.007,0,0-13.339,13.066-24.085,14.218l-10.746,1.153L493.332,313.8V299.966l-25.363,39.581,25.363,39.966V362.989h17.293s15.343,2.69,23.428-11.913l8.084-14.6,13.834-21.9,5-8.035s9.771-15,3.854-28.574" transform="translate(-350.562 -168.087)" fill="#96d457"/>
      </g>
    </g>
  </g>
</svg>
