<svg xmlns="http://www.w3.org/2000/svg" width="81.526" height="92.324" viewBox="0 0 81.526 92.324">
  <g id="Grupo_86307" data-name="Grupo 86307" transform="translate(-24.419 -333.055)">
    <g id="Grupo_86301" data-name="Grupo 86301">
      <g id="Grupo_86297" data-name="Grupo 86297">
        <g id="Grupo_86291" data-name="Grupo 86291">
          <g id="Grupo_86289" data-name="Grupo 86289">
            <path id="Trazado_122710" data-name="Trazado 122710" d="M67.267,386.621c.253-.149,25.34-14.885,27.922-16.48,2.273-1.4,7.849-1.007,10.511-.828h0v-1.265l-.541-.022c-2.994-.2-8.006-.539-10.614,1.072-2.571,1.588-27.646,16.317-27.9,16.466Z" fill="#ddd4cc"/>
          </g>
          <g id="Grupo_86290" data-name="Grupo 86290">
            <path id="Trazado_122711" data-name="Trazado 122711" d="M67.961,383.629a.6.6,0,0,1,.709.005,2.364,2.364,0,0,1,.987,1.886.855.855,0,0,1-.354.8l.02.044L37.168,404.875l-1.406-2.638Z" fill="#7c5660"/>
            <path id="Trazado_122712" data-name="Trazado 122712" d="M37.411,404.159c0,.727-.441,1.061-.987.746a2.362,2.362,0,0,1-.986-1.885c0-.727.441-1.061.986-.747A2.362,2.362,0,0,1,37.411,404.159Z" fill="#51353a"/>
          </g>
          <ellipse id="Elipse_5154" data-name="Elipse 5154" cx="0.246" cy="0.632" rx="0.246" ry="0.632" transform="translate(105.454 368.048)" fill="#bfb0a6"/>
        </g>
        <g id="Grupo_86296" data-name="Grupo 86296">
          <path id="Trazado_122713" data-name="Trazado 122713" d="M66.956,360.343v46.073c0,3.318-4.779,6.008-10.675,6.008s-10.675-2.69-10.675-6.008V360.343Z" fill="#42292d"/>
          <g id="Grupo_86292" data-name="Grupo 86292">
            <path id="Trazado_122714" data-name="Trazado 122714" d="M56.281,374.251c5.9,0,10.675-2.69,10.675-6.008v29.881c0,3.318-4.779,6.007-10.675,6.007s-10.675-2.689-10.675-6.007V368.243C45.606,371.561,50.386,374.251,56.281,374.251Z" fill="#f9697e"/>
          </g>
          <g id="Grupo_86293" data-name="Grupo 86293">
            <path id="Trazado_122715" data-name="Trazado 122715" d="M48.422,397.121a15.342,15.342,0,0,0,7.859,1.952c5.9,0,10.675-2.69,10.675-6.008v1.5c0,3.317-4.779,6.008-10.675,6.008a15.332,15.332,0,0,1-7.859-1.953Z" fill="#fff"/>
          </g>
          <g id="Grupo_86294" data-name="Grupo 86294">
            <path id="Trazado_122716" data-name="Trazado 122716" d="M48.422,376.09a15.332,15.332,0,0,0,7.859,1.953c5.9,0,10.675-2.69,10.675-6.008v1.5c0,3.318-4.779,6.008-10.675,6.008a15.342,15.342,0,0,1-7.859-1.952Z" fill="#fff"/>
          </g>
          <path id="Trazado_122717" data-name="Trazado 122717" d="M45.606,360.343c0,3.318,4.78,6.008,10.675,6.008s10.675-2.69,10.675-6.008-4.779-6.008-10.675-6.008S45.606,357.024,45.606,360.343Z" fill="#51353a"/>
          <path id="Trazado_122718" data-name="Trazado 122718" d="M63.619,354.335v4.808c0,2.288-3.3,4.143-7.362,4.143s-7.361-1.855-7.361-4.143v-4.808Z" fill="#42292d"/>
          <path id="Trazado_122719" data-name="Trazado 122719" d="M48.9,354.335c0,2.288,3.3,4.143,7.361,4.143s7.362-1.855,7.362-4.143-3.3-4.143-7.362-4.143S48.9,352.047,48.9,354.335Z" fill="#51353a"/>
          <path id="Trazado_122720" data-name="Trazado 122720" d="M57.965,347.007v7.1c0,.511-.736.926-1.645.926s-1.645-.415-1.645-.926v-5.075Z" fill="#d8455b"/>
          <g id="Grupo_86295" data-name="Grupo 86295">
            <path id="Trazado_122721" data-name="Trazado 122721" d="M52.273,351.253a4.876,4.876,0,0,0,2.423-.711l4.486-2.591c2.873-1.658,5.123-5.9,5.123-9.669,0-2.205-.805-3.935-2.207-4.744a4.11,4.11,0,0,0-4.232.229l-4.486,2.59c-2.872,1.659-5.121,5.9-5.121,9.67,0,2.2.8,3.934,2.207,4.743A3.562,3.562,0,0,0,52.273,351.253Zm1.107-2.99a1.725,1.725,0,0,1-1.6.229,2.866,2.866,0,0,1-.891-2.465c0-2.815,1.742-6.2,3.805-7.391l4.486-2.59a1.727,1.727,0,0,1,1.6-.229,2.866,2.866,0,0,1,.891,2.465c0,2.814-1.742,6.2-3.807,7.39Z" fill="#f9697e"/>
          </g>
          <path id="Trazado_122722" data-name="Trazado 122722" d="M56.462,390.148a3.421,3.421,0,0,0,.834-.959c-.055-.2.013-.4.16-.422a2.109,2.109,0,0,1,.443.022c.008-.045.013-.087.021-.131a11.634,11.634,0,0,1,.3-1.254.61.61,0,0,1-.23-.118,7.092,7.092,0,0,1-.895,1.126c-.571.555-1.288.585-1.306.3-.015-.242.668-.362,1.2-.727a3.419,3.419,0,0,0,.834-.959c-.055-.2.014-.4.161-.422a2.4,2.4,0,0,1,.494.028c.167-.46.3-.75.312-.772l-.006,0a3.549,3.549,0,0,1,.114-.5,3.339,3.339,0,0,1,.284-.688,1.812,1.812,0,0,0-.424-.3,2.026,2.026,0,0,1-1.036-.962,4.717,4.717,0,0,1-.311-1.325c-.009-.414.243-.427.243-.043a2.665,2.665,0,0,0,.527,1.512,2.872,2.872,0,0,0,1.349.656,1.3,1.3,0,0,1,.69-.369,1.117,1.117,0,0,1,.453.006.849.849,0,0,1,.214.086,4.6,4.6,0,0,0,1.249-1.077,3.623,3.623,0,0,0,.526-1.7c0-.384.253-.46.244-.043a5.91,5.91,0,0,1-.311,1.434,3.391,3.391,0,0,1-1.036,1.329,2.949,2.949,0,0,0-.345.352,2.374,2.374,0,0,1,.345,1.141,7.217,7.217,0,0,1,.32.682,3.406,3.406,0,0,1,.548-.229c.147-.028.216.148.161.366a2.044,2.044,0,0,0,.833.665c.531.177,1.214.057,1.2.3-.018.294-.735.516-1.306.163a4.223,4.223,0,0,1-.9-.81,1.007,1.007,0,0,1-.283.232,9.075,9.075,0,0,1,.291,1.125c.009.048.016.094.024.141a3.132,3.132,0,0,1,.5-.206c.147-.028.215.148.16.366a2.04,2.04,0,0,0,.834.665c.531.178,1.213.057,1.2.3-.018.293-.734.516-1.306.163a4.247,4.247,0,0,1-.9-.81.976.976,0,0,1-.283.232.652.652,0,0,1-.1.044c.041.344.069.675.083.991v.022a2.674,2.674,0,0,1,.528-.014c.138.028.136.229.012.425a2.219,2.219,0,0,0,.493.98c.4.38,1.037.522.937.761-.118.285-.819.232-1.194-.337a4.744,4.744,0,0,1-.5-1.149.864.864,0,0,1-.272.111c-.008.428-.035.831-.078,1.2h0a2.447,2.447,0,0,1-.074.548c-.061.383-.132.731-.2,1.045a4.453,4.453,0,0,1-.539,1.252,2.746,2.746,0,0,1-1.545,1.332v0l-.016,0-.029,0-.029.006-.016,0v0c-1.128.138-1.923-1.177-2.083-1.849-.075-.316-.152-.674-.216-1.077a2.326,2.326,0,0,1-.066-.479h0c-.039-.339-.063-.714-.071-1.117a.671.671,0,0,1-.211-.022,6.815,6.815,0,0,1-.5,1.324c-.375.7-1.076,1-1.195.759-.1-.205.538-.571.938-1.092a3.3,3.3,0,0,0,.493-1.155c-.124-.151-.126-.352.012-.429a2.7,2.7,0,0,1,.463-.154l0-.031.006.016c.014-.33.043-.681.086-1.051-.013,0-.024,0-.037,0a.617.617,0,0,1-.283-.133,7.161,7.161,0,0,1-.9,1.126c-.571.555-1.287.585-1.305.3C55.249,390.633,55.931,390.513,56.462,390.148Z" fill="#42292d"/>
          <path id="Trazado_122723" data-name="Trazado 122723" d="M53.672,386.807a8.047,8.047,0,0,1,1.148-1.576c.221-.24,1.011-.949,1.074-1a9.153,9.153,0,0,1,7.3-2.152c3.472.682,4.166,4.106,3.066,8.013-1.13,4.01-5.393,7.843-10.059,6.2C52.163,394.869,51.922,390.008,53.672,386.807Zm11.579-2.687c-1.01-1.48-3.539-1.7-4.736-1.4a9.134,9.134,0,0,0-4.131,2.059c2.882,2.041,5.6,4.486,8.28,6.763C65.794,389.427,66.524,385.985,65.251,384.12Zm-9.665,10.956c3.145,2.007,6.906-.229,8.681-2.849l.008-.016a68.831,68.831,0,0,1-8.355-6.98A10.062,10.062,0,0,0,55,386.319C53.217,388.81,52.532,393.127,55.586,395.076Z" fill="#fff"/>
        </g>
      </g>
      <g id="Grupo_86300" data-name="Grupo 86300">
        <path id="Trazado_122724" data-name="Trazado 122724" d="M91.075,387.029v31.134c0,2.57-3.7,4.654-8.269,4.654s-8.27-2.084-8.27-4.654v-31.1Z" fill="#ffd829"/>
        <g id="Grupo_86298" data-name="Grupo 86298">
          <path id="Trazado_122725" data-name="Trazado 122725" d="M89.632,415.115a10.138,10.138,0,0,1-5.263,1.946V394.292a10.138,10.138,0,0,0,5.263-1.945Z" fill="#f9697e"/>
        </g>
        <g id="Grupo_86299" data-name="Grupo 86299">
          <path id="Trazado_122726" data-name="Trazado 122726" d="M82.449,406.508a10.534,10.534,0,0,1-6.685-2.209V392a10.534,10.534,0,0,0,6.685,2.209Z" fill="#42292d"/>
        </g>
        <path id="Trazado_122727" data-name="Trazado 122727" d="M74.536,387.029c0-2.515.715-8.152,1.891-9.76H89.185c1.175,1.608,1.89,7.245,1.89,9.76,0,2.571-3.7,4.654-8.269,4.654s-8.27-2.083-8.27-4.654Z" fill="#51353a"/>
        <path id="Trazado_122728" data-name="Trazado 122728" d="M76.092,378.446c0,2.087,3.006,3.779,6.714,3.779s6.714-1.692,6.714-3.779-3.006-3.779-6.714-3.779S76.092,376.359,76.092,378.446Z" fill="#7c5660"/>
        <path id="Trazado_122729" data-name="Trazado 122729" d="M86.888,389.467l2.552-1.474v-3.4l-2.552,1.474Z" fill="#6d4854"/>
        <path id="Trazado_122730" data-name="Trazado 122730" d="M86.888,386.064l-1.475-.8a32.705,32.705,0,0,1,1.475,4.2Z" fill="#5b3945"/>
        <path id="Trazado_122731" data-name="Trazado 122731" d="M85.412,385.267l2.752-1.517,1.276.841-2.552,1.474Z" fill="#7c5660"/>
        <path id="Trazado_122732" data-name="Trazado 122732" d="M87.66,387.32a1.209,1.209,0,0,1,.5-.963.313.313,0,0,1,.357-.009l16.033,9.29-.673,1.382-16.062-9.3v0A.457.457,0,0,1,87.66,387.32Z" fill="#ddd4cc"/>
        <path id="Trazado_122733" data-name="Trazado 122733" d="M103.707,396.616c0,.371.226.542.5.381a1.207,1.207,0,0,0,.5-.963c0-.37-.226-.541-.5-.38A1.205,1.205,0,0,0,103.707,396.616Z" fill="#c5a8a2"/>
        <path id="Trazado_122734" data-name="Trazado 122734" d="M103.886,396.513c0,.24.145.349.325.246a.781.781,0,0,0,.325-.621c0-.24-.146-.35-.325-.246A.778.778,0,0,0,103.886,396.513Z" fill="#bfb0a6"/>
        <path id="Trazado_122735" data-name="Trazado 122735" d="M75.678,413.892l.007-.006Zm.015-.011.008-.005Zm.016-.01.01-.005Zm.019-.01.011,0Zm.021-.007.012,0Zm.022-.005h0Zm.023,0,.013,0Zm.049.012.014.007Zm.126.145c0,.011.01.023.015.036C75.979,414.028,75.974,414.016,75.969,414.005Zm.024.055c.007.02.015.042.022.066C76.008,414.1,76,414.08,75.993,414.06Zm-.085-.15-.014-.016Zm.051.076-.015-.027Zm-.025-.043-.015-.02Zm-.066-.069.014.011Zm-.036-.019-.014,0Zm-.161.042,0,0h0Z" fill="#42292d"/>
        <path id="Trazado_122736" data-name="Trazado 122736" d="M80.912,413.049a14.388,14.388,0,0,0-.748-1.533c-.2-.359-.478-.831-.694-1.275l-.056-.12a1.275,1.275,0,0,0,.182.151,3.1,3.1,0,0,1-.386-.693l-.019-.043a1.867,1.867,0,0,0-.171-.313.4.4,0,0,0,.052-.162.375.375,0,0,0,.094-.393.38.38,0,0,0-.283-.261.388.388,0,0,0-.034-.036.925.925,0,0,1,.16-.293,1.681,1.681,0,0,1,.565-.233c.339-.074.353-.56.353-.56a2.156,2.156,0,0,1-.271.33c-.186.164-.4.134-.615.322a.816.816,0,0,0-.238.39.316.316,0,0,0-.049-.035.275.275,0,0,0-.047-.021,2.964,2.964,0,0,0-.238-.665c-.209-.429-.428-.652-.615-1.031-.12-.244-.271-.643-.271-.643a1.9,1.9,0,0,0,.353.967,8.423,8.423,0,0,1,.565.886,3.16,3.16,0,0,1,.16.476.25.25,0,0,0-.038,0h0s-.2-.209-.286-.07.094.5.094.5l0,0a1.01,1.01,0,0,0,.051.224.393.393,0,0,0-.173.117l-.02.024a.616.616,0,0,1-.385.245.691.691,0,0,0,.19.061c-.019.018-.036.036-.058.056a5.779,5.779,0,0,1-.694.474,2.952,2.952,0,0,0-.748.67,2.535,2.535,0,0,0-.271,2.279,1.886,1.886,0,0,0,.23.531l.025.037a1.09,1.09,0,0,0,.649.452l0,.015,0-.014c.041.01.082.019.124.025l0,.018,0-.017.023,0a.95.95,0,0,0,.743-.314,1.3,1.3,0,0,0,.22-.446,1.066,1.066,0,0,0,.369.4.375.375,0,0,0,.433.012,4.381,4.381,0,0,0,.233.76,4.682,4.682,0,0,0,.743,1.171l.023.023,0,.02,0-.017c.042.043.083.082.124.118l0,.012,0-.01c.248.224.468.345.649.3l.025-.007a.441.441,0,0,0,.23-.266A3.652,3.652,0,0,0,80.912,413.049Zm-1.325-2.51.014.026Zm-1.677-.95.014-.011Zm1.647.892-.019-.038-.007-.016.026.054Zm-1.577-.95-.007.008-.02.016h0Z" fill="#42292d"/>
        <path id="Trazado_122737" data-name="Trazado 122737" d="M75.84,407.694a3.042,3.042,0,0,1,3.79-.817,6.444,6.444,0,0,1,3.141,5.375c-.144,2.179-.528,3.115-1.853,3.945-1.933,1.21-3.231-.011-4.054-1.055C75.537,413.461,74.444,409.675,75.84,407.694Zm6.059,5.171a4.571,4.571,0,0,0-.059-1.64,9.044,9.044,0,0,0-.7-1.836c-.813-1.367-2.111-2.4-3.455-2.114a2.186,2.186,0,0,0-.64.255c1.391,2.382,2.624,4.8,4.166,7.1a3.994,3.994,0,0,0,.65-1.536c0-.01-.006-.018,0-.029C81.875,413,81.884,412.932,81.9,412.865Zm-4.968,1.226c.755,1.271,2.062,2.379,3.549,1.306a3.074,3.074,0,0,0,.438-.4l-.011-.011a38.1,38.1,0,0,1-4.111-7.3C75.17,408.977,76.029,412.575,76.931,414.091Z" fill="#fff"/>
      </g>
    </g>
    <g id="Grupo_86302" data-name="Grupo 86302">
      <path id="Trazado_122738" data-name="Trazado 122738" d="M40.669,425.379A29.423,29.423,0,0,1,29,422.724c-2.872-1.276-4.409-3.1-4.571-5.411-.349-4.991,5.9-10.741,11.367-14.148a.5.5,0,1,1,.529.848c-5.639,3.518-11.2,8.973-10.9,13.23.134,1.916,1.473,3.452,3.98,4.567,6.429,2.857,13.254,3.385,17.39,1.35a6.311,6.311,0,0,0,3.579-4.267c.8-3.326-2.62-8.6-6.244-14.177-3.272-5.04-6.656-10.251-7.971-15.273-2.964-11.327-1.326-23.429,3.983-29.431,2.173-2.456,3.986-2.456,5.126-2.026a4.967,4.967,0,0,1,2.891,4.087.5.5,0,0,1-1,0,3.982,3.982,0,0,0-2.246-3.152c-1.529-.579-3.031.634-4.022,1.753-5.02,5.675-6.6,17.668-3.764,28.516,1.273,4.866,4.612,10.008,7.842,14.981,3.907,6.017,7.281,11.212,6.376,14.956a7.361,7.361,0,0,1-4.109,4.93A15,15,0,0,1,40.669,425.379Z" fill="#d8455b"/>
    </g>
  </g>
</svg>
