<svg id="Grupo_86306" data-name="Grupo 86306" xmlns="http://www.w3.org/2000/svg" xmlns:xlink="http://www.w3.org/1999/xlink" width="68.887" height="80.935" viewBox="0 0 68.887 80.935">
  <defs>
    <clipPath id="clip-path">
      <path id="Trazado_121799" data-name="Trazado 121799" d="M173.363,344.395c2-.4,2.243,1.649,1.847,2.441-.792,2.177-3.96,1.649-5.741,1.847a67.162,67.162,0,0,0-12.074,2.969c-2.573.792-5.344.792-7.918,1.188-2.771.2-5.542,1.188-8.116,1.584a25.019,25.019,0,0,1-14.252-2.177c-2.177-.99-11.283-5.74-8.511-8.907,1.584-1.781,7.821-10.176,10.394-10.176,4.355,0,7.737-1.193,12.092-1.985,4.157-.594,10.264,1.988,14.619,2.978,5.146.99,6.749,5.685,12.093,5.685Z" transform="translate(-118.078 -331.089)" fill="none"/>
    </clipPath>
  </defs>
  <path id="Trazado_121779" data-name="Trazado 121779" d="M116.8,364.34c0,10.689.594,21.18-1.979,31.67-.99,4.355-2.969,9.3,0,13.262,3.365,4.157,8.709,4.751,13.46,5.542a159.4,159.4,0,0,0,30.681,2.771c5.74,0,24.149-2.177,22.565-11.283-.792-5.146-6.73-7.72-6.532-13.262.2-2.375,1.584-4.553,1.979-6.73a18.058,18.058,0,0,0-.99-6.532c-1.386-4.553-.2-8.907-.4-13.46-.2-4.751.594-8.709-5.344-8.511-.4,0-.99.2-1.584.2Z" transform="translate(-112.739 -336.652)" fill="#917f73"/>
  <path id="Trazado_121780" data-name="Trazado 121780" d="M169.318,344.767c-4.355.594-5.74.2-9.5-1.979-4.949-3.167-10.689-3.563-16.231-2.177a67.045,67.045,0,0,1-15.439,1.584c-3.761,0-10.491.2-13.46,2.573-3.365,2.771-.792,8.709-1.386,12.668-.2,1.979-1.188,4.355-.4,6.334,1.188,2.375,4.553,3.959,6.73,5.146a37.811,37.811,0,0,0,30.681,2.771c4.553-1.584,9.105-4.948,14.054-4.355,3.365.2,8.907,2.375,11.283-.4,2.573-2.771.792-8.709.792-12.272,0-2.771.4-8.116-2.376-9.7-.533-.531-2.04-.2-2.732-.2A16.332,16.332,0,0,0,169.318,344.767Z" transform="translate(-112.603 -332.914)" fill="#af9f95"/>
  <path id="Trazado_121781" data-name="Trazado 121781" d="M173.363,346.8c2-.4,2.243,1.649,1.847,2.441-.792,2.177-3.96,1.649-5.741,1.847a67.162,67.162,0,0,0-12.074,2.969c-2.573.792-5.344.792-7.918,1.188-2.771.2-5.542,1.188-8.116,1.584a25.019,25.019,0,0,1-14.252-2.177c-2.177-.99-11.283-5.74-8.511-8.907,1.584-1.781,9.3-.99,11.876-.99a46.877,46.877,0,0,0,10.491-.792c4.157-.594,7.72-1.979,12.074-.99,5.146.99,8.644,4.553,13.988,4.553Z" transform="translate(-113.743 -333.491)" fill="#917f73"/>
  <g id="Grupo_85711" data-name="Grupo 85711" transform="translate(4.335)">
    <g id="Grupo_85710" data-name="Grupo 85710" clip-path="url(#clip-path)">
      <path id="Trazado_121782" data-name="Trazado 121782" d="M171.821,349.48c.693-.638.792-2.766-.4-2.447.1-1.064,0-2.34-1.386-1.809.4-1.17-1.089-2.127-1.88-1.383-.3-.744-1.089-.425-1.584,0-.2.32.1.852-.1,1.064s-.693-.107-.891.106c-.4.532-.4,1.383-.693,1.7-.495.425-1.287-.212-1.386.957.2-1.276-.891-2.127-1.682-1.063.495-1.17-.99-1.7-1.682-.957.4-.639.2-2.553-.693-1.6.891-.957.3-2.979-1.089-1.808a1.256,1.256,0,0,0-2.474-.425c.3-1.7-2.573-2.234-2.276-.107-.1-1.063-1.089-2.021-1.781-.957.594-.957-.2-2.872-1.287-1.7.4-1.383-1.287-3.085-1.682-1.383-.3-.85-1.88-.85-2.375-.212-.594.532-.4,1.383-.4,2.127-.065-1.119-1.24-1.04-2.095-.523-.249-.856-.816-1.39-1.171-.435-.2-2.127-2.375-2.446-2.672-.212-.4-2.021-2.276-.106-2.375,1.064-1.386-1.489-2.078.319-2.276,1.6-.3-1.063-1.682-2.021-2.474-.851-.1-1.064-1.682-1.6-1.979-.425,0-1.6-2.375-2.234-2.276-.639-1.287-1.595-2.969-.106-2.573,1.49-1.781-.638-2.177.638-1.584,2.34-.99-.532-2.969-.212-2.078,1.383-.891-.637-3.365.213-2.078,1.6-.99-.319-2.672.212-2.474,1.6l4.751,5.744c5.344,3.83,13.262,5.851,19.6,4.787a4.8,4.8,0,0,0,.742-.175,16.476,16.476,0,0,0,3.316,1.239,15.157,15.157,0,0,0,9.2-.638,45.185,45.185,0,0,1,9.2-2.34c2.078-.426,6.235-1.383,5.938-4.468a1.021,1.021,0,0,0,.1.532C171.919,352.14,172.711,350.012,171.821,349.48Z" transform="translate(-118.055 -332.295)" fill="#e2bb91"/>
      <g id="Grupo_85709" data-name="Grupo 85709" transform="translate(2.961 9.132)">
        <path id="Trazado_121783" data-name="Trazado 121783" d="M129.527,347.3c0,.365-.532.66-1.188.66s-1.188-.3-1.188-.66.532-.66,1.188-.66S129.527,346.938,129.527,347.3Z" transform="translate(-122.929 -343.46)" fill="#c96"/>
        <ellipse id="Elipse_5116" data-name="Elipse 5116" cx="1.188" cy="0.891" rx="1.188" ry="0.891" transform="translate(7.06 1.797)" fill="#c96"/>
        <ellipse id="Elipse_5117" data-name="Elipse 5117" cx="1.386" cy="0.99" rx="1.386" ry="0.99" transform="translate(10.425 5.888)" fill="#c96"/>
        <ellipse id="Elipse_5118" data-name="Elipse 5118" cx="0.891" cy="0.423" rx="0.891" ry="0.423" transform="translate(15.241 1.797)" fill="#c96"/>
        <path id="Trazado_121784" data-name="Trazado 121784" d="M153.194,344.158c0,.653-.9,1.182-2.021,1.182s-2.021-.529-2.021-1.182.9-1.181,2.021-1.181S153.194,343.506,153.194,344.158Z" transform="translate(-127.51 -342.697)" fill="#c96"/>
        <path id="Trazado_121785" data-name="Trazado 121785" d="M153.312,350.555c0,.273-.359.495-.8.495s-.8-.222-.8-.495.359-.495.8-.495S153.312,350.282,153.312,350.555Z" transform="translate(-128.042 -344.172)" fill="#c96"/>
        <path id="Trazado_121786" data-name="Trazado 121786" d="M162.35,347.618a1.685,1.685,0,1,1-1.682-1.6A1.643,1.643,0,0,1,162.35,347.618Z" transform="translate(-129.558 -343.33)" fill="#c96"/>
        <ellipse id="Elipse_5119" data-name="Elipse 5119" cx="0.841" cy="0.544" rx="0.841" ry="0.544" transform="translate(29.427 6.383)" fill="#c96"/>
        <ellipse id="Elipse_5120" data-name="Elipse 5120" cx="1.253" cy="0.693" rx="1.253" ry="0.693" transform="translate(33.122 1.797)" fill="#c96"/>
        <ellipse id="Elipse_5121" data-name="Elipse 5121" cx="1.748" cy="0.792" rx="1.748" ry="0.792" transform="translate(6.598 8.131)" fill="#c96"/>
        <path id="Trazado_121787" data-name="Trazado 121787" d="M145.591,354.97c0,.364-.761.66-1.7.66s-1.7-.3-1.7-.66.761-.66,1.7-.66S145.591,354.605,145.591,354.97Z" transform="translate(-126.061 -345.057)" fill="#c96"/>
        <path id="Trazado_121788" data-name="Trazado 121788" d="M146.038,350.107c0,.208-.381.378-.85.378s-.85-.17-.85-.378.381-.38.85-.38S146.038,349.9,146.038,350.107Z" transform="translate(-126.508 -344.102)" fill="#c96"/>
        <ellipse id="Elipse_5122" data-name="Elipse 5122" cx="0.99" cy="0.495" rx="0.99" ry="0.495" transform="translate(23.291 9.253)" fill="#c96"/>
        <path id="Trazado_121789" data-name="Trazado 121789" d="M169.693,350.809c0,.333-.532.6-1.188.6s-1.188-.27-1.188-.6.532-.6,1.188-.6S169.693,350.475,169.693,350.809Z" transform="translate(-131.293 -344.202)" fill="#c96"/>
        <path id="Trazado_121790" data-name="Trazado 121790" d="M175.958,352.189c0,.255-.591.462-1.32.462s-1.32-.207-1.32-.462.591-.461,1.32-.461S175.958,351.935,175.958,352.189Z" transform="translate(-132.542 -344.519)" fill="#c96"/>
        <path id="Trazado_121791" data-name="Trazado 121791" d="M123.93,351.1c0,.228-.473.413-1.056.413s-1.055-.184-1.055-.413.473-.413,1.055-.413S123.93,350.87,123.93,351.1Z" transform="translate(-121.818 -344.302)" fill="#c96"/>
        <path id="Trazado_121792" data-name="Trazado 121792" d="M125.173,349.475c0,.09-.266.165-.594.165s-.594-.074-.594-.165.266-.165.594-.165S125.173,349.384,125.173,349.475Z" transform="translate(-122.269 -344.015)" fill="#c96"/>
        <path id="Trazado_121793" data-name="Trazado 121793" d="M138.978,357.572c0,.237-.5.429-1.122.429s-1.121-.192-1.121-.429.5-.429,1.121-.429S138.978,357.335,138.978,357.572Z" transform="translate(-124.924 -345.647)" fill="#c96"/>
        <ellipse id="Elipse_5123" data-name="Elipse 5123" cx="0.462" cy="0.165" rx="0.462" ry="0.165" transform="translate(6.598 6.878)" fill="#c96"/>
        <ellipse id="Elipse_5124" data-name="Elipse 5124" cx="0.693" cy="0.165" rx="0.693" ry="0.165" transform="translate(5.674 9.914)" fill="#c96"/>
        <path id="Trazado_121794" data-name="Trazado 121794" d="M135.69,342.927c0,.169-.252.306-.561.306s-.561-.137-.561-.306.251-.3.561-.3S135.69,342.759,135.69,342.927Z" transform="translate(-124.473 -342.623)" fill="#c96"/>
        <path id="Trazado_121795" data-name="Trazado 121795" d="M167.714,354.058c0,.091-.443.165-.99.165s-.99-.074-.99-.165.443-.165.99-.165S167.714,353.967,167.714,354.058Z" transform="translate(-130.963 -344.97)" fill="#c96"/>
        <path id="Trazado_121796" data-name="Trazado 121796" d="M182.486,348.377c0,.187-.354.338-.792.338s-.792-.151-.792-.338.354-.338.792-.338S182.486,348.19,182.486,348.377Z" transform="translate(-134.122 -343.751)" fill="#c96"/>
        <path id="Trazado_121797" data-name="Trazado 121797" d="M181.364,349.665c0,.2-.458.356-1.023.356s-1.023-.16-1.023-.356.458-.355,1.023-.355S181.364,349.469,181.364,349.665Z" transform="translate(-133.792 -344.015)" fill="#c96"/>
        <path id="Trazado_121798" data-name="Trazado 121798" d="M183.5,351.127c0,.089-.133.161-.3.161s-.3-.072-.3-.161.133-.16.3-.16S183.5,351.039,183.5,351.127Z" transform="translate(-134.538 -344.361)" fill="#c96"/>
      </g>
    </g>
  </g>
</svg>
