<svg xmlns="http://www.w3.org/2000/svg" xmlns:xlink="http://www.w3.org/1999/xlink" width="250" height="272" viewBox="0 0 250 272"><defs><linearGradient id="a" x1="0.588" y1="-0.637" x2="0.545" y2="-0.078" gradientUnits="objectBoundingBox"><stop offset="0" stop-color="#e4d6ca"/><stop offset="1" stop-color="#d4bdac"/></linearGradient><linearGradient id="b" x1="0.523" y1="-1.484" x2="0.514" y2="-0.699" gradientUnits="objectBoundingBox"><stop offset="0" stop-color="#d3c5cb"/><stop offset="1" stop-color="#ada0a6"/></linearGradient><linearGradient id="c" x1="0.51" y1="-0.355" x2="0.501" y2="0.433" xlink:href="#b"/><linearGradient id="d" x1="0.579" y1="-0.525" x2="0.536" y2="0.034" xlink:href="#a"/><linearGradient id="e" x1="0.524" y1="-1.562" x2="0.515" y2="-0.776" xlink:href="#b"/><linearGradient id="f" x1="0.511" y1="-0.434" x2="0.502" y2="0.354" xlink:href="#b"/><linearGradient id="g" x1="2.965" y1="2.133" x2="-0.186" y2="-0.298" gradientUnits="objectBoundingBox"><stop offset="0" stop-color="#96888e"/><stop offset="1" stop-color="#706369"/></linearGradient><linearGradient id="h" x1="0.732" y1="-1.584" x2="0.388" y2="1.745" xlink:href="#g"/><linearGradient id="i" x1="0.699" y1="-1.571" x2="0.388" y2="1.746" xlink:href="#g"/><linearGradient id="j" x1="0" y1="0.5" x2="1" y2="0.5" xlink:href="#a"/><linearGradient id="m" x1="0.74" y1="-1.586" x2="0.359" y2="1.746" xlink:href="#g"/><linearGradient id="n" x1="0.957" y1="2.511" x2="0.44" y2="0.143" xlink:href="#g"/><linearGradient id="o" x1="2.314" y1="2.374" x2="-0.232" y2="-0.435" xlink:href="#g"/><linearGradient id="p" y1="0.5" x2="1" y2="0.5" gradientUnits="objectBoundingBox"><stop offset="0" stop-color="#5d535a"/><stop offset="1" stop-color="#464143"/></linearGradient><linearGradient id="q" x1="0" y1="0.5" x2="1" y2="0.5" xlink:href="#g"/><linearGradient id="s" x1="1.779" y1="1.763" x2="-0.421" y2="-0.705" xlink:href="#g"/><linearGradient id="t" x1="1.499" y1="-2.536" x2="0.313" y2="0.963" xlink:href="#g"/><linearGradient id="u" x1="1.132" y1="-1.561" x2="-0.034" y2="1.833" xlink:href="#g"/><linearGradient id="v" x1="1.663" y1="3.711" x2="0.188" y2="-0.314" xlink:href="#g"/><linearGradient id="w" x1="0.302" y1="4.569" x2="0.722" y2="-3.952" xlink:href="#b"/><linearGradient id="x" x1="0.311" y1="4.4" x2="0.73" y2="-4.121" xlink:href="#b"/><linearGradient id="y" x1="0.505" y1="0.201" x2="0.473" y2="1.09" xlink:href="#p"/><linearGradient id="z" x1="0.501" y1="0.208" x2="0.494" y2="1.089" xlink:href="#g"/><linearGradient id="aa" x1="0.504" y1="0.199" x2="0.493" y2="1.093" xlink:href="#g"/><linearGradient id="ab" x1="0.503" y1="0.203" x2="0.491" y2="1.085" xlink:href="#g"/><linearGradient id="ac" y1="0.5" x2="1" y2="0.5" gradientUnits="objectBoundingBox"><stop offset="0" stop-color="#799b91"/><stop offset="1" stop-color="#3e6764"/></linearGradient><linearGradient id="ad" x1="-5.804" y1="-0.306" x2="-5.704" y2="1.327" gradientUnits="objectBoundingBox"><stop offset="0" stop-color="#46736e"/><stop offset="0.996" stop-color="#2f4f4f"/></linearGradient><linearGradient id="ae" x1="0.045" y1="0.006" x2="0.703" y2="0.749" xlink:href="#ac"/><linearGradient id="ag" x1="-4.867" y1="0.815" x2="-3.917" y2="0.815" xlink:href="#ad"/><linearGradient id="ah" x1="-4.038" y1="0.718" x2="-2.855" y2="0.718" xlink:href="#ad"/><linearGradient id="ai" x1="-6.887" y1="0.783" x2="-1.906" y2="-1.14" xlink:href="#ad"/><linearGradient id="aj" x1="0.097" y1="0.403" x2="0.877" y2="0.604" xlink:href="#ac"/><linearGradient id="ak" x1="-8.986" y1="-0.332" x2="-8.137" y2="-0.332" xlink:href="#ac"/><linearGradient id="al" x1="1.112" y1="0.439" x2="-0.11" y2="0.553" xlink:href="#ac"/><linearGradient id="am" x1="-7.466" y1="1.102" x2="-6.189" y2="1.102" xlink:href="#ac"/><linearGradient id="an" x1="0.367" y1="0.83" x2="0.615" y2="0.055" xlink:href="#ac"/><linearGradient id="ao" x1="-5.504" y1="0.633" x2="-4.586" y2="0.633" xlink:href="#ac"/><linearGradient id="ap" x1="-17.53" y1="-1.628" x2="-17.568" y2="1.742" xlink:href="#ac"/><linearGradient id="at" x1="0.474" y1="1.439" x2="0.56" y2="-1.475" gradientUnits="objectBoundingBox"><stop offset="0.004" stop-color="#ebeff2"/><stop offset="1" stop-color="#fff"/></linearGradient><linearGradient id="au" x1="0.213" y1="-2.04" x2="0.779" y2="3.062" gradientUnits="objectBoundingBox"><stop offset="0" stop-color="#a6b2c7"/><stop offset="1" stop-color="#7595b6"/></linearGradient><linearGradient id="av" y1="0.5" x2="1" y2="0.5" gradientUnits="objectBoundingBox"><stop offset="0" stop-color="#95afc7"/><stop offset="1" stop-color="#7595b6"/></linearGradient><linearGradient id="aw" x1="0.208" y1="0.496" x2="0.894" y2="0.511" xlink:href="#at"/><linearGradient id="ax" x1="0.317" y1="0.354" x2="1.506" y2="1.303" xlink:href="#av"/><linearGradient id="ay" x1="0" y1="0.5" x2="1" y2="0.5" xlink:href="#au"/><linearGradient id="az" x1="0" y1="0.5" x2="1" y2="0.5" xlink:href="#at"/><linearGradient id="bd" x1="0.487" y1="1.104" x2="0.533" y2="-1.021" xlink:href="#at"/><linearGradient id="bf" x1="0.378" y1="-2.253" x2="0.504" y2="0.606" gradientUnits="objectBoundingBox"><stop offset="0" stop-color="#f6af9a"/><stop offset="0.996" stop-color="#f89f8a"/></linearGradient><linearGradient id="bg" x1="0.378" y1="-2.246" x2="0.501" y2="0.606" xlink:href="#bf"/><linearGradient id="bh" x1="0.465" y1="-2.246" x2="0.497" y2="0.605" xlink:href="#bf"/><linearGradient id="bl" x1="-16.322" y1="-2.483" x2="-16.685" y2="-1.314" gradientUnits="objectBoundingBox"><stop offset="0" stop-color="#cbaf85"/><stop offset="1" stop-color="#ba7c44"/></linearGradient><linearGradient id="bm" x1="0.38" y1="-2.253" x2="0.506" y2="0.606" xlink:href="#bf"/><linearGradient id="bn" x1="0.38" y1="-2.246" x2="0.503" y2="0.606" xlink:href="#bf"/><linearGradient id="bp" x1="-0.718" y1="-1.329" x2="1.016" y2="1.084" xlink:href="#bl"/><linearGradient id="bq" x1="0.537" y1="-0.017" x2="0.491" y2="0.995" gradientUnits="objectBoundingBox"><stop offset="0" stop-color="#ef9f8e"/><stop offset="1" stop-color="#e68273"/></linearGradient><linearGradient id="br" x1="0.535" y1="0.013" x2="0.482" y2="0.981" xlink:href="#bq"/><linearGradient id="bs" x1="0.531" y1="0.015" x2="0.488" y2="0.976" xlink:href="#a"/><linearGradient id="bt" x1="1.561" y1="1.073" x2="-0.105" y2="0.046" xlink:href="#bl"/><linearGradient id="bu" x1="1.992" y1="-0.288" x2="0.462" y2="0.514" xlink:href="#bl"/><linearGradient id="bv" x1="1.942" y1="-1.211" x2="-0.045" y2="1.485" xlink:href="#bl"/><linearGradient id="bw" x1="0.343" y1="-0.08" x2="0.667" y2="0.909" xlink:href="#bq"/><linearGradient id="bx" x1="0.334" y1="-0.009" x2="0.904" y2="0.982" xlink:href="#bq"/><linearGradient id="by" x1="0" y1="0.5" x2="1" y2="0.5" xlink:href="#ad"/><linearGradient id="ca" x1="0" y1="0.5" x2="1" y2="0.5" xlink:href="#bl"/><linearGradient id="cc" x1="0.6" y1="0.776" x2="0.091" y2="-0.335" xlink:href="#a"/><linearGradient id="cd" x1="0.345" y1="-0.115" x2="1.241" y2="4.299" gradientUnits="objectBoundingBox"><stop offset="0" stop-color="#956f53"/><stop offset="1" stop-color="#71482f"/></linearGradient><linearGradient id="ce" x1="0.668" y1="0.783" x2="-0.03" y2="-0.368" xlink:href="#a"/><clipPath id="cf"><path d="M1834.331,1744.989s7.829-4.318,13.428-1.566,15.635,1.827,17.059,10.985c1.332,8.571.095,29.989-28.969,27.023,0,0,3.8-8.683,3.606-17.652S1838.032,1746.6,1834.331,1744.989Z" transform="translate(-1834.331 -1742.506)" fill="none"/></clipPath><linearGradient id="cg" x1="1.001" y1="1.301" x2="0.403" y2="0.411" gradientUnits="objectBoundingBox"><stop offset="0" stop-color="#f3e9e1"/><stop offset="1" stop-color="#e1d1c5"/></linearGradient><linearGradient id="ch" x1="0" y1="0.5" x2="1" y2="0.5" xlink:href="#bq"/><linearGradient id="ci" x1="0.249" y1="-2.17" x2="0.817" y2="4.165" xlink:href="#cd"/></defs><g transform="translate(6175 9054)"><g transform="translate(301 -89)"><path d="M10,0H240a10,10,0,0,1,10,10V272a0,0,0,0,1,0,0H0a0,0,0,0,1,0,0V10A10,10,0,0,1,10,0Z" transform="translate(-6476 -8965)" fill="#f2e6dc"/><g transform="translate(-6797.428 -9292.285)"><path d="M449.9,357.335c-57.05-1.685-106.468,39.711-113.934,94.027-8.163,59.387,36.766,112.821,92.049,121.379C496.773,583.386,563.469,521.8,557.48,455,552.969,404.661,507.888,359.048,449.9,357.335Z" fill="#f9efe4"/><g transform="translate(344.534 416.953)" opacity="0.5"><g transform="translate(0)" opacity="0.8"><path d="M450.955,1053.18l-24.878-.3-12.786,23.174,12.786,23.052,24.878-.536,12.1-22.753Z" transform="translate(-413.292 -1027.839)" fill="url(#a)"/><path d="M793.093,1264.8l-23.424.165-12.028,22.708,12.028,22.135,23.424-.952,11.406-22.3Z" transform="translate(-715.707 -1213.95)" fill="url(#b)"/><path d="M793.093,847.981l-23.424-.73L757.641,869.5l12.028,22.595,23.424-.057L804.5,870.173Z" transform="translate(-715.707 -847.251)" fill="url(#c)"/></g><g transform="translate(122.673 4.999)" opacity="0.8"><path d="M1458.293,1094.232l-24.878-.3-12.786,23.174,12.786,23.052,24.878-.536,12.1-22.753Z" transform="translate(-1420.629 -1068.891)" fill="url(#d)"/><path d="M1800.431,1305.852l-23.423.165-12.028,22.708,12.028,22.135,23.423-.952,11.406-22.3Z" transform="translate(-1723.045 -1255.003)" fill="url(#e)"/><path d="M1800.431,889.034l-23.423-.73-12.028,22.249,12.028,22.595,23.423-.057,11.406-21.864Z" transform="translate(-1723.045 -888.303)" fill="url(#f)"/></g></g><g transform="translate(369.992 416.922)"><path d="M1896.734,1116.612s13.626-8.367,15.539,1.2-5.259,21.748,0,32.748a32.641,32.641,0,0,1,2.63,20.8s.478-6.244-1.554-9.7-8.466-13.412-7.2-21.779,3.018-14.821,1.982-17.849-5.339-1.2-7.251.4S1896.734,1116.612,1896.734,1116.612Z" transform="translate(-1741.539 -1080.802)" fill="url(#g)"/><g transform="translate(115.672 69.134)"><path d="M1592.071,1457.067c-1.924,4.621-3.656,7.128-4.043,11.362s-7.122,6.163-13.476,4.043,2.114-4.431,2.114-6.354,3.466-3.656,5.008-5.389,5.008-16.948,4.621-21.182,0-14.828,0-14.828l10.634-10.028s2.264,12.148,3.593,19.438S1593.994,1452.446,1592.071,1457.067Z" transform="translate(-1572.187 -1414.692)" fill="url(#h)"/><path d="M1593.226,1515.474c-5.2,3.61-4.188,8.376-5.054,13.574s-3.275,16.751-13.621,15.74c-6.354-2.12,2.114-4.43,2.114-6.354s3.466-3.656,5.008-5.389,5.008-16.948,4.621-21.182,0-14.828,0-14.828l11.408,5.008S1598.425,1511.87,1593.226,1515.474Z" transform="translate(-1572.187 -1487.008)" opacity="0.25" fill="url(#i)" style="mix-blend-mode:multiply;isolation:isolate"/></g><path d="M1567.075,1452.43a9.894,9.894,0,0,0,8.953,7.22c7.509.722,19.221-1.444,20.152-11.986S1573.573,1440.011,1567.075,1452.43Z" transform="translate(-1452.026 -1368.838)" fill="url(#j)"/><path d="M1618.5,1579.664s-2.984,4.092-1.155,4.717,3.851-4.043,3.851-4.043Z" transform="translate(-1495.652 -1490.44)" fill="url(#j)"/><path d="M1678.937,1575.893s.37,4.727,3,4.111-.329-3.905-.658-4.6S1678.937,1575.893,1678.937,1575.893Z" transform="translate(-1550.265 -1486.502)" fill="url(#j)"/><path d="M972.707,1485.176s0,17.185,3.177,22.961,1.155,9.242-.867,12.419-4.766,5.921-4.91,6.787-5.632,5.776,0,6.354,9.82-.433,12.708-5.488,1.589-6.21,1.733-10.686-.91-8.231,2.072-14.441,3.126-17.618,2.982-19.062S972.707,1485.176,972.707,1485.176Z" transform="translate(-925.53 -1406.06)" fill="url(#m)"/><path d="M959.767,1052.833c-7.942,4.477-6.5-2.311-19.062,5.487s-35.236,11.12-52.276,5.488a41.223,41.223,0,0,0-7.891-2c-4.627-.52-5.557,1.234-9.6,2.6h-.006a35.585,35.585,0,0,1-9.549,1.257c-.317.006-.641.013-.97.013-18.484-.145-17.618-11.693-19.206-19.78s-5.2-19.2-7.365-23.537c-.606-1.213.1-3.809,1.438-6.9,3.431-7.948,10.981-19.233,10.981-19.233s1.011,0,8.52,2.311c7.382,2.27,17.006-1.184,29.956,1.728.22.046.439.1.658.15,10.657,2.547,29.032,6.955,42.369,5.615a27.671,27.671,0,0,0,8.751-2.149c12.564-5.776,21.084,0,21.084,0C980.706,1010.232,967.709,1048.356,959.767,1052.833Z" transform="translate(-807.893 -978.05)" fill="url(#n)"/><path d="M1035.186,1459.343c-4.3,8.018-.855,17.208-.2,23.643.722,7.076,2.888,11.264.866,13.286s-1.155,3.466-3.61,8.376-5.343,4.043-12.679,1.733c-2.512-.791-3.027-1.8-2.38-2.819.041-.069-.012-.139-.012-.208v-.006c1.362-1.514,4.558-2.992,5.927-3.685a6.7,6.7,0,0,0,.687-.358c.578-.578,1.34-1.733,2.784-3.61s2.186-3.032,2.62-8.953.732-4.91-5.333-12.419c-2.507-3.1-5.349-7.284-7.833-11.125-3.523-5.47-6.311-10.247-6.311-10.247.116-2.888,5.731-4.165,11.883-4.084,8.913.121,18.958,3.085,15.1,8.127A16.74,16.74,0,0,0,1035.186,1459.343Z" transform="translate(-962.542 -1375.566)" fill="url(#o)"/><path d="M1072.4,1896.535a1.573,1.573,0,0,1,.15-.208C1072.465,1896.824,1072.425,1896.864,1072.4,1896.535Z" transform="translate(-1017.588 -1768.54)" fill="url(#p)"/><path d="M879.586,1081.311c-.318-5.193-4.1-14.678-7.244-19.3a7.335,7.335,0,0,0-1.947-2.264c-1.727-1.236-.953-6.064-2.033-10.916-2.195-9.86-14.266-9.2-18.81-17.172-3.507-6.15-2.042-13.294.487-19.5,1.9-4.671,10.113-23.291-3.211-17.807-2.992,1.236-6.028,4.048-8.3,6.282-.919.9-3.027,2.457-3.289,3.829-.276,1.444,3.176,5.935,2.779,6.46-7.487,9.9,3.576,25.674,5.183,35.988,1.678,10.773,7.133,16.251,18.616,16.251.329,0,.653,0,.971-.006,2.484,3.841,5.332,8.023,7.839,11.125,6.065,7.509,5.776,6.5,5.343,12.419s-1.155,7.076-2.6,8.953-2.166,3.032-2.744,3.61a3.642,3.642,0,0,1-.606.358c2.056-.167,4.343-.254,6.285-1.224C880.932,1096.092,879.973,1087.665,879.586,1081.311Z" transform="translate(-809.304 -975.532)" opacity="0.25" fill="url(#q)" style="mix-blend-mode:multiply;isolation:isolate"/><path d="M1215.186,1455.009s-1.64-9.283.959-8.416,24.549,13.286,35.38,7.22,23.827-11.785,24.838-9.286,0,6.362,0,6.362S1249.318,1467.9,1215.186,1455.009Z" transform="translate(-1142.541 -1371.232)" opacity="0.25" fill="url(#q)" style="mix-blend-mode:multiply;isolation:isolate"/><path d="M1672.613,1381.108s8.231,10.4,13.286,16.752,5.776,1.733,5.343,8.953.289,17.185-1.155,19.784-6.643,5.921-6.643,8.664,6.354,3.322,6.354,3.322,4.043-.867,6.787-6.787-3.466-9.386,2.311-16.9,8.087-10.975,3.466-16.607-3.755-22.672,0-26.571S1672.613,1381.108,1672.613,1381.108Z" transform="translate(-1544.712 -1307.191)" fill="url(#s)"/><path d="M640.345,890.972s-2.848-5.343-8.428-5.2-10.779-3.321-9.335,1.011,7.914,11.408,13.849,11.408S640.345,890.972,640.345,890.972Z" transform="translate(-622.339 -880.018)" fill="url(#t)"/><path d="M942.823,910.289s.825-1.221,8.19-3.965,11.1-3.427,10.377-1.116-5.549,11.113-10.614,12.15-7.87.019-7.87.019v-6.839Z" transform="translate(-903.795 -896.892)" fill="url(#u)"/><path d="M727.548,872.927s-11.119-2.455-14.152,3.61-5.2,9.82-4.188,15.018-.433,10.831-2.744,12.275-1.877,6.354,1.588,8.664,9.237,5.2,12.633,2.166,7.584-13,10.472-14.3,6.771-8.52,5.84-14.874S735.78,873.938,727.548,872.927Z" transform="translate(-694.957 -869.337)" fill="url(#v)"/><path d="M748.987,853.11s-4.549-3.151-4.4-5.4-2.842,1.282-2.238,4.175,2.058,5.343,4.368,4.657A2.941,2.941,0,0,0,748.987,853.11Z" transform="translate(-727.659 -846.993)" fill="url(#w)"/><path d="M903.578,872.083s4.549-3.151,4.4-5.4,2.842,1.282,2.238,4.175-2.058,5.343-4.368,4.657A2.941,2.941,0,0,1,903.578,872.083Z" transform="translate(-869.292 -863.656)" fill="url(#x)"/><path d="M2028.933,1538.432c-.239-.368-5.3-1.967-5.006,2.75s2.985,10.765.674,15.058a4.143,4.143,0,0,0,2.262-2.4,6.361,6.361,0,0,1-1.011,2.4s2.84-1.772,3.081-3.505,2.022-1.983,1.661-6.274S2029.833,1539.816,2028.933,1538.432Z" transform="translate(-1853.233 -1453.739)" fill="url(#y)"/><path d="M1243.7,1047.838c-5.776,1.155-7.122,9.433-21.76,12.719s-15.6-13.493-24.33-19.848c-5.666-4.118.012-8.641,4.708-11.316.22.046.439.1.658.15,10.657,2.547,29.032,6.955,42.369,5.615,2.271.78,3.894,1.554,4.517,2.281C1253.325,1041.484,1249.472,1046.683,1243.7,1047.838Z" transform="translate(-1125.47 -1007.181)" opacity="0.25" fill="url(#z)" style="mix-blend-mode:multiply;isolation:isolate"/><path d="M1632.675,1166.082s-7.7,8.087-2.7,12.708,13.048-3.944,19.809-6.882,7.147-13.335,2.718-15.453S1633.446,1156.455,1632.675,1166.082Z" transform="translate(-1505.785 -1118.111)" opacity="0.25" fill="url(#aa)" style="mix-blend-mode:multiply;isolation:isolate"/><path d="M1017.116,1139.248s8.91-1.155,11.026,6.21,8.325,2.325,6.881,7.95-5.776,8.276-12.419,3.99-8.919-5.441-7.2-9.629S1012.257,1138.866,1017.116,1139.248Z" transform="translate(-967.051 -1103.599)" opacity="0.25" fill="url(#ab)" style="mix-blend-mode:multiply;isolation:isolate"/></g><g transform="translate(432.974 492.137)"><path d="M1235.262,1865.841a17.33,17.33,0,0,0,.111,5.6c.258,1.809.726,3.557,2.286,4.683a5.3,5.3,0,0,0,1.082.62,6.028,6.028,0,0,1,1.315.5c.614.447.875,1.4,1.36,1.987a6.76,6.76,0,0,0,4.605,2.406,3.918,3.918,0,0,1,1.3.248,6.89,6.89,0,0,1,1.186.932,3.976,3.976,0,0,0,2.5.853,8.908,8.908,0,0,0,2.563-.461c.979-.289,1.955-.586,2.932-.879s1.955-.565,2.921-.88a5.751,5.751,0,0,0,2.205-1.189,5.813,5.813,0,0,0,1.268-2.3,2.717,2.717,0,0,1,.653-1.122,2.825,2.825,0,0,1,1.181-.487,8.586,8.586,0,0,0,4.434-2.348,5.177,5.177,0,0,0,1.337-4.22c-.021-.135-.05-.267-.083-.4a.748.748,0,0,0,.359-.418,7.619,7.619,0,0,0-2.774-8.5,13.169,13.169,0,0,0-2.358-1.13c-.786-.347-1.166-1.129-1.728-1.737-1.216-1.315-2.786-1.184-4.408-.945a3.848,3.848,0,0,1-2.151-.116c-.811-.345-1.521-.886-2.327-1.239a4.331,4.331,0,0,0-2.581-.332,18.356,18.356,0,0,1-2.353.56,10.743,10.743,0,0,1-2.638-.567,8.869,8.869,0,0,0-2.428-.137,8.509,8.509,0,0,0-4.72,1.826,5.3,5.3,0,0,0-1.644,2.182,5.483,5.483,0,0,0-.287,1.337,2.014,2.014,0,0,1-.332,1.134,12.406,12.406,0,0,1-1,.944,5.735,5.735,0,0,0-.83,1.065A7.293,7.293,0,0,0,1235.262,1865.841Z" transform="translate(-1223.441 -1807.283)" fill="url(#ac)"/><path d="M1237.2,1914.747c1.542,2.9,3.4,5.661,4.906,8.579a11.811,11.811,0,0,0,4.279,3.737,6.663,6.663,0,0,0,5.835.219c3.72-1.37,6.037-4.77,10.214-5.244a21.086,21.086,0,0,1,8.084.564,5.2,5.2,0,0,1-1.358,4.05,8.585,8.585,0,0,1-4.434,2.348,2.826,2.826,0,0,0-1.181.487,2.718,2.718,0,0,0-.653,1.122,5.811,5.811,0,0,1-1.268,2.3,5.746,5.746,0,0,1-2.205,1.189c-.966.315-1.947.589-2.921.88s-1.953.59-2.932.879a8.92,8.92,0,0,1-2.563.461,3.977,3.977,0,0,1-2.5-.853,6.9,6.9,0,0,0-1.186-.932,3.919,3.919,0,0,0-1.3-.248,6.761,6.761,0,0,1-4.605-2.406c-.484-.582-.746-1.539-1.36-1.987a6.035,6.035,0,0,0-1.315-.5,5.291,5.291,0,0,1-1.082-.62c-1.56-1.127-2.028-2.875-2.286-4.683a17.331,17.331,0,0,1-.111-5.6,7.294,7.294,0,0,1,.945-2.529,5.741,5.741,0,0,1,.83-1.065C1237.089,1914.846,1237.143,1914.8,1237.2,1914.747Z" transform="translate(-1223.441 -1859.932)" fill="url(#ad)"/><path d="M1175.531,1673.087a10.46,10.46,0,0,0-6.111-3.518,6.136,6.136,0,0,0-2.355-6.567c-2.79-1.96-6.087-1.635-9.025-.373a10.754,10.754,0,0,0-13.443,13.752,7.068,7.068,0,0,0-4.793,4.781,7.493,7.493,0,0,0,2.69,7.888,43.828,43.828,0,0,0,3.825,2.533,15.468,15.468,0,0,1,3.35,3.343,10.4,10.4,0,0,0,8.492,3.745,10.191,10.191,0,0,0,7.3-3.855,8.256,8.256,0,0,0,5.892.769,9.594,9.594,0,0,0,6.467-5.121C1180.493,1685.22,1179.36,1677.5,1175.531,1673.087Z" transform="translate(-1139.526 -1637.619)" fill="url(#ae)"/><g transform="translate(12.477 0)"><path d="M1289.481,1526.834c1.534-.216,5.828-1.472,8.083-3.72,2.377-2.369,1.976-7.155,2.94-8.367s3.808-2.069,5.665-4.356c2.688-3.311,3.57-7.87,1.628-10.666-.836-1.2-3.277-3.132-2.946-4.9.376-.869,3.138-2.484,2.756-7.861-.3-4.292-2.777-10.808-11.271-12.544-1.662-.968-1.455-4.7-5.8-6.495s-7.082.974-8.668.05-5.4-3.239-9.3-3.346a15.96,15.96,0,0,0-12.168,5.592,17.279,17.279,0,0,0-2.114,2.914c-.251.429-.32.585-.814.608-.584.026-1.15.018-1.741.081a15.545,15.545,0,0,0-6.443,1.837,14.042,14.042,0,0,0-6.319,10.751c-.242,3.761,3.528,10.5,3.131,11.628s-4.289,4.8-4.111,9.309a14.419,14.419,0,0,0,8.253,12.969c2.287,1.105,8.6,2.566,10.268,3.681s1.339,6.468,3.956,8.844c2.841,2.58,5.954,2.41,10.315,1.168,2.359-.672,3.782-.359,5.734-1.978,2.25.692,5.21-.552,7.091-2.393C1288.458,1528.813,1287.947,1527.05,1289.481,1526.834Z" transform="translate(-1241.986 -1464.627)" fill="url(#ac)"/></g><g transform="translate(12.477 0)" opacity="0.4" style="mix-blend-mode:multiply;isolation:isolate"><path d="M1421.823,1480.153c-5.987-.861-10.316,4.128-15.88,4.823s-6.884-6.595-9.946-10.349a8.054,8.054,0,0,0-3.941-3.111,14.142,14.142,0,0,0-6.751-.117c.3-.4.62-.8.964-1.174a15.96,15.96,0,0,1,12.168-5.592c3.893.106,7.711,2.422,9.3,3.346s4.322-1.848,8.668-.05,4.139,5.527,5.8,6.495c7.246,1.481,10.109,6.44,10.983,10.53l-.354-.269A21.317,21.317,0,0,0,1421.823,1480.153Z" transform="translate(-1367.853 -1464.627)" fill="url(#ag)"/><path d="M1249.291,1544.087a12.732,12.732,0,0,1,4.4-1.549c-2.347,1.989-5.679,4.62-4.121,7.449,2.588,4.735,8.018,7.711,9.557,13.291,1.574,5.953-4.277,9.674-9.046,11.891-1.708.812-1.843,2.419-1.234,3.957a13.648,13.648,0,0,0,9.692,8.59c10.418,2.146,20.277-.815,30.813-1.493,2.79-.254,5.226,1.775,7.34,3.364q1.489-1.323,2.887-2.739a8.876,8.876,0,0,1-2.013,4.688c-2.255,2.247-6.549,3.5-8.083,3.72s-1.023,1.979-1.873,2.811c-1.881,1.84-4.841,3.084-7.091,2.393-1.952,1.618-3.375,1.306-5.734,1.978-4.361,1.241-7.474,1.411-10.315-1.168-2.617-2.376-2.288-7.729-3.956-8.844s-7.981-2.576-10.268-3.681a14.418,14.418,0,0,1-8.253-12.969c-.178-4.507,3.714-8.183,4.111-9.309s-3.372-7.867-3.13-11.628A14.042,14.042,0,0,1,1249.291,1544.087Z" transform="translate(-1241.986 -1533.05)" fill="url(#ah)"/></g><path d="M1350.182,1667.806c15.353,12.3,19.72,34.419,19.72,34.419l14.288-8.939c-19.568-22.464-15-31.742-15.169-41.336,0,0-1.19-2.336-2.015.344-.436,1.416-1.025,7.151-.058,13.525-4.621-6.841-3.9-12.817-5.5-14.647-.546-.622-2.068-.447-2.068-.447a120.032,120.032,0,0,0,11.01,33.6s-9.805-17.008-15.313-20.858c-1.031-.7-1.74.18-.916,1.809a52.377,52.377,0,0,1,5.312,7.931c-4.924-4.259-5.748-5.283-7.483-6.729S1349.389,1666.187,1350.182,1667.806Z" transform="translate(-1324.268 -1628.042)" fill="url(#ai)"/><path d="M1618.789,1640.383a5.13,5.13,0,0,0,3.69-4.27,10.582,10.582,0,0,0-1.637-7.3,11,11,0,0,0-11.649-4.713,4.5,4.5,0,0,0-3.563-2.469,4.23,4.23,0,0,0-3.523,1.446,8.026,8.026,0,0,0-2.325.213,4.5,4.5,0,0,0-3.468,4.041c-2.575.931-3.948,4.154-4.132,6.75-.131,1.854.134,3.926,1.534,5.283.581.564,1.357.68,1.429,1.554a7.848,7.848,0,0,0,.476,2.419,7.322,7.322,0,0,0,3.326,3.628,6.586,6.586,0,0,0,2.066.692,22.754,22.754,0,0,1,2.577.031,5.18,5.18,0,0,1,1.236.863,5.605,5.605,0,0,0,1.129.632,5.707,5.707,0,0,0,2.374.368,9.535,9.535,0,0,0,4.359-1.543C1615.421,1646.36,1618.324,1643.673,1618.789,1640.383Z" transform="translate(-1537.033 -1602.503)" fill="url(#aj)"/><path d="M1596.771,1713.249c.728.778,1.793,2.181,2.317,1.759,4.785-4.094,10.959-1.186,16.3-.172,3.146.557,4.8-2.876,5.715-5.21a18.046,18.046,0,0,0,1.113-3.556,9.6,9.6,0,0,1,.26,4.208,5.13,5.13,0,0,1-3.69,4.27c-.464,3.29-3.367,5.977-6.1,7.629a9.535,9.535,0,0,1-4.359,1.543,5.705,5.705,0,0,1-2.374-.368,5.615,5.615,0,0,1-1.129-.632,5.187,5.187,0,0,0-1.236-.863,22.811,22.811,0,0,0-2.577-.032,6.582,6.582,0,0,1-2.066-.692,7.321,7.321,0,0,1-3.326-3.627,7.853,7.853,0,0,1-.476-2.419c-.072-.874-.848-.99-1.429-1.554-1.4-1.358-1.665-3.429-1.534-5.283.01-.137.024-.276.04-.416C1593.719,1709.619,1595.127,1711.462,1596.771,1713.249Z" transform="translate(-1537.033 -1676.667)" opacity="0.2" fill="url(#ak)" style="mix-blend-mode:multiply;isolation:isolate"/><path d="M1186.229,1700.492a19.9,19.9,0,0,0-5.708-2.944c-1.967-.727-3.986-1.21-5.976-.251a6.079,6.079,0,0,0-1.216.754,6.924,6.924,0,0,1-1.227,1.052c-.787.375-1.9.116-2.748.288a7.759,7.759,0,0,0-4.944,3.334,4.489,4.489,0,0,1-.958,1.172,7.9,7.9,0,0,1-1.589.688,4.566,4.566,0,0,0-2.225,2.054,10.23,10.23,0,0,0-.935,2.839c-.244,1.146-.477,2.293-.715,3.44s-.5,2.281-.707,3.429a6.6,6.6,0,0,0,0,2.875,6.663,6.663,0,0,0,1.628,2.536,3.118,3.118,0,0,1,.776,1.272,3.246,3.246,0,0,1-.153,1.459,9.848,9.848,0,0,0-.052,5.757,5.941,5.941,0,0,0,3.528,3.655c.147.052.3.1.447.134a.86.86,0,0,0,.225.591,8.744,8.744,0,0,0,10.092,1.842,15.11,15.11,0,0,0,2.428-1.763,6.761,6.761,0,0,1,2.7-.8c1.992-.509,2.717-2.165,3.362-3.933a4.417,4.417,0,0,1,1.291-2.108c.792-.63,1.724-1.051,2.522-1.672a4.969,4.969,0,0,0,1.745-2.423,21.051,21.051,0,0,1,.72-2.681,12.327,12.327,0,0,1,2.013-2.353,10.184,10.184,0,0,0,1.465-2.376,9.767,9.767,0,0,0,.735-5.761,6.078,6.078,0,0,0-1.3-2.851,6.277,6.277,0,0,0-1.193-1.02,2.312,2.312,0,0,1-.963-.955,14.312,14.312,0,0,1-.4-1.529,6.582,6.582,0,0,0-.621-1.419A8.371,8.371,0,0,0,1186.229,1700.492Z" transform="translate(-1154.978 -1668.492)" fill="url(#al)"/><path d="M1161.864,1726.026a7.912,7.912,0,0,0,1.589-.688,4.492,4.492,0,0,0,.958-1.172,7.834,7.834,0,0,1,3.742-2.99l-.386.612a4.2,4.2,0,0,0-.456,1.167c-1.691,3.062-4.751,6.529-3.06,9.657.812,1.708,3.129,2.435,4.026,4.042,1.522,2.3.576,5.293,1.1,7.965.271,1.945-.084,4.228,2.149,5.056a17.9,17.9,0,0,0,11.5.17,5.908,5.908,0,0,0-.771,1.571c-.645,1.768-1.37,3.424-3.362,3.933a6.768,6.768,0,0,0-2.7.8,15.1,15.1,0,0,1-2.428,1.763,8.744,8.744,0,0,1-10.092-1.842.86.86,0,0,1-.225-.591c-.151-.038-.3-.082-.447-.134a5.94,5.94,0,0,1-3.528-3.655,9.849,9.849,0,0,1,.052-5.757,3.243,3.243,0,0,0,.153-1.458,3.116,3.116,0,0,0-.776-1.272,6.668,6.668,0,0,1-1.628-2.537,6.594,6.594,0,0,1,0-2.875c.21-1.147.47-2.287.707-3.429s.471-2.294.715-3.439a10.226,10.226,0,0,1,.935-2.839A4.563,4.563,0,0,1,1161.864,1726.026Z" transform="translate(-1154.978 -1689.934)" opacity="0.2" fill="url(#am)" style="mix-blend-mode:multiply;isolation:isolate"/><path d="M1377.6,1533.373a10.818,10.818,0,0,0-6.931,2.267,6.345,6.345,0,0,0-6.678-2.731c-3.437.79-5.467,3.55-6.528,6.682a11.122,11.122,0,0,0,1.278,19.847,7.31,7.31,0,0,0,.362,6.991,7.75,7.75,0,0,0,7.925,3.387,45.234,45.234,0,0,0,4.593-1.19,16,16,0,0,1,4.888-.263,10.751,10.751,0,0,0,8.753-3.94,10.54,10.54,0,0,0,2.082-8.277,8.541,8.541,0,0,0,4.666-4,9.923,9.923,0,0,0,.535-8.515C1390.357,1537.948,1383.639,1533.482,1377.6,1533.373Z" transform="translate(-1326.093 -1524.456)" fill="url(#an)"/><path d="M1355.236,1578.339c1.573,3.89,6.038,4.515,9.877,4.446,4.481-.221,6.326,4.582,9.895,6.7a1.688,1.688,0,0,0,2.148-.1c3.078-3.281,2.3-7.712,1.825-11.89-.339-1.657.964-2.807,2.6-3.332,1.471-.322,2.774.592,3.789,1.437a12.913,12.913,0,0,0,1.011-13.5,16.052,16.052,0,0,1,6.156,7.306,9.921,9.921,0,0,1-.535,8.515,8.539,8.539,0,0,1-4.666,4,10.539,10.539,0,0,1-2.082,8.277,10.752,10.752,0,0,1-8.753,3.94,15.994,15.994,0,0,0-4.888.263,45.3,45.3,0,0,1-4.593,1.19,7.749,7.749,0,0,1-7.925-3.387,7.31,7.31,0,0,1-.362-6.991,11.393,11.393,0,0,1-6.226-13.74,11.2,11.2,0,0,1,2.654-4.288A15.635,15.635,0,0,0,1355.236,1578.339Z" transform="translate(-1326.093 -1550.225)" opacity="0.2" fill="url(#ao)" style="mix-blend-mode:multiply;isolation:isolate"/><path d="M1527.112,1994.81c-2-1.67-14.741,3.96-14.288,8.939S1531.067,1998.1,1527.112,1994.81Z" transform="translate(-1467.353 -1929.982)" fill="url(#ap)"/></g><g transform="translate(421.058 546.301)"><g transform="translate(4.961 0)"><path d="M1099.676,1927.086c-6.465,6.5-13.523-2.227-13.736-2.441a15.244,15.244,0,0,1-3.475-7.34,6.876,6.876,0,0,1,1.243-4.947,1.236,1.236,0,0,1,.07-.114c.47-.74,3.372-4.719,9.589-1.757a19.6,19.6,0,0,1,7.161,5.544,10.921,10.921,0,0,1,1.059,1.7C1103.033,1920.619,1102.852,1923.895,1099.676,1927.086Z" transform="translate(-1082.413 -1909.406)" fill="#fff"/><path d="M1100.048,1984.054c-6.465,6.5-13.523-2.227-13.736-2.44a15.244,15.244,0,0,1-3.475-7.34c.912,1.363,3.2,3.65,8.157,3.233,6.293-.529,9.286-.136,10.965-2.81C1103.405,1977.587,1103.224,1980.863,1100.048,1984.054Z" transform="translate(-1082.785 -1966.374)" opacity="0.25" fill="url(#q)" style="mix-blend-mode:multiply;isolation:isolate"/></g><g transform="translate(19.817 7.326)"><path d="M1220.2,1985.232c-.247.174-8.672,7.584-13.951.092-3.114-4.421-1.951-8.235,1.022-11.041a19.618,19.618,0,0,1,7.992-4.259c6.626-1.871,8.817,2.54,9.156,3.348.035.08.051.124.051.124C1227.351,1979.333,1220.444,1985.058,1220.2,1985.232Z" transform="translate(-1204.404 -1969.565)" fill="#fff"/><path d="M1220.2,2012.678c-.247.173-8.672,7.584-13.951.092-3.114-4.421-1.951-8.235,1.022-11.041-1.6,8.557,5.931,11.866,12.18,9.065,4.663-2.088,5.084-7.3,4.969-9.977.035.08.051.124.051.124C1227.351,2006.78,1220.444,2012.5,1220.2,2012.678Z" transform="translate(-1204.404 -1997.012)" opacity="0.25" fill="url(#q)" style="mix-blend-mode:multiply;isolation:isolate"/></g><g transform="translate(0 11.732)"><path d="M1052.617,2022.426c-.3.02-9.271-.1-10.689-6.458a1.16,1.16,0,0,1-.038-.127,6.312,6.312,0,0,1-.184-2.312c.189-1.851,1.26-4.356,5.211-6.042a19.611,19.611,0,0,1,8.895-1.7c3.47.27,6.378,1.934,7.38,5.751a11.545,11.545,0,0,1,.345,2.2C1064.129,2022.887,1052.92,2022.406,1052.617,2022.426Z" transform="translate(-1041.672 -2005.747)" fill="#fff"/><path d="M1052.617,2064.2c-.3.02-9.271-.1-10.689-6.457a1.191,1.191,0,0,1-.038-.128,6.314,6.314,0,0,1-.184-2.312c1.535,2.1,4.858,5.164,11.294,5.458,9.9.454,10.192-7.448,10.192-7.448a11.543,11.543,0,0,1,.345,2.2C1064.129,2064.662,1052.92,2064.18,1052.617,2064.2Z" transform="translate(-1041.672 -2047.521)" opacity="0.25" fill="url(#q)" style="mix-blend-mode:multiply;isolation:isolate"/></g></g><g transform="translate(344.864 470.753)"><path d="M542.951,1296.8l-28.133-.208v-6.5a1.066,1.066,0,0,1,1.126-1.064l26,1.481a1.066,1.066,0,0,1,1.005,1.064Z" transform="translate(-502.784 -1289.032)" fill="url(#at)"/><path d="M545.6,1296.8l-28.134-1.6v-5.1a1.066,1.066,0,0,1,1.126-1.064l26,1.481a1.066,1.066,0,0,1,1.005,1.064Z" transform="translate(-505.107 -1289.032)" opacity="0.3" fill="url(#au)" style="mix-blend-mode:multiply;isolation:isolate"/><g transform="translate(27.428 12.846)"><path d="M668.692,1472.837l-27.46,1.526v-79.844l27.46,1.526Z" transform="translate(-641.232 -1394.519)" fill="url(#av)"/><g transform="translate(0 12.03)"><path d="M659.673,1493.587c-7.012,1.775,3.966,10.877-2.229,12.779-4.919,1.51-4.332-12.189-8.833-8.3-4.559,3.939,1.494,15.684,4.561,24.7,3.041,8.941,3.2,21.848-5.952,19.585a18.811,18.811,0,0,1-5.989-2.584v21.352l27.46-1.526v-62.966A8.841,8.841,0,0,0,659.673,1493.587Z" transform="translate(-641.232 -1493.307)" fill="url(#aw)"/></g></g><g transform="translate(0 5.855)"><path d="M416,1454.221v-50.572l27.442-8.713v58.442Z" transform="translate(-416.004 -1387.894)" fill="url(#ax)"/><path d="M443.447,1344.15,416,1352.863l12.427-15.755h0Z" transform="translate(-416.004 -1337.108)" fill="#fff"/><g transform="translate(0)" opacity="0.3" style="mix-blend-mode:multiply;isolation:isolate"><path d="M428.431,1337.108,416,1352.863l16.068-14.047Z" transform="translate(-416.004 -1337.108)" fill="#e6e6e6"/></g><path d="M416,1824.657v15.466l27.442,5.043v-21.327c-4.681-2.968-6.875-6.323-14.493-7.062C423.984,1816.294,419.28,1820.553,416,1824.657Z" transform="translate(-416.004 -1758.33)" opacity="0.3" fill="url(#ay)" style="mix-blend-mode:multiply;isolation:isolate"/><g transform="translate(2.789 14.978)"><path d="M442.857,1673.93v.028l4.213,1.612v2.234l-4.213,1.882v.028l6.882-.039v2.39l-10.835-.16v-2.343l6.125-2.794v-.028l-6.125-2.4v-2.4l10.835-.858v2.449Z" transform="translate(-438.904 -1645.387)" fill="url(#az)"/><path d="M449.739,1630.709,438.9,1631.8v-2.518l10.835-1.345Z" transform="translate(-438.904 -1607.495)" fill="url(#az)"/><path d="M438.9,1555.1l8.573-1.437v-4.483l2.262-.468v7.169l-10.835,1.575Z" transform="translate(-438.904 -1537.919)" fill="url(#az)"/><path d="M438.9,1469.132l4.39-1.073v-.028l-4.39-1.9v-2.653l4.933,2.2,5.9-5.571v2.924l-5.354,4.739v.028l5.354-1.309v2.523l-10.835,2.415Z" transform="translate(-438.904 -1460.101)" fill="url(#az)"/></g></g><path d="M518.049,1337.108l28.062,1.263,14.4,7.255-27.445-1.475Z" transform="translate(-505.622 -1331.253)" fill="url(#bd)"/><path d="M533.065,1344.15l-15.016-7.042,2.1,2.848Z" transform="translate(-505.622 -1331.253)" opacity="0.3" fill="url(#ay)" style="mix-blend-mode:multiply;isolation:isolate"/></g><g transform="translate(367.244 472.854)"><g transform="translate(39.013 73.847)"><path d="M922.646,1922.969h0l-.012-.055Z" transform="translate(-922.33 -1921.668)" fill="url(#bf)"/><path d="M922.571,1922.625l-.009-.04Z" transform="translate(-922.266 -1921.379)" fill="url(#bg)"/><path d="M935.782,1929.347c-.643-.643-1.241-1.42-4.849-1.67s-4.18-1.215-4.5-3.251-1.661-9.734-.857-11.235-5.123.791-5.123.791l.038.172c.347,1.586,2.138,9.739,2.621,11.093.536,1.5-1.5,1.5-2.679,2.144s1.462.321,2.767.536,1.626,1.715,1.626,1.715.321,3.644,1.929.75a6.345,6.345,0,0,0,.724-1.686,1.3,1.3,0,0,0,.562.614,11.3,11.3,0,0,0,5.787,1.5c1.536-.179,2.393-.786,0-1.25-.59-.114-1.054-.2-1.421-.266C933.938,1929.521,936.215,1929.78,935.782,1929.347Z" transform="translate(-920.135 -1912.682)" fill="url(#bh)"/><g opacity="0.3" style="mix-blend-mode:multiply;isolation:isolate"><path d="M922.646,1922.969h0l-.012-.055Z" transform="translate(-922.33 -1921.668)" fill="url(#bf)"/><path d="M922.571,1922.625l-.009-.04Z" transform="translate(-922.266 -1921.379)" fill="url(#bg)"/><path d="M935.782,1929.347c-.643-.643-1.241-1.42-4.849-1.67s-4.18-1.215-4.5-3.251-1.661-9.734-.857-11.235-5.123.791-5.123.791l.038.172c.347,1.586,2.138,9.739,2.621,11.093.536,1.5-1.5,1.5-2.679,2.144s1.462.321,2.767.536,1.626,1.715,1.626,1.715.321,3.644,1.929.75a6.345,6.345,0,0,0,.724-1.686,1.3,1.3,0,0,0,.562.614,11.3,11.3,0,0,0,5.787,1.5c1.536-.179,2.393-.786,0-1.25-.59-.114-1.054-.2-1.421-.266C933.938,1929.521,936.215,1929.78,935.782,1929.347Z" transform="translate(-920.135 -1912.682)" fill="url(#bh)"/></g></g><path d="M858.357,1805.5s4.5,11.145,11.558,9.028,1.337-10.8,3.586-16.111S857.732,1801.766,858.357,1805.5Z" transform="translate(-826.853 -1737.012)" fill="url(#bl)"/><g transform="translate(32.583 74.704)"><path d="M869.845,1930.009h0l-.012-.055Z" transform="translate(-869.529 -1928.708)" fill="url(#bm)"/><path d="M869.77,1929.665l-.009-.04Z" transform="translate(-869.465 -1928.419)" fill="url(#bn)"/><path d="M882.981,1936.387c-.643-.643-1.241-1.42-4.849-1.67s-4.179-1.214-4.5-3.251-1.661-9.734-.857-11.235-5.123.791-5.123.791l.038.172c.347,1.586,2.138,9.74,2.621,11.093.536,1.5-1.5,1.5-2.679,2.143s1.462.322,2.767.536,1.626,1.715,1.626,1.715.321,3.644,1.929.75a6.349,6.349,0,0,0,.724-1.686,1.3,1.3,0,0,0,.562.615,11.3,11.3,0,0,0,5.787,1.5c1.536-.179,2.393-.786,0-1.25-.59-.115-1.054-.2-1.42-.266C881.138,1936.561,883.414,1936.82,882.981,1936.387Z" transform="translate(-867.334 -1919.722)" fill="url(#bh)"/></g><path d="M823.9,1814.281s-.643,12,6.644,13.074,5.787-9.216,10.074-13.074S824.912,1810.633,823.9,1814.281Z" transform="translate(-796.59 -1749.945)" fill="url(#bp)"/><g transform="translate(0)"><path d="M1166.489,1407.475s1.6,4.583-.8,4.8-3.858-.643-4.215-.214S1165.357,1406.108,1166.489,1407.475Z" transform="translate(-1093.055 -1394.983)" fill="url(#bq)"/><path d="M1141.047,1315.857s.75-3.8-.59-5.573-2.2-2.3-2.572-1.768-3.483-3.215-3.751-1.982-2.469,1.476-1.929,3.376-1.232,2.84.75,3S1140.839,1318.107,1141.047,1315.857Z" transform="translate(-1067.177 -1306.283)" fill="url(#br)"/><path d="M1193.361,1383.724a4.238,4.238,0,0,1,3.251,2.965s.286,1.322-.607,1a7.581,7.581,0,0,0-3.358-.393C1191.968,1387.511,1191.79,1383.974,1193.361,1383.724Z" transform="translate(-1120.01 -1374.293)" fill="url(#bs)"/><path d="M673.379,1354.034c-1.715-1.715-6.216-2.358-6.216-2.358-11.681-1.5-21,15.861-23.255,20.9s-12.86.75-18.969,0-8.038-6.859-13.61-17.682c-3.353-6.513-4.223,2.028-4.384,9.865-.358-2.569-1.105-4.641-2.582-4.721-2.323-.125-1.777,6.846-1.207,11.049-1.265-6.166-2.152-2.4-2.152-2.4-3.572,8.43,1.572,15.575,3.715,22.148s.143,12.146,10.574,19,21.862,4.858,37.58,3,18.79-32.543,15.361-40.045.643-9.859,2.572-11.146S675.094,1355.749,673.379,1354.034Z" transform="translate(-599.777 -1346.068)" fill="url(#bt)"/><path d="M746.388,1567.174c-1.912-3.153-7.287,2.286-11.145,4.416s-8.145-1.987-13.5-3.559c-2.862-.84-3.135,1.053-2.638,3.226-1.579-.455-3.387-.532-4.221.917-.694,1.208.13,2.924,1.248,4.333-1.082.361-1.992,1.949-1.891,5.813.214,8.216,19.862,11.86,32.15,7.144S746.388,1567.174,746.388,1567.174Z" transform="translate(-700.292 -1534.56)" fill="url(#bu)"/></g><path d="M953.775,1365.619s-7.164,7.795-4.91,8.3,4.771-1.03,4.91,0,.794,6.53,4.722,5,4.5-1.7,4.5-1.7,2.182,5.631,5.718,4.06,3.623-2.226,3.623-2.226,3.012,3.754,3.711,1.833a8.819,8.819,0,0,0-.632-6.329c-.862-1.619-2.633-6.114-2.289-7.69s1.352-4.114,3.511-5.131,3.308-4.463,3.411-5.156a2.818,2.818,0,0,0-1.941-3.675c-2.753-.967-8.565-4.054-16.641,3.168C961.466,1356.072,954.859,1363.229,953.775,1365.619Z" transform="translate(-905.969 -1345.921)" fill="url(#bv)"/></g><g transform="translate(490.378 513.323)"><path d="M1635.169,1732.014c-3.986-.306-3.777-1.263-7.734-1.423-2.465-.1-7.716-.313-11.483,2.467-5.923,4.372-5.1,13.874-4.887,16.371.675,7.817,5.164,16.956,13.049,20.356,3.671,1.583,7.681,1.751,11.2,1.9,3.594.15,6.624.277,9.68-.664,10.564-3.253,14.028-16.978,14.188-17.652.447-1.879,3.06-12.867-3.227-19.028a14.061,14.061,0,0,0-5.931-3.369C1644.7,1729.528,1642.421,1732.571,1635.169,1732.014Z" transform="translate(-1610.902 -1719.344)" fill="url(#bw)"/><g transform="translate(0 11.197)" opacity="0.3" style="mix-blend-mode:multiply;isolation:isolate"><path d="M1632.844,1767.934c-.911-2.4-.416-4.62-2.182-6.074-1.926-1.585-4.083-.245-6.643-.807-6.129-1.344-12.109-13.041-8.114-20.688,2.425-4.642,7.724-6.258,8.4-6.453,6.435-1.865,11.208,1.864,13.761-.617a3.443,3.443,0,0,0,.827-1.305,21.469,21.469,0,0,1-3.721.024c-3.986-.306-3.777-1.263-7.734-1.423-2.465-.1-7.716-.313-11.483,2.467-5.923,4.372-5.1,13.874-4.887,16.371.675,7.817,5.164,16.956,13.049,20.356,3.671,1.583,7.681,1.751,11.2,1.9l.319.013A9.079,9.079,0,0,1,1632.844,1767.934Z" transform="translate(-1610.902 -1730.541)" fill="url(#bx)"/></g><path d="M1809.78,1652.645c-1.9-.807-1.945-3.937-1.945-4.081a7.294,7.294,0,0,1,2.752-5.409c1.624-1.308,3.152-1.313,3.938-2.99.356-.759.417-1.556.712-1.566.341-.012.623,1.044.854,1.85,1.4,4.9,2.144,4.756,1.946,6.169-.336,2.386-2.6,3.848-3.986,4.745C1812.693,1652.241,1811.162,1653.231,1809.78,1652.645Z" transform="translate(-1783.853 -1638.599)" fill="url(#by)"/><path d="M1829.939,1640.509c-.219-.762-.482-1.746-.8-1.842a3.437,3.437,0,0,1-.056,2.317c-.477,1.122-1.365,1.106-2.04,2.562-.635,1.368-.088,1.892-.759,3.226-.6,1.2-1.307,1.3-1.946,2.183a4.964,4.964,0,0,0-.649,3.773c1.365.531,2.87-.441,4.208-1.306,1.389-.9,3.65-2.359,3.986-4.745C1832.083,1645.265,1831.343,1645.406,1829.939,1640.509Z" transform="translate(-1797.701 -1638.659)" opacity="0.2" fill="url(#by)" style="mix-blend-mode:multiply;isolation:isolate"/><path d="M1773.358,1692.617a.566.566,0,0,0,.38-.142c.927-.885-2.484-5.127-3.606-7.64a1.882,1.882,0,0,0-.522-.712,2.526,2.526,0,0,0-1.8-.427c-.519.033-1.261.08-1.376.427-.127.385.6.892,2.135,2.135,1.43,1.156,2.146,1.735,2.325,1.945C1772.563,1690.167,1772.473,1692.6,1773.358,1692.617Z" transform="translate(-1747.478 -1678.192)" fill="url(#ca)"/><path d="M1768.2,1684.219c.8.053,1.205.423,1.329.285.055-.062.041-.212-.167-.557a2.8,2.8,0,0,0-1.542-.25c-.519.033-1.261.08-1.376.427a.269.269,0,0,0-.012.06.817.817,0,0,0,.2.13C1767.072,1684.51,1767.372,1684.165,1768.2,1684.219Z" transform="translate(-1747.492 -1678.193)" opacity="0.3" fill="url(#ca)" style="mix-blend-mode:multiply;isolation:isolate"/><path d="M1834.331,1744.989s7.829-4.318,13.428-1.566,7.308,7.877,6.5,16.513-5.837,20.546-18.411,21.495c0,0,3.8-8.683,3.606-17.652S1838.032,1746.6,1834.331,1744.989Z" transform="translate(-1807.122 -1729.852)" fill="url(#cc)"/><path d="M1885.764,1870.836c.79-2.294,1.716-4.417,2.467-4.318.424.056.689.806.712,1.329C1889,1869.082,1887.76,1870.4,1885.764,1870.836Z" transform="translate(-1852.291 -1838.759)" fill="url(#cd)"/><g transform="translate(27.209 13.974)" opacity="0.5" style="mix-blend-mode:multiply;isolation:isolate"><path d="M1845.387,1768.368c1.024-2.467,2.993-2.787,3.511-5.694.379-2.126-.093-5.211-2.088-6.738-2.161-1.655-4.263-.065-7.877-1.519a10.326,10.326,0,0,1-1.988-1.068,21.77,21.77,0,0,0-2.615,1.163c3.7,1.613,4.935,9.822,5.125,18.79s-3.606,17.652-3.606,17.652a17.464,17.464,0,0,0,11.609-5.414,7.431,7.431,0,0,0,1.061-3.7C1848.536,1777.109,1843.421,1773.107,1845.387,1768.368Z" transform="translate(-1834.331 -1753.35)" fill="url(#ce)"/></g><g transform="translate(27.209 12.654)"><g clip-path="url(#cf)"><g transform="translate(-0.854 6.18)"><path d="M1827.317,1823.576a50.238,50.238,0,0,1,10.914-14.8c1.9-1.744,3.071-2.521,5.647-4.84a85.678,85.678,0,0,0,9.639-10.218,1.229,1.229,0,0,1,1.979.078,18.348,18.348,0,0,1,3.225,11.122c-.189,3.7-1.643,7.959-5.59,12.4C1841.07,1830.88,1827.317,1823.576,1827.317,1823.576Z" transform="translate(-1827.317 -1793.25)" fill="url(#cg)"/><path d="M1855.5,1793.794a1.227,1.227,0,0,0-1.407-.478c.971,5.852,1.855,18.829-7.506,25.85a23.458,23.458,0,0,1-19.255,4.393l-.01.02s13.753,7.3,25.813-6.264c3.947-4.441,5.4-8.7,5.59-12.4A18.348,18.348,0,0,0,1855.5,1793.794Z" transform="translate(-1827.317 -1793.253)" fill="url(#ch)"/><path d="M1924.925,1912.84c-.315-.636,2.222-3.334,3.986-2.657.458.176,1.051.651,1,1.139C1929.766,1912.592,1925.282,1913.559,1924.925,1912.84Z" transform="translate(-1913.015 -1895.848)" fill="url(#ci)"/></g></g></g></g></g></g></g></svg>