<svg xmlns="http://www.w3.org/2000/svg" xmlns:xlink="http://www.w3.org/1999/xlink" width="250" height="272" viewBox="0 0 250 272"><defs><clipPath id="a"><path d="M938.661,510.049q2.959-3.979,5.6-8.293a108.825,108.825,0,0,0-92.468-165.545l-53.728,87.931Z" transform="translate(-798.066 -336.211)" fill="none"/></clipPath></defs><g transform="translate(5786 9054)"><g transform="translate(430 -89)"><path d="M10,0H240a10,10,0,0,1,10,10V272a0,0,0,0,1,0,0H0a0,0,0,0,1,0,0V10A10,10,0,0,1,10,0Z" transform="translate(-6216 -8965)" fill="#f2e6dc"/><g transform="translate(-6534.966 -9270)"><ellipse cx="108.539" cy="108.627" rx="108.539" ry="108.627" transform="translate(335.565 335)" fill="#f2e6dc"/><g transform="translate(390.516 335.144)"><circle cx="15.561" cy="15.561" r="15.561" transform="translate(98.396 55.241) rotate(-45)" fill="#efbc73"/><g transform="translate(0 0)"><g clip-path="url(#a)"><path d="M1253.306,485.344a.119.119,0,0,1-.107-.17l37.545-77.665L1270.037,441.4a.119.119,0,0,1-.2-.124l21.052-34.453-30.21,37.084a.119.119,0,0,1-.184-.15l30.076-36.919-50.551,48.685a.119.119,0,1,1-.165-.171l50.87-48.993-3.334,2.336a.12.12,0,0,1-.053.021l-64.872,45.219a.119.119,0,0,1-.165-.029.119.119,0,0,1,.029-.165L1291.2,405.73l-7.475,2.356a.116.116,0,0,1-.057,0l-36.477,11.433a.119.119,0,0,1-.149-.078.115.115,0,0,1-.005-.035.119.119,0,0,1,.083-.114l43.661-13.685-56.9,5.5a.119.119,0,0,1-.13-.107.09.09,0,0,1,0-.011.119.119,0,0,1,.107-.118l55.889-5.4a.118.118,0,0,1-.05-.1.12.12,0,0,1,.008-.043l-64.42-4.968a.119.119,0,0,1-.11-.118s0-.006,0-.009a.119.119,0,0,1,.128-.109l65.159,5.025-67.414-16.471a.119.119,0,0,1-.091-.115.125.125,0,0,1,0-.028.119.119,0,0,1,.144-.087l62.922,15.373-2.484-.711a.119.119,0,0,1-.086-.114.116.116,0,0,1,0-.033.118.118,0,0,1,.147-.082l1.2.345a.119.119,0,0,1,.148-.078l2.072.629-7.444-2.641a.119.119,0,1,1,.079-.224l11.433,4.056L1221.9,357.225a.119.119,0,1,1,.135-.2l35.971,24.821a.119.119,0,0,1,.09.019l32.444,22.429-27.164-24.882a.119.119,0,0,1-.038-.087.117.117,0,0,1,.031-.08.119.119,0,0,1,.168-.007l26.911,24.651-44.865-51.674a.119.119,0,0,1,.179-.156l44.729,51.517-1.9-2.711a.119.119,0,0,1,.195-.136l1.529,2.182-26.688-45.53a.119.119,0,1,1,.2-.12l27.639,47.152L1289.2,397.2a.112.112,0,0,1-.005-.036.119.119,0,0,1,.083-.113.146.146,0,0,1,.038-.005l-9.953-33.672a.113.113,0,0,1-.005-.034.119.119,0,0,1,.233-.034l12.075,40.851-3.267-33.795s0-.008,0-.011a.119.119,0,0,1,.237-.011l3.179,32.88a.119.119,0,0,1,.1-.05c.016,0,.03,0,.043.008l2.164-28.058a.119.119,0,0,1,.237.009s0,.006,0,.009l-2.231,28.935,6.558-24.989a.119.119,0,0,1,.234.03.131.131,0,0,1,0,.03l-4.67,17.793a.118.118,0,0,1,.079,0,.119.119,0,0,1,.081.147l-.345,1.2a.119.119,0,0,1,.083.113.118.118,0,0,1-.005.035l-.629,2.073,2.641-7.444a.119.119,0,0,1,.231.04.115.115,0,0,1-.007.039l-3.569,10.062,9.677-20.46a.119.119,0,0,1,.226.051.117.117,0,0,1-.011.051l-10.061,21.272,12.7-18.377a.119.119,0,1,1,.2.135l-12.544,18.145,14.515-15.846a.119.119,0,1,1,.175.16L1292.9,404.472l17.21-13.161a.119.119,0,0,1,.144.189l-13.811,10.562a.119.119,0,0,1,.113.207l-3.247,2.275,20.12-10.114a.119.119,0,0,1,.16.053.12.12,0,0,1,.013.053.118.118,0,0,1-.066.106l-20.257,10.183,6.807-2.146a.119.119,0,0,1,.149.078.123.123,0,0,1,.005.036.119.119,0,0,1-.083.113l-5.441,1.715,21.488-4.889a.119.119,0,1,1,.053.232l-23.246,5.289,26.7-.257h0a.119.119,0,0,1,.119.118v0a.119.119,0,0,1-.118.118l-25.636.247a.118.118,0,0,1-.077.028h0l-.734,0,31.426,5.656a.119.119,0,0,1,.1.117.122.122,0,0,1,0,.021.119.119,0,0,1-.138.1l-30.44-5.478,6.064,1.735a.119.119,0,0,1,.086.114.115.115,0,0,1,0,.033.119.119,0,0,1-.147.081l-1.2-.345a.119.119,0,0,1-.148.078l-2.071-.628,7.443,2.64a.119.119,0,0,1-.079.224l-4.269-1.514,30.9,11.942a.119.119,0,0,1-.086.222L1292.8,405.856l22.014,15.19a.118.118,0,0,1,.045.06l16.747,11.577a.119.119,0,0,1-.135.2l-38.206-26.412,27.164,24.882a.119.119,0,0,1,.038.087.119.119,0,0,1-.2.088l-27.314-25.02,34.239,42.835a.119.119,0,0,1-.186.148l-32.847-41.095,1.054,1.505a.119.119,0,0,1-.195.136l-2.33-3.326,13.948,28.383a.119.119,0,0,1-.213.1l-13.934-28.356,2.119,6.722a.11.11,0,0,1,.005.036.119.119,0,0,1-.232.035l-1.834-5.82,9.043,42.259a.108.108,0,0,1,0,.025.119.119,0,0,1-.235.025l-9.134-42.687,5.411,55.972s0,.008,0,.011a.119.119,0,0,1-.237.012l-5.4-55.888a.122.122,0,0,1-.1.05.119.119,0,0,1-.043-.008L1286.884,472a.119.119,0,0,1-.237-.009s0-.006,0-.009l5.047-65.442-2.061,7.2a.12.12,0,0,1-.071.078l-16.6,56.853a.119.119,0,0,1-.233-.033.115.115,0,0,1,0-.033l16.976-58.153a.119.119,0,0,1-.047-.095.122.122,0,0,1,.005-.035l.629-2.072-2.64,7.443a.119.119,0,0,1-.231-.04.117.117,0,0,1,.007-.039l3.63-10.234-37.653,77.889A.119.119,0,0,1,1253.306,485.344Z" transform="translate(-1171.5 -350.142)" fill="#efbc73"/></g></g></g><g transform="translate(335.624 424.225)"><path d="M351.48,1168.366H336.061v-70.391l7.709-12,7.709,12Z" transform="translate(-336.061 -1085.971)" fill="#f7f1eb"/><path d="M538.2,1168.366H522.777v-70.391l7.709-12,7.709,12Z" transform="translate(-500.593 -1085.971)" fill="#f7f1eb"/><path d="M724.911,1168.366H709.493v-70.391l7.709-12,7.709,12Z" transform="translate(-665.124 -1085.971)" fill="#f7f1eb"/><path d="M911.627,1168.366H896.209v-70.391l7.709-12,7.709,12Z" transform="translate(-829.656 -1085.971)" fill="#f7f1eb"/><path d="M1098.343,1168.366h-15.419v-70.391l7.709-12,7.709,12Z" transform="translate(-994.188 -1085.971)" fill="#f7f1eb"/><rect width="209.589" height="6.453" transform="translate(6.858 24.909)" fill="#f7f1eb"/><rect width="213.263" height="6.453" transform="translate(3.184 63.92)" fill="#f7f1eb"/><path d="M1303.219,1175.161H1287.8v-70.391l7.709-12,7.709,12Z" transform="translate(-1174.722 -1091.959)" fill="#f7f1eb"/><path d="M1489.935,1175.161h-15.419v-70.391l7.709-12,7.709,12Z" transform="translate(-1339.253 -1091.959)" fill="#f7f1eb"/><path d="M1676.651,1175.161h-15.419v-70.391l7.709-12,7.709,12Z" transform="translate(-1503.785 -1091.959)" fill="#f7f1eb"/><path d="M1863.367,1175.161h-15.419v-70.391l7.709-12,7.709,12Z" transform="translate(-1668.316 -1091.959)" fill="#f7f1eb"/><path d="M2050.083,1175.161h-15.419v-70.391l7.709-12,7.709,12Z" transform="translate(-1832.848 -1091.959)" fill="#f7f1eb"/></g><g transform="translate(352.961 475.103)"><path d="M564.083,1647.02c-31.033,0-59.563,4.951-82.1,13.237,19.651,28.263,52.188,48.306,89.22,48.306,34.975,0,67.836-17.527,87.74-43.171C635.067,1654.361,600.514,1647.02,564.083,1647.02Z" transform="translate(-481.986 -1631.238)" fill="#40484c"/><g transform="translate(22.956)"><g transform="translate(6.977)"><g transform="translate(37.921)"><path d="M1162.448,1555.208s6.743.1,11.289-3.984,5.173-10.8,5.173-10.8-6.743-.1-11.289,3.984S1162.448,1555.208,1162.448,1555.208Z" transform="translate(-1149.454 -1537.31)" fill="#9e9569"/><path d="M1066.08,1532.153s.826-6.693-2.74-11.654-10.173-6.311-10.173-6.311-.826,6.693,2.74,11.654S1066.08,1532.153,1066.08,1532.153Z" transform="translate(-1053.085 -1514.189)" fill="#8b865c"/><path d="M1155.32,1683.624a.119.119,0,0,1-.1-.185c2.7-4.048,2.1-6.523,1.273-8.227-.3-.621-.664-1.224-1.015-1.808a10.789,10.789,0,0,1-1.925-5.037,10.975,10.975,0,0,1,1-4.769.119.119,0,0,1,.218.1,10.732,10.732,0,0,0-.982,4.659,10.6,10.6,0,0,0,1.891,4.929c.354.588.72,1.2,1.025,1.827.853,1.761,1.476,4.314-1.289,8.463A.119.119,0,0,1,1155.32,1683.624Z" transform="translate(-1141.605 -1645.783)" fill="#f2e6dc"/></g><g transform="translate(75.841)"><path d="M1481.609,1555.208s6.743.1,11.289-3.984,5.173-10.8,5.173-10.8-6.743-.1-11.289,3.984S1481.609,1555.208,1481.609,1555.208Z" transform="translate(-1468.615 -1537.31)" fill="#9e9569"/><path d="M1385.242,1532.153s.826-6.693-2.74-11.654-10.173-6.311-10.173-6.311-.826,6.693,2.74,11.654S1385.242,1532.153,1385.242,1532.153Z" transform="translate(-1372.247 -1514.189)" fill="#8b865c"/><path d="M1474.482,1683.624a.119.119,0,0,1-.1-.185c2.7-4.048,2.1-6.523,1.273-8.227-.3-.621-.664-1.224-1.015-1.808a10.787,10.787,0,0,1-1.925-5.037,10.968,10.968,0,0,1,1-4.769.119.119,0,0,1,.218.1,10.727,10.727,0,0,0-.982,4.659,10.6,10.6,0,0,0,1.891,4.93c.354.588.72,1.2,1.025,1.827.853,1.761,1.476,4.314-1.289,8.463A.119.119,0,0,1,1474.482,1683.624Z" transform="translate(-1460.767 -1645.783)" fill="#f2e6dc"/></g><path d="M843.286,1555.208s6.743.1,11.289-3.984,5.173-10.8,5.173-10.8-6.743-.1-11.289,3.984S843.286,1555.208,843.286,1555.208Z" transform="translate(-830.292 -1537.31)" fill="#9e9569"/><path d="M746.919,1532.153s.826-6.693-2.74-11.654-10.173-6.311-10.173-6.311-.826,6.693,2.74,11.654S746.919,1532.153,746.919,1532.153Z" transform="translate(-733.924 -1514.189)" fill="#8b865c"/><path d="M836.159,1683.624a.119.119,0,0,1-.1-.185c2.7-4.048,2.1-6.523,1.273-8.227-.3-.621-.664-1.224-1.015-1.808a10.786,10.786,0,0,1-1.925-5.037,10.967,10.967,0,0,1,1-4.769.119.119,0,0,1,.218.1,10.729,10.729,0,0,0-.982,4.659,10.6,10.6,0,0,0,1.892,4.93c.354.588.72,1.2,1.025,1.827.853,1.761,1.476,4.314-1.289,8.463A.119.119,0,0,1,836.159,1683.624Z" transform="translate(-822.444 -1645.783)" fill="#f2e6dc"/></g><path d="M788.881,1727.925c0-.1.015-.2.015-.3a7.065,7.065,0,0,0-2.088-5.023,5.755,5.755,0,0,0-7.15-8.713,6.789,6.789,0,0,0-12.9.184,5.315,5.315,0,0,0-4.741,5.283c0,.151.01.3.023.448a7.067,7.067,0,0,0-8.75-3.224,7.962,7.962,0,0,0-14.669.542,7.806,7.806,0,0,0-11.814,1.917,6.78,6.78,0,0,0-11.684-3.723,7.951,7.951,0,0,0-9.253-2.463,7.821,7.821,0,0,0-15.2-1.765,6.6,6.6,0,0,0-6.545,7.591,7.228,7.228,0,0,0-8.586,9.241Z" transform="translate(-675.2 -1683.013)" fill="#2d353a"/></g></g><g transform="translate(350.708 356.805)"><path d="M468.48,547.448c6.138,4.621,15.05,11.178,21.565,15.328,10.853,6.913,20.245,12.12,25.582,16.333a5.632,5.632,0,0,0,6.164-.6,5.37,5.37,0,0,0,1.712-3.485,4.8,4.8,0,0,0,6.328-.787,4.584,4.584,0,0,0,.392-4.636,5.714,5.714,0,0,0,5.081-.879,5.464,5.464,0,0,0,1.732-5.791,5.4,5.4,0,0,0,4.681-2.656c2.339-4.7-10.734-14.461-16.737-19.208-1.6-1.268-21.448-15.758-30.437-22.317A109.384,109.384,0,0,0,468.48,547.448Z" transform="translate(-467.831 -518.724)" fill="#bc8271"/><path d="M513.538,580.3a7.1,7.1,0,0,1-2.914-.634.11.11,0,0,1-.022-.013c-3.709-2.77-9.348-6-15.878-9.733-3.566-2.04-7.607-4.353-11.771-6.843-6.108-3.653-14.186-9.194-19.887-13.2a.119.119,0,0,1,.137-.194c5.7,4,13.77,9.54,19.872,13.189,4.161,2.489,8.2,4.8,11.766,6.841,6.53,3.737,12.171,6.964,15.891,9.741a6.3,6.3,0,0,0,6.605-.719,5.6,5.6,0,0,0,1.888-3.585.119.119,0,0,1,.179-.088,5.347,5.347,0,0,0,6.772-.9,4.494,4.494,0,0,0,.492-4.716.119.119,0,0,1,.142-.163,6.475,6.475,0,0,0,5.458-.984,5.53,5.53,0,0,0,1.95-5.939.119.119,0,0,1,.106-.152,6.078,6.078,0,0,0,5.062-2.786c1.033-1.937-.55-4.957-4.706-8.976a123.4,123.4,0,0,0-11.733-9.507c-.524-.389-1.019-.757-1.476-1.1-1.589-1.189-19.776-13.727-30.475-21.1a.119.119,0,0,1,.135-.2c10.7,7.369,28.89,19.909,30.483,21.1.457.342.951.709,1.476,1.1,7.108,5.275,19,14.1,16.506,18.785a6.263,6.263,0,0,1-5.11,2.9,5.767,5.767,0,0,1-2.072,6.053,6.657,6.657,0,0,1-5.435,1.084,4.7,4.7,0,0,1-.619,4.74,5.573,5.573,0,0,1-6.923,1.045,5.815,5.815,0,0,1-1.948,3.563A6.124,6.124,0,0,1,513.538,580.3Z" transform="translate(-463.017 -518.523)" fill="#fff"/><path d="M815.808,805.413c-1.262,1.475-6.32-10.026-3.612-11.711,3.032-1.887,9.938,6.655,9.938,6.655S814.357,790.171,817.32,788c3.249-2.383,11.088,6.592,11.088,6.592s-9.665-10.822-6.7-13.492c3.281-2.956,13.577,7.1,13.577,7.1s-10.416-9.18-7.854-12.322c2.083-2.555,10.67,1.533,12.989,7.169Z" transform="translate(-770.017 -744.616)" fill="#bc8271"/><path d="M812.466,803.049a.118.118,0,0,1-.088-.039c-1.544-1.72-4.1-7-3.672-9.988a2.322,2.322,0,0,1,1-1.755c2.2-1.367,6.241,2.424,8.488,4.846-1.738-2.552-4.406-6.929-4.064-9.306a1.779,1.779,0,0,1,.692-1.239c2.205-1.618,6.343,1.715,8.941,4.213-2.685-3.4-6.693-9.189-4.565-11.106,2.094-1.887,6.83,1.256,10.156,3.945-2.805-2.981-6.062-7.168-4.446-9.151,2.085-2.557,6.943.263,9.486,2.333a.119.119,0,0,1-.15.184c-2.474-2.014-7.186-4.778-9.152-2.367-1.913,2.346,3.819,8.332,6.518,10.928.751.675,1.24,1.15,1.327,1.235a.119.119,0,0,1-.162.174c-.089-.079-.6-.528-1.319-1.219-2.868-2.564-9.625-8.114-12.1-5.885-2.7,2.435,5.717,12.191,6.632,13.235l.08.091a.119.119,0,0,1-.178.157l-.07-.079c-.782-.874-7.893-8.67-10.859-6.5a1.55,1.55,0,0,0-.6,1.081c-.478,3.32,5.376,11.032,5.435,11.11a.119.119,0,0,1-.187.147c-.068-.085-6.874-8.439-9.783-6.629a2.1,2.1,0,0,0-.893,1.586c-.409,2.878,2.134,8.148,3.613,9.8a.119.119,0,0,1-.088.2Z" transform="translate(-767.592 -742.282)" fill="#363e44"/><path d="M957.493,784.286c.389,1-.962,2.9-2.266,2.7a2.322,2.322,0,0,1-1.428-3.068C954.482,782.89,957.07,783.2,957.493,784.286Z" transform="translate(-895.311 -751.832)" fill="#fff" opacity="0.5"/><path d="M905.279,831.913c.3,1.029-1.2,2.81-2.484,2.506a2.322,2.322,0,0,1-1.167-3.176C902.4,830.269,904.949,830.8,905.279,831.913Z" transform="translate(-849.277 -793.638)" fill="#fff" opacity="0.5"/><path d="M868.958,892.5c.208,1.052-1.455,2.688-2.7,2.267a2.322,2.322,0,0,1-.87-3.27C866.238,890.6,868.732,891.355,868.958,892.5Z" transform="translate(-817.257 -846.832)" fill="#fff" opacity="0.5"/><path d="M822.9,943.285a2.2,2.2,0,0,1-2.8,1.618,2.13,2.13,0,0,1-.266-3.093C820.744,941.134,822.877,942.216,822.9,943.285Z" transform="translate(-776.956 -891.333)" fill="#fff" opacity="0.5"/><g transform="translate(1.178 26.678)"><rect width="66.724" height="82.103" transform="translate(81.654 0) rotate(84.006)" fill="#d87355"/><rect width="64.229" height="82.103" transform="matrix(0.104, 0.995, -0.995, 0.104, 82.448, 7.822)" fill="#efbc73"/><circle cx="23.833" cy="23.833" r="23.833" transform="translate(6.659 44.114) rotate(-45)" fill="#fff"/><g transform="translate(16.155 31.796)"><path d="M723.345,1027.709c-8.906-.667-13.657-6.931-12.634-11.242s8.122-7.872,16.338-4.37c8.178,3.486,15.13,11.834,15.13,11.834S732.868,1028.422,723.345,1027.709Z" transform="translate(-698.494 -1010.677)" fill="#8b865c"/><path d="M645.291,1042.415a.119.119,0,0,1-.028,0l-36.265-8.6a.119.119,0,0,1,.055-.231l36.265,8.6a.119.119,0,0,1-.027.234Z" transform="translate(-608.907 -1030.854)" fill="#f2e6dc"/></g><g transform="translate(15.461 35.119)"><path d="M656.488,1107.278c-5.969-4.555-6.443-11.148-3.745-13.716s9.333-1.821,13.516,4.415c4.163,6.207,5.233,15.278,5.233,15.278S662.871,1112.149,656.488,1107.278Z" transform="translate(-645.453 -1085.816)" fill="#9e9569"/><path d="M624.79,1061.573a.119.119,0,0,1-.086-.037l-21.606-22.7a.119.119,0,0,1,.172-.164l21.606,22.7a.119.119,0,0,1-.086.2Z" transform="translate(-603.065 -1038.64)" fill="#f2e6dc"/></g><rect width="46.402" height="7.472" transform="translate(75.085 17.296) rotate(84.006)" fill="#ffd092"/></g><g transform="translate(30.435 16.616)"><path d="M758.79,692.439c7.835,5.023,12.562,5.257,13.43,3.231,1.373-3.2-2.586-9.679-14.216-17.913.308,2.767-21.1-1.2-19.63,1.849C743.8,690.866,748.915,687.982,758.79,692.439Z" transform="translate(-736.028 -675.454)" fill="#bc8271"/><path d="M760.9,701.383a.119.119,0,0,1-.051-.011c-.5-.237-1.1-.583-1.8-.983a35.6,35.6,0,0,0-5.1-2.532c-2.506-.941-4.214-1.45-5.587-1.859a24.539,24.539,0,0,1-3.538-1.246c-3.657-1.7-6.742-4.978-9.169-9.731a.119.119,0,0,1,.212-.108c2.4,4.7,5.45,7.942,9.058,9.624a24,24,0,0,0,3.505,1.234c1.376.41,3.089.92,5.6,1.864a35.77,35.77,0,0,1,5.134,2.549c.7.4,1.3.742,1.789.975a.119.119,0,0,1-.051.226Z" transform="translate(-733.681 -681.701)" fill="#363e44"/><path d="M752.927,680.369c-3.923,0-9.589-2.536-14.76-4.85a70.233,70.233,0,0,0-7.12-2.915,13.159,13.159,0,0,1-3.732-1.812,20.8,20.8,0,0,1-8.134-10.94.119.119,0,0,1,.224-.078,20.578,20.578,0,0,0,8.046,10.824,12.918,12.918,0,0,0,3.665,1.779,70.376,70.376,0,0,1,7.148,2.926c6.742,3.018,15.13,6.772,18.123,3.612,1.448-3.461.3-7.066-3.508-11.022-3.308-3.437-8.011-6.529-12.16-9.257l-.072-.047a.119.119,0,0,1,.131-.2l.072.047c4.16,2.735,8.875,5.835,12.2,9.291,3.888,4.039,5.049,7.735,3.547,11.3a.121.121,0,0,1-.023.035A4.774,4.774,0,0,1,752.927,680.369Zm3.562-1.39h0Z" transform="translate(-719.175 -658.369)" fill="#fff"/></g><g transform="translate(89.115 80.792)"><circle cx="3.233" cy="3.233" r="3.233" transform="translate(2.534)" fill="#363e44"/><circle cx="3.233" cy="3.233" r="3.233" transform="translate(4.718 19.139)" fill="#363e44"/><circle cx="2.928" cy="2.928" r="2.928" transform="translate(14.943 21.673)" fill="#363e44"/><circle cx="2.36" cy="2.36" r="2.36" transform="translate(4.631 9.263)" fill="#363e44"/><circle cx="2.36" cy="2.36" r="2.36" transform="translate(8.521 8.833) rotate(-76.718)" fill="#363e44"/><circle cx="2.36" cy="2.36" r="2.36" transform="translate(10.049 14.332)" fill="#363e44"/><circle cx="2.36" cy="2.36" r="2.36" transform="translate(8.635 27.441) rotate(-45)" fill="#363e44"/><circle cx="1.792" cy="1.792" r="1.792" transform="translate(14.813 31.854) rotate(-45)" fill="#363e44"/><circle cx="1.792" cy="1.792" r="1.792" transform="translate(13.283 36.529)" fill="#363e44"/><circle cx="1.792" cy="1.792" r="1.792" transform="translate(13.283 9.263)" fill="#363e44"/><circle cx="1.791" cy="1.791" r="1.791" transform="translate(0 8.564) rotate(-45)" fill="#363e44"/></g><path d="M540.633,978.387a.119.119,0,0,1-.013-.237l78.267-8.53L613.4,916.67a.119.119,0,0,1,.106-.13.118.118,0,0,1,.131.106l5.5,53.067a.119.119,0,0,1-.105.13l-78.385,8.543Z" transform="translate(-531.306 -869.249)" fill="#363e44"/></g><g transform="translate(475.18 432.804)"><path d="M1658.049,1309.721l-17.863-23.989-1.838,4.507,18.481,40.7Z" transform="translate(-1623.176 -1270.577)" fill="#b77250"/><ellipse cx="13.671" cy="6.394" rx="13.671" ry="6.394" transform="translate(0 24.398) rotate(-63.172)" fill="#d87355"/><path d="M1633.148,1202.783a.524.524,0,0,1-.239-.055.749.749,0,0,1-.343-.678.119.119,0,0,1,.237-.011.533.533,0,0,0,.212.478c.145.073.365.008.6-.179a2.8,2.8,0,0,0,.721-.932c.423-.836.4-1.58.11-1.725a.348.348,0,0,0-.253-.012.119.119,0,1,1-.063-.229.583.583,0,0,1,.423.029c.459.232.457,1.13-.005,2.044a3.049,3.049,0,0,1-.787,1.012A1.042,1.042,0,0,1,1633.148,1202.783Z" transform="translate(-1618.08 -1194.512)" fill="#363e44"/><path d="M1590.955,1226.163a.524.524,0,0,1-.239-.055.584.584,0,0,1-.274-.324.119.119,0,1,1,.222-.085.348.348,0,0,0,.16.2c.145.073.365.008.6-.179a3.12,3.12,0,0,0,1.045-2.066c.009-.3-.068-.518-.213-.591a.388.388,0,0,0-.32.01.119.119,0,0,1-.087-.221.62.62,0,0,1,.514,0,.815.815,0,0,1,.344.811,3.349,3.349,0,0,1-1.136,2.245A1.041,1.041,0,0,1,1590.955,1226.163Z" transform="translate(-1580.954 -1215.115)" fill="#363e44"/><path d="M1638.37,1250.274a.515.515,0,0,1-.235-.054c-.278-.141-.4-.519-.324-1.039a.119.119,0,0,1,.235.033c-.056.4.019.7.2.794.287.145.9-.275,1.324-1.111s.4-1.58.11-1.725a.119.119,0,0,1,.107-.212c.459.232.457,1.13-.005,2.045C1639.389,1249.773,1638.816,1250.274,1638.37,1250.274Z" transform="translate(-1622.684 -1236.399)" fill="#363e44"/><path d="M1555.283,1295.179a.515.515,0,0,1-.235-.054.815.815,0,0,1-.344-.811.119.119,0,0,1,.119-.115h0a.119.119,0,0,1,.115.122c-.009.3.068.518.213.592.287.145.9-.276,1.324-1.111s.4-1.58.11-1.725c-.167-.085-.433.016-.71.27a.119.119,0,1,1-.16-.175c.357-.328.714-.44.977-.307.459.232.457,1.13-.005,2.045C1556.3,1294.679,1555.729,1295.179,1555.283,1295.179Z" transform="translate(-1549.469 -1275.932)" fill="#363e44"/><path d="M1608.542,1310.593a.515.515,0,0,1-.235-.054.814.814,0,0,1-.343-.811.119.119,0,0,1,.119-.115h0a.119.119,0,0,1,.115.122c-.009.3.068.518.213.592.287.145.9-.276,1.324-1.111s.4-1.58.11-1.725a.119.119,0,0,1,.107-.212c.459.232.457,1.13-.006,2.044C1609.561,1310.093,1608.988,1310.593,1608.542,1310.593Z" transform="translate(-1596.4 -1289.552)" fill="#363e44"/><path d="M1592.634,1269.259a.513.513,0,0,1-.235-.054c-.345-.175-.44-.711-.247-1.4a.119.119,0,0,1,.229.064c-.153.547-.1,1.01.125,1.125.287.145.9-.276,1.324-1.111a2.808,2.808,0,0,0,.324-1.134c.009-.3-.069-.518-.213-.592a.119.119,0,0,1,.107-.212.815.815,0,0,1,.343.811,3.049,3.049,0,0,1-.349,1.233C1593.654,1268.759,1593.08,1269.259,1592.634,1269.259Z" transform="translate(-1582.381 -1253.129)" fill="#363e44"/><path d="M1564.584,1341.138a.517.517,0,0,1-.235-.054c-.343-.174-.439-.707-.25-1.391a.119.119,0,1,1,.229.063c-.152.552-.1,1,.128,1.116.287.146.9-.276,1.324-1.111s.4-1.58.11-1.725a.347.347,0,0,0-.253-.012.119.119,0,1,1-.062-.229.576.576,0,0,1,.423.029c.459.232.457,1.13-.005,2.044C1565.6,1340.638,1565.029,1341.138,1564.584,1341.138Z" transform="translate(-1557.664 -1316.43)" fill="#363e44"/><path d="M1729.715,1291.1l-6.581,54.323c5.051,10.041,46.142,6.394,46.461-3.624l-13.488-53.73-24.953,1.7A1.52,1.52,0,0,0,1729.715,1291.1Z" transform="translate(-1697.888 -1272.638)" fill="#d87355"/><path d="M2005.187,1347.635c8.351-7.178,15.162.624,16.756,4.4,2.41,5.709,5.49,18.749-11.074,25.562l-.632-3.6c17.061-2.837,12.114-33.6-4.731-23.4Z" transform="translate(-1946.429 -1322.543)" fill="#b77250"/><path d="M1793.422,1280.272c-7.258.8-13.31-.068-13.517-1.944s4.121-3.479,11.379-4.282,14.666-.444,14.873,1.433S1800.679,1279.469,1793.422,1280.272Z" transform="translate(-1747.906 -1259.924)" fill="#d87355"/></g></g></g></g></svg>