<svg xmlns="http://www.w3.org/2000/svg" xmlns:xlink="http://www.w3.org/1999/xlink" width="820" height="401" viewBox="0 0 820 401">
  <defs>
    <clipPath id="clip-path">
      <rect id="Rectángulo_34782" data-name="Rectángulo 34782" width="120" height="121" transform="translate(525 11852)" fill="#fff" stroke="#707070" stroke-width="1"/>
    </clipPath>
    <clipPath id="clip-path-2">
      <rect id="Rectángulo_34785" data-name="Rectángulo 34785" width="121" height="121" transform="translate(811 11852)" fill="#fff" stroke="#707070" stroke-width="1"/>
    </clipPath>
    <clipPath id="clip-path-3">
      <rect id="Rectángulo_34783" data-name="Rectángulo 34783" width="121" height="121" transform="translate(668 11852)" fill="#fff" stroke="#707070" stroke-width="1"/>
    </clipPath>
    <clipPath id="clip-path-4">
      <rect id="Rectángulo_34784" data-name="Rectángulo 34784" width="120" height="121" transform="translate(955 11852)" fill="#fff" stroke="#707070" stroke-width="1"/>
    </clipPath>
  </defs>
  <g id="Grupo_86308" data-name="Grupo 86308" transform="translate(-390 -11719)">
    <rect id="Rectángulo_34467" data-name="Rectángulo 34467" width="820" height="373" rx="20" transform="translate(390 11747)" fill="#eff5d6"/>
    <g id="Grupo_86282" data-name="Grupo 86282" transform="translate(0 -46)">
      <g id="Grupo_86307" data-name="Grupo 86307">
        <rect id="Rectángulo_34779" data-name="Rectángulo 34779" width="290" height="60" rx="20" transform="translate(663 11765)" fill="#0b481e"/>
        <rect id="Rectángulo_34780" data-name="Rectángulo 34780" width="290" height="60" rx="20" transform="translate(663 11993)" fill="#cee284"/>
        <rect id="Rectángulo_34781" data-name="Rectángulo 34781" width="290" height="60" rx="20" transform="translate(663 12063)" fill="#cee284"/>
        <path id="Trazado_122768" data-name="Trazado 122768" d="M63.59,14.667a4.673,4.673,0,0,1-.721,2.36,4.35,4.35,0,0,1-1.85,1.586,6.3,6.3,0,0,1-2.72.563,5.025,5.025,0,0,1-3.973-1.644,6.786,6.786,0,0,1-1.45-4.641v-.633a7.746,7.746,0,0,1,.655-3.292,4.961,4.961,0,0,1,1.885-2.18,5.26,5.26,0,0,1,2.848-.769,5.516,5.516,0,0,1,3.744,1.226,4.844,4.844,0,0,1,1.608,3.379H60.54a2.292,2.292,0,0,0-.589-1.679,2.422,2.422,0,0,0-1.687-.51,1.843,1.843,0,0,0-1.687.861,5.536,5.536,0,0,0-.562,2.751v.905a6.126,6.126,0,0,0,.514,2.927,1.882,1.882,0,0,0,1.771.879,2.369,2.369,0,0,0,1.626-.5,2.126,2.126,0,0,0,.6-1.591Zm.949-.51a5.613,5.613,0,0,1,.554-2.536,3.96,3.96,0,0,1,1.591-1.709,4.791,4.791,0,0,1,2.435-.6,4.373,4.373,0,0,1,3.366,1.323,5.076,5.076,0,0,1,1.23,3.6v.105a4.925,4.925,0,0,1-1.235,3.529,4.384,4.384,0,0,1-3.344,1.305,4.434,4.434,0,0,1-3.261-1.217,4.761,4.761,0,0,1-1.327-3.3Zm2.962.185a3.538,3.538,0,0,0,.413,1.934,1.376,1.376,0,0,0,1.222.615q1.582,0,1.617-2.435v-.3q0-2.558-1.635-2.558-1.485,0-1.608,2.206ZM77.74,9.49l.1,1.116a3.225,3.225,0,0,1,2.716-1.292,2.713,2.713,0,0,1,2.219.888,4.226,4.226,0,0,1,.76,2.672V19H80.562V13a1.6,1.6,0,0,0-.29-1.059,1.342,1.342,0,0,0-1.055-.338,1.413,1.413,0,0,0-1.292.686V19H74.963V9.49Zm12.41,6.838a.684.684,0,0,0-.4-.606,6.016,6.016,0,0,0-1.5-.475,6.853,6.853,0,0,1-1.828-.646,3.062,3.062,0,0,1-1.1-.971,2.319,2.319,0,0,1-.378-1.31,2.628,2.628,0,0,1,1.081-2.158,4.453,4.453,0,0,1,2.83-.848,4.934,4.934,0,0,1,3.023.853,2.666,2.666,0,0,1,1.143,2.241H90.054q0-1.143-1.2-1.143a1.194,1.194,0,0,0-.782.259.8.8,0,0,0-.316.646.737.737,0,0,0,.387.642,3.654,3.654,0,0,0,1.235.4,10.671,10.671,0,0,1,1.49.378,2.706,2.706,0,0,1,2.145,2.646,2.491,2.491,0,0,1-1.156,2.118,5.068,5.068,0,0,1-2.993.817,5.172,5.172,0,0,1-2.18-.439,3.645,3.645,0,0,1-1.494-1.2,2.707,2.707,0,0,1-.536-1.591h2.769a1.145,1.145,0,0,0,.439.962,1.808,1.808,0,0,0,1.081.3,1.422,1.422,0,0,0,.91-.246A.787.787,0,0,0,90.15,16.328Zm9.905,1.644a3.054,3.054,0,0,1-2.54,1.2,3,3,0,0,1-2.369-.91,3.826,3.826,0,0,1-.8-2.615V9.49H97.3v6.179a1.065,1.065,0,0,0,1.187,1.222,1.548,1.548,0,0,0,1.45-.729V9.49h2.979V19h-2.777Zm7.286-8.481.1,1.116a3.27,3.27,0,0,1,2.716-1.292,2.407,2.407,0,0,1,2.435,1.433,3.165,3.165,0,0,1,2.795-1.433q2.892,0,2.971,3.5V19h-2.971V13a1.813,1.813,0,0,0-.246-1.063,1.048,1.048,0,0,0-.9-.334,1.4,1.4,0,0,0-1.31.782l.009.123V19H109.97V13.015a1.906,1.906,0,0,0-.237-1.081,1.045,1.045,0,0,0-.905-.334,1.42,1.42,0,0,0-1.3.782V19h-2.962V9.49Zm12.331,4.667a5.613,5.613,0,0,1,.554-2.536,3.96,3.96,0,0,1,1.591-1.709,4.791,4.791,0,0,1,2.435-.6,4.373,4.373,0,0,1,3.366,1.323,5.076,5.076,0,0,1,1.23,3.6v.105a4.925,4.925,0,0,1-1.235,3.529,4.384,4.384,0,0,1-3.344,1.305,4.434,4.434,0,0,1-3.261-1.217,4.761,4.761,0,0,1-1.327-3.3Zm2.962.185a3.538,3.538,0,0,0,.413,1.934,1.376,1.376,0,0,0,1.222.615q1.582,0,1.617-2.435v-.3q0-2.558-1.635-2.558-1.485,0-1.608,2.206Zm11.628-.167a5.809,5.809,0,0,1,.976-3.56,3.211,3.211,0,0,1,2.725-1.3,2.731,2.731,0,0,1,2.145,1V5.5h2.971V19h-2.663l-.149-1.02a2.8,2.8,0,0,1-2.32,1.2,3.205,3.205,0,0,1-2.689-1.3A5.993,5.993,0,0,1,134.263,14.175Zm2.962.185q0,2.531,1.477,2.531a1.458,1.458,0,0,0,1.406-.826V12.443a1.419,1.419,0,0,0-1.389-.844q-1.371,0-1.485,2.215Zm12.138,4.816a4.889,4.889,0,0,1-3.542-1.305,4.507,4.507,0,0,1-1.354-3.4v-.246a5.84,5.84,0,0,1,.541-2.575,3.955,3.955,0,0,1,1.578-1.727,4.763,4.763,0,0,1,2.461-.611,4.117,4.117,0,0,1,3.164,1.244,4.887,4.887,0,0,1,1.16,3.467v1.151h-5.889a2.135,2.135,0,0,0,.694,1.257,2.066,2.066,0,0,0,1.389.457,2.662,2.662,0,0,0,2.2-.984l1.354,1.6a3.784,3.784,0,0,1-1.569,1.217A5.3,5.3,0,0,1,149.362,19.176Zm-.334-7.576q-1.3,0-1.547,1.723h2.988v-.229a1.467,1.467,0,0,0-.36-1.1A1.434,1.434,0,0,0,149.028,11.6ZM57.613,41.891a1.317,1.317,0,0,0,.967-.338,1.241,1.241,0,0,0,.334-.945h2.777a3.288,3.288,0,0,1-1.121,2.566,4.168,4.168,0,0,1-2.887,1,4.22,4.22,0,0,1-3.27-1.3,5.125,5.125,0,0,1-1.2-3.6v-.123A5.792,5.792,0,0,1,53.75,36.6a3.872,3.872,0,0,1,1.534-1.7,4.573,4.573,0,0,1,2.373-.593A4.116,4.116,0,0,1,60.6,35.343a3.647,3.647,0,0,1,1.09,2.786H58.914A1.626,1.626,0,0,0,58.554,37a1.244,1.244,0,0,0-.967-.4q-1.151,0-1.345,1.468a10.357,10.357,0,0,0-.062,1.283,4.068,4.068,0,0,0,.343,1.986A1.187,1.187,0,0,0,57.613,41.891Zm4.957-2.733a5.613,5.613,0,0,1,.554-2.536,3.96,3.96,0,0,1,1.591-1.709,4.791,4.791,0,0,1,2.435-.6,4.373,4.373,0,0,1,3.366,1.323,5.076,5.076,0,0,1,1.23,3.6v.105a4.925,4.925,0,0,1-1.235,3.529,4.384,4.384,0,0,1-3.344,1.305,4.434,4.434,0,0,1-3.261-1.217,4.761,4.761,0,0,1-1.327-3.3Zm2.962.185a3.538,3.538,0,0,0,.413,1.934,1.376,1.376,0,0,0,1.222.615q1.582,0,1.617-2.435v-.3q0-2.558-1.635-2.558-1.485,0-1.608,2.206ZM75.851,34.49l.1,1.116a3.27,3.27,0,0,1,2.716-1.292A2.407,2.407,0,0,1,81.1,35.747a3.165,3.165,0,0,1,2.795-1.433q2.892,0,2.971,3.5V44H83.893V38a1.813,1.813,0,0,0-.246-1.063,1.048,1.048,0,0,0-.9-.334,1.4,1.4,0,0,0-1.31.782l.009.123V44H78.479V38.015a1.906,1.906,0,0,0-.237-1.081,1.045,1.045,0,0,0-.905-.334,1.42,1.42,0,0,0-1.3.782V44H73.073V34.49Zm21.533,4.834a5.8,5.8,0,0,1-.967,3.595,3.238,3.238,0,0,1-2.725,1.257,2.81,2.81,0,0,1-2.338-1.151L91.231,44H88.577V30.5h2.962v4.755a2.711,2.711,0,0,1,2.136-.94,3.239,3.239,0,0,1,2.742,1.274,5.826,5.826,0,0,1,.967,3.586Zm-2.971-.189a3.866,3.866,0,0,0-.365-1.952,1.229,1.229,0,0,0-1.121-.584,1.418,1.418,0,0,0-1.389.763v3.773a1.426,1.426,0,0,0,1.406.755,1.258,1.258,0,0,0,1.327-1.018A7.309,7.309,0,0,0,94.413,39.135Zm9.94,3.836a3.054,3.054,0,0,1-2.54,1.2,3,3,0,0,1-2.369-.91,3.826,3.826,0,0,1-.8-2.615V34.49H101.6v6.179a1.065,1.065,0,0,0,1.187,1.222,1.548,1.548,0,0,0,1.45-.729V34.49h2.979V44h-2.777Zm9.466-1.644a.684.684,0,0,0-.4-.606,6.016,6.016,0,0,0-1.5-.475,6.853,6.853,0,0,1-1.828-.646,3.062,3.062,0,0,1-1.1-.971,2.319,2.319,0,0,1-.378-1.31,2.628,2.628,0,0,1,1.081-2.158,4.453,4.453,0,0,1,2.83-.848,4.934,4.934,0,0,1,3.023.853,2.666,2.666,0,0,1,1.143,2.241h-2.971q0-1.143-1.2-1.143a1.194,1.194,0,0,0-.782.259.8.8,0,0,0-.316.646.737.737,0,0,0,.387.642,3.654,3.654,0,0,0,1.235.4,10.671,10.671,0,0,1,1.49.378,2.706,2.706,0,0,1,2.145,2.646,2.491,2.491,0,0,1-1.156,2.118,5.068,5.068,0,0,1-2.993.817,5.172,5.172,0,0,1-2.18-.439,3.645,3.645,0,0,1-1.494-1.2,2.707,2.707,0,0,1-.536-1.591h2.769a1.145,1.145,0,0,0,.439.962,1.808,1.808,0,0,0,1.081.3,1.422,1.422,0,0,0,.91-.246A.787.787,0,0,0,113.819,41.328Zm7.69-9.2V34.49h1.564v2.057H121.51V40.9a1.111,1.111,0,0,0,.193.747,1.037,1.037,0,0,0,.765.211,4.345,4.345,0,0,0,.738-.053v2.118a5.466,5.466,0,0,1-1.67.255,3.1,3.1,0,0,1-2.259-.721,2.954,2.954,0,0,1-.729-2.188v-4.72h-1.213V34.49h1.213V32.126ZM127.363,44h-2.971V34.49h2.971Zm-3.146-11.962A1.322,1.322,0,0,1,124.674,31a1.943,1.943,0,0,1,2.373,0,1.405,1.405,0,0,1,0,2.074,1.943,1.943,0,0,1-2.373,0A1.322,1.322,0,0,1,124.217,32.038Zm13.8,7.286a5.8,5.8,0,0,1-.967,3.595,3.238,3.238,0,0,1-2.725,1.257,2.81,2.81,0,0,1-2.338-1.151l-.123.976h-2.654V30.5h2.962v4.755a2.711,2.711,0,0,1,2.136-.94,3.239,3.239,0,0,1,2.742,1.274,5.826,5.826,0,0,1,.967,3.586Zm-2.971-.189a3.866,3.866,0,0,0-.365-1.952,1.229,1.229,0,0,0-1.121-.584,1.418,1.418,0,0,0-1.389.763v3.773a1.426,1.426,0,0,0,1.406.755,1.258,1.258,0,0,0,1.327-1.018A7.309,7.309,0,0,0,135.045,39.135Zm7.4,4.865h-2.971V30.5h2.971Zm6.425.176a4.889,4.889,0,0,1-3.542-1.305,4.507,4.507,0,0,1-1.354-3.4v-.246a5.84,5.84,0,0,1,.541-2.575,3.955,3.955,0,0,1,1.578-1.727,4.763,4.763,0,0,1,2.461-.611,4.117,4.117,0,0,1,3.164,1.244,4.887,4.887,0,0,1,1.16,3.467v1.151h-5.889a2.135,2.135,0,0,0,.694,1.257,2.066,2.066,0,0,0,1.389.457,2.662,2.662,0,0,0,2.2-.984l1.354,1.6a3.784,3.784,0,0,1-1.569,1.217A5.3,5.3,0,0,1,148.87,44.176Zm-.334-7.576q-1.3,0-1.547,1.723h2.988v-.229a1.467,1.467,0,0,0-.36-1.1A1.434,1.434,0,0,0,148.536,36.6Z" transform="translate(708 11770.5)" fill="#fff"/>
        <path id="Trazado_122769" data-name="Trazado 122769" d="M30.543,14.667a4.673,4.673,0,0,1-.721,2.36,4.35,4.35,0,0,1-1.85,1.586,6.3,6.3,0,0,1-2.72.563,5.025,5.025,0,0,1-3.973-1.644,6.786,6.786,0,0,1-1.45-4.641v-.633a7.746,7.746,0,0,1,.655-3.292,4.961,4.961,0,0,1,1.885-2.18,5.26,5.26,0,0,1,2.848-.769,5.516,5.516,0,0,1,3.744,1.226,4.844,4.844,0,0,1,1.608,3.379H27.493A2.292,2.292,0,0,0,26.9,8.945a2.422,2.422,0,0,0-1.687-.51,1.843,1.843,0,0,0-1.687.861,5.536,5.536,0,0,0-.562,2.751v.905a6.126,6.126,0,0,0,.514,2.927,1.882,1.882,0,0,0,1.771.879,2.369,2.369,0,0,0,1.626-.5,2.126,2.126,0,0,0,.6-1.591Zm.949-.51a5.613,5.613,0,0,1,.554-2.536,3.96,3.96,0,0,1,1.591-1.709,4.791,4.791,0,0,1,2.435-.6,4.373,4.373,0,0,1,3.366,1.323,5.076,5.076,0,0,1,1.23,3.6v.105a4.925,4.925,0,0,1-1.235,3.529,4.384,4.384,0,0,1-3.344,1.305,4.434,4.434,0,0,1-3.261-1.217,4.761,4.761,0,0,1-1.327-3.3Zm2.962.185a3.538,3.538,0,0,0,.413,1.934,1.376,1.376,0,0,0,1.222.615q1.582,0,1.617-2.435v-.3q0-2.558-1.635-2.558-1.485,0-1.608,2.206ZM44.693,9.49l.1,1.116a3.225,3.225,0,0,1,2.716-1.292,2.713,2.713,0,0,1,2.219.888,4.226,4.226,0,0,1,.76,2.672V19H47.515V13a1.6,1.6,0,0,0-.29-1.059A1.342,1.342,0,0,0,46.17,11.6a1.413,1.413,0,0,0-1.292.686V19H41.916V9.49ZM57.1,16.328a.684.684,0,0,0-.4-.606,6.016,6.016,0,0,0-1.5-.475,6.853,6.853,0,0,1-1.828-.646,3.062,3.062,0,0,1-1.1-.971,2.319,2.319,0,0,1-.378-1.31,2.628,2.628,0,0,1,1.081-2.158,4.453,4.453,0,0,1,2.83-.848,4.934,4.934,0,0,1,3.023.853,2.666,2.666,0,0,1,1.143,2.241H57.007q0-1.143-1.2-1.143a1.194,1.194,0,0,0-.782.259.8.8,0,0,0-.316.646.737.737,0,0,0,.387.642,3.654,3.654,0,0,0,1.235.4,10.671,10.671,0,0,1,1.49.378A2.706,2.706,0,0,1,59.96,16.24,2.491,2.491,0,0,1,58.8,18.358a5.068,5.068,0,0,1-2.993.817,5.172,5.172,0,0,1-2.18-.439,3.645,3.645,0,0,1-1.494-1.2A2.707,2.707,0,0,1,51.6,15.95H54.37a1.145,1.145,0,0,0,.439.962,1.808,1.808,0,0,0,1.081.3,1.422,1.422,0,0,0,.91-.246A.787.787,0,0,0,57.1,16.328Zm9.905,1.644a3.054,3.054,0,0,1-2.54,1.2,3,3,0,0,1-2.369-.91,3.826,3.826,0,0,1-.8-2.615V9.49h2.962v6.179a1.065,1.065,0,0,0,1.187,1.222,1.548,1.548,0,0,0,1.45-.729V9.49h2.979V19H67.1ZM74.295,9.49l.1,1.116a3.27,3.27,0,0,1,2.716-1.292,2.407,2.407,0,0,1,2.435,1.433,3.165,3.165,0,0,1,2.795-1.433q2.892,0,2.971,3.5V19H82.337V13a1.813,1.813,0,0,0-.246-1.063,1.048,1.048,0,0,0-.9-.334,1.4,1.4,0,0,0-1.31.782l.009.123V19H76.923V13.015a1.906,1.906,0,0,0-.237-1.081,1.045,1.045,0,0,0-.905-.334,1.42,1.42,0,0,0-1.3.782V19H71.518V9.49Zm12.331,4.667a5.613,5.613,0,0,1,.554-2.536,3.96,3.96,0,0,1,1.591-1.709,4.791,4.791,0,0,1,2.435-.6,4.373,4.373,0,0,1,3.366,1.323,5.076,5.076,0,0,1,1.23,3.6v.105a4.925,4.925,0,0,1-1.235,3.529,4.384,4.384,0,0,1-3.344,1.305,4.434,4.434,0,0,1-3.261-1.217,4.761,4.761,0,0,1-1.327-3.3Zm2.962.185A3.538,3.538,0,0,0,90,16.275a1.376,1.376,0,0,0,1.222.615q1.582,0,1.617-2.435v-.3q0-2.558-1.635-2.558-1.485,0-1.608,2.206Zm11.628-.167a5.809,5.809,0,0,1,.976-3.56,3.211,3.211,0,0,1,2.725-1.3,2.731,2.731,0,0,1,2.145,1V5.5h2.971V19h-2.663l-.149-1.02a2.8,2.8,0,0,1-2.32,1.2,3.205,3.205,0,0,1-2.689-1.3A5.993,5.993,0,0,1,101.216,14.175Zm2.962.185q0,2.531,1.477,2.531a1.458,1.458,0,0,0,1.406-.826V12.443a1.419,1.419,0,0,0-1.389-.844q-1.371,0-1.485,2.215Zm12.138,4.816a4.889,4.889,0,0,1-3.542-1.305,4.507,4.507,0,0,1-1.354-3.4v-.246a5.84,5.84,0,0,1,.541-2.575,3.955,3.955,0,0,1,1.578-1.727A4.763,4.763,0,0,1,116,9.314a4.117,4.117,0,0,1,3.164,1.244,4.887,4.887,0,0,1,1.16,3.467v1.151h-5.889a2.135,2.135,0,0,0,.694,1.257,2.066,2.066,0,0,0,1.389.457,2.662,2.662,0,0,0,2.2-.984l1.354,1.6a3.784,3.784,0,0,1-1.569,1.217A5.3,5.3,0,0,1,116.315,19.176Zm-.334-7.576q-1.3,0-1.547,1.723h2.988v-.229a1.467,1.467,0,0,0-.36-1.1A1.434,1.434,0,0,0,115.981,11.6ZM130.6,19.176a4.889,4.889,0,0,1-3.542-1.305,4.507,4.507,0,0,1-1.354-3.4v-.246a5.84,5.84,0,0,1,.541-2.575,3.955,3.955,0,0,1,1.578-1.727,4.763,4.763,0,0,1,2.461-.611,4.117,4.117,0,0,1,3.164,1.244,4.887,4.887,0,0,1,1.16,3.467v1.151h-5.889a2.135,2.135,0,0,0,.694,1.257,2.066,2.066,0,0,0,1.389.457,2.662,2.662,0,0,0,2.2-.984l1.354,1.6a3.784,3.784,0,0,1-1.569,1.217A5.3,5.3,0,0,1,130.6,19.176Zm-.334-7.576q-1.3,0-1.547,1.723h2.988v-.229a1.467,1.467,0,0,0-.36-1.1A1.434,1.434,0,0,0,130.264,11.6Zm8.253-2.109.1,1.116a3.225,3.225,0,0,1,2.716-1.292,2.713,2.713,0,0,1,2.219.888,4.226,4.226,0,0,1,.76,2.672V19h-2.971V13a1.6,1.6,0,0,0-.29-1.059,1.342,1.342,0,0,0-1.055-.338,1.413,1.413,0,0,0-1.292.686V19h-2.962V9.49Zm12.032,9.686a4.889,4.889,0,0,1-3.542-1.305,4.507,4.507,0,0,1-1.354-3.4v-.246a5.84,5.84,0,0,1,.541-2.575,3.955,3.955,0,0,1,1.578-1.727,4.763,4.763,0,0,1,2.461-.611,4.117,4.117,0,0,1,3.164,1.244,4.887,4.887,0,0,1,1.16,3.467v1.151h-5.889a2.135,2.135,0,0,0,.694,1.257,2.066,2.066,0,0,0,1.389.457,2.662,2.662,0,0,0,2.2-.984l1.354,1.6a3.784,3.784,0,0,1-1.569,1.217A5.3,5.3,0,0,1,150.549,19.176Zm-.334-7.576q-1.3,0-1.547,1.723h2.988v-.229a1.467,1.467,0,0,0-.36-1.1A1.434,1.434,0,0,0,150.215,11.6Zm11.285.571-.976-.07a1.752,1.752,0,0,0-1.793.879V19H155.77V9.49h2.777l.1,1.222a2.294,2.294,0,0,1,2.083-1.4,2.888,2.888,0,0,1,.826.105Zm.721,2a6.421,6.421,0,0,1,.475-2.549,3.821,3.821,0,0,1,1.362-1.709,3.591,3.591,0,0,1,2.065-.6,2.855,2.855,0,0,1,2.32,1l.105-.826h2.689V18.64a4.009,4.009,0,0,1-.584,2.184,3.75,3.75,0,0,1-1.692,1.424,6.219,6.219,0,0,1-2.566.5,5.365,5.365,0,0,1-2.026-.4,3.657,3.657,0,0,1-1.5-1.028l1.239-1.74a2.716,2.716,0,0,0,2.18.976,1.764,1.764,0,0,0,1.969-2.021v-.3a2.781,2.781,0,0,1-2.153.94,3.437,3.437,0,0,1-2.812-1.332,5.517,5.517,0,0,1-1.072-3.564Zm2.971.185a3.383,3.383,0,0,0,.439,1.85,1.387,1.387,0,0,0,1.23.681,1.573,1.573,0,0,0,1.4-.642v-4a1.534,1.534,0,0,0-1.38-.65,1.4,1.4,0,0,0-1.239.708A3.858,3.858,0,0,0,165.191,14.359ZM176.151,19h-2.979V9.49h2.979ZM175.044,5.676h3.129l-2.443,2.76-2.417,0ZM183.411,19a3.344,3.344,0,0,1-.281-.853,2.754,2.754,0,0,1-2.285,1.028,3.374,3.374,0,0,1-2.285-.813,2.588,2.588,0,0,1-.94-2.043,2.66,2.66,0,0,1,1.143-2.338,5.821,5.821,0,0,1,3.322-.791H183v-.5q0-1.316-1.134-1.316a.927.927,0,0,0-1.055,1.042h-2.962a2.655,2.655,0,0,1,1.173-2.239,4.931,4.931,0,0,1,2.993-.86,4.323,4.323,0,0,1,2.874.888,3.086,3.086,0,0,1,1.081,2.435v4.21a4.311,4.311,0,0,0,.4,2V19Zm-1.854-1.934a1.652,1.652,0,0,0,.918-.237,1.487,1.487,0,0,0,.523-.536V14.772h-.861q-1.547,0-1.547,1.389a.848.848,0,0,0,.272.655A.986.986,0,0,0,181.557,17.066Z" transform="translate(705 12013.5)" fill="#12263f"/>
        <path id="Trazado_122770" data-name="Trazado 122770" d="M69.145,8.585H65.3V19H62.219V8.585H58.448V6.2h10.7Zm6.346,3.586-.976-.07a1.752,1.752,0,0,0-1.793.879V19H69.76V9.49h2.777l.1,1.222a2.294,2.294,0,0,1,2.083-1.4,2.888,2.888,0,0,1,.826.105ZM81.651,19a3.344,3.344,0,0,1-.281-.853,2.754,2.754,0,0,1-2.285,1.028,3.374,3.374,0,0,1-2.285-.813,2.588,2.588,0,0,1-.94-2.043A2.66,2.66,0,0,1,77,13.981a5.821,5.821,0,0,1,3.322-.791h.914v-.5q0-1.316-1.134-1.316a.927.927,0,0,0-1.055,1.042H76.088a2.655,2.655,0,0,1,1.173-2.239,4.931,4.931,0,0,1,2.993-.86,4.323,4.323,0,0,1,2.874.888,3.086,3.086,0,0,1,1.081,2.435v4.21a4.311,4.311,0,0,0,.4,2V19ZM79.8,17.066a1.652,1.652,0,0,0,.918-.237,1.487,1.487,0,0,0,.523-.536V14.772h-.861q-1.547,0-1.547,1.389a.848.848,0,0,0,.272.655A.986.986,0,0,0,79.8,17.066ZM88.568,9.49l.1,1.116a3.225,3.225,0,0,1,2.716-1.292A2.713,2.713,0,0,1,93.6,10.2a4.226,4.226,0,0,1,.76,2.672V19H91.39V13a1.6,1.6,0,0,0-.29-1.059,1.342,1.342,0,0,0-1.055-.338,1.413,1.413,0,0,0-1.292.686V19H85.791V9.49Zm12.41,6.838a.684.684,0,0,0-.4-.606,6.016,6.016,0,0,0-1.5-.475,6.853,6.853,0,0,1-1.828-.646,3.062,3.062,0,0,1-1.1-.971,2.319,2.319,0,0,1-.378-1.31,2.628,2.628,0,0,1,1.081-2.158,4.453,4.453,0,0,1,2.83-.848,4.934,4.934,0,0,1,3.023.853,2.666,2.666,0,0,1,1.143,2.241h-2.971q0-1.143-1.2-1.143a1.194,1.194,0,0,0-.782.259.8.8,0,0,0-.316.646.737.737,0,0,0,.387.642,3.654,3.654,0,0,0,1.235.4,10.671,10.671,0,0,1,1.49.378,2.706,2.706,0,0,1,2.145,2.646,2.491,2.491,0,0,1-1.156,2.118,5.068,5.068,0,0,1-2.993.817,5.172,5.172,0,0,1-2.18-.439,3.645,3.645,0,0,1-1.494-1.2,2.707,2.707,0,0,1-.536-1.591h2.769a1.145,1.145,0,0,0,.439.962,1.808,1.808,0,0,0,1.081.3,1.422,1.422,0,0,0,.91-.246A.787.787,0,0,0,100.979,16.328Zm13.069-2.013a5.735,5.735,0,0,1-1,3.538,3.2,3.2,0,0,1-2.694,1.323,2.742,2.742,0,0,1-2.153-.958v4.438h-2.962V9.49h2.769l.088.879a2.742,2.742,0,0,1,2.241-1.055,3.224,3.224,0,0,1,2.733,1.3,5.805,5.805,0,0,1,.976,3.564Zm-2.962-.185q0-2.531-1.477-2.531a1.394,1.394,0,0,0-1.406.756V16.1a1.439,1.439,0,0,0,1.424.791q1.415,0,1.459-2.443Zm3.894.026a5.613,5.613,0,0,1,.554-2.536,3.96,3.96,0,0,1,1.591-1.709,4.791,4.791,0,0,1,2.435-.6,4.373,4.373,0,0,1,3.366,1.323,5.076,5.076,0,0,1,1.23,3.6v.105a4.925,4.925,0,0,1-1.235,3.529,4.384,4.384,0,0,1-3.344,1.305,4.434,4.434,0,0,1-3.261-1.217,4.761,4.761,0,0,1-1.327-3.3Zm2.962.185a3.538,3.538,0,0,0,.413,1.934,1.376,1.376,0,0,0,1.222.615q1.582,0,1.617-2.435v-.3q0-2.558-1.635-2.558-1.485,0-1.608,2.206Zm13.271-2.171-.976-.07a1.752,1.752,0,0,0-1.793.879V19h-2.962V9.49h2.777l.1,1.222a2.294,2.294,0,0,1,2.083-1.4,2.888,2.888,0,0,1,.826.105Zm4.957-5.045V9.49h1.564v2.057H136.17V15.9a1.111,1.111,0,0,0,.193.747,1.037,1.037,0,0,0,.765.211,4.345,4.345,0,0,0,.738-.053v2.118a5.466,5.466,0,0,1-1.67.255,3.1,3.1,0,0,1-2.259-.721,2.954,2.954,0,0,1-.729-2.188v-4.72H132V9.49h1.213V7.126Zm7.33,12.05a4.889,4.889,0,0,1-3.542-1.305,4.507,4.507,0,0,1-1.354-3.4v-.246a5.84,5.84,0,0,1,.541-2.575,3.955,3.955,0,0,1,1.578-1.727,4.763,4.763,0,0,1,2.461-.611,4.117,4.117,0,0,1,3.164,1.244,4.887,4.887,0,0,1,1.16,3.467v1.151h-5.889a2.135,2.135,0,0,0,.694,1.257,2.066,2.066,0,0,0,1.389.457,2.662,2.662,0,0,0,2.2-.984l1.354,1.6a3.784,3.784,0,0,1-1.569,1.217A5.3,5.3,0,0,1,143.5,19.176Zm-.334-7.576q-1.3,0-1.547,1.723h2.988v-.229a1.467,1.467,0,0,0-.36-1.1A1.434,1.434,0,0,0,143.166,11.6Z" transform="translate(705 12083.5)" fill="#12263f"/>
        <g id="Enmascarar_grupo_164" data-name="Enmascarar grupo 164" clip-path="url(#clip-path)">
          <g id="tanque" transform="translate(525 11852.5)">
            <g id="Grupo_86281" data-name="Grupo 86281">
              <g id="Grupo_86271" data-name="Grupo 86271">
                <path id="Trazado_122695" data-name="Trazado 122695" d="M87.07,28.477H81.445a.7.7,0,0,0-.7.7v7.248h7.031V29.18A.7.7,0,0,0,87.07,28.477Z" fill="#e9edf1"/>
                <path id="Trazado_122696" data-name="Trazado 122696" d="M38.555,28.477H32.93a.7.7,0,0,0-.7.7v7.248h7.031V29.18A.7.7,0,0,0,38.555,28.477Z" fill="#e9edf1"/>
                <path id="Trazado_122697" data-name="Trazado 122697" d="M50.919,26.494H70.2V35.85H50.919Z" fill="#e9edf1"/>
              </g>
              <path id="Trazado_122698" data-name="Trazado 122698" d="M49.8,26.494h4.687V35.85H49.8Z" fill="#dce6eb"/>
              <path id="Trazado_122699" data-name="Trazado 122699" d="M100.664,81.667l-80.517.774A17.578,17.578,0,0,1,2.568,64.863l.2-11.441c0-4.614,3.676-13.224,3.676-13.224A17.531,17.531,0,0,1,19.336,34.57H33.984l1.758,1.28L37.5,34.57h45l1.89.72,1.626-.72h14.648a17.578,17.578,0,0,1,17.578,17.578V65.508A17.53,17.53,0,0,1,112.613,78.4s-3.033,1.751-4.592,2.512c-2.326,1.136-4.594.756-7.358.756Z" fill="#5d98d8"/>
              <path id="Trazado_122700" data-name="Trazado 122700" d="M112.613,78.4a17.513,17.513,0,0,1-11.95,4.686H19.336A17.578,17.578,0,0,1,1.758,65.508V52.149A17.513,17.513,0,0,1,6.444,40.2V61.992A16.406,16.406,0,0,0,22.852,78.4Z" fill="#478ac6"/>
              <g id="Grupo_86276" data-name="Grupo 86276">
                <g id="Grupo_86274" data-name="Grupo 86274">
                  <g id="Grupo_86273" data-name="Grupo 86273">
                    <g id="Grupo_86272" data-name="Grupo 86272">
                      <path id="Trazado_122701" data-name="Trazado 122701" d="M19.336,86.953a2.93,2.93,0,0,1-2.93-2.93V33.633a2.93,2.93,0,0,1,5.859,0v50.39A2.93,2.93,0,0,1,19.336,86.953Z" fill="#478ac6"/>
                    </g>
                  </g>
                </g>
                <g id="Grupo_86275" data-name="Grupo 86275">
                  <path id="Trazado_122702" data-name="Trazado 122702" d="M100.664,86.953a2.93,2.93,0,0,1-2.93-2.93V33.633a2.93,2.93,0,1,1,5.859,0v50.39A2.93,2.93,0,0,1,100.664,86.953Z" fill="#478ac6"/>
                </g>
              </g>
              <path id="Trazado_122703" data-name="Trazado 122703" d="M103.593,78.4v5.625a2.93,2.93,0,0,1-5.859,0V78.4Z" fill="#3c7dbc"/>
              <g id="Grupo_86279" data-name="Grupo 86279">
                <g id="Grupo_86278" data-name="Grupo 86278">
                  <g id="Grupo_86277" data-name="Grupo 86277">
                    <path id="Trazado_122704" data-name="Trazado 122704" d="M22.266,78.386v5.637a2.93,2.93,0,0,1-5.859,0v-6.94A16.282,16.282,0,0,0,22.266,78.386Z" fill="#3c7dbc"/>
                  </g>
                </g>
              </g>
              <g id="Grupo_86280" data-name="Grupo 86280">
                <path id="Trazado_122705" data-name="Trazado 122705" d="M40.9,98.085H30.586a.7.7,0,0,1-.7-.7V73.945a.7.7,0,0,1,.7-.7H40.9a.7.7,0,0,1,.7.7V97.382A.7.7,0,0,1,40.9,98.085Z" fill="#dce6eb"/>
                <path id="Trazado_122706" data-name="Trazado 122706" d="M89.414,98.085H79.1a.7.7,0,0,1-.7-.7V73.945a.7.7,0,0,1,.7-.7H89.414a.7.7,0,0,1,.7.7V97.382A.7.7,0,0,1,89.414,98.085Z" fill="#dce6eb"/>
              </g>
              <path id="Trazado_122707" data-name="Trazado 122707" d="M70.547,21.914H54.492l-5.039.232a2.491,2.491,0,0,0-2.623,2.7,2.556,2.556,0,0,0,2.623,2.778l4.892.152h16.2a2.93,2.93,0,0,0,0-5.859Z" fill="#f7f9fa"/>
              <path id="Trazado_122708" data-name="Trazado 122708" d="M52.772,26.916a2.923,2.923,0,0,0,2.072.858H49.453a2.93,2.93,0,1,1,0-5.859h5.391a2.93,2.93,0,0,0-2.072,5Z" fill="#e9edf1"/>
            </g>
            <path id="Trazado_122709" data-name="Trazado 122709" d="M120,52.148a19.34,19.34,0,0,0-2.595-9.707l1.726-1.011a1.758,1.758,0,0,0-1.777-3.033l-1.988,1.165a19.235,19.235,0,0,0-10.026-6.176,4.682,4.682,0,0,0-9.286-.573H89.531V28.477a1.758,1.758,0,0,0-1.758-1.758H80.742a1.758,1.758,0,0,0-1.758,1.758v4.336H71.953v-3.5a4.687,4.687,0,0,0-1.406-9.159h-8.5a1.758,1.758,0,1,0,0,3.516h8.5a1.172,1.172,0,0,1,0,2.344H49.453a1.172,1.172,0,0,1,0-2.344h4.388a1.758,1.758,0,1,0,0-3.516H49.453a4.687,4.687,0,0,0-1.406,9.159v3.5H41.016V28.477a1.758,1.758,0,0,0-1.758-1.758H32.227a1.758,1.758,0,0,0-1.758,1.758v4.336H23.947a4.682,4.682,0,0,0-9.286.574,19.24,19.24,0,0,0-9.984,6.135L2.61,38.375a1.758,1.758,0,0,0-1.7,3.075l1.716.951A19.325,19.325,0,0,0,0,52.148V65.508a19.329,19.329,0,0,0,2.6,9.706L.869,76.226a1.758,1.758,0,1,0,1.777,3.033l1.992-1.167A19.24,19.24,0,0,0,14.661,84.27a4.682,4.682,0,0,0,9.286.573h4.178V96.328h-11.6a1.758,1.758,0,0,0,0,3.516h87.187a1.758,1.758,0,1,0,0-3.516H91.875V84.843h4.178a4.682,4.682,0,0,0,9.286-.573,19.237,19.237,0,0,0,10.024-6.177l1.99,1.166a1.758,1.758,0,0,0,1.777-3.033L117.4,75.214a19.335,19.335,0,0,0,2.6-9.707V52.148ZM82.5,30.234h3.516v2.578H82.5ZM78.4,67.968h4.1v3.516H78.4a1.758,1.758,0,0,0-1.758,1.758v8.086H61.78a1.758,1.758,0,0,0,0,3.516H76.64V96.328H43.359V84.843H53.577a1.758,1.758,0,0,0,0-3.516H43.359V73.242A1.758,1.758,0,0,0,41.6,71.484H37.5V67.968h4.1a1.758,1.758,0,1,0,0-3.516H37.5V36.328h45V64.453H78.4a1.758,1.758,0,1,0,0,3.516ZM51.562,29.531H68.437v3.281H51.562Zm-17.578.7H37.5v2.578H33.984ZM3.516,65.508V52.148A15.783,15.783,0,0,1,14.649,37.034V80.622A15.782,15.782,0,0,1,3.516,65.508Zm20.508,15.82V60.189a1.758,1.758,0,1,0-3.516,0V84.023a1.172,1.172,0,0,1-2.344,0V33.633a1.172,1.172,0,1,1,2.344,0V51.986a1.758,1.758,0,1,0,3.516,0V36.328h9.961V64.453h-4.1a1.758,1.758,0,1,0,0,3.516h4.1v3.516h-4.1a1.758,1.758,0,0,0-1.758,1.758v8.086ZM31.641,75h2.344v2.93a1.758,1.758,0,1,0,3.516,0V75h2.344V96.328h-8.2ZM80.156,96.328V75H82.5v2.93a1.758,1.758,0,1,0,3.516,0V75h2.344V96.328Zm9.961-24.844h-4.1V67.968h4.1a1.758,1.758,0,0,0,0-3.516h-4.1V36.328h9.961v45h-4.1V73.242A1.758,1.758,0,0,0,90.117,71.484Zm15.234,9.139V56.42a1.758,1.758,0,1,0-3.516,0v27.6a1.172,1.172,0,0,1-2.344,0V33.633a1.172,1.172,0,0,1,2.344,0V48.216a1.758,1.758,0,1,0,3.516,0V37.032a15.77,15.77,0,0,1,11.133,15.116V65.508A15.775,15.775,0,0,1,105.351,80.623Z"/>
          </g>
        </g>
        <g id="Enmascarar_grupo_161" data-name="Enmascarar grupo 161" clip-path="url(#clip-path-2)">
          <g id="camion-de-aceite" transform="translate(811 11852)">
            <g id="Grupo_86251" data-name="Grupo 86251">
              <g id="Grupo_86231" data-name="Grupo 86231">
                <path id="Trazado_122635" data-name="Trazado 122635" d="M119.228,81.645H87.941V43.278a4.066,4.066,0,0,1,4.066-4.066h15.378a4.066,4.066,0,0,1,3.732,2.452l7.778,17.992a4.064,4.064,0,0,1,.334,1.613Z" fill="#a79ba7"/>
              </g>
              <g id="Grupo_86232" data-name="Grupo 86232">
                <path id="Trazado_122636" data-name="Trazado 122636" d="M118.895,59.657l-7.778-17.992a4.066,4.066,0,0,0-3.732-2.452h-7.09a4.066,4.066,0,0,1,3.732,2.452L111.8,59.657a4.064,4.064,0,0,1,.334,1.613V81.645h7.09V61.27a4.064,4.064,0,0,0-.334-1.613Z" fill="#918291"/>
              </g>
              <g id="Grupo_86233" data-name="Grupo 86233">
                <path id="Trazado_122637" data-name="Trazado 122637" d="M63.855,81.645h-38A24.086,24.086,0,0,1,1.772,57.559V55.978A24.086,24.086,0,0,1,25.858,31.893h38A24.086,24.086,0,0,1,87.941,55.978v1.581A24.086,24.086,0,0,1,63.855,81.645Z" fill="#9be69d"/>
              </g>
              <g id="Grupo_86234" data-name="Grupo 86234">
                <path id="Trazado_122638" data-name="Trazado 122638" d="M76.969,35.774a23.971,23.971,0,0,1,3.882,13.114v1.581A24.086,24.086,0,0,1,56.765,74.555h-38A23.972,23.972,0,0,1,5.654,70.673a24.065,24.065,0,0,0,20.2,10.972h38A24.086,24.086,0,0,0,87.941,57.559V55.978a24.063,24.063,0,0,0-10.971-20.2Z" fill="#6fd7a3"/>
              </g>
              <g id="Grupo_86235" data-name="Grupo 86235">
                <path id="Trazado_122639" data-name="Trazado 122639" d="M117.354,89.4H4.272A1.874,1.874,0,0,1,2.4,87.527V83.519a1.874,1.874,0,0,1,1.874-1.874H119.228v5.882a1.874,1.874,0,0,1-1.874,1.874Z" fill="#7a6d79"/>
              </g>
              <g id="Grupo_86236" data-name="Grupo 86236">
                <path id="Trazado_122640" data-name="Trazado 122640" d="M50.471,31.893H36.979V25.665a3.276,3.276,0,0,1,3.276-3.276h6.939a3.276,3.276,0,0,1,3.276,3.276Z" fill="#cbc4cc"/>
              </g>
              <g id="Grupo_86237" data-name="Grupo 86237">
                <path id="Trazado_122641" data-name="Trazado 122641" d="M27.742,31.893H61.972V81.645H27.742Z" fill="#3ec3a4"/>
              </g>
              <g id="Grupo_86238" data-name="Grupo 86238">
                <path id="Trazado_122642" data-name="Trazado 122642" d="M27.742,74.555H61.972v7.09H27.742Z" fill="#0bb494"/>
              </g>
              <g id="Grupo_86239" data-name="Grupo 86239">
                <path id="Trazado_122643" data-name="Trazado 122643" d="M98.174,39.212v18.7a2.515,2.515,0,0,0,2.515,2.515h18.451a4.067,4.067,0,0,0-.245-.772l-7.778-17.992a4.066,4.066,0,0,0-3.732-2.452Z" fill="#f3eae6"/>
              </g>
              <g id="Grupo_86240" data-name="Grupo 86240">
                <path id="Trazado_122644" data-name="Trazado 122644" d="M118.895,59.657l-7.778-17.992a4.066,4.066,0,0,0-3.732-2.452h-7.09a4.066,4.066,0,0,1,3.732,2.452L111.8,59.657a4.05,4.05,0,0,1,.245.772h7.09A4.049,4.049,0,0,0,118.895,59.657Z" fill="#e9e0dc"/>
              </g>
              <g id="Grupo_86241" data-name="Grupo 86241">
                <path id="Trazado_122645" data-name="Trazado 122645" d="M114.66,68.477a3.088,3.088,0,0,0-3.088,3.088V81.645h7.657V68.477Z" fill="#ffd15b"/>
              </g>
              <g id="Grupo_86242" data-name="Grupo 86242">
                <ellipse id="Elipse_5149" data-name="Elipse 5149" cx="12.069" cy="11.997" rx="12.069" ry="11.997" transform="translate(84.329 74.619)" fill="#b5adb6"/>
              </g>
              <g id="Grupo_86243" data-name="Grupo 86243">
                <path id="Trazado_122646" data-name="Trazado 122646" d="M100.632,86.616A4.234,4.234,0,1,1,96.4,82.407,4.222,4.222,0,0,1,100.632,86.616Z" fill="#faf7f7"/>
              </g>
              <g id="Grupo_86244" data-name="Grupo 86244">
                <path id="Trazado_122647" data-name="Trazado 122647" d="M96.4,74.619a12.124,12.124,0,0,0-3.661.564,11.977,11.977,0,0,1,0,22.866A12.01,12.01,0,1,0,96.4,74.619Z" fill="#a79ba7"/>
              </g>
              <g id="Grupo_86245" data-name="Grupo 86245">
                <ellipse id="Elipse_5150" data-name="Elipse 5150" cx="12.069" cy="11.997" rx="12.069" ry="11.997" transform="translate(34.199 74.619)" fill="#b5adb6"/>
              </g>
              <g id="Grupo_86246" data-name="Grupo 86246">
                <ellipse id="Elipse_5151" data-name="Elipse 5151" cx="4.234" cy="4.209" rx="4.234" ry="4.209" transform="translate(42.033 82.406)" fill="#faf7f7"/>
              </g>
              <g id="Grupo_86247" data-name="Grupo 86247">
                <path id="Trazado_122648" data-name="Trazado 122648" d="M46.267,74.619a12.123,12.123,0,0,0-3.661.564,11.978,11.978,0,0,1,0,22.866,12.01,12.01,0,1,0,3.661-23.43Z" fill="#a79ba7"/>
              </g>
              <g id="Grupo_86248" data-name="Grupo 86248">
                <ellipse id="Elipse_5152" data-name="Elipse 5152" cx="12.069" cy="11.997" rx="12.069" ry="11.997" transform="translate(10.061 74.619)" fill="#b5adb6"/>
              </g>
              <g id="Grupo_86249" data-name="Grupo 86249">
                <ellipse id="Elipse_5153" data-name="Elipse 5153" cx="4.234" cy="4.209" rx="4.234" ry="4.209" transform="translate(17.896 82.406)" fill="#faf7f7"/>
              </g>
              <g id="Grupo_86250" data-name="Grupo 86250">
                <path id="Trazado_122649" data-name="Trazado 122649" d="M22.13,74.619a12.124,12.124,0,0,0-3.661.564,11.977,11.977,0,0,1,0,22.866,12.01,12.01,0,1,0,3.661-23.43Z" fill="#a79ba7"/>
              </g>
            </g>
            <g id="Grupo_86252" data-name="Grupo 86252">
              <path id="Trazado_122650" data-name="Trazado 122650" d="M120.521,58.953l-7.778-17.992a5.834,5.834,0,0,0-5.359-3.522H92.007a5.845,5.845,0,0,0-5.838,5.838v.1A26.492,26.492,0,0,0,63.237,30.12H52.244V25.665A5.055,5.055,0,0,0,47.2,20.616H40.256a5.055,5.055,0,0,0-5.049,5.049V30.12h-8.73A26.507,26.507,0,0,0,0,56.6v.344A26.387,26.387,0,0,0,11.009,78.429a13.82,13.82,0,0,0-.94,1.444H4.32A3.7,3.7,0,0,0,.625,83.567v3.912A3.7,3.7,0,0,0,4.32,91.174H9.072A13.863,13.863,0,0,0,34.2,93.345a13.863,13.863,0,0,0,25.127-2.171h6.5a1.772,1.772,0,0,0,0-3.545H60.067c.025-.335.042-.672.042-1.013a13.672,13.672,0,0,0-.381-3.2H82.937a13.684,13.684,0,0,0-.381,3.2c0,.341.017.678.041,1.013H74.1a1.772,1.772,0,1,0,0,3.545h9.243a13.862,13.862,0,0,0,26.116,0h7.85A3.7,3.7,0,0,0,121,87.479V61.27a5.8,5.8,0,0,0-.479-2.317Zm-3.066,20.919h-4.112V71.566a1.317,1.317,0,0,1,1.316-1.316h2.8Zm-7.966-37.5,7.041,16.288H100.688a.743.743,0,0,1-.742-.742V40.985h7.439a2.292,2.292,0,0,1,2.1,1.383Zm-19.777.91a2.3,2.3,0,0,1,2.293-2.293H96.4V57.914a4.292,4.292,0,0,0,4.287,4.287h16.768v4.5h-2.8a4.866,4.866,0,0,0-4.861,4.861v8.307h-1.175c-.054,0-.108,0-.161.008a13.866,13.866,0,0,0-18.75-5.317ZM86.168,56.6v.344A22.959,22.959,0,0,1,63.744,79.866V33.672A22.958,22.958,0,0,1,86.168,56.6ZM38.752,25.665a1.506,1.506,0,0,1,1.5-1.5h6.939a1.506,1.506,0,0,1,1.5,1.5V30.12H38.752V25.665ZM3.545,56.941V56.6A22.959,22.959,0,0,1,25.97,33.672V46.515a1.772,1.772,0,0,0,3.545,0V33.665H60.2V79.873h-1.87a13.865,13.865,0,0,0-24.13.013,13.9,13.9,0,0,0-4.684-4.907V54.787a1.772,1.772,0,0,0-3.545,0v18.6a13.853,13.853,0,0,0-12.461,2.466A22.863,22.863,0,0,1,3.545,56.941ZM4.32,87.629a.15.15,0,0,1-.15-.15V83.567a.15.15,0,0,1,.15-.15H8.67a13.672,13.672,0,0,0-.381,3.2c0,.341.017.678.041,1.013H4.32ZM22.13,96.84a10.225,10.225,0,1,1,10.3-10.224A10.272,10.272,0,0,1,22.13,96.84Zm24.137,0a10.225,10.225,0,1,1,10.3-10.224,10.272,10.272,0,0,1-10.3,10.224ZM76.459,79.873a26.675,26.675,0,0,0,9.709-9.709v7.154c0,.01,0,.02,0,.031a13.847,13.847,0,0,0-1.833,2.524ZM96.4,96.84a10.225,10.225,0,1,1,10.3-10.224A10.272,10.272,0,0,1,96.4,96.84Zm21.058-9.36a.15.15,0,0,1-.15.15H110.2c.025-.335.042-.672.042-1.013a13.672,13.672,0,0,0-.381-3.2h7.6Z"/>
              <path id="Trazado_122651" data-name="Trazado 122651" d="M98.174,70.25h4.384a1.772,1.772,0,0,0,0-3.545H98.174a1.772,1.772,0,0,0,0,3.545Z"/>
              <path id="Trazado_122652" data-name="Trazado 122652" d="M96.4,80.634a5.982,5.982,0,1,0,6.007,5.981A6,6,0,0,0,96.4,80.634Zm0,8.418a2.437,2.437,0,1,1,2.462-2.437A2.452,2.452,0,0,1,96.4,89.052Z"/>
              <path id="Trazado_122653" data-name="Trazado 122653" d="M46.267,80.634a5.982,5.982,0,1,0,6.007,5.981,6,6,0,0,0-6.007-5.981Zm0,8.418a2.437,2.437,0,1,1,2.462-2.437,2.452,2.452,0,0,1-2.462,2.437Z"/>
              <path id="Trazado_122654" data-name="Trazado 122654" d="M22.13,80.634a5.982,5.982,0,1,0,6.007,5.981A6,6,0,0,0,22.13,80.634Zm0,8.418a2.437,2.437,0,1,1,2.462-2.437A2.452,2.452,0,0,1,22.13,89.052Z"/>
              <path id="Trazado_122655" data-name="Trazado 122655" d="M36.639,42.091H53.074a1.772,1.772,0,0,0,0-3.545H36.639a1.772,1.772,0,0,0,0,3.545Z"/>
              <path id="Trazado_122656" data-name="Trazado 122656" d="M53.074,46.428H42.726a1.772,1.772,0,1,0,0,3.545H53.074a1.772,1.772,0,1,0,0-3.545Z"/>
            </g>
          </g>
        </g>
        <g id="Enmascarar_grupo_162" data-name="Enmascarar grupo 162" clip-path="url(#clip-path-3)">
          <g id="combustible-fosil" transform="translate(668 11852)">
            <g id="Grupo_86254" data-name="Grupo 86254">
              <g id="Grupo_86253" data-name="Grupo 86253">
                <path id="Trazado_122657" data-name="Trazado 122657" d="M85.99,54.764l17.07,1.146V45.331l-5.741-.576-6.78.576Zm-24.773,0L78.28,55.909V45.331l-5.735-.69-6.78.69Z" fill="#61a2f9" fill-rule="evenodd"/>
                <path id="Trazado_122658" data-name="Trazado 122658" d="M97.319,54.764h5.741V45.331H97.319Zm-24.773,0H78.28V45.331H72.545Z" fill="#5490f9" fill-rule="evenodd"/>
                <path id="Trazado_122659" data-name="Trazado 122659" d="M103.06,45.331V39.737a1.645,1.645,0,0,0-1.836-1.836H95.952a2.736,2.736,0,0,0-2.633,1.655l-2.78,5.775H103.06Zm-24.78,0H65.766l2.78-5.775A2.736,2.736,0,0,1,71.179,37.9h5.265a1.642,1.642,0,0,1,1.836,1.836v5.594Z" fill="#d57080" fill-rule="evenodd"/>
                <path id="Trazado_122660" data-name="Trazado 122660" d="M103.06,45.331V39.737a1.645,1.645,0,0,0-1.836-1.836H95.952c-.081,0-.161,0-.241.007a1.613,1.613,0,0,1,1.608,1.829v5.594h5.741Zm-24.78,0H72.545V39.737a1.618,1.618,0,0,0-1.614-1.829c.08-.007.161-.007.248-.007h5.265a1.642,1.642,0,0,1,1.836,1.836Z" fill="#cb5769" fill-rule="evenodd"/>
                <path id="Trazado_122661" data-name="Trazado 122661" d="M113.953,85.506H55.228L47.752,54.764h64.366a1.625,1.625,0,0,1,1.836,1.836Z" fill="#90d8f9" fill-rule="evenodd"/>
                <path id="Trazado_122662" data-name="Trazado 122662" d="M18.523,31.4H44.9v8.18H18.523Z" fill="#90d8f9" fill-rule="evenodd"/>
                <path id="Trazado_122663" data-name="Trazado 122663" d="M16.915,20.585h29.59c1.213,0,1.7.456,1.306,1.755L44.9,32.054H18.523L15.609,22.34c-.355-1.179.081-1.755,1.306-1.755ZM7.048,84.354l23.916,1.38,25.41-1.38L44.9,38.934H18.523Z" fill="#f9f7f8" fill-rule="evenodd"/>
                <path id="Trazado_122664" data-name="Trazado 122664" d="M3.611,84.354H117.4a1.847,1.847,0,0,1,1.836,1.836v5.969a1.847,1.847,0,0,1-1.836,1.836H3.611a1.843,1.843,0,0,1-1.836-1.836V86.19a1.843,1.843,0,0,1,1.836-1.836Z" fill="#b57f5f" fill-rule="evenodd"/>
                <path id="Trazado_122665" data-name="Trazado 122665" d="M111.662,84.354H117.4a1.847,1.847,0,0,1,1.836,1.836v5.969a1.847,1.847,0,0,1-1.836,1.836h-5.734a1.847,1.847,0,0,0,1.836-1.836V86.19A1.847,1.847,0,0,0,111.662,84.354Z" fill="#966a5b" fill-rule="evenodd"/>
                <path id="Trazado_122666" data-name="Trazado 122666" d="M40.771,20.585h5.735c1.213,0,1.7.456,1.306,1.755L44.9,32.054H39.163l2.914-9.714c.4-1.3-.094-1.755-1.306-1.755Zm9.868,63.769h5.735L44.9,38.934H39.163Z" fill="#dddaec" fill-rule="evenodd"/>
                <path id="Trazado_122667" data-name="Trazado 122667" d="M113.953,84.354h-5.735V56.6a1.625,1.625,0,0,0-1.836-1.836h5.735a1.625,1.625,0,0,1,1.836,1.836Z" fill="#80b4fb" fill-rule="evenodd"/>
                <path id="Trazado_122668" data-name="Trazado 122668" d="M31.714,70.265a8.622,8.622,0,1,0-8.622-8.622A8.636,8.636,0,0,0,31.714,70.265Z" fill="#d57080" fill-rule="evenodd"/>
                <path id="Trazado_122669" data-name="Trazado 122669" d="M31.714,53.022A8.622,8.622,0,1,1,28.84,69.776a8.624,8.624,0,0,0,0-16.266A8.659,8.659,0,0,1,31.714,53.022Z" fill="#cb5769" fill-rule="evenodd"/>
                <path id="Trazado_122670" data-name="Trazado 122670" d="M60.5,118.774A19.558,19.558,0,1,0,40.945,99.213,19.6,19.6,0,0,0,60.5,118.774Z" fill="#ffe09f" fill-rule="evenodd"/>
                <path id="Trazado_122671" data-name="Trazado 122671" d="M60.5,79.658a19.558,19.558,0,1,1,0,39.116,19.338,19.338,0,0,1-2.867-.214,19.559,19.559,0,0,0,0-38.694A20.274,20.274,0,0,1,60.5,79.658Z" fill="#f6d190" fill-rule="evenodd"/>
              </g>
              <path id="Trazado_122672" data-name="Trazado 122672" d="M55.389,108.94l-5.728-10a1.82,1.82,0,0,1,.4-2.291L58.028,89a1.824,1.824,0,0,1,2.016-.342l8.776,4.067a1.806,1.806,0,0,1,1,1.192l1.668,5a1.838,1.838,0,0,1-.013,1.2L68.3,108.732a1.823,1.823,0,0,1-1.708,1.2H57.01a1.822,1.822,0,0,1-1.621-.991Z" fill="#365e7d"/>
              <path id="Trazado_122673" data-name="Trazado 122673" d="M57.057,89.934,58.028,89a1.824,1.824,0,0,1,2.016-.342l8.776,4.067a1.806,1.806,0,0,1,1,1.192l1.668,5a1.838,1.838,0,0,1-.013,1.2L68.3,108.732a1.823,1.823,0,0,1-1.708,1.2H60.862a1.823,1.823,0,0,0,1.708-1.2l3.169-8.608a1.841,1.841,0,0,0,.013-1.2l-1.668-5a1.805,1.805,0,0,0-1-1.192Z" fill="#2b4d66"/>
              <path id="Trazado_122674" data-name="Trazado 122674" d="M65.431,62.22h4.133A1.839,1.839,0,0,1,71.4,64.055v7.108A1.838,1.838,0,0,1,69.564,73H65.431A1.837,1.837,0,0,1,63.6,71.163V64.055A1.837,1.837,0,0,1,65.431,62.22Zm31.66,0h4.133a1.843,1.843,0,0,1,1.836,1.836v7.108A1.843,1.843,0,0,1,101.224,73H97.091a1.843,1.843,0,0,1-1.836-1.836V64.055A1.843,1.843,0,0,1,97.091,62.22Zm-15.83,0h4.133a1.843,1.843,0,0,1,1.836,1.836v7.108A1.843,1.843,0,0,1,85.394,73H81.261a1.843,1.843,0,0,1-1.836-1.836V64.055A1.843,1.843,0,0,1,81.261,62.22Z" fill="#d3effb" fill-rule="evenodd"/>
              <path id="Trazado_122675" data-name="Trazado 122675" d="M39.163,32.053H44.9v6.88H39.163Z" fill="#80b4fb" fill-rule="evenodd"/>
            </g>
            <path id="Trazado_122676" data-name="Trazado 122676" d="M60.5,77.883a21.241,21.241,0,0,1,13.358,4.7h38.326v-9.01a1.772,1.772,0,1,1,3.544,0v9.01h3.5A1.767,1.767,0,0,1,121,84.354v9.64a1.767,1.767,0,0,1-1.768,1.768H81.556a21.715,21.715,0,0,1,.275,3.45,21.33,21.33,0,1,1-42.66,0,20.94,20.94,0,0,1,.281-3.45H1.775A1.773,1.773,0,0,1,0,93.994v-9.64a1.773,1.773,0,0,1,1.775-1.769h3.9l4.408-17.478a1.772,1.772,0,1,1,3.436.864L9.325,82.585H47.142a21.287,21.287,0,0,1,6.089-3.43L43.524,40.709H19.9L15.482,58.18a1.768,1.768,0,1,1-3.43-.858l4.7-18.6V32.3L13.385,21.087a1.775,1.775,0,0,1,1.695-2.278H27.694a1.772,1.772,0,1,1,0,3.544H17.458l2.378,7.925H43.585l2.378-7.925H35.727a1.772,1.772,0,1,1,0-3.544H48.341a1.772,1.772,0,0,1,1.668,2.378L46.673,32.3v6.425l3.6,14.262H60.1q3.8-7.868,7.59-15.736a1.769,1.769,0,0,1,1.648-1.125h8.937A1.778,1.778,0,0,1,80.055,37.9V52.988h4.83q3.788-7.868,7.584-15.736a1.776,1.776,0,0,1,1.648-1.125h8.943a1.773,1.773,0,0,1,1.768,1.775V52.988h9.124a1.778,1.778,0,0,1,1.775,1.775V65.542a1.772,1.772,0,1,1-3.544,0v-9H51.175l5.473,21.692a21.53,21.53,0,0,1,3.852-.348ZM25.671,13.718a1.77,1.77,0,1,1-3.5.5,4.968,4.968,0,0,0-.476-1.159,5.582,5.582,0,0,1-.824-3.1,5.586,5.586,0,0,1,1.407-2.894,4.086,4.086,0,0,0,.7-1.079A3.958,3.958,0,0,0,22.5,4.781,7.008,7.008,0,0,1,21.672,2.4a1.768,1.768,0,0,1,3.517-.362,4.821,4.821,0,0,0,.483,1.179,5.551,5.551,0,0,1,.824,3.1,5.56,5.56,0,0,1-1.407,2.887,4.2,4.2,0,0,0-.7,1.085,3.872,3.872,0,0,0,.482,1.2,7.544,7.544,0,0,1,.8,2.224Zm16.058,0a1.77,1.77,0,0,1-3.5.5,4.968,4.968,0,0,0-.476-1.159,5.637,5.637,0,0,1-.824-3.1,5.586,5.586,0,0,1,1.407-2.894,3.913,3.913,0,0,0,.7-1.079,4.069,4.069,0,0,0-.475-1.206A6.878,6.878,0,0,1,37.73,2.4a1.768,1.768,0,0,1,3.517-.362,4.819,4.819,0,0,0,.482,1.179,5.551,5.551,0,0,1,.824,3.1,5.561,5.561,0,0,1-1.407,2.887,4.2,4.2,0,0,0-.7,1.085,3.874,3.874,0,0,0,.482,1.2,7.355,7.355,0,0,1,.8,2.224Zm-8.025,0a1.77,1.77,0,0,1-3.5.5,5.279,5.279,0,0,0-.476-1.159,5.585,5.585,0,0,1-.831-3.1,5.592,5.592,0,0,1,1.413-2.894,4.269,4.269,0,0,0,.7-1.079,4.146,4.146,0,0,0-.482-1.206A6.869,6.869,0,0,1,29.7,2.4a1.768,1.768,0,0,1,3.517-.362A5.023,5.023,0,0,0,33.7,3.22a5.556,5.556,0,0,1,.831,3.1,5.57,5.57,0,0,1-1.413,2.887,4.4,4.4,0,0,0-.7,1.085,4.056,4.056,0,0,0,.482,1.2,7.373,7.373,0,0,1,.811,2.224Zm-1.99,37.535a10.395,10.395,0,1,1-7.349,3.041A10.389,10.389,0,0,1,31.714,51.253ZM36.551,56.8a6.841,6.841,0,1,0,2.01,4.844A6.814,6.814,0,0,0,36.551,56.8Zm56.8-13.244h7.932V39.677H95.229Zm7.932,3.544h-9.64l-2.834,5.889h12.474Zm-24.773,0h-9.64l-2.84,5.889H76.511Zm-7.932-3.544h7.932V39.677H70.449ZM63.6,60.445h7.8a1.773,1.773,0,0,1,1.769,1.775V73A1.773,1.773,0,0,1,71.4,74.774H63.6A1.774,1.774,0,0,1,61.826,73V62.22A1.774,1.774,0,0,1,63.6,60.445Zm6.022,3.544H65.37V71.23h4.254Zm25.631-3.544h7.8a1.772,1.772,0,0,1,1.768,1.775V73a1.773,1.773,0,0,1-1.768,1.775h-7.8A1.772,1.772,0,0,1,93.487,73V62.22a1.772,1.772,0,0,1,1.768-1.775Zm6.029,3.544H97.031V71.23h4.254ZM79.425,60.445h7.8A1.772,1.772,0,0,1,89,62.22V73a1.773,1.773,0,0,1-1.768,1.775h-7.8A1.772,1.772,0,0,1,77.657,73V62.22a1.772,1.772,0,0,1,1.768-1.775Zm6.029,3.544H81.2V71.23h4.254ZM20.292,37.165H43.129V33.822H20.292ZM77.348,86.129a21.294,21.294,0,0,1,3.31,6.089h36.8V86.129H77.348ZM40.342,92.219a21.147,21.147,0,0,1,3.316-6.089H3.544v6.089Zm7.784,7.6a3.553,3.553,0,0,1-.422-2.4,3.649,3.649,0,0,1,1.179-2.09l7.918-7.6a3.58,3.58,0,0,1,3.986-.67l8.776,4.06a3.626,3.626,0,0,1,1.246.958,3.511,3.511,0,0,1,.71,1.367l1.641,4.931a3.6,3.6,0,0,1-.027,2.358l-3.169,8.608A3.611,3.611,0,0,1,66.6,111.7H57.01a3.6,3.6,0,0,1-3.155-1.882Zm3.142-1.641,5.728,10c.02.04,0-.02.054-.02H66.6c.034,0,.034,0,.047-.027l3.168-8.615a.059.059,0,0,0-.007-.047l-1.661-4.991c-.013-.034-.094-.161-.134-.174l-8.7-4.033a.052.052,0,0,0-.054.013L51.3,97.92c-.1.073-.054.2-.027.254ZM73.074,86.638a17.774,17.774,0,1,0,5.212,12.574A17.736,17.736,0,0,0,73.074,86.638Z"/>
          </g>
        </g>
        <g id="Enmascarar_grupo_163" data-name="Enmascarar grupo 163" clip-path="url(#clip-path-4)">
          <g id="gasolinera" transform="translate(955 11852.5)">
            <g id="Grupo_86269" data-name="Grupo 86269">
              <g id="Grupo_86255" data-name="Grupo 86255">
                <path id="Trazado_122677" data-name="Trazado 122677" d="M48.387,36.774H71.613V120H48.387Z" fill="#ccd1d9"/>
              </g>
              <g id="Grupo_86256" data-name="Grupo 86256">
                <path id="Trazado_122678" data-name="Trazado 122678" d="M110.323,60v3.871H67.742V60a3.882,3.882,0,0,1,3.871-3.871h34.839A3.882,3.882,0,0,1,110.323,60Z" fill="#aab2bd"/>
              </g>
              <g id="Grupo_86257" data-name="Grupo 86257">
                <path id="Trazado_122679" data-name="Trazado 122679" d="M52.258,60v3.871H9.677V60a3.882,3.882,0,0,1,3.871-3.871H48.387A3.882,3.882,0,0,1,52.258,60Z" fill="#aab2bd"/>
              </g>
              <g id="Grupo_86258" data-name="Grupo 86258">
                <path id="Trazado_122680" data-name="Trazado 122680" d="M106.452,118.065H71.613a3.87,3.87,0,0,1-3.871-3.871V63.871h42.581v50.323A3.87,3.87,0,0,1,106.452,118.065Z" fill="#e6e9ed"/>
              </g>
              <g id="Grupo_86259" data-name="Grupo 86259">
                <path id="Trazado_122681" data-name="Trazado 122681" d="M48.387,118.065H13.548a3.87,3.87,0,0,1-3.871-3.871V63.871H52.258v50.323A3.87,3.87,0,0,1,48.387,118.065Z" fill="#e6e9ed"/>
              </g>
              <g id="Grupo_86260" data-name="Grupo 86260">
                <path id="Trazado_122682" data-name="Trazado 122682" d="M118.065,92.9v1.935a3.882,3.882,0,0,1-3.871,3.871,3.9,3.9,0,0,1-3.871-3.871V90.968a3.882,3.882,0,0,1,3.871-3.871h3.871Z" fill="#838f9b"/>
              </g>
              <g id="Grupo_86261" data-name="Grupo 86261">
                <path id="Trazado_122683" data-name="Trazado 122683" d="M9.677,90.968v3.871a3.784,3.784,0,0,1-1.142,2.729A3.784,3.784,0,0,1,5.806,98.71a3.882,3.882,0,0,1-3.871-3.871V87.1H5.806A3.882,3.882,0,0,1,9.677,90.968Z" fill="#838f9b"/>
              </g>
              <g id="Grupo_86262" data-name="Grupo 86262">
                <path id="Trazado_122684" data-name="Trazado 122684" d="M110.323,94.839v15.484H99.1A24.073,24.073,0,0,1,75.484,90.968h34.839Z" fill="#b4dd7f"/>
              </g>
              <g id="Grupo_86263" data-name="Grupo 86263">
                <path id="Trazado_122685" data-name="Trazado 122685" d="M9.677,90.968H44.516A24.073,24.073,0,0,1,20.9,110.323H9.677V90.968Z" fill="#b4dd7f"/>
              </g>
              <g id="Grupo_86264" data-name="Grupo 86264">
                <path id="Trazado_122686" data-name="Trazado 122686" d="M74.71,13.548H9.677A7.74,7.74,0,0,0,1.935,21.29V36.774H74.71a23.323,23.323,0,0,1,0-23.226Z" fill="#fcd770"/>
              </g>
              <g id="Grupo_86265" data-name="Grupo 86265">
                <path id="Trazado_122687" data-name="Trazado 122687" d="M74.71,36.774A23.235,23.235,0,1,1,94.839,48.387,23.189,23.189,0,0,1,74.71,36.774Z" fill="#ffeaa7"/>
              </g>
              <g id="Grupo_86266" data-name="Grupo 86266">
                <path id="Trazado_122688" data-name="Trazado 122688" d="M87.1,32.9l-1.084-5.458a11.6,11.6,0,0,1,11.381-13.9h9.058V21.29A11.622,11.622,0,0,1,94.839,32.9Z" fill="#b4dd7f"/>
              </g>
              <g id="Grupo_86267" data-name="Grupo 86267">
                <path id="Trazado_122689" data-name="Trazado 122689" d="M75.484,71.613h27.1V83.226h-27.1Z" fill="#69d6f4"/>
              </g>
              <g id="Grupo_86268" data-name="Grupo 86268">
                <path id="Trazado_122690" data-name="Trazado 122690" d="M17.419,71.613h27.1V83.226h-27.1Z" fill="#69d6f4"/>
              </g>
            </g>
            <g id="Grupo_86270" data-name="Grupo 86270">
              <path id="Trazado_122691" data-name="Trazado 122691" d="M84.594,38.143l3.3-3.3h6.941A13.563,13.563,0,0,0,108.387,21.29V11.613h-11A13.547,13.547,0,0,0,84.106,27.819l.888,4.448-3.139,3.139ZM87.9,27.058a9.677,9.677,0,0,1,9.49-11.574h7.125V21.29a9.688,9.688,0,0,1-9.677,9.677h-3.07l8.309-8.309-2.737-2.737-9.056,9.056Z"/>
              <path id="Trazado_122692" data-name="Trazado 122692" d="M115.6,70.937l-3.345-.836V60a5.814,5.814,0,0,0-5.806-5.806h-32.9V38.71h.122a25.161,25.161,0,1,0,0-27.1H9.677A9.688,9.688,0,0,0,0,21.29V38.71H46.452V54.194h-32.9A5.814,5.814,0,0,0,7.742,60V70.1L4.4,70.937A5.8,5.8,0,0,0,0,76.572v33.751a5.814,5.814,0,0,0,5.806,5.806H8.1A5.8,5.8,0,0,0,13.548,120H48.387a5.814,5.814,0,0,0,5.806-5.806V60a5.8,5.8,0,0,0-3.871-5.45V38.71H69.677V54.55A5.8,5.8,0,0,0,65.806,60v54.194A5.814,5.814,0,0,0,71.613,120h34.839a5.8,5.8,0,0,0,5.45-3.871h2.292A5.814,5.814,0,0,0,120,110.323V76.572A5.8,5.8,0,0,0,115.6,70.937ZM13.548,58.065H48.387A1.939,1.939,0,0,1,50.323,60v1.935H11.613V60A1.939,1.939,0,0,1,13.548,58.065ZM11.613,94.839V92.9h30.41a22.211,22.211,0,0,1-21.116,15.484H11.613ZM3.871,76.572a1.932,1.932,0,0,1,1.467-1.877l2.4-.6V85.517a5.741,5.741,0,0,0-1.935-.356H3.871Zm0,12.461H5.806a1.939,1.939,0,0,1,1.935,1.935v3.871a1.935,1.935,0,1,1-3.871,0V89.032Zm0,21.29V100.289a5.741,5.741,0,0,0,1.935.356,5.741,5.741,0,0,0,1.935-.356v11.969H5.806A1.939,1.939,0,0,1,3.871,110.323Zm44.516,5.806H13.548a1.939,1.939,0,0,1-1.935-1.935v-1.935h9.294A26.082,26.082,0,0,0,46.415,91.347l.463-2.315H11.613V65.806h38.71v48.387A1.939,1.939,0,0,1,48.387,116.129ZM94.839,3.871a21.29,21.29,0,1,1-21.29,21.29A21.315,21.315,0,0,1,94.839,3.871ZM9.677,15.484H52.142a139.208,139.208,0,0,0-16.295,7.978C25.659,29.021,16,34.274,3.871,34.788V21.29a5.814,5.814,0,0,1,5.806-5.806ZM37.7,26.861C48.428,21.01,58.558,15.484,71.613,15.484h.006a25.092,25.092,0,0,0,0,19.355H21.406A139.208,139.208,0,0,0,37.7,26.861Zm76.961,47.832a1.932,1.932,0,0,1,1.467,1.877v8.592h-1.935a5.741,5.741,0,0,0-1.935.356V74.092Zm-6.275,33.695H99.093A22.209,22.209,0,0,1,77.977,92.9h30.41v15.484ZM71.613,58.065h34.839A1.939,1.939,0,0,1,108.387,60v1.935H69.677V60A1.939,1.939,0,0,1,71.613,58.065Zm34.839,58.065H71.613a1.939,1.939,0,0,1-1.935-1.935V65.806h38.71V89.032H73.123l.463,2.315a26.082,26.082,0,0,0,25.508,20.911h9.294v1.935A1.939,1.939,0,0,1,106.452,116.129Zm7.742-3.871h-1.935V100.289a5.438,5.438,0,0,0,3.871,0v10.034A1.939,1.939,0,0,1,114.194,112.258Zm1.935-17.419a1.935,1.935,0,1,1-3.871,0V90.968a1.939,1.939,0,0,1,1.935-1.935h1.935v5.806Z"/>
              <path id="Trazado_122693" data-name="Trazado 122693" d="M104.516,69.677H73.548V85.161h30.968ZM100.645,81.29H77.419V73.548h23.226Z"/>
              <path id="Trazado_122694" data-name="Trazado 122694" d="M15.484,85.161H46.452V69.677H15.484Zm3.871-11.613H42.581V81.29H19.355Z"/>
            </g>
          </g>
        </g>
      </g>
    </g>
  </g>
</svg>
