<svg xmlns="http://www.w3.org/2000/svg" xmlns:xlink="http://www.w3.org/1999/xlink" width="190" height="134" viewBox="0 0 190 134">
  <defs>
    <clipPath id="clip-path">
      <rect id="Rect치ngulo_34648" data-name="Rect치ngulo 34648" width="102" height="102" transform="translate(224 5029)" fill="#01f6ff" stroke="#707070" stroke-width="1"/>
    </clipPath>
  </defs>
  <g id="Grupo_86309" data-name="Grupo 86309" transform="translate(-1230 -8723.023)">
    <g id="Grupo_84903" data-name="Grupo 84903" transform="translate(1050 3710.023)">
      <rect id="Rect치ngulo_33791" data-name="Rect치ngulo 33791" width="190" height="134" transform="translate(180 5013)" fill="#fff"/>
      <g id="Enmascarar_grupo_157" data-name="Enmascarar grupo 157" clip-path="url(#clip-path)">
        <g id="huella-de-carbono_1_" data-name="huella-de-carbono (1)" transform="translate(224 5029)">
          <g id="Grupo_85659" data-name="Grupo 85659">
            <g id="Grupo_85657" data-name="Grupo 85657">
              <path id="Trazado_121640" data-name="Trazado 121640" d="M34.812,22.538C11.984,53.973,56.73,60.152,64.754,78.789c12.568-26.014,9.618-66.981-29.943-56.251Z" fill="#aae79a" fill-rule="evenodd"/>
              <path id="Trazado_121641" data-name="Trazado 121641" d="M57.618,100.17C70.28,82.209,41.879,66.846,35.854,63.032,41.529,78.491,31.888,103.708,57.618,100.17Z" fill="#aae79a" fill-rule="evenodd"/>
              <path id="Trazado_121642" data-name="Trazado 121642" d="M28.661,18.4C31.7,17.317,33.1,13.474,31.8,9.815s-4.82-5.749-7.856-4.668S19.5,10.071,20.805,13.73s4.82,5.749,7.856,4.668Zm47.367,5.858c-1.824,1.447-2.472,3.91-1.447,5.5s3.334,1.706,5.158.259,2.472-3.91,1.447-5.5-3.334-1.706-5.159-.259ZM66.3,14.5c-1.614,2.146-1.576,5.049.086,6.484s4.317.86,5.931-1.285,1.576-5.049-.086-6.484S67.916,12.35,66.3,14.5ZM52.91,7.908c-.529,3.284.979,6.442,3.369,7.055s4.756-1.553,5.285-4.836-.979-6.442-3.369-7.055S53.439,4.624,52.91,7.908ZM38.135,7.813c.1,3.53,2.191,6.425,4.672,6.466s4.413-2.788,4.314-6.319-2.191-6.425-4.672-6.466S38.036,4.283,38.135,7.813Z" fill="#aae79a" fill-rule="evenodd"/>
              <path id="Trazado_121643" data-name="Trazado 121643" d="M34.812,22.538C11.984,53.973,56.73,60.152,64.754,78.789A64.952,64.952,0,0,0,67.38,72.52C56.3,56.742,19.861,49.45,37.735,21.831c-.953.206-1.923.436-2.923.707Z" fill="#6ad34d" fill-rule="evenodd"/>
              <path id="Trazado_121644" data-name="Trazado 121644" d="M41.322,66.425c-2.345-1.511-4.316-2.664-5.468-3.393,5.508,15-3.409,39.2,19.583,37.375C39.49,98.918,44.454,80.243,41.322,66.425Z" fill="#6ad34d" fill-rule="evenodd"/>
            </g>
            <g id="Grupo_85658" data-name="Grupo 85658">
              <path id="Trazado_121645" data-name="Trazado 121645" d="M59.241,32.338H56.253V29.35h2.989ZM53.264,29.35H50.276V26.361h2.989Z" fill="#fff"/>
            </g>
          </g>
          <g id="Grupo_85660" data-name="Grupo 85660">
            <path id="Trazado_121646" data-name="Trazado 121646" d="M55.907,16.411a4.75,4.75,0,0,0,1.18.149,5.051,5.051,0,0,0,2.773-.854,7.765,7.765,0,0,0,3.178-5.342c.659-4.089-1.306-7.928-4.473-8.74a4.922,4.922,0,0,0-3.953.7A7.764,7.764,0,0,0,51.434,7.67c-.659,4.089,1.306,7.928,4.473,8.74ZM54.385,8.146A4.872,4.872,0,0,1,56.25,4.828a2.045,2.045,0,0,1,1.127-.366,1.788,1.788,0,0,1,.446.057c1.629.418,2.666,2.877,2.265,5.37a4.871,4.871,0,0,1-1.866,3.317,1.921,1.921,0,0,1-1.573.309C55.02,13.1,53.983,10.639,54.385,8.146Z"/>
            <path id="Trazado_121647" data-name="Trazado 121647" d="M65.41,22.111a4.759,4.759,0,0,0,3.141,1.154,5.271,5.271,0,0,0,.557-.03,6.485,6.485,0,0,0,4.4-2.641c2.109-2.8,1.976-6.544-.3-8.513a4.808,4.808,0,0,0-3.7-1.123,6.486,6.486,0,0,0-4.4,2.641c-2.109,2.8-1.976,6.543.3,8.513ZM67.5,15.394a3.5,3.5,0,0,1,2.334-1.466,2.261,2.261,0,0,1,.237-.013,1.78,1.78,0,0,1,1.189.426c1.058.914,1,2.954-.131,4.455a3.5,3.5,0,0,1-2.333,1.466,1.84,1.84,0,0,1-1.426-.413C66.306,18.935,66.366,16.895,67.5,15.394Z"/>
            <path id="Trazado_121648" data-name="Trazado 121648" d="M29.162,19.805c3.807-1.356,5.622-6.062,4.045-10.491s-5.957-6.93-9.765-5.574S17.82,9.8,19.4,14.231c1.286,3.613,4.438,5.943,7.623,5.943A6.364,6.364,0,0,0,29.162,19.805Zm-6.95-6.577c-1.024-2.877-.023-5.87,2.232-6.673a3.466,3.466,0,0,1,1.166-.2c1.942,0,3.93,1.57,4.781,3.961,1.024,2.877.023,5.87-2.232,6.673S23.237,16.105,22.213,13.229Z"/>
            <path id="Trazado_121649" data-name="Trazado 121649" d="M42.783,15.773h.076a5.008,5.008,0,0,0,3.56-1.56,8.584,8.584,0,0,0,2.2-6.295C48.492,3.533,45.794.055,42.474,0a4.979,4.979,0,0,0-3.635,1.56,8.585,8.585,0,0,0-2.2,6.295c.123,4.386,2.821,7.864,6.141,7.918ZM40.964,3.662A2,2,0,0,1,42.4,2.989h.028c1.806.03,3.137,2.666,3.2,5.014a5.7,5.7,0,0,1-1.335,4.11,2.006,2.006,0,0,1-1.461.673c-1.806-.029-3.137-2.666-3.2-5.014a5.7,5.7,0,0,1,1.335-4.11Z"/>
            <path id="Trazado_121650" data-name="Trazado 121650" d="M82.443,23.705a4.245,4.245,0,0,0-2.92-1.894A5.705,5.705,0,0,0,75.1,23.085c-2.447,1.942-3.226,5.227-1.775,7.48a4.245,4.245,0,0,0,2.92,1.894,4.854,4.854,0,0,0,.789.064,5.91,5.91,0,0,0,3.634-1.338c2.447-1.941,3.227-5.227,1.775-7.48ZM78.81,28.844a2.775,2.775,0,0,1-2.078.666,1.259,1.259,0,0,1-.9-.564c-.6-.927-.074-2.572,1.12-3.52a2.961,2.961,0,0,1,1.777-.69,1.846,1.846,0,0,1,.3.024,1.259,1.259,0,0,1,.9.564C80.528,26.251,80,27.9,78.81,28.844Z"/>
            <path id="Trazado_121651" data-name="Trazado 121651" d="M63.068,24.685a23.248,23.248,0,0,0-11.879-5.093A42.18,42.18,0,0,0,34.42,21.1l-.508.138-.31.426c-5.37,7.4-7.483,13.921-6.459,19.951,1.617,9.526,10.783,15.883,19.648,22.032,7.2,4.992,14,9.707,16.591,15.737l1.294,3.006L66.1,79.439A68.777,68.777,0,0,0,71.213,64.7L68.3,64.045a67.664,67.664,0,0,1-3.66,11.379C61.1,69.933,54.707,65.5,48.494,61.187c-8.357-5.8-17-11.79-18.4-20.076-.829-4.882.835-10.286,5.08-16.486a62.141,62.141,0,0,1,7.365,6.5L39.538,41.375l2.869.838,2.5-8.549A77.227,77.227,0,0,1,56.076,49.958l-2.638,5.684L56.149,56.9l1.593-3.432a67.017,67.017,0,0,1,3.53,10.078l2.891-.757a72.806,72.806,0,0,0-8.812-20.15l5.319.291.163-2.984-7.528-.412a77.58,77.58,0,0,0-15.034-16.3c9.737-2.07,17.426-.819,22.881,3.739A23.431,23.431,0,0,1,68.4,38.955a46.764,46.764,0,0,1,1.25,16.428l2.977.258a49.761,49.761,0,0,0-1.351-17.495,26.346,26.346,0,0,0-8.214-13.461Z"/>
            <path id="Trazado_121652" data-name="Trazado 121652" d="M51.057,71.717l-1.943,2.271c4.631,3.963,7.728,7.894,9.205,11.685a13.318,13.318,0,0,1-.961,12.134,41.626,41.626,0,0,1-7.206-11.065L53.169,84.3,51.291,81.98l-2.332,1.884a33.8,33.8,0,0,1-1.374-4.557l-2.92.637a43.563,43.563,0,0,0,3.815,10.164l-3.133.242.23,2.98,4.5-.347a41.849,41.849,0,0,0,4.311,5.993c-4.264.211-7.431-.569-9.621-2.368-4.217-3.465-4.636-10.6-5.079-18.152a78.8,78.8,0,0,0-1.338-12.14,95.574,95.574,0,0,1,8.5,5.827l1.836-2.358A108.128,108.128,0,0,0,38.2,62.72c-.609-.371-1.136-.692-1.545-.951l-3.719-2.354,1.517,4.132c1.627,4.432,1.945,9.847,2.252,15.085.483,8.224.938,15.992,6.165,20.286,2.51,2.062,5.874,3.082,10.21,3.082a34.929,34.929,0,0,0,4.743-.35l.644-.088.374-.531c3.706-5.257,4.468-10.789,2.265-16.443C59.446,80.333,56.066,76,51.057,71.717Z"/>
            <path id="Trazado_121653" data-name="Trazado 121653" d="M69.108,58.479H72.1v2.989H69.108Z" transform="translate(-0.307 119.578) rotate(-80.387)"/>
          </g>
        </g>
      </g>
    </g>
  </g>
</svg>
