<svg xmlns="http://www.w3.org/2000/svg" xmlns:xlink="http://www.w3.org/1999/xlink" width="54" height="54" viewBox="0 0 54 54">
  <defs>
    <clipPath id="clip-path">
      <rect id="Rectángulo_34434" data-name="Rectángulo 34434" width="54" height="54" transform="translate(841 10812)" fill="#fff" stroke="#707070" stroke-width="1"/>
    </clipPath>
  </defs>
  <g id="Enmascarar_grupo_116" data-name="Enmascarar grupo 116" transform="translate(-841 -10812)" clip-path="url(#clip-path)">
    <g id="ozono" transform="translate(841 10812)">
      <g id="Grupo_84918" data-name="Grupo 84918">
        <g id="Grupo_84917" data-name="Grupo 84917">
          <circle id="Elipse_4958" data-name="Elipse 4958" cx="18.112" cy="18.112" r="18.112" transform="translate(6.544 13.576)" fill="#99e6fc"/>
          <path id="Trazado_119375" data-name="Trazado 119375" d="M36.145,17.686A18.113,18.113,0,0,1,9.426,41.493,18.113,18.113,0,1,0,36.145,17.686Z" fill="#62dbfb"/>
          <path id="Trazado_119376" data-name="Trazado 119376" d="M30.418,24.246l1.52,2.508a1.918,1.918,0,0,0,1.64.924h2.633a1.918,1.918,0,0,1,1.729,1.087l.882,1.836a1.918,1.918,0,0,0,1.708,1.087l2.238.024h0A18.112,18.112,0,0,0,24.656,13.576V21.4a1.918,1.918,0,0,0,1.918,1.918h2.2a1.918,1.918,0,0,1,1.64.924Z" fill="#a2e62e"/>
          <path id="Trazado_119377" data-name="Trazado 119377" d="M36.145,17.686a18.026,18.026,0,0,1,2.882,9.805,18.23,18.23,0,0,1-.251,3.014l.046.1a1.918,1.918,0,0,0,1.708,1.087l2.238.024h0a18.075,18.075,0,0,0-6.623-14.026Z" fill="#97d729"/>
          <path id="Trazado_119378" data-name="Trazado 119378" d="M18.138,32.5,15.42,30.347A3.215,3.215,0,0,1,14.2,27.825v-.93a3.215,3.215,0,0,0-3.215-3.215H8.407A18.117,18.117,0,0,0,24.639,49.8V44.063A3.215,3.215,0,0,0,22,40.9a3.215,3.215,0,0,1-2.64-3.163v-2.72A3.215,3.215,0,0,0,18.138,32.5Z" fill="#a2e62e"/>
          <path id="Trazado_119379" data-name="Trazado 119379" d="M20.915,45.6a18.037,18.037,0,0,1-11.489-4.11A18.1,18.1,0,0,0,24.639,49.8v-4.58A18.187,18.187,0,0,1,20.915,45.6Z" fill="#97d729"/>
          <path id="Trazado_119380" data-name="Trazado 119380" d="M25.3,31.223h4.13a1.113,1.113,0,0,1,1.113,1.113v1.227a1.113,1.113,0,0,0,1.113,1.113h1.208a1.113,1.113,0,0,1,1.113,1.113v2.753a1.113,1.113,0,0,1-1.113,1.113H28.241a1.113,1.113,0,0,1-1.113-1.113v-1.1a1.113,1.113,0,0,0-1.113-1.113H25.3a1.113,1.113,0,0,1-1.113-1.113V32.336A1.113,1.113,0,0,1,25.3,31.223Z" fill="#a2e62e"/>
        </g>
      </g>
      <g id="Grupo_84919" data-name="Grupo 84919">
        <circle id="Elipse_4959" data-name="Elipse 4959" cx="10.654" cy="10.654" r="10.654" transform="translate(29.557 0.791)" fill="#ffe177"/>
        <path id="Trazado_119381" data-name="Trazado 119381" d="M46.154,2.6A10.655,10.655,0,0,1,31.368,17.389,10.655,10.655,0,1,0,46.154,2.6Z" fill="#ffd15b"/>
      </g>
      <g id="Grupo_84920" data-name="Grupo 84920">
        <path id="Trazado_119382" data-name="Trazado 119382" d="M28.241,40.447h4.628a1.906,1.906,0,0,0,1.9-1.9V35.789a1.906,1.906,0,0,0-1.9-1.9H31.661a.323.323,0,0,1-.322-.322V32.336a1.906,1.906,0,0,0-1.9-1.9H25.3a1.906,1.906,0,0,0-1.9,1.9v2.879a1.906,1.906,0,0,0,1.9,1.9h.711a.323.323,0,0,1,.322.322v1.1a1.906,1.906,0,0,0,1.9,1.9Zm-2.227-4.909H25.3a.323.323,0,0,1-.322-.322V32.336a.323.323,0,0,1,.322-.322h4.13a.323.323,0,0,1,.322.322v1.227a1.906,1.906,0,0,0,1.9,1.9h1.208a.323.323,0,0,1,.322.322v2.753a.323.323,0,0,1-.322.322H28.241a.323.323,0,0,1-.322-.322v-1.1a1.906,1.906,0,0,0-1.9-1.9Z"/>
        <path id="Trazado_119383" data-name="Trazado 119383" d="M24.1,10.726a.791.791,0,0,0,1.119,0L27.346,8.6a.791.791,0,0,0-1.119-1.119l-.78.78V.791a.791.791,0,1,0-1.582,0V8.257l-.78-.78a.791.791,0,0,0-1.119,1.119Z"/>
        <path id="Trazado_119384" data-name="Trazado 119384" d="M16.639,8.6a.791.791,0,0,0,1.119,0l2.131-2.131A.791.791,0,1,0,18.77,5.346l-.78.78V.791a.791.791,0,1,0-1.582,0V6.126l-.781-.781a.791.791,0,1,0-1.118,1.119Z"/>
        <path id="Trazado_119385" data-name="Trazado 119385" d="M45.325,6.87a2.5,2.5,0,0,0-2.449,2.013.791.791,0,1,0,1.552.3.914.914,0,1,1,.9,1.092.791.791,0,0,0,0,1.582.915.915,0,1,1-.914.914.791.791,0,0,0-1.582,0,2.5,2.5,0,1,0,4.991,0,2.487,2.487,0,0,0-.674-1.7,2.495,2.495,0,0,0-1.821-4.2Z"/>
        <path id="Trazado_119386" data-name="Trazado 119386" d="M36.8,7.245a4.2,4.2,0,1,0,4.2,4.2,4.205,4.205,0,0,0-4.2-4.2Zm0,6.819a2.618,2.618,0,1,1,2.618-2.618A2.621,2.621,0,0,1,36.8,14.063Z"/>
        <path id="Trazado_119387" data-name="Trazado 119387" d="M51.656,11.445a11.447,11.447,0,0,0-2.718-7.4.791.791,0,1,0-1.206,1.024,9.853,9.853,0,1,1-2.617-2.178A.791.791,0,1,0,45.9,1.516,11.447,11.447,0,0,0,28.911,13.266,18.906,18.906,0,0,0,5.76,31.2a.791.791,0,0,0,.771.811h.02a.791.791,0,0,0,.79-.771A17.259,17.259,0,0,1,8.9,24.471h2.082a2.427,2.427,0,0,1,2.424,2.424v.93a3.984,3.984,0,0,0,1.521,3.142l2.718,2.149a2.411,2.411,0,0,1,.921,1.9v2.72a4,4,0,0,0,3.289,3.941,2.423,2.423,0,0,1,1.99,2.385v4.925A17.325,17.325,0,0,1,7.607,34.76a.791.791,0,1,0-1.557.279A18.908,18.908,0,0,0,24.656,50.59a18.7,18.7,0,0,0,8.632-2.082,19.069,19.069,0,0,0,6.549-5.557.791.791,0,1,0-1.27-.944,17.48,17.48,0,0,1-6,5.094A17.091,17.091,0,0,1,25.43,48.99V44.063a4,4,0,0,0-3.289-3.941,2.423,2.423,0,0,1-1.99-2.385v-2.72a3.984,3.984,0,0,0-1.521-3.142l-2.718-2.149a2.411,2.411,0,0,1-.921-1.9v-.93a4.01,4.01,0,0,0-4.006-4.006H9.729a17.409,17.409,0,0,1,2.826-3.594,17.215,17.215,0,0,1,11.31-4.909V21.4a2.712,2.712,0,0,0,2.709,2.709h2.2a1.133,1.133,0,0,1,.964.543l1.52,2.508a2.724,2.724,0,0,0,2.317,1.3h2.633a1.133,1.133,0,0,1,1.016.639l.882,1.836a2.692,2.692,0,0,0,2.412,1.536l1.436.016a17.133,17.133,0,0,1-1.585,6.484.791.791,0,1,0,1.435.667,18.941,18.941,0,0,0-.447-16.813,11.365,11.365,0,0,0,1.876-.349A20.731,20.731,0,1,1,18.071,12.025a.791.791,0,1,0-.5-1.5A22.313,22.313,0,1,0,44.736,21.956a11.461,11.461,0,0,0,6.92-10.511ZM39.535,30.259l-.882-1.836a2.723,2.723,0,0,0-2.442-1.536H33.578a1.133,1.133,0,0,1-.964-.543l-1.52-2.508a2.724,2.724,0,0,0-2.317-1.3h-2.2A1.128,1.128,0,0,1,25.447,21.4V14.387a17.331,17.331,0,0,1,3.887.622,11.469,11.469,0,0,0,10.231,7.863,17.256,17.256,0,0,1,2.392,8.042L40.538,30.9a1.12,1.12,0,0,1-1-.639Z"/>
      </g>
    </g>
  </g>
</svg>
