<svg xmlns="http://www.w3.org/2000/svg" xmlns:xlink="http://www.w3.org/1999/xlink" width="54" height="54" viewBox="0 0 54 54">
  <defs>
    <clipPath id="clip-path">
      <rect id="Rectángulo_34435" data-name="Rectángulo 34435" width="54" height="54" transform="translate(1156 10812)" fill="#fff" stroke="#707070" stroke-width="1"/>
    </clipPath>
  </defs>
  <g id="Enmascarar_grupo_117" data-name="Enmascarar grupo 117" transform="translate(-1156 -10812)" clip-path="url(#clip-path)">
    <g id="acidificacion-oceanica" transform="translate(1156 10812)">
      <g id="Grupo_84921" data-name="Grupo 84921">
        <path id="Trazado_119388" data-name="Trazado 119388" d="M52.682,49.043H1.318a.527.527,0,0,1-.527-.527V45.773H53.209v2.742A.527.527,0,0,1,52.682,49.043Z" fill="#e29a6c"/>
        <path id="Trazado_119389" data-name="Trazado 119389" d="M53.209,45.773v2.742a.528.528,0,0,1-.527.527H49.518a.528.528,0,0,0,.527-.527V45.773Z" fill="#ce845c"/>
        <path id="Trazado_119390" data-name="Trazado 119390" d="M.791,45.773V37.125A1.055,1.055,0,0,1,1.846,36.07H14.174a19.416,19.416,0,0,0,13.47-5.433l.232-.223a13.711,13.711,0,0,1,9.512-3.836h4.345a13.711,13.711,0,0,1,11.238,5.856,1.32,1.32,0,0,1,.238.756V45.773Z" fill="#71ddf9"/>
        <path id="Trazado_119391" data-name="Trazado 119391" d="M53.209,33.19V45.773H50.045V33.19a1.318,1.318,0,0,0-.238-.756,13.712,13.712,0,0,0-11.238-5.856h3.164a13.712,13.712,0,0,1,11.238,5.856A1.318,1.318,0,0,1,53.209,33.19Z" fill="#23c7f7"/>
        <path id="Trazado_119392" data-name="Trazado 119392" d="M23.823,14.857a.213.213,0,0,1-.14-.251,7.881,7.881,0,0,0,.2-1.9A8,8,0,0,0,15.92,4.957H8.747a7.858,7.858,0,1,0-.1,15.715h1.687a.316.316,0,0,1,.316.316v5.7a.316.316,0,0,1-.316.316H8.694a.527.527,0,0,0-.424.842l3.646,4.916a.527.527,0,0,0,.847,0l3.646-4.916A.527.527,0,0,0,15.986,27H14.344a.316.316,0,0,1-.316-.316v-5.7a.316.316,0,0,1,.316-.316h1.772a.209.209,0,0,1,.213.185,5.695,5.695,0,1,0,7.495-6Z" fill="#ccf49f"/>
        <path id="Trazado_119393" data-name="Trazado 119393" d="M27.686,20.25a5.7,5.7,0,0,1-7.277,5.473,5.7,5.7,0,0,0,.251-10.865.213.213,0,0,1-.14-.251,7.843,7.843,0,0,0,.2-1.9,8,8,0,0,0-7.968-7.749h3.164a8,8,0,0,1,7.968,7.749,7.843,7.843,0,0,1-.2,1.9.213.213,0,0,0,.14.251A5.7,5.7,0,0,1,27.686,20.25Z" fill="#b3e59f"/>
        <path id="Trazado_119394" data-name="Trazado 119394" d="M47.2,34.277a2.848,2.848,0,0,0-5.33-1.395.522.522,0,0,1-.685.213,2.848,2.848,0,0,0-4.11,2.553c0,.055,0,.11.005.164a2.848,2.848,0,0,0-3.561,3.829.524.524,0,0,1-.256.691,2.848,2.848,0,0,0,1.176,5.441H48.014Z" fill="#cdf2f9"/>
        <path id="Trazado_119395" data-name="Trazado 119395" d="M50.459,37.014q.007-.1.007-.206a2.847,2.847,0,0,0-5.677-.317A2.847,2.847,0,0,0,40.5,40.222a2.848,2.848,0,0,0,.894,5.551h9.229Z" fill="#f0e5e0"/>
        <path id="Trazado_119396" data-name="Trazado 119396" d="M50.467,36.809c0,.037,0,.073,0,.109-.034,0-.069,0-.1,0a2.833,2.833,0,0,0-.316.018V35.317A2.826,2.826,0,0,1,50.467,36.809Z" fill="#e2d6d1"/>
        <path id="Trazado_119397" data-name="Trazado 119397" d="M53.209,45.773H46.67a2.848,2.848,0,1,1,.881-5.556,2.848,2.848,0,1,1,5.659-.456Z" fill="#fff"/>
        <path id="Trazado_119398" data-name="Trazado 119398" d="M53.209,39.762v6.012H50.045V36.932a2.845,2.845,0,0,1,3.164,2.83Z" fill="#f4f4f4"/>
        <path id="Trazado_119399" data-name="Trazado 119399" d="M17.666,40.922h1.055a4.219,4.219,0,0,1,4.219,4.219v.633H21.885a4.219,4.219,0,0,1-4.219-4.219Z" fill="#cdf2f9"/>
        <path id="Trazado_119400" data-name="Trazado 119400" d="M28.213,40.922H27.158a4.219,4.219,0,0,0-4.219,4.219v.633h1.055a4.219,4.219,0,0,0,4.219-4.219Z" fill="#b1f1f1"/>
        <path id="Trazado_119401" data-name="Trazado 119401" d="M3.955,40.922H5.01a4.219,4.219,0,0,1,4.219,4.219v.633H8.174a4.219,4.219,0,0,1-4.219-4.219Z" fill="#cdf2f9"/>
        <path id="Trazado_119402" data-name="Trazado 119402" d="M14.5,40.922H13.447a4.219,4.219,0,0,0-4.219,4.219v.633h1.055A4.219,4.219,0,0,0,14.5,41.555Z" fill="#b1f1f1"/>
        <path id="Trazado_119403" data-name="Trazado 119403" d="M41.713,17.824a6.434,6.434,0,1,1,6.434-6.434A6.434,6.434,0,0,1,41.713,17.824Z" fill="#ffe07d"/>
        <path id="Trazado_119404" data-name="Trazado 119404" d="M48.146,11.391a6.438,6.438,0,0,1-8.016,6.237,6.436,6.436,0,0,0,0-12.475,6.436,6.436,0,0,1,8.016,6.237Z" fill="#ffd064"/>
        <path id="Trazado_119405" data-name="Trazado 119405" d="M53.209,17.3a5.589,5.589,0,0,0-9.8-3.68.529.529,0,0,1-.672.1A4.167,4.167,0,0,0,36.586,16.2a.534.534,0,0,1-.6.376,2.861,2.861,0,0,0-3.265,2.832H52.682a.527.527,0,0,0,.527-.527Z" fill="#faf2f3"/>
        <path id="Trazado_119406" data-name="Trazado 119406" d="M53.209,17.3v1.582a.528.528,0,0,1-.527.527H49.518a.528.528,0,0,0,.527-.527V17.3a5.593,5.593,0,0,0-4.009-5.363A5.6,5.6,0,0,1,53.209,17.3Z" fill="#f0e5e0"/>
      </g>
      <g id="Grupo_84922" data-name="Grupo 84922">
        <path id="Trazado_119407" data-name="Trazado 119407" d="M41.733,25.787H37.388a14.434,14.434,0,0,0-10.061,4.058l-.232.223a18.537,18.537,0,0,1-12.922,5.211H1.846A1.848,1.848,0,0,0,0,37.125V48.516a1.32,1.32,0,0,0,1.318,1.318H46.086a.791.791,0,0,0,0-1.582H1.582V46.564H52.418v1.688h-2.64a.791.791,0,0,0,0,1.582h2.9A1.32,1.32,0,0,0,54,48.516V33.19a2.1,2.1,0,0,0-.381-1.209A14.513,14.513,0,0,0,41.733,25.787ZM1.846,36.861H14.174a20.112,20.112,0,0,0,14.019-5.654l.232-.223a12.859,12.859,0,0,1,8.963-3.615h4.345a12.929,12.929,0,0,1,10.589,5.518.526.526,0,0,1,.1.3v3.572a3.621,3.621,0,0,0-1.208-.538,3.645,3.645,0,0,0-3.392-3.048,3.639,3.639,0,0,0-6.512-.892,3.6,3.6,0,0,0-1.386-.274,3.645,3.645,0,0,0-3.554,2.855A3.639,3.639,0,0,0,32.7,39.728a3.635,3.635,0,0,0-1.263,5.254H27.643A4.99,4.99,0,0,0,29,41.555v-.633a.791.791,0,0,0-.791-.791H27.158a5.009,5.009,0,0,0-4.219,2.313,5.009,5.009,0,0,0-4.219-2.313H17.666a.791.791,0,0,0-.791.791v.633a4.99,4.99,0,0,0,1.361,3.428h-4.3a4.99,4.99,0,0,0,1.361-3.428v-.633a.791.791,0,0,0-.791-.791H13.447a5.009,5.009,0,0,0-4.219,2.313A5.009,5.009,0,0,0,5.01,40.131H3.955a.791.791,0,0,0-.791.791v.633a4.99,4.99,0,0,0,1.361,3.428H1.582V37.125a.264.264,0,0,1,.264-.264ZM43.67,44.982H41.4a2.057,2.057,0,0,1-.645-4.009.8.8,0,0,0,.381-1.231,2.037,2.037,0,0,1-.421-1.246,2.056,2.056,0,0,1,3.517-1.448.8.8,0,0,0,1.348-.47,2.056,2.056,0,0,1,4.01-.371,3.648,3.648,0,0,0-2.832,3.081H46.67a3.636,3.636,0,0,0-3,5.7Zm-9.235,0a2.057,2.057,0,0,1-.849-3.93,1.319,1.319,0,0,0,.653-1.73,2.04,2.04,0,0,1-.168-.979,2.057,2.057,0,0,1,2.74-1.785.791.791,0,0,0,1.055-.79c0-.04,0-.079,0-.119a2.059,2.059,0,0,1,2.057-2.057,2.033,2.033,0,0,1,.911.213,1.312,1.312,0,0,0,1.726-.534,2.056,2.056,0,0,1,3.674.175,3.636,3.636,0,0,0-1.885,1.769A3.642,3.642,0,0,0,39.4,39.882a3.637,3.637,0,0,0-1,5.1Zm-26.262,0a3.432,3.432,0,0,1-3.424-3.27h.26a3.432,3.432,0,0,1,3.424,3.27Zm1.849,0a3.432,3.432,0,0,1,3.424-3.27h.26a3.432,3.432,0,0,1-3.424,3.27Zm11.862,0a3.432,3.432,0,0,1-3.424-3.27h.26a3.432,3.432,0,0,1,3.424,3.27Zm1.849,0a3.432,3.432,0,0,1,3.424-3.27h.26a3.432,3.432,0,0,1-3.424,3.27Zm22.936,0a2.057,2.057,0,1,1,.636-4.013.8.8,0,0,0,1.025-.878,2.085,2.085,0,0,1-.027-.33,2.057,2.057,0,0,1,4.113,0v5.221Z"/>
        <path id="Trazado_119408" data-name="Trazado 119408" d="M3.155,12.814a4.7,4.7,0,0,0,4.7,4.7,3.864,3.864,0,0,0,3.066-1.385A.791.791,0,0,0,9.7,15.108a2.285,2.285,0,0,1-1.854.82,3.114,3.114,0,1,1,1.74-5.7.791.791,0,0,0,.886-1.311,4.7,4.7,0,0,0-7.322,3.893Z"/>
        <path id="Trazado_119409" data-name="Trazado 119409" d="M16.563,8.119a4.7,4.7,0,1,0,4.7,4.7A4.7,4.7,0,0,0,16.563,8.119Zm0,7.809a3.114,3.114,0,1,1,3.114-3.114A3.117,3.117,0,0,1,16.563,15.928Z"/>
        <path id="Trazado_119410" data-name="Trazado 119410" d="M23.9,19.351a.762.762,0,0,0,.014-.078l.025-.194a.777.777,0,0,0,.006-.1,2.073,2.073,0,0,0-4.107-.4.791.791,0,0,0,1.552.3.491.491,0,0,1,.971.057l-.011.087a2.564,2.564,0,0,1-.4.779c-.791,1.13-1.262,1.747-1.516,2.079-.558.579-.622,1.349.131,1.65a3.936,3.936,0,0,0,1.181.061c.387,0,.913,0,1.632-.013A.791.791,0,0,0,23.366,22h-.01c-.345,0-.7.008-1.04.01.246-.335.552-.76.929-1.3a4.02,4.02,0,0,0,.655-1.362Z"/>
        <path id="Trazado_119411" data-name="Trazado 119411" d="M8.648,21.463H9.861v4.746H8.694a1.327,1.327,0,0,0-1.059,2.1l3.646,4.916a1.328,1.328,0,0,0,2.118,0l3.646-4.915a1.327,1.327,0,0,0-1.059-2.1H14.818V21.463h.8a6.486,6.486,0,1,0,8.935-7.172,8.723,8.723,0,0,0,.125-1.6,8.517,8.517,0,0,0-2.648-6.031,8.761,8.761,0,0,0-6.111-2.5H12.438a.791.791,0,0,0,0,1.582H15.92A7.239,7.239,0,0,1,23.1,12.717a7.1,7.1,0,0,1-.184,1.709,1,1,0,0,0,.656,1.18,4.9,4.9,0,1,1-6.453,5.167A1,1,0,0,0,16.1,19.88H14.344a1.109,1.109,0,0,0-1.107,1.107v5.7a1.109,1.109,0,0,0,1.107,1.107h1.118L12.34,32,9.218,27.791h1.118a1.109,1.109,0,0,0,1.107-1.107v-5.7a1.109,1.109,0,0,0-1.107-1.107H8.648a7.066,7.066,0,0,1-7.066-7.12A7.135,7.135,0,0,1,8.747,5.748a.791.791,0,1,0,0-1.582A8.721,8.721,0,0,0,0,12.749a8.649,8.649,0,0,0,8.648,8.714Z"/>
        <path id="Trazado_119412" data-name="Trazado 119412" d="M48.929,11.052A7.224,7.224,0,1,0,35.913,15.7c-.008.023-.016.046-.024.069-.1-.009-.2-.013-.306-.013a3.655,3.655,0,0,0-3.651,3.651.791.791,0,0,0,.791.791H52.682A1.32,1.32,0,0,0,54,18.879V17.3a6.391,6.391,0,0,0-5.071-6.245Zm-12.859.339a5.642,5.642,0,0,1,11.264-.467,6.382,6.382,0,0,0-4.372,2.012,4.954,4.954,0,0,0-6.176,1.2,5.659,5.659,0,0,1-.716-2.75Zm16.348,7.225H33.671a2.069,2.069,0,0,1,2.2-1.257,1.328,1.328,0,0,0,1.474-.951A3.376,3.376,0,0,1,42.334,14.4a1.321,1.321,0,0,0,1.674-.26,4.8,4.8,0,0,1,8.41,3.159Z"/>
      </g>
    </g>
  </g>
</svg>
