<svg xmlns="http://www.w3.org/2000/svg" width="85" height="85" viewBox="0 0 85 85">
  <g id="Grupo_86308" data-name="Grupo 86308" transform="translate(-212 -749)">
    <circle id="Elipse_4852" data-name="Elipse 4852" cx="42.5" cy="42.5" r="42.5" transform="translate(212 749)" fill="#0b481e"/>
    <path id="Trazado_122739" data-name="Trazado 122739" d="M-18.9,0h-2.971V-9.457L-24.79-8.6v-2.25l5.616-1.942h.272Zm9.694-4.948a3.128,3.128,0,0,1-2.145.861,3.463,3.463,0,0,1-2.76-1.178,4.64,4.64,0,0,1-1.02-3.146,4.722,4.722,0,0,1,.571-2.285,4.287,4.287,0,0,1,1.6-1.67,4.373,4.373,0,0,1,2.281-.615,4.245,4.245,0,0,1,2.29.637,4.29,4.29,0,0,1,1.6,1.8A6.189,6.189,0,0,1-6.2-7.857v1.134A7.693,7.693,0,0,1-7.031-3.05,5.734,5.734,0,0,1-9.4-.659a7.4,7.4,0,0,1-3.586.835h-.185V-2.2l.563-.009Q-9.549-2.355-9.207-4.948Zm-1.345-1.274a1.442,1.442,0,0,0,1.389-.835v-1.23a3.2,3.2,0,0,0-.413-1.819,1.3,1.3,0,0,0-1.116-.589,1.225,1.225,0,0,0-1.046.668,2.968,2.968,0,0,0-.422,1.617,2.661,2.661,0,0,0,.431,1.6A1.378,1.378,0,0,0-10.551-6.223ZM-.127-10.336a2.512,2.512,0,0,1,.773-1.916,2.9,2.9,0,0,1,2.074-.729,2.9,2.9,0,0,1,2.083.725,2.578,2.578,0,0,1,.765,1.964v.633A2.5,2.5,0,0,1,4.8-7.752a2.889,2.889,0,0,1-2.065.721A2.968,2.968,0,0,1,.659-7.748,2.524,2.524,0,0,1-.127-9.712Zm1.907.675a1.062,1.062,0,0,0,.255.738.9.9,0,0,0,.7.284q.923,0,.923-1.17v-.524a1.12,1.12,0,0,0-.246-.747.857.857,0,0,0-.694-.293.876.876,0,0,0-.686.284,1.114,1.114,0,0,0-.255.773ZM5.955-3.138a2.487,2.487,0,0,1,.778-1.916A2.924,2.924,0,0,1,8.8-5.774a2.956,2.956,0,0,1,2.083.712,2.565,2.565,0,0,1,.773,1.986v.615a2.509,2.509,0,0,1-.765,1.916A2.9,2.9,0,0,1,8.82.176,2.968,2.968,0,0,1,6.741-.541,2.524,2.524,0,0,1,5.955-2.5Zm1.9.675a1.039,1.039,0,0,0,.281.72.891.891,0,0,0,.686.31.808.808,0,0,0,.923-.8l.009-.9A1.075,1.075,0,0,0,9.5-3.882.886.886,0,0,0,8.8-4.166a.893.893,0,0,0-.677.266,1.061,1.061,0,0,0-.272.72ZM3.3-.958,1.92-1.652l6.249-10,1.38.694Zm18.255-3.19L23.137-9.51H26.31l-3.876,11.1-.167.4a2.944,2.944,0,0,1-2.918,1.846,4.642,4.642,0,0,1-1.222-.175V1.556h.387a2.026,2.026,0,0,0,.954-.18,1.094,1.094,0,0,0,.488-.647L20.193.1l-3.3-9.605h3.164ZM-9.633,25h-8.93V23.066l4.113-4.324a4.909,4.909,0,0,0,1.521-2.751,1.913,1.913,0,0,0-.36-1.257,1.287,1.287,0,0,0-1.046-.431,1.3,1.3,0,0,0-1.1.576,2.366,2.366,0,0,0-.422,1.437h-2.971a4.2,4.2,0,0,1,.589-2.175,4.129,4.129,0,0,1,1.635-1.56,4.856,4.856,0,0,1,2.338-.562,4.777,4.777,0,0,1,3.195.958,3.42,3.42,0,0,1,1.121,2.751A4,4,0,0,1-10.23,17.2a6.456,6.456,0,0,1-.875,1.5,22.029,22.029,0,0,1-1.912,2.1l-1.652,1.907h5.036Zm7.33-4.948a3.128,3.128,0,0,1-2.145.861,3.463,3.463,0,0,1-2.76-1.178,4.64,4.64,0,0,1-1.02-3.146A4.722,4.722,0,0,1-7.655,14.3a4.287,4.287,0,0,1,1.6-1.67,4.373,4.373,0,0,1,2.281-.615,4.245,4.245,0,0,1,2.29.637,4.29,4.29,0,0,1,1.6,1.8A6.189,6.189,0,0,1,.7,17.143v1.134A7.693,7.693,0,0,1-.127,21.95,5.734,5.734,0,0,1-2.5,24.341a7.4,7.4,0,0,1-3.586.835h-.185V22.8l.563-.009Q-2.646,22.645-2.3,20.052Zm-1.345-1.274a1.442,1.442,0,0,0,1.389-.835v-1.23a3.2,3.2,0,0,0-.413-1.819A1.3,1.3,0,0,0-3.788,14.3a1.225,1.225,0,0,0-1.046.668,2.968,2.968,0,0,0-.422,1.617,2.661,2.661,0,0,0,.431,1.6A1.378,1.378,0,0,0-3.647,18.777ZM6.776,14.664a2.512,2.512,0,0,1,.773-1.916,2.9,2.9,0,0,1,2.074-.729,2.9,2.9,0,0,1,2.083.725,2.578,2.578,0,0,1,.765,1.964v.633a2.5,2.5,0,0,1-.765,1.907,2.889,2.889,0,0,1-2.065.721,2.968,2.968,0,0,1-2.079-.716,2.524,2.524,0,0,1-.787-1.964Zm1.907.675a1.062,1.062,0,0,0,.255.738.9.9,0,0,0,.7.284q.923,0,.923-1.17v-.524a1.12,1.12,0,0,0-.246-.747.857.857,0,0,0-.694-.293.876.876,0,0,0-.686.284,1.114,1.114,0,0,0-.255.773Zm4.175,6.524a2.487,2.487,0,0,1,.778-1.916,2.924,2.924,0,0,1,2.07-.721,2.956,2.956,0,0,1,2.083.712,2.565,2.565,0,0,1,.773,1.986v.615a2.509,2.509,0,0,1-.765,1.916,2.9,2.9,0,0,1-2.074.721,2.968,2.968,0,0,1-2.079-.716,2.524,2.524,0,0,1-.787-1.964Zm1.9.675a1.039,1.039,0,0,0,.281.72.891.891,0,0,0,.686.31.808.808,0,0,0,.923-.8l.009-.9a1.075,1.075,0,0,0-.255-.747.992.992,0,0,0-1.371-.017,1.061,1.061,0,0,0-.272.72ZM10.2,24.042l-1.38-.694,6.249-10,1.38.694Z" transform="translate(255 787)" fill="#fff"/>
  </g>
</svg>
