<svg xmlns="http://www.w3.org/2000/svg" width="190" height="169" viewBox="0 0 190 169">
  <g id="Grupo_84950" data-name="Grupo 84950" transform="translate(-180 -11727)">
    <rect id="Rectángulo_34454" data-name="Rectángulo 34454" width="190" height="169" transform="translate(180 11727)" fill="none"/>
    <g id="pregunta" transform="translate(154 11737)">
      <g id="Grupo_84948" data-name="Grupo 84948" transform="translate(68.891 2.891)">
        <path id="Trazado_119504" data-name="Trazado 119504" d="M97.434,104.116c5.454,3.972,7.473,7.927,7.472,13.417h46.25c0-5.489,2.019-9.445,7.473-13.417a52.032,52.032,0,1,0-61.2,0Z" transform="translate(-76 -10)" fill="#ffee80" fill-rule="evenodd"/>
        <path id="Trazado_119505" data-name="Trazado 119505" d="M208.032,382h-46.25a5.781,5.781,0,1,0,0,11.563h46.25a5.781,5.781,0,0,0,0-11.563Z" transform="translate(-132.875 -274.469)" fill="#f3eff0" fill-rule="evenodd"/>
        <path id="Trazado_119506" data-name="Trazado 119506" d="M208.032,422H161.781a5.781,5.781,0,1,0,0,11.563h46.25a5.781,5.781,0,0,0,0-11.563Z" transform="translate(-132.875 -302.907)" fill="#f3eff0" fill-rule="evenodd"/>
        <path id="Trazado_119507" data-name="Trazado 119507" d="M222.251,462H176v5.781a5.8,5.8,0,0,0,5.781,5.781h34.688a5.8,5.8,0,0,0,5.781-5.781Z" transform="translate(-147.093 -331.344)" fill="#8690af" fill-rule="evenodd"/>
        <g id="Grupo_84947" data-name="Grupo 84947" transform="translate(35.428 25.275)">
          <path id="Trazado_119508" data-name="Trazado 119508" d="M221.221,138.272a6.055,6.055,0,1,1-12.111,0c0-8.438.55-8.977,8.474-16.731.55-.538,1.145-1.12,1.788-1.754a5.991,5.991,0,1,0-9.477-7.129,6.033,6.033,0,0,1-10.6-5.771,18.164,18.164,0,0,1,6.657-6.918A18.068,18.068,0,0,1,227.84,128.4c-.644.634-1.239,1.216-1.788,1.754C221.534,134.572,221.221,134.879,221.221,138.272Z" transform="translate(-198.562 -97.437)" fill="#fff" fill-rule="evenodd"/>
          <circle id="Elipse_4960" data-name="Elipse 4960" cx="6.055" cy="6.055" r="6.055" transform="matrix(0.16, -0.987, 0.987, 0.16, 9.637, 66.616)" fill="#fff"/>
        </g>
      </g>
      <g id="Grupo_84949" data-name="Grupo 84949" transform="translate(66)">
        <path id="Trazado_119509" data-name="Trazado 119509" d="M120.922,0A54.865,54.865,0,0,0,92.928,7.665a2.891,2.891,0,1,0,2.951,4.972A49.143,49.143,0,0,1,149.819,94.67c-5.158,3.756-7.794,7.708-8.477,12.863H100.5c-.683-5.155-3.32-9.107-8.477-12.863a49.152,49.152,0,0,1-13.39-64.791,2.891,2.891,0,1,0-4.971-2.952A54.9,54.9,0,0,0,88.623,99.343c3.738,2.723,5.578,5.306,6.111,8.75a8.663,8.663,0,0,0-3.394,13.893,8.664,8.664,0,0,0,3.566,13.956v3.388A8.682,8.682,0,0,0,103.578,148h34.688a8.682,8.682,0,0,0,8.672-8.672v-3.388a8.664,8.664,0,0,0,3.566-13.956,8.663,8.663,0,0,0-3.394-13.893c.532-3.444,2.373-6.027,6.111-8.75A54.923,54.923,0,0,0,120.922,0Zm17.344,142.22H103.578a2.894,2.894,0,0,1-2.891-2.891v-2.891h40.469v2.891A2.894,2.894,0,0,1,138.267,142.22Zm5.781-11.563H97.8a2.891,2.891,0,0,1,0-5.781h10.116a2.891,2.891,0,1,0,0-5.781H97.8a2.891,2.891,0,0,1,0-5.781h46.25a2.891,2.891,0,1,1,0,5.781H133.929a2.891,2.891,0,1,0,0,5.781h10.118a2.891,2.891,0,1,1,0,5.781Z" transform="translate(-66)"/>
        <path id="Trazado_119510" data-name="Trazado 119510" d="M217.306,128.994a30.117,30.117,0,0,1,3.664-3.886c.552-.54,1.149-1.124,1.8-1.761a20.96,20.96,0,1,0-33.11-24.952,8.924,8.924,0,0,0,15.674,8.537,3.091,3.091,0,0,1,2.732-1.6,3.082,3.082,0,0,1,3.083,3.083,3.113,3.113,0,0,1-.231,1.208,3.039,3.039,0,0,1-.674,1c-.639.629-1.229,1.207-1.782,1.748-8.1,7.924-9.342,9.142-9.342,18.8a8.946,8.946,0,0,0,17.892,0C217.008,129.627,217.089,129.348,217.306,128.994Zm-6.079,2.169a3.165,3.165,0,1,1-6.329,0c0-7.223,0-7.223,7.612-14.672.55-.538,1.145-1.12,1.788-1.754a8.876,8.876,0,0,0-6.235-15.19,8.873,8.873,0,0,0-7.809,4.619,3.143,3.143,0,0,1-5.52-3.005,15.178,15.178,0,0,1,13.329-7.943,15.177,15.177,0,0,1,10.646,26.01c-.641.632-1.234,1.212-1.782,1.748-4.606,4.507-5.7,5.578-5.7,10.187Z" transform="translate(-153.139 -62.162)"/>
        <path id="Trazado_119511" data-name="Trazado 119511" d="M225.053,288.6A8.946,8.946,0,1,0,234,279.652a8.956,8.956,0,0,0-8.946,8.946Zm12.111,0A3.165,3.165,0,1,1,234,285.433,3.168,3.168,0,0,1,237.164,288.6Z" transform="translate(-179.076 -198.814)"/>
        <path id="Trazado_119512" data-name="Trazado 119512" d="M121.618,58.5a2.891,2.891,0,1,0,0-5.781h0a2.891,2.891,0,0,0,0,5.781Z" transform="translate(-103.485 -37.481)"/>
        <path id="Trazado_119513" data-name="Trazado 119513" d="M248.889,412h0a2.891,2.891,0,1,0,2.893,2.891A2.89,2.89,0,0,0,248.887,412Z" transform="translate(-193.966 -292.907)"/>
      </g>
    </g>
  </g>
</svg>
