<svg xmlns="http://www.w3.org/2000/svg" xmlns:xlink="http://www.w3.org/1999/xlink" width="85" height="85" viewBox="0 0 85 85">
  <defs>
    <clipPath id="clip-path">
      <rect id="Rectángulo_34550" data-name="Rectángulo 34550" width="85" height="85" transform="translate(180 6251)" fill="#fff" stroke="#707070" stroke-width="1"/>
    </clipPath>
  </defs>
  <g id="Grupo_85314" data-name="Grupo 85314" transform="translate(-200 -6251)">
    <circle id="Elipse_4907" data-name="Elipse 4907" cx="42.5" cy="42.5" r="42.5" transform="translate(200 6251)" fill="#0b481e"/>
    <g id="Enmascarar_grupo_130" data-name="Enmascarar grupo 130" transform="translate(20)" clip-path="url(#clip-path)">
      <g id="flujo-de-trabajo" transform="translate(180 6251)">
        <rect id="Rectángulo_34551" data-name="Rectángulo 34551" width="35.085" height="20.026" transform="translate(24.957 1.246)" fill="#ff7956"/>
        <rect id="Rectángulo_34552" data-name="Rectángulo 34552" width="35.085" height="20.026" transform="translate(24.957 32.487)" fill="#ffb655"/>
        <rect id="Rectángulo_34553" data-name="Rectángulo 34553" width="35.085" height="20.026" transform="translate(24.957 63.728)" fill="#c2fb3b"/>
        <g id="Grupo_85307" data-name="Grupo 85307">
          <path id="Trazado_120713" data-name="Trazado 120713" d="M83.755,7.524H60.043v5.81h17.9V39.6H71.373V35.323L61.158,42.5l10.215,7.177V45.406H83.755Z" fill="#b3d8f4"/>
          <path id="Trazado_120714" data-name="Trazado 120714" d="M1.245,38.762H24.958v5.811H7.056V70.834h6.572V66.561l10.215,7.177L13.627,80.916V76.645H1.245Z" fill="#b3d8f4"/>
        </g>
        <rect id="Rectángulo_34554" data-name="Rectángulo 34554" width="4.98" height="20.026" transform="translate(24.957 1.246)" fill="#ff3f62"/>
        <rect id="Rectángulo_34555" data-name="Rectángulo 34555" width="4.98" height="20.026" transform="translate(24.957 32.487)" fill="#ff7956"/>
        <rect id="Rectángulo_34556" data-name="Rectángulo 34556" width="4.98" height="20.026" transform="translate(24.957 63.728)" fill="#91dc5a"/>
        <g id="Grupo_85308" data-name="Grupo 85308">
          <rect id="Rectángulo_34557" data-name="Rectángulo 34557" width="4.98" height="5.811" transform="translate(60.042 7.524)" fill="#57a4ff"/>
          <rect id="Rectángulo_34558" data-name="Rectángulo 34558" width="4.98" height="26.262" transform="translate(77.945 13.334)" fill="#57a4ff"/>
          <path id="Trazado_120715" data-name="Trazado 120715" d="M66.139,42.5l5.234-3.678v-3.5L61.158,42.5l10.215,7.177v-3.5Z" fill="#57a4ff"/>
          <path id="Trazado_120716" data-name="Trazado 120716" d="M18.607,70.061l-4.98-3.5v4.273h4.98Z" fill="#57a4ff"/>
          <rect id="Rectángulo_34559" data-name="Rectángulo 34559" width="4.98" height="37.883" transform="translate(1.245 38.762)" fill="#57a4ff"/>
          <path id="Trazado_120717" data-name="Trazado 120717" d="M18.607,76.645h-4.98v4.272l4.98-3.5Z" fill="#57a4ff"/>
        </g>
        <rect id="Rectángulo_34560" data-name="Rectángulo 34560" width="2.49" height="2.49" transform="translate(43.326 10.014)"/>
        <rect id="Rectángulo_34561" data-name="Rectángulo 34561" width="2.49" height="2.49" transform="translate(47.477 10.014)"/>
        <rect id="Rectángulo_34562" data-name="Rectángulo 34562" width="2.49" height="2.49" transform="translate(39.176 10.014)"/>
        <rect id="Rectángulo_34563" data-name="Rectángulo 34563" width="2.49" height="2.49" transform="translate(35.026 10.014)"/>
        <rect id="Rectángulo_34564" data-name="Rectángulo 34564" width="2.49" height="2.49" transform="translate(41.241 41.254)"/>
        <rect id="Rectángulo_34565" data-name="Rectángulo 34565" width="2.49" height="2.49" transform="translate(37.091 41.254)"/>
        <rect id="Rectángulo_34566" data-name="Rectángulo 34566" width="2.49" height="2.49" transform="translate(45.391 41.254)"/>
        <rect id="Rectángulo_34567" data-name="Rectángulo 34567" width="2.49" height="2.49" transform="translate(39.166 72.497)"/>
        <rect id="Rectángulo_34568" data-name="Rectángulo 34568" width="2.49" height="2.49" transform="translate(43.316 72.497)"/>
        <path id="Trazado_120718" data-name="Trazado 120718" d="M61.288,0H23.712V22.517H61.288ZM58.8,20.027H26.2V2.491H58.8Z"/>
        <rect id="Rectángulo_34569" data-name="Rectángulo 34569" width="9.989" height="2.49" transform="translate(29.107 15.876)"/>
        <g id="Grupo_85309" data-name="Grupo 85309">
          <rect id="Rectángulo_34570" data-name="Rectángulo 34570" width="9.435" height="2.49" transform="translate(38.6 4.152)" fill="#fff"/>
          <rect id="Rectángulo_34571" data-name="Rectángulo 34571" width="2.49" height="2.49" transform="translate(49.695 4.152)" fill="#fff"/>
          <rect id="Rectángulo_34572" data-name="Rectángulo 34572" width="2.49" height="2.49" transform="translate(53.845 4.152)" fill="#fff"/>
        </g>
        <rect id="Rectángulo_34573" data-name="Rectángulo 34573" width="9.989" height="2.49" transform="translate(29.107 47.118)"/>
        <g id="Grupo_85310" data-name="Grupo 85310">
          <rect id="Rectángulo_34574" data-name="Rectángulo 34574" width="9.435" height="2.49" transform="translate(38.6 35.392)" fill="#fff"/>
          <rect id="Rectángulo_34575" data-name="Rectángulo 34575" width="2.49" height="2.49" transform="translate(49.695 35.392)" fill="#fff"/>
          <rect id="Rectángulo_34576" data-name="Rectángulo 34576" width="2.49" height="2.49" transform="translate(53.845 35.392)" fill="#fff"/>
        </g>
        <path id="Trazado_120719" data-name="Trazado 120719" d="M23.712,72.126l-11.33-7.961v5.424H8.3V45.818H21.637v-2.49H5.811V72.079h9.061V68.958l6.8,4.781-6.8,4.781V75.4H2.49V40.008H21.637v-2.49H0V77.89H12.382v5.423l11.33-7.961V85H61.288V62.483H23.712v9.643Zm2.49-7.153H58.8V82.509H26.2V64.973Z"/>
        <rect id="Rectángulo_34577" data-name="Rectángulo 34577" width="9.989" height="2.49" transform="translate(29.107 78.358)"/>
        <g id="Grupo_85311" data-name="Grupo 85311">
          <rect id="Rectángulo_34578" data-name="Rectángulo 34578" width="2.49" height="2.49" transform="translate(53.845 66.633)" fill="#fff"/>
          <rect id="Rectángulo_34579" data-name="Rectángulo 34579" width="9.435" height="2.49" transform="translate(38.6 66.633)" fill="#fff"/>
          <rect id="Rectángulo_34580" data-name="Rectángulo 34580" width="2.49" height="2.49" transform="translate(49.695 66.633)" fill="#fff"/>
        </g>
        <path id="Trazado_120720" data-name="Trazado 120720" d="M63.363,6.279v2.49H82.51V44.161H70.128v3.12l-6.8-4.781,6.8-4.781v3.121h9.061V12.089H63.363v2.49H76.7V38.35H72.618V32.926l-11.33,7.961V31.242H23.712V53.758H61.288V44.113l11.33,7.961V46.651H85V6.279ZM58.8,51.268H26.2V33.732H58.8Z"/>
        <g id="Grupo_85312" data-name="Grupo 85312">
          <rect id="Rectángulo_34581" data-name="Rectángulo 34581" width="2.49" height="2.49" transform="translate(79.605 17.405)" fill="#fff"/>
          <rect id="Rectángulo_34582" data-name="Rectángulo 34582" width="2.49" height="2.49" transform="translate(79.605 13.254)" fill="#fff"/>
          <rect id="Rectángulo_34583" data-name="Rectángulo 34583" width="2.49" height="10.099" transform="translate(79.605 21.555)" fill="#fff"/>
          <rect id="Rectángulo_34584" data-name="Rectángulo 34584" width="2.49" height="2.49" transform="translate(2.905 51.531)" fill="#fff"/>
          <rect id="Rectángulo_34585" data-name="Rectángulo 34585" width="2.49" height="2.49" transform="translate(2.905 55.681)" fill="#fff"/>
          <rect id="Rectángulo_34586" data-name="Rectángulo 34586" width="2.49" height="10.099" transform="translate(2.905 59.831)" fill="#fff"/>
        </g>
        <rect id="Rectángulo_34587" data-name="Rectángulo 34587" width="8.135" height="2.49" transform="translate(12.823 40.426)"/>
      </g>
    </g>
  </g>
</svg>
