<svg xmlns="http://www.w3.org/2000/svg" xmlns:xlink="http://www.w3.org/1999/xlink" width="85" height="86" viewBox="0 0 85 86">
  <defs>
    <clipPath id="clip-path">
      <rect id="Rectángulo_34612" data-name="Rectángulo 34612" width="85" height="85" transform="translate(1020 11850)" fill="#fff" stroke="#707070" stroke-width="1"/>
    </clipPath>
  </defs>
  <g id="Grupo_86294" data-name="Grupo 86294" transform="translate(-1020 -11954)">
    <circle id="Elipse_4911" data-name="Elipse 4911" cx="42.5" cy="42.5" r="42.5" transform="translate(1020 11954)" fill="#ffa686"/>
    <g id="Enmascarar_grupo_141" data-name="Enmascarar grupo 141" transform="translate(0 105)" clip-path="url(#clip-path)">
      <g id="Page-1" transform="translate(1020 11850)">
        <g id="_002---Corn-Farm" data-name="002---Corn-Farm">
          <path id="Shape" d="M83.583,60.992V82.167a1.417,1.417,0,0,1-1.417,1.417H2.833a1.417,1.417,0,0,1-1.417-1.417V60.992a1.408,1.408,0,0,1,1.534-1.417C8.3,60.16,8.813,63.75,15.1,63.75c6.842,0,6.842-4.25,13.7-4.25s6.842,4.25,13.685,4.25,6.857-4.25,13.7-4.25,6.842,4.25,13.7,4.25c6.29,0,6.8-3.591,12.165-4.171a1.407,1.407,0,0,1,1.534,1.412Z" fill="sienna"/>
          <path id="Shape-2" data-name="Shape" d="M82.049,59.579a10.129,10.129,0,0,0-2.906.738,1.39,1.39,0,0,1,.19.674V82.167a1.417,1.417,0,0,1-1.417,1.417h4.25a1.417,1.417,0,0,0,1.417-1.417V60.992a1.407,1.407,0,0,0-1.534-1.412Z" fill="#783e22"/>
          <path id="Shape-3" data-name="Shape" d="M15.583,63.75V49.583" fill="none" stroke="#000" stroke-linejoin="round" stroke-width="2.833" fill-rule="evenodd"/>
          <path id="Shape-4" data-name="Shape" d="M26.69,31.138A9.553,9.553,0,0,0,24.083,37.7v3.386a8.513,8.513,0,0,1-8.5,8.5V36.833a7.083,7.083,0,0,1,7.083-7.083h3.414a.826.826,0,0,1,.609,1.388Z" fill="#008a00"/>
          <path id="Shape-5" data-name="Shape" d="M26.081,29.75H22.667c-.187,0-.363.041-.547.055a.823.823,0,0,1,.32,1.333A9.553,9.553,0,0,0,19.833,37.7v3.386a8.5,8.5,0,0,1-4.25,7.354v1.146a8.513,8.513,0,0,0,8.5-8.5V37.7a9.553,9.553,0,0,1,2.607-6.559.826.826,0,0,0-.609-1.388Z" fill="#007900"/>
          <path id="Shape-6" data-name="Shape" d="M15.583,36.833v12.75a8.513,8.513,0,0,1-8.5-8.5V37.7a9.553,9.553,0,0,0-2.607-6.559.826.826,0,0,1,.609-1.388H8.5a7.083,7.083,0,0,1,7.083,7.083Z" fill="#60a917"/>
          <path id="Shape-7" data-name="Shape" d="M8.5,29.75H5.086a.832.832,0,0,0-.283.055,7.064,7.064,0,0,1,6.531,7.028v11.6a8.432,8.432,0,0,0,4.25,1.146V36.833A7.083,7.083,0,0,0,8.5,29.75Z" fill="#549414"/>
          <path id="Shape-8" data-name="Shape" d="M53.607,21.222A9.553,9.553,0,0,0,51,27.781v3.386a8.513,8.513,0,0,1-8.5,8.5V26.917a7.083,7.083,0,0,1,7.083-7.083H53a.826.826,0,0,1,.609,1.388Z" fill="#008a00"/>
          <path id="Shape-9" data-name="Shape" d="M53,19.833H49.583c-.187,0-.363.041-.547.055a.823.823,0,0,1,.32,1.333,9.553,9.553,0,0,0-2.607,6.559v3.386a8.5,8.5,0,0,1-4.25,7.354v1.146a8.513,8.513,0,0,0,8.5-8.5V27.781a9.553,9.553,0,0,1,2.607-6.559A.826.826,0,0,0,53,19.833Z" fill="#007900"/>
          <path id="Shape-10" data-name="Shape" d="M42.5,26.917v12.75a8.513,8.513,0,0,1-8.5-8.5V27.781a9.553,9.553,0,0,0-2.607-6.559A.826.826,0,0,1,32,19.833h3.414A7.083,7.083,0,0,1,42.5,26.917Z" fill="#60a917"/>
          <path id="Shape-11" data-name="Shape" d="M35.417,19.833H32a.832.832,0,0,0-.283.055,7.063,7.063,0,0,1,6.531,7.028v11.6a8.432,8.432,0,0,0,4.25,1.146V26.917a7.083,7.083,0,0,0-7.083-7.083Z" fill="#549414"/>
          <path id="Shape-12" data-name="Shape" d="M80.523,31.138A9.553,9.553,0,0,0,77.917,37.7v3.386a8.513,8.513,0,0,1-8.5,8.5V36.833A7.083,7.083,0,0,1,76.5,29.75h3.414a.826.826,0,0,1,.609,1.388Z" fill="#008a00"/>
          <path id="Shape-13" data-name="Shape" d="M79.914,29.75H76.5c-.187,0-.363.041-.547.055a.823.823,0,0,1,.32,1.333A9.553,9.553,0,0,0,73.667,37.7v3.386a8.5,8.5,0,0,1-4.25,7.354v1.146a8.513,8.513,0,0,0,8.5-8.5V37.7a9.553,9.553,0,0,1,2.607-6.559.826.826,0,0,0-.609-1.388Z" fill="#007900"/>
          <path id="Shape-14" data-name="Shape" d="M69.417,36.833v12.75a8.513,8.513,0,0,1-8.5-8.5V37.7a9.553,9.553,0,0,0-2.607-6.559.826.826,0,0,1,.609-1.388h3.414a7.083,7.083,0,0,1,7.083,7.083Z" fill="#60a917"/>
          <path id="Shape-15" data-name="Shape" d="M62.333,29.75H58.919a.832.832,0,0,0-.283.055,7.064,7.064,0,0,1,6.531,7.028v11.6a8.432,8.432,0,0,0,4.25,1.146V36.833a7.083,7.083,0,0,0-7.083-7.083Z" fill="#549414"/>
          <path id="Shape-16" data-name="Shape" d="M22.667,20.542V29.75a7.083,7.083,0,0,0-7.083,7.083A7.083,7.083,0,0,0,8.5,29.75V20.542c0-5.086,3.173-9.208,7.083-9.208S22.667,15.456,22.667,20.542Z" fill="#ffdc00"/>
          <path id="Shape-17" data-name="Shape" d="M15.583,11.333a5.582,5.582,0,0,0-2.125.425c2.873,1.173,4.958,4.662,4.958,8.783V29.75a7.055,7.055,0,0,0-4.958,2.034,7.058,7.058,0,0,1,2.125,5.049,7.083,7.083,0,0,1,7.083-7.083V20.542C22.667,15.456,19.493,11.333,15.583,11.333Z" fill="#fec108"/>
          <path id="Shape-18" data-name="Shape" d="M42.486,63.75,42.5,39.667" fill="none" stroke="#000" stroke-linejoin="round" stroke-width="2.833" fill-rule="evenodd"/>
          <path id="Shape-19" data-name="Shape" d="M69.417,63.75V49.583" fill="none" stroke="#000" stroke-linejoin="round" stroke-width="2.833" fill-rule="evenodd"/>
          <g id="Grupo_85369" data-name="Grupo 85369">
            <path id="Shape-20" data-name="Shape" d="M76.5,20.542V29.75a7.083,7.083,0,0,0-7.083,7.083,7.083,7.083,0,0,0-7.083-7.083V20.542c0-5.086,3.173-9.208,7.083-9.208S76.5,15.456,76.5,20.542Z" fill="#ffdc00"/>
            <path id="Shape-21" data-name="Shape" d="M69.417,11.333a5.582,5.582,0,0,0-2.125.425c2.873,1.173,4.958,4.662,4.958,8.783V29.75a7.055,7.055,0,0,0-4.958,2.034,7.058,7.058,0,0,1,2.125,5.049A7.083,7.083,0,0,1,76.5,29.75V20.542C76.5,15.456,73.327,11.333,69.417,11.333Z" fill="#fec108"/>
            <path id="Shape-22" data-name="Shape" d="M49.583,10.625v9.208A7.083,7.083,0,0,0,42.5,26.917a7.083,7.083,0,0,0-7.083-7.083V10.625c0-5.086,3.173-9.208,7.083-9.208S49.583,5.539,49.583,10.625Z" fill="#ffdc00"/>
            <path id="Shape-23" data-name="Shape" d="M42.5,1.417a5.582,5.582,0,0,0-2.125.425c2.873,1.172,4.958,4.661,4.958,8.783v9.208a7.055,7.055,0,0,0-4.958,2.034A7.058,7.058,0,0,1,42.5,26.917a7.083,7.083,0,0,1,7.083-7.083V10.625C49.583,5.539,46.41,1.417,42.5,1.417Z" fill="#fec108"/>
            <path id="Shape-24" data-name="Shape" d="M2.833,85H82.167A2.833,2.833,0,0,0,85,82.167V60.992a2.823,2.823,0,0,0-3.1-2.821c-5.373.579-6.272,3.788-11.064,4.127V50.887a9.917,9.917,0,0,0,8.5-9.8v-3.4a8.083,8.083,0,0,1,2.218-5.575,2.247,2.247,0,0,0-1.641-3.775H77.917V20.542c0-5.859-3.812-10.625-8.5-10.625s-8.5,4.766-8.5,10.625v7.792H58.922a2.247,2.247,0,0,0-1.643,3.782c2.592,2.743,2.221,5.477,2.221,8.967a9.917,9.917,0,0,0,8.5,9.8v11.3c-4.454-.708-5.269-4.108-11.815-4.108-6.817,0-7.327,3.611-12.281,4.166l.013-21.28a9.917,9.917,0,0,0,8.5-9.8v-3.4a8.083,8.083,0,0,1,2.219-5.575,2.247,2.247,0,0,0-1.641-3.775H51V10.625C51,4.766,47.188,0,42.5,0S34,4.766,34,10.625v7.792H32.005A2.247,2.247,0,0,0,30.362,22.2c2.592,2.743,2.221,5.477,2.221,8.967a9.917,9.917,0,0,0,8.5,9.8l-.011,21.28c-4.906-.552-5.533-4.166-12.271-4.166-6.616,0-7.335,3.4-11.8,4.108v-11.3a9.917,9.917,0,0,0,8.5-9.8v-3.4a8.083,8.083,0,0,1,2.218-5.575,2.247,2.247,0,0,0-1.641-3.775H24.083V20.542c0-5.859-3.812-10.625-8.5-10.625s-8.5,4.766-8.5,10.625v7.792H5.089a2.247,2.247,0,0,0-1.643,3.782c2.592,2.743,2.221,5.477,2.221,8.967a9.917,9.917,0,0,0,8.5,9.8V62.3C9.33,61.962,8.531,58.756,3.1,58.171A2.825,2.825,0,0,0,0,60.992V82.167A2.833,2.833,0,0,0,2.833,85ZM76.5,41.083a7.1,7.1,0,0,1-5.667,6.942V36.833A5.667,5.667,0,0,1,76.5,31.167h2.158c-2.473,3.328-2.158,6.2-2.158,9.917ZM69.417,12.75c3.125,0,5.667,3.495,5.667,7.792v7.919a8.511,8.511,0,0,0-5.667,3.683,8.511,8.511,0,0,0-5.667-3.683V20.542C63.75,16.245,66.291,12.75,69.417,12.75ZM62.333,41.083c0-3.756.326-6.573-2.158-9.917h2.158A5.667,5.667,0,0,1,68,36.833V48.025a7.1,7.1,0,0,1-5.667-6.942Zm-12.75-9.917a7.1,7.1,0,0,1-5.667,6.942V26.917a5.667,5.667,0,0,1,5.667-5.667h2.158C49.267,24.578,49.583,27.452,49.583,31.167ZM42.5,2.833c3.125,0,5.667,3.495,5.667,7.792v7.919A8.511,8.511,0,0,0,42.5,22.227a8.511,8.511,0,0,0-5.667-3.683V10.625C36.833,6.328,39.375,2.833,42.5,2.833ZM35.417,31.167c0-3.756.326-6.573-2.158-9.917h2.158a5.667,5.667,0,0,1,5.667,5.667V38.108A7.1,7.1,0,0,1,35.417,31.167Zm-12.75,9.917A7.1,7.1,0,0,1,17,48.025V36.833a5.667,5.667,0,0,1,5.667-5.667h2.158c-2.473,3.328-2.158,6.2-2.158,9.917ZM15.583,12.75c3.125,0,5.667,3.495,5.667,7.792v7.919a8.511,8.511,0,0,0-5.667,3.683,8.511,8.511,0,0,0-5.667-3.683V20.542C9.917,16.245,12.458,12.75,15.583,12.75ZM8.5,41.083c0-3.756.326-6.573-2.158-9.917H8.5a5.667,5.667,0,0,1,5.667,5.667V48.025A7.1,7.1,0,0,1,8.5,41.083Zm7.083,24.083a1.186,1.186,0,0,0,.123-.026,12.785,12.785,0,0,0,6.984-2.311,9.963,9.963,0,0,1,6.11-1.914c6.137,0,6.493,4.25,13.685,4.25s7.551-4.25,13.7-4.25c6.012,0,6.375,3.984,13.113,4.226a1.108,1.108,0,0,0,.119.024c7.66,0,7.624-3.6,12.75-4.188a.017.017,0,0,1,0,.013V82.167H2.833L2.8,60.987c5.124.557,5.135,4.179,12.785,4.179Z"/>
            <path id="Shape-25" data-name="Shape" d="M14.167,19.833h1.417a1.417,1.417,0,0,0,0-2.833H14.167a1.417,1.417,0,0,0,0,2.833Z"/>
            <path id="Shape-26" data-name="Shape" d="M15.583,22.667a1.417,1.417,0,1,0,0,2.833H17a1.417,1.417,0,1,0,0-2.833Z"/>
            <path id="Shape-27" data-name="Shape" d="M68,19.833h1.417a1.417,1.417,0,1,0,0-2.833H68a1.417,1.417,0,0,0,0,2.833Z"/>
            <path id="Shape-28" data-name="Shape" d="M69.417,22.667a1.417,1.417,0,0,0,0,2.833h1.417a1.417,1.417,0,0,0,0-2.833Z"/>
            <path id="Shape-29" data-name="Shape" d="M42.5,9.917h1.417a1.417,1.417,0,0,0,0-2.833H42.5a1.417,1.417,0,0,0,0,2.833Z"/>
            <path id="Shape-30" data-name="Shape" d="M41.083,15.583H42.5a1.417,1.417,0,1,0,0-2.833H41.083a1.417,1.417,0,0,0,0,2.833Z"/>
            <path id="Shape-31" data-name="Shape" d="M25.5,68.414a1.429,1.429,0,0,0,.383-.052A10.692,10.692,0,0,1,28.8,68a11.6,11.6,0,0,1,2.111.177,1.417,1.417,0,0,0,.51-2.788,14.381,14.381,0,0,0-2.621-.222,13.468,13.468,0,0,0-3.683.466,1.417,1.417,0,0,0,.382,2.781Z"/>
            <path id="Shape-32" data-name="Shape" d="M45.333,72.664a1.43,1.43,0,0,0,.382-.052,10.692,10.692,0,0,1,2.918-.361,11.6,11.6,0,0,1,2.111.177,1.417,1.417,0,0,0,.51-2.788,14.381,14.381,0,0,0-2.621-.222,13.468,13.468,0,0,0-3.683.466,1.417,1.417,0,0,0,.382,2.781Z"/>
            <path id="Shape-33" data-name="Shape" d="M60.917,71.247a1.43,1.43,0,0,0,.382-.052,10.7,10.7,0,0,1,2.918-.361,11.6,11.6,0,0,1,2.111.177,1.417,1.417,0,1,0,.51-2.788A14.38,14.38,0,0,0,64.217,68a13.482,13.482,0,0,0-3.683.466,1.417,1.417,0,0,0,.383,2.781Z"/>
            <path id="Shape-34" data-name="Shape" d="M9.917,72.664a1.43,1.43,0,0,0,.382-.052,10.692,10.692,0,0,1,2.918-.361,11.6,11.6,0,0,1,2.111.177,1.417,1.417,0,1,0,.51-2.788,14.381,14.381,0,0,0-2.621-.222,13.468,13.468,0,0,0-3.683.466,1.417,1.417,0,0,0,.382,2.781Z"/>
            <path id="Shape-35" data-name="Shape" d="M56.667,78.33a1.429,1.429,0,0,0,.382-.052,10.692,10.692,0,0,1,2.918-.361,11.6,11.6,0,0,1,2.111.177,1.417,1.417,0,0,0,.51-2.788,14.381,14.381,0,0,0-2.621-.222,13.468,13.468,0,0,0-3.683.466,1.417,1.417,0,0,0,.383,2.781Z"/>
            <path id="Shape-36" data-name="Shape" d="M70.833,76.5a1.429,1.429,0,0,0,.382-.052,10.754,10.754,0,0,1,2.918-.361,11.633,11.633,0,0,1,2.111.177,1.417,1.417,0,0,0,.51-2.788,14.425,14.425,0,0,0-2.621-.222,13.483,13.483,0,0,0-3.683.466,1.417,1.417,0,0,0,.382,2.781Z"/>
            <path id="Shape-37" data-name="Shape" d="M31.219,75.879a1.417,1.417,0,0,0,1.747.982,10.692,10.692,0,0,1,2.918-.361,11.6,11.6,0,0,1,2.111.177,1.417,1.417,0,0,0,.51-2.788,14.38,14.38,0,0,0-2.621-.222,13.468,13.468,0,0,0-3.683.466,1.417,1.417,0,0,0-.982,1.747Z"/>
            <path id="Shape-38" data-name="Shape" d="M15.636,77.3a1.417,1.417,0,0,0,1.747.982,10.692,10.692,0,0,1,2.918-.361,11.6,11.6,0,0,1,2.111.177,1.417,1.417,0,1,0,.51-2.788,14.381,14.381,0,0,0-2.621-.222,13.468,13.468,0,0,0-3.683.466,1.417,1.417,0,0,0-.982,1.747Z"/>
          </g>
        </g>
      </g>
    </g>
  </g>
</svg>
