<svg xmlns="http://www.w3.org/2000/svg" xmlns:xlink="http://www.w3.org/1999/xlink" width="81" height="81" viewBox="0 0 81 81">
  <defs>
    <clipPath id="clip-path">
      <rect id="Rectángulo_34549" data-name="Rectángulo 34549" width="81" height="81" transform="translate(324 6552)" fill="#01f6ff" stroke="#707070" stroke-width="1"/>
    </clipPath>
  </defs>
  <g id="Enmascarar_grupo_132" data-name="Enmascarar grupo 132" transform="translate(-324 -6552)" clip-path="url(#clip-path)">
    <g id="Layer_44" transform="translate(324 6552.23)">
      <g id="Grupo_85337" data-name="Grupo 85337">
        <g id="Grupo_85328" data-name="Grupo 85328">
          <path id="Trazado_120734" data-name="Trazado 120734" d="M70.344,41.52a5.206,5.206,0,0,1,2.53,4.719,32.5,32.5,0,0,1-64.6.745A5.991,5.991,0,0,1,11.3,41.319C21.125,34.737,33.139,28.7,42.312,28.7,49.855,28.7,60.953,34.924,70.344,41.52Z" fill="#9a5645"/>
          <path id="Trazado_120735" data-name="Trazado 120735" d="M72.874,46.239a32.513,32.513,0,0,1-62.381,9.2A54.968,54.968,0,0,0,32.487,59.8c17.881,0,32.983-7.745,37.733-18.362l.124.062A5.279,5.279,0,0,1,72.874,46.239Z" fill="#87483c"/>
          <path id="Trazado_120736" data-name="Trazado 120736" d="M40.527,76.273A33.281,33.281,0,0,1,7.5,47.077c-.295-2.437.931-4.781,3.368-6.41C17.99,35.9,31.54,27.923,42.312,27.923c8.257,0,20.038,7.047,28.467,12.961a5.961,5.961,0,0,1,2.871,5.433A33.254,33.254,0,0,1,40.527,76.273Zm1.785-46.8c-10.353,0-23.608,7.823-30.578,12.479-1.94,1.3-2.918,3.089-2.7,4.936a31.732,31.732,0,0,0,63.064-.73,4.471,4.471,0,0,0-2.2-4.02C58.237,33.977,48.443,29.476,42.312,29.476Z"/>
          <g id="Grupo_85321" data-name="Grupo 85321">
            <g id="Grupo_85316" data-name="Grupo 85316">
              <path id="Trazado_120737" data-name="Trazado 120737" d="M50.9,77.934,47.7,79.5a3.112,3.112,0,0,1-3.756-1.676l-1.3-2.934A3.786,3.786,0,0,1,44.33,70l1.723-.916" fill="#ffc9a3"/>
              <path id="Trazado_120738" data-name="Trazado 120738" d="M46.782,80.573A4.042,4.042,0,0,1,43.1,78.2L41.784,75.28a4.756,4.756,0,0,1,2.111-6.1l1.723-.916a.944.944,0,0,1,1.257.388.915.915,0,0,1-.357,1.242c-.016,0-.016.016-.031.016l-1.723.916a2.845,2.845,0,0,0-1.273,3.694l1.3,2.918a2.185,2.185,0,0,0,2.561,1.2l3.12-1.537a.953.953,0,0,1,1.257.435.93.93,0,0,1-.435,1.242l-3.26,1.6-.062.031A4.447,4.447,0,0,1,46.782,80.573Z"/>
            </g>
            <g id="Grupo_85317" data-name="Grupo 85317">
              <path id="Trazado_120739" data-name="Trazado 120739" d="M58.377,76.832l-3.725,2.406a3.955,3.955,0,0,1-5.122-1.6l-3.617-6.752a2.826,2.826,0,0,1,1.04-3.756l.776-.466a2.807,2.807,0,0,1,3.849.978c.016.016.016.031.031.047l.854,1.475" fill="#ffc9a3"/>
              <path id="Trazado_120740" data-name="Trazado 120740" d="M52.975,80.557a4.91,4.91,0,0,1-4.253-2.468h-.016L45.09,71.337a3.753,3.753,0,0,1,1.381-5l.776-.45A3.77,3.77,0,0,1,52.4,67.209a.054.054,0,0,0,.016.031l.854,1.475a.932.932,0,0,1-1.614.931L50.8,68.171a1.879,1.879,0,0,0-1.149-.885,1.848,1.848,0,0,0-1.459.2l-.761.45a1.9,1.9,0,0,0-.7,2.53l3.6,6.736A3.062,3.062,0,0,0,54.2,78.446l3.679-2.39a.932.932,0,0,1,1.009,1.568L55.1,80.061l-.062.031a4.776,4.776,0,0,1-2.064.466Z"/>
            </g>
            <g id="Grupo_85318" data-name="Grupo 85318">
              <path id="Trazado_120741" data-name="Trazado 120741" d="M65.113,73.914,60.907,76.63A4.432,4.432,0,0,1,55.133,74.8l-4.082-7.606a3.167,3.167,0,0,1,1.18-4.237l.869-.528a3.2,3.2,0,0,1,4.377,1.133c0,.016.016.016.016.031l.947,1.661" fill="#ffc9a3"/>
              <path id="Trazado_120742" data-name="Trazado 120742" d="M59.013,77.981a5.405,5.405,0,0,1-4.688-2.716H54.31l-4.082-7.621a4.113,4.113,0,0,1,1.521-5.479l.869-.512a4.109,4.109,0,0,1,5.681,1.49l.947,1.661a.912.912,0,0,1-.31,1.257c-.016,0-.016.016-.031.016a.95.95,0,0,1-1.273-.341l-.962-1.676a2.245,2.245,0,0,0-3.1-.807l-.869.512a2.271,2.271,0,0,0-.823,3.011l4.067,7.575a3.541,3.541,0,0,0,4.517,1.459l4.16-2.685a.932.932,0,1,1,1.009,1.568l-4.268,2.747-.062.031a5.271,5.271,0,0,1-2.282.512Z"/>
            </g>
            <g id="Grupo_85319" data-name="Grupo 85319">
              <path id="Trazado_120743" data-name="Trazado 120743" d="M73.961,62.583l-2.018,7.838A4.915,4.915,0,0,1,67.674,74.1l-.341.047A4.916,4.916,0,0,1,62.8,72.082L58.439,65.9a3.817,3.817,0,0,1,.73-5.2l.047-.047a3.852,3.852,0,0,1,5.417.605,1.184,1.184,0,0,1,.124.171l2.67,3.787" fill="#ffc9a3"/>
              <path id="Trazado_120744" data-name="Trazado 120744" d="M66.836,75.094a5.871,5.871,0,0,1-4.8-2.468l-4.362-6.178a4.761,4.761,0,0,1,.9-6.473l.062-.047a4.752,4.752,0,0,1,6.674.714c.062.078.14.171.2.264l2.67,3.772a.943.943,0,0,1-.233,1.3.924.924,0,0,1-1.288-.233L64,61.978a2.889,2.889,0,0,0-4.02-.714c-.062.047-.109.078-.171.124l-.062.031a2.907,2.907,0,0,0-.543,3.942l4.362,6.178a3.991,3.991,0,0,0,3.679,1.676l.341-.031a4.03,4.03,0,0,0,3.461-2.98L73.06,62.35a.937.937,0,0,1,1.1-.73.925.925,0,0,1,.73,1.1.221.221,0,0,1-.031.093l-2.018,7.838a5.862,5.862,0,0,1-5.076,4.377l-.341.031A3.757,3.757,0,0,1,66.836,75.094Z"/>
            </g>
            <g id="Grupo_85320" data-name="Grupo 85320">
              <path id="Trazado_120745" data-name="Trazado 120745" d="M72.936,45.432,78.8,52.168c3.058,4.222-.248,8.459-1.521,9.1l-5.215,2.623a4.287,4.287,0,0,1-5.759-1.894c-.016-.031-.031-.047-.031-.078a4.184,4.184,0,0,1,1.459-5.293l3.4-2.934a23.6,23.6,0,0,0,1.226-3.71c.341-1.645.574-4.548.574-4.548Z" fill="#ffc9a3"/>
              <path id="Trazado_120746" data-name="Trazado 120746" d="M70.142,65.284a5.242,5.242,0,0,1-1.692-.295,5.116,5.116,0,0,1-3.011-2.67,5.062,5.062,0,0,1,1.738-6.426l3.182-2.763a22.352,22.352,0,0,0,1.087-3.353c.295-1.381.559-4.393.559-4.424l.171-2.2,7.388,8.459a7.08,7.08,0,0,1,1.226,5.96A7.431,7.431,0,0,1,77.7,62.1l-5.215,2.623a5.159,5.159,0,0,1-2.344.559ZM73.65,47.667c-.093.854-.233,1.785-.388,2.515a24.143,24.143,0,0,1-1.273,3.88l-.093.2L68.264,57.4a3.239,3.239,0,0,0-1.149,4.113,3.343,3.343,0,0,0,1.925,1.723,3.383,3.383,0,0,0,2.608-.171l5.215-2.623a5.749,5.749,0,0,0,2.111-3.306,5.129,5.129,0,0,0-.9-4.393Z"/>
            </g>
          </g>
          <g id="Grupo_85327" data-name="Grupo 85327">
            <g id="Grupo_85322" data-name="Grupo 85322">
              <path id="Trazado_120747" data-name="Trazado 120747" d="M30.112,77.934,33.294,79.5a3.112,3.112,0,0,0,3.756-1.676l1.3-2.934A3.771,3.771,0,0,0,36.662,70l-1.723-.916" fill="#ffc9a3"/>
              <path id="Trazado_120748" data-name="Trazado 120748" d="M34.21,80.573a4.336,4.336,0,0,1-1.18-.171l-.078-.031-3.26-1.6a.926.926,0,0,1-.435-1.226.015.015,0,0,1,.016-.016.93.93,0,0,1,1.242-.435l3.12,1.537a2.185,2.185,0,0,0,2.561-1.2l1.3-2.918a2.845,2.845,0,0,0-1.273-3.694L34.5,69.909a.934.934,0,0,1,.792-1.692c.031.016.047.031.078.031l1.723.916a4.756,4.756,0,0,1,2.111,6.1l-1.3,2.918a4.053,4.053,0,0,1-3.694,2.39Z"/>
            </g>
            <g id="Grupo_85323" data-name="Grupo 85323">
              <path id="Trazado_120749" data-name="Trazado 120749" d="M22.615,76.832l3.741,2.406a3.936,3.936,0,0,0,5.107-1.6l3.617-6.752a2.811,2.811,0,0,0-1.04-3.756l-.761-.466a2.825,2.825,0,0,0-3.865.978c-.016.016-.016.031-.031.047l-.854,1.475" fill="#ffc9a3"/>
              <path id="Trazado_120750" data-name="Trazado 120750" d="M28.017,80.557a4.776,4.776,0,0,1-2.064-.466l-.047-.031-3.787-2.437a.932.932,0,1,1,1.009-1.568l3.679,2.375a3.037,3.037,0,0,0,3.849-1.242l3.617-6.736a1.9,1.9,0,0,0-.7-2.53l-.776-.45a1.9,1.9,0,0,0-2.592.667l-.016.016-.854,1.475a.893.893,0,0,1-1.226.357.054.054,0,0,1-.031-.016.937.937,0,0,1-.357-1.273l.854-1.475a3.755,3.755,0,0,1,5.138-1.366.054.054,0,0,1,.031.016l.776.45a3.753,3.753,0,0,1,1.381,5l-3.617,6.767A4.954,4.954,0,0,1,28.017,80.557Z"/>
            </g>
            <g id="Grupo_85324" data-name="Grupo 85324">
              <path id="Trazado_120751" data-name="Trazado 120751" d="M15.879,73.914,20.1,76.63A4.447,4.447,0,0,0,25.875,74.8l4.067-7.606a3.18,3.18,0,0,0-1.164-4.237l-.869-.528a3.184,3.184,0,0,0-4.362,1.1c-.016.016-.016.031-.031.062l-.962,1.661" fill="#ffc9a3"/>
              <path id="Trazado_120752" data-name="Trazado 120752" d="M21.979,77.981a5.271,5.271,0,0,1-2.282-.512l-.062-.031L15.382,74.69a.932.932,0,1,1,1.009-1.568l4.16,2.685a3.543,3.543,0,0,0,4.5-1.459l4.082-7.59a2.257,2.257,0,0,0-.838-3.011l-.869-.512a2.245,2.245,0,0,0-3.1.807l-.962,1.676a.932.932,0,1,1-1.614-.931l.962-1.661a4.13,4.13,0,0,1,5.619-1.537c.016.016.047.031.062.047l.854.512a4.113,4.113,0,0,1,1.521,5.479l-4.082,7.637a5.449,5.449,0,0,1-4.7,2.716Z"/>
            </g>
            <g id="Grupo_85325" data-name="Grupo 85325">
              <path id="Trazado_120753" data-name="Trazado 120753" d="M7.031,62.583l2.018,7.838A4.915,4.915,0,0,0,13.318,74.1l.341.047a4.916,4.916,0,0,0,4.532-2.064L22.568,65.9a3.833,3.833,0,0,0-.745-5.2l-.047-.047a3.852,3.852,0,0,0-5.417.605,1.185,1.185,0,0,0-.124.171l-2.654,3.787" fill="#ffc9a3"/>
              <path id="Trazado_120754" data-name="Trazado 120754" d="M14.171,75.094a3.956,3.956,0,0,1-.605-.031l-.341-.031a5.9,5.9,0,0,1-5.076-4.377L6.131,62.816A.928.928,0,0,1,7.9,62.257c.016.031.016.062.031.093L9.949,70.2a4.048,4.048,0,0,0,3.461,2.98l.341.031a3.976,3.976,0,0,0,3.679-1.676l4.377-6.178a2.941,2.941,0,0,0-.559-3.942l-.062-.031a2.871,2.871,0,0,0-2.22-.621A2.935,2.935,0,0,0,17,61.978L14.342,65.75a.93.93,0,1,1-1.521-1.071l2.654-3.772a4.759,4.759,0,0,1,6.643-1.164c.093.062.171.124.248.186l.047.047a4.793,4.793,0,0,1,.916,6.473l-4.377,6.178A5.864,5.864,0,0,1,14.171,75.094Z"/>
            </g>
            <g id="Grupo_85326" data-name="Grupo 85326">
              <path id="Trazado_120755" data-name="Trazado 120755" d="M8.056,45.432,2.189,52.168c-3.058,4.222.248,8.459,1.521,9.1L8.94,63.887a4.312,4.312,0,0,0,5.774-1.925c0-.016.016-.031.016-.047a4.2,4.2,0,0,0-1.475-5.293L9.872,53.689a22.1,22.1,0,0,1-1.226-3.71,45.548,45.548,0,0,1-.59-4.548Z" fill="#ffc9a3"/>
              <path id="Trazado_120756" data-name="Trazado 120756" d="M10.85,65.284a5.049,5.049,0,0,1-2.328-.559L3.291,62.1A7.431,7.431,0,0,1,.2,57.57a7.088,7.088,0,0,1,1.242-5.96l.047-.062,7.326-8.4.171,2.2c0,.031.233,2.871.559,4.424a22.9,22.9,0,0,0,1.1,3.353l3.166,2.763a5.067,5.067,0,0,1,1.754,6.426,5.212,5.212,0,0,1-3.011,2.67A5.335,5.335,0,0,1,10.85,65.284ZM2.918,52.742a5.181,5.181,0,0,0-.9,4.393,5.828,5.828,0,0,0,2.111,3.306L9.36,63.064a3.349,3.349,0,0,0,4.486-1.475c.016-.031.031-.047.031-.078A3.217,3.217,0,0,0,12.743,57.4l-.047-.031-3.6-3.1-.078-.2a22.752,22.752,0,0,1-1.288-3.88c-.155-.73-.279-1.661-.388-2.515Z"/>
            </g>
          </g>
        </g>
        <g id="Grupo_85329" data-name="Grupo 85329">
          <path id="Trazado_120757" data-name="Trazado 120757" d="M27.345,38.68h1.863v3.137H27.345Z" transform="matrix(0.551, -0.835, 0.835, 0.551, -20.884, 41.688)"/>
          <path id="Trazado_120758" data-name="Trazado 120758" d="M53.8,38.46h3.134v1.862H53.8Z" transform="matrix(0.233, -0.972, 0.972, 0.233, 4.15, 84.07)"/>
          <path id="Trazado_120759" data-name="Trazado 120759" d="M20.122,50.468h3.134V52.33H20.122Z" transform="matrix(0.233, -0.972, 0.972, 0.233, -33.373, 60.522)"/>
          <path id="Trazado_120760" data-name="Trazado 120760" d="M41.64,41.454h3.136v1.863H41.64Z" transform="matrix(0.143, -0.99, 0.99, 0.143, -4.902, 79.079)"/>
          <path id="Trazado_120761" data-name="Trazado 120761" d="M57.943,49.652h3.136v1.863H57.943Z" transform="matrix(0.143, -0.99, 0.99, 0.143, 0.964, 102.243)"/>
          <path id="Trazado_120762" data-name="Trazado 120762" d="M31.486,50.324H34.62v1.862H31.486Z" transform="translate(-6.49 4.823) rotate(-7.587)"/>
          <path id="Trazado_120763" data-name="Trazado 120763" d="M50.386,46.057h3.135v1.862H50.386Z" transform="translate(-5.759 7.285) rotate(-7.587)"/>
        </g>
        <g id="Grupo_85336" data-name="Grupo 85336">
          <g id="Grupo_85332" data-name="Grupo 85332">
            <g id="Grupo_85330" data-name="Grupo 85330">
              <path id="Trazado_120764" data-name="Trazado 120764" d="M50.492,23.313c-4.517,3.275-9.918,1.568-9.918,1.568a13.531,13.531,0,0,1,5.153-8.133c4.16-3.027,9.67-1.909,9.67-1.909A11.393,11.393,0,0,1,50.492,23.313Z" fill="#719b29"/>
              <path id="Trazado_120765" data-name="Trazado 120765" d="M43.973,26.263a13.392,13.392,0,0,1-3.679-.5.94.94,0,0,1-.636-1.04,14.376,14.376,0,0,1,5.526-8.739,13.685,13.685,0,0,1,10.4-2.064.931.931,0,0,1,.745.916,12.249,12.249,0,0,1-5.293,9.22,11.845,11.845,0,0,1-7.062,2.2Zm-2.282-2.08a10.866,10.866,0,0,0,8.258-1.63,10.723,10.723,0,0,0,4.439-6.907,12.266,12.266,0,0,0-8.118,1.863,13,13,0,0,0-4.579,6.674Z"/>
            </g>
            <g id="Grupo_85331" data-name="Grupo 85331">
              <path id="Trazado_120766" data-name="Trazado 120766" d="M30.484,23.313C35,26.589,40.4,24.881,40.4,24.881a13.508,13.508,0,0,0-5.169-8.133c-4.16-3.027-9.654-1.909-9.654-1.909A11.332,11.332,0,0,0,30.484,23.313Z" fill="#8dc63f"/>
              <path id="Trazado_120767" data-name="Trazado 120767" d="M37,26.263a11.845,11.845,0,0,1-7.062-2.2,12.19,12.19,0,0,1-5.293-9.22.9.9,0,0,1,.745-.916c.233-.047,5.96-1.149,10.4,2.064a15.171,15.171,0,0,1,5.526,8.739.94.94,0,0,1-.636,1.04A13.392,13.392,0,0,1,37,26.263Zm-5.976-3.71a10.866,10.866,0,0,0,8.258,1.63,12.7,12.7,0,0,0-4.594-6.674,12.016,12.016,0,0,0-8.1-1.878A10.681,10.681,0,0,0,31.028,22.553Z"/>
            </g>
          </g>
          <g id="Grupo_85335" data-name="Grupo 85335">
            <g id="Grupo_85333" data-name="Grupo 85333">
              <path id="Trazado_120768" data-name="Trazado 120768" d="M48.536,8.568a8.973,8.973,0,0,1-7.978,1.381A12.186,12.186,0,0,1,44.7,2.794,9.575,9.575,0,0,1,52.494,1.1a10.4,10.4,0,0,1-3.958,7.466Z" fill="#719b29"/>
              <path id="Trazado_120769" data-name="Trazado 120769" d="M43.29,11.284a10.1,10.1,0,0,1-3.042-.45.935.935,0,0,1-.621-1.009,13.132,13.132,0,0,1,4.5-7.761A10.591,10.591,0,0,1,52.7.2a.93.93,0,0,1,.73.916,11.259,11.259,0,0,1-4.3,8.18A9.168,9.168,0,0,1,43.29,11.284ZM41.66,9.266a7.748,7.748,0,0,0,6.3-1.428,9.655,9.655,0,0,0,3.523-5.929,8.906,8.906,0,0,0-6.193,1.614A11.914,11.914,0,0,0,41.66,9.266Z"/>
            </g>
            <g id="Grupo_85334" data-name="Grupo 85334">
              <path id="Trazado_120770" data-name="Trazado 120770" d="M32.425,8.568a9,9,0,0,0,7.994,1.381,12.256,12.256,0,0,0-4.16-7.155A9.542,9.542,0,0,0,28.482,1.1a10.348,10.348,0,0,0,3.942,7.466Z" fill="#8dc63f"/>
              <path id="Trazado_120771" data-name="Trazado 120771" d="M37.671,11.284A9.215,9.215,0,0,1,31.85,9.3a11.259,11.259,0,0,1-4.3-8.18A.915.915,0,0,1,28.28.2c.2-.047,4.9-1.04,8.568,1.863a13.457,13.457,0,0,1,4.486,7.761.923.923,0,0,1-.605,1.009A10.2,10.2,0,0,1,37.671,11.284Zm-8.18-9.375a9.475,9.475,0,0,0,3.523,5.929,7.739,7.739,0,0,0,6.3,1.428,11.2,11.2,0,0,0-3.632-5.743,8.386,8.386,0,0,0-6.193-1.614Z"/>
            </g>
          </g>
          <path id="Trazado_120772" data-name="Trazado 120772" d="M39.549,9h1.863V33.822H39.549Z"/>
        </g>
      </g>
    </g>
  </g>
</svg>
