<svg xmlns="http://www.w3.org/2000/svg" xmlns:xlink="http://www.w3.org/1999/xlink" width="54" height="54" viewBox="0 0 54 54">
  <defs>
    <clipPath id="clip-path">
      <rect id="Rectángulo_34436" data-name="Rectángulo 34436" width="54" height="54" transform="translate(211 10812)" fill="#fff" stroke="#707070" stroke-width="1"/>
    </clipPath>
  </defs>
  <g id="Enmascarar_grupo_114" data-name="Enmascarar grupo 114" transform="translate(-211 -10812)" clip-path="url(#clip-path)">
    <g id="_28-Respiratory" data-name="28-Respiratory" transform="translate(210.143 10811.572)">
      <path id="Trazado_119333" data-name="Trazado 119333" d="M54,13.714V24.856a3.358,3.358,0,0,1-3.428,3.428L46.987,24.7a1.621,1.621,0,0,0,.154-.7V20.571a.857.857,0,0,0-.857-.857H42.856L41.142,18V15.428A3.428,3.428,0,0,0,37.713,12H30.856V6.857H47.141S54,6.857,54,13.714Z" fill="#7e8596"/>
      <path id="Trazado_119334" data-name="Trazado 119334" d="M43.713,25.713C43.713,28.285,42,32.57,42,32.57s-2.571-5.143-6-5.143a14.063,14.063,0,0,0-4.808.72L30,24.856l.009-.009a17.828,17.828,0,0,1,6.848-1.706C40.284,23.142,43.713,25.713,43.713,25.713Z" fill="#ff9696"/>
      <path id="Trazado_119335" data-name="Trazado 119335" d="M48,48H37.713A1.719,1.719,0,0,1,36,46.284v-.857c0-2.571,1.414-4.937,3.428-5.143L42,39.427c.857-1.714,0-6.857,0-6.857s1.714-4.286,1.714-6.857C43.713,25.713,48,30.856,48,48Z" fill="#ff9696"/>
      <path id="Trazado_119336" data-name="Trazado 119336" d="M54,37.713v8.571A1.719,1.719,0,0,1,52.284,48H48c0-17.142-4.286-22.285-4.286-22.285h1.714a1.714,1.714,0,0,0,1.56-1.011l3.583,3.583Z" fill="#faa68e"/>
      <path id="Trazado_119337" data-name="Trazado 119337" d="M36,27.428c3.428,0,6,5.143,6,5.143-1.714,1.714-8.571,1.714-8.571,1.714L31.19,28.148A14.063,14.063,0,0,1,36,27.428Z" fill="#ffcdbe"/>
      <path id="Trazado_119338" data-name="Trazado 119338" d="M46.987,24.7a1.714,1.714,0,0,1-1.56,1.011H43.713s-3.428-2.571-6.857-2.571a17.828,17.828,0,0,0-6.848,1.706l2.563-4.277-1.714-1.714L32.57,12h5.143a3.428,3.428,0,0,1,3.428,3.428V18l1.714,1.714h3.428a.857.857,0,0,1,.857.857V24A1.621,1.621,0,0,1,46.987,24.7Z" fill="#ffcdbe"/>
      <path id="Trazado_119339" data-name="Trazado 119339" d="M52.284,26.571,48.7,22.988a1.621,1.621,0,0,0,.154-.7V18.857A.857.857,0,0,0,48,18H44.57l-1.714-1.714V13.714a3.428,3.428,0,0,0-3.428-3.428H34.285A1.714,1.714,0,0,1,32.57,8.571V6.857H30.856V12h6.857a3.428,3.428,0,0,1,3.428,3.428V18l1.714,1.714h3.428a.857.857,0,0,1,.857.857V24a1.621,1.621,0,0,1-.154.7l3.583,3.583a3.08,3.08,0,0,0,3.108-1.959,3.827,3.827,0,0,1-1.394.244Z" fill="#707789"/>
      <path id="Trazado_119340" data-name="Trazado 119340" d="M30.856,38.57l-4.286,4.286V40.284c-7.714,0-7.714,7.714-7.714,7.714H15.428c0-11.142,11.142-11.142,11.142-11.142V34.285Z" fill="#b3f2d7"/>
      <path id="Trazado_119341" data-name="Trazado 119341" d="M24,29.142l-4.286,4.286V30.856H.857V27.428H19.714V24.856Z" fill="#b3f2d7"/>
      <path id="Trazado_119342" data-name="Trazado 119342" d="M26.571,17.142l-4.286,4.286V18.857s-11.142,0-11.142-11.142h3.428s0,7.714,7.714,7.714V12.857Z" fill="#b3f2d7"/>
      <g id="Grupo_84913" data-name="Grupo 84913">
        <path id="Trazado_119343" data-name="Trazado 119343" d="M11.142,18.857h1.714v1.714H11.142Z" fill="#ff475a"/>
        <path id="Trazado_119344" data-name="Trazado 119344" d="M7.714,23.142H9.428v1.714H7.714Z" fill="#ff475a"/>
        <path id="Trazado_119345" data-name="Trazado 119345" d="M4.286,13.714H6v1.714H4.286Z" fill="#ff475a"/>
        <path id="Trazado_119346" data-name="Trazado 119346" d="M4.286,33.427H6v1.714H4.286Z" fill="#ff475a"/>
        <path id="Trazado_119347" data-name="Trazado 119347" d="M11.142,37.713h1.714v1.714H11.142Z" fill="#ff475a"/>
        <path id="Trazado_119348" data-name="Trazado 119348" d="M39.427,25.713h1.714v1.714H39.427Z" fill="#ff475a"/>
        <path id="Trazado_119349" data-name="Trazado 119349" d="M43.713,33.427h1.714v1.714H43.713Z" fill="#ff475a"/>
        <path id="Trazado_119350" data-name="Trazado 119350" d="M43.713,38.57h1.714v1.714H43.713Z" fill="#ff475a"/>
        <path id="Trazado_119351" data-name="Trazado 119351" d="M43.713,42.856h1.714V44.57H43.713Z" fill="#ff475a"/>
        <path id="Trazado_119352" data-name="Trazado 119352" d="M39.427,43.713h1.714v1.714H39.427Z" fill="#ff475a"/>
      </g>
      <path id="Trazado_119353" data-name="Trazado 119353" d="M54.855,24.856V13.714C54.855,7.612,49.81,6,47.141,6H30.856A.857.857,0,0,0,30,6.857V12a.857.857,0,0,0,.857.857h.616l-1.448,5.792a.857.857,0,0,0,.225.813L31.491,20.7l-2.228,3.711a.857.857,0,0,0-.07.735l3.428,9.428a.857.857,0,0,0,.807.564c1,0,5.375-.069,7.9-1.164a15.428,15.428,0,0,1,.016,4.764l-2.106.7c-2.343.308-4.1,2.858-4.1,5.984v.857a2.571,2.571,0,0,0,2.571,2.571H52.284a2.571,2.571,0,0,0,2.571-2.571V37.713a.857.857,0,0,0-.052-.293l-3.056-8.407a4.176,4.176,0,0,0,3.109-4.157ZM33.176,19.965,31.8,18.593l1.435-5.737h4.473a2.571,2.571,0,0,1,2.571,2.571V18a.857.857,0,0,0,.251.606L42.25,20.32a.857.857,0,0,0,.606.251h3.428V24a.857.857,0,0,1-.857.857H43.986c-.868-.6-3.951-2.571-7.13-2.571a16.073,16.073,0,0,0-4.823.847l1.272-2.12a.857.857,0,0,0-.129-1.047ZM41.8,30.593c-1.14-1.665-3.21-4.022-5.8-4.022a16.285,16.285,0,0,0-4.277.514l-.645-1.773A16.074,16.074,0,0,1,36.856,24a12.16,12.16,0,0,1,5.983,2.151A20.331,20.331,0,0,1,41.8,30.59ZM32.313,28.7A14.934,14.934,0,0,1,36,28.285c2.044,0,3.968,2.506,4.877,4.028-1.434.733-4.621,1.056-6.851,1.107Zm4.543,17.582v-.857c0-2.214,1.193-4.138,2.657-4.29a.828.828,0,0,0,.183-.04l2.571-.857a.857.857,0,0,0,.5-.429c.871-1.743.317-5.863.116-7.146A33.931,33.931,0,0,0,44.2,28.418c1.178,2.766,2.846,8.481,2.936,18.725h-9.42a.857.857,0,0,1-.857-.858Zm16.285,0a.857.857,0,0,1-.857.857H48.849c-.1-12.073-2.335-18.1-3.61-20.571h.189a2.556,2.556,0,0,0,1.629-.585l2.771,2.771,3.314,9.108Zm0-21.433a2.444,2.444,0,0,1-2.229,2.561l-2.952-2.953A2.619,2.619,0,0,0,48,24V20.571a1.714,1.714,0,0,0-1.714-1.714H43.211L42,17.645V15.428a4.291,4.291,0,0,0-4.286-4.286h-6V7.714H47.141c.245,0,6,.1,6,6Z"/>
      <path id="Trazado_119354" data-name="Trazado 119354" d="M.857,26.571H2.571v1.714H.857Z"/>
      <path id="Trazado_119355" data-name="Trazado 119355" d="M18.857,33.427a.857.857,0,0,0,.529.792.846.846,0,0,0,.328.065.857.857,0,0,0,.606-.251l4.286-4.286a.857.857,0,0,0,0-1.212L20.32,24.25a.857.857,0,0,0-1.463.606v1.714H4.286v1.714H19.714a.857.857,0,0,0,.857-.857v-.5l2.216,2.217-2.216,2.216v-.5A.857.857,0,0,0,19.714,30H.857v1.714h18Z"/>
      <path id="Trazado_119356" data-name="Trazado 119356" d="M21.428,19.657v1.771a.857.857,0,0,0,.529.792.846.846,0,0,0,.328.065.857.857,0,0,0,.606-.251l4.286-4.286a.857.857,0,0,0,0-1.212l-4.286-4.286a.857.857,0,0,0-1.463.606v1.677c-5.9-.532-6-6.554-6-6.819H13.714c0,.086.1,8.571,8.571,8.571a.857.857,0,0,0,.857-.857v-.5l2.216,2.216-2.216,2.217v-.5A.857.857,0,0,0,22.285,18C21.865,18,12,17.849,12,7.714H10.285c0,9.973,8.4,11.657,11.142,11.943Z"/>
      <path id="Trazado_119357" data-name="Trazado 119357" d="M27.177,33.679a.857.857,0,0,0-1.463.606v1.771C22.971,36.342,14.571,38.026,14.571,48h1.714c0-10.135,9.867-10.285,10.285-10.285a.857.857,0,0,0,.857-.857v-.5l2.216,2.216-2.217,2.216v-.5a.857.857,0,0,0-.857-.857C18.1,39.427,18,47.913,18,48h1.714c0-.267.07-6.29,6-6.82v1.677a.857.857,0,0,0,1.463.606l4.286-4.286a.857.857,0,0,0,0-1.212Z"/>
      <path id="Trazado_119358" data-name="Trazado 119358" d="M11.142,18.857h1.714v1.714H11.142Z"/>
      <path id="Trazado_119359" data-name="Trazado 119359" d="M7.714,23.142H9.428v1.714H7.714Z"/>
      <path id="Trazado_119360" data-name="Trazado 119360" d="M4.286,13.714H6v1.714H4.286Z"/>
      <path id="Trazado_119361" data-name="Trazado 119361" d="M4.286,33.427H6v1.714H4.286Z"/>
      <path id="Trazado_119362" data-name="Trazado 119362" d="M11.142,37.713h1.714v1.714H11.142Z"/>
      <path id="Trazado_119363" data-name="Trazado 119363" d="M39.427,25.713h1.714v1.714H39.427Z"/>
      <path id="Trazado_119364" data-name="Trazado 119364" d="M43.713,33.427h1.714v1.714H43.713Z"/>
      <path id="Trazado_119365" data-name="Trazado 119365" d="M43.713,38.57h1.714v1.714H43.713Z"/>
      <path id="Trazado_119366" data-name="Trazado 119366" d="M43.713,42.856h1.714V44.57H43.713Z"/>
      <path id="Trazado_119367" data-name="Trazado 119367" d="M39.427,43.713h1.714v1.714H39.427Z"/>
    </g>
  </g>
</svg>
