<svg xmlns="http://www.w3.org/2000/svg" xmlns:xlink="http://www.w3.org/1999/xlink" width="54" height="54" viewBox="0 0 54 54">
  <defs>
    <clipPath id="clip-path">
      <rect id="Rectángulo_34450" data-name="Rectángulo 34450" width="54" height="54" transform="translate(841 11058)" fill="#fff" stroke="#707070" stroke-width="1"/>
    </clipPath>
  </defs>
  <g id="Enmascarar_grupo_123" data-name="Enmascarar grupo 123" transform="translate(-841 -11058)" clip-path="url(#clip-path)">
    <g id="Filled_outline" data-name="Filled outline" transform="translate(839.2 11056.2)">
      <path id="Trazado_119494" data-name="Trazado 119494" d="M2.7,51.3H54.9v3.6H2.7Z" fill="#348fd9"/>
      <path id="Trazado_119495" data-name="Trazado 119495" d="M12.6,47.7H34.2v3.6H12.6Z" fill="#3086cd"/>
      <path id="Trazado_119496" data-name="Trazado 119496" d="M34.618,11.184,9.849,2.7,8.1,7.809l17.029,5.833.565,4.2a2.912,2.912,0,0,0,4.929,1.687l3.021-2.971,11.5,3.932,1.622-5.152Z" fill="#ffb531"/>
      <path id="Trazado_119497" data-name="Trazado 119497" d="M46.762,15.337,45.14,20.49l-11.5-3.932-3.021,2.971a2.912,2.912,0,0,1-4.31-.247l8.306-8.1Z" fill="#ffa912"/>
      <path id="Trazado_119498" data-name="Trazado 119498" d="M50.4,36H54v7.2H50.4Z" fill="#f35244"/>
      <path id="Trazado_119499" data-name="Trazado 119499" d="M54.848,12.943a31.389,31.389,0,0,1-1.518,7.768c-2.142,6.607-5.579,9.363-10.651,12.477L40.5,32.4l2.985-9.457L49.429,4.112H53.9a25.939,25.939,0,0,1,.952,8.831Z" fill="#ffb531"/>
      <path id="Trazado_119500" data-name="Trazado 119500" d="M54.848,12.943a31.389,31.389,0,0,1-1.518,7.768c-2.142,6.607-5.579,9.363-10.651,12.477L40.5,32.4l2.985-9.457Z" fill="#ffa912"/>
      <path id="Trazado_119501" data-name="Trazado 119501" d="M44.705,26.05h1.8v1.8h-1.8Z" transform="translate(5.329 61.361) rotate(-71.094)"/>
      <path id="Trazado_119502" data-name="Trazado 119502" d="M54.9,50.4H53.1V44.1H54a.9.9,0,0,0,.9-.9V36a.9.9,0,0,0-.9-.9h-.9V23.785a25.882,25.882,0,0,0,1.086-2.8,28.872,28.872,0,0,0,.575-17.125.9.9,0,0,0-.865-.651H49.428a.9.9,0,0,0-.859.629l-3.182,10.08L10.142,1.848A.9.9,0,0,0,9,2.408L7.248,7.517a.9.9,0,0,0,.56,1.143l16.5,5.653.4,2.94a.893.893,0,0,0-.357.454c-3.31,9.628-8.613,25.163-9.733,29.092H12.6a.9.9,0,0,0-.9.9v2.7h-9a.9.9,0,0,0-.9.9v3.6a.9.9,0,0,0,.9.9H54.9a.9.9,0,0,0,.9-.9V51.3A.9.9,0,0,0,54.9,50.4Zm-1.8-8.1H51.3V36.9h1.8Zm-1.8-7.2h-.9a.9.9,0,0,0-.9.9v7.2a.9.9,0,0,0,.9.9h.9v6.3H35.1V47.7a.9.9,0,0,0-.9-.9h-.9V18.157l.577-.568,9.343,3.2L39.641,32.13a.9.9,0,0,0,.552,1.117l2.179.789a.9.9,0,0,0,.778-.08c3.191-1.959,5.964-3.87,8.15-7Zm-30.667-.911c.023,0,.044.011.068.011h7.887l-9.566,4.783c.5-1.5,1.044-3.113,1.611-4.794ZM23.071,27H29.22l-7.774,4.784c.534-1.578,1.081-3.185,1.625-4.784Zm7.376-6.24a3.814,3.814,0,0,0,.806-.589l.247-.243V25.2H25.021ZM31.5,32.4H23.88L31.5,27.71Zm0,7.2H21.813L31.5,34.756ZM18.216,41.4h9.726L16.671,46.146c.356-1.134.893-2.778,1.545-4.746Zm13.283.456V46.8H19.757ZM50.089,5.012h3.12a27.292,27.292,0,0,1-.735,15.421A24.327,24.327,0,0,1,51.308,23.4H51.3v.018c-1.873,3.922-4.525,6.166-8.724,8.776l-.958-.347,3.57-11.31c.006-.015.018-.026.023-.041l1.623-5.152c0-.011,0-.022,0-.033ZM9.243,7.249,10.41,3.843l34.437,11.8-1.084,3.434-9.828-3.366a.9.9,0,0,0-.923.21l-2.542,2.5-1.031.844a2,2,0,0,1-2.853-1.54l-.564-4.2a.9.9,0,0,0-.6-.731Zm16.3,12.509a3.791,3.791,0,0,0,1.727,1.273L24.269,23.49C24.707,22.208,25.136,20.958,25.548,19.758ZM13.5,48.6H33.3v1.8H13.5ZM54,54H3.6V52.2H54Z"/>
      <path id="Trazado_119503" data-name="Trazado 119503" d="M27.9,15.9h1.8v1.8H27.9Z" transform="translate(3.572 38.604) rotate(-71.094)"/>
    </g>
  </g>
</svg>
