<svg xmlns="http://www.w3.org/2000/svg" xmlns:xlink="http://www.w3.org/1999/xlink" width="54" height="54" viewBox="0 0 54 54">
  <defs>
    <clipPath id="clip-path">
      <rect id="Rectángulo_34428" data-name="Rectángulo 34428" width="54" height="54" transform="translate(1156 10689)" fill="#fff" stroke="#707070" stroke-width="1"/>
    </clipPath>
  </defs>
  <g id="Enmascarar_grupo_113" data-name="Enmascarar grupo 113" transform="translate(-1156 -10689)" clip-path="url(#clip-path)">
    <g id="toxico_1_" data-name="toxico (1)" transform="translate(1156 10689)">
      <path id="Trazado_119307" data-name="Trazado 119307" d="M33.709,27.905a4.49,4.49,0,0,0-1.974-.454H10.09A4.51,4.51,0,0,0,5.58,31.96V53.155H36.244v-.045a2.255,2.255,0,0,1-1.8-2.21V41.881a2.255,2.255,0,0,1,1.8-2.21V32.063A7.441,7.441,0,0,1,33.709,27.905Z" fill="#faec8e"/>
      <path id="Trazado_119308" data-name="Trazado 119308" d="M14.148,27.451H10.09A4.51,4.51,0,0,0,5.58,31.96V53.155H9.639V31.96A4.51,4.51,0,0,1,14.148,27.451Z" fill="#fbc96c"/>
      <path id="Trazado_119309" data-name="Trazado 119309" d="M20.912.846a13.079,13.079,0,0,0-6.8,24.252l.785,2.354H26.924l.785-2.354A13.079,13.079,0,0,0,20.912.846Z" fill="#faec8e"/>
      <circle id="Elipse_4953" data-name="Elipse 4953" cx="4.058" cy="4.058" r="4.058" transform="translate(10.09 10.315)" fill="#bee7f3"/>
      <g id="Grupo_84909" data-name="Grupo 84909">
        <path id="Trazado_119310" data-name="Trazado 119310" d="M16.4,11a4.034,4.034,0,0,0-2.14-.678l-4.163,4.163a4.032,4.032,0,0,0,.678,2.14Z" fill="#fff"/>
        <path id="Trazado_119311" data-name="Trazado 119311" d="M17.548,12.158l-5.615,5.615a4.044,4.044,0,0,0,.785.4l5.229-5.229A4.033,4.033,0,0,0,17.548,12.158Z" fill="#fff"/>
      </g>
      <circle id="Elipse_4954" data-name="Elipse 4954" cx="4.058" cy="4.058" r="4.058" transform="translate(23.618 10.315)" fill="#bee7f3"/>
      <g id="Grupo_84910" data-name="Grupo 84910">
        <path id="Trazado_119312" data-name="Trazado 119312" d="M29.925,11a4.034,4.034,0,0,0-2.14-.678l-4.163,4.163a4.032,4.032,0,0,0,.678,2.14Z" fill="#fff"/>
        <path id="Trazado_119313" data-name="Trazado 119313" d="M31.076,12.158l-5.615,5.615a4.047,4.047,0,0,0,.785.4l5.229-5.229A4.038,4.038,0,0,0,31.076,12.158Z" fill="#fff"/>
      </g>
      <rect id="Rectángulo_34451" data-name="Rectángulo 34451" width="6.313" height="12.451" transform="translate(17.756 40.704)" fill="#5293c4"/>
      <path id="Trazado_119314" data-name="Trazado 119314" d="M20.912,53.1a.845.845,0,0,1-.846-.846V41.43a.846.846,0,0,1,1.691,0V52.253A.846.846,0,0,1,20.912,53.1Z" fill="#fff"/>
      <path id="Trazado_119315" data-name="Trazado 119315" d="M20.912,18.883A6.313,6.313,0,0,0,14.6,25.2l1.027,4.11H26.2l1.027-4.11A6.313,6.313,0,0,0,20.912,18.883Z" fill="#c1bcbf"/>
      <path id="Trazado_119316" data-name="Trazado 119316" d="M20.912,18.883A6.313,6.313,0,0,0,14.6,25.2l1.027,4.11H20.95V18.884Z" fill="#a19aa0"/>
      <path id="Trazado_119317" data-name="Trazado 119317" d="M20.912,24.294c-2.2,0-3.521,1.8-4.029,3.934h8.058C24.433,26.095,23.112,24.294,20.912,24.294Z" fill="#f9f8f9"/>
      <g id="Grupo_84911" data-name="Grupo 84911">
        <path id="Trazado_119318" data-name="Trazado 119318" d="M20.912,24.294c-2.2,0-3.521,1.8-4.029,3.934h4.057V24.3Z" fill="#e0dddf"/>
        <path id="Trazado_119319" data-name="Trazado 119319" d="M24.942,28.229a7.2,7.2,0,1,1-8.058,0,7.22,7.22,0,0,1,8.058,0Z" fill="#e0dddf"/>
      </g>
      <g id="Grupo_84912" data-name="Grupo 84912">
        <path id="Trazado_119320" data-name="Trazado 119320" d="M25.873,32.862a1.8,1.8,0,1,0-1.8,1.8A1.8,1.8,0,0,0,25.873,32.862Z" fill="#a19aa0"/>
        <path id="Trazado_119321" data-name="Trazado 119321" d="M22.716,37.372a1.8,1.8,0,1,0-1.8,1.8A1.8,1.8,0,0,0,22.716,37.372Z" fill="#a19aa0"/>
        <path id="Trazado_119322" data-name="Trazado 119322" d="M19.56,32.862a1.8,1.8,0,1,0-1.8,1.8A1.8,1.8,0,0,0,19.56,32.862Z" fill="#a19aa0"/>
      </g>
      <path id="Trazado_119323" data-name="Trazado 119323" d="M47.969,44.136v4.509a4.51,4.51,0,0,1-4.509,4.509H36.7a2.283,2.283,0,0,1-.451-.045,2.255,2.255,0,0,1-1.8-2.21V41.881a2.255,2.255,0,0,1,1.8-2.21,2.282,2.282,0,0,1,.451-.045h6.764A4.509,4.509,0,0,1,47.969,44.136Z" fill="#c1bcbf"/>
      <path id="Trazado_119324" data-name="Trazado 119324" d="M40.979,18.883a7.44,7.44,0,1,1-7.441,7.44A7.441,7.441,0,0,1,40.979,18.883Z" fill="#db3d5a"/>
      <path id="Trazado_119325" data-name="Trazado 119325" d="M40.979,20.687a5.636,5.636,0,1,1-5.637,5.637A5.637,5.637,0,0,1,40.979,20.687Z" fill="#ff675c"/>
      <rect id="Rectángulo_34452" data-name="Rectángulo 34452" width="8.117" height="2.706" transform="translate(37.146 24.745)" fill="#fff"/>
      <path id="Trazado_119326" data-name="Trazado 119326" d="M20.405,32.862a2.649,2.649,0,1,0-2.649,2.649A2.652,2.652,0,0,0,20.405,32.862Zm-3.608,0a.958.958,0,1,1,.958.958A.959.959,0,0,1,16.8,32.862Z"/>
      <path id="Trazado_119327" data-name="Trazado 119327" d="M24.069,35.512a2.649,2.649,0,1,0-2.649-2.649A2.652,2.652,0,0,0,24.069,35.512Zm0-3.607a.958.958,0,1,1-.958.958A.959.959,0,0,1,24.069,31.9Z"/>
      <path id="Trazado_119328" data-name="Trazado 119328" d="M18.263,37.372a2.649,2.649,0,1,0,2.649-2.649A2.652,2.652,0,0,0,18.263,37.372Zm2.649-.958a.958.958,0,1,1-.958.958A.959.959,0,0,1,20.912,36.413Z"/>
      <path id="Trazado_119329" data-name="Trazado 119329" d="M14.148,19.278a4.9,4.9,0,1,0-4.9-4.9A4.91,4.91,0,0,0,14.148,19.278Zm0-8.117a3.213,3.213,0,1,1-3.213,3.213A3.217,3.217,0,0,1,14.148,11.161Z"/>
      <path id="Trazado_119330" data-name="Trazado 119330" d="M32.58,14.374a4.9,4.9,0,1,0-4.9,4.9A4.91,4.91,0,0,0,32.58,14.374Zm-8.117,0a3.213,3.213,0,1,1,3.213,3.213A3.217,3.217,0,0,1,24.464,14.374Z"/>
      <path id="Trazado_119331" data-name="Trazado 119331" d="M43.459,38.781H42.05V34.538a8.285,8.285,0,1,0-9.357-8.214c0,.123,0,.247.01.37a5.387,5.387,0,0,0-.968-.088H28.1l.318-.953A13.924,13.924,0,0,0,20.912,0a14.237,14.237,0,0,0-8.206,2.693.846.846,0,1,0,.985,1.375,12.532,12.532,0,0,1,7.221-2.376,12.233,12.233,0,0,1,7.043,22.234,7.157,7.157,0,0,0-14.087,0A12.24,12.24,0,0,1,10.256,7.913a.846.846,0,1,0-1.472-.832,13.923,13.923,0,0,0,4.625,18.572l.318.953H10.09A5.361,5.361,0,0,0,4.735,31.96V53.154A.845.845,0,0,0,5.58,54H9.153a.846.846,0,1,0,0-1.691H6.426V31.96A3.668,3.668,0,0,1,10.09,28.3H14.5l.2.788A8.056,8.056,0,0,0,16.91,41.212v11.1H13.021a.846.846,0,1,0,0,1.691H43.459a5.361,5.361,0,0,0,5.355-5.355V44.136A5.361,5.361,0,0,0,43.459,38.781Zm-6.369,0V33.638a8.309,8.309,0,0,0,3.269.947v4.2Zm3.889-19.052a6.595,6.595,0,1,1-4.2,11.683h0a6.621,6.621,0,0,1-2.246-3.684h0a6.595,6.595,0,0,1,6.444-8Zm-7.989,8.79A8.33,8.33,0,0,0,35.4,32.447v6.621a3.11,3.11,0,0,0-1.8,2.814V50.9a3.081,3.081,0,0,0,.344,1.409H24.915v-11.1a8.056,8.056,0,0,0,2.211-12.128l.2-.788h4.413A3.625,3.625,0,0,1,32.991,28.518ZM20.067,42.231V52.253c0,.019,0,.038,0,.056H18.6V41.938A7.958,7.958,0,0,0,20.067,42.231Zm1.691,10.022V42.231a7.944,7.944,0,0,0,1.466-.292V52.309H21.755C21.756,52.29,21.758,52.272,21.758,52.253Zm-.845-32.524A5.474,5.474,0,0,1,26.379,25.1l-.538,2.15h0l-.124.5-.033-.024c-.738-2.682-2.5-4.272-4.771-4.272s-4.033,1.59-4.771,4.272l-.033.024-.124-.5h0l-.538-2.15A5.474,5.474,0,0,1,20.912,19.729Zm2.411,6.793a8.091,8.091,0,0,0-4.822,0,2.794,2.794,0,0,1,4.822,0Zm-8.781,7.693a6.347,6.347,0,0,1,1.7-4.332h0a6.427,6.427,0,0,1,1.11-.952h0a6.374,6.374,0,0,1,7.113,0h0a6.434,6.434,0,0,1,1.11.952h0A6.369,6.369,0,0,1,23.7,39.944h0a6.378,6.378,0,0,1-5.573,0h0A6.331,6.331,0,0,1,14.543,34.215Zm32.581,14.43a3.668,3.668,0,0,1-3.664,3.664H36.7a1.437,1.437,0,0,1-.283-.028h0A1.412,1.412,0,0,1,35.286,50.9v-.51l.056,0h4.509a.846.846,0,1,0,0-1.691H35.342l-.056,0V47.233l.056,0h4.509a.846.846,0,1,0,0-1.691H35.342l-.056,0V44.077l.056,0h4.509a.846.846,0,1,0,0-1.691H35.342l-.056,0v-.51A1.412,1.412,0,0,1,36.412,40.5h0a1.437,1.437,0,0,1,.283-.028h6.764a3.668,3.668,0,0,1,3.664,3.664Z"/>
      <path id="Trazado_119332" data-name="Trazado 119332" d="M37.146,28.3h8.117a.845.845,0,0,0,.846-.846V24.745a.845.845,0,0,0-.846-.846H37.146a.845.845,0,0,0-.846.846v2.706A.845.845,0,0,0,37.146,28.3Zm.846-2.706h6.426v1.015H37.992Z"/>
    </g>
  </g>
</svg>
