<svg xmlns="http://www.w3.org/2000/svg" xmlns:xlink="http://www.w3.org/1999/xlink" width="54" height="54" viewBox="0 0 54 54">
  <defs>
    <clipPath id="clip-path">
      <rect id="Rectángulo_34444" data-name="Rectángulo 34444" width="54" height="54" transform="translate(211 10935)" fill="#fff" stroke="#707070" stroke-width="1"/>
    </clipPath>
  </defs>
  <g id="Enmascarar_grupo_119" data-name="Enmascarar grupo 119" transform="translate(-211 -10935)" clip-path="url(#clip-path)">
    <g id="Page-1" transform="translate(211 10935)">
      <g id="_035---Sick-Earth" data-name="035---Sick-Earth">
        <g id="Color" transform="translate(0.9 0.9)">
          <path id="Shape" d="M22.5.252V8.1a2.7,2.7,0,0,1-2.7,2.7,2.7,2.7,0,0,0-2.7,2.7v1.638l-4.239,1.926A6,6,0,0,0,11.772,19.8H11.7A2.7,2.7,0,0,0,9,22.5v5.4a2.7,2.7,0,0,1-2.7,2.7H.4A25.591,25.591,0,0,1,0,26.1,26.088,26.088,0,0,1,22.5.252Z" fill="#a4c400"/>
          <g id="Grupo_84928" data-name="Grupo 84928">
            <path id="Shape-2" data-name="Shape" d="M51.254,19.143A2.629,2.629,0,0,1,49.5,19.8a2.7,2.7,0,0,1-.072-5.391V14.4a23.7,23.7,0,0,0-2.187-3.6H37.682a3.558,3.558,0,0,1-1.665-.4A3.339,3.339,0,0,1,34.2,7.452,3.42,3.42,0,0,1,37.682,4.1a3.925,3.925,0,0,1,.459.027,3.917,3.917,0,0,1,.225-1.071A25.945,25.945,0,0,0,26.1,0a25.019,25.019,0,0,0-3.6.252V8.1a2.7,2.7,0,0,1-2.7,2.7,2.7,2.7,0,0,0-2.7,2.7v1.638l1.548-.7A6.3,6.3,0,0,1,18,27a9.217,9.217,0,0,0-5.391-3.042A6.24,6.24,0,0,1,11.7,20.7a4.991,4.991,0,0,1,.072-.9H11.7A2.7,2.7,0,0,0,9,22.5v5.4a2.7,2.7,0,0,1-2.7,2.7H.4A25.806,25.806,0,0,0,5.247,41.8a5.019,5.019,0,0,1,4.14-2.2,5.081,5.081,0,0,1,4.842,3.681,4.293,4.293,0,0,1,1.125-.153A4.493,4.493,0,0,1,19.8,47.663a4.543,4.543,0,0,1-1.476,3.366A26.4,26.4,0,0,0,26.1,52.2,26.021,26.021,0,0,0,38.564,49.04a2.97,2.97,0,0,0,.135-.891A3.165,3.165,0,0,0,35.549,45a4.06,4.06,0,0,1-4.05-3.933A4.2,4.2,0,0,1,35.738,36.9H38.7a3.6,3.6,0,0,0,3.6-3.6,3.6,3.6,0,0,1,3.6-3.6h6.048a25.019,25.019,0,0,0,.252-3.6,25.71,25.71,0,0,0-.945-6.957Z" fill="#00bcd4"/>
            <circle id="Oval" cx="1.8" cy="1.8" r="1.8" transform="translate(23.399 44.099)" fill="#00bcd4"/>
            <path id="Shape-3" data-name="Shape" d="M39.59,23.957A9.217,9.217,0,0,0,34.2,27a6.3,6.3,0,0,1-.648-12.564l.522.234,5.265,2.394a6.283,6.283,0,0,1,.252,6.894Z" fill="#00bcd4"/>
          </g>
          <path id="Shape-4" data-name="Shape" d="M35.666,3.06a3.917,3.917,0,0,0-.225,1.071,3.925,3.925,0,0,0-.459-.027A3.42,3.42,0,0,0,31.5,7.452a3.339,3.339,0,0,0,1.818,2.943,3.558,3.558,0,0,0,1.665.4h2.7a3.558,3.558,0,0,1-1.665-.4A3.339,3.339,0,0,1,34.2,7.452,3.42,3.42,0,0,1,37.682,4.1a3.925,3.925,0,0,1,.459.027,3.917,3.917,0,0,1,.225-1.071A25.945,25.945,0,0,0,26.1,0c-.434,0-.861.023-1.289.044A25.9,25.9,0,0,1,35.666,3.06Z" fill="#00838f"/>
          <path id="Shape-5" data-name="Shape" d="M46.727,14.409A2.7,2.7,0,0,0,46.8,19.8a2.651,2.651,0,0,0,1.357-.369,2.687,2.687,0,0,1,1.271-5.022V14.4a23.7,23.7,0,0,0-2.187-3.6h-2.7a23.7,23.7,0,0,1,2.187,3.6Z" fill="#00838f"/>
          <path id="Shape-6" data-name="Shape" d="M51.254,19.143A2.629,2.629,0,0,1,49.5,19.8a2.681,2.681,0,0,1-.819-.139A25.739,25.739,0,0,1,49.5,26.1a25.02,25.02,0,0,1-.252,3.6h2.7a25.019,25.019,0,0,0,.252-3.6A25.71,25.71,0,0,0,51.254,19.143Z" fill="#00838f"/>
          <path id="Shape-7" data-name="Shape" d="M51.947,29.7A26.1,26.1,0,0,1,38.564,49.04a2.97,2.97,0,0,0,.135-.891A3.165,3.165,0,0,0,35.549,45a4.06,4.06,0,0,1-4.05-3.933A4.2,4.2,0,0,1,35.738,36.9H38.7a3.6,3.6,0,0,0,3.6-3.6,3.6,3.6,0,0,1,3.6-3.6Z" fill="#a4c400"/>
          <path id="Shape-8" data-name="Shape" d="M49.247,29.7A26.056,26.056,0,0,1,38.578,47.332a3.115,3.115,0,0,1,.121.817,2.97,2.97,0,0,1-.135.891A26.1,26.1,0,0,0,51.947,29.7Z" fill="#90ac00"/>
          <path id="Shape-9" data-name="Shape" d="M40.5,20.7a6.24,6.24,0,0,1-.909,3.258A9.217,9.217,0,0,0,34.2,27a6.3,6.3,0,0,1-.648-12.564l.522.234,5.265,2.394A6.186,6.186,0,0,1,40.5,20.7Z" fill="#fff"/>
          <path id="Shape-10" data-name="Shape" d="M11.7,20.7a6.24,6.24,0,0,0,.909,3.258A9.217,9.217,0,0,1,18,27a6.3,6.3,0,0,0,.648-12.564l-.522.234-5.265,2.394A6.186,6.186,0,0,0,11.7,20.7Z" fill="#fff"/>
          <circle id="Oval-2" data-name="Oval" cx="1.8" cy="1.8" r="1.8" transform="translate(17.1 18.9)" fill="#37474f"/>
          <circle id="Oval-3" data-name="Oval" cx="1.8" cy="1.8" r="1.8" transform="translate(31.499 18.9)" fill="#37474f"/>
          <path id="Shape-11" data-name="Shape" d="M19.8,47.663a4.543,4.543,0,0,1-1.476,3.366,4.343,4.343,0,0,1-2.97,1.17H3.825a3.907,3.907,0,0,1,0-7.812,4.9,4.9,0,0,1,.513.027A5.142,5.142,0,0,1,5.247,41.8a5.019,5.019,0,0,1,4.14-2.2,5.081,5.081,0,0,1,4.842,3.681,4.293,4.293,0,0,1,1.125-.153A4.493,4.493,0,0,1,19.8,47.663Z" fill="#7f8e94"/>
          <path id="Shape-12" data-name="Shape" d="M15.354,43.127a4.293,4.293,0,0,0-1.125.153A5.081,5.081,0,0,0,9.387,39.6a4.955,4.955,0,0,0-1.37.2,5.121,5.121,0,0,1,3.51,3.483,4.293,4.293,0,0,1,1.125-.153A4.493,4.493,0,0,1,17.1,47.663a4.543,4.543,0,0,1-1.476,3.366,4.343,4.343,0,0,1-2.97,1.17h2.7a4.343,4.343,0,0,0,2.97-1.17A4.543,4.543,0,0,0,19.8,47.663a4.493,4.493,0,0,0-4.446-4.536Z" fill="#545c60"/>
          <path id="Shape-13" data-name="Shape" d="M52.2,6.912A3.97,3.97,0,0,1,48.158,10.8H37.682a3.558,3.558,0,0,1-1.665-.4A3.339,3.339,0,0,1,34.2,7.452,3.42,3.42,0,0,1,37.682,4.1a3.925,3.925,0,0,1,.459.027,3.917,3.917,0,0,1,.225-1.071,4.647,4.647,0,0,1,8.766.09,4.328,4.328,0,0,1,1.026-.126A3.97,3.97,0,0,1,52.2,6.912Z" fill="#7f8e94"/>
          <path id="Shape-14" data-name="Shape" d="M48.158,3.024a4.328,4.328,0,0,0-1.026.126A4.59,4.59,0,0,0,42.731,0a4.729,4.729,0,0,0-1.35.2A4.525,4.525,0,0,1,44.432,3.15a4.328,4.328,0,0,1,1.026-.126A3.97,3.97,0,0,1,49.5,6.912,3.97,3.97,0,0,1,45.458,10.8h2.7A3.97,3.97,0,0,0,52.2,6.912a3.97,3.97,0,0,0-4.041-3.888Z" fill="#545c60"/>
          <path id="Shape-15" data-name="Shape" d="M52.2,17.1a2.672,2.672,0,0,1-.945,2.043A2.629,2.629,0,0,1,49.5,19.8a2.7,2.7,0,0,1-.072-5.391V14.4H49.5a2.7,2.7,0,0,1,2.7,2.7Z" fill="#7f8e94"/>
          <path id="Shape-16" data-name="Shape" d="M49.5,14.4h-.072v.009a2.651,2.651,0,0,0-1.275.365,2.706,2.706,0,0,1,0,4.656A2.677,2.677,0,0,0,49.5,19.8a2.629,2.629,0,0,0,1.755-.657A2.694,2.694,0,0,0,49.5,14.4Z" fill="#545c60"/>
          <circle id="Oval-4" data-name="Oval" cx="1.8" cy="1.8" r="1.8" transform="translate(23.399 44.099)" fill="#7f8e94"/>
        </g>
        <g id="Outline">
          <path id="Shape-17" data-name="Shape" d="M35.1,28.8a.906.906,0,0,0,.7-.336,8.388,8.388,0,0,1,4.817-2.715.9.9,0,0,0,.642-.423,7.183,7.183,0,0,0-.29-7.887.9.9,0,0,0-.36-.294l-5.788-2.628a.9.9,0,0,0-.461-.076A7.2,7.2,0,0,0,35.1,28.8Zm-.791-12.54,5.33,2.42A5.3,5.3,0,0,1,40.5,21.6a5.38,5.38,0,0,1-.583,2.443,10.152,10.152,0,0,0-5.207,2.942,5.4,5.4,0,0,1-.4-10.726Z"/>
          <path id="Shape-18" data-name="Shape" d="M19.8,24.3a2.7,2.7,0,1,0-2.7-2.7A2.7,2.7,0,0,0,19.8,24.3Zm0-3.6a.9.9,0,1,1-.9.9A.9.9,0,0,1,19.8,20.7Z"/>
          <path id="Shape-19" data-name="Shape" d="M34.2,24.3a2.7,2.7,0,1,0-2.7-2.7A2.7,2.7,0,0,0,34.2,24.3Zm0-3.6a.9.9,0,1,1-.9.9A.9.9,0,0,1,34.2,20.7Z"/>
          <path id="Shape-20" data-name="Shape" d="M54,7.812a4.871,4.871,0,0,0-4.938-4.788q-.233,0-.464.022a5.559,5.559,0,0,0-9.754-.3A27.019,27.019,0,0,0,27,0a26.137,26.137,0,0,0-3.722.26A27.074,27.074,0,0,0,0,27a26.487,26.487,0,0,0,.409,4.652,26.841,26.841,0,0,0,4.673,11.1,6.051,6.051,0,0,0-.623,1.643A4.811,4.811,0,0,0,4.728,54H16.256a5.246,5.246,0,0,0,3.183-1.08,26.977,26.977,0,0,0,34.3-22.189A26.009,26.009,0,0,0,54,27a26.688,26.688,0,0,0-.856-6.7,3.565,3.565,0,0,0-2.257-5.85q-.508-.982-1.1-1.907A4.842,4.842,0,0,0,54,7.812ZM43.63,1.8a3.7,3.7,0,0,1,3.544,2.52.9.9,0,0,0,1.08.6,3.261,3.261,0,0,1,.81-.1A3.07,3.07,0,0,1,52.2,7.812,3.069,3.069,0,0,1,49.061,10.8H38.579A2.52,2.52,0,0,1,36,8.35a2.52,2.52,0,0,1,2.58-2.45,2.629,2.629,0,0,1,.347.022.888.888,0,0,0,.687-.2.9.9,0,0,0,.327-.63,3.636,3.636,0,0,1,3.69-3.3ZM22.5,2.209V9a1.8,1.8,0,0,1-1.8,1.8,3.6,3.6,0,0,0-3.6,3.6v1.059l-3.712,1.685a.9.9,0,0,0-.36.294,7.013,7.013,0,0,0-1.1,2.43A3.6,3.6,0,0,0,9,23.4v5.4a1.8,1.8,0,0,1-1.8,1.8H2.083A24.675,24.675,0,0,1,1.8,27,25.276,25.276,0,0,1,22.5,2.209Zm-2.809,14.05a5.4,5.4,0,0,1-.4,10.726,10.152,10.152,0,0,0-5.207-2.942A5.38,5.38,0,0,1,13.5,21.6a5.3,5.3,0,0,1,.861-2.92ZM4.728,52.2a3.01,3.01,0,0,1,0-6.016,2.9,2.9,0,0,1,.386.027.9.9,0,0,0,1.021-.833A4.212,4.212,0,0,1,10.283,41.4a4.2,4.2,0,0,1,3.982,3.032.9.9,0,0,0,1.1.615,3.42,3.42,0,0,1,.9-.119,3.637,3.637,0,0,1,0,7.272Zm16.062-.77a5.471,5.471,0,0,0,.81-2.866,5.4,5.4,0,0,0-5.343-5.436,5.314,5.314,0,0,0-.549.029A6,6,0,0,0,10.283,39.6a5.867,5.867,0,0,0-4.05,1.655A25.038,25.038,0,0,1,2.4,32.4H7.2a3.6,3.6,0,0,0,3.6-3.6V23.4a1.77,1.77,0,0,1,.917-1.547,7.137,7.137,0,0,0,1.023,3.473.9.9,0,0,0,.642.423A8.384,8.384,0,0,1,18.2,28.462a.9.9,0,0,0,.7.337,7.2,7.2,0,0,0,.737-14.359.9.9,0,0,0-.461.076l-.276.126V14.4a1.8,1.8,0,0,1,1.8-1.8A3.6,3.6,0,0,0,24.3,9V1.96A24.685,24.685,0,0,1,27,1.8,25.235,25.235,0,0,1,37.724,4.2,4.278,4.278,0,0,0,34.2,8.35a4.32,4.32,0,0,0,4.38,4.25h9.082a22.906,22.906,0,0,1,1.31,2.1A3.6,3.6,0,0,0,50.4,21.6a3.558,3.558,0,0,0,1.157-.208A25.014,25.014,0,0,1,52.2,27a24.5,24.5,0,0,1-.161,2.7H46.8a4.505,4.505,0,0,0-4.5,4.5,2.695,2.695,0,0,1-2.7,2.7h-.857c-.33-.051-.943-.676-.943-2.7s.613-2.649.943-2.7a.9.9,0,1,0-.043-1.8c-.1,0-2.331.05-2.657,3.6H17.953c-.326-3.55-2.554-3.6-2.657-3.6a.922.922,0,0,0-.925.9.878.878,0,0,0,.875.9c.329.044.95.665.95,2.7s-.621,2.658-.9,2.7a.9.9,0,1,0,0,1.8c.1,0,2.331-.05,2.657-3.6h18.09a5.956,5.956,0,0,0,.422,1.809A5.251,5.251,0,0,0,32.9,38.489,4.814,4.814,0,0,0,31.5,42a4.959,4.959,0,0,0,4.95,4.8,2.264,2.264,0,0,1,2.25,2.25,2.109,2.109,0,0,1-.044.294A25.635,25.635,0,0,1,20.79,51.428Zm19.638-3.1A4.054,4.054,0,0,0,36.449,45a3.157,3.157,0,0,1-3.15-3.06,3.021,3.021,0,0,1,.888-2.2A3.442,3.442,0,0,1,36.638,38.7H39.6a4.5,4.5,0,0,0,4.5-4.5,2.7,2.7,0,0,1,2.7-2.7h4.984a25.261,25.261,0,0,1-11.355,16.83ZM52.2,18a1.8,1.8,0,1,1-1.8-1.8A1.8,1.8,0,0,1,52.2,18Z"/>
          <path id="Shape-21" data-name="Shape" d="M26.1,44.1a2.7,2.7,0,1,0,2.7,2.7A2.7,2.7,0,0,0,26.1,44.1Zm0,3.6a.9.9,0,1,1,.9-.9A.9.9,0,0,1,26.1,47.7Z"/>
        </g>
      </g>
    </g>
  </g>
</svg>
