<svg xmlns="http://www.w3.org/2000/svg" width="85" height="85" viewBox="0 0 85 85">
  <g id="Grupo_86310" data-name="Grupo 86310" transform="translate(-1052 -749)">
    <circle id="Elipse_4854" data-name="Elipse 4854" cx="42.5" cy="42.5" r="42.5" transform="translate(1052 749)" fill="#0b481e"/>
    <path id="Trazado_122741" data-name="Trazado 122741" d="M-15.855-7.638h1.4A1.453,1.453,0,0,0-12.8-9.264a1.406,1.406,0,0,0-.4-1.033,1.5,1.5,0,0,0-1.116-.4,1.606,1.606,0,0,0-1.024.343,1.046,1.046,0,0,0-.435.853h-2.962a3.032,3.032,0,0,1,.563-1.8,3.715,3.715,0,0,1,1.56-1.235,5.334,5.334,0,0,1,2.193-.444,5.241,5.241,0,0,1,3.357.976A3.243,3.243,0,0,1-9.835-9.325a2.7,2.7,0,0,1-.505,1.56,3.6,3.6,0,0,1-1.472,1.191,3.441,3.441,0,0,1,1.6,1.121,2.951,2.951,0,0,1,.58,1.859A3.3,3.3,0,0,1-10.951-.853,5.472,5.472,0,0,1-14.414.176,5.675,5.675,0,0,1-16.748-.3a3.656,3.656,0,0,1-1.63-1.327,3.45,3.45,0,0,1-.554-1.929h2.979a1.334,1.334,0,0,0,.475,1.02,1.676,1.676,0,0,0,1.169.431,1.755,1.755,0,0,0,1.248-.435,1.454,1.454,0,0,0,.466-1.112,1.7,1.7,0,0,0-.483-1.371,2.021,2.021,0,0,0-1.336-.4h-1.441ZM-1.573,0H-4.544V-9.457L-7.462-8.6v-2.25L-1.846-12.8h.272Zm8.35-10.336a2.512,2.512,0,0,1,.773-1.916,2.9,2.9,0,0,1,2.074-.729,2.9,2.9,0,0,1,2.083.725,2.578,2.578,0,0,1,.765,1.964v.633a2.5,2.5,0,0,1-.765,1.907,2.889,2.889,0,0,1-2.065.721,2.968,2.968,0,0,1-2.079-.716,2.524,2.524,0,0,1-.787-1.964Zm1.907.675a1.062,1.062,0,0,0,.255.738.9.9,0,0,0,.7.284q.923,0,.923-1.17v-.524a1.12,1.12,0,0,0-.246-.747.857.857,0,0,0-.694-.293.876.876,0,0,0-.686.284,1.114,1.114,0,0,0-.255.773Zm4.175,6.524a2.487,2.487,0,0,1,.778-1.916,2.924,2.924,0,0,1,2.07-.721,2.956,2.956,0,0,1,2.083.712,2.565,2.565,0,0,1,.773,1.986v.615A2.509,2.509,0,0,1,17.8-.545a2.9,2.9,0,0,1-2.074.721,2.968,2.968,0,0,1-2.079-.716A2.524,2.524,0,0,1,12.858-2.5Zm1.9.675a1.039,1.039,0,0,0,.281.72.891.891,0,0,0,.686.31.808.808,0,0,0,.923-.8l.009-.9a1.075,1.075,0,0,0-.255-.747.886.886,0,0,0-.694-.284.893.893,0,0,0-.677.266,1.061,1.061,0,0,0-.272.72ZM10.2-.958l-1.38-.694,6.249-10,1.38.694Z" transform="translate(1095 798)" fill="#fff"/>
  </g>
</svg>
