<svg xmlns="http://www.w3.org/2000/svg" xmlns:xlink="http://www.w3.org/1999/xlink" width="85" height="86" viewBox="0 0 85 86">
  <defs>
    <clipPath id="clip-path">
      <rect id="Rectángulo_34610" data-name="Rectángulo 34610" width="85" height="85" transform="translate(600 11850)" fill="#fff" stroke="#707070" stroke-width="1"/>
    </clipPath>
  </defs>
  <g id="Grupo_86294" data-name="Grupo 86294" transform="translate(-600 -11954)">
    <circle id="Elipse_4910" data-name="Elipse 4910" cx="42.5" cy="42.5" r="42.5" transform="translate(600 11954)" fill="#ffa686"/>
    <g id="Enmascarar_grupo_138" data-name="Enmascarar grupo 138" transform="translate(0 105)" clip-path="url(#clip-path)">
      <g id="trigo_1_" data-name="trigo (1)" transform="translate(600.001 11850)">
        <path id="Trazado_120921" data-name="Trazado 120921" d="M83.736,70.636V78.4A5.333,5.333,0,0,1,78.4,83.737H6.6A5.333,5.333,0,0,1,1.263,78.4V73.71A10.337,10.337,0,0,1,11.532,63.363a10.158,10.158,0,0,1,3.552.666c.145.056.287.113.426.175a10.224,10.224,0,0,1,3.462,2.476A7.522,7.522,0,0,1,30.1,65.167a11.583,11.583,0,0,1,16.738-1.859s0,0,0,0l0,0c.039-.067.079-.133.121-.2.027-.042.054-.084.083-.126l.038-.062a7.527,7.527,0,0,1,13.64,2.833,10.188,10.188,0,0,1,11.05-1.338,7.491,7.491,0,0,1,4.347-1.447,7.656,7.656,0,0,1,7.617,7.673Zm0,0" fill="#ad7136"/>
        <g id="Grupo_85366" data-name="Grupo 85366">
          <path id="Trazado_120922" data-name="Trazado 120922" d="M58.6,61.759c-9.9-1.929-12.213,8.295-12.213,8.295a7.53,7.53,0,0,1,.446-6.745s0,0,0,0l0,0c.039-.067.079-.133.121-.2s.079-.126.121-.189A7.526,7.526,0,0,1,58.6,61.759Zm0,0" fill="#8c531f"/>
          <path id="Trazado_120923" data-name="Trazado 120923" d="M35.268,74.032s-5.17-1.611-5.17-8.865a11.57,11.57,0,0,1,9.248-4.607C35.268,60.56,32.143,69.262,35.268,74.032Zm0,0" fill="#8c531f"/>
          <path id="Trazado_120924" data-name="Trazado 120924" d="M21.267,83.737H6.6A5.333,5.333,0,0,1,1.263,78.4V73.71A10.337,10.337,0,0,1,11.531,63.363a10.158,10.158,0,0,1,3.552.666C9.149,62.05,2.021,78.853,21.267,83.737Zm0,0" fill="#8c531f"/>
        </g>
        <path id="Trazado_120925" data-name="Trazado 120925" d="M7.768,27.982a6.506,6.506,0,0,1-6.506-6.506V1.263A6.506,6.506,0,0,1,7.768,7.768Zm0,0" fill="#ffb83b"/>
        <path id="Trazado_120926" data-name="Trazado 120926" d="M7.768,27.982a6.506,6.506,0,0,0,6.505-6.506V1.263A6.505,6.505,0,0,0,7.768,7.768Zm0,0" fill="#ffe239"/>
        <path id="Trazado_120927" data-name="Trazado 120927" d="M42.5,27.982a6.506,6.506,0,0,1-6.505-6.506V1.263A6.505,6.505,0,0,1,42.5,7.768Zm0,0" fill="#ffb83b"/>
        <path id="Trazado_120928" data-name="Trazado 120928" d="M42.5,27.982A6.506,6.506,0,0,0,49,21.476V1.263A6.506,6.506,0,0,0,42.5,7.768Zm0,0" fill="#ffe239"/>
        <path id="Trazado_120929" data-name="Trazado 120929" d="M77.231,27.982a6.506,6.506,0,0,1-6.506-6.506V1.263a6.506,6.506,0,0,1,6.506,6.506Zm0,0" fill="#ffb83b"/>
        <path id="Trazado_120930" data-name="Trazado 120930" d="M77.231,27.982a6.506,6.506,0,0,0,6.505-6.506V1.263a6.505,6.505,0,0,0-6.505,6.506Zm0,0" fill="#ffe239"/>
        <path id="Trazado_120931" data-name="Trazado 120931" d="M25.134,35.649a6.506,6.506,0,0,1-6.506-6.506V8.93a6.505,6.505,0,0,1,6.506,6.506Zm0,0" fill="#ffb83b"/>
        <path id="Trazado_120932" data-name="Trazado 120932" d="M25.134,35.649a6.506,6.506,0,0,0,6.506-6.506V8.93a6.505,6.505,0,0,0-6.506,6.506Zm0,0" fill="#ffe239"/>
        <path id="Trazado_120933" data-name="Trazado 120933" d="M59.865,35.649a6.506,6.506,0,0,1-6.506-6.506V8.93a6.505,6.505,0,0,1,6.506,6.506Zm0,0" fill="#ffb83b"/>
        <path id="Trazado_120934" data-name="Trazado 120934" d="M59.865,35.649a6.506,6.506,0,0,0,6.506-6.506V8.93a6.505,6.505,0,0,0-6.506,6.506Zm0,0" fill="#ffe239"/>
        <path id="Trazado_120935" data-name="Trazado 120935" d="M82.313,64.239a8.748,8.748,0,0,0-3.82-2.228v-5.75a2.9,2.9,0,0,1,2.9-2.89,1.262,1.262,0,1,0,0-2.525,5.389,5.389,0,0,0-2.9.841v-8.3a2.9,2.9,0,0,1,2.9-2.889,1.263,1.263,0,1,0,0-2.525,5.39,5.39,0,0,0-2.9.842V29.139A7.78,7.78,0,0,0,85,21.475V1.263A1.262,1.262,0,0,0,83.736,0a7.765,7.765,0,0,0-6.505,3.53A7.767,7.767,0,0,0,70.725,0a1.262,1.262,0,0,0-1.263,1.262V21.476a7.78,7.78,0,0,0,6.506,7.664V44.2a5.385,5.385,0,0,0-2.9-.842,1.262,1.262,0,1,0,0,2.525,2.9,2.9,0,0,1,2.9,2.9V61.705a8.717,8.717,0,0,0-4.312,1.266,11.325,11.325,0,0,0-4.385-.871,11.459,11.459,0,0,0-5.848,1.608q-.136-.322-.3-.629V54.727a2.9,2.9,0,0,1,2.895-2.881,1.262,1.262,0,1,0,0-2.525,5.38,5.38,0,0,0-2.895.842V36.807a7.779,7.779,0,0,0,6.5-7.663V8.93a1.262,1.262,0,0,0-1.262-1.263A7.766,7.766,0,0,0,59.865,11.2a7.766,7.766,0,0,0-6.506-3.531A1.262,1.262,0,0,0,52.1,8.93V29.143A7.78,7.78,0,0,0,58.6,36.807V41.15a5.387,5.387,0,0,0-2.9-.842,1.263,1.263,0,0,0,0,2.525,2.9,2.9,0,0,1,2.9,2.9c0,.005,0,.01,0,.015v8.969c0,.01,0,.019,0,.029s0,.01,0,.015V60.1a8.784,8.784,0,0,0-12.045,1.42,12.871,12.871,0,0,0-2.8-1.431V51.123a2.9,2.9,0,0,1,2.9-2.9,1.262,1.262,0,1,0,0-2.525,5.384,5.384,0,0,0-2.9.842V29.14a7.78,7.78,0,0,0,6.506-7.664V1.263A1.262,1.262,0,0,0,49.005,0,7.765,7.765,0,0,0,42.5,3.531,7.767,7.767,0,0,0,35.994,0a1.262,1.262,0,0,0-1.263,1.262V21.476a7.78,7.78,0,0,0,6.505,7.663v6.875a5.39,5.39,0,0,0-2.9-.842,1.262,1.262,0,1,0,0,2.525,2.9,2.9,0,0,1,2.9,2.9V59.439a12.832,12.832,0,0,0-11.349,4.01A8.8,8.8,0,0,0,26.4,62.181V45.648a2.9,2.9,0,0,1,2.9-2.9,1.262,1.262,0,1,0,0-2.525,5.388,5.388,0,0,0-2.9.842V36.81a7.7,7.7,0,0,0,3.286-1.368A1.262,1.262,0,1,0,28.2,33.4a5.2,5.2,0,0,1-1.807.839V30.77a5.252,5.252,0,0,1,3.98-5.089v3.463a5.347,5.347,0,0,1-.08.922,1.262,1.262,0,1,0,2.486.441,7.857,7.857,0,0,0,.119-1.363V8.929a1.262,1.262,0,0,0-1.262-1.263,7.78,7.78,0,0,0-6.509,3.527,7.766,7.766,0,0,0-6.5-3.526A1.262,1.262,0,0,0,17.366,8.93V29.143a7.779,7.779,0,0,0,6.505,7.663v12.04a5.384,5.384,0,0,0-2.9-.842,1.262,1.262,0,1,0,0,2.525,2.9,2.9,0,0,1,2.9,2.9V62.2a8.782,8.782,0,0,0-5.015,2.616A11.485,11.485,0,0,0,11.334,62.1a11.242,11.242,0,0,0-2.3.262V55.885A2.9,2.9,0,0,1,11.926,53a1.263,1.263,0,1,0,0-2.525,5.388,5.388,0,0,0-2.895.842V37.46a2.9,2.9,0,0,1,2.895-2.888,1.262,1.262,0,1,0,0-2.525,5.387,5.387,0,0,0-2.895.841V29.139a7.78,7.78,0,0,0,6.505-7.664V16.6h0V8.93h0V1.263A1.263,1.263,0,0,0,14.273,0,7.765,7.765,0,0,0,7.768,3.531,7.766,7.766,0,0,0,1.263,0,1.262,1.262,0,0,0,0,1.263V21.476A7.78,7.78,0,0,0,6.506,29.14v8.312c0,.006,0,.011,0,.016s0,.005,0,.008v2.816a5.387,5.387,0,0,0-2.9-.842,1.262,1.262,0,0,0,0,2.525,2.9,2.9,0,0,1,2.9,2.9V63.246A11.657,11.657,0,0,0,0,73.7v4.7A6.6,6.6,0,0,0,6.6,85H63.831a1.262,1.262,0,0,0,0-2.525H6.6A4.076,4.076,0,0,1,2.525,78.4V73.7a9.031,9.031,0,0,1,8.834-9.079,8.954,8.954,0,0,1,6.027,2.262,8.811,8.811,0,0,0-.506,6.807,1.262,1.262,0,0,0,2.393-.805,6.278,6.278,0,0,1,.743-5.5h0a6.261,6.261,0,0,1,9.26-1.261,1.262,1.262,0,0,0,1.827-.2,10.315,10.315,0,0,1,14.134-2.255,8.81,8.81,0,0,0-.012,6.871,1.262,1.262,0,1,0,2.325-.983A6.259,6.259,0,0,1,48,63.823a6.26,6.26,0,0,1,10.745.166l.026.046a6.234,6.234,0,0,1,.707,1.942,1.263,1.263,0,0,0,2.054.737,8.923,8.923,0,0,1,7.9-1.823,8.779,8.779,0,0,0-2.017,5.6,1.262,1.262,0,0,0,2.525,0,6.269,6.269,0,0,1,6.19-6.264,6.007,6.007,0,0,1,.886.054c.028,0,.055.01.084.012a6.182,6.182,0,0,1,3.434,1.743,6.516,6.516,0,0,1,1.935,4.6V78.4A4.077,4.077,0,0,1,78.4,82.475h-9.53a1.262,1.262,0,1,0,0,2.525H78.4A6.6,6.6,0,0,0,85,78.4V70.636a9.051,9.051,0,0,0-2.685-6.4ZM37.256,10.347a5.252,5.252,0,0,1,3.981,5.089v1.942a7.748,7.748,0,0,0-3.981-1.938Zm10.486,5.092a7.744,7.744,0,0,0-3.98,1.938V15.435a5.252,5.252,0,0,1,3.98-5.089Zm-3.98,11.127V23.1a5.252,5.252,0,0,1,3.98-5.089v3.462a5.252,5.252,0,0,1-3.98,5.089Zm3.98-23.887V7.771a7.749,7.749,0,0,0-3.98,1.938V7.768A5.253,5.253,0,0,1,47.742,2.679ZM41.237,7.768V9.71a7.744,7.744,0,0,0-3.98-1.938V2.679A5.253,5.253,0,0,1,41.237,7.768ZM37.256,21.476V18.014A5.252,5.252,0,0,1,41.237,23.1v3.463a5.252,5.252,0,0,1-3.981-5.089ZM2.525,10.347a5.252,5.252,0,0,1,3.98,5.089v1.942a7.744,7.744,0,0,0-3.98-1.938Zm10.486,5.092A7.746,7.746,0,0,0,9.03,17.377V15.435a5.252,5.252,0,0,1,3.981-5.089ZM9.03,26.565V23.1a5.252,5.252,0,0,1,3.981-5.089v3.462A5.252,5.252,0,0,1,9.03,26.565ZM13.011,2.679V7.771A7.751,7.751,0,0,0,9.03,9.71V7.768A5.252,5.252,0,0,1,13.011,2.679ZM6.506,7.768V9.71a7.749,7.749,0,0,0-3.98-1.938V2.678A5.254,5.254,0,0,1,6.506,7.768ZM2.525,21.476V18.014A5.252,5.252,0,0,1,6.506,23.1v3.463a5.252,5.252,0,0,1-3.98-5.089Zm17.365-3.462a5.252,5.252,0,0,1,3.98,5.089v1.942a7.744,7.744,0,0,0-3.98-1.938Zm6.506,7.03V23.1a5.252,5.252,0,0,1,3.98-5.089v5.092a7.749,7.749,0,0,0-3.98,1.938Zm0-9.609a5.25,5.25,0,0,1,3.98-5.091v5.1a7.744,7.744,0,0,0-3.98,1.938Zm-2.525,0v1.942a7.744,7.744,0,0,0-3.98-1.938V10.346A5.252,5.252,0,0,1,23.871,15.435Zm-3.98,13.708V25.681a5.252,5.252,0,0,1,3.98,5.089v3.463a5.253,5.253,0,0,1-3.98-5.089ZM54.622,18.014A5.252,5.252,0,0,1,58.6,23.1v1.942a7.744,7.744,0,0,0-3.98-1.938Zm10.486,5.092a7.746,7.746,0,0,0-3.98,1.938V23.1a5.252,5.252,0,0,1,3.98-5.089Zm-3.98,11.127V30.77a5.252,5.252,0,0,1,3.98-5.089v3.462a5.253,5.253,0,0,1-3.98,5.089Zm3.98-23.887v5.093a7.746,7.746,0,0,0-3.98,1.938V15.435A5.252,5.252,0,0,1,65.108,10.346ZM58.6,15.435v1.942a7.744,7.744,0,0,0-3.98-1.938V10.346A5.252,5.252,0,0,1,58.6,15.435Zm-3.98,13.708V25.681A5.252,5.252,0,0,1,58.6,30.77v3.463a5.253,5.253,0,0,1-3.98-5.089Zm17.365-18.8a5.252,5.252,0,0,1,3.981,5.089v1.942a7.748,7.748,0,0,0-3.981-1.938Zm10.487,5.092a7.746,7.746,0,0,0-3.981,1.938V15.435a5.252,5.252,0,0,1,3.981-5.089ZM78.493,26.565V23.1a5.252,5.252,0,0,1,3.98-5.089v3.462a5.251,5.251,0,0,1-3.98,5.089ZM82.474,2.679V7.771A7.751,7.751,0,0,0,78.493,9.71V7.768A5.252,5.252,0,0,1,82.474,2.679ZM75.969,7.768V9.71a7.748,7.748,0,0,0-3.981-1.938V2.678A5.254,5.254,0,0,1,75.969,7.768ZM71.987,21.476V18.014A5.252,5.252,0,0,1,75.969,23.1v3.463a5.252,5.252,0,0,1-3.981-5.089Zm0,0"/>
        <path id="Trazado_120936" data-name="Trazado 120936" d="M7.431,75.5A1.262,1.262,0,1,0,6.419,74.17,1.273,1.273,0,0,0,7.431,75.5Zm0,0"/>
        <path id="Trazado_120937" data-name="Trazado 120937" d="M12.674,75.1a1.262,1.262,0,1,0-.139,1.576,1.27,1.27,0,0,0,.139-1.576Zm0,0"/>
        <path id="Trazado_120938" data-name="Trazado 120938" d="M7.17,78.585a1.262,1.262,0,1,0,.49-1.55A1.271,1.271,0,0,0,7.17,78.585Zm0,0"/>
        <path id="Trazado_120939" data-name="Trazado 120939" d="M55.034,75.954a1.262,1.262,0,1,0-1.532.465,1.272,1.272,0,0,0,1.532-.465Zm0,0"/>
        <path id="Trazado_120940" data-name="Trazado 120940" d="M57.83,78.02a1.262,1.262,0,1,0-.273,1.7,1.273,1.273,0,0,0,.273-1.7Zm0,0"/>
        <path id="Trazado_120941" data-name="Trazado 120941" d="M53.646,77.949a1.263,1.263,0,1,0,.508,1.41A1.273,1.273,0,0,0,53.646,77.949Zm0,0"/>
      </g>
    </g>
  </g>
</svg>
