<svg xmlns="http://www.w3.org/2000/svg" xmlns:xlink="http://www.w3.org/1999/xlink" width="54" height="54" viewBox="0 0 54 54">
  <defs>
    <clipPath id="clip-path">
      <rect id="Rectángulo_34441" data-name="Rectángulo 34441" width="54" height="54" transform="translate(526 10935)" fill="#fff" stroke="#707070" stroke-width="1"/>
    </clipPath>
  </defs>
  <g id="Enmascarar_grupo_118" data-name="Enmascarar grupo 118" transform="translate(-526 -10935)" clip-path="url(#clip-path)">
    <g id="la-contaminacion-del-agua" transform="translate(526 10935)">
      <g id="Grupo_84923" data-name="Grupo 84923">
        <path id="Trazado_119413" data-name="Trazado 119413" d="M45.63,15.886,46.7,13.761a1.7,1.7,0,0,0,.045-1.432L45.712,9.9a.639.639,0,0,1,.017-.537l.469-.934L41.9,6.271l-.47.936a.639.639,0,0,1-.417.333l-2.54.632a1.7,1.7,0,0,0-1.111.889l-1.07,2.131Z" fill="#dff6fd"/>
        <path id="Trazado_119414" data-name="Trazado 119414" d="M33.277,17.187l-2.49,4.957a1.7,1.7,0,0,0,.758,2.288l6.3,3.163a1.7,1.7,0,0,0,2.288-.758l2.49-4.957Z" fill="#dff6fd"/>
        <path id="Trazado_119415" data-name="Trazado 119415" d="M31.545,24.433l6.3,3.163a1.7,1.7,0,0,0,2.288-.758l2.49-4.957-5.574-2.8a5.587,5.587,0,0,0-2.13.967c-.1.07-.243.166-.282.183a.666.666,0,0,1-.148.011.84.84,0,0,1-.142-.009s0,0,0,0a3.253,3.253,0,0,1-.288-.185,5.794,5.794,0,0,0-1.775-.879l-1.495,2.976A1.7,1.7,0,0,0,31.545,24.433Z" fill="#c8effe"/>
        <path id="Trazado_119416" data-name="Trazado 119416" d="M36.115,11.314h6.71v10.46h-6.71Z" transform="translate(6.968 44.371) rotate(-63.332)" fill="#bbec6c"/>
        <path id="Trazado_119417" data-name="Trazado 119417" d="M46.743,12.329,45.712,9.9a.639.639,0,0,1,.017-.537l.469-.934L43.723,7.188l-.469.934a.639.639,0,0,0-.017.537l1.032,2.426a1.705,1.705,0,0,1-.045,1.432l-1.068,2.125,2.475,1.243L46.7,13.761a1.705,1.705,0,0,0,.045-1.432Z" fill="#c8effe"/>
        <path id="Trazado_119418" data-name="Trazado 119418" d="M40.145,20.637l-2.49,4.957a1.7,1.7,0,0,1-2.288.758L37.842,27.6a1.7,1.7,0,0,0,2.288-.758l2.49-4.957Z" fill="#c8effe"/>
        <path id="Trazado_119419" data-name="Trazado 119419" d="M45.63,15.886l-2.475-1.243-1.822,3.628a1.6,1.6,0,0,1-1.8.835,5.751,5.751,0,0,0-1.3-.143,5.813,5.813,0,0,0-1.184.117l5.574,2.8Z" fill="#a2e62e"/>
        <path id="Trazado_119420" data-name="Trazado 119420" d="M46.348,8.507l-4.57-2.3A.852.852,0,0,1,41.4,5.067l.765-1.523a.852.852,0,0,1,1.144-.379l4.57,2.3A.852.852,0,0,1,48.257,6.6l-.765,1.523A.853.853,0,0,1,46.348,8.507Z" fill="#bbec6c"/>
      </g>
      <g id="Grupo_84925" data-name="Grupo 84925">
        <path id="Trazado_119421" data-name="Trazado 119421" d="M17.453,12.675H22.14V22.9H17.453Z" transform="translate(-6.781 19.211) rotate(-45)" fill="#fd8087"/>
        <path id="Trazado_119422" data-name="Trazado 119422" d="M21.758,23.064l3.315-3.315-.678-.678a5.836,5.836,0,0,0-1.14-.109,5.416,5.416,0,0,0-3.314,1.085c-.1.07-.243.166-.282.183a.667.667,0,0,1-.148.011.841.841,0,0,1-.142-.009h0a3.254,3.254,0,0,1-.288-.185,7.322,7.322,0,0,0-.866-.527Z" fill="#fe646f"/>
        <path id="Trazado_119423" data-name="Trazado 119423" d="M11.728,18.4h4.687V28.626H11.728Z" transform="translate(-12.506 16.84) rotate(-45)" fill="#fe646f"/>
        <path id="Trazado_119424" data-name="Trazado 119424" d="M11.82,18.949H22.046v3.405H11.82Z" transform="translate(19.565 -5.926) rotate(45)" fill="#dff6fd"/>
        <path id="Trazado_119425" data-name="Trazado 119425" d="M19.347,25.475l2.408-2.408-3.55-3.55a5.654,5.654,0,0,0-4.836-.02Z" fill="#c8effe"/>
        <g id="Grupo_84924" data-name="Grupo 84924">
          <path id="Trazado_119426" data-name="Trazado 119426" d="M25.073,19.75l-7.232-7.232,2.47-1.294a1.065,1.065,0,0,1,1.248.19l4.618,4.618a1.065,1.065,0,0,1,.19,1.248Z" fill="#bfbfbf"/>
          <path id="Trazado_119427" data-name="Trazado 119427" d="M8.8,21.558l7.232,7.232-2.47,1.294a1.065,1.065,0,0,1-1.248-.19L7.7,25.276a1.065,1.065,0,0,1-.19-1.248Z" fill="#bfbfbf"/>
        </g>
      </g>
      <path id="Trazado_119428" data-name="Trazado 119428" d="M53.209,21.52c-1.872,0-1.872,1.278-3.745,1.278s-1.872-1.278-3.745-1.278S43.847,22.8,41.975,22.8,40.1,21.52,38.231,21.52,36.358,22.8,34.486,22.8s-1.872-1.278-3.744-1.278S28.87,22.8,27,22.8s-1.872-1.278-3.744-1.278S21.383,22.8,19.511,22.8s-1.872-1.278-3.744-1.278S13.895,22.8,12.023,22.8,10.151,21.52,8.279,21.52,6.407,22.8,4.535,22.8,2.663,21.52.791,21.52V50.925H53.209V21.52Z" fill="#99e6fc"/>
      <path id="Trazado_119429" data-name="Trazado 119429" d="M49.8,22.784V50.925h3.409V21.52c-1.753,0-1.865,1.121-3.409,1.264Z" fill="#62dbfb"/>
      <g id="Grupo_84926" data-name="Grupo 84926">
        <path id="Trazado_119430" data-name="Trazado 119430" d="M25.26,37.8,24.6,35.917a.963.963,0,0,0-1.227-.592l-3.183,1.112a.482.482,0,0,1-.614-.3l-.953-2.728a.482.482,0,0,1,.3-.614l3.183-1.112A.963.963,0,0,0,22.7,30.46l-.657-1.882a.963.963,0,0,0-1.161-.612l-12.95,3.51a2.408,2.408,0,0,0-1.644,3.118l2.9,8.3a2.408,2.408,0,0,0,3.228,1.417L24.732,39A.963.963,0,0,0,25.26,37.8Z" fill="#dff6fd"/>
        <path id="Trazado_119431" data-name="Trazado 119431" d="M25.26,37.8,24.6,35.917a.963.963,0,0,0-1.227-.592l-3.183,1.112a.482.482,0,0,1-.614-.3l-.953-2.728a.482.482,0,0,1,.3-.614l3.183-1.112A.963.963,0,0,0,22.7,30.46l-.657-1.882a.963.963,0,0,0-1.161-.612l-3.9,1.057a16.387,16.387,0,0,1-3.082,11.3,19.276,19.276,0,0,1-3.546,3.923,2.4,2.4,0,0,0,2.061.073L24.732,39A.963.963,0,0,0,25.26,37.8Z" fill="#c8effe"/>
      </g>
      <g id="Grupo_84927" data-name="Grupo 84927">
        <path id="Trazado_119432" data-name="Trazado 119432" d="M53.209,20.73a3.686,3.686,0,0,0-2.318.777,2.28,2.28,0,0,1-2.853,0,3.686,3.686,0,0,0-2.318-.777,3.508,3.508,0,0,0-1.886.5l3.571-7.11a2.489,2.489,0,0,0,.067-2.1l-1-2.362.139-.276c.041,0,.082.007.124.007a1.648,1.648,0,0,0,1.47-.907l.765-1.523a1.643,1.643,0,0,0-.731-2.206l-4.57-2.3a1.646,1.646,0,0,0-2.206.731l-.765,1.523A1.642,1.642,0,0,0,40.9,6.5l-.145.29-2.476.616a2.5,2.5,0,0,0-1.624,1.3l-1.763,3.51a.791.791,0,1,0,1.414.71l.338-.672,7.929,3.983-2.3,4.58-7.93-3.983.306-.61a.791.791,0,1,0-1.414-.71l-2.62,5.217a3.689,3.689,0,0,0-2.187.774,2.277,2.277,0,0,1-2.851,0,5.5,5.5,0,0,0-.709-.429l.768-.768h0a.787.787,0,0,0,.142-.191l1.294-2.47a1.848,1.848,0,0,0-.332-2.174l-4.618-4.618a1.849,1.849,0,0,0-2.174-.332l-2.47,1.294a.784.784,0,0,0-.191.142h0L8.5,20.735c-.073,0-.148-.006-.226-.006a3.684,3.684,0,0,0-2.317.777,2.156,2.156,0,0,1-1.426.5,2.157,2.157,0,0,1-1.426-.5,3.686,3.686,0,0,0-2.318-.777A.791.791,0,0,0,0,21.52v4.411a.791.791,0,1,0,1.582,0V22.444a3.229,3.229,0,0,1,.635.369,3.686,3.686,0,0,0,2.318.777,3.685,3.685,0,0,0,2.318-.777,2.155,2.155,0,0,1,1.425-.5,2.157,2.157,0,0,1,1.426.5,3.847,3.847,0,0,0,4.636,0,2.279,2.279,0,0,1,2.852,0,3.847,3.847,0,0,0,4.636,0,2.279,2.279,0,0,1,2.852,0,3.846,3.846,0,0,0,4.635,0,2.279,2.279,0,0,1,2.852,0,3.847,3.847,0,0,0,4.636,0,2.279,2.279,0,0,1,2.852,0,3.848,3.848,0,0,0,4.637,0,2.279,2.279,0,0,1,2.852,0,3.848,3.848,0,0,0,4.637,0,3.231,3.231,0,0,1,.635-.368V42.851a.791.791,0,0,0,1.582,0V21.52a.79.79,0,0,0-.791-.791ZM20.678,11.924a.273.273,0,0,1,.321.049l4.618,4.618a.273.273,0,0,1,.049.321l-.795,1.517-5.711-5.711ZM12.022,22.008a2.157,2.157,0,0,1-1.426-.5c-.117-.08-.242-.165-.378-.248l1.9-1.9,1.828,1.828c-.183.1-.345.214-.5.317a2.156,2.156,0,0,1-1.426.5Zm6.062-.5a3.686,3.686,0,0,0-2.318-.777h-.045l-2.488-2.488,1.292-1.292,5.055,5.055h-.071a2.159,2.159,0,0,1-1.426-.5Zm3.081-.153-5.521-5.521,2.2-2.2,6.114,6.114-.99.99a3.5,3.5,0,0,0-1.8.613ZM42.106,5.422,42.871,3.9a.061.061,0,0,1,.082-.027l4.57,2.3a.061.061,0,0,1,.027.082l-.765,1.523a.058.058,0,0,1-.035.031.059.059,0,0,1-.047,0h0l-4.57-2.3a.061.061,0,0,1-.027-.082Zm-4.757,5.419.716-1.425a.915.915,0,0,1,.594-.477L41.2,8.308a1.436,1.436,0,0,0,.932-.746l.115-.229,2.887,1.45-.115.228a1.433,1.433,0,0,0-.037,1.2l1.033,2.426a.911.911,0,0,1-.025.767l-.713,1.418ZM35.912,21.506a2.279,2.279,0,0,1-2.852,0,5.016,5.016,0,0,0-.825-.483l1.393-2.774,4.97,2.5c-.117-.01-.238-.016-.368-.016a3.685,3.685,0,0,0-2.318.777Z"/>
        <path id="Trazado_119433" data-name="Trazado 119433" d="M53.209,45.752a.791.791,0,0,0-.791.791v3.591H1.582V29.623a.791.791,0,1,0-1.582,0v21.3a.791.791,0,0,0,.791.791H53.209A.791.791,0,0,0,54,50.925V46.543a.791.791,0,0,0-.791-.791Z"/>
        <path id="Trazado_119434" data-name="Trazado 119434" d="M23.444,30.2l-.657-1.882A1.761,1.761,0,0,0,20.671,27.2l-12.95,3.51a3.2,3.2,0,0,0-2.184,4.143l2.9,8.3a3.2,3.2,0,0,0,4.288,1.883l12.32-5.315a1.76,1.76,0,0,0,.961-2.189h0l-.657-1.882a1.756,1.756,0,0,0-2.235-1.078l-2.891,1.01-.749-2.144,2.891-1.009A1.756,1.756,0,0,0,23.444,30.2Zm-1.6.741-3.183,1.112a1.274,1.274,0,0,0-.782,1.621l.953,2.728a1.274,1.274,0,0,0,1.621.782l3.183-1.112a.172.172,0,0,1,.219.106l.657,1.882a.173.173,0,0,1-.094.215L12.1,43.589a1.617,1.617,0,0,1-2.167-.952l-2.9-8.3a1.617,1.617,0,0,1,1.1-2.094l12.95-3.51a.173.173,0,0,1,.208.109l.657,1.882a.173.173,0,0,1-.106.219Z"/>
        <path id="Trazado_119435" data-name="Trazado 119435" d="M38.854,29.443a1.514,1.514,0,0,1,1.916,0,3.081,3.081,0,0,0,3.7,0,1.513,1.513,0,0,1,1.916,0,2.971,2.971,0,0,0,1.85.617.791.791,0,1,0,0-1.582,1.425,1.425,0,0,1-.958-.342,3.081,3.081,0,0,0-3.7,0,1.514,1.514,0,0,1-1.916,0,3.081,3.081,0,0,0-3.7,0,1.425,1.425,0,0,1-.958.342.791.791,0,1,0,0,1.582,2.972,2.972,0,0,0,1.85-.617Z"/>
        <path id="Trazado_119436" data-name="Trazado 119436" d="M33.681,35.8a1.425,1.425,0,0,1-.958-.342,3.082,3.082,0,0,0-3.7,0,1.425,1.425,0,0,1-.958.342.791.791,0,0,0,0,1.582,2.971,2.971,0,0,0,1.85-.617,1.514,1.514,0,0,1,1.916,0,3.081,3.081,0,0,0,3.7,0,1.514,1.514,0,0,1,1.916,0,2.971,2.971,0,0,0,1.85.617.791.791,0,0,0,0-1.582,1.425,1.425,0,0,1-.958-.342,3.081,3.081,0,0,0-3.7,0,1.425,1.425,0,0,1-.958.342Z"/>
      </g>
    </g>
  </g>
</svg>
