<svg xmlns="http://www.w3.org/2000/svg" xmlns:xlink="http://www.w3.org/1999/xlink" width="85" height="85" viewBox="0 0 85 85">
  <defs>
    <clipPath id="clip-path">
      <rect id="Rectángulo_34608" data-name="Rectángulo 34608" width="85" height="85" transform="translate(180 11966)" fill="#fff" stroke="#707070" stroke-width="1"/>
    </clipPath>
  </defs>
  <g id="Grupo_86295" data-name="Grupo 86295" transform="translate(-180 -12071)">
    <circle id="Elipse_4914" data-name="Elipse 4914" cx="42.5" cy="42.5" r="42.5" transform="translate(180 12071)" fill="#ffa686"/>
    <g id="Enmascarar_grupo_137" data-name="Enmascarar grupo 137" transform="translate(0 105)" clip-path="url(#clip-path)">
      <g id="_15-Watering" data-name="15-Watering" transform="translate(180 11966)">
        <path id="Trazado_120869" data-name="Trazado 120869" d="M1.328,70.391H83.672V83.672H1.328Z" fill="#d18a56"/>
        <path id="Trazado_120870" data-name="Trazado 120870" d="M1.328,77.031H83.672v6.641H1.328Z" fill="#b56d3c"/>
        <path id="Trazado_120871" data-name="Trazado 120871" d="M39.844,14.609h5.313v5.313H39.844Z" fill="#80786a"/>
        <path id="Trazado_120872" data-name="Trazado 120872" d="M45.156,70.391v6.641H39.844V19.922h5.313Z" fill="#a0968c"/>
        <path id="Trazado_120873" data-name="Trazado 120873" d="M47.813,9.3v5.313H37.188V9.3H47.813Z" fill="#cdd2e1"/>
        <g id="Grupo_85365" data-name="Grupo 85365">
          <path id="Trazado_120874" data-name="Trazado 120874" d="M46.484,1.328V9.3H38.516V1.328Z" fill="#80dbff"/>
          <path id="Trazado_120875" data-name="Trazado 120875" d="M10.359,11.634S9.7,16.376,8.819,17.372a2.853,2.853,0,0,1-3.745.212,2.838,2.838,0,0,1-.226-3.745C5.724,12.843,10.359,11.634,10.359,11.634Z" fill="#80dbff"/>
          <path id="Trazado_120876" data-name="Trazado 120876" d="M22.578,1.328c1.328,0,5.313,2.656,5.313,2.656s-3.984,2.656-5.312,2.656a2.857,2.857,0,0,1-2.656-2.656,2.857,2.857,0,0,1,2.656-2.656Z" fill="#80dbff"/>
          <path id="Trazado_120877" data-name="Trazado 120877" d="M62.422,1.328a2.857,2.857,0,0,1,2.656,2.656,2.857,2.857,0,0,1-2.656,2.656c-1.328,0-5.312-2.656-5.312-2.656S61.094,1.328,62.422,1.328Z" fill="#80dbff"/>
          <path id="Trazado_120878" data-name="Trazado 120878" d="M80.152,13.839a2.838,2.838,0,0,1-.226,3.745,2.853,2.853,0,0,1-3.745-.212c-.877-1-1.541-5.738-1.541-5.738S79.276,12.843,80.152,13.839Z" fill="#80dbff"/>
          <path id="Trazado_120879" data-name="Trazado 120879" d="M63.511,14.052A2.862,2.862,0,0,1,64.1,17.77a2.845,2.845,0,0,1-3.705.584c-1.076-.784-2.736-5.273-2.736-5.273s4.781.186,5.857.97Z" fill="#80dbff"/>
          <path id="Trazado_120880" data-name="Trazado 120880" d="M70.391,29.219a2.656,2.656,0,0,1-5.312,0c0-1.328,2.656-5.312,2.656-5.312S70.391,27.891,70.391,29.219Z" fill="#80dbff"/>
          <path id="Trazado_120881" data-name="Trazado 120881" d="M27.346,13.082s-1.66,4.489-2.736,5.273A2.845,2.845,0,0,1,20.9,17.77a2.862,2.862,0,0,1,.584-3.719C22.565,13.268,27.346,13.082,27.346,13.082Z" fill="#80dbff"/>
          <path id="Trazado_120882" data-name="Trazado 120882" d="M18.594,29.219a2.857,2.857,0,0,1-2.656,2.656,2.857,2.857,0,0,1-2.656-2.656c0-1.328,2.656-5.313,2.656-5.313S18.594,27.891,18.594,29.219Z" fill="#80dbff"/>
          <path id="Trazado_120883" data-name="Trazado 120883" d="M33.2,38.516a2.857,2.857,0,0,1-2.656,2.656,2.857,2.857,0,0,1-2.656-2.656c0-1.328,2.656-5.312,2.656-5.312S33.2,37.188,33.2,38.516Z" fill="#80dbff"/>
          <path id="Trazado_120884" data-name="Trazado 120884" d="M57.109,38.516a2.656,2.656,0,0,1-5.312,0c0-1.328,2.656-5.312,2.656-5.312S57.109,37.188,57.109,38.516Z" fill="#80dbff"/>
        </g>
        <path id="Trazado_120885" data-name="Trazado 120885" d="M21.25,42.5v1.328H15.938V37.188A5.306,5.306,0,0,1,21.25,42.5Z" fill="#ffa426"/>
        <path id="Trazado_120886" data-name="Trazado 120886" d="M15.938,43.828V54.453a5.312,5.312,0,0,0-5.312-5.312V43.828Z" fill="#ffa426"/>
        <path id="Trazado_120887" data-name="Trazado 120887" d="M21.25,43.828v5.313a5.313,5.313,0,0,0-5.312,5.313V43.828Z" fill="#ffda45"/>
        <path id="Trazado_120888" data-name="Trazado 120888" d="M15.938,37.188v6.641H10.625V42.5a5.313,5.313,0,0,1,5.313-5.312Z" fill="#ffda45"/>
        <path id="Trazado_120889" data-name="Trazado 120889" d="M15.938,54.453v5.313H13.281a5.313,5.313,0,0,1-5.312-5.312V49.141h2.656A5.313,5.313,0,0,1,15.938,54.453Z" fill="#00bd9d"/>
        <path id="Trazado_120890" data-name="Trazado 120890" d="M23.906,49.141v5.313a5.312,5.312,0,0,1-5.312,5.313H15.938V54.453a5.312,5.312,0,0,1,5.313-5.312Z" fill="#06ccab"/>
        <path id="Trazado_120891" data-name="Trazado 120891" d="M10.625,49.141H7.969v1.992h.664a5.313,5.313,0,0,1,5.313,5.313v3.32h1.992V54.453A5.312,5.312,0,0,0,10.625,49.141Z" fill="#06ccab"/>
        <path id="Trazado_120892" data-name="Trazado 120892" d="M17.93,56.445a5.312,5.312,0,0,1,5.313-5.312h.664V49.141H21.25a5.313,5.313,0,0,0-5.312,5.313v5.313H17.93Z" fill="#00bd9d"/>
        <path id="Trazado_120893" data-name="Trazado 120893" d="M15.938,71.719H10.625A7.969,7.969,0,0,1,2.656,63.75H7.969A7.969,7.969,0,0,1,15.938,71.719Z" fill="#06ccab"/>
        <path id="Trazado_120894" data-name="Trazado 120894" d="M5.313,66.406a7.969,7.969,0,0,1,7.5,5.313h3.121A7.969,7.969,0,0,0,7.969,63.75H2.656a7.9,7.9,0,0,0,.465,2.656Z" fill="#95e8c8"/>
        <path id="Trazado_120895" data-name="Trazado 120895" d="M23.906,63.75h5.313a7.969,7.969,0,0,1-7.969,7.969H15.938a7.969,7.969,0,0,1,7.969-7.969Z" fill="#06ccab"/>
        <path id="Trazado_120896" data-name="Trazado 120896" d="M26.563,66.406a7.969,7.969,0,0,0-7.5,5.313H15.938a7.969,7.969,0,0,1,7.969-7.969h5.312a7.9,7.9,0,0,1-.465,2.656Z" fill="#95e8c8"/>
        <path id="Trazado_120897" data-name="Trazado 120897" d="M74.375,42.5v1.328H69.063V37.188A5.306,5.306,0,0,1,74.375,42.5Z" fill="#ffa426"/>
        <path id="Trazado_120898" data-name="Trazado 120898" d="M69.063,43.828V54.453a5.312,5.312,0,0,0-5.312-5.312V43.828Z" fill="#ffa426"/>
        <path id="Trazado_120899" data-name="Trazado 120899" d="M74.375,43.828v5.313a5.313,5.313,0,0,0-5.312,5.313V43.828Z" fill="#ffda45"/>
        <path id="Trazado_120900" data-name="Trazado 120900" d="M69.063,37.188v6.641H63.75V42.5A5.312,5.312,0,0,1,69.063,37.188Z" fill="#ffda45"/>
        <path id="Trazado_120901" data-name="Trazado 120901" d="M69.063,54.453v5.313H66.406a5.313,5.313,0,0,1-5.312-5.312V49.141H63.75A5.313,5.313,0,0,1,69.063,54.453Z" fill="#00bd9d"/>
        <path id="Trazado_120902" data-name="Trazado 120902" d="M77.031,49.141v5.313a5.312,5.312,0,0,1-5.312,5.313H69.063V54.453a5.312,5.312,0,0,1,5.313-5.312Z" fill="#06ccab"/>
        <path id="Trazado_120903" data-name="Trazado 120903" d="M63.75,49.141H61.094v1.992h.664a5.313,5.313,0,0,1,5.313,5.313v3.32h1.992V54.453A5.312,5.312,0,0,0,63.75,49.141Z" fill="#06ccab"/>
        <path id="Trazado_120904" data-name="Trazado 120904" d="M71.055,56.445a5.312,5.312,0,0,1,5.313-5.312h.664V49.141H74.375a5.313,5.313,0,0,0-5.312,5.313v5.313h1.992Z" fill="#00bd9d"/>
        <path id="Trazado_120905" data-name="Trazado 120905" d="M69.063,71.719H63.75a7.969,7.969,0,0,1-7.969-7.969h5.313A7.969,7.969,0,0,1,69.063,71.719Z" fill="#06ccab"/>
        <path id="Trazado_120906" data-name="Trazado 120906" d="M58.438,66.406a7.969,7.969,0,0,1,7.5,5.313h3.121a7.969,7.969,0,0,0-7.969-7.969H55.781a7.9,7.9,0,0,0,.465,2.656Z" fill="#95e8c8"/>
        <path id="Trazado_120907" data-name="Trazado 120907" d="M77.031,63.75h5.313a7.969,7.969,0,0,1-7.969,7.969H69.063A7.969,7.969,0,0,1,77.031,63.75Z" fill="#06ccab"/>
        <path id="Trazado_120908" data-name="Trazado 120908" d="M79.688,66.406a7.969,7.969,0,0,0-7.5,5.313H69.063a7.969,7.969,0,0,1,7.969-7.969h5.313a7.9,7.9,0,0,1-.465,2.656Z" fill="#95e8c8"/>
        <path id="Trazado_120909" data-name="Trazado 120909" d="M83.672,69.063H82a9.266,9.266,0,0,0,1.671-5.313,1.328,1.328,0,0,0-1.328-1.328H77.031a9.262,9.262,0,0,0-6.642,2.805l0-4.133h1.328a6.649,6.649,0,0,0,6.641-6.641V49.141a1.328,1.328,0,0,0-1.328-1.328H75.7V42.5a6.641,6.641,0,1,0-13.281,0v5.313H61.094a1.328,1.328,0,0,0-1.328,1.328v5.313a6.649,6.649,0,0,0,6.641,6.641h1.328v4.132a9.261,9.261,0,0,0-6.641-2.8H55.781a1.328,1.328,0,0,0-1.328,1.328,9.266,9.266,0,0,0,1.671,5.313h-9.64V15.938h1.328a1.328,1.328,0,0,0,1.328-1.328V9.3a1.328,1.328,0,0,0-1.328-1.328V1.328A1.328,1.328,0,0,0,46.484,0H38.516a1.328,1.328,0,0,0-1.328,1.328V7.969A1.328,1.328,0,0,0,35.859,9.3v5.313a1.328,1.328,0,0,0,1.328,1.328h1.328V69.063h-9.64a9.266,9.266,0,0,0,1.671-5.312,1.328,1.328,0,0,0-1.328-1.328H23.906a9.262,9.262,0,0,0-6.642,2.805l0-4.133h1.328a6.649,6.649,0,0,0,6.641-6.641V49.141a1.328,1.328,0,0,0-1.328-1.328H22.578V42.5A6.641,6.641,0,0,0,9.3,42.5v5.313H7.969a1.328,1.328,0,0,0-1.328,1.328v5.313a6.649,6.649,0,0,0,6.641,6.641h1.328v4.132a9.261,9.261,0,0,0-6.641-2.8H2.656A1.328,1.328,0,0,0,1.328,63.75,9.266,9.266,0,0,0,3,69.063H1.328A1.328,1.328,0,0,0,0,70.391V83.672A1.328,1.328,0,0,0,1.328,85H83.672A1.328,1.328,0,0,0,85,83.672V70.391A1.328,1.328,0,0,0,83.672,69.063Zm-6.641-3.984h3.852a6.615,6.615,0,0,1-2.842,4.2l-.011.007a6.518,6.518,0,0,1-3.655,1.1H70.523a6.651,6.651,0,0,1,6.508-5.312ZM75.7,54.453a3.984,3.984,0,0,1-3.984,3.984H70.391V54.453a3.984,3.984,0,0,1,3.984-3.984H75.7Zm-5.312-5.278V45.156h2.656v2.789A6.58,6.58,0,0,0,70.391,49.175Zm-2.656,0a6.579,6.579,0,0,0-2.656-1.229v-2.79h2.656ZM73.047,42.5H70.391V38.759A3.918,3.918,0,0,1,73.047,42.5Zm-5.312-3.74V42.5H65.078a3.984,3.984,0,0,1,2.656-3.74ZM62.422,54.453V50.469H63.75a3.984,3.984,0,0,1,3.984,3.984v3.984H66.406a3.984,3.984,0,0,1-3.984-3.984ZM61.094,65.078A6.651,6.651,0,0,1,67.6,70.391H63.75a6.518,6.518,0,0,1-3.654-1.1l-.011-.007a6.615,6.615,0,0,1-2.844-4.2Zm-2.085,6.641a9.164,9.164,0,0,0,4.741,1.328h3.984V75.7H46.484V71.719ZM41.172,21.25h2.656V75.7H41.172Zm5.313-7.969H38.516V10.625h7.969ZM39.844,2.656h5.313V7.969H43.828V5.313H41.172V7.969H39.844Zm3.984,13.281v2.656H41.172V15.938ZM23.906,65.078h3.852a6.615,6.615,0,0,1-2.842,4.2l-.011.007a6.518,6.518,0,0,1-3.655,1.1H17.4A6.651,6.651,0,0,1,23.906,65.078ZM21.25,73.047a9.164,9.164,0,0,0,4.741-1.328H38.516V75.7H17.266V73.047Zm1.328-18.594a3.984,3.984,0,0,1-3.984,3.984H17.266V54.453a3.984,3.984,0,0,1,3.984-3.984h1.328Zm-5.312-5.278V45.156h2.656v2.789a6.58,6.58,0,0,0-2.656,1.23Zm-2.656,0a6.579,6.579,0,0,0-2.656-1.23V45.156h2.656ZM19.922,42.5H17.266V38.759A3.918,3.918,0,0,1,19.922,42.5Zm-5.312-3.74V42.5H11.953a3.984,3.984,0,0,1,2.656-3.74ZM9.3,54.453V50.469h1.328a3.984,3.984,0,0,1,3.984,3.984v3.984H13.281A3.984,3.984,0,0,1,9.3,54.453ZM7.969,65.078a6.651,6.651,0,0,1,6.508,5.313H10.625a6.518,6.518,0,0,1-3.654-1.1l-.011-.007a6.615,6.615,0,0,1-2.844-4.2ZM82.344,82.344H2.656V71.719H5.884a9.164,9.164,0,0,0,4.741,1.328h3.984V75.7h-9.3v2.656H74.375V75.7H70.391V73.047h3.984a9.164,9.164,0,0,0,4.741-1.328h3.227Z"/>
        <path id="Trazado_120910" data-name="Trazado 120910" d="M77.031,75.7h2.656v2.656H77.031Z"/>
        <path id="Trazado_120911" data-name="Trazado 120911" d="M67.734,33.2a4.2,4.2,0,0,0,3.984-3.984c0-1.562-2.013-4.751-2.879-6.05a1.38,1.38,0,0,0-2.21,0c-.866,1.3-2.879,4.488-2.879,6.05A4.2,4.2,0,0,0,67.734,33.2Zm0-6.785a11.312,11.312,0,0,1,1.328,2.809,1.328,1.328,0,0,1-2.656,0,11.235,11.235,0,0,1,1.328-2.809Z"/>
        <path id="Trazado_120912" data-name="Trazado 120912" d="M54.453,42.5a4.2,4.2,0,0,0,3.984-3.984c0-1.562-2.013-4.751-2.879-6.05a1.38,1.38,0,0,0-2.21,0c-.866,1.3-2.879,4.488-2.879,6.05A4.2,4.2,0,0,0,54.453,42.5Zm0-6.785a11.312,11.312,0,0,1,1.328,2.809,1.328,1.328,0,1,1-2.656,0,11.235,11.235,0,0,1,1.328-2.809Z"/>
        <path id="Trazado_120913" data-name="Trazado 120913" d="M30.547,42.5a4.2,4.2,0,0,0,3.984-3.984c0-1.562-2.013-4.751-2.879-6.05a1.38,1.38,0,0,0-2.21,0c-.866,1.3-2.879,4.488-2.879,6.05A4.2,4.2,0,0,0,30.547,42.5Zm0-6.785a11.312,11.312,0,0,1,1.328,2.809,1.557,1.557,0,0,1-1.328,1.32,1.553,1.553,0,0,1-1.328-1.315,11.235,11.235,0,0,1,1.328-2.814Z"/>
        <path id="Trazado_120914" data-name="Trazado 120914" d="M56.372,5.089c1.3.866,4.488,2.879,6.05,2.879a4.2,4.2,0,0,0,3.984-3.984A4.2,4.2,0,0,0,62.422,0c-1.562,0-4.751,2.013-6.05,2.879a1.328,1.328,0,0,0,0,2.21ZM62.43,2.656a1.557,1.557,0,0,1,1.32,1.328,1.553,1.553,0,0,1-1.315,1.328,11.234,11.234,0,0,1-2.814-1.328A11.312,11.312,0,0,1,62.43,2.656Z"/>
        <path id="Trazado_120915" data-name="Trazado 120915" d="M22.578,7.969c1.562,0,4.751-2.013,6.05-2.879a1.328,1.328,0,0,0,0-2.21C27.329,2.013,24.14,0,22.578,0a4.2,4.2,0,0,0-3.984,3.984,4.2,4.2,0,0,0,3.984,3.984ZM22.57,2.656a11.334,11.334,0,0,1,2.81,1.328,11.359,11.359,0,0,1-2.8,1.328A1.553,1.553,0,0,1,21.25,3.984a1.557,1.557,0,0,1,1.32-1.328Z"/>
        <path id="Trazado_120916" data-name="Trazado 120916" d="M6.789,19.506A4.1,4.1,0,0,0,9.816,18.25c1.028-1.17,1.642-4.888,1.859-6.432a1.328,1.328,0,0,0-1.652-1.469c-1.509.4-5.129,1.436-6.169,2.608a4.16,4.16,0,0,0,.328,5.611,3.873,3.873,0,0,0,2.607.938Zm-.951-4.781A11.281,11.281,0,0,1,8.691,13.51a11.672,11.672,0,0,1-.855,2.971,1.551,1.551,0,0,1-1.885.108,1.537,1.537,0,0,1-.112-1.859Z"/>
        <path id="Trazado_120917" data-name="Trazado 120917" d="M75.2,18.263a4.072,4.072,0,0,0,3.014,1.246,3.867,3.867,0,0,0,2.594-.93,4.16,4.16,0,0,0,.344-5.622c-1.04-1.173-4.66-2.215-6.169-2.608a1.328,1.328,0,0,0-1.654,1.472C73.542,13.362,74.156,17.08,75.2,18.263Zm3.959-3.539A1.529,1.529,0,0,1,79.03,16.6a1.551,1.551,0,0,1-1.849-.1,11.4,11.4,0,0,1-.878-3,11.281,11.281,0,0,1,2.853,1.215Z"/>
        <path id="Trazado_120918" data-name="Trazado 120918" d="M15.938,33.2a4.2,4.2,0,0,0,3.984-3.984c0-1.562-2.013-4.751-2.879-6.05a1.38,1.38,0,0,0-2.21,0c-.866,1.3-2.879,4.488-2.879,6.05A4.2,4.2,0,0,0,15.937,33.2Zm0-6.785a11.312,11.312,0,0,1,1.328,2.809,1.557,1.557,0,0,1-1.328,1.32,1.553,1.553,0,0,1-1.328-1.315,11.234,11.234,0,0,1,1.328-2.814Z"/>
        <path id="Trazado_120919" data-name="Trazado 120919" d="M65.813,15.595a4,4,0,0,0-1.519-2.618c-1.266-.92-5.028-1.162-6.587-1.222a1.328,1.328,0,0,0-1.3,1.788c.541,1.461,1.936,4.965,3.2,5.885a3.842,3.842,0,0,0,2.258.7,4.535,4.535,0,0,0,.691-.054,3.992,3.992,0,0,0,2.608-1.519,4,4,0,0,0,.648-2.958Zm-2.789,1.393a1.549,1.549,0,0,1-1.839.3,11.374,11.374,0,0,1-1.5-2.735,11.268,11.268,0,0,1,3.055.575,1.389,1.389,0,0,1,.453.878,1.373,1.373,0,0,1-.173.98Z"/>
        <path id="Trazado_120920" data-name="Trazado 120920" d="M28.422,12.3a1.328,1.328,0,0,0-1.126-.547c-1.559.06-5.322.3-6.588,1.222a3.919,3.919,0,0,0,1.737,7.095,4.535,4.535,0,0,0,.691.054,3.842,3.842,0,0,0,2.258-.7c1.263-.92,2.656-4.423,3.2-5.885a1.328,1.328,0,0,0-.171-1.24Zm-4.6,4.979a1.355,1.355,0,0,1-.972.166,1.369,1.369,0,0,1-.877-.46,1.566,1.566,0,0,1,.287-1.859,11.365,11.365,0,0,1,3.055-.575,11.32,11.32,0,0,1-1.493,2.728Z"/>
      </g>
    </g>
  </g>
</svg>
