<svg xmlns="http://www.w3.org/2000/svg" xmlns:xlink="http://www.w3.org/1999/xlink" width="54" height="54" viewBox="0 0 54 54">
  <defs>
    <clipPath id="clip-path">
      <rect id="Rectángulo_34422" data-name="Rectángulo 34422" width="54" height="54" transform="translate(211 10689)" fill="#fff" stroke="#707070" stroke-width="1"/>
    </clipPath>
  </defs>
  <g id="Enmascarar_grupo_110" data-name="Enmascarar grupo 110" transform="translate(-211 -10689)" clip-path="url(#clip-path)">
    <g id="cambio-climatico" transform="translate(211 10689)">
      <g id="_x3C_Group_x3E__6_">
        <path id="Trazado_119264" data-name="Trazado 119264" d="M38.1,26.661c.108,3.231-.72,9.285-3.495,12.607-3.509,4.2-11.478,6.3-14.763,6.3-8.294,0-18.257-8.062-18.257-18.634S11.467,8.646,19.815,8.646c2.777,0,8.584.707,11.821,3.221a19.242,19.242,0,0,1,3.97,4.174C37.776,19.145,38.1,24.722,38.1,26.661Z" fill="#5a86cc"/>
        <path id="Trazado_119265" data-name="Trazado 119265" d="M22.978,43.2a19.145,19.145,0,0,1-14.7-31.4c-2.539,1.951-3.631,6.151-5.206,7.726A7.507,7.507,0,0,0,1.154,23.4,19.327,19.327,0,0,0,.789,27a19.068,19.068,0,0,0,2.188,8.9c1.685,3.207,7.853,6.616,8.41,6.975a33.274,33.274,0,0,0,8.276,2.872,9.37,9.37,0,0,0,1.489.359,19.088,19.088,0,0,0,13.465-6.85A19.037,19.037,0,0,1,22.978,43.2Z" fill="#4377c4"/>
        <path id="Trazado_119266" data-name="Trazado 119266" d="M20.407,45.645c-.506-1.007-.285-1.6-.516-2.665a4.3,4.3,0,0,1,.017-2.1,6.522,6.522,0,0,0,.218-2.44l0-.033a3.63,3.63,0,0,0-.34-1.168,12.072,12.072,0,0,0-2.673-3.114c-1.172-1.17-2.578-1.934-3.638-.713-1.093,1.573-1.812,3.964-4.024,4.185-.238.024-.52.255-.795.225a3.2,3.2,0,0,1-2.06-1.333c-.786-1.736-1.543-.768-2.881-.108a16.681,16.681,0,0,0,7.351,7.163,15.954,15.954,0,0,0,9.344,2.1Z" fill="#95d6a4"/>
        <path id="Trazado_119267" data-name="Trazado 119267" d="M31.671,11.894l-.424.424a8.644,8.644,0,0,1-6.114,2.534,4.08,4.08,0,0,1-2.886-1.2,1.539,1.539,0,0,0-1.9-.22,2.412,2.412,0,0,0-1.122,2.349l.006.05A4.551,4.551,0,0,1,13.1,20.644l-.617-.233a5.714,5.714,0,0,0-2.509-.349l-.083.007A2.958,2.958,0,0,0,7.77,21.232l-.031.042a4.845,4.845,0,0,1-3.525,1.914l-.351.025a3.544,3.544,0,0,1-2.089-.4A15.817,15.817,0,0,1,4.816,16,15.175,15.175,0,0,1,8.278,11.81a18.709,18.709,0,0,1,7.507-3.568A19.225,19.225,0,0,1,27.3,9.319a19.021,19.021,0,0,1,4.37,2.575Z" fill="#95d6a4"/>
        <path id="Trazado_119268" data-name="Trazado 119268" d="M19.886,42.953A19.077,19.077,0,0,1,9.45,37.6a3.667,3.667,0,0,1-.771-.006A2.725,2.725,0,0,1,6.827,36.3c-.786-1.735-2.515-1.067-3.853-.407.03.056.059.113.089.168A19.206,19.206,0,0,0,19.125,46.125c.264.011.528.018.795.018.413,0,.823-.015,1.23-.04A13.651,13.651,0,0,1,19.886,42.953Z" fill="#78c2a4"/>
        <path id="Trazado_119269" data-name="Trazado 119269" d="M8.281,11.808c-.247.19-.489.387-.727.589A19.147,19.147,0,0,0,1.153,23.4l2.713-.191A19.065,19.065,0,0,1,8.281,11.808Z" fill="#78c2a4"/>
        <path id="Trazado_119270" data-name="Trazado 119270" d="M34.616,39.254l-1.391-2.414a2.761,2.761,0,0,1-.277-2.085l.762-2.881a2.673,2.673,0,0,0-.735-2.614A5.147,5.147,0,0,1,31.4,25.254l.028-.495a3.671,3.671,0,0,1,1.874-3,4.461,4.461,0,0,0,2.285-3.895V16.011A19.3,19.3,0,0,1,39.069,26.5,19.591,19.591,0,0,1,34.616,39.254Z" fill="#95d6a4"/>
        <path id="Trazado_119271" data-name="Trazado 119271" d="M47.986,39h0a4.571,4.571,0,0,1-4.535-4.746V19.681a5.177,5.177,0,0,1,1.828-4.215,4.724,4.724,0,0,1,2.707-.847h0a4.746,4.746,0,0,1,4.746,4.746V34.677a4.724,4.724,0,0,1-.859,2.723A4.419,4.419,0,0,1,47.986,39Z" fill="#e1ebf0"/>
        <path id="Trazado_119272" data-name="Trazado 119272" d="M48.644,38.052a3.823,3.823,0,0,1-3.823-3.823V17.782a4.724,4.724,0,0,1,.693-2.471,4.743,4.743,0,0,0-2.275,4.053V34.677a4.746,4.746,0,0,0,4.746,4.746h0a4.743,4.743,0,0,0,4.053-2.275A5.513,5.513,0,0,1,48.644,38.052Z" fill="#d2e4e7"/>
        <path id="Trazado_119273" data-name="Trazado 119273" d="M49.563,24.179V34.673c0,.874-.708,1.267-1.582,1.267a1.328,1.328,0,0,1-1.371-1.478V23.968l1.363-.844Z" fill="#5a86cc"/>
        <path id="Trazado_119274" data-name="Trazado 119274" d="M46.95,23.591l.036-4a1.434,1.434,0,0,1,.934-1.454c.278-.118.646-.265.886-.118a1.583,1.583,0,0,1,.759,1.352v4.811H47.991Z" fill="#f5de46"/>
        <path id="Trazado_119275" data-name="Trazado 119275" d="M49.079,34.695a1.049,1.049,0,0,1-1.1-1.054V24.179l-.852-1.055-.73,1.055v10.45A1.612,1.612,0,0,0,47.9,36.255a1.583,1.583,0,0,0,1.659-1.58Z" fill="#4377c4"/>
        <path id="Trazado_119276" data-name="Trazado 119276" d="M48.772,18a1.58,1.58,0,0,0-2.373,1.37v4.811h1.582V19.368A1.581,1.581,0,0,1,48.772,18Z" fill="#f3d332"/>
        <path id="Trazado_119277" data-name="Trazado 119277" d="M47.991,50.241A2.222,2.222,0,0,1,45.756,48.1a2.41,2.41,0,0,1,.7-1.884,2.373,2.373,0,0,1,3.36,3.324,2.236,2.236,0,0,1-1.826.706Zm-.005-3.007a.792.792,0,1,0,.791.792A.793.793,0,0,0,47.986,47.234Z" fill="#5a86cc"/>
        <path id="Trazado_119278" data-name="Trazado 119278" d="M48.513,49.873a2.373,2.373,0,0,1-1.92-3.768,2.373,2.373,0,1,0,3.312,3.315A2.36,2.36,0,0,1,48.513,49.873Z" fill="#4377c4"/>
        <g id="Grupo_84905" data-name="Grupo 84905">
          <path id="Trazado_119279" data-name="Trazado 119279" d="M47.986,9.413a3.4,3.4,0,1,1,3.4-3.4A3.4,3.4,0,0,1,47.986,9.413Z" fill="#f3d332"/>
        </g>
        <g id="Grupo_84906" data-name="Grupo 84906">
          <path id="Trazado_119280" data-name="Trazado 119280" d="M49.252,8.253A3.4,3.4,0,0,1,46.4,3.013a3.4,3.4,0,1,0,4.44,4.845A3.37,3.37,0,0,1,49.252,8.253Z" fill="#ecc52e"/>
        </g>
      </g>
      <g id="Grupo_84907" data-name="Grupo 84907">
        <path id="Trazado_119281" data-name="Trazado 119281" d="M36.293,15.661A19.9,19.9,0,0,0,6.137,12.608.791.791,0,0,0,7.232,13.75a18.31,18.31,0,0,1,23.218-1.765,7.794,7.794,0,0,1-5.318,2.077,3.267,3.267,0,0,1-2.326-.964,2.321,2.321,0,0,0-2.876-.333,3.211,3.211,0,0,0-1.49,3.119,3.818,3.818,0,0,1-1.579,3.594,3.778,3.778,0,0,1-3.486.426,7.386,7.386,0,0,0-3.473-.63,3.9,3.9,0,0,0-2.8,1.523,4.052,4.052,0,0,1-2.949,1.6l-2.033.143a18.228,18.228,0,0,1,2.791-6.1.791.791,0,1,0-1.294-.911,19.926,19.926,0,1,0,32.67.127ZM34.711,37.835l-.8-1.389a1.958,1.958,0,0,1-.2-1.488l.762-2.881a3.466,3.466,0,0,0-.952-3.387A4.35,4.35,0,0,1,32.188,25.3l.028-.494a2.866,2.866,0,0,1,1.47-2.352,5.222,5.222,0,0,0,2.174-2.316,5.276,5.276,0,0,0,.439-1.383,18.329,18.329,0,0,1-1.589,19.08ZM21.62,45.272c-.677-1.371-1.317-2.865-.949-4.178a7.278,7.278,0,0,0,.244-2.734,5.263,5.263,0,0,0-1.239-2.716.791.791,0,1,0-1.243.979,3.433,3.433,0,0,1,.908,1.9,5.707,5.707,0,0,1-.193,2.144,6.842,6.842,0,0,0,.756,4.684,18.344,18.344,0,0,1-15.814-9.1,2.393,2.393,0,0,1,1.476-.217.955.955,0,0,1,.542.587,3.488,3.488,0,0,0,2.348,1.726c2.527.495,4.144-1.695,4.972-3.338.228-.4.443-.779.671-1.112.22-.249.67-.67,1.853.252a.791.791,0,1,0,.972-1.248c-2.184-1.7-3.558-.573-4.048-.009a14.2,14.2,0,0,0-.823,1.334c-.961,1.689-1.636,2.725-3.216,2.583-.728-.224-1.126-.485-1.287-.841A2.525,2.525,0,0,0,6.1,34.547a3.855,3.855,0,0,0-2.752.3A18.254,18.254,0,0,1,1.582,27,18.565,18.565,0,0,1,1.8,24.151l2.469-.174a5.633,5.633,0,0,0,4.1-2.226,2.322,2.322,0,0,1,1.669-.9,5.975,5.975,0,0,1,2.778.534,5.342,5.342,0,0,0,7.194-5.7,1.625,1.625,0,0,1,.754-1.578.745.745,0,0,1,.923.107,4.838,4.838,0,0,0,3.445,1.428,9.368,9.368,0,0,0,6.584-2.681,18.5,18.5,0,0,1,3.076,3.317v1.589a3.694,3.694,0,0,1-.36,1.586,3.649,3.649,0,0,1-1.519,1.618,4.44,4.44,0,0,0-2.278,3.643l-.028.495a5.93,5.93,0,0,0,1.82,4.623,1.883,1.883,0,0,1,.517,1.84l-.762,2.881a3.532,3.532,0,0,0,.356,2.682l1.106,1.919A18.305,18.305,0,0,1,21.62,45.272Z"/>
        <path id="Trazado_119282" data-name="Trazado 119282" d="M53.993,46.67a.791.791,0,1,0-1.582,0v.564h-2.19a2.375,2.375,0,0,0-.435-.75l1.1-1.9.458.265a.791.791,0,0,0,.791-1.37L49.85,42.157a.791.791,0,0,0-.791,1.37l.456.263-1.1,1.9a2.347,2.347,0,0,0-.866,0l-1.1-1.9.459-.265a.791.791,0,0,0-.791-1.37l-2.284,1.319a.791.791,0,1,0,.791,1.37l.455-.263,1.1,1.9a2.374,2.374,0,0,0-.435.75h-2.19v-.528a.791.791,0,1,0-1.582,0c0,.684,0,1.935,0,2.639a.791.791,0,1,0,1.582,0v-.528h2.189a2.377,2.377,0,0,0,.435.751l-1.1,1.9L44.63,51.2a.791.791,0,0,0-.791,1.37l2.284,1.319a.791.791,0,0,0,.791-1.37l-.459-.265,1.1-1.9a2.346,2.346,0,0,0,.867,0l1.1,1.9-.456.263a.791.791,0,1,0,.791,1.37l2.284-1.319a.791.791,0,0,0-.791-1.37l-.458.265-1.1-1.9a2.376,2.376,0,0,0,.435-.751h2.19v.49a.791.791,0,1,0,1.582,0C53.991,49.17,53.993,46.67,53.993,46.67Zm-6.8,1.356a.791.791,0,1,1,.791.792A.793.793,0,0,1,47.193,48.026Z"/>
        <path id="Trazado_119283" data-name="Trazado 119283" d="M46.4,31.141a.791.791,0,0,0-.791.791v2.741a2.373,2.373,0,1,0,4.746,0v-15.3a2.373,2.373,0,1,0-4.746,0v8.868a.791.791,0,1,0,1.582,0V24.971h1.582v9.7a.791.791,0,1,1-1.582,0V31.932a.791.791,0,0,0-.791-.791Zm.791-7.753V19.368a.791.791,0,1,1,1.582,0v4.021Z"/>
        <path id="Trazado_119284" data-name="Trazado 119284" d="M52.73,22.515a.791.791,0,0,0,.791-.791v-2.36a5.537,5.537,0,0,0-11.075,0V34.677a5.537,5.537,0,0,0,11.075,0V25.422a.791.791,0,1,0-1.582,0v9.254a3.955,3.955,0,0,1-7.911,0V19.364a3.955,3.955,0,0,1,7.911,0v2.36A.791.791,0,0,0,52.73,22.515Z"/>
        <path id="Trazado_119285" data-name="Trazado 119285" d="M42.76,6.807h1.922a3.376,3.376,0,0,0,.409.985L43.731,9.151A.791.791,0,1,0,44.85,10.27L46.209,8.91a3.378,3.378,0,0,0,.985.409v1.922a.791.791,0,1,0,1.582,0V9.319a3.378,3.378,0,0,0,.985-.409L51.12,10.27a.791.791,0,0,0,1.119-1.119L50.879,7.792a3.377,3.377,0,0,0,.409-.985h1.922a.791.791,0,0,0,0-1.582H51.287a3.378,3.378,0,0,0-.409-.985l1.359-1.359a.791.791,0,0,0-1.119-1.119L49.76,3.121a3.378,3.378,0,0,0-.985-.409V.791a.791.791,0,1,0-1.582,0V2.713a3.378,3.378,0,0,0-.985.409L44.85,1.762a.791.791,0,1,0-1.119,1.119L45.09,4.24a3.378,3.378,0,0,0-.409.985H42.76a.791.791,0,0,0,0,1.582ZM47.985,4.2A1.815,1.815,0,1,1,46.17,6.016,1.817,1.817,0,0,1,47.985,4.2Z"/>
      </g>
    </g>
  </g>
</svg>
