<svg xmlns="http://www.w3.org/2000/svg" xmlns:xlink="http://www.w3.org/1999/xlink" width="54" height="54" viewBox="0 0 54 54">
  <defs>
    <clipPath id="clip-path">
      <rect id="Rectángulo_34442" data-name="Rectángulo 34442" width="54" height="54" transform="translate(841 10935)" fill="#fff" stroke="#707070" stroke-width="1"/>
    </clipPath>
  </defs>
  <g id="Enmascarar_grupo_120" data-name="Enmascarar grupo 120" transform="translate(-841 -10935)" clip-path="url(#clip-path)">
    <g id="derramar" transform="translate(841 10935)">
      <path id="Trazado_119437" data-name="Trazado 119437" d="M53.209,19.982a.113.113,0,0,0-.127-.113l-6.129.74a20.7,20.7,0,0,1-4.963,0l-5.55-.67a5.893,5.893,0,0,0-1.411,0l-5.549.67a20.7,20.7,0,0,1-4.963,0l-5.549-.67a5.883,5.883,0,0,0-1.411,0l-5.549.67a20.7,20.7,0,0,1-4.963,0L.918,19.87a.113.113,0,0,0-.127.113V50.354a2.855,2.855,0,0,0,2.855,2.855H50.354a2.855,2.855,0,0,0,2.855-2.855V19.982Z" fill="#d3effb"/>
      <path id="Trazado_119438" data-name="Trazado 119438" d="M53.082,19.87l-4.092.494V41.545A9.555,9.555,0,0,1,39.435,51.1H.889a2.856,2.856,0,0,0,2.757,2.109H50.354a2.855,2.855,0,0,0,2.855-2.855V19.982a.113.113,0,0,0-.127-.112Z" fill="#b1e4f9"/>
      <path id="Trazado_119439" data-name="Trazado 119439" d="M46.991,35.547c0,.763-2.266,3.975-5.691,6.2L40.8,42a5.035,5.035,0,0,1-4.726-.1l-1.666-.929a2.5,2.5,0,0,1-1.116-3.084l.628-1.63a14.333,14.333,0,0,1,4.355-5.986,2.181,2.181,0,0,1,2.242-.305c3.857,1.789,6.472,4.758,6.472,5.578Z" fill="#fff0af"/>
      <path id="Trazado_119440" data-name="Trazado 119440" d="M33.295,37.891l.628-1.63a14.328,14.328,0,0,1,.635-1.415l-.087-.04.087.04a14.331,14.331,0,0,1,3.72-4.572,2.181,2.181,0,0,1,2.242-.305,14.262,14.262,0,0,0-5.977-1.4c-4.547,0-12.695,2.945-17.937,5.066a4.657,4.657,0,0,1-4.207-.363L7.28,30.093a.177.177,0,0,0-.271.151V40.7a.178.178,0,0,0,.271.151l4.858-3.02a4.658,4.658,0,0,1,4.492-.235c4.809,2.331,13.2,6.363,17.913,6.363A12.537,12.537,0,0,0,41.3,41.748L40.8,42a5.035,5.035,0,0,1-4.726-.1l-1.666-.929a2.5,2.5,0,0,1-1.116-3.084Z" fill="#ffd064"/>
      <g id="Grupo_84929" data-name="Grupo 84929">
        <path id="Trazado_119441" data-name="Trazado 119441" d="M16.6,33.639a4.654,4.654,0,0,1-1.692.34,7.441,7.441,0,0,1,.769-2.831,1,1,0,0,1,1.134-.523l4.646,1.153C19.713,32.408,18.049,33.055,16.6,33.639Z" fill="#fff0af"/>
        <path id="Trazado_119442" data-name="Trazado 119442" d="M16.629,37.6c1.379.668,3.052,1.477,4.848,2.29l-4.662,1.157a1,1,0,0,1-1.134-.523,7.442,7.442,0,0,1-.786-3.328v-.053a4.656,4.656,0,0,1,1.733.457Z" fill="#fff0af"/>
        <path id="Trazado_119443" data-name="Trazado 119443" d="M24.4,36.157a4.765,4.765,0,0,1,4.173-4.118l2.922-.341a.828.828,0,0,1,.867.6,3.907,3.907,0,0,0,2.2,2.547l-4.063,3.319a4.455,4.455,0,0,1-4.6.631A2.524,2.524,0,0,1,24.4,36.157Z" fill="#fff0af"/>
        <path id="Trazado_119444" data-name="Trazado 119444" d="M34.542,43.962q.314,0,.624-.02v2.213a.543.543,0,0,1-.563.541,17.284,17.284,0,0,1-13.126-6.808c4.469,2.022,9.7,4.074,13.065,4.074Z" fill="#fff0af"/>
        <path id="Trazado_119445" data-name="Trazado 119445" d="M30.443,29.09,27.582,28.7a1.661,1.661,0,0,1-1.425-1.452l-.175-1.489a.543.543,0,0,1,.791-.544L33.3,28.635A25.341,25.341,0,0,0,30.443,29.09Z" fill="#fff0af"/>
      </g>
      <path id="Trazado_119446" data-name="Trazado 119446" d="M13.437,10.992H.9a.114.114,0,0,1-.114-.114V.9A.114.114,0,0,1,.9.791H13.437Z" fill="#b4d0d5"/>
      <path id="Trazado_119447" data-name="Trazado 119447" d="M9.218.791v4.6A3.492,3.492,0,0,1,5.726,8.883H.791v2a.114.114,0,0,0,.114.114H13.437V.791Z" fill="#9bb9c1"/>
      <path id="Trazado_119448" data-name="Trazado 119448" d="M13.551,12.6h6.473a.114.114,0,0,0,.114-.114V.9a.114.114,0,0,0-.114-.114H13.437v11.7a.114.114,0,0,0,.114.114Z" fill="#d0e2e7"/>
      <path id="Trazado_119449" data-name="Trazado 119449" d="M29.208,18.468a3.767,3.767,0,0,0-3.062-.579,1.228,1.228,0,0,1-1.288-.457,5.4,5.4,0,0,0-9.737,2.8l2.435-.294a5.883,5.883,0,0,1,1.411,0l5.549.67a20.7,20.7,0,0,0,4.963,0l.9-.109Z" fill="#b3e59f"/>
      <path id="Trazado_119450" data-name="Trazado 119450" d="M36.441,19.94l5.55.67a20.709,20.709,0,0,0,4.963,0l1.617-.2C50.1,14.8,42.792,12.448,40.2,16.763a1.25,1.25,0,0,1-1.223.59,3.239,3.239,0,0,0-.4-.024,3.2,3.2,0,0,0-3.14,2.576A5.888,5.888,0,0,1,36.441,19.94Z" fill="#e0f8c5"/>
      <path id="Trazado_119451" data-name="Trazado 119451" d="M18.969,19.94l5.549.67a20.7,20.7,0,0,0,4.963,0l.9-.109-1.139-1.973a20.7,20.7,0,0,1-4.724-.027l-5.549-.67a5.883,5.883,0,0,0-1.411,0l-1.785.215a5.342,5.342,0,0,0-.65,2.188l2.435-.294a5.9,5.9,0,0,1,1.411,0Z" fill="#95d6a4"/>
      <path id="Trazado_119452" data-name="Trazado 119452" d="M41.991,18.5l-5.2-.627A3.2,3.2,0,0,0,35.441,19.9a5.886,5.886,0,0,1,1,.035l5.55.67a20.709,20.709,0,0,0,4.963,0l1.617-.2a5.289,5.289,0,0,0,.163-2.129l-1.78.215a20.7,20.7,0,0,1-4.963,0Z" fill="#d6f6b2"/>
      <path id="Trazado_119453" data-name="Trazado 119453" d="M36.094,18.513l-3.68-6.374A14.177,14.177,0,0,0,20.137,5.051v5.941a8.236,8.236,0,0,1,7.132,4.118L30.382,20.5l4.648-.561q.2-.025.411-.035a3.187,3.187,0,0,1,.653-1.391Z" fill="#ccf49f"/>
      <path id="Trazado_119454" data-name="Trazado 119454" d="M29.242,18.527,30.382,20.5l4.648-.561q.2-.025.411-.035a3.188,3.188,0,0,1,.654-1.391l-.419-.725a5.905,5.905,0,0,0-.646.042l-5.549.67-.238.028Z" fill="#b3e59f"/>
      <path id="Trazado_119455" data-name="Trazado 119455" d="M4.845,27.245h9.693a.791.791,0,0,0,0-1.582H4.845a.791.791,0,0,0,0,1.582Z"/>
      <path id="Trazado_119456" data-name="Trazado 119456" d="M46.775,48.751H26.038a.791.791,0,1,0,0,1.582H46.775a.791.791,0,1,0,0-1.582Z"/>
      <path id="Trazado_119457" data-name="Trazado 119457" d="M42.09,23.735a.791.791,0,0,0,0,1.582h7.827a.791.791,0,0,0,0-1.582Z"/>
      <path id="Trazado_119458" data-name="Trazado 119458" d="M34.415,25.317H38.4a.791.791,0,0,0,0-1.582H34.415a.791.791,0,0,0,0,1.582Z"/>
      <path id="Trazado_119459" data-name="Trazado 119459" d="M20.007,45.937H15.948a.791.791,0,0,0,0,1.582h4.059a.791.791,0,0,0,0-1.582Z"/>
      <path id="Trazado_119460" data-name="Trazado 119460" d="M12.256,45.937H4.505a.791.791,0,1,0,0,1.582h7.751a.791.791,0,0,0,0-1.582Z"/>
      <path id="Trazado_119461" data-name="Trazado 119461" d="M53.7,19.306a.9.9,0,0,0-.708-.221l-3.443.416a5.067,5.067,0,0,0-3.133-5.294,5.46,5.46,0,0,0-6.889,2.15.459.459,0,0,1-.448.212,3.984,3.984,0,0,0-2.788.7L35.1,15.209A.791.791,0,1,0,33.73,16l1.428,2.474a3.951,3.951,0,0,0-.331.693l-1.176.142-2.2-3.8a.791.791,0,1,0-1.37.791l1.859,3.22-1.139.137-2.851-4.938a9.055,9.055,0,0,0-7.026-4.478V5.866a13.427,13.427,0,0,1,10.8,6.669l.154.267a.791.791,0,0,0,1.37-.791l-.154-.267A15.014,15.014,0,0,0,20.928,4.281V.9a.906.906,0,0,0-.9-.9H.9A.906.906,0,0,0,0,.9v9.974a.906.906,0,0,0,.9.9H2.42a.791.791,0,1,0,0-1.582H1.582V1.582H12.646V10.2H6.111a.791.791,0,0,0,0,1.582h6.535v.7a.906.906,0,0,0,.9.9h6.473a.906.906,0,0,0,.9-.9v-.661a7.469,7.469,0,0,1,5.656,3.68l.868,1.5a4.581,4.581,0,0,0-1.494.112.434.434,0,0,1-.463-.158,6.193,6.193,0,0,0-11.079,2.559l-2.5.3a19.941,19.941,0,0,1-4.773,0l-6.128-.74a.9.9,0,0,0-1.013.9V50.354A3.65,3.65,0,0,0,3.646,54H50.354A3.65,3.65,0,0,0,54,50.354V19.982a.9.9,0,0,0-.3-.677ZM19.346,5.9H14.228V4.323h5.118ZM14.228,7.487h5.118V9.069H14.228Zm5.118-4.746H14.228V1.582h5.118Zm-5.118,9.069V10.651h5.118v1.159ZM38.88,18.138a2.039,2.039,0,0,0,2-.968,3.89,3.89,0,0,1,4.912-1.509A3.522,3.522,0,0,1,47.92,19.7l-1.062.128a19.939,19.939,0,0,1-4.773,0l-5.49-.663q.052-.075.109-.145l.009-.011a2.414,2.414,0,0,1,2.167-.868ZM20.24,16.031a4.6,4.6,0,0,1,3.982,1.87,2.019,2.019,0,0,0,2.112.756,2.968,2.968,0,0,1,2.281.366l.481.833a19.938,19.938,0,0,1-4.484-.033l-5.549-.67a6.7,6.7,0,0,0-1.6,0l-1.374.166A4.617,4.617,0,0,1,20.24,16.031ZM52.418,50.354a2.066,2.066,0,0,1-2.064,2.064H3.646a2.066,2.066,0,0,1-2.064-2.064V20.747l5.369.648a21.536,21.536,0,0,0,5.152,0l5.549-.67a5.091,5.091,0,0,1,1.222,0l5.549.67a21.536,21.536,0,0,0,5.152,0l5.549-.67a5.1,5.1,0,0,1,1.222,0l5.55.67a21.534,21.534,0,0,0,5.152,0l5.37-.648Z"/>
      <path id="Trazado_119462" data-name="Trazado 119462" d="M45.743,32.545a18.984,18.984,0,0,0-4.892-3.294,14.962,14.962,0,0,0-6.31-1.47q-.5,0-1.076.046l-6.327-3.314A1.334,1.334,0,0,0,25.2,25.85l.175,1.489a2.452,2.452,0,0,0,1.309,1.892q-.6.173-1.223.367a.791.791,0,0,0,.467,1.511,40.163,40.163,0,0,1,7.451-1.688l.028,0q.613-.056,1.138-.056a12.382,12.382,0,0,1,3.1.405,15.144,15.144,0,0,0-3.391,3.988,3.134,3.134,0,0,1-1.131-1.665,1.618,1.618,0,0,0-1.693-1.182l-.03,0-2.922.341a5.549,5.549,0,0,0-4.865,4.8,3.332,3.332,0,0,0,1.959,3.465A5.224,5.224,0,0,0,31,38.777l1.62-1.323-.059.153a3.309,3.309,0,0,0,1.468,4.059l1.666.929a5.849,5.849,0,0,0,.8.372,9.593,9.593,0,0,1-1.952.2c-4.606,0-13.36-4.244-17.568-6.284a5.422,5.422,0,0,0-5.254.275L7.8,39.6V37.847l2.271-.438a.791.791,0,1,0-.3-1.553l-1.972.38V34.711l1.909.368a.791.791,0,1,0,.3-1.553L7.8,33.1V31.348l4.181,2.6a5.444,5.444,0,0,0,2.931.822h.014a5.422,5.422,0,0,0,1.977-.4c1.907-.771,3.767-1.478,5.531-2.1a.791.791,0,0,0-.527-1.492l-.486.173-4.414-1.095a1.779,1.779,0,0,0-2.032.937,8.187,8.187,0,0,0-.76,2.341,3.863,3.863,0,0,1-1.4-.53L7.7,29.421a.968.968,0,0,0-1.48.823V40.7a.969.969,0,0,0,1.48.822l4.858-3.02a3.869,3.869,0,0,1,1.585-.558,8.278,8.278,0,0,0,.834,2.929,1.779,1.779,0,0,0,2.032.937l4.179-1.037a17.917,17.917,0,0,0,13.393,6.711,1.334,1.334,0,0,0,1.379-1.332V44.661a13.951,13.951,0,0,0,5.778-2.252c3.257-2.119,6.047-5.544,6.047-6.862,0-.943-1.278-2.285-2.039-3ZM30.791,28.212l-.376.076-2.726-.372a.87.87,0,0,1-.747-.761l-.12-1.022Zm-14.166,3.18,2.162.536c-2.451.94-2.486,1.011-2.948,1.133A6.622,6.622,0,0,1,16.39,31.5a.206.206,0,0,1,.236-.108Zm13.369,6.16a3.649,3.649,0,0,1-3.787.519,1.709,1.709,0,0,1-.286-.159l3.549-1.926a.791.791,0,0,0-.755-1.391L25.17,36.52a1.71,1.71,0,0,1,.014-.261,3.969,3.969,0,0,1,3.48-3.434l2.9-.338a.04.04,0,0,1,.036.019,4.664,4.664,0,0,0,1.6,2.433ZM16.625,40.277a.206.206,0,0,1-.236-.109,6.682,6.682,0,0,1-.64-2.07c.5.157.527.232,3.352,1.565Zm8.24,1.929c3.425,1.379,6.934,2.5,9.51,2.545V45.9A16,16,0,0,1,24.866,42.206ZM40.9,41.062l-.459.232a4.238,4.238,0,0,1-3.984-.081L34.8,40.284a1.719,1.719,0,0,1-.763-2.109l.628-1.63a13.562,13.562,0,0,1,4.114-5.656,1.385,1.385,0,0,1,1.421-.2,16.438,16.438,0,0,1,5.467,4.062,6.031,6.031,0,0,1-4.276-1.96l-.743-.814a.791.791,0,0,0-1.169,1.066l.743.814a7.616,7.616,0,0,0,5.559,2.479A17.806,17.806,0,0,1,40.9,41.062Z"/>
      <path id="Trazado_119463" data-name="Trazado 119463" d="M40.378,36.283a.791.791,0,0,0-1.119,0L38.545,37l-.714-.714A.791.791,0,0,0,36.712,37.4l.714.714-.714.714a.791.791,0,0,0,1.119,1.119l.714-.714.714.714a.791.791,0,0,0,1.119-1.119l-.714-.714.714-.714A.791.791,0,0,0,40.378,36.283Z"/>
      <path id="Trazado_119464" data-name="Trazado 119464" d="M22.956,7.226a.791.791,0,0,0-.363,1.54,10.764,10.764,0,0,1,6.361,4.314.791.791,0,0,0,1.3-.906,12.344,12.344,0,0,0-7.295-4.948Z"/>
    </g>
  </g>
</svg>
