<svg xmlns="http://www.w3.org/2000/svg" xmlns:xlink="http://www.w3.org/1999/xlink" width="54" height="54" viewBox="0 0 54 54">
  <defs>
    <clipPath id="clip-path">
      <rect id="Rectángulo_34426" data-name="Rectángulo 34426" width="54" height="54" transform="translate(841 10689)" fill="#fff" stroke="#707070" stroke-width="1"/>
    </clipPath>
  </defs>
  <g id="Enmascarar_grupo_112" data-name="Enmascarar grupo 112" transform="translate(-841 -10689)" clip-path="url(#clip-path)">
    <g id="Page-1" transform="translate(844.569 10688.973)">
      <g id="_012---Toxic-Gasses" data-name="012---Toxic-Gasses">
        <g id="Color" transform="translate(0 0.9)">
          <path id="Shape" d="M40.952,43.222a21.611,21.611,0,0,1-31.822,3.6h4.376a2.7,2.7,0,0,0,2.7-2.7,2.7,2.7,0,0,1,2.7-2.7h1.8a2.7,2.7,0,0,0,2.575-1.9,2.62,2.62,0,0,0,.126-.8,2.7,2.7,0,0,0-2.7-2.7H2.7a.81.81,0,0,0-.207,0,21.314,21.314,0,0,1-.693-4.5H8.1a2.7,2.7,0,0,0,2.7-2.7,2.7,2.7,0,0,1,.792-1.909,2.638,2.638,0,0,1,1.108-.666,4.5,4.5,0,0,0,7.618-1.027,3.6,3.6,0,0,0,6.177,0,4.5,4.5,0,0,0,3.116,2.566,2.7,2.7,0,0,0,1.9,4.637h2.7a2.7,2.7,0,1,1,0,5.4h-3.6a2.7,2.7,0,0,0-2.575,1.9,2.62,2.62,0,0,0-.126.8,2.7,2.7,0,0,0,2.7,2.7Z" fill="#02a9f4"/>
          <path id="Shape-2" data-name="Shape" d="M38.251,43.222a21.611,21.611,0,0,1-16.037,8.95c.4,0,.792.054,1.2.054a21.548,21.548,0,0,0,17.541-9Z" fill="#0377bc"/>
          <path id="Shape-3" data-name="Shape" d="M45.023,30.615a21.44,21.44,0,0,1-4.07,12.606H30.615a2.7,2.7,0,0,1-2.7-2.7,2.62,2.62,0,0,1,.126-.8,2.7,2.7,0,0,1,2.575-1.9h3.6a2.7,2.7,0,0,0,0-5.4h-2.7a2.7,2.7,0,0,1-1.9-4.619,4.106,4.106,0,0,0,1,.117,4.448,4.448,0,0,0,2.7-.9h11.4A20.71,20.71,0,0,1,45.023,30.615Z" fill="#a4c400"/>
          <path id="Shape-4" data-name="Shape" d="M44.716,27.014h-2.7a20.71,20.71,0,0,1,.306,3.6,21.44,21.44,0,0,1-4.07,12.606h2.7a21.44,21.44,0,0,0,4.07-12.606A20.71,20.71,0,0,0,44.716,27.014Z" fill="#90ac00"/>
          <path id="Shape-5" data-name="Shape" d="M44.716,27.014h-11.4a4.5,4.5,0,0,0,1.8-3.6,5.313,5.313,0,0,0-.054-.531,3.512,3.512,0,0,0,1.855.531,3.6,3.6,0,0,0,3.6-3.224,3.548,3.548,0,0,0,1.8.522,1.549,1.549,0,0,0,.288,0A21.611,21.611,0,0,1,44.716,27.014Z" fill="#02a9f4"/>
          <path id="Shape-6" data-name="Shape" d="M42.609,20.71a1.549,1.549,0,0,1-.288,0,3.548,3.548,0,0,1-1.8-.522,3.6,3.6,0,0,1-.306,1.081,21.53,21.53,0,0,1,1.8,5.745h2.7A21.611,21.611,0,0,0,42.609,20.71Z" fill="#0377bc"/>
          <path id="Shape-7" data-name="Shape" d="M12.705,26.239a2.638,2.638,0,0,0-1.108.666,2.7,2.7,0,0,0-.792,1.909,2.7,2.7,0,0,1-2.7,2.7H1.8c0-.3,0-.594,0-.9a21.512,21.512,0,0,1,2.413-9.9,1.549,1.549,0,0,0,.288,0,3.548,3.548,0,0,0,1.8-.522,3.6,3.6,0,0,0,3.6,3.224,3.512,3.512,0,0,0,1.855-.531,5.313,5.313,0,0,0-.054.531,4.5,4.5,0,0,0,1,2.827Z" fill="#a4c400"/>
          <path id="Shape-8" data-name="Shape" d="M45.923,17.109a3.6,3.6,0,0,1-3.314,3.6,1.549,1.549,0,0,1-.288,0,3.548,3.548,0,0,1-1.8-.522,3.6,3.6,0,0,1-3.6,3.224,3.512,3.512,0,0,1-1.855-.531,5.314,5.314,0,0,1,.054.531,4.5,4.5,0,0,1-1.8,3.6,4.448,4.448,0,0,1-2.7.9,4.106,4.106,0,0,1-1-.117A4.5,4.5,0,0,1,26.5,25.213a3.6,3.6,0,0,1-6.177,0,4.5,4.5,0,0,1-8.617-1.8,5.313,5.313,0,0,1,.054-.531,3.512,3.512,0,0,1-1.855.531,3.6,3.6,0,0,1-3.6-3.224,3.548,3.548,0,0,1-1.8.522,1.549,1.549,0,0,1-.288,0,3.6,3.6,0,1,1,.108-7.2A2.7,2.7,0,0,1,6.3,9a4.5,4.5,0,1,1,7.2-5.4,4.439,4.439,0,0,1,5.916-1.171,4.5,4.5,0,0,1,7.978,0A4.439,4.439,0,0,1,33.317,3.6,4.5,4.5,0,1,1,40.52,9a2.7,2.7,0,0,1,1.981,4.5,3.6,3.6,0,0,1,3.422,3.6Z" fill="#7f8e94"/>
          <g id="Grupo_84908" data-name="Grupo 84908">
            <path id="Shape-9" data-name="Shape" d="M24.7,2.458A4.574,4.574,0,0,1,27.014,1.8a4.5,4.5,0,0,0-3.6-1.8,4.421,4.421,0,0,0-1.351.216A4.583,4.583,0,0,1,24.7,2.458Z" fill="#545c60"/>
            <path id="Shape-10" data-name="Shape" d="M30.615,3.6A4.556,4.556,0,0,1,31.966,2.4,4.5,4.5,0,0,0,29.715,1.8a4.4,4.4,0,0,0-1.342.216A4.565,4.565,0,0,1,30.615,3.6Z" fill="#545c60"/>
            <path id="Shape-11" data-name="Shape" d="M39.908,20.71a1.549,1.549,0,0,1-.288,0,3.548,3.548,0,0,1-1.8-.522,3.6,3.6,0,0,1-2.206,2.953,3.5,3.5,0,0,0,1.306.27A3.6,3.6,0,0,0,40.4,20.6a3,3,0,0,1-.5.108Z" fill="#545c60"/>
            <path id="Shape-12" data-name="Shape" d="M34.217,23.412a3.512,3.512,0,0,1-1.855-.531,5.314,5.314,0,0,1,.054.531,4.5,4.5,0,0,1-1.8,3.6,4.394,4.394,0,0,1-1.342.684l.342.1a4.106,4.106,0,0,0,1,.117,4.448,4.448,0,0,0,2.7-.9,4.5,4.5,0,0,0,1.8-3.6v-.126A3.674,3.674,0,0,1,34.217,23.412Z" fill="#545c60"/>
            <path id="Shape-13" data-name="Shape" d="M42.5,13.507A2.7,2.7,0,0,0,40.52,9a4.5,4.5,0,0,0-3.6-7.2,4.322,4.322,0,0,0-1.369.225A4.5,4.5,0,0,1,37.819,9a2.7,2.7,0,0,1,1.981,4.5,3.6,3.6,0,0,1,1.171,6.906,3.512,3.512,0,0,0,1.351.3,1.549,1.549,0,0,0,.288,0,3.6,3.6,0,0,0-.108-7.2Z" fill="#545c60"/>
          </g>
          <path id="Shape-14" data-name="Shape" d="M23.412,38.719a2.62,2.62,0,0,1-.126.8,2.7,2.7,0,0,1-2.575,1.9h-1.8a2.7,2.7,0,0,0-2.7,2.7,2.7,2.7,0,0,1-2.7,2.7H9.131A21.476,21.476,0,0,1,2.494,36.018a.81.81,0,0,1,.207,0H20.71A2.7,2.7,0,0,1,23.412,38.719Z" fill="#a4c400"/>
          <path id="Shape-15" data-name="Shape" d="M30.615,12.606A7.2,7.2,0,1,0,19.81,18.837v.972a1.8,1.8,0,0,0,1.8,1.8h3.6a1.8,1.8,0,0,0,1.8-1.8v-.972a7.2,7.2,0,0,0,3.6-6.231Z" fill="#f5f5f5"/>
          <path id="Shape-16" data-name="Shape" d="M23.412,5.4a6.735,6.735,0,0,0-1.351.135,7.2,7.2,0,0,1,2.251,13.3v.972a1.8,1.8,0,0,1-1.8,1.8h2.7a1.8,1.8,0,0,0,1.8-1.8v-.972A7.2,7.2,0,0,0,23.412,5.4Z" fill="#cfd8dc"/>
        </g>
        <g id="Outline">
          <path id="Shape-17" data-name="Shape" d="M46.823,18.009a4.5,4.5,0,0,0-2.908-4.2,3.6,3.6,0,0,0-2.017-4.5A5.223,5.223,0,0,0,42.321,7.2a5.4,5.4,0,0,0-5.4-5.4,5.331,5.331,0,0,0-3.6,1.387,5.4,5.4,0,0,0-5.583-1,5.4,5.4,0,0,0-8.644,0,5.4,5.4,0,0,0-5.583,1A5.331,5.331,0,0,0,9.9,1.8,5.4,5.4,0,0,0,4.5,7.2a5.223,5.223,0,0,0,.423,2.071,3.6,3.6,0,0,0-2.017,4.5,4.5,4.5,0,0,0,0,8.392A22.7,22.7,0,0,0,.9,31.516v.9a21.962,21.962,0,0,0,.7,4.709A22.509,22.509,0,1,0,43.9,22.214,4.5,4.5,0,0,0,46.823,18.009Zm-42.042,4.5a5.493,5.493,0,0,0,.9-.153A4.5,4.5,0,0,0,9.9,25.213a4.25,4.25,0,0,0,.954-.108,5.4,5.4,0,0,0,.558,1.684,4.655,4.655,0,0,0-.459.378A3.6,3.6,0,0,0,9.9,29.715a1.8,1.8,0,0,1-1.8,1.8H2.7a20.71,20.71,0,0,1,2.08-9ZM3.692,37.819H20.71a1.8,1.8,0,1,1,0,3.6h-1.8a3.6,3.6,0,0,0-3.6,3.6,1.8,1.8,0,0,1-1.8,1.8H9.491a20.44,20.44,0,0,1-5.8-9Zm19.72,14.407a20.71,20.71,0,0,1-11.625-3.6h1.72a3.6,3.6,0,0,0,3.6-3.6,1.8,1.8,0,0,1,1.8-1.8h1.8a3.6,3.6,0,1,0,0-7.2H3.206a21.314,21.314,0,0,1-.423-2.7H8.1a3.6,3.6,0,0,0,3.6-3.6,1.8,1.8,0,0,1,.531-1.27,1.5,1.5,0,0,1,.27-.216,5.4,5.4,0,0,0,7.924-.558,4.457,4.457,0,0,0,5.961,0,5.511,5.511,0,0,0,1.8,1.486,3.692,3.692,0,0,0-.279,1.459,3.6,3.6,0,0,0,3.6,3.6h2.7a1.8,1.8,0,0,1,0,3.6h-3.6a3.6,3.6,0,1,0,0,7.2h8.473A20.71,20.71,0,0,1,23.412,52.226Zm17.109-9h-9.9a1.8,1.8,0,1,1,0-3.6h3.6a3.6,3.6,0,1,0,0-7.2h-2.7a1.8,1.8,0,0,1-1.531-2.7,4.835,4.835,0,0,0,.63,0,5.34,5.34,0,0,0,2.953-.9H43.924a20.277,20.277,0,0,1,.2,2.7A20.512,20.512,0,0,1,40.52,43.222Zm1.558-20.71a20.539,20.539,0,0,1,1.576,4.5H35.28a5.322,5.322,0,0,0,.684-1.909,4.25,4.25,0,0,0,.954.108,4.5,4.5,0,0,0,4.187-2.872,5.4,5.4,0,0,0,.927.171Zm.243-1.8a2.647,2.647,0,0,1-1.378-.4.954.954,0,0,0-1.4.711A2.7,2.7,0,0,1,35.5,23.043a.894.894,0,0,0-1.36.9v.423a3.6,3.6,0,0,1-6.888,1.459.9.9,0,0,0-.774-.54h-.054a.9.9,0,0,0-.774.441,2.7,2.7,0,0,1-4.628,0,.9.9,0,0,0-1.6.1,3.6,3.6,0,0,1-6.807-1.513v-.423a.894.894,0,0,0-1.36-.9A2.7,2.7,0,0,1,7.2,21a.954.954,0,0,0-1.4-.711A2.647,2.647,0,0,1,4.5,20.71a2.7,2.7,0,0,1-.135-5.4.9.9,0,0,0,.612-1.513A1.8,1.8,0,0,1,6.3,10.805a.877.877,0,0,0,.81-1.4A3.548,3.548,0,0,1,6.3,7.2,3.588,3.588,0,0,1,12.786,5.07a.9.9,0,0,0,1.441,0,3.6,3.6,0,0,1,4.727-.9.9.9,0,0,0,1.27-.36,3.6,3.6,0,0,1,6.375,0,.9.9,0,0,0,1.27.36,3.6,3.6,0,0,1,4.727.9.9.9,0,0,0,1.441,0A3.588,3.588,0,0,1,40.52,7.2a3.548,3.548,0,0,1-.738,2.161.912.912,0,0,0,.738,1.441,1.8,1.8,0,0,1,1.288,3.008.9.9,0,0,0,.648,1.495,2.7,2.7,0,0,1-.135,5.4Z"/>
          <path id="Shape-18" data-name="Shape" d="M23.412,5.4a8.1,8.1,0,0,0-4.5,14.839v.468a2.7,2.7,0,0,0,2.7,2.7h3.6a2.7,2.7,0,0,0,2.7-2.7v-.468A8.1,8.1,0,0,0,23.412,5.4Zm3.152,13.561a.9.9,0,0,0-.45.774v.972a.9.9,0,0,1-.9.9h-.9v-.9a.9.9,0,0,0-1.8,0v.9h-.9a.9.9,0,0,1-.9-.9v-.972a.9.9,0,0,0-.45-.774,6.3,6.3,0,1,1,6.3,0Z"/>
          <path id="Shape-19" data-name="Shape" d="M20.611,12.2a.9.9,0,0,0-1.6.81l.9,1.8a.9.9,0,0,0,.8.5.837.837,0,0,0,.405-.1.9.9,0,0,0,.4-1.207Z"/>
          <path id="Shape-20" data-name="Shape" d="M27.419,11.8a.9.9,0,0,0-1.207.4l-.9,1.8a.9.9,0,0,0,.4,1.207.837.837,0,0,0,.405.1.9.9,0,0,0,.8-.5l.9-1.8a.9.9,0,0,0-.4-1.207Z"/>
          <path id="Shape-21" data-name="Shape" d="M24.051,15.569a.9.9,0,0,0-1.279,0l-.9.9a.9.9,0,0,0,1.279,1.279l.261-.27.261.27a.9.9,0,1,0,1.279-1.279Z"/>
        </g>
      </g>
    </g>
  </g>
</svg>
