<svg xmlns="http://www.w3.org/2000/svg" xmlns:xlink="http://www.w3.org/1999/xlink" width="54" height="54" viewBox="0 0 54 54">
  <defs>
    <clipPath id="clip-path">
      <rect id="Rectángulo_34424" data-name="Rectángulo 34424" width="54" height="54" transform="translate(526 10689)" fill="#fff" stroke="#707070" stroke-width="1"/>
    </clipPath>
  </defs>
  <g id="Enmascarar_grupo_111" data-name="Enmascarar grupo 111" transform="translate(-526 -10689)" clip-path="url(#clip-path)">
    <g id="capa-de-ozono" transform="translate(526.997 10689)">
      <path id="Trazado_119286" data-name="Trazado 119286" d="M50.133,27c0-2.714,1.574-5.644.779-8.093-.824-2.538-3.848-3.978-5.385-6.09-1.553-2.134-2-5.448-4.132-7-2.113-1.537-5.4-.947-7.933-1.771C31.013,3.249,28.717.817,26,.817s-5.01,2.433-7.459,3.228c-2.538.824-5.821.234-7.933,1.771-2.134,1.553-2.579,4.868-4.132,7-1.537,2.112-4.561,3.552-5.385,6.09-.8,2.449.779,5.379.779,8.093S.3,32.645,1.094,35.093c.824,2.538,3.848,3.978,5.385,6.09,1.553,2.134,2,5.448,4.132,7,2.112,1.538,5.4.947,7.933,1.771,2.448.8,4.745,3.228,7.459,3.228s5.01-2.433,7.459-3.228c2.538-.824,5.82-.234,7.933-1.771,2.134-1.553,2.579-4.867,4.132-7,1.537-2.113,4.561-3.552,5.385-6.09C51.706,32.645,50.133,29.714,50.133,27Zm0,0" fill="#229aba"/>
      <path id="Trazado_119287" data-name="Trazado 119287" d="M45.827,27.007A19.843,19.843,0,1,1,25.984,7.164,19.842,19.842,0,0,1,45.827,27.007Zm0,0" fill="#49b2a5"/>
      <path id="Trazado_119288" data-name="Trazado 119288" d="M30.609,46.3a19.842,19.842,0,0,1,.017-38.586A19.843,19.843,0,0,1,30.609,46.3Zm0,0" fill="#6fc9c0"/>
      <path id="Trazado_119289" data-name="Trazado 119289" d="M25.726,15.291a21.3,21.3,0,0,1-5.8-.89h0c-2.161-.582-3.633-1.048-4.758.077C10.4,19.248,16.455,32.115,6.427,30.35A19.854,19.854,0,0,1,29.1,7.409c.1.194.207.409.3.638,1.108,2.614,1.543,7.245-3.68,7.245Zm0,0" fill="#2c8c2c"/>
      <path id="Trazado_119290" data-name="Trazado 119290" d="M18.308,42.985a19.522,19.522,0,0,1,1.2,2.776A19.863,19.863,0,0,1,7.227,33.48a19.892,19.892,0,0,1,11.081,9.505Zm0,0" fill="#e6e6e6"/>
      <path id="Trazado_119291" data-name="Trazado 119291" d="M30.609,46.3h0c-.421.1-.849.188-1.282.262a19.929,19.929,0,0,1-2.271.256h0a2.523,2.523,0,0,1-.535-2c.48-2.538,5.253-4.508,5.905-8.424.709-4.259,7.305-2.029,8.321-4.262s-5.582-5.581-3.553-7.611,4.669-2.638,8.346-.86A19.838,19.838,0,0,1,30.609,46.3Zm0,0" fill="#2c8c2c"/>
      <path id="Trazado_119292" data-name="Trazado 119292" d="M30.609,46.3h0a19.745,19.745,0,0,1-4.089-1.478c.48-2.538,5.253-4.508,5.905-8.424.709-4.259,7.305-2.029,8.321-4.262s-5.582-5.581-3.553-7.611,4.669-2.638,8.346-.86A19.838,19.838,0,0,1,30.609,46.3Zm0,0" fill="#3fa543"/>
      <path id="Trazado_119293" data-name="Trazado 119293" d="M25.726,15.291a21.3,21.3,0,0,1-5.8-.89,19.755,19.755,0,0,1,9.475-6.355C30.514,10.661,30.95,15.291,25.726,15.291Zm0,0" fill="#3fa543"/>
      <path id="Trazado_119294" data-name="Trazado 119294" d="M21.725,20.649a3.028,3.028,0,1,0,0,4.281A3.028,3.028,0,0,0,21.725,20.649Zm0,0" fill="#e6e6e6"/>
      <path id="Trazado_119295" data-name="Trazado 119295" d="M21.725,20.649a3.019,3.019,0,0,1,.852,2.6A3.026,3.026,0,0,1,19.129,19.8,3.022,3.022,0,0,1,21.725,20.649Zm0,0" fill="#545e63"/>
      <path id="Trazado_119296" data-name="Trazado 119296" d="M34.524,20.649a3.028,3.028,0,1,0,0,4.282A3.028,3.028,0,0,0,34.524,20.649Zm0,0" fill="#e6e6e6"/>
      <path id="Trazado_119297" data-name="Trazado 119297" d="M34.525,20.649a3.021,3.021,0,0,1,.852,2.6A3.026,3.026,0,0,1,31.928,19.8,3.023,3.023,0,0,1,34.525,20.649Zm0,0" fill="#545e63"/>
      <path id="Trazado_119298" data-name="Trazado 119298" d="M21.574,31.588a.815.815,0,0,0,1.057-.465,3.6,3.6,0,0,1,6.7,0,.817.817,0,0,0,1.522-.593,5.231,5.231,0,0,0-9.749,0,.816.816,0,0,0,.465,1.057Zm0,0"/>
      <path id="Trazado_119299" data-name="Trazado 119299" d="M42.521,17.592a.817.817,0,0,0,1.418-.81,20.572,20.572,0,1,0,1.435,3.083.817.817,0,0,0-1.532.565,18.9,18.9,0,0,1,.587,1.894,7.05,7.05,0,0,0-7.813,1.625,2.171,2.171,0,0,0-.238,2.814,12.692,12.692,0,0,0,1.839,2.292c.86.924,2.037,2.189,1.785,2.744-.231.507-1.535.655-2.686.785-2.187.247-5.182.585-5.7,3.681-.319,1.915-1.8,3.338-3.234,4.714-1.5,1.445-3.173,3.05-2.619,5.051a18.94,18.94,0,0,1-5.619-.915,20.463,20.463,0,0,0-1.115-2.511,20.6,20.6,0,0,0-11.157-9.76c-.163-.506-.307-1.021-.428-1.544.243.019.48.03.707.03a5.1,5.1,0,0,0,3.282-1c1.97-1.564,2.132-4.518,2.3-7.645.159-2.92.325-5.94,2.013-7.628.5-.5.866-.707,3.682.056a22.727,22.727,0,0,0,6.294.995c2.695,0,3.952-1.156,4.532-2.126,1-1.678.712-3.862.189-5.466a19.09,19.09,0,0,1,12.073,9.075Zm-13,24.566c1.549-1.488,3.3-3.175,3.713-5.624.292-1.748,1.88-2.057,4.27-2.327,1.66-.187,3.375-.382,3.989-1.731.7-1.546-.71-3.064-2.076-4.532a11.707,11.707,0,0,1-1.6-1.964c-.324-.591-.166-.749-.04-.875,1.89-1.89,4.134-2.172,7.037-.878A19.041,19.041,0,0,1,27.492,45.974c-.581-1.141.16-2.027,2.024-3.817Zm-11.929,1.21q.24.456.456.928A19.144,19.144,0,0,1,8.7,34.949a18.952,18.952,0,0,1,8.891,8.418Zm11.27-30.223c-.529.883-1.582,1.331-3.131,1.331a21.342,21.342,0,0,1-5.867-.938c-2.068-.56-3.855-1.044-5.264.365-2.13,2.13-2.313,5.466-2.489,8.693-.15,2.75-.293,5.348-1.687,6.455a4.3,4.3,0,0,1-3.28.58A19.016,19.016,0,0,1,28.567,8.159a5.845,5.845,0,0,1,.29,4.985Zm0,0"/>
      <path id="Trazado_119300" data-name="Trazado 119300" d="M23.428,22.79A3.844,3.844,0,1,0,22.3,25.508a3.819,3.819,0,0,0,1.126-2.718Zm-1.665-.358a2.2,2.2,0,0,1-1.821-1.821,2.2,2.2,0,0,1,1.821,1.821Zm-3.742,1.922a2.207,2.207,0,0,1,.325-3.394,3.827,3.827,0,0,0,3.068,3.069,2.18,2.18,0,0,1-.267.325,2.213,2.213,0,0,1-3.127,0Zm0,0"/>
      <path id="Trazado_119301" data-name="Trazado 119301" d="M35.1,25.508a3.848,3.848,0,1,0-2.718,1.124A3.817,3.817,0,0,0,35.1,25.508Zm-.539-3.076a2.2,2.2,0,0,1-1.821-1.821,2.2,2.2,0,0,1,1.821,1.821ZM30.82,24.354a2.206,2.206,0,0,1,.325-3.394,3.828,3.828,0,0,0,3.069,3.069,2.207,2.207,0,0,1-3.394.325Zm0,0"/>
      <path id="Trazado_119302" data-name="Trazado 119302" d="M50.95,27a14.946,14.946,0,0,1,.488-3.159,9.826,9.826,0,0,0,.25-5.186A9.909,9.909,0,0,0,48.355,14.5c-.207-.18-.414-.36-.617-.541a.817.817,0,0,0-1.088,1.218c.208.186.42.37.633.555a8.62,8.62,0,0,1,2.851,3.427,8.558,8.558,0,0,1-.29,4.321A16.136,16.136,0,0,0,49.316,27a16.14,16.14,0,0,0,.529,3.52,8.563,8.563,0,0,1,.29,4.321,8.624,8.624,0,0,1-2.853,3.428A15.4,15.4,0,0,0,44.866,40.7a15.608,15.608,0,0,0-1.594,3.08,8.644,8.644,0,0,1-2.358,3.741,8.613,8.613,0,0,1-4.258,1.082,15.929,15.929,0,0,0-3.447.572A15.089,15.089,0,0,0,30.2,50.7,8.661,8.661,0,0,1,26,52.367a8.661,8.661,0,0,1-4.2-1.668,15.144,15.144,0,0,0-3.01-1.521,15.946,15.946,0,0,0-3.446-.571,8.61,8.61,0,0,1-4.258-1.082,7.465,7.465,0,0,1-2.1-3.153.817.817,0,0,0-1.5.653,8.927,8.927,0,0,0,2.64,3.82,9.892,9.892,0,0,0,5.07,1.388,14.516,14.516,0,0,1,3.091.5A13.725,13.725,0,0,1,20.964,52.1,9.966,9.966,0,0,0,26,54a9.962,9.962,0,0,0,5.037-1.9,13.748,13.748,0,0,1,2.673-1.367,14.533,14.533,0,0,1,3.092-.5,9.888,9.888,0,0,0,5.07-1.388,9.922,9.922,0,0,0,2.9-4.419,14.2,14.2,0,0,1,1.413-2.761A14,14,0,0,1,48.353,39.5a9.911,9.911,0,0,0,3.336-4.157,9.823,9.823,0,0,0-.25-5.185A14.951,14.951,0,0,1,50.95,27Zm0,0"/>
      <path id="Trazado_119303" data-name="Trazado 119303" d="M7.555,41.339c-.136-.229-.276-.443-.416-.635a15.418,15.418,0,0,0-2.415-2.434A8.626,8.626,0,0,1,1.87,34.841a8.552,8.552,0,0,1,.29-4.32A16.148,16.148,0,0,0,2.689,27a16.141,16.141,0,0,0-.529-3.52,8.562,8.562,0,0,1-.29-4.321,8.626,8.626,0,0,1,2.855-3.429A15.42,15.42,0,0,0,7.139,13.3a15.651,15.651,0,0,0,1.594-3.08,8.642,8.642,0,0,1,2.359-3.74,8.616,8.616,0,0,1,4.257-1.083A15.887,15.887,0,0,0,18.8,4.822,15.123,15.123,0,0,0,21.808,3.3,8.655,8.655,0,0,1,26,1.633,8.653,8.653,0,0,1,30.2,3.3,15.112,15.112,0,0,0,33.21,4.822a15.112,15.112,0,0,0,3.319.56.817.817,0,0,0,.15-1.626,14.161,14.161,0,0,1-2.965-.487A13.716,13.716,0,0,1,31.039,1.9,9.955,9.955,0,0,0,26,0a9.956,9.956,0,0,0-5.037,1.9,13.724,13.724,0,0,1-2.674,1.367,14.517,14.517,0,0,1-3.093.5A9.886,9.886,0,0,0,10.13,5.156a9.919,9.919,0,0,0-2.9,4.419,14.224,14.224,0,0,1-1.413,2.761A14.025,14.025,0,0,1,3.653,14.5,9.91,9.91,0,0,0,.316,18.655,9.819,9.819,0,0,0,.568,23.84,14.959,14.959,0,0,1,1.056,27a14.933,14.933,0,0,1-.489,3.161,9.816,9.816,0,0,0-.25,5.184A9.913,9.913,0,0,0,3.652,39.5a14.017,14.017,0,0,1,2.167,2.164c.11.151.221.321.33.5a.817.817,0,0,0,1.406-.831Zm0,0"/>
      <path id="Trazado_119304" data-name="Trazado 119304" d="M39.315,6.83a.815.815,0,0,0,1.047-.487L42,1.862A.817.817,0,0,0,40.462,1.3L38.828,5.784a.816.816,0,0,0,.487,1.047Zm0,0"/>
      <path id="Trazado_119305" data-name="Trazado 119305" d="M41.566,9.035a.816.816,0,0,0,1.154.056l6.649-6.036a.817.817,0,1,0-1.1-1.209L41.621,7.881a.816.816,0,0,0-.056,1.154Zm0,0"/>
      <path id="Trazado_119306" data-name="Trazado 119306" d="M44.54,10.637a.816.816,0,1,0,.658,1.494L50.023,10a.817.817,0,0,0-.659-1.495Zm0,0"/>
    </g>
  </g>
</svg>
