<svg xmlns="http://www.w3.org/2000/svg" xmlns:xlink="http://www.w3.org/1999/xlink" width="54" height="54" viewBox="0 0 54 54">
  <defs>
    <clipPath id="clip-path">
      <rect id="Rectángulo_34433" data-name="Rectángulo 34433" width="54" height="54" transform="translate(526 10812)" fill="#fff" stroke="#707070" stroke-width="1"/>
    </clipPath>
  </defs>
  <g id="Enmascarar_grupo_115" data-name="Enmascarar grupo 115" transform="translate(-526 -10812)" clip-path="url(#clip-path)">
    <g id="solar" transform="translate(526 10812)">
      <g id="Grupo_84915" data-name="Grupo 84915">
        <circle id="Elipse_4955" data-name="Elipse 4955" cx="15.82" cy="15.82" r="15.82" transform="translate(21.302 21.305)" fill="#72d8ff"/>
        <g id="Grupo_84914" data-name="Grupo 84914">
          <path id="Trazado_119368" data-name="Trazado 119368" d="M48.987,43.058a4.793,4.793,0,0,1,2.512.676,15.873,15.873,0,0,1-4.819,6,6.454,6.454,0,0,1-1.648-3.708C45.032,44.385,46.8,43.058,48.987,43.058Z" fill="#a0e892"/>
          <path id="Trazado_119369" data-name="Trazado 119369" d="M37.122,21.3A15.825,15.825,0,0,1,51.6,30.744c-5.47,2.713-6.391,10.518-9.056,10.518-2.173,0-6.211-6.857-6.211-8.658,0-3.267,6.732-.733,6.732-3.562,0-2.543-9.982-2.009-7.581-7.655a16.111,16.111,0,0,1,1.635-.083Z" fill="#a0e892"/>
          <path id="Trazado_119370" data-name="Trazado 119370" d="M29.212,43.058c1.678,4.339,6-1.361,7.518,9.882A15.827,15.827,0,0,1,22.816,30.361c6.843,2.456,8.679,4.354,8.679,6.059C31.5,38.684,28.265,40.609,29.212,43.058Z" fill="#a0e892"/>
        </g>
        <circle id="Elipse_4956" data-name="Elipse 4956" cx="6.328" cy="6.328" r="6.328" transform="translate(2.95 4.219)" fill="#ffda8f"/>
      </g>
      <g id="Grupo_84916" data-name="Grupo 84916">
        <path id="Trazado_119371" data-name="Trazado 119371" d="M11.317,27.035a1.055,1.055,0,0,0,0,1.492l3.164,3.164A1.055,1.055,0,0,0,15.973,30.2l-3.164-3.164a1.055,1.055,0,0,0-1.492,0Z"/>
        <path id="Trazado_119372" data-name="Trazado 119372" d="M8.224,20.039a1.055,1.055,0,0,0,2.109,0V17.852a7.421,7.421,0,0,0,4.745-2.74l1.893,1.093a1.055,1.055,0,0,0,1.055-1.827l-1.892-1.093a7.383,7.383,0,0,0,0-5.48l1.892-1.092a1.055,1.055,0,1,0-1.054-1.827L15.078,5.98a7.423,7.423,0,0,0-4.745-2.739V1.055a1.055,1.055,0,0,0-2.109,0V3.241A7.424,7.424,0,0,0,3.479,5.98L1.585,4.887A1.055,1.055,0,0,0,.531,6.714L2.423,7.806a7.383,7.383,0,0,0,0,5.48L.531,14.38a1.055,1.055,0,0,0,1.055,1.827l1.893-1.093a7.421,7.421,0,0,0,4.745,2.74ZM4,10.547A5.273,5.273,0,1,1,9.278,15.82,5.272,5.272,0,0,1,4,10.547Z"/>
        <path id="Trazado_119373" data-name="Trazado 119373" d="M27.137,11.214a1.055,1.055,0,0,0,0,1.492L30.3,15.87a1.055,1.055,0,0,0,1.492-1.492l-3.164-3.164a1.055,1.055,0,0,0-1.492,0Z"/>
        <circle id="Elipse_4957" data-name="Elipse 4957" cx="1.055" cy="1.055" r="1.055" transform="translate(24.466 46.828)"/>
        <path id="Trazado_119374" data-name="Trazado 119374" d="M39.5,20.419l9.225-9.225v3.782a1.055,1.055,0,0,0,2.109,0V8.648a1.055,1.055,0,0,0-1.055-1.055H43.45a1.055,1.055,0,0,0,0,2.109h3.782l-10.11,10.11L34.7,17.395a1.055,1.055,0,0,0-1.492,1.492l1.531,1.531A16.893,16.893,0,0,0,20.413,34.744l-1.529-1.529a1.055,1.055,0,0,0-1.492,1.492l2.418,2.418L9.7,47.235V43.453a1.055,1.055,0,1,0-2.109,0v6.328a1.055,1.055,0,0,0,1.055,1.055h6.328a1.055,1.055,0,1,0,0-2.109H11.192l9.221-9.221A16.676,16.676,0,0,0,21.9,44.417a1.055,1.055,0,1,0,1.9-.913,14.63,14.63,0,0,1-1.445-6.379h0A14.643,14.643,0,0,1,23.387,31.7c5.8,2.19,7.054,3.77,7.054,4.725A4.821,4.821,0,0,1,29.4,38.659c-.849,1.285-1.905,2.883-1.172,4.78a4.039,4.039,0,0,0,3.5,2.724,3.186,3.186,0,0,1,2.119,1.059A10.353,10.353,0,0,1,35.484,51.8a14.752,14.752,0,0,1-5.727-1.872A1.055,1.055,0,1,0,28.7,51.753,16.875,16.875,0,1,0,39.5,20.419Zm-3.243,1.966c.289-.017.579-.026.867-.026a14.78,14.78,0,0,1,13.1,7.954c-2.731,1.738-4.255,4.574-5.5,6.9-.717,1.335-1.609,3-2.175,3-.312-.006-1.468-.795-3.052-3.2A13.205,13.205,0,0,1,37.391,32.6c0-.276.044-.424.45-.583a8.342,8.342,0,0,1,2.122-.324,9.685,9.685,0,0,0,2.48-.4,2.307,2.307,0,0,0,1.68-2.259c0-1.725-1.877-2.388-3.864-3.091-1.633-.578-3.485-1.233-3.964-2.322a1.867,1.867,0,0,1-.039-1.244ZM46.866,48.217a4.86,4.86,0,0,1-.779-2.193c0-1.036,1.328-1.911,2.9-1.911a4.1,4.1,0,0,1,1.067.14A14.883,14.883,0,0,1,46.866,48.217Zm4.082-5.9A6.108,6.108,0,0,0,48.987,42c-2.762,0-5.01,1.8-5.01,4.02A7.007,7.007,0,0,0,45.184,49.5a14.6,14.6,0,0,1-7.545,2.384c-.462-2.863-1.158-4.785-2.17-6.006A5.174,5.174,0,0,0,32.157,44.1c-1.023-.214-1.536-.321-1.961-1.42-.324-.838.155-1.631.964-2.856a6.377,6.377,0,0,0,1.39-3.4c0-2.429-2.481-4.439-8.242-6.632a14.876,14.876,0,0,1,9.767-7.111,3.687,3.687,0,0,0,.29,1.8c.847,1.925,3.155,2.741,5.192,3.461a8,8,0,0,1,2.458,1.133c0,.1-.026.149-.289.244a8.436,8.436,0,0,1-1.92.275,9.661,9.661,0,0,0-2.732.463A2.616,2.616,0,0,0,35.282,32.6c0,1.463,1.55,4.2,2.465,5.586,1.809,2.738,3.424,4.127,4.8,4.127,1.827,0,2.849-1.9,4.033-4.109,1.078-2.007,2.385-4.441,4.5-5.925a14.826,14.826,0,0,1-.128,10.034Z"/>
      </g>
    </g>
  </g>
</svg>
