<svg xmlns="http://www.w3.org/2000/svg" xmlns:xlink="http://www.w3.org/1999/xlink" width="85" height="85" viewBox="0 0 85 85">
  <defs>
    <clipPath id="clip-path">
      <rect id="Rectángulo_34609" data-name="Rectángulo 34609" width="85" height="85" transform="translate(600 11966)" fill="#fff" stroke="#707070" stroke-width="1"/>
    </clipPath>
  </defs>
  <g id="Grupo_86295" data-name="Grupo 86295" transform="translate(-600 -12071)">
    <circle id="Elipse_4913" data-name="Elipse 4913" cx="42.5" cy="42.5" r="42.5" transform="translate(600 12071)" fill="#ffa686"/>
    <g id="Enmascarar_grupo_139" data-name="Enmascarar grupo 139" transform="translate(0 105)" clip-path="url(#clip-path)">
      <g id="pina" transform="translate(600 11966)">
        <g id="Grupo_85367" data-name="Grupo 85367">
          <path id="Trazado_120942" data-name="Trazado 120942" d="M28.451,16.838s-3.243-9.306.4-15.2a.835.835,0,0,1,.816-.386c1.757.22,7.424,1.638,10.843,10.755Z" fill="#68ca44"/>
          <path id="Trazado_120943" data-name="Trazado 120943" d="M56.882,16.838s3.243-9.306-.4-15.2a.835.835,0,0,0-.816-.386c-1.757.22-7.424,1.638-10.843,10.755Z" fill="#68ca44"/>
          <path id="Trazado_120944" data-name="Trazado 120944" d="M40.51,12.006,28.451,16.838a27.621,27.621,0,0,1-1.328-8.374,13.315,13.315,0,0,1,1.729-6.828.828.828,0,0,1,.806-.386A10.988,10.988,0,0,1,35.737,4.36a19.9,19.9,0,0,1,4.773,7.646Z" fill="#68ca44"/>
          <path id="Trazado_120945" data-name="Trazado 120945" d="M56.881,16.838,44.823,12.006a20.228,20.228,0,0,1,4.542-7.423,11.1,11.1,0,0,1,6.307-3.334.829.829,0,0,1,.808.385,13.255,13.255,0,0,1,1.728,6.754,27.54,27.54,0,0,1-1.327,8.449Z" fill="#68ca44"/>
        </g>
        <path id="Trazado_120946" data-name="Trazado 120946" d="M40.51,12.006,28.451,16.838a27.621,27.621,0,0,1-1.328-8.374,17.539,17.539,0,0,1,5.428,2.284.932.932,0,0,0,1.425-.642A21.413,21.413,0,0,1,35.737,4.36,19.9,19.9,0,0,1,40.51,12.006Z" fill="#4fc123"/>
        <path id="Trazado_120947" data-name="Trazado 120947" d="M56.881,16.838,44.823,12.006a20.228,20.228,0,0,1,4.542-7.423,21.376,21.376,0,0,1,1.659,5.523.931.931,0,0,0,1.425.64,17.54,17.54,0,0,1,5.759-2.357,27.539,27.539,0,0,1-1.327,8.449Z" fill="#4fc123"/>
        <path id="Trazado_120948" data-name="Trazado 120948" d="M49.193,12.6a16.7,16.7,0,0,0-6.1-9.836.975.975,0,0,0-1.19,0,16.7,16.7,0,0,0-6.1,9.836,1.363,1.363,0,0,1-2,.9,16.624,16.624,0,0,0-11.925-1.27.982.982,0,0,0-.273,1.8A18.142,18.142,0,0,1,30.2,25.29H54.8a18.143,18.143,0,0,1,8.591-11.257.982.982,0,0,0-.273-1.8A16.624,16.624,0,0,0,51.2,13.506a1.363,1.363,0,0,1-2-.9Z" fill="#47a920"/>
        <path id="Trazado_120949" data-name="Trazado 120949" d="M56.417,21.174A16.282,16.282,0,0,0,54.893,24.9H30.107a16.279,16.279,0,0,0-1.525-3.727A17.215,17.215,0,0,1,31.7,22.525,1.694,1.694,0,0,0,34.185,21.4c.633-3.046,2.437-6.97,7.575-10.946a1.212,1.212,0,0,1,1.48,0c5.137,3.977,6.941,7.9,7.575,10.946A1.694,1.694,0,0,0,53.3,22.525,17.214,17.214,0,0,1,56.417,21.174Z" fill="#409617"/>
        <path id="Trazado_120950" data-name="Trazado 120950" d="M49.193,23.965a16.7,16.7,0,0,0-6.1-9.836.975.975,0,0,0-1.19,0,16.7,16.7,0,0,0-6.1,9.836,1.363,1.363,0,0,1-2,.9A16.624,16.624,0,0,0,21.879,23.6a.982.982,0,0,0-.273,1.8A18.142,18.142,0,0,1,30.2,36.654H54.8A18.143,18.143,0,0,1,63.394,25.4a.982.982,0,0,0-.273-1.8A16.624,16.624,0,0,0,51.2,24.87,1.363,1.363,0,0,1,49.193,23.965Z" fill="#68ca44"/>
        <path id="Trazado_120951" data-name="Trazado 120951" d="M57.471,30.848A16.371,16.371,0,0,0,54.8,36.654H30.2a16.371,16.371,0,0,0-2.668-5.806,21.556,21.556,0,0,1,12.29-3.841h5.363a21.557,21.557,0,0,1,12.29,3.841Z" fill="#4fc123"/>
        <path id="Trazado_120952" data-name="Trazado 120952" d="M44.99,83.756H40.01A20.214,20.214,0,0,1,19.855,63.6V51.208A20.214,20.214,0,0,1,40.01,31.053h4.98A20.214,20.214,0,0,1,65.145,51.208V63.6A20.214,20.214,0,0,1,44.99,83.756Z" fill="#fedf30"/>
        <path id="Trazado_120953" data-name="Trazado 120953" d="M65.144,51.207V63.6A20.213,20.213,0,0,1,44.99,83.756H40.011a19.946,19.946,0,0,1-9.105-2.189,19.869,19.869,0,0,0,4.868.6h4.979A20.213,20.213,0,0,0,60.906,62.013V49.618A20.207,20.207,0,0,0,49.857,31.653,20.231,20.231,0,0,1,65.144,51.207Z" fill="#f4d01e"/>
        <path id="Trazado_120954" data-name="Trazado 120954" d="M65.086,49.657a5.234,5.234,0,0,1-3.741,1.481c-4.67,0-4.67-4.785-9.344-4.785s-4.67,4.785-9.344,4.785-4.67-4.785-9.342-4.785-4.672,4.785-9.342,4.785a5.4,5.4,0,0,1-4.034-1.755,19.89,19.89,0,0,1,2.087-7.242,5.319,5.319,0,0,0,1.947.341c4.67,0,4.67-4.785,9.342-4.785s4.672,4.785,9.342,4.785S47.331,37.7,52,37.7s4.674,4.785,9.344,4.785a5.468,5.468,0,0,0,1.677-.245A19.931,19.931,0,0,1,65.086,49.657Z" fill="#fac600"/>
        <path id="Trazado_120955" data-name="Trazado 120955" d="M65.144,58.262V63.6a20.013,20.013,0,0,1-.325,3.6,5.151,5.151,0,0,1-3.475,1.252c-4.67,0-4.67-4.785-9.344-4.785s-4.67,4.785-9.344,4.785-4.67-4.785-9.342-4.785-4.672,4.785-9.342,4.785a5.29,5.29,0,0,1-3.849-1.58,20.025,20.025,0,0,1-.268-3.273V57.962a5.461,5.461,0,0,0,4.117,1.833c4.67,0,4.67-4.783,9.342-4.783s4.672,4.783,9.342,4.783S47.331,55.012,52,55.012s4.674,4.783,9.344,4.783A5.267,5.267,0,0,0,65.144,58.262Z" fill="#fac600"/>
        <path id="Trazado_120956" data-name="Trazado 120956" d="M60.04,76.971a20.119,20.119,0,0,1-15.05,6.785H40.011a20.119,20.119,0,0,1-15-6.731c3.664-.648,4.006-4.7,8.305-4.7,4.672,0,4.672,4.783,9.342,4.783S47.331,72.329,52,72.329c4.193,0,4.624,3.849,8.039,4.642Z" fill="#fac600"/>
        <path id="Trazado_120957" data-name="Trazado 120957" d="M65.084,49.659a5.234,5.234,0,0,1-3.74,1.48c-.15,0-.3-.005-.437-.015V49.618a19.968,19.968,0,0,0-1.434-7.447,5.368,5.368,0,0,0,1.871.31,5.48,5.48,0,0,0,1.677-.246,20.39,20.39,0,0,1,.971,2.284,19.321,19.321,0,0,1,.983,4.083c.035.263.064.567.088.8,0,.034.007.068.008.1.005.049.01.1.012.15Z" fill="#e8b800"/>
        <path id="Trazado_120958" data-name="Trazado 120958" d="M65.144,58.262V63.6a18.71,18.71,0,0,1-.326,3.6,5.149,5.149,0,0,1-3.475,1.252,5.591,5.591,0,0,1-1.441-.177,19.96,19.96,0,0,0,1-6.266V59.78c.14.01.287.015.437.015A5.266,5.266,0,0,0,65.144,58.262Z" fill="#e8b800"/>
        <path id="Trazado_120959" data-name="Trazado 120959" d="M60.04,76.971c-.115.13-.233.258-.351.385s-.24.253-.363.376c-.247.251-.49.485-.749.724a20.883,20.883,0,0,1-3,2.283,18.467,18.467,0,0,1-2.45,1.291,21.863,21.863,0,0,1-4.182,1.333c-.083.017-.164.034-.246.047a19.354,19.354,0,0,1-2.677.319c-.153.008-.309.015-.464.019-.039,0-.076,0-.113,0-.152,0-.3.007-.456.007H40.011c-.1,0-.2,0-.305,0a19.426,19.426,0,0,1-5.579-.879c-.406-.127-.834-.276-1.212-.417-.1-.037-.2-.076-.3-.115-.157-.062-.312-.128-.467-.194q-.5-.213-.985-.452c-.086-.042-.17-.084-.255-.13a19.88,19.88,0,0,0,4.865.6h4.978A20.141,20.141,0,0,0,56.5,74.548a7.2,7.2,0,0,0,3.535,2.423Z" fill="#e8b800"/>
        <path id="Trazado_120960" data-name="Trazado 120960" d="M66.388,58.262V51.207a20.933,20.933,0,0,0-2.255-9.531,21.564,21.564,0,0,0-6.9-7.994,17.651,17.651,0,0,1,6.8-7.216,2.226,2.226,0,0,0-.615-4.076,20.538,20.538,0,0,0-5.931-.553A17.662,17.662,0,0,1,64.029,15.1a2.227,2.227,0,0,0-.615-4.076,21,21,0,0,0-4.023-.567c.049-.677.073-1.379.061-2.092a1.244,1.244,0,0,0-1.243-1.223h-.021a1.244,1.244,0,0,0-1.223,1.265,20.976,20.976,0,0,1-.076,2.109,15.805,15.805,0,0,0-6.3,1.9.126.126,0,0,1-.119.006.1.1,0,0,1-.062-.077,18.564,18.564,0,0,0-1.8-4.945c2.68-3.741,5.647-4.659,6.955-4.881.121.211.234.429.336.647l.058.128a1.244,1.244,0,0,0,2.265-1.03l-.063-.139A11.113,11.113,0,0,0,57.539.983,2.084,2.084,0,0,0,55.51.016,11.663,11.663,0,0,0,50.128,2.29,15.762,15.762,0,0,0,47.18,5.162a17.509,17.509,0,0,0-3.323-3.38,2.216,2.216,0,0,0-2.713,0,17.518,17.518,0,0,0-3.162,3.165A15.624,15.624,0,0,0,35.2,2.291,11.665,11.665,0,0,0,29.822.016a2.085,2.085,0,0,0-2.029.966,15.935,15.935,0,0,0-1.857,9.466,20.922,20.922,0,0,0-4.351.579,2.226,2.226,0,0,0-.614,4.076,17.668,17.668,0,0,1,6.546,6.735,20.534,20.534,0,0,0-5.932.553,2.226,2.226,0,0,0-.614,4.076,17.651,17.651,0,0,1,6.8,7.217,21.582,21.582,0,0,0-6.854,7.893q-.425.835-.772,1.7c-.028.069-.056.138-.083.208a21.009,21.009,0,0,0-1.248,4.784,21.429,21.429,0,0,0-.2,2.94V63.6a21.479,21.479,0,0,0,.285,3.478,21.245,21.245,0,0,0,1.055,3.959,1.244,1.244,0,0,0,2.331-.87c-.091-.245-.177-.492-.258-.741a6.786,6.786,0,0,0,1.948.272c2.859,0,4.357-1.534,5.56-2.767,1.1-1.127,1.97-2.018,3.782-2.018S36,65.8,37.1,66.932c1.2,1.233,2.7,2.767,5.56,2.767s4.36-1.535,5.564-2.768c1.1-1.127,1.969-2.017,3.78-2.017s2.683.891,3.784,2.018c1.2,1.233,2.7,2.767,5.56,2.767a6.939,6.939,0,0,0,1.6-.178,19,19,0,0,1-3.307,6,7.24,7.24,0,0,1-2.069-1.67c-1.2-1.233-2.7-2.768-5.565-2.768s-4.356,1.533-5.56,2.766c-1.1,1.127-1.97,2.017-3.784,2.017s-2.68-.89-3.78-2.016c-1.2-1.233-2.7-2.767-5.562-2.767s-4.359,1.534-5.563,2.767a6.566,6.566,0,0,1-2.308,1.77c-.186-.224-.369-.452-.545-.686a1.244,1.244,0,1,0-1.987,1.5A21.533,21.533,0,0,0,40.01,85h4.979a21.382,21.382,0,0,0,13.773-5.051,21.6,21.6,0,0,0,2.183-2.127c.015-.016.031-.033.045-.05a21.566,21.566,0,0,0,5.133-10.816,20.737,20.737,0,0,0,.265-3.354s0-5.339,0-5.339ZM21.1,51.751a6.432,6.432,0,0,0,2.873.631c2.859,0,4.357-1.534,5.56-2.767,1.1-1.127,1.97-2.018,3.782-2.018a4.376,4.376,0,0,1,1.154.142,1.244,1.244,0,1,0,.65-2.4,6.913,6.913,0,0,0-1.8-.229c-2.86,0-4.358,1.535-5.562,2.768-1.1,1.127-1.969,2.017-3.78,2.017a3.931,3.931,0,0,1-2.729-1.008l.01-.079c.024-.187.05-.374.079-.56,0-.019.005-.038.008-.056.032-.2.068-.4.107-.6q.013-.069.028-.139c.04-.2.083-.4.13-.6l0-.01c.046-.194.1-.387.149-.58l.038-.138c.054-.193.111-.384.171-.575l.023-.071q.083-.26.175-.518l.046-.13q.1-.281.212-.559l.042-.1q.1-.245.206-.488l.033-.075a7.115,7.115,0,0,0,1.271.109c2.859,0,4.357-1.534,5.56-2.767,1.1-1.127,1.97-2.018,3.782-2.018s2.681.89,3.782,2.018c1.2,1.233,2.7,2.767,5.56,2.767s4.36-1.535,5.564-2.768c1.1-1.127,1.969-2.017,3.78-2.017s2.683.891,3.784,2.018c1.2,1.233,2.7,2.767,5.56,2.767a7.338,7.338,0,0,0,.974-.063l.021.048q.116.265.223.534a18.685,18.685,0,0,1,1.213,4.792c0,.027.006.054.009.081a3.83,3.83,0,0,1-2.44.777c-1.811,0-2.68-.89-3.78-2.017-1.2-1.233-2.7-2.768-5.564-2.768s-4.357,1.534-5.56,2.767c-1.1,1.128-1.97,2.018-3.784,2.018a3.845,3.845,0,0,1-2.524-.842,1.244,1.244,0,0,0-1.515,1.973,6.315,6.315,0,0,0,4.039,1.357c2.861,0,4.36-1.535,5.564-2.768C49.321,48.488,50.19,47.6,52,47.6s2.683.891,3.784,2.018c1.2,1.233,2.7,2.766,5.56,2.766A6.562,6.562,0,0,0,63.9,51.9v5.789a3.867,3.867,0,0,1-2.556.865c-1.811,0-2.68-.89-3.78-2.016-1.2-1.233-2.7-2.767-5.564-2.767s-4.356,1.533-5.56,2.766c-1.1,1.127-1.97,2.017-3.784,2.017s-2.68-.89-3.78-2.016c-1.2-1.233-2.7-2.767-5.562-2.767s-4.358,1.534-5.562,2.767c-1.1,1.127-1.969,2.016-3.78,2.016a3.971,3.971,0,0,1-2.873-1.13v-5.67ZM29.771,2.523c1.277.217,4.137,1.1,6.765,4.619a18.561,18.561,0,0,0-1.948,5.207.1.1,0,0,1-.061.077.126.126,0,0,1-.119-.006,15.719,15.719,0,0,0-5.961-1.867,13.993,13.993,0,0,1,1.324-8.029ZM22.8,13.3a15.253,15.253,0,0,1,10.4,1.288,2.629,2.629,0,0,0,2.364.1,2.572,2.572,0,0,0,1.463-1.833A15.562,15.562,0,0,1,42.5,3.88a15.564,15.564,0,0,1,5.475,8.975,2.573,2.573,0,0,0,1.463,1.833,2.628,2.628,0,0,0,2.363-.1A15.251,15.251,0,0,1,62.2,13.3a19.892,19.892,0,0,0-7.714,8.969,15.272,15.272,0,0,0-3.9,1.509.126.126,0,0,1-.119.006.1.1,0,0,1-.062-.077h0a18.044,18.044,0,0,0-6.554-10.566,2.216,2.216,0,0,0-2.713,0,18.044,18.044,0,0,0-6.555,10.566.1.1,0,0,1-.061.077.126.126,0,0,1-.119-.006,15.275,15.275,0,0,0-3.9-1.508A19.889,19.889,0,0,0,22.8,13.3Zm0,11.364a15.251,15.251,0,0,1,10.4,1.288,2.629,2.629,0,0,0,2.364.1,2.572,2.572,0,0,0,1.463-1.833A15.564,15.564,0,0,1,42.5,15.244a15.564,15.564,0,0,1,5.475,8.975h0a2.572,2.572,0,0,0,1.463,1.833,2.629,2.629,0,0,0,2.363-.1,15.252,15.252,0,0,1,10.4-1.288,19.986,19.986,0,0,0-7.109,7.692,21.257,21.257,0,0,0-10.1-2.551H40.01a21.26,21.26,0,0,0-10.1,2.552A19.981,19.981,0,0,0,22.8,24.668Zm7.2,10.52A18.782,18.782,0,0,1,40.01,32.3h4.979a18.782,18.782,0,0,1,10.059,2.918,19.1,19.1,0,0,1,5.98,6.013c-1.6-.1-2.43-.948-3.464-2.007-1.2-1.233-2.7-2.768-5.564-2.768s-4.357,1.534-5.56,2.767c-1.1,1.128-1.97,2.018-3.784,2.018s-2.68-.89-3.78-2.017c-1.2-1.233-2.7-2.768-5.562-2.768s-4.358,1.535-5.562,2.768c-1.1,1.127-1.969,2.017-3.78,2.017h-.007a19.113,19.113,0,0,1,6.027-6.049ZM57.564,65.195c-1.2-1.233-2.7-2.768-5.564-2.768s-4.357,1.534-5.56,2.767c-1.1,1.128-1.97,2.018-3.784,2.018s-2.68-.89-3.78-2.017c-1.2-1.233-2.7-2.768-5.562-2.768s-4.358,1.535-5.562,2.768c-1.1,1.127-1.969,2.017-3.78,2.017a3.908,3.908,0,0,1-2.684-.969c-.009-.064-.019-.127-.028-.191q-.018-.14-.035-.281c-.017-.15-.033-.3-.046-.451-.008-.091-.017-.182-.024-.273-.013-.163-.022-.327-.03-.49,0-.078-.009-.155-.012-.233-.009-.241-.015-.482-.015-.722v-3.2a6.444,6.444,0,0,0,2.873.632c2.859,0,4.357-1.534,5.56-2.766,1.1-1.127,1.97-2.017,3.782-2.017s2.682.89,3.782,2.017c1.2,1.232,2.7,2.766,5.56,2.766s4.36-1.534,5.564-2.767c1.1-1.126,1.969-2.016,3.78-2.016s2.683.89,3.784,2.017c1.2,1.232,2.7,2.766,5.56,2.766a6.569,6.569,0,0,0,2.556-.485V63.6c0,.222-.005.444-.013.665,0,.036,0,.071,0,.107q-.013.318-.037.634c0,.041-.006.081-.01.122-.017.213-.037.425-.062.637,0,.027-.007.054-.01.082q-.036.3-.083.607c0,.019-.005.038-.008.058a3.877,3.877,0,0,1-2.33.7C59.534,67.211,58.665,66.321,57.564,65.195ZM44.99,82.512H40.011a18.993,18.993,0,0,1-12.763-5,10.746,10.746,0,0,0,2.285-1.925c1.1-1.127,1.97-2.017,3.782-2.017S36,74.463,37.1,75.59c1.2,1.232,2.7,2.766,5.56,2.766s4.36-1.534,5.564-2.767c1.1-1.126,1.969-2.016,3.78-2.016s2.684.89,3.784,2.018a11.388,11.388,0,0,0,2.1,1.81c-.236.221-.476.438-.724.647A18.892,18.892,0,0,1,44.99,82.512Z"/>
      </g>
    </g>
  </g>
</svg>
