<svg xmlns="http://www.w3.org/2000/svg" xmlns:xlink="http://www.w3.org/1999/xlink" width="190" height="166" viewBox="0 0 190 166">
  <defs>
    <clipPath id="clip-path">
      <rect id="Imagen_16" data-name="Imagen 16" width="190" height="166" rx="19" transform="translate(915 5949)" fill="#01f6ff"/>
    </clipPath>
  </defs>
  <g id="Enmascarar_grupo_152" data-name="Enmascarar grupo 152" transform="translate(-915 -5949)" clip-path="url(#clip-path)">
    <g id="tierra_1_" data-name="tierra (1)" transform="translate(927 5949)">
      <path id="Trazado_121522" data-name="Trazado 121522" d="M83,7.132a79.447,79.447,0,0,0-32.625,151.88h65.249A79.447,79.447,0,0,0,83,7.132Z" fill="#1d2e79"/>
      <path id="Trazado_121523" data-name="Trazado 121523" d="M70.5,105.854a11.674,11.674,0,0,0,8.812.229,2.74,2.74,0,0,0,1.571-3.6,11.711,11.711,0,0,0-14.968-6.539,2.74,2.74,0,0,0-1.571,3.6A11.674,11.674,0,0,0,70.5,105.854Z" fill="#94dc79"/>
      <path id="Trazado_121524" data-name="Trazado 121524" d="M69.6,7.8c.542,2.064,2.278,3.675,5.157,4.788,2.514.972,8.223,6.808,21.148,29.092,7.373,12.714,13.828,25.2,14.519,26.537a7.544,7.544,0,0,0,2.011,5.5c1.536,1.512,3.83,2.159,6.815,1.932A46.527,46.527,0,0,0,71.1,1.538C70.381,2.591,68.91,5.162,69.6,7.8Z" fill="#fef156"/>
      <path id="Trazado_121525" data-name="Trazado 121525" d="M110.921,68.114S84.009,15.644,74.936,12.136C65.893,8.64,71.8,1.4,71.843,1.35a46.516,46.516,0,1,0,47.829,73.774c-9.453.985-8.751-7.01-8.751-7.01Z" fill="#ffd402"/>
      <path id="Trazado_121526" data-name="Trazado 121526" d="M90.934,113.995c-.142-.132-.288-.26-.437-.385l-.017.123a5.628,5.628,0,0,0-2.054,3.687,6.123,6.123,0,0,0,2.165,4.787,1.471,1.471,0,0,1,.115.132h23.64c0-.207-.011-.415-.025-.624a11.663,11.663,0,0,0-19.536-7.753,2.835,2.835,0,0,1-3.851.033Z" fill="#94dc79"/>
      <path id="Trazado_121527" data-name="Trazado 121527" d="M90.934,121.862c-4.584-4.584,0-7.868,0-7.868a11.656,11.656,0,0,0-15.869,0,2.833,2.833,0,0,1-3.85-.033,11.663,11.663,0,0,0-19.536,7.753c-.015.209-.022.417-.025.624H91.285a2.067,2.067,0,0,0-.351-.476Z" fill="#47cb8f"/>
      <g id="Grupo_85638" data-name="Grupo 85638">
        <path id="Trazado_121528" data-name="Trazado 121528" d="M83,126.936a2.594,2.594,0,0,1-2.594-2.594V79.852a2.594,2.594,0,0,1,5.188,0v44.49A2.594,2.594,0,0,1,83,126.936Z" fill="#47cb8f"/>
      </g>
      <path id="Trazado_121529" data-name="Trazado 121529" d="M91.258,102.216a6.884,6.884,0,0,1-5.2.135,1.616,1.616,0,0,1-.927-2.121,6.906,6.906,0,0,1,8.826-3.856,1.616,1.616,0,0,1,.927,2.121A6.882,6.882,0,0,1,91.258,102.216Z" fill="#d2f09e"/>
      <g id="Grupo_85640" data-name="Grupo 85640">
        <path id="Trazado_121530" data-name="Trazado 121530" d="M96.436,58.413a4.868,4.868,0,0,1-3.872-2.907c-.928-1.4-3.968-4.426-12.9-4.426a15.4,15.4,0,0,1-11.915-5.918,22.365,22.365,0,0,1-3.556-5.952l-.006-.015c-.01-.023-.047-.1-.106-.223a5.427,5.427,0,0,0-2.791,2.785,8.908,8.908,0,0,0-.608,1.913,2.311,2.311,0,0,1-2.441,1.856c-2.006-.134-3.332.694-3.836,2.4-1.228,4.144,3.784,8.5,8.673,7.052,5.311-1.577,9.761-1.062,12.489,3.728a8.756,8.756,0,0,0,4.059,3.652,5.051,5.051,0,0,1,2.149,7.393A31.768,31.768,0,0,1,78.034,74.5c-1.894,1.894-2.111,4.324-1.95,6.639a35.492,35.492,0,0,0,18.082-1.125c-.448-2.761,1.918-5.278,4.984-8.343,4.259-4.259,3-6.887,3-8.768,0-2.264-.184-3.729-5.713-4.487Z" fill="#27a6ff"/>
        <path id="Trazado_121531" data-name="Trazado 121531" d="M94.074,48.833a16.543,16.543,0,0,0,3.613-4.606c2.235-4.181,7.152-4.393,8.649-2.9a6.726,6.726,0,0,0,3.369,1.489,2.117,2.117,0,0,0,2.118-.775c1.266-1.624-.261-2.961-2.115-6.1a3.981,3.981,0,0,0-6.775-.166,4.844,4.844,0,0,1-3.471,2.2,1.173,1.173,0,0,1-.965-2,3.892,3.892,0,0,0,.411-.49c-.2.041-.4.08-.606.116-4.765.839-8.611.148-11.431-2.054-4.186-3.268-4.675-8.832-4.691-9.033l-.01-.595a4.708,4.708,0,0,0-.391.478,2.2,2.2,0,0,1-4.039-1.16,3.252,3.252,0,0,0-.524-1.628,2.457,2.457,0,0,1,.458-3.326c2.674-2.673-7.586-2.974-7.586,2.889a5.479,5.479,0,0,0,1.974,4.6c.986.954,1.838,1.778,1.3,4.536-1.052,5.357-5.013,1.735-6.763,5.749a5.747,5.747,0,0,1-2.7,3.025c.062.125.095.2.095.2S68.319,51.3,79.663,51.3,92.72,56.266,92.72,56.266l.219-.06a5.768,5.768,0,0,1,1.135-7.373Z" fill="#02c0fc"/>
        <path id="Trazado_121532" data-name="Trazado 121532" d="M98.342,35.819c.122-.021.241-.046.362-.069a3.166,3.166,0,0,0,.795-2.1c0-2.773.859-1.452,4.746-3.886a4.166,4.166,0,0,0,1.83-5.284c-.979-2.462-2.859-2.15-2.887-.564a2.383,2.383,0,0,1-2.156,2.4,2.431,2.431,0,0,1-2.71-2.639,7.2,7.2,0,0,0-.566-3.03A5.62,5.62,0,0,1,99.2,15.138a35.082,35.082,0,0,0-12.424-3.724c1.416,1.863,3.065,4.743,2.021,7.064-1.308,2.907-5.065,3.5-6.839,5.69l.006.357s.977,14.008,16.382,11.294Z" fill="#2fd0e2"/>
        <path id="Trazado_121533" data-name="Trazado 121533" d="M59.989,66.133C58.42,59.169,55,54.635,48.906,55.7A35.318,35.318,0,0,0,60.632,73.825,42.833,42.833,0,0,0,59.989,66.133Z" fill="#27a6ff"/>
        <path id="Trazado_121534" data-name="Trazado 121534" d="M79.228,73.527c-5.34-.585-5.7-3.473-6.054-6.277-.288-2.3-.561-4.472-3.716-4.822a5.044,5.044,0,0,1-3.8-2.079c-1.255-1.816-1.208-4.4-1.017-6.008-.544.119-1.088.261-1.628.421-4.715,1.4-9.576-2.8-8.4-6.777a3.142,3.142,0,0,1,3.609-2.238A2.532,2.532,0,0,0,60.9,43.712a8.648,8.648,0,0,1,.593-1.865,5.2,5.2,0,0,1,2.684-2.674c-.189-.418-2.588-5.5-7.1-5.5-4.246,0-4.4-4.664-4.4-4.863v-.042l-.08-.2a35.387,35.387,0,0,0-3.626,27.341c7.106-1.219,9.73,5.482,10.809,10.27a41.118,41.118,0,0,1,.633,7.455,35.165,35.165,0,0,0,15.9,7.542c-.167-2.289.03-4.672,1.884-6.526C78.537,74.306,78.884,73.927,79.228,73.527Z" fill="#47cb8f"/>
        <path id="Trazado_121535" data-name="Trazado 121535" d="M75.088,12.3l.108-.1-.041-.11a35.358,35.358,0,0,0-22.7,16.726s.1,5.079,4.621,5.079,6.912,5.394,6.912,5.394A5.881,5.881,0,0,0,66.8,36.15c1.67-3.831,5.7-.295,6.777-5.8s-3.266-3.732-3.266-9.184c0-3.181,3.218-4.449,5.452-4.508v-.116l-.108-.064a2.74,2.74,0,0,1-1.54-1.948,3.119,3.119,0,0,1,.975-2.239Z" fill="#94dc79"/>
        <path id="Trazado_121536" data-name="Trazado 121536" d="M83,11.21a35.4,35.4,0,0,0-8.064.926c-.036.034-2.713,2.556.6,4.537,1.712-.1,2.953.479,1.978,1.453a2.673,2.673,0,0,0-.488,3.6,3.032,3.032,0,0,1,.49,1.517,2.794,2.794,0,0,0,.059.486,2.431,2.431,0,0,0,4.382.794c1.649-2.329,5.646-2.869,7.035-5.956,1.062-2.361-.5-5.218-1.916-7.122A35.735,35.735,0,0,0,83,11.21Z" fill="#d2f09e"/>
        <path id="Trazado_121537" data-name="Trazado 121537" d="M96.406,58.632c5.664.776,5.522,2.328,5.522,4.267,0,.687.157,1.443.173,2.318a9.4,9.4,0,0,0,8.578,3.2,35.144,35.144,0,0,0,7.623-21.91q0-1.243-.085-2.465a4.274,4.274,0,0,1-2.1.38A6.5,6.5,0,0,1,112,41.916l-.049-.068-.224-.051a1.891,1.891,0,0,1-1.979.807,6.809,6.809,0,0,1-3.258-1.429c-1.474-1.474-6.595-1.552-9,2.948a16.388,16.388,0,0,1-3.565,4.545,6,6,0,0,0-1.207,7.6,4.9,4.9,0,0,0,3.686,2.367Z" fill="#94dc79"/>
        <g id="Grupo_85639" data-name="Grupo 85639">
          <path id="Trazado_121538" data-name="Trazado 121538" d="M99,15.037a5.836,5.836,0,0,0-1.457,5.681,7.075,7.075,0,0,1,.556,2.944,2.652,2.652,0,0,0,2.947,2.876,2.612,2.612,0,0,0,2.361-2.618.918.918,0,0,1,.718-1.016c1.358-.272,3.841,4.267,0,6.672s-4.849,1.125-4.849,4.073a3.014,3.014,0,0,1-.936,2.17,1.393,1.393,0,0,0,1.152,2.372,5.054,5.054,0,0,0,3.624-2.291,3.832,3.832,0,0,1,4.568-1.449,3.682,3.682,0,0,1,1.833,1.6c.87,1.476,1.8,2.739,2.341,3.84a1.9,1.9,0,0,1-.278,2.1l.242.054s2.739,3.8,6.408,2.237A35.311,35.311,0,0,0,99,15.037Z" fill="#d2f09e"/>
        </g>
        <path id="Trazado_121539" data-name="Trazado 121539" d="M102.078,64.7c.124,1.678-.08,3.805-3.085,6.81s-5.54,5.638-5.04,8.568a35.37,35.37,0,0,0,16.968-11.966A9.355,9.355,0,0,1,102.078,64.7Z" fill="#47cb8f"/>
        <path id="Trazado_121540" data-name="Trazado 121540" d="M81.958,69.871a5.271,5.271,0,0,0-2.24-7.717,8.555,8.555,0,0,1-3.959-3.561c-2.724-4.783-7.065-5.192-11.348-4.2-.3,2.624-.184,7.676,5.023,8.255,6.609.734-.168,9.883,9.621,11.078A37.342,37.342,0,0,0,81.958,69.871Z" fill="#94dc79"/>
      </g>
      <path id="Trazado_121541" data-name="Trazado 121541" d="M72.028,149.424c.413.262.844.517,1.3.762-.642,1.476-2.48,6.437-.761,11.571a13,13,0,0,0,2.026,3.8A80.35,80.35,0,0,0,83,166a79.15,79.15,0,0,0,32.625-6.988l2.158-9.587Z" fill="#6ad9fb"/>
      <path id="Trazado_121542" data-name="Trazado 121542" d="M50.375,159.012a78.933,78.933,0,0,0,24.887,6.609c-5.7-6.93-1.3-15.648-1.3-15.648-.346-.179-.675-.363-.993-.548H48.217Z" fill="#02c0fc"/>
      <path id="Trazado_121543" data-name="Trazado 121543" d="M68.011,130.087l.113.665c-.626.962-3.475,5.72-2.2,10.914.821,3.343,3.184,6.133,7.02,8.306H117.4a4.922,4.922,0,0,0,4.8-3.841l3.612-16.045H68.011Z" fill="#ade9f7"/>
      <path id="Trazado_121544" data-name="Trazado 121544" d="M43.794,146.132a4.922,4.922,0,0,0,4.8,3.841H73.959c-13.725-7.112-5.322-19.11-5.322-19.11l-.131-.775H40.182Z" fill="#6ad9fb"/>
      <path id="Trazado_121545" data-name="Trazado 121545" d="M162.434,86.566a79.057,79.057,0,0,0-11.707-41.521c-5.771,2.631-10.736,7.73-10.736,17.5,0,5.935-2.439,11.094-6.076,15.488a29.224,29.224,0,0,0,.414,38.079c5.506,6.161,9.111,13.937,7.813,23.483a79.135,79.135,0,0,0,20.293-53.024Z" fill="#2a428b"/>
      <path id="Trazado_121546" data-name="Trazado 121546" d="M3.566,86.566A79.057,79.057,0,0,1,15.273,45.044c5.771,2.631,10.736,7.73,10.736,17.5,0,5.935,2.439,11.094,6.076,15.488a29.224,29.224,0,0,1-.414,38.079c-5.506,6.161-9.111,13.937-7.813,23.483A79.135,79.135,0,0,1,3.566,86.566Z" fill="#2a428b"/>
      <path id="Trazado_121547" data-name="Trazado 121547" d="M125.6,121.862H67.08a4.76,4.76,0,0,0,0,9H125.6a4.5,4.5,0,0,0,0-9Z" fill="#e8f8fc"/>
      <path id="Trazado_121548" data-name="Trazado 121548" d="M64.136,126.362a4.5,4.5,0,0,1,4.5-4.5H40.4a4.5,4.5,0,1,0,0,9H68.636A4.5,4.5,0,0,1,64.136,126.362Z" fill="#ade9f7"/>
    </g>
  </g>
</svg>
