<svg xmlns="http://www.w3.org/2000/svg" width="295" height="339" viewBox="0 0 295 339">
  <g id="Grupo_85404" data-name="Grupo 85404" transform="translate(8808 -2784)">
    <rect id="Rectángulo_34613" data-name="Rectángulo 34613" width="295" height="164" transform="translate(-8808 2959)" fill="#deebad"/>
    <g id="suelo" transform="translate(-8819 2784)">
      <path id="Trazado_121022" data-name="Trazado 121022" d="M157.469,22A146.972,146.972,0,0,0,12.893,192.484L35.7,205.744a286.174,286.174,0,0,0,260.021,14.127A146.988,146.988,0,0,0,157.469,22Z" transform="translate(0 -8.809)" fill="#c8effe"/>
      <path id="Trazado_121023" data-name="Trazado 121023" d="M168.4,318.566a25.721,25.721,0,0,0-38.509-15.278,29.324,29.324,0,0,0-34.112-14.231A29.325,29.325,0,0,0,39.3,287.84a29.319,29.319,0,0,0-25.14,2.74,145.856,145.856,0,0,0,7.426,27.986Z" transform="translate(-1.264 -106.904)" fill="#d88a55"/>
      <g id="Grupo_85372" data-name="Grupo 85372" transform="translate(12.892 160.096)">
        <path id="Trazado_121024" data-name="Trazado 121024" d="M33.44,299.955a31.063,31.063,0,0,1,7.673.959,3,3,0,0,0,3.531-1.78,31.113,31.113,0,0,1,51.094-10.215A29.323,29.323,0,0,0,39.3,287.84a29.319,29.319,0,0,0-25.14,2.74q1.149,7.119,2.972,14a30.964,30.964,0,0,1,16.312-4.621Z" transform="translate(-14.156 -267)" fill="#c57a44"/>
      </g>
      <g id="Grupo_85388" data-name="Grupo 85388" transform="translate(67.363 0)">
        <g id="Grupo_85375" data-name="Grupo 85375" transform="translate(161.895 143.78)">
          <g id="Grupo_85374" data-name="Grupo 85374">
            <g id="Grupo_85373" data-name="Grupo 85373">
              <path id="Trazado_121025" data-name="Trazado 121025" d="M391.384,286.685a16.388,16.388,0,0,1-15.061-22.84c.038-.088,12.658-22.647,12.658-22.647a2.753,2.753,0,0,1,4.805,0s12.621,22.559,12.658,22.646a16.388,16.388,0,0,1-15.06,22.841Z" transform="translate(-375 -239.79)" fill="#01d0fb"/>
            </g>
          </g>
          <path id="Trazado_121026" data-name="Trazado 121026" d="M386.6,270.3a16.279,16.279,0,0,1,1.323-6.455c.025-.058,5.518-9.883,9.259-16.571l-3.4-6.076a2.753,2.753,0,0,0-4.805,0s-12.621,22.559-12.658,22.647a16.381,16.381,0,0,0,20.862,21.775A16.41,16.41,0,0,1,386.6,270.3Z" transform="translate(-375 -239.79)" fill="#01c0fa"/>
        </g>
        <g id="Grupo_85378" data-name="Grupo 85378" transform="translate(87.543 107.244)">
          <g id="Grupo_85377" data-name="Grupo 85377">
            <g id="Grupo_85376" data-name="Grupo 85376">
              <path id="Trazado_121027" data-name="Trazado 121027" d="M267.384,225.751a16.388,16.388,0,0,1-15.061-22.84c.038-.088,12.658-22.647,12.658-22.647a2.753,2.753,0,0,1,4.805,0s12.621,22.559,12.658,22.646a16.388,16.388,0,0,1-15.06,22.841Z" transform="translate(-251 -178.856)" fill="#01d0fb"/>
            </g>
          </g>
          <path id="Trazado_121028" data-name="Trazado 121028" d="M262.6,209.367a16.278,16.278,0,0,1,1.323-6.455c.025-.058,5.518-9.883,9.259-16.571l-3.4-6.076a2.753,2.753,0,0,0-4.805,0s-12.621,22.559-12.658,22.647a16.381,16.381,0,0,0,20.862,21.775,16.41,16.41,0,0,1-10.583-15.32Z" transform="translate(-251 -178.856)" fill="#01c0fa"/>
        </g>
        <g id="Grupo_85381" data-name="Grupo 85381" transform="translate(148.703 59.961)">
          <g id="Grupo_85380" data-name="Grupo 85380">
            <g id="Grupo_85379" data-name="Grupo 85379">
              <path id="Trazado_121029" data-name="Trazado 121029" d="M369.384,146.9a16.388,16.388,0,0,1-15.061-22.84c.038-.088,12.658-22.647,12.658-22.647a2.753,2.753,0,0,1,4.805,0s12.621,22.559,12.658,22.646a16.388,16.388,0,0,1-15.06,22.841Z" transform="translate(-353 -100)" fill="#01d0fb"/>
            </g>
          </g>
          <path id="Trazado_121030" data-name="Trazado 121030" d="M364.6,130.512a16.278,16.278,0,0,1,1.323-6.455c.025-.058,5.518-9.883,9.259-16.571l-3.4-6.076a2.753,2.753,0,0,0-4.805,0s-12.621,22.559-12.658,22.647a16.381,16.381,0,0,0,20.862,21.775A16.41,16.41,0,0,1,364.6,130.512Z" transform="translate(-353 -100)" fill="#01c0fa"/>
        </g>
        <g id="Grupo_85384" data-name="Grupo 85384" transform="translate(31.18)">
          <g id="Grupo_85383" data-name="Grupo 85383">
            <g id="Grupo_85382" data-name="Grupo 85382">
              <path id="Trazado_121031" data-name="Trazado 121031" d="M173.384,46.9a16.388,16.388,0,0,1-15.061-22.839c.038-.088,12.658-22.647,12.658-22.647a2.753,2.753,0,0,1,4.805,0s12.621,22.559,12.658,22.646A16.388,16.388,0,0,1,173.384,46.9Z" transform="translate(-157 0)" fill="#01d0fb"/>
            </g>
          </g>
          <path id="Trazado_121032" data-name="Trazado 121032" d="M168.6,30.512a16.278,16.278,0,0,1,1.323-6.455c.025-.058,5.518-9.883,9.259-16.571l-3.4-6.076a2.753,2.753,0,0,0-4.805,0s-12.621,22.559-12.658,22.647a16.381,16.381,0,0,0,20.862,21.776A16.41,16.41,0,0,1,168.6,30.512Z" transform="translate(-157 0)" fill="#01c0fa"/>
        </g>
        <g id="Grupo_85387" data-name="Grupo 85387" transform="translate(0 71.827)">
          <g id="Grupo_85386" data-name="Grupo 85386" transform="translate(0)">
            <g id="Grupo_85385" data-name="Grupo 85385">
              <path id="Trazado_121033" data-name="Trazado 121033" d="M121.384,166.685a16.388,16.388,0,0,1-15.061-22.84c.038-.088,12.658-22.647,12.658-22.647a2.754,2.754,0,0,1,4.805,0s12.621,22.559,12.658,22.646a16.388,16.388,0,0,1-15.06,22.841Z" transform="translate(-105 -119.79)" fill="#01d0fb"/>
            </g>
          </g>
          <path id="Trazado_121034" data-name="Trazado 121034" d="M116.6,150.3a16.279,16.279,0,0,1,1.323-6.455c.025-.058,5.518-9.883,9.259-16.571l-3.4-6.076a2.753,2.753,0,0,0-4.805,0s-12.621,22.559-12.658,22.647a16.381,16.381,0,0,0,20.862,21.775A16.41,16.41,0,0,1,116.6,150.3Z" transform="translate(-105 -119.79)" fill="#01c0fa"/>
        </g>
      </g>
      <path id="Trazado_121035" data-name="Trazado 121035" d="M35.156,371.689c.235.088.471.171.706.259a29.521,29.521,0,0,1,30.5,2.842,9.16,9.16,0,0,0,10.869,0,29.573,29.573,0,0,1,35.219,0,9.072,9.072,0,0,0,10.869,0,29.573,29.573,0,0,1,35.219,0,9.071,9.071,0,0,0,10.869,0,29.573,29.573,0,0,1,35.219,0,9.072,9.072,0,0,0,10.869,0,29.573,29.573,0,0,1,35.219,0,9.16,9.16,0,0,0,10.869,0,29.521,29.521,0,0,1,30.5-2.842c.235-.088.471-.171.706-.259a146.223,146.223,0,0,0,9-19.689H26.156a146.072,146.072,0,0,0,9,19.689Z" transform="translate(-6.068 -140.938)" fill="#c57a44"/>
      <path id="Trazado_121036" data-name="Trazado 121036" d="M57.481,406.431c.432.254.867.5,1.3.751a29.443,29.443,0,0,1,13.654,5.58,9.018,9.018,0,0,0,10.8-.052,29.573,29.573,0,0,1,35.219,0,9.072,9.072,0,0,0,10.869,0,29.573,29.573,0,0,1,35.219,0,9.072,9.072,0,0,0,10.869,0,29.573,29.573,0,0,1,35.219,0,9.072,9.072,0,0,0,10.869,0,29.573,29.573,0,0,1,35.219,0,9.019,9.019,0,0,0,10.8.052,29.449,29.449,0,0,1,13.654-5.58c.433-.251.868-.5,1.3-.751l0,.011A147.329,147.329,0,0,0,298.8,382.627a29.571,29.571,0,0,0-31.21,2.5,9.16,9.16,0,0,1-10.869,0,29.573,29.573,0,0,0-35.219,0,9.073,9.073,0,0,1-10.869,0,29.573,29.573,0,0,0-35.219,0,9.072,9.072,0,0,1-10.869,0,29.573,29.573,0,0,0-35.219,0,9.072,9.072,0,0,1-10.869,0,29.573,29.573,0,0,0-35.219,0,9.16,9.16,0,0,1-10.869,0,29.571,29.571,0,0,0-31.21-2.5,147.273,147.273,0,0,0,16.325,23.816.04.04,0,0,0,0-.012Z" transform="translate(-12.075 -151.874)" fill="#f6a96c"/>
      <path id="Trazado_121037" data-name="Trazado 121037" d="M293.377,424.449a29.45,29.45,0,0,0-14.954,5.731,9.018,9.018,0,0,1-10.8-.052,29.573,29.573,0,0,0-35.219,0,9.072,9.072,0,0,1-10.869,0,29.573,29.573,0,0,0-35.219,0,9.072,9.072,0,0,1-10.869,0,29.573,29.573,0,0,0-35.219,0,9.072,9.072,0,0,1-10.869,0,29.573,29.573,0,0,0-35.219,0,9.019,9.019,0,0,1-10.8.052,29.45,29.45,0,0,0-14.954-5.731,146.887,146.887,0,0,0,225,0Z" transform="translate(-22.974 -169.891)" fill="#d88a55"/>
      <g id="Grupo_85389" data-name="Grupo 85389" transform="translate(85.931 237.985)">
        <ellipse id="Elipse_5042" data-name="Elipse 5042" cx="4" cy="4.5" rx="4" ry="4.5" transform="translate(23.069 34.015)" fill="#c57a44"/>
        <circle id="Elipse_5043" data-name="Elipse 5043" cx="4.5" cy="4.5" r="4.5" transform="translate(67.069 34.015)" fill="#c57a44"/>
        <circle id="Elipse_5044" data-name="Elipse 5044" cx="4.5" cy="4.5" r="4.5" transform="translate(114.069 34.015)" fill="#c57a44"/>
        <ellipse id="Elipse_5045" data-name="Elipse 5045" cx="5" cy="4.5" rx="5" ry="4.5" transform="translate(43.069 0.015)" fill="#c57a44"/>
        <circle id="Elipse_5046" data-name="Elipse 5046" cx="4.5" cy="4.5" r="4.5" transform="translate(0.069 0.015)" fill="#c57a44"/>
        <circle id="Elipse_5047" data-name="Elipse 5047" cx="4.5" cy="4.5" r="4.5" transform="translate(91.069 0.015)" fill="#c57a44"/>
        <circle id="Elipse_5048" data-name="Elipse 5048" cx="4.5" cy="4.5" r="4.5" transform="translate(137.069 0.015)" fill="#c57a44"/>
      </g>
      <circle id="Elipse_5049" data-name="Elipse 5049" cx="4.5" cy="4.5" r="4.5" transform="translate(246 216)" fill="#f6a96c"/>
      <circle id="Elipse_5050" data-name="Elipse 5050" cx="4.5" cy="4.5" r="4.5" transform="translate(154 216)" fill="#f6a96c"/>
      <circle id="Elipse_5051" data-name="Elipse 5051" cx="4.5" cy="4.5" r="4.5" transform="translate(67 216)" fill="#f6a96c"/>
    </g>
  </g>
</svg>
