<svg xmlns="http://www.w3.org/2000/svg" width="295.987" height="325.434" viewBox="0 0 295.987 325.434">
  <g id="Grupo_85401" data-name="Grupo 85401" transform="translate(8808.987 -4413.566)">
    <rect id="Rectángulo_34616" data-name="Rectángulo 34616" width="295" height="164" transform="translate(-8808 4575)" fill="#deebad"/>
    <g id="cigarra_1_" data-name="cigarra (1)" transform="translate(-8808.987 4413.566)">
      <path id="Trazado_121088" data-name="Trazado 121088" d="M295.987,147.994A147.832,147.832,0,0,1,149.861,295.976c-.624.006-1.243.012-1.867.012s-1.249-.006-1.873-.012A147.994,147.994,0,1,1,295.987,147.994Z" transform="translate(0 0)" fill="#f4566d"/>
      <path id="Trazado_121089" data-name="Trazado 121089" d="M99.736,390.848a3.342,3.342,0,0,1-2.363-5.705l9.773-9.773,2.438-41.346a3.342,3.342,0,1,1,6.673.394l-2.512,42.614a3.342,3.342,0,0,1-.973,2.167L102.1,389.869a3.336,3.336,0,0,1-2.364.978Z" transform="translate(-40.668 -139.597)" fill="#51463f"/>
      <path id="Trazado_121090" data-name="Trazado 121090" d="M153.334,340.008a3.329,3.329,0,0,1-1.075-.179l-23.085-7.84a3.342,3.342,0,1,1,2.15-6.329l23.085,7.84a3.343,3.343,0,0,1-1.075,6.508Z" transform="translate(-53.541 -137.32)" fill="#51463f"/>
      <path id="Trazado_121091" data-name="Trazado 121091" d="M397.765,390.847a3.333,3.333,0,0,1-2.363-.979L384.731,379.2a3.34,3.34,0,0,1-.973-2.167l-2.513-42.614a3.342,3.342,0,0,1,6.673-.394l2.438,41.346,9.773,9.773a3.343,3.343,0,0,1-2.363,5.706Z" transform="translate(-160.845 -139.597)" fill="#51463f"/>
      <path id="Trazado_121092" data-name="Trazado 121092" d="M336.939,340.007a3.343,3.343,0,0,1-1.075-6.508l23.085-7.84a3.342,3.342,0,1,1,2.15,6.329l-23.085,7.84a3.344,3.344,0,0,1-1.075.179Z" transform="translate(-140.744 -137.32)" fill="#51463f"/>
      <path id="Trazado_121093" data-name="Trazado 121093" d="M268,160.524c0,8.418-42.256,171.955-42.256,171.955l-2.17,6.056-2.17-6.056s-5.776-22.349-13.058-50.95c-12.411-48.762-29.2-115.7-29.2-121.005,0-8.423,2.611-9.292,2.611-9.292l14.091-15.758,27.723-30.994,41.815,46.752S268,152.1,268,160.524Z" transform="translate(-75.583 -44.08)" fill="#339e5e"/>
      <g id="Grupo_85400" data-name="Grupo 85400" transform="translate(103.567 91.394)">
        <path id="Trazado_121094" data-name="Trazado 121094" d="M233.519,454.21H259.51v9.04H233.519Z" transform="translate(-202.088 -283.025)" fill="#25844c"/>
        <path id="Trazado_121095" data-name="Trazado 121095" d="M233.519,424.21H259.51v9.04H233.519Z" transform="translate(-202.088 -270.368)" fill="#25844c"/>
        <path id="Trazado_121096" data-name="Trazado 121096" d="M233.519,394.21H259.51v9.04H233.519Z" transform="translate(-202.088 -257.711)" fill="#25844c"/>
        <path id="Trazado_121097" data-name="Trazado 121097" d="M233.519,364.21H259.51v9.04H233.519Z" transform="translate(-202.088 -245.054)" fill="#25844c"/>
        <path id="Trazado_121098" data-name="Trazado 121098" d="M233.519,334.21H259.51v9.04H233.519Z" transform="translate(-202.088 -232.397)" fill="#25844c"/>
        <path id="Trazado_121099" data-name="Trazado 121099" d="M233.519,304.21H259.51v9.04H233.519Z" transform="translate(-202.088 -219.74)" fill="#25844c"/>
        <path id="Trazado_121100" data-name="Trazado 121100" d="M187.882,274.21h78.757v9.04H187.882Z" transform="translate(-182.834 -207.083)" fill="#25844c"/>
        <path id="Trazado_121101" data-name="Trazado 121101" d="M187.882,244.21h78.757v9.04H187.882Z" transform="translate(-182.834 -194.426)" fill="#25844c"/>
        <path id="Trazado_121102" data-name="Trazado 121102" d="M208.349,304.149c-12.411-48.762-29.2-115.7-29.2-121.005,0-8.423,2.611-9.292,2.611-9.292l14.091-15.758,13.788,5.3C201.829,176.04,202.243,250.27,208.349,304.149Z" transform="translate(-179.15 -158.094)" fill="#25844c"/>
      </g>
      <path id="Trazado_121103" data-name="Trazado 121103" d="M213.025,380.955a147.988,147.988,0,0,1-43.508-7.076c-7.914-43.485-13.025-91.664-10.111-128.252V245.6c1.463-18.308,4.931-33.715,11.065-44.178,0,0,32.524,36,36.01,59.238,1.665,11.123,5.064,62.186,6.365,112.718Q212.941,377.174,213.025,380.955Z" transform="translate(-66.904 -84.979)" fill="#e6e6e6"/>
      <path id="Trazado_121104" data-name="Trazado 121104" d="M131.756,198.243a3.342,3.342,0,0,1-2.363-5.705c12.083-12.083,28.247-34.226,28.408-34.449a3.342,3.342,0,0,1,5.4,3.935c-.673.924-16.631,22.786-29.085,35.24a3.33,3.33,0,0,1-2.363.979Z" transform="translate(-54.178 -66.118)" fill="#51463f"/>
      <path id="Trazado_121105" data-name="Trazado 121105" d="M109.014,226.773H90.721a3.343,3.343,0,1,1,0-6.685h18.293a3.343,3.343,0,1,1,0,6.685Z" transform="translate(-36.865 -92.855)" fill="#51463f"/>
      <path id="Trazado_121106" data-name="Trazado 121106" d="M190.757,63.744a3.344,3.344,0,0,1-3.107-4.573l7.32-18.493L159.18,14.761a3.343,3.343,0,0,1-1.382-2.707V3.343a3.343,3.343,0,0,1,6.685,0v7l36.512,26.439a3.343,3.343,0,0,1,1.148,3.937l-8.275,20.907A3.347,3.347,0,0,1,190.757,63.744Z" transform="translate(-66.575 0)" fill="#51463f"/>
      <path id="Trazado_121107" data-name="Trazado 121107" d="M302.744,373.879a147.649,147.649,0,0,1-43.514,7.076c1.139-52.9,4.8-108.619,6.556-120.3,3.48-23.228,36-59.238,36-59.238C320.185,232.782,314.624,308.623,302.744,373.879Z" transform="translate(-109.369 -84.979)" fill="#e6e6e6"/>
      <path id="Trazado_121108" data-name="Trazado 121108" d="M354.386,198.243a3.333,3.333,0,0,1-2.363-.979c-12.455-12.455-28.412-34.316-29.085-35.24a3.342,3.342,0,0,1,5.4-3.935c.162.223,16.326,22.366,28.408,34.449a3.342,3.342,0,0,1-2.363,5.705Z" transform="translate(-135.977 -66.118)" fill="#51463f"/>
      <path id="Trazado_121109" data-name="Trazado 121109" d="M403.05,226.773H384.757a3.343,3.343,0,0,1,0-6.685H403.05a3.343,3.343,0,0,1,0,6.685Z" transform="translate(-160.918 -92.855)" fill="#51463f"/>
      <path id="Trazado_121110" data-name="Trazado 121110" d="M288.709,63.744a3.343,3.343,0,0,1-3.108-2.113l-8.276-20.907a3.343,3.343,0,0,1,1.148-3.937l36.512-26.439v-7a3.343,3.343,0,0,1,6.685,0v8.711a3.343,3.343,0,0,1-1.382,2.707L284.5,40.677l7.32,18.493a3.344,3.344,0,0,1-3.108,4.573Z" transform="translate(-116.904 0)" fill="#51463f"/>
      <path id="Trazado_121111" data-name="Trazado 121111" d="M263.024,138.728a108.01,108.01,0,0,0-83.629,0c-9.8-9.8-5.294-21.792-.923-29.011a47.8,47.8,0,0,1,2.83-4.149c1.1-1.444,1.867-2.268,1.867-2.268s-9.292-9.292,0-18.583,24.1-4.354,24.1-4.354c2.322-5.806,13.935-5.517,13.935-5.517s11.613-.29,13.94,5.517c0,0,14.809-4.938,24.1,4.354s0,18.583,0,18.583.767.824,1.867,2.268a47.8,47.8,0,0,1,2.83,4.149c4.372,7.219,8.873,19.216-.922,29.011Z" transform="translate(-73.216 -31.576)" fill="#57c483"/>
      <path id="Trazado_121112" data-name="Trazado 121112" d="M204.742,82.792a10.977,10.977,0,0,0-5.2,5c-5.29,9.292,0,16.355,0,16.355a24.189,24.189,0,0,1-1.061,4.5c-.468,1.069-1.038,2.482-1.613,4.149-2.068,5.989-4.185,15.268-1.658,23.851a99.713,99.713,0,0,0-15.816,5.161c-9.8-9.8-5.294-21.792-.923-29.011a47.8,47.8,0,0,1,2.83-4.149c1.1-1.444,1.867-2.268,1.867-2.268s-9.292-9.292,0-18.583C190.1,80.853,200.108,81.843,204.742,82.792Z" transform="translate(-73.216 -34.647)" fill="#339e5e"/>
      <path id="Trazado_121113" data-name="Trazado 121113" d="M267.545,120.757c-.3.023-.615.031-.923.031-5.628,0-11.863-3.485-18.4-7.135-7.6-4.243-15.464-8.632-23.414-8.632S209,109.41,201.4,113.653c-6.9,3.85-13.463,7.518-19.328,7.1a47.792,47.792,0,0,1,2.83-4.149c4.233-.7,9.279-3.521,14.542-6.457,7.674-4.283,16.373-9.14,25.366-9.14s17.692,4.858,25.366,9.14c5.263,2.937,10.307,5.758,14.542,6.457a47.666,47.666,0,0,1,2.83,4.149Z" transform="translate(-76.816 -42.616)" fill="#339e5e"/>
      <circle id="Elipse_5054" data-name="Elipse 5054" cx="9.292" cy="9.292" r="9.292" transform="translate(100.663 53.141)" fill="#352b26"/>
      <circle id="Elipse_5055" data-name="Elipse 5055" cx="9.292" cy="9.292" r="9.292" transform="translate(176.741 53.141)" fill="#352b26"/>
      <path id="Trazado_121114" data-name="Trazado 121114" d="M213.439,373.38c-29.3-23.365-54.195-100.545-53.441-127.752V245.6c1.461-18.311,4.929-33.717,11.065-44.177,0,0,32.523,36,36.008,59.234,1.667,11.123,5.067,62.189,6.368,112.721Z" transform="translate(-67.496 -84.981)" fill="#b3b3b3"/>
      <path id="Trazado_121115" data-name="Trazado 121115" d="M259.548,373.377c29.3-23.365,54.195-100.546,53.441-127.752V245.6c-1.461-18.311-4.929-33.717-11.065-44.177,0,0-32.523,36-36.008,59.234C264.249,271.78,260.849,322.846,259.548,373.377Z" transform="translate(-109.503 -84.98)" fill="#b3b3b3"/>
    </g>
  </g>
</svg>
