<svg xmlns="http://www.w3.org/2000/svg" width="295.987" height="332.116" viewBox="0 0 295.987 332.116">
  <g id="Grupo_85402" data-name="Grupo 85402" transform="translate(8808.987 -3874.884)">
    <rect id="Rectángulo_34615" data-name="Rectángulo 34615" width="295" height="164" transform="translate(-8808 4043)" fill="#deebad"/>
    <g id="siembra" transform="translate(-8808.987 3874.884)">
      <path id="Trazado_121066" data-name="Trazado 121066" d="M294.987,147.494a146.947,146.947,0,0,1-13.355,61.414c-23.3,50.8-74.6,39.479-134.138,39.479S36.65,259.706,13.355,208.908a147.509,147.509,0,1,1,281.633-61.414Z" transform="translate(0 0)" fill="#62dbfb"/>
      <path id="Trazado_121067" data-name="Trazado 121067" d="M291.455,362.344a147.586,147.586,0,0,1-268.265,0,20.694,20.694,0,0,1,16,13.983,20.7,20.7,0,0,1,39.38,0,20.694,20.694,0,0,1,39.374,0,20.7,20.7,0,0,1,39.38,0,20.7,20.7,0,0,1,39.38,0,20.694,20.694,0,0,1,39.374,0,20.7,20.7,0,0,1,39.38,0,20.694,20.694,0,0,1,16-13.983Z" transform="translate(-9.829 -153.439)" fill="#9b5e5e"/>
      <g id="Grupo_85391" data-name="Grupo 85391" transform="translate(36.658 171.952)">
        <path id="Trazado_121068" data-name="Trazado 121068" d="M175.991,327.721l-5.715,26.82-6.718,31.521a15,15,0,0,1-14.663,11.869H102.7a14.99,14.99,0,0,1-14.663-11.869l-6.718-31.521L75.6,327.721Z" transform="translate(-68.7 -310.858)" fill="#925cb4"/>
        <path id="Trazado_121069" data-name="Trazado 121069" d="M122.189,397.933H102.7a15,15,0,0,1-14.663-11.869L75.6,327.724H95.087l12.439,58.341A14.991,14.991,0,0,0,122.189,397.933Z" transform="translate(-68.702 -310.86)" fill="#6354b1"/>
        <path id="Trazado_121070" data-name="Trazado 121070" d="M175.991,327.721l-5.715,26.819H81.318L75.6,327.721Z" transform="translate(-68.7 -310.858)" fill="#6354b1"/>
        <path id="Trazado_121071" data-name="Trazado 121071" d="M167.721,331.407H72.954a9.328,9.328,0,0,1-9.328-9.328v-14.3a9.328,9.328,0,0,1,9.328-9.328h94.767a9.328,9.328,0,0,1,9.328,9.328v14.3A9.328,9.328,0,0,1,167.721,331.407Z" transform="translate(-63.626 -298.453)" fill="#925cb4"/>
        <path id="Trazado_121072" data-name="Trazado 121072" d="M108.2,331.409H72.954a9.329,9.329,0,0,1-9.328-9.328v-14.3a9.329,9.329,0,0,1,9.328-9.328H108.2a9.329,9.329,0,0,0-9.328,9.328v14.3A9.329,9.329,0,0,0,108.2,331.409Z" transform="translate(-63.626 -298.453)" fill="#6354b1"/>
      </g>
      <g id="Grupo_85395" data-name="Grupo 85395" transform="translate(34.575 -0.001)">
        <g id="Grupo_85394" data-name="Grupo 85394">
          <path id="Trazado_121073" data-name="Trazado 121073" d="M156.533,149.022a6,6,0,0,1-6-6V96.531a6,6,0,1,1,12.006,0V143.02A6,6,0,0,1,156.533,149.022Z" transform="translate(-98.378 -38.37)" fill="#6fd7a3"/>
          <g id="Grupo_85392" data-name="Grupo 85392" transform="translate(45.327 8.026)">
            <ellipse id="Elipse_5052" data-name="Elipse 5052" cx="34.221" cy="19.761" rx="34.221" ry="19.761" transform="translate(0 48.389) rotate(-45)" fill="#6fd7a3"/>
            <path id="Trazado_121074" data-name="Trazado 121074" d="M211.354,38.16a39.513,39.513,0,0,1-48.4,48.4Z" transform="translate(-148.972 -24.2)" fill="#3ec3a4"/>
          </g>
          <g id="Grupo_85393" data-name="Grupo 85393">
            <path id="Trazado_121075" data-name="Trazado 121075" d="M118.166,58.161A46.2,46.2,0,0,1,61.578,1.566a46.2,46.2,0,0,1,56.588,56.594Z" transform="translate(-60.01 0.001)" fill="#6fd7a3"/>
            <path id="Trazado_121076" data-name="Trazado 121076" d="M118.166,59.313A46.2,46.2,0,0,1,61.578,2.719Z" transform="translate(-60.01 -1.152)" fill="#3ec3a4"/>
          </g>
        </g>
        <path id="Trazado_121077" data-name="Trazado 121077" d="M174.757,175.107,172.8,184.28,166.086,215.8a15,15,0,0,1-14.663,11.869h-46.2A14.99,14.99,0,0,1,90.565,215.8L83.847,184.28l-1.959-9.172A14.6,14.6,0,0,1,96.171,157.46h64.3a14.6,14.6,0,0,1,14.283,17.647Z" transform="translate(-69.145 -66.74)" fill="#b98080"/>
        <path id="Trazado_121078" data-name="Trazado 121078" d="M127.458,227.668H105.23A14.99,14.99,0,0,1,90.567,215.8l-6.718-31.521L81.9,175.106a14.6,14.6,0,0,1,14.283-17.647H118.4a14.6,14.6,0,0,0-14.283,17.647l1.959,9.172,6.718,31.521A14.99,14.99,0,0,0,127.458,227.668Z" transform="translate(-69.148 -66.739)" fill="#ae6c6c"/>
        <path id="Trazado_121079" data-name="Trazado 121079" d="M174.743,190.819a5.768,5.768,0,0,1-8.055-1.227l-7.473-10.163-16.535,2.823V187.3l9.944,14.225L166.078,200a5.761,5.761,0,1,1,1.3,11.448l-13.205,1.5-1.907,5.71a5.76,5.76,0,1,1-10.929-3.641l2.149-6.447-7.87-11.252-13.361,10.065-1.181,7.651a5.76,5.76,0,1,1-11.385-1.757l1.221-7.951L105.035,195.2a5.764,5.764,0,0,1,9.967-5.79l3.635,6.263,12.52-9.432V157.46H142.68v13.1l18.1-3.094a5.769,5.769,0,0,1,5.612,2.27l9.581,13.027a5.761,5.761,0,0,1-1.227,8.055Z" transform="translate(-78.764 -66.74)" fill="#9b5e5e"/>
      </g>
      <g id="Grupo_85399" data-name="Grupo 85399" transform="translate(158.196 67.029)">
        <g id="Grupo_85398" data-name="Grupo 85398">
          <path id="Trazado_121080" data-name="Trazado 121080" d="M371.1,265.362a6,6,0,0,1-6-6V212.871a6,6,0,1,1,12.006,0V259.36A6,6,0,0,1,371.1,265.362Z" transform="translate(-312.943 -154.711)" fill="#6fd7a3"/>
          <g id="Grupo_85396" data-name="Grupo 85396" transform="translate(45.307 8.032)">
            <ellipse id="Elipse_5053" data-name="Elipse 5053" cx="34.221" cy="19.761" rx="34.221" ry="19.761" transform="translate(0 48.389) rotate(-45)" fill="#6fd7a3"/>
            <path id="Trazado_121081" data-name="Trazado 121081" d="M425.919,154.5a39.513,39.513,0,0,1-48.4,48.4Z" transform="translate(-363.517 -140.546)" fill="#3ec3a4"/>
          </g>
          <g id="Grupo_85397" data-name="Grupo 85397">
            <path id="Trazado_121082" data-name="Trazado 121082" d="M332.732,174.5a46.2,46.2,0,0,1-56.588-56.594A46.2,46.2,0,0,1,332.732,174.5Z" transform="translate(-274.576 -116.34)" fill="#6fd7a3"/>
            <path id="Trazado_121083" data-name="Trazado 121083" d="M332.732,175.654a46.2,46.2,0,0,1-56.588-56.594Z" transform="translate(-274.576 -117.493)" fill="#3ec3a4"/>
          </g>
        </g>
        <path id="Trazado_121084" data-name="Trazado 121084" d="M389.322,291.447l-1.953,9.172-6.718,31.521a15,15,0,0,1-14.663,11.869h-46.2a14.99,14.99,0,0,1-14.663-11.869l-6.718-31.521-1.959-9.172A14.6,14.6,0,0,1,310.736,273.8h64.3a14.6,14.6,0,0,1,14.283,17.647Z" transform="translate(-283.71 -183.08)" fill="#b98080"/>
        <path id="Trazado_121085" data-name="Trazado 121085" d="M342.023,344.008H319.795a14.99,14.99,0,0,1-14.663-11.869l-6.718-31.521-1.953-9.172A14.6,14.6,0,0,1,310.744,273.8h22.222a14.6,14.6,0,0,0-14.283,17.647l1.959,9.172,6.718,31.521A14.99,14.99,0,0,0,342.023,344.008Z" transform="translate(-283.713 -183.08)" fill="#ae6c6c"/>
        <path id="Trazado_121086" data-name="Trazado 121086" d="M389.308,307.159a5.767,5.767,0,0,1-8.055-1.227l-7.473-10.163-16.535,2.823v5.047l9.944,14.225,13.453-1.527a5.761,5.761,0,1,1,1.3,11.448l-13.205,1.5-1.907,5.71a5.76,5.76,0,1,1-10.93-3.641l2.149-6.447-7.87-11.252-13.361,10.065-1.181,7.651a5.76,5.76,0,1,1-11.385-1.757l1.221-7.951L319.6,311.543a5.764,5.764,0,0,1,9.967-5.79l3.635,6.263,12.52-9.432V273.8h11.523v13.1l18.1-3.094a5.769,5.769,0,0,1,5.612,2.27l9.581,13.027a5.761,5.761,0,0,1-1.227,8.055Z" transform="translate(-293.329 -183.08)" fill="#9b5e5e"/>
      </g>
      <path id="Trazado_121087" data-name="Trazado 121087" d="M284.853,425.94a147.464,147.464,0,0,1-218.313,0,20.695,20.695,0,0,1,30.4,11.327,20.694,20.694,0,0,1,39.374,0,20.7,20.7,0,0,1,39.38,0,20.7,20.7,0,0,1,39.38,0,20.694,20.694,0,0,1,39.374,0,20.695,20.695,0,0,1,30.4-11.327Z" transform="translate(-28.203 -179.269)" fill="#b98080"/>
    </g>
  </g>
</svg>
