<svg xmlns="http://www.w3.org/2000/svg" xmlns:xlink="http://www.w3.org/1999/xlink" width="190" height="166" viewBox="0 0 190 166">
  <defs>
    <clipPath id="clip-path">
      <rect id="Imagen_14" data-name="Imagen 14" width="190" height="166" rx="19" transform="translate(915 5531)" fill="#01f6ff"/>
    </clipPath>
  </defs>
  <g id="Enmascarar_grupo_150" data-name="Enmascarar grupo 150" transform="translate(-915 -5531)" clip-path="url(#clip-path)">
    <g id="cultura" transform="translate(915.552 5519.552)">
      <g id="Grupo_85600" data-name="Grupo 85600">
        <g id="Grupo_85592" data-name="Grupo 85592">
          <circle id="Elipse_5078" data-name="Elipse 5078" cx="80.138" cy="80.138" r="80.138" transform="translate(11.448 11.448)" fill="#4182c3"/>
        </g>
        <g id="Grupo_85593" data-name="Grupo 85593">
          <path id="Trazado_121467" data-name="Trazado 121467" d="M11.462,90.552q-.013.516-.013,1.035a40.069,40.069,0,0,0,80.138,0V11.448a80.133,80.133,0,0,0-80.125,79.1Z" fill="#23aae6"/>
        </g>
        <g id="Grupo_85594" data-name="Grupo 85594">
          <path id="Trazado_121468" data-name="Trazado 121468" d="M45.793,34.345h6.678a11.448,11.448,0,1,1,0,22.9h-.954a11.448,11.448,0,1,0,0,22.9h51.517a11.448,11.448,0,1,0,0-22.9,11.448,11.448,0,0,1,0-22.9h11.448a11.449,11.449,0,0,0,10.7-15.531,80.181,80.181,0,0,0-86.77,12.828,11.4,11.4,0,0,0,7.385,2.7Z" fill="#91c83c"/>
        </g>
        <g id="Grupo_85597" data-name="Grupo 85597">
          <g id="Grupo_85595" data-name="Grupo 85595">
            <path id="Trazado_121469" data-name="Trazado 121469" d="M103.034,34.345h11.448a11.449,11.449,0,0,0,10.7-15.531,79.826,79.826,0,0,0-33.592-7.365V45.793A11.448,11.448,0,0,1,103.034,34.345Z" fill="#5faa46"/>
          </g>
          <g id="Grupo_85596" data-name="Grupo 85596">
            <path id="Trazado_121470" data-name="Trazado 121470" d="M114.483,68.69a11.448,11.448,0,0,0-11.448-11.448A11.448,11.448,0,0,1,91.586,45.793V80.138h11.448A11.448,11.448,0,0,0,114.483,68.69Z" fill="#5faa46"/>
          </g>
        </g>
        <g id="Grupo_85598" data-name="Grupo 85598">
          <path id="Trazado_121471" data-name="Trazado 121471" d="M170.907,103.034H114.483a11.448,11.448,0,1,0,0,22.9,11.448,11.448,0,0,1,0,22.9h-22.9a11.448,11.448,0,0,0,0,22.9A80.152,80.152,0,0,0,170.907,103.034Z" fill="#5faa46"/>
        </g>
        <g id="Grupo_85599" data-name="Grupo 85599">
          <path id="Trazado_121472" data-name="Trazado 121472" d="M51.517,125.931H40.069a11.448,11.448,0,1,1,0-22.9H51.517a11.448,11.448,0,1,1,0,22.9Z" fill="#91c83c"/>
        </g>
      </g>
      <g id="Grupo_85612" data-name="Grupo 85612">
        <g id="Grupo_85601" data-name="Grupo 85601">
          <circle id="Elipse_5079" data-name="Elipse 5079" cx="34.345" cy="34.345" r="34.345" transform="translate(108.759 45.793)" fill="#f06423"/>
        </g>
        <g id="Grupo_85602" data-name="Grupo 85602">
          <path id="Trazado_121473" data-name="Trazado 121473" d="M111.621,83a2.862,2.862,0,0,1-2.862-2.862A34.384,34.384,0,0,1,143.1,45.793a2.862,2.862,0,1,1,0,5.724,28.653,28.653,0,0,0-28.621,28.621A2.862,2.862,0,0,1,111.621,83Z" fill="#faa019"/>
        </g>
        <g id="Grupo_85603" data-name="Grupo 85603">
          <circle id="Elipse_5080" data-name="Elipse 5080" cx="28.621" cy="28.621" r="28.621" transform="translate(114.483 51.517)" fill="#d7e6f0"/>
        </g>
        <g id="Grupo_85611" data-name="Grupo 85611">
          <g id="Grupo_85609" data-name="Grupo 85609">
            <g id="Grupo_85604" data-name="Grupo 85604">
              <path id="Trazado_121474" data-name="Trazado 121474" d="M148.828,91.586H137.379A8.586,8.586,0,0,1,128.793,83V65.828a8.586,8.586,0,0,1,8.586-8.586h11.448a8.586,8.586,0,0,1,8.586,8.586V83A8.586,8.586,0,0,1,148.828,91.586Z" fill="#f0915a"/>
            </g>
            <g id="Grupo_85605" data-name="Grupo 85605">
              <path id="Trazado_121475" data-name="Trazado 121475" d="M137.379,91.586h11.448V97.31H137.379Z" fill="#d24605"/>
            </g>
            <path id="Trazado_121476" data-name="Trazado 121476" d="M131.655,97.31a17.092,17.092,0,0,0-9.186,2.661,28.62,28.62,0,0,0,41.268,0,17.092,17.092,0,0,0-9.186-2.661Z" fill="#23aae6"/>
            <g id="Grupo_85606" data-name="Grupo 85606">
              <path id="Trazado_121477" data-name="Trazado 121477" d="M148.828,57.241H137.379a8.586,8.586,0,0,0-8.586,8.586v8.586a2.862,2.862,0,0,0,2.862-2.862V68.69a2.862,2.862,0,0,1,2.862-2.862H151.69a2.862,2.862,0,0,1,2.862,2.862v2.862a2.862,2.862,0,0,0,2.862,2.862V65.828A8.586,8.586,0,0,0,148.828,57.241Z" fill="#463c4b"/>
            </g>
            <g id="Grupo_85607" data-name="Grupo 85607">
              <path id="Trazado_121478" data-name="Trazado 121478" d="M157.414,80.138V71.552a2.862,2.862,0,0,1,2.862,2.862v2.862A2.862,2.862,0,0,1,157.414,80.138Z" fill="#d24605"/>
            </g>
            <g id="Grupo_85608" data-name="Grupo 85608">
              <path id="Trazado_121479" data-name="Trazado 121479" d="M128.793,80.138V71.552a2.862,2.862,0,0,0-2.862,2.862v2.862A2.862,2.862,0,0,0,128.793,80.138Z" fill="#d24605"/>
            </g>
          </g>
          <g id="Grupo_85610" data-name="Grupo 85610">
            <path id="Trazado_121480" data-name="Trazado 121480" d="M128.793,65.828h28.621v5.724H128.793Z" fill="#faa019"/>
          </g>
        </g>
      </g>
      <g id="Grupo_85625" data-name="Grupo 85625">
        <g id="Grupo_85613" data-name="Grupo 85613">
          <circle id="Elipse_5081" data-name="Elipse 5081" cx="34.345" cy="34.345" r="34.345" transform="translate(22.897 108.759)" fill="#f06423"/>
        </g>
        <g id="Grupo_85614" data-name="Grupo 85614">
          <path id="Trazado_121481" data-name="Trazado 121481" d="M25.759,145.966A2.862,2.862,0,0,1,22.9,143.1a34.384,34.384,0,0,1,34.345-34.345,2.862,2.862,0,1,1,0,5.724A28.653,28.653,0,0,0,28.621,143.1,2.862,2.862,0,0,1,25.759,145.966Z" fill="#faa019"/>
        </g>
        <g id="Grupo_85615" data-name="Grupo 85615">
          <circle id="Elipse_5082" data-name="Elipse 5082" cx="28.621" cy="28.621" r="28.621" transform="translate(28.621 114.483)" fill="#d7e6f0"/>
        </g>
        <g id="Grupo_85624" data-name="Grupo 85624">
          <g id="Grupo_85621" data-name="Grupo 85621">
            <g id="Grupo_85616" data-name="Grupo 85616">
              <path id="Trazado_121482" data-name="Trazado 121482" d="M62.966,154.552H51.517a8.586,8.586,0,0,1-8.586-8.586V128.793a8.586,8.586,0,0,1,8.586-8.586H62.966a8.586,8.586,0,0,1,8.586,8.586v17.172A8.586,8.586,0,0,1,62.966,154.552Z" fill="#fab991"/>
            </g>
            <g id="Grupo_85617" data-name="Grupo 85617">
              <path id="Trazado_121483" data-name="Trazado 121483" d="M51.517,154.552H62.966v5.724H51.517Z" fill="#f0915a"/>
            </g>
            <path id="Trazado_121484" data-name="Trazado 121484" d="M45.793,160.276a17.092,17.092,0,0,0-9.186,2.661,28.62,28.62,0,0,0,41.268,0,17.092,17.092,0,0,0-9.186-2.661Z" fill="#faa019"/>
            <g id="Grupo_85618" data-name="Grupo 85618">
              <path id="Trazado_121485" data-name="Trazado 121485" d="M62.966,120.207H51.517a8.586,8.586,0,0,0-8.586,8.586v8.586a2.862,2.862,0,0,0,2.862-2.862v-2.862a2.862,2.862,0,0,1,2.862-2.862H65.828a2.862,2.862,0,0,1,2.862,2.862v2.862a2.862,2.862,0,0,0,2.862,2.862v-8.586A8.586,8.586,0,0,0,62.966,120.207Z" fill="#463c4b"/>
            </g>
            <g id="Grupo_85619" data-name="Grupo 85619">
              <path id="Trazado_121486" data-name="Trazado 121486" d="M71.552,143.1v-8.586a2.862,2.862,0,0,1,2.862,2.862v2.862A2.862,2.862,0,0,1,71.552,143.1Z" fill="#f0915a"/>
            </g>
            <g id="Grupo_85620" data-name="Grupo 85620">
              <path id="Trazado_121487" data-name="Trazado 121487" d="M42.931,143.1v-8.586a2.862,2.862,0,0,0-2.862,2.862v2.862A2.862,2.862,0,0,0,42.931,143.1Z" fill="#f0915a"/>
            </g>
          </g>
          <g id="Grupo_85622" data-name="Grupo 85622">
            <path id="Trazado_121488" data-name="Trazado 121488" d="M71.552,128.793H42.931v-5.724a2.862,2.862,0,0,1,2.862-2.862h22.9a2.862,2.862,0,0,1,2.862,2.862Z" fill="#4182c3"/>
          </g>
          <g id="Grupo_85623" data-name="Grupo 85623">
            <path id="Trazado_121489" data-name="Trazado 121489" d="M42.931,125.931H71.552v2.862H42.931Z" fill="#23aae6"/>
          </g>
        </g>
      </g>
      <g id="Grupo_85636" data-name="Grupo 85636">
        <g id="Grupo_85626" data-name="Grupo 85626">
          <circle id="Elipse_5083" data-name="Elipse 5083" cx="34.345" cy="34.345" r="34.345" transform="translate(11.448 11.448)" fill="#f06423"/>
        </g>
        <g id="Grupo_85627" data-name="Grupo 85627">
          <path id="Trazado_121490" data-name="Trazado 121490" d="M14.31,48.655a2.862,2.862,0,0,1-2.862-2.862A34.384,34.384,0,0,1,45.793,11.448a2.862,2.862,0,0,1,0,5.724A28.653,28.653,0,0,0,17.172,45.793,2.862,2.862,0,0,1,14.31,48.655Z" fill="#faa019"/>
        </g>
        <g id="Grupo_85628" data-name="Grupo 85628">
          <circle id="Elipse_5084" data-name="Elipse 5084" cx="28.621" cy="28.621" r="28.621" transform="translate(17.172 17.172)" fill="#d7e6f0"/>
        </g>
        <g id="Grupo_85635" data-name="Grupo 85635">
          <g id="Grupo_85634" data-name="Grupo 85634">
            <g id="Grupo_85629" data-name="Grupo 85629">
              <path id="Trazado_121491" data-name="Trazado 121491" d="M51.517,57.241H40.069a8.586,8.586,0,0,1-8.586-8.586V31.483A8.586,8.586,0,0,1,40.069,22.9H51.517A8.586,8.586,0,0,1,60.1,31.483V48.655A8.586,8.586,0,0,1,51.517,57.241Z" fill="#fab991"/>
            </g>
            <g id="Grupo_85630" data-name="Grupo 85630">
              <path id="Trazado_121492" data-name="Trazado 121492" d="M40.069,57.241H51.517v5.724H40.069Z" fill="#f0915a"/>
            </g>
            <path id="Trazado_121493" data-name="Trazado 121493" d="M34.345,62.966a17.092,17.092,0,0,0-9.186,2.661,28.62,28.62,0,0,0,41.268,0,17.092,17.092,0,0,0-9.186-2.661Z" fill="#463c4b"/>
            <g id="Grupo_85631" data-name="Grupo 85631">
              <path id="Trazado_121494" data-name="Trazado 121494" d="M51.517,22.9H40.069a8.586,8.586,0,0,0-8.586,8.586v8.586a2.862,2.862,0,0,0,2.862-2.862V34.345a2.862,2.862,0,0,1,2.862-2.862H54.379a2.862,2.862,0,0,1,2.862,2.862v2.862A2.862,2.862,0,0,0,60.1,40.069V31.483A8.586,8.586,0,0,0,51.517,22.9Z" fill="#463c4b"/>
            </g>
            <g id="Grupo_85632" data-name="Grupo 85632">
              <path id="Trazado_121495" data-name="Trazado 121495" d="M60.1,45.793V37.207a2.862,2.862,0,0,1,2.862,2.862v2.862A2.862,2.862,0,0,1,60.1,45.793Z" fill="#f0915a"/>
            </g>
            <g id="Grupo_85633" data-name="Grupo 85633">
              <path id="Trazado_121496" data-name="Trazado 121496" d="M31.483,45.793V37.207a2.862,2.862,0,0,0-2.862,2.862v2.862A2.862,2.862,0,0,0,31.483,45.793Z" fill="#f0915a"/>
            </g>
            <path id="Trazado_121497" data-name="Trazado 121497" d="M51.517,62.966H40.069V73.841a28.889,28.889,0,0,0,11.448,0Z" fill="#d7e6f0"/>
          </g>
        </g>
      </g>
    </g>
  </g>
</svg>
