<svg xmlns="http://www.w3.org/2000/svg" width="295" height="339" viewBox="0 0 295 339">
  <g id="Grupo_85405" data-name="Grupo 85405" transform="translate(-1020 -14492)">
    <rect id="Rectángulo_34392" data-name="Rectángulo 34392" width="295" height="164" transform="translate(1020 14667)" fill="#deebad"/>
    <g id="fotosintesis" transform="translate(1009 14492)">
      <path id="Trazado_120994" data-name="Trazado 120994" d="M35.829,224.457a12.876,12.876,0,0,1,5.4,1.519,4.341,4.341,0,0,0,5.6-1.4,12.944,12.944,0,0,1,21.175.055,4.363,4.363,0,0,0,5.628,1.31,12.932,12.932,0,0,1,17.625,5.643,4.412,4.412,0,0,0,5.379,2.173,12.957,12.957,0,0,1,5.144-.621,12.664,12.664,0,0,1,4.538,1.236,8.61,8.61,0,0,0,7.472,0,12.674,12.674,0,0,1,4.538-1.236,12.967,12.967,0,0,1,5.144.621,4.413,4.413,0,0,0,5.38-2.174,12.932,12.932,0,0,1,17.685-5.61,4.342,4.342,0,0,0,5.6-1.4,12.944,12.944,0,0,1,21.175.055,4.363,4.363,0,0,0,5.628,1.31,12.933,12.933,0,0,1,17.626,5.643,4.412,4.412,0,0,0,5.379,2.173,12.959,12.959,0,0,1,5.144-.621,12.664,12.664,0,0,1,4.538,1.236,8.608,8.608,0,0,0,7.472,0,12.674,12.674,0,0,1,4.537-1.236,12.968,12.968,0,0,1,5.144.621,4.413,4.413,0,0,0,5.38-2.174,12.933,12.933,0,0,1,17.685-5.61,4.342,4.342,0,0,0,5.6-1.4,12.944,12.944,0,0,1,21.175.055,4.363,4.363,0,0,0,5.628,1.31,12.841,12.841,0,0,1,9.566-1.01,146.943,146.943,0,1,0-269.473,5.278,12.908,12.908,0,0,1,11.476-5.755Z" transform="translate(0 -8.805)" fill="#4b9fdb"/>
      <path id="Trazado_120995" data-name="Trazado 120995" d="M349.388,176.42q.186-3.716.188-7.478A147.028,147.028,0,0,0,161.234,27.924a121.256,121.256,0,0,0,31.238,198.485,4.4,4.4,0,0,0,4.368-1.829,12.944,12.944,0,0,1,21.175.055,4.362,4.362,0,0,0,5.628,1.31,12.933,12.933,0,0,1,17.626,5.643,4.412,4.412,0,0,0,5.379,2.173,12.959,12.959,0,0,1,5.144-.621,12.665,12.665,0,0,1,4.538,1.236,8.609,8.609,0,0,0,7.473,0,12.674,12.674,0,0,1,4.537-1.236,12.968,12.968,0,0,1,5.144.621,4.611,4.611,0,0,0,.931.2c1.082-.28,2.156-.579,3.226-.888a4.331,4.331,0,0,0,1.223-1.489,12.925,12.925,0,0,1,17.546-5.68,121.769,121.769,0,0,0,52.977-49.487Z" transform="translate(-44.694 -8.805)" fill="#64b6ec"/>
      <path id="Trazado_120996" data-name="Trazado 120996" d="M308.535,155.622a75.8,75.8,0,0,0,71-49.247A147.011,147.011,0,0,0,258.651,22.806a75.775,75.775,0,0,0,49.884,132.816Z" transform="translate(-88.756 -9.128)" fill="#7dcfff"/>
      <path id="Trazado_120997" data-name="Trazado 120997" d="M298.3,353.995a12.875,12.875,0,0,0-5.341,1.487,4.363,4.363,0,0,1-5.628-1.31,12.944,12.944,0,0,0-21.175-.055,4.343,4.343,0,0,1-5.6,1.4,12.933,12.933,0,0,0-17.685,5.61,4.413,4.413,0,0,1-5.38,2.173,12.969,12.969,0,0,0-5.144-.621,12.66,12.66,0,0,0-4.537,1.236,8.609,8.609,0,0,1-7.473,0,12.678,12.678,0,0,0-4.538-1.236,12.957,12.957,0,0,0-5.144.621,4.412,4.412,0,0,1-5.379-2.173,12.933,12.933,0,0,0-17.626-5.643,4.363,4.363,0,0,1-5.628-1.31,12.944,12.944,0,0,0-21.175-.055,4.343,4.343,0,0,1-5.6,1.4,12.932,12.932,0,0,0-17.685,5.61,4.413,4.413,0,0,1-5.38,2.173,12.968,12.968,0,0,0-5.144-.621,12.662,12.662,0,0,0-4.538,1.236,8.608,8.608,0,0,1-7.472,0,12.665,12.665,0,0,0-4.538-1.236,12.959,12.959,0,0,0-5.144.621,4.412,4.412,0,0,1-5.379-2.173,12.933,12.933,0,0,0-17.626-5.643,4.363,4.363,0,0,1-5.628-1.31,12.944,12.944,0,0,0-21.175-.055,4.342,4.342,0,0,1-5.6,1.4,12.93,12.93,0,0,0-17.2,4.738A146.728,146.728,0,0,0,46.3,384.015a12.838,12.838,0,0,1,3.624,1.292,4.342,4.342,0,0,0,5.6-1.4,12.944,12.944,0,0,1,21.175.055,4.362,4.362,0,0,0,5.628,1.31,12.933,12.933,0,0,1,17.626,5.643,4.412,4.412,0,0,0,5.379,2.173,12.959,12.959,0,0,1,5.144-.621,12.665,12.665,0,0,1,4.538,1.235,8.61,8.61,0,0,0,7.472,0,12.662,12.662,0,0,1,4.538-1.235,12.97,12.97,0,0,1,5.144.621,4.413,4.413,0,0,0,5.38-2.174,12.932,12.932,0,0,1,17.685-5.61,4.343,4.343,0,0,0,5.6-1.4,12.944,12.944,0,0,1,21.175.055,4.362,4.362,0,0,0,5.628,1.31,12.933,12.933,0,0,1,17.626,5.643,4.412,4.412,0,0,0,5.379,2.173,12.958,12.958,0,0,1,5.144-.621,12.665,12.665,0,0,1,4.538,1.236,8.612,8.612,0,0,0,7.473,0,12.658,12.658,0,0,1,4.537-1.235,12.968,12.968,0,0,1,5.144.621,4.413,4.413,0,0,0,5.38-2.173,12.933,12.933,0,0,1,17.685-5.61,4.343,4.343,0,0,0,5.6-1.4,12.937,12.937,0,0,1,21.007-.169,146.6,146.6,0,0,0,15.8-29.15,12.868,12.868,0,0,0-4.665-.6Z" transform="translate(-8.693 -139.542)" fill="#c04a27"/>
      <path id="Trazado_120998" data-name="Trazado 120998" d="M122.49,393.705a12.662,12.662,0,0,1,4.538-1.235,12.97,12.97,0,0,1,5.144.621,4.413,4.413,0,0,0,5.38-2.173,12.932,12.932,0,0,1,17.685-5.61,4.343,4.343,0,0,0,5.6-1.4,12.933,12.933,0,0,1,16.778-3.878,12.925,12.925,0,0,1,11.9-8.637,4.363,4.363,0,0,0,4.207-3.961A12.917,12.917,0,0,1,201.7,356.75a12.92,12.92,0,0,0-14.054-1.267,4.363,4.363,0,0,1-5.628-1.31,12.944,12.944,0,0,0-21.175-.055,4.343,4.343,0,0,1-5.6,1.4,12.932,12.932,0,0,0-17.685,5.61,4.413,4.413,0,0,1-5.38,2.174,12.968,12.968,0,0,0-5.144-.621,12.662,12.662,0,0,0-4.538,1.236,8.608,8.608,0,0,1-7.472,0,12.665,12.665,0,0,0-4.538-1.236,12.961,12.961,0,0,0-5.144.621,4.412,4.412,0,0,1-5.379-2.173,12.932,12.932,0,0,0-17.625-5.643,4.363,4.363,0,0,1-5.628-1.31,12.944,12.944,0,0,0-21.175-.055,4.342,4.342,0,0,1-5.6,1.4,12.93,12.93,0,0,0-17.2,4.738A146.685,146.685,0,0,0,46.3,384.016a12.837,12.837,0,0,1,3.624,1.292,4.342,4.342,0,0,0,5.6-1.4,12.944,12.944,0,0,1,21.175.055,4.362,4.362,0,0,0,5.628,1.31,12.932,12.932,0,0,1,17.625,5.643,4.412,4.412,0,0,0,5.379,2.173,12.96,12.96,0,0,1,5.144-.621,12.665,12.665,0,0,1,4.538,1.236,8.613,8.613,0,0,0,7.474,0Z" transform="translate(-8.693 -139.543)" fill="#b2381b"/>
      <path id="Trazado_120999" data-name="Trazado 120999" d="M131.433,177.329a288.589,288.589,0,0,0-21.293-54.494c-.411-47.24,4.715-88.5,18.29-122.257.6-1.5,2.461.22,1.914,1.759C116.531,41.233,126.289,136.2,131.433,177.329Z" transform="translate(-39.671 0)" fill="#a3ea6e"/>
      <path id="Trazado_121000" data-name="Trazado 121000" d="M132.11,71.288a3.193,3.193,0,0,1-1.875-3.205,21.97,21.97,0,0,1,30.778-18.01,3.194,3.194,0,0,1,1.875,3.205,21.97,21.97,0,0,1-30.778,18.01Z" transform="translate(-47.717 -19.286)" fill="#85d249"/>
      <path id="Trazado_121001" data-name="Trazado 121001" d="M144.731,50.31a21.991,21.991,0,0,0-14.5,18.624,3.194,3.194,0,0,0,1.875,3.205,22,22,0,0,0,23.271-3.456c-10.351,2.885-18.533-10.833-10.648-18.373Z" transform="translate(-47.716 -20.136)" fill="#60b550"/>
      <path id="Trazado_121002" data-name="Trazado 121002" d="M247.323,175.958a3.82,3.82,0,0,0-5.534-2.525c-7.383,3.975-24.279,11.853-49.517,16.582-26.983,5.055-33.618,26.392-34.865,41.306a23.356,23.356,0,0,0,16.487,24.39c10.435,3.112,26.062,3.615,47.254-6.338C256.764,232.644,250.634,190.451,247.323,175.958Z" transform="translate(-58.565 -69.231)" fill="#85d249"/>
      <path id="Trazado_121003" data-name="Trazado 121003" d="M197.126,232.74c5.349-18.94-13.4-25.976-13.4-25.976l-.8-.91c-19.235,7.709-24.431,25.612-25.519,38.626a23.357,23.357,0,0,0,16.487,24.39c9.543,2.846,23.429,3.5,41.94-4.014C220.721,237.436,197.126,232.74,197.126,232.74Z" transform="translate(-58.564 -82.391)" fill="#60b550"/>
      <g id="Grupo_85371" data-name="Grupo 85371" transform="translate(85.21 120.419)">
        <path id="Trazado_121004" data-name="Trazado 121004" d="M245.8,232.39a3.819,3.819,0,0,1-2.717-6.3c3.909-4.566,1.219-9.982,1.1-10.21a3.82,3.82,0,0,1,6.758-3.562c.219.411,5.278,10.171-2.057,18.739A3.818,3.818,0,0,1,245.8,232.39Z" transform="translate(-177.732 -204.583)" fill="#a3ea6e"/>
        <path id="Trazado_121005" data-name="Trazado 121005" d="M201.854,246.248a3.819,3.819,0,0,1-2.717-6.3c5.37-6.273-.209-14.22-.449-14.556a3.819,3.819,0,0,1,6.178-4.493c3.287,4.5,7.534,15.3.074,24.017A3.814,3.814,0,0,1,201.854,246.248Z" transform="translate(-160.043 -208.207)" fill="#a3ea6e"/>
        <path id="Trazado_121006" data-name="Trazado 121006" d="M251.337,257.368a27.991,27.991,0,0,0-23.115-8.9,3.819,3.819,0,0,1-.59-7.616,35.678,35.678,0,0,1,29.641,11.7,3.819,3.819,0,0,1-5.935,4.808Z" transform="translate(-170.504 -216.771)" fill="#a3ea6e"/>
        <path id="Trazado_121007" data-name="Trazado 121007" d="M211.289,276.679c-5.06-10.789-20.578-10.644-20.735-10.64a3.82,3.82,0,0,1-.163-7.637,39.718,39.718,0,0,1,10.968,1.606c8,2.35,13.829,6.993,16.846,13.428a3.819,3.819,0,1,1-6.916,3.243Z" transform="translate(-155.517 -223.841)" fill="#a3ea6e"/>
        <path id="Trazado_121008" data-name="Trazado 121008" d="M225.69,200.823a3.82,3.82,0,0,0-4.352,3.2c-.019.126-2.7,12.846-30.264,20.984-31.172,9.2-48.674,34.082-49.861,35.813a60.585,60.585,0,0,0-3.479,5.49,22.458,22.458,0,0,0-3,11.309,18.888,18.888,0,0,0,1.137,6.362,7.171,7.171,0,0,0,13.607-.516c2.981-10.642,8.524-20.843,16.586-30.489a99.32,99.32,0,0,1,19.478-17.914,76.489,76.489,0,0,1,7.693-2.73c32.62-9.63,35.545-26.447,35.653-27.158A3.819,3.819,0,0,0,225.69,200.823Z" transform="translate(-134.733 -200.778)" fill="#a3ea6e"/>
      </g>
      <path id="Trazado_121009" data-name="Trazado 121009" d="M97.885,301.5a12.933,12.933,0,0,1,15.024,6.68,4.411,4.411,0,0,0,5.379,2.172,12.97,12.97,0,0,1,5.144-.621,12.665,12.665,0,0,1,4.538,1.236,8.471,8.471,0,0,0,2.08.682c-8.319-74.93-25.693-127.2-62.575-170.492-1.13-1.327-3.158.78-2.092,2.159,26.7,34.531,31.648,120.066,32.5,158.186Z" transform="translate(-21.646 -56.328)" fill="#85d249"/>
      <path id="Trazado_121010" data-name="Trazado 121010" d="M133.175,385.163a4.411,4.411,0,0,0,5.379,2.172,12.97,12.97,0,0,1,5.144-.621,12.665,12.665,0,0,1,4.538,1.236,8.471,8.471,0,0,0,2.08.682,545.759,545.759,0,0,0-8.495-53.978c-14.4,13.536-26.1-1.577-26.1-1.577h0c1.528,17.689,2.173,33.761,2.434,45.406a12.932,12.932,0,0,1,15.023,6.68Z" transform="translate(-41.912 -133.31)" fill="#60b550"/>
      <path id="Trazado_121011" data-name="Trazado 121011" d="M296.02,402.039a4.32,4.32,0,0,1-.319-.4,12.944,12.944,0,0,0-21.175-.055,4.343,4.343,0,0,1-5.6,1.4,12.933,12.933,0,0,0-17.685,5.61,4.414,4.414,0,0,1-5.38,2.174,12.969,12.969,0,0,0-5.144-.621,12.671,12.671,0,0,0-4.537,1.235,8.612,8.612,0,0,1-7.473,0,12.665,12.665,0,0,0-4.538-1.236,12.958,12.958,0,0,0-5.144.621,4.412,4.412,0,0,1-5.379-2.172,12.933,12.933,0,0,0-17.626-5.643,4.363,4.363,0,0,1-5.628-1.31,12.944,12.944,0,0,0-21.175-.055,4.343,4.343,0,0,1-5.6,1.4,12.932,12.932,0,0,0-17.685,5.61,4.414,4.414,0,0,1-5.38,2.174,12.969,12.969,0,0,0-5.144-.621,12.674,12.674,0,0,0-4.538,1.235,8.61,8.61,0,0,1-7.472,0,12.665,12.665,0,0,0-4.538-1.236,12.96,12.96,0,0,0-5.144.621,4.412,4.412,0,0,1-5.379-2.172A12.932,12.932,0,0,0,90.7,402.952a4.363,4.363,0,0,1-5.628-1.31,12.944,12.944,0,0,0-21.175-.055,4.342,4.342,0,0,1-5.6,1.4,12.862,12.862,0,0,0-4.654-1.455,146.953,146.953,0,0,0,242.376.51Z" transform="translate(-17.068 -158.542)" fill="#d85e41"/>
      <path id="Trazado_121012" data-name="Trazado 121012" d="M150.412,461.138a12.661,12.661,0,0,1,3.855-2.7,8.611,8.611,0,0,0,4.784-5.741,12.649,12.649,0,0,1,1.956-4.276,12.978,12.978,0,0,1,3.77-3.555,4.412,4.412,0,0,0,1.774-5.524,12.933,12.933,0,0,1,7.012-17.178,4.343,4.343,0,0,0,2.514-5.2,12.943,12.943,0,0,1,13.6-16.232h.014a12.935,12.935,0,0,0-20.473.847,4.343,4.343,0,0,1-5.6,1.4,12.932,12.932,0,0,0-17.685,5.61,4.414,4.414,0,0,1-5.38,2.174,12.968,12.968,0,0,0-5.144-.621,12.673,12.673,0,0,0-4.538,1.235,8.61,8.61,0,0,1-7.472,0,12.664,12.664,0,0,0-4.538-1.236,12.961,12.961,0,0,0-5.144.621,4.412,4.412,0,0,1-5.379-2.172,12.932,12.932,0,0,0-17.625-5.643,4.363,4.363,0,0,1-5.628-1.31,12.944,12.944,0,0,0-21.175-.055,4.342,4.342,0,0,1-5.6,1.4,12.862,12.862,0,0,0-4.654-1.455,147,147,0,0,0,95.079,61.741,13.156,13.156,0,0,1,1.687-2.13Z" transform="translate(-17.069 -158.541)" fill="#c04a27"/>
      <path id="Trazado_121013" data-name="Trazado 121013" d="M392.018,74.125a147.02,147.02,0,0,0-62.329-40.053,37.34,37.34,0,0,0,62.329,40.053Z" transform="translate(-126.098 -13.637)" fill="#ffe400"/>
      <path id="Trazado_121014" data-name="Trazado 121014" d="M386.226,68.2a28.515,28.515,0,0,1-46.992-30.635q-4.7-1.9-9.545-3.494a37.34,37.34,0,0,0,62.329,40.053q-2.81-3.044-5.792-5.924Z" transform="translate(-126.098 -13.637)" fill="#fdca00"/>
      <path id="Trazado_121015" data-name="Trazado 121015" d="M385.657,156.834a3.98,3.98,0,0,1-3.981-3.981v-8.091a3.981,3.981,0,1,1,7.961,0v8.091A3.98,3.98,0,0,1,385.657,156.834Z" transform="translate(-148.36 -56.347)" fill="#ffe400"/>
      <path id="Trazado_121016" data-name="Trazado 121016" d="M429.521,142.166l-4.045-7.007a3.98,3.98,0,1,1,6.894-3.981l4.045,7.007a3.98,3.98,0,1,1-6.894,3.981Z" transform="translate(-165.676 -51.706)" fill="#ffe400"/>
      <path id="Trazado_121017" data-name="Trazado 121017" d="M333.653,143.623a3.981,3.981,0,0,1-1.457-5.437l4.045-7.007a3.98,3.98,0,1,1,6.894,3.981l-4.045,7.007A3.98,3.98,0,0,1,333.653,143.623Z" transform="translate(-128.342 -51.706)" fill="#ffe400"/>
      <path id="Trazado_121018" data-name="Trazado 121018" d="M295.586,107.531a3.981,3.981,0,0,1,1.457-5.437l7.006-4.046a3.98,3.98,0,1,1,3.981,6.894l-7.007,4.046A3.98,3.98,0,0,1,295.586,107.531Z" transform="translate(-113.689 -39.029)" fill="#ffe400"/>
      <path id="Trazado_121019" data-name="Trazado 121019" d="M293.723,62.209h-8.091a3.981,3.981,0,1,1,0-7.961h8.091a3.981,3.981,0,0,1,0,7.961Z" transform="translate(-108.326 -21.712)" fill="#ffe400"/>
      <path id="Trazado_121020" data-name="Trazado 121020" d="M161.769,138.392a17.255,17.255,0,1,1,17.255-17.255A17.274,17.274,0,0,1,161.769,138.392Zm0-25.513a8.259,8.259,0,1,0,8.259,8.259A8.267,8.267,0,0,0,161.769,112.879Z" transform="translate(-53.438 -41.578)" fill="#e1eaf9"/>
      <path id="Trazado_121021" data-name="Trazado 121021" d="M213.629,163.712h-7.014a4.5,4.5,0,0,1-3.229-7.63l3.347-3.451a4.5,4.5,0,0,1-3-7.949,8.2,8.2,0,0,1,10.968.74,8.467,8.467,0,0,1,1.339,9.993,4.5,4.5,0,0,1-2.409,8.3Z" transform="translate(-76.493 -57.202)" fill="#e1eaf9"/>
    </g>
  </g>
</svg>
