<svg xmlns="http://www.w3.org/2000/svg" xmlns:xlink="http://www.w3.org/1999/xlink" width="190" height="166" viewBox="0 0 190 166">
  <defs>
    <clipPath id="clip-path">
      <rect id="Imagen_8" data-name="Imagen 8" width="190" height="166" rx="19" transform="translate(915 4272)" fill="#01f6ff"/>
    </clipPath>
  </defs>
  <g id="Enmascarar_grupo_144" data-name="Enmascarar grupo 144" transform="translate(-915 -4272)" clip-path="url(#clip-path)">
    <g id="tierra" transform="translate(927 4272)">
      <path id="Trazado_121305" data-name="Trazado 121305" d="M166,83A83,83,0,1,1,83,0,83,83,0,0,1,166,83Z" fill="#0a4499"/>
      <path id="Trazado_121306" data-name="Trazado 121306" d="M149.667,93.225a66.977,66.977,0,0,1-6.99,21.213c-2.032,3.848-6.672,5.851-9.381,9.214-11.565,9.318-24.023,16.522-40.031,16.522A67.438,67.438,0,0,1,25.827,72.736c0-16.008,6.763-26.589,16.08-38.154,1.73-1.393,2.345-6.827,4.209-8.047a67.507,67.507,0,0,1,69.812-2.4c2.717,1.523.551,7.085,3.019,8.957,16.237,12.314,26.269,29.153,26.269,51.1C145.216,87.669,150.175,89.891,149.667,93.225Z" fill="#2476ed"/>
      <path id="Trazado_121307" data-name="Trazado 121307" d="M105.909,146.447A67.314,67.314,0,0,1,83,150.438q-2.723,0-5.394-.213c-1.393-.111-4.034-3.562-5.4-3.756-22.8-3.238-39.332-16.62-48.84-36.724-.556-1.176-2.447-.363-2.935-1.575a67.061,67.061,0,0,1-4.843-23.344c-.016-.607,1.652-1.215,1.652-1.826a64.781,64.781,0,0,1,2.373-17.128c1.955-7.3,10.971-6.256,10.87,1.3q-.008.6-.006,1.206A67.6,67.6,0,0,0,97.7,135.523q2.906.009,5.752-.224C110.127,134.757,112.21,144.171,105.909,146.447Z" fill="#0a66ea"/>
      <path id="Trazado_121308" data-name="Trazado 121308" d="M15.587,84.825q-.024-.909-.024-1.825A67.38,67.38,0,0,1,46.116,26.534C53.9,27.894,60.834,30.5,61.8,34.995c1.074,4.985-5.45,11.153-14.4,19.619-7.7,7.281-11.09,8.237-11.424,12.169-.618,7.288,10.439,10.981,9.437,18.377-.5,3.717-3.829,6.726-6.705,7.947-6.492,2.757-15.657-1.493-23.119-8.281Zm40.255,48.511c-5.518-10.715,5.348-20.724.248-27.565-6.017-8.072-28.506-4.018-35.672,2.4a67.486,67.486,0,0,0,57.189,42.051q-.246-.6-.539-1.166c-4.747-9.137-16.238-6.038-21.226-15.723Zm31.787-7.2c.6,6.471,15.86,5.912,18.377,15.149a8.962,8.962,0,0,1-.157,5.185,67.661,67.661,0,0,0,36.828-32.031A45.574,45.574,0,0,0,122.148,109c-17.432-.341-35.179,9.985-34.519,17.135Zm28.3-102c-3.417-1.915-24.584,2.451-24.823,7.135-.33,6.464,10.665,9.462,9.933,15.4-1.049,8.5-24.077,6.045-30.794,18.874-5.8,11.069,2.322,29.893,11.92,32.78.563.169,4.369,1.314,7.7-.5,3.8-2.069,3.273-6.028,6.208-10.679,3.545-5.617,10.885-10.265,17.549-9.8,6.148.433,11.877,5.235,14.7,7.6a54.7,54.7,0,0,0,7.2,5.065,28.217,28.217,0,0,0,3.757,1.847,21.668,21.668,0,0,0,10.384,1.361,67.549,67.549,0,0,0-33.739-69.09Z" fill="#1ed688"/>
      <path id="Trazado_121309" data-name="Trazado 121309" d="M77.067,149.059q.294.566.539,1.166a67.485,67.485,0,0,1-57.189-42.051c3.685-3.3,11.424-5.978,18.89-6.7a67.764,67.764,0,0,0,15.887,18.8c-1.086,4.1-1.694,8.521.647,13.067C60.829,143.021,72.321,139.922,77.067,149.059Zm24.387-13.627a10.31,10.31,0,0,1,4.551,5.852,8.96,8.96,0,0,1-.157,5.185,67.611,67.611,0,0,0,31.711-23.823,67.085,67.085,0,0,1-36.1,12.787ZM35.59,93.891a67.541,67.541,0,0,1,7.765-65.451A67.346,67.346,0,0,0,15.562,83q0,.916.024,1.825c6.332,5.76,13.892,9.693,20,9.066Z" fill="#1ab975"/>
      <path id="Trazado_121310" data-name="Trazado 121310" d="M152.829,80.612c0-.022,0-.044,0-.066A69.869,69.869,0,0,0,33.6,33.6,69.373,69.373,0,0,0,13.173,80.547c0,.022,0,.044,0,.066q-.04,1.191-.04,2.388A69.869,69.869,0,0,0,132.4,132.4,69.413,69.413,0,0,0,152.869,83q0-1.2-.04-2.388Zm-4.967-1.956a342.068,342.068,0,0,1-35.205,4.514c0-.057,0-.113,0-.17a152.08,152.08,0,0,0-3.8-34.7c9.243-.61,18.333-1.55,27.2-2.815A64.618,64.618,0,0,1,147.862,78.657Zm-15.24-37.606c-8.174,1.1-16.53,1.917-25.016,2.456a91.155,91.155,0,0,0-3.1-9.1c-2.633-6.521-5.74-11.65-9.17-15.236a65.043,65.043,0,0,1,37.286,21.882ZM83,84.293q-12.572,0-24.793-.78,0-.256,0-.513a146.168,146.168,0,0,1,3.867-34.407q10.36.55,20.927.551t20.927-.551A146.181,146.181,0,0,1,107.794,83q0,.257,0,.513-12.207.779-24.793.78Zm24.707,4.1A133.817,133.817,0,0,1,102.2,123.6q-9.512.468-19.2.469T63.8,123.6a133.832,133.832,0,0,1-5.507-35.206q12.17.764,24.707.765T107.707,88.391ZM83,17.994c6.124,0,12.319,6.645,17,18.23.96,2.377,1.837,4.906,2.629,7.565Q92.9,44.279,83,44.28t-19.625-.49c.792-2.659,1.669-5.188,2.629-7.565C70.681,24.639,76.876,17.994,83,17.994ZM70.664,19.168c-3.43,3.586-6.538,8.714-9.17,15.236a91.183,91.183,0,0,0-3.1,9.1c-8.486-.539-16.842-1.359-25.016-2.456A65.043,65.043,0,0,1,70.664,19.168ZM29.939,45.485c8.871,1.264,17.962,2.2,27.2,2.815a152.083,152.083,0,0,0-3.8,34.7c0,.057,0,.114,0,.17a342.068,342.068,0,0,1-35.205-4.514,64.629,64.629,0,0,1,11.8-33.172Zm-.124,74.855A64.638,64.638,0,0,1,18,83.574a347.868,347.868,0,0,0,35.42,4.479,141.633,141.633,0,0,0,5.213,35.254C48.825,122.691,39.194,121.7,29.815,120.339Zm4.335,5.5c8.526,1.108,17.24,1.921,26.088,2.433q.6,1.7,1.256,3.319c2.633,6.521,5.74,11.65,9.17,15.236A65.022,65.022,0,0,1,34.15,125.844ZM83,148.006c-6.124,0-12.319-6.645-17-18.23q-.246-.608-.484-1.229,8.671.383,17.48.383t17.48-.383q-.238.621-.484,1.229c-4.677,11.586-10.872,18.23-17,18.23Zm12.336-1.174c3.431-3.586,6.538-8.715,9.17-15.236q.653-1.617,1.256-3.319c8.848-.512,17.562-1.324,26.088-2.433a65.022,65.022,0,0,1-36.514,20.987Zm40.849-26.492c-9.379,1.36-19.011,2.352-28.815,2.968a141.631,141.631,0,0,0,5.213-35.254A347.866,347.866,0,0,0,148,83.574,64.638,64.638,0,0,1,136.185,120.339Z" fill="#5596fb"/>
      <path id="Trazado_121311" data-name="Trazado 121311" d="M143,15.4V79.434a4.863,4.863,0,0,1-4.863,4.863h-37.69a4.863,4.863,0,0,1-4.863-4.863V15.4a4.863,4.863,0,0,1,4.863-4.863h4.791V3.242A3.242,3.242,0,0,1,108.476,0H130.1a3.242,3.242,0,0,1,3.242,3.242v7.295h4.791A4.863,4.863,0,0,1,143,15.4Z" fill="#dce6eb"/>
      <path id="Trazado_121312" data-name="Trazado 121312" d="M143,15.4V79.434a4.863,4.863,0,0,1-4.863,4.863h-37.69a4.863,4.863,0,0,1-4.863-4.863V15.4a4.863,4.863,0,0,1,4.863-4.863h4.791V3.242A3.242,3.242,0,0,1,108.476,0H130.1a3.242,3.242,0,0,1,3.242,3.242v7.295h4.791A4.863,4.863,0,0,1,143,15.4Z" fill="#dce6eb"/>
      <path id="Trazado_121313" data-name="Trazado 121313" d="M127.541,73.76H111.036a3.242,3.242,0,0,1-3.242-3.242V61.2a3.242,3.242,0,0,1,3.242-3.242h16.506a3.242,3.242,0,0,1,3.242,3.242v9.321A3.242,3.242,0,0,1,127.541,73.76Z" fill="#fb5858"/>
      <path id="Trazado_121314" data-name="Trazado 121314" d="M117.221,73.76h-6.185a3.242,3.242,0,0,1-3.242-3.242V61.2a3.242,3.242,0,0,1,3.242-3.242h6.185a3.242,3.242,0,0,0-3.242,3.242v9.321A3.242,3.242,0,0,0,117.221,73.76Z" fill="#f44545"/>
      <path id="Trazado_121315" data-name="Trazado 121315" d="M127.541,51.875H111.036a3.242,3.242,0,1,1,0-6.484h16.506a3.242,3.242,0,1,1,0,6.484Z" fill="#b9d3fd"/>
      <path id="Trazado_121316" data-name="Trazado 121316" d="M124.769,14.752a3.242,3.242,0,0,1-3.242,3.242H108.842a4.863,4.863,0,0,0-4.863,4.863V79.434a4.863,4.863,0,0,0,4.863,4.863h-8.4a4.863,4.863,0,0,1-4.863-4.863V15.4a4.863,4.863,0,0,1,4.863-4.863h4.791V3.242A3.242,3.242,0,0,1,108.476,0h8.4a3.242,3.242,0,0,0-3.242,3.242V11.51h7.9A3.242,3.242,0,0,1,124.769,14.752Z" fill="#b9d3fd"/>
      <path id="Trazado_121317" data-name="Trazado 121317" d="M91.83,54.946a2.431,2.431,0,0,1,0,3.439L86.1,64.116a2.432,2.432,0,0,1-3.439-3.439l5.732-5.732A2.432,2.432,0,0,1,91.83,54.946Zm-4.291-5.5a2.432,2.432,0,0,0-2.432-2.432H77a2.432,2.432,0,0,0,0,4.863h8.105A2.432,2.432,0,0,0,87.539,49.443ZM86.1,36.146a2.432,2.432,0,1,0-3.439,3.439l5.732,5.732a2.432,2.432,0,0,0,3.439-3.439Zm60.513,9.17a2.431,2.431,0,0,0,3.439,0l5.732-5.732a2.432,2.432,0,0,0-3.439-3.439l-5.732,5.732A2.432,2.432,0,0,0,146.611,45.317Zm14.828,3.071h-8.105a2.432,2.432,0,0,0,0,4.863h8.105a2.432,2.432,0,0,0,0-4.863Zm-11.389,6.558a2.432,2.432,0,0,0-3.439,3.439l5.732,5.732a2.432,2.432,0,0,0,3.439-3.439Z" fill="#c8e2fd"/>
    </g>
  </g>
</svg>
