<svg xmlns="http://www.w3.org/2000/svg" xmlns:xlink="http://www.w3.org/1999/xlink" width="190" height="166" viewBox="0 0 190 166">
  <defs>
    <clipPath id="clip-path">
      <rect id="Imagen_10" data-name="Imagen 10" width="190" height="166" rx="19" transform="translate(495 4901)" fill="#01f6ff"/>
    </clipPath>
  </defs>
  <g id="Enmascarar_grupo_147" data-name="Enmascarar grupo 147" transform="translate(-495 -4901)" clip-path="url(#clip-path)">
    <g id="la-biodiversidad_1_" data-name="la-biodiversidad (1)" transform="translate(507 4901)">
      <g id="Grupo_85559" data-name="Grupo 85559">
        <path id="Trazado_121376" data-name="Trazado 121376" d="M80.15,87.027a2.918,2.918,0,0,1-2.709-4l2.594-6.484a2.9,2.9,0,0,1,2.709-1.834h52.688a.648.648,0,0,0,.458-1.107l-3.23-3.23a1.3,1.3,0,0,1,0-1.834l3.9-3.9a1.3,1.3,0,0,1,1.834,0l9.023,9.024a3.545,3.545,0,0,0,2.522,1.045h11.2l.367-.324A79.44,79.44,0,1,0,14.867,127.418l.372.324H150.762l.372-.324a79.042,79.042,0,0,0,11.294-40.066l-.642-.324Z" fill="#99e6fc"/>
      </g>
      <g id="Grupo_85562" data-name="Grupo 85562">
        <path id="Trazado_121377" data-name="Trazado 121377" d="M111.413,67.665a27.179,27.179,0,0,1-5.246-.771v7.812h5.246Z" fill="#fea613"/>
        <path id="Trazado_121378" data-name="Trazado 121378" d="M122.08,67.161a27.286,27.286,0,0,1-5.246.534v7.012h5.246Z" fill="#fea613"/>
        <g id="Grupo_85561" data-name="Grupo 85561">
          <g id="Grupo_85560" data-name="Grupo 85560">
            <path id="Trazado_121379" data-name="Trazado 121379" d="M85.452,33.843c0-.22.011-.438.027-.654H83.907a6.576,6.576,0,0,0-6.383,4.995,1.3,1.3,0,0,0,1.288,1.578h6.64Z" fill="#fea613"/>
            <path id="Trazado_121380" data-name="Trazado 121380" d="M138.066,51.854a17.237,17.237,0,0,1-5.733-.96c-.1-.051-.2-.1-.3-.154A19.375,19.375,0,0,1,101.023,47.6c-1.524-2.566-1.8-4.968-.778-6.763.938-1.648,2.875-2.614,5.493-2.762a6.543,6.543,0,0,1-1.548-4.233,9.2,9.2,0,0,0-9.2-9.2H94.33a9.2,9.2,0,0,0-9.2,9.2v6.573a27.607,27.607,0,0,0,27.607,27.607h3.944a27.609,27.609,0,0,0,25.327-16.616A17.586,17.586,0,0,1,138.066,51.854Z" fill="#dff6fd"/>
            <path id="Trazado_121381" data-name="Trazado 121381" d="M90.631,40.416V33.843a9.2,9.2,0,0,1,6.779-8.878,9.2,9.2,0,0,0-2.423-.325H94.33a9.2,9.2,0,0,0-9.2,9.2v6.573a27.607,27.607,0,0,0,27.607,27.607h3.944c.262,0,.52-.012.78-.02A27.6,27.6,0,0,1,90.631,40.416Z" fill="#c8effe"/>
            <path id="Trazado_121382" data-name="Trazado 121382" d="M152.357,39.759H136.933a19.261,19.261,0,0,1-5.167,11.272,17.565,17.565,0,0,0,6.3,1.147c7.986,0,14.513-5.175,14.964-11.7a.676.676,0,0,0-.673-.722Z" fill="#c8effe"/>
            <circle id="Elipse_5074" data-name="Elipse 5074" cx="2.472" cy="2.472" r="2.472" transform="translate(90.457 31.083)" fill="#596c76"/>
            <path id="Trazado_121383" data-name="Trazado 121383" d="M136.461,37.73a.879.879,0,0,1,.883.927,19.687,19.687,0,0,1-36.6,9.11c-3.279-5.52-.709-10.037,5.712-10.037Z" fill="#01c0fa"/>
            <path id="Trazado_121384" data-name="Trazado 121384" d="M124.614,54.793a19.675,19.675,0,0,1-16.937-9.647c-1.74-2.93-1.832-5.577-.577-7.416h-.644c-6.421,0-8.991,4.516-5.712,10.037a19.683,19.683,0,0,0,27.24,6.733,19.775,19.775,0,0,1-3.371.293Z" fill="#26a6fe"/>
          </g>
        </g>
      </g>
      <g id="Grupo_85572" data-name="Grupo 85572">
        <g id="Grupo_85565" data-name="Grupo 85565">
          <g id="Grupo_85563" data-name="Grupo 85563">
            <path id="Trazado_121385" data-name="Trazado 121385" d="M133.748,105.885a19.48,19.48,0,0,0-5.72,14.081.669.669,0,0,0,.661.661,19.536,19.536,0,0,0,19.8-19.8.669.669,0,0,0-.661-.661A19.479,19.479,0,0,0,133.748,105.885Z" fill="#3ec3a4"/>
          </g>
          <path id="Trazado_121386" data-name="Trazado 121386" d="M136.382,108.5a19.453,19.453,0,0,1,12.028-5.638,19.663,19.663,0,0,0,.081-2.035.669.669,0,0,0-.661-.661,19.536,19.536,0,0,0-19.8,19.8.669.669,0,0,0,.661.661,19.651,19.651,0,0,0,2.054-.083A19.456,19.456,0,0,1,136.382,108.5Z" fill="#0bb494"/>
          <g id="Grupo_85564" data-name="Grupo 85564">
            <path id="Trazado_121387" data-name="Trazado 121387" d="M113.4,114.908a19.48,19.48,0,0,0,14.081,5.72.669.669,0,0,0,.661-.661,19.536,19.536,0,0,0-19.8-19.8.669.669,0,0,0-.661.661A19.48,19.48,0,0,0,113.4,114.908Z" fill="#3ec3a4"/>
          </g>
          <path id="Trazado_121388" data-name="Trazado 121388" d="M116.24,112.294a19.452,19.452,0,0,1-5.637-12.023,19.687,19.687,0,0,0-2.262-.105.669.669,0,0,0-.661.661,19.536,19.536,0,0,0,19.8,19.8.669.669,0,0,0,.661-.661,19.648,19.648,0,0,0-.083-2.058A19.451,19.451,0,0,1,116.24,112.294Z" fill="#0bb494"/>
          <path id="Trazado_121389" data-name="Trazado 121389" d="M125.653,121.578v6.164h4.863v-6.164L139,113.092a2.432,2.432,0,1,0-3.439-3.439l-7.479,7.479-7.322-7.322a2.432,2.432,0,1,0-3.439,3.438Z" fill="#00a887"/>
        </g>
        <g id="Grupo_85568" data-name="Grupo 85568">
          <g id="Grupo_85566" data-name="Grupo 85566">
            <path id="Trazado_121390" data-name="Trazado 121390" d="M88.663,105.885a19.48,19.48,0,0,0-5.72,14.081.669.669,0,0,0,.661.661,19.536,19.536,0,0,0,19.8-19.8.669.669,0,0,0-.661-.661A19.478,19.478,0,0,0,88.663,105.885Z" fill="#3ec3a4"/>
          </g>
          <path id="Trazado_121391" data-name="Trazado 121391" d="M91.275,108.5a19.453,19.453,0,0,1,12.05-5.64,19.7,19.7,0,0,0,.08-2.033.669.669,0,0,0-.661-.661,19.536,19.536,0,0,0-19.8,19.8.669.669,0,0,0,.661.661,19.677,19.677,0,0,0,2.031-.08,19.457,19.457,0,0,1,5.64-12.048Z" fill="#0bb494"/>
          <g id="Grupo_85567" data-name="Grupo 85567">
            <path id="Trazado_121392" data-name="Trazado 121392" d="M68.315,114.908a19.48,19.48,0,0,0,14.081,5.72.669.669,0,0,0,.661-.661,19.536,19.536,0,0,0-19.8-19.8.669.669,0,0,0-.661.661A19.48,19.48,0,0,0,68.315,114.908Z" fill="#3ec3a4"/>
          </g>
          <path id="Trazado_121393" data-name="Trazado 121393" d="M71.174,112.294a19.453,19.453,0,0,1-5.637-12.021,19.644,19.644,0,0,0-2.281-.107.669.669,0,0,0-.661.661,19.536,19.536,0,0,0,19.8,19.8.669.669,0,0,0,.661-.661,19.6,19.6,0,0,0-.083-2.06A19.451,19.451,0,0,1,71.174,112.294Z" fill="#0bb494"/>
          <path id="Trazado_121394" data-name="Trazado 121394" d="M80.568,121.578v6.164h4.863v-6.164l8.486-8.486a2.432,2.432,0,1,0-3.439-3.439L83,117.132l-7.322-7.322a2.432,2.432,0,1,0-3.439,3.438Z" fill="#00a887"/>
        </g>
        <g id="Grupo_85571" data-name="Grupo 85571">
          <g id="Grupo_85569" data-name="Grupo 85569">
            <path id="Trazado_121395" data-name="Trazado 121395" d="M43.578,105.885a19.48,19.48,0,0,0-5.72,14.081.669.669,0,0,0,.661.661,19.536,19.536,0,0,0,19.8-19.8.669.669,0,0,0-.661-.661,19.478,19.478,0,0,0-14.081,5.72Z" fill="#3ec3a4"/>
          </g>
          <path id="Trazado_121396" data-name="Trazado 121396" d="M46.209,108.5a19.453,19.453,0,0,1,12.031-5.638,19.651,19.651,0,0,0,.081-2.035.669.669,0,0,0-.661-.661,19.536,19.536,0,0,0-19.8,19.8.669.669,0,0,0,.661.661,19.674,19.674,0,0,0,2.05-.082A19.454,19.454,0,0,1,46.209,108.5Z" fill="#0bb494"/>
          <g id="Grupo_85570" data-name="Grupo 85570">
            <path id="Trazado_121397" data-name="Trazado 121397" d="M23.23,114.908a19.48,19.48,0,0,0,14.081,5.72.669.669,0,0,0,.661-.661,19.536,19.536,0,0,0-19.8-19.8.669.669,0,0,0-.661.661A19.48,19.48,0,0,0,23.23,114.908Z" fill="#3ec3a4"/>
          </g>
          <path id="Trazado_121398" data-name="Trazado 121398" d="M26.107,112.294a19.453,19.453,0,0,1-5.637-12.019,19.681,19.681,0,0,0-2.3-.109.669.669,0,0,0-.661.661,19.536,19.536,0,0,0,19.8,19.8.669.669,0,0,0,.661-.661,19.64,19.64,0,0,0-.084-2.062,19.451,19.451,0,0,1-11.781-5.611Z" fill="#0bb494"/>
          <path id="Trazado_121399" data-name="Trazado 121399" d="M35.483,121.578v6.164h4.863v-6.164l8.486-8.486a2.432,2.432,0,1,0-3.439-3.439l-7.479,7.479-7.322-7.322a2.432,2.432,0,1,0-3.439,3.438Z" fill="#00a887"/>
        </g>
      </g>
      <g id="Grupo_85573" data-name="Grupo 85573">
        <path id="Trazado_121400" data-name="Trazado 121400" d="M83,166a79.388,79.388,0,0,0,68.133-38.582H14.867A79.388,79.388,0,0,0,83,166Z" fill="#6fd7a3"/>
      </g>
      <path id="Trazado_121401" data-name="Trazado 121401" d="M161.5,74.383H149.938a3.243,3.243,0,0,1-2.293-.95l-9.023-9.023a1.621,1.621,0,0,0-2.293,0l-3.9,3.9a1.621,1.621,0,0,0,0,2.293l3.23,3.23a.324.324,0,0,1-.229.553H82.744a3.243,3.243,0,0,0-3.01,2.038L77.14,82.905a3.242,3.242,0,0,0,3.01,4.446h82.277c0-.262.007-.523.007-.785a80.025,80.025,0,0,0-.93-12.183Z" fill="#f68157"/>
      <path id="Trazado_121402" data-name="Trazado 121402" d="M162.434,86.566q0-2.285-.129-4.539H92.081a3.242,3.242,0,0,1-3.01-4.446l1.279-3.2H82.744a3.243,3.243,0,0,0-3.01,2.038L77.14,82.905a3.242,3.242,0,0,0,3.01,4.446H94.329a.324.324,0,0,1,.229.553L91.58,90.883a1.621,1.621,0,0,0,0,2.293l3.9,3.9a1.621,1.621,0,0,0,2.293,0l8.772-8.772a3.243,3.243,0,0,1,2.293-.95h53.592c0-.262.007-.523.007-.785Z" fill="#f26b38"/>
      <g id="Grupo_85574" data-name="Grupo 85574">
        <path id="Trazado_121403" data-name="Trazado 121403" d="M47.783,62.585c.08,0,.159-.012.24-.012h8.942a9.259,9.259,0,0,0-1.1-7.523c-2.242-3.883-6.2-5.8-8.834-4.273s-2.958,5.9-.716,9.787a11.645,11.645,0,0,0,1.472,2.021Z" fill="#fff"/>
        <path id="Trazado_121404" data-name="Trazado 121404" d="M60.888,62.573a4.548,4.548,0,0,1,1.3.191,11.6,11.6,0,0,0,1.638-2.2c2.242-3.883,1.921-8.265-.716-9.787s-6.592.391-8.834,4.273a9.259,9.259,0,0,0-1.1,7.523Z" fill="#dff6fd"/>
        <path id="Trazado_121405" data-name="Trazado 121405" d="M60.888,72.052H48.022a4.9,4.9,0,1,1,0-9.8H60.888a4.9,4.9,0,0,1,0,9.8Z" fill="#678d98"/>
        <path id="Trazado_121406" data-name="Trazado 121406" d="M51.253,67.151a4.916,4.916,0,0,1,4.9-4.9H48.022a4.9,4.9,0,1,0,0,9.8h8.132a4.916,4.916,0,0,1-4.9-4.9Z" fill="#537983"/>
      </g>
      <g id="Grupo_85575" data-name="Grupo 85575">
        <path id="Trazado_121407" data-name="Trazado 121407" d="M63.994,12.331c.08,0,.159-.012.24-.012h8.942a9.259,9.259,0,0,0-1.1-7.523C69.83.914,65.875-1,63.238.523s-2.958,5.9-.716,9.787a11.645,11.645,0,0,0,1.472,2.021Z" fill="#dff6fd"/>
        <path id="Trazado_121408" data-name="Trazado 121408" d="M77.1,12.319a4.548,4.548,0,0,1,1.3.191,11.6,11.6,0,0,0,1.638-2.2c2.242-3.883,1.921-8.265-.716-9.787S72.728.914,70.486,4.8a9.259,9.259,0,0,0-1.1,7.523Z" fill="#c8effe"/>
        <path id="Trazado_121409" data-name="Trazado 121409" d="M77.1,21.8H64.233a4.9,4.9,0,0,1,0-9.8H77.1a4.9,4.9,0,0,1,0,9.8Z" fill="#678d98"/>
        <path id="Trazado_121410" data-name="Trazado 121410" d="M67.464,16.9a4.916,4.916,0,0,1,4.9-4.9H64.233a4.9,4.9,0,0,0,0,9.8h8.132a4.916,4.916,0,0,1-4.9-4.9Z" fill="#537983"/>
      </g>
      <g id="Grupo_85578" data-name="Grupo 85578">
        <g id="Grupo_85576" data-name="Grupo 85576">
          <circle id="Elipse_5075" data-name="Elipse 5075" cx="15.887" cy="15.887" r="15.887" transform="translate(21.074 15.563)" fill="#fee903"/>
        </g>
        <g id="Grupo_85577" data-name="Grupo 85577">
          <path id="Trazado_121411" data-name="Trazado 121411" d="M32.37,31.449A15.89,15.89,0,0,1,42.609,16.6a15.887,15.887,0,1,0,0,29.7A15.889,15.889,0,0,1,32.37,31.449Z" fill="#f4d902"/>
        </g>
      </g>
      <g id="Grupo_85579" data-name="Grupo 85579">
        <path id="Trazado_121412" data-name="Trazado 121412" d="M102.615,151.086h-8.8a2.432,2.432,0,0,1,0-4.863h8.8a2.432,2.432,0,1,1,0,4.863Z" fill="#3ec3a4"/>
        <path id="Trazado_121413" data-name="Trazado 121413" d="M95.482,135.2a2.432,2.432,0,0,0-2.432-2.432H88.188a2.432,2.432,0,0,0,0,4.863h4.863A2.432,2.432,0,0,0,95.482,135.2Z" fill="#3ec3a4"/>
        <path id="Trazado_121414" data-name="Trazado 121414" d="M129.363,135.686a2.432,2.432,0,0,0-2.432-2.432h-4.863a2.432,2.432,0,1,0,0,4.863h4.863A2.432,2.432,0,0,0,129.363,135.686Z" fill="#3ec3a4"/>
        <path id="Trazado_121415" data-name="Trazado 121415" d="M46.363,138.279a2.432,2.432,0,0,0-2.432-2.432H39.068a2.432,2.432,0,0,0,0,4.863h4.863A2.432,2.432,0,0,0,46.363,138.279Z" fill="#3ec3a4"/>
        <path id="Trazado_121416" data-name="Trazado 121416" d="M73.6,144.764a2.432,2.432,0,0,0-2.432-2.432H66.3a2.432,2.432,0,0,0,0,4.863h4.863A2.432,2.432,0,0,0,73.6,144.764Z" fill="#3ec3a4"/>
      </g>
    </g>
  </g>
</svg>
