<svg xmlns="http://www.w3.org/2000/svg" xmlns:xlink="http://www.w3.org/1999/xlink" width="190" height="134" viewBox="0 0 190 134">
  <defs>
    <clipPath id="clip-path">
      <rect id="Rect치ngulo_34477" data-name="Rect치ngulo 34477" width="99" height="99" transform="translate(229 5031)" fill="#01f6ff" stroke="#707070" stroke-width="1"/>
    </clipPath>
  </defs>
  <g id="Grupo_86287" data-name="Grupo 86287" transform="translate(-180 -1516)">
    <g id="Grupo_84083" data-name="Grupo 84083" transform="translate(0 -3497)">
      <rect id="Rect치ngulo_33791" data-name="Rect치ngulo 33791" width="190" height="134" transform="translate(180 5013)" fill="#fff"/>
      <g id="Enmascarar_grupo_124" data-name="Enmascarar grupo 124" clip-path="url(#clip-path)">
        <g id="el-planeta-tierra" transform="translate(229.039 5031)">
          <path id="Trazado_120030" data-name="Trazado 120030" d="M73.554,57.616a32.014,32.014,0,1,0-32.015,32.1A32.057,32.057,0,0,0,73.554,57.616Zm0,0" fill="#97c9e8"/>
          <path id="Trazado_120031" data-name="Trazado 120031" d="M41.539,25.517a32.188,32.188,0,0,0-4.834.364,32.117,32.117,0,0,1,0,63.47,32.094,32.094,0,1,0,4.834-63.835Zm0,0" fill="#60b6ff"/>
          <g id="Grupo_84991" data-name="Grupo 84991">
            <path id="Trazado_120032" data-name="Trazado 120032" d="M37.378,37.991c-4.931,3.09-8.63,8.035-5.856,13.6s8.938,3.4,14.641,2.627,1.387,16.843,4.777,21.17,12.945-4.327,12.021-9.89c-1.369-8.236-1.849-11.126,9.247-17l.03-.011A32.05,32.05,0,0,0,43.545,25.581l0,.048S42.31,34.9,37.378,37.991Zm0,0" fill="#baeb6c"/>
            <path id="Trazado_120033" data-name="Trazado 120033" d="M61.6,32.6l.006,0Zm0,0" fill="#baeb6c"/>
            <path id="Trazado_120034" data-name="Trazado 120034" d="M65.512,36.344l0,0Zm0,0" fill="#baeb6c"/>
            <path id="Trazado_120035" data-name="Trazado 120035" d="M20.272,72.141c-1.481-2.258,2.619-7.571,3.545-11.589s-4.624-3.709-6.319-5.1-4.007-7.417-5.7-8.808l-.271-.215A32.19,32.19,0,0,0,22.573,83.476l.01-.673a14.776,14.776,0,0,0-2.311-10.663Zm0,0" fill="#baeb6c"/>
            <path id="Trazado_120036" data-name="Trazado 120036" d="M62.961,65.5c-.007-.04-.014-.079-.02-.12a31.947,31.947,0,0,1-2.66,7.046c1.822-2.149,3.039-4.77,2.68-6.926Zm0,0" fill="#baeb6c"/>
          </g>
          <path id="Trazado_120037" data-name="Trazado 120037" d="M43.544,25.581l0,.048s-.1.774-.368,1.948a32.112,32.112,0,0,1,20.576,27.09c1.415-1.935,4-3.811,8.457-6.169l.03-.011A32.052,32.052,0,0,0,43.545,25.581Zm0,0" fill="#96d629"/>
          <path id="Trazado_120038" data-name="Trazado 120038" d="M32.692,36.533C17.21,33.906,7.606,14.414,7.606,14.414S23.1-.82,38.584,1.806,63.67,23.925,63.67,23.925,48.173,39.159,32.692,36.533Zm0,0" fill="#49cb5c"/>
          <path id="Trazado_120039" data-name="Trazado 120039" d="M38.584,1.807a24.034,24.034,0,0,0-8.761.22c14.834,3.331,23.985,21.9,23.985,21.9S43.664,33.9,31.591,36.312c.364.082.73.157,1.1.221C48.173,39.159,63.67,23.925,63.67,23.925S54.066,4.433,38.585,1.807Zm0,0" fill="#07b128"/>
          <path id="Trazado_120040" data-name="Trazado 120040" d="M74.2,17.612C78.353,7.785,92.742,4.476,92.742,4.476s7.657,12.625,3.5,22.452S77.7,40.064,77.7,40.064,70.047,27.44,74.2,17.612Zm0,0" fill="#49cb5c"/>
          <path id="Trazado_120041" data-name="Trazado 120041" d="M92.743,4.476A38.5,38.5,0,0,0,85.6,7.083c1.987,4.211,5.138,12.756,2.142,19.846-2.173,5.141-7.147,8.5-11.4,10.53.767,1.625,1.362,2.606,1.362,2.606s14.39-3.308,18.543-13.136-3.5-22.452-3.5-22.452Zm0,0" fill="#07b128"/>
          <path id="Trazado_120042" data-name="Trazado 120042" d="M97.434,11.538a39.831,39.831,0,0,0-3.451-7.854,1.479,1.479,0,0,0-1.565-.661,39.867,39.867,0,0,0-8.037,3c-5.7,2.846-9.682,6.645-11.517,10.986-1.527,3.614-1.746,8.034-.663,12.915a41.138,41.138,0,0,0-7.733-6.73,59.9,59.9,0,0,0-6.721-10.3A1.451,1.451,0,0,0,55.5,14.721a58.02,58.02,0,0,1,5.351,7.871l-13.21-2.575L35.086,2.9a20.5,20.5,0,0,1,3.659.374A25.041,25.041,0,0,1,50.073,9.11,1.451,1.451,0,0,0,51.955,6.9,27.9,27.9,0,0,0,39.3.424c-6.645-1.3-14.4.406-22.415,4.938A57.872,57.872,0,0,0,6.746,12.606,1.535,1.535,0,0,0,6.573,14.6a59.182,59.182,0,0,0,6.5,10.21,45.354,45.354,0,0,0,6.856,7.047q-1.013.849-1.969,1.781A33.528,33.528,0,0,0,28.812,88.667,1.451,1.451,0,0,0,29.9,85.979a30.617,30.617,0,0,1-6.274-3.451A16.34,16.34,0,0,0,21.167,71.09c-.46-.716.915-3.528,1.736-5.208a27.235,27.235,0,0,0,2.13-5.206,3.969,3.969,0,0,0-1.411-4.348A10.7,10.7,0,0,0,20.174,54.8a7.405,7.405,0,0,1-1.894-.742,19.3,19.3,0,0,1-2.456-4,24.807,24.807,0,0,0-2.65-4.357,30.84,30.84,0,0,1,9.155-12.062,25.361,25.361,0,0,0,12.22,4.541c-5.126,3.971-6.783,9.043-4.413,13.914,2.767,5.688,8.463,4.78,13.489,3.979.869-.139,1.769-.282,2.631-.39.323-.041.421.048.486.1,1.1.979,1.068,5.654,1.045,9.068-.032,4.722-.063,9.182,1.7,11.472A4.427,4.427,0,0,0,53.124,78.1a7.315,7.315,0,0,0,2.863-.647c4.374-1.873,8.921-7.511,8.228-11.972-.607-3.9-1.008-6.476-.062-8.553.875-1.922,2.988-3.7,7.151-5.972a30.625,30.625,0,0,1-33.28,37.074,1.451,1.451,0,0,0-.317,2.883,33.71,33.71,0,0,0,27.145-9.357,33.506,33.506,0,0,0-5.159-52.042c1.916-1.366,3.344-2.548,4.135-3.234a38.506,38.506,0,1,1-60.4,25.043A1.451,1.451,0,0,0,.563,50.85a41.395,41.395,0,0,0,34.1,47.588A41.92,41.92,0,0,0,41.5,99,41.422,41.422,0,0,0,79.379,41.073a41.742,41.742,0,0,0,6.687-2.634c5.7-2.846,9.682-6.645,11.516-10.986s1.784-9.845-.148-15.915ZM13.258,51.416c1.079,2.046,2.1,3.98,3.16,4.866a8.31,8.31,0,0,0,2.9,1.289c2.835.872,3.164,1.3,2.892,2.42A25.329,25.329,0,0,1,20.3,64.608c-1.5,3.064-2.912,5.958-1.572,8.049a13.792,13.792,0,0,1,2.195,7.7,30.911,30.911,0,0,1-8.938-31.275c.427.731.875,1.581,1.276,2.34Zm70.169-28.5L79.3,12.927a27.144,27.144,0,0,1,6.314-4.281A38.749,38.749,0,0,1,90.2,6.717ZM92.875,7.842a38.771,38.771,0,0,1,1.814,4.637A27.725,27.725,0,0,1,96,19.471l-9.659,3.985Zm-17.34,10.3a13.78,13.78,0,0,1,1.619-2.815l4.692,11.369L77.636,36.759a38.58,38.58,0,0,1-1.879-4.776c-1.186-3.749-2.187-9.2-.221-13.846Zm9.291,17.678a38.572,38.572,0,0,1-4.438,1.878l4.369-10.446L95.88,22.659a14.007,14.007,0,0,1-.97,3.666c-1.965,4.65-6.567,7.728-10.083,9.491Zm-52.3-.826c-.513-.1-1.018-.223-1.517-.363L47.066,22.861l13.216,2.576c-4.814,3.793-16.532,11.75-27.751,9.552Zm-14.67-9.074a56.47,56.47,0,0,1-7.394-10.188l16.819,3.279Zm2.971-19.35,7.037,9.6-16.928-3.3a57.135,57.135,0,0,1,9.891-6.3ZM32.065,16.983,23.534,5.345A32.622,32.622,0,0,1,31.64,3.1l11.8,16.1Zm-.9,2.779,12.028,2.344L27.753,33.422A30,30,0,0,1,19.93,28ZM70.516,48.083c-5.228,2.786-7.789,4.974-9,7.643-1.3,2.866-.826,5.942-.165,10.2.39,2.511-2.593,7.185-6.5,8.86-1.446.619-2.477.546-3.064-.218-1.153-1.5-1.121-6.039-1.1-9.685.034-5.046.064-9.4-2.017-11.255a3.419,3.419,0,0,0-2.77-.816c-.912.113-1.837.261-2.73.4-5.331.85-8.686,1.19-10.424-2.383-2.816-5.787,2.885-10.074,5.465-11.648a9.182,9.182,0,0,0,1.467-1.119c6.239-.745,12.134-3.422,17.387-6.775A30.783,30.783,0,0,1,70.516,48.083Zm0,0"/>
        </g>
      </g>
    </g>
  </g>
</svg>
