<svg xmlns="http://www.w3.org/2000/svg" xmlns:xlink="http://www.w3.org/1999/xlink" width="190" height="166" viewBox="0 0 190 166">
  <defs>
    <clipPath id="clip-path">
      <rect id="Imagen_7" data-name="Imagen 7" width="190" height="166" rx="19" transform="translate(495 4059)" fill="#01f6ff"/>
    </clipPath>
  </defs>
  <g id="Enmascarar_grupo_143" data-name="Enmascarar grupo 143" transform="translate(-495 -4059)" clip-path="url(#clip-path)">
    <g id="jardin" transform="translate(503.866 4059)">
      <path id="Trazado_121273" data-name="Trazado 121273" d="M11.189,41.361a83.02,83.02,0,0,1,143.622,0l-5.8,20.093L15.751,59.3Z" fill="#62dbfb"/>
      <g id="Grupo_85501" data-name="Grupo 85501">
        <path id="Trazado_121274" data-name="Trazado 121274" d="M52.526,57.426a3.018,3.018,0,0,1-3.018-3.018V31.039a3.018,3.018,0,0,1,6.035,0V54.408A3.018,3.018,0,0,1,52.526,57.426Z" fill="#6fd7a3"/>
        <g id="Grupo_85499" data-name="Grupo 85499">
          <ellipse id="Elipse_5062" data-name="Elipse 5062" cx="17.2" cy="9.932" rx="17.2" ry="9.932" transform="translate(46.076 30.162) rotate(-45)" fill="#6fd7a3"/>
          <path id="Trazado_121275" data-name="Trazado 121275" d="M77.436,12.854A19.863,19.863,0,0,1,53.107,37.182Z" fill="#3ec3a4"/>
        </g>
        <g id="Grupo_85500" data-name="Grupo 85500">
          <path id="Trazado_121276" data-name="Trazado 121276" d="M52.526,31.039A23.227,23.227,0,0,1,24.079,2.589a23.224,23.224,0,0,1,28.446,28.45Z" fill="#6fd7a3"/>
          <path id="Trazado_121277" data-name="Trazado 121277" d="M52.526,31.039A23.227,23.227,0,0,1,24.079,2.589Z" fill="#3ec3a4"/>
        </g>
      </g>
      <g id="Grupo_85504" data-name="Grupo 85504">
        <path id="Trazado_121278" data-name="Trazado 121278" d="M116,57.426a3.018,3.018,0,0,1-3.018-3.018V31.039a3.018,3.018,0,0,1,6.035,0V54.408A3.018,3.018,0,0,1,116,57.426Z" fill="#6fd7a3"/>
        <g id="Grupo_85502" data-name="Grupo 85502">
          <ellipse id="Elipse_5063" data-name="Elipse 5063" cx="17.2" cy="9.932" rx="17.2" ry="9.932" transform="translate(109.54 30.169) rotate(-45)" fill="#6fd7a3"/>
          <path id="Trazado_121279" data-name="Trazado 121279" d="M140.906,12.854a19.863,19.863,0,0,1-24.329,24.329Z" fill="#3ec3a4"/>
        </g>
        <g id="Grupo_85503" data-name="Grupo 85503">
          <path id="Trazado_121280" data-name="Trazado 121280" d="M116,31.039A23.227,23.227,0,0,1,87.55,2.589,23.224,23.224,0,0,1,116,31.039Z" fill="#6fd7a3"/>
          <path id="Trazado_121281" data-name="Trazado 121281" d="M116,31.039A23.227,23.227,0,0,1,87.55,2.589Z" fill="#3ec3a4"/>
        </g>
      </g>
      <path id="Trazado_121282" data-name="Trazado 121282" d="M166,83A83,83,0,1,1,11.189,41.361a10.836,10.836,0,0,1,9.941,7.5,10.838,10.838,0,0,1,20.624,0,10.838,10.838,0,0,1,20.624,0,10.838,10.838,0,0,1,20.624,0,10.838,10.838,0,0,1,20.624,0,10.838,10.838,0,0,1,20.624,0,10.838,10.838,0,0,1,20.624,0,10.836,10.836,0,0,1,9.941-7.5A82.57,82.57,0,0,1,166,83Z" fill="#9b5e5e"/>
      <g id="Grupo_85514" data-name="Grupo 85514">
        <g id="Grupo_85507" data-name="Grupo 85507">
          <path id="Trazado_121283" data-name="Trazado 121283" d="M28.99,107.3A2.991,2.991,0,0,1,26,104.308V81.142a2.991,2.991,0,0,1,5.982,0v23.166A2.991,2.991,0,0,1,28.99,107.3Z" fill="#6fd7a3"/>
          <g id="Grupo_85505" data-name="Grupo 85505">
            <ellipse id="Elipse_5064" data-name="Elipse 5064" cx="17.05" cy="9.846" rx="17.05" ry="9.846" transform="translate(22.594 80.264) rotate(-45)" fill="#6fd7a3"/>
            <path id="Trazado_121284" data-name="Trazado 121284" d="M53.683,63.115A19.69,19.69,0,0,1,29.566,87.232Z" fill="#3ec3a4"/>
          </g>
          <g id="Grupo_85506" data-name="Grupo 85506">
            <path id="Trazado_121285" data-name="Trazado 121285" d="M28.99,81.142a23.024,23.024,0,0,1-28.2-28.2,23.022,23.022,0,0,1,28.2,28.2Z" fill="#6fd7a3"/>
            <path id="Trazado_121286" data-name="Trazado 121286" d="M28.99,81.142a23.024,23.024,0,0,1-28.2-28.2Z" fill="#3ec3a4"/>
          </g>
        </g>
        <g id="Grupo_85510" data-name="Grupo 85510">
          <path id="Trazado_121287" data-name="Trazado 121287" d="M84.815,107.3a2.991,2.991,0,0,1-2.991-2.991V81.142a2.991,2.991,0,0,1,5.982,0v23.166A2.991,2.991,0,0,1,84.815,107.3Z" fill="#6fd7a3"/>
          <g id="Grupo_85508" data-name="Grupo 85508">
            <ellipse id="Elipse_5065" data-name="Elipse 5065" cx="17.05" cy="9.846" rx="17.05" ry="9.846" transform="translate(78.412 80.27) rotate(-45)" fill="#6fd7a3"/>
            <path id="Trazado_121288" data-name="Trazado 121288" d="M109.507,63.115A19.69,19.69,0,0,1,85.391,87.232Z" fill="#3ec3a4"/>
          </g>
          <g id="Grupo_85509" data-name="Grupo 85509">
            <path id="Trazado_121289" data-name="Trazado 121289" d="M84.815,81.142a23.024,23.024,0,0,1-28.2-28.2,23.022,23.022,0,0,1,28.2,28.2Z" fill="#6fd7a3"/>
            <path id="Trazado_121290" data-name="Trazado 121290" d="M84.815,81.142a23.024,23.024,0,0,1-28.2-28.2Z" fill="#3ec3a4"/>
          </g>
        </g>
        <g id="Grupo_85513" data-name="Grupo 85513">
          <path id="Trazado_121291" data-name="Trazado 121291" d="M140.639,107.3a2.991,2.991,0,0,1-2.991-2.991V81.142a2.991,2.991,0,1,1,5.982,0v23.166A2.991,2.991,0,0,1,140.639,107.3Z" fill="#6fd7a3"/>
          <g id="Grupo_85511" data-name="Grupo 85511">
            <ellipse id="Elipse_5066" data-name="Elipse 5066" cx="17.05" cy="9.846" rx="17.05" ry="9.846" transform="translate(134.231 80.277) rotate(-45)" fill="#6fd7a3"/>
            <path id="Trazado_121292" data-name="Trazado 121292" d="M165.332,63.115a19.69,19.69,0,0,1-24.117,24.117Z" fill="#3ec3a4"/>
          </g>
          <g id="Grupo_85512" data-name="Grupo 85512">
            <path id="Trazado_121293" data-name="Trazado 121293" d="M140.639,81.142a23.024,23.024,0,0,1-28.2-28.2,23.022,23.022,0,0,1,28.2,28.2Z" fill="#6fd7a3"/>
            <path id="Trazado_121294" data-name="Trazado 121294" d="M140.639,81.142a23.024,23.024,0,0,1-28.2-28.2Z" fill="#3ec3a4"/>
          </g>
        </g>
      </g>
      <path id="Trazado_121295" data-name="Trazado 121295" d="M164.654,97.95a83.014,83.014,0,0,1-163.309,0,10.838,10.838,0,0,1,19.784,1.932,10.838,10.838,0,0,1,20.624,0,10.838,10.838,0,0,1,20.624,0,10.838,10.838,0,0,1,20.624,0,10.838,10.838,0,0,1,20.624,0,10.838,10.838,0,0,1,20.624,0,10.838,10.838,0,0,1,20.624,0,10.838,10.838,0,0,1,19.784-1.932Z" fill="#ae6c6c"/>
      <g id="Grupo_85517" data-name="Grupo 85517">
        <g id="Grupo_85515" data-name="Grupo 85515">
          <ellipse id="Elipse_5067" data-name="Elipse 5067" cx="17.2" cy="9.932" rx="17.2" ry="9.932" transform="translate(45.517 130.056) rotate(-45)" fill="#6fd7a3"/>
          <path id="Trazado_121296" data-name="Trazado 121296" d="M76.887,112.758a19.863,19.863,0,0,1-24.329,24.329Z" fill="#3ec3a4"/>
        </g>
        <path id="Trazado_121297" data-name="Trazado 121297" d="M51.976,157.33a3.018,3.018,0,0,1-3.018-3.018V130.944a3.018,3.018,0,1,1,6.035,0v23.369A3.017,3.017,0,0,1,51.976,157.33Z" fill="#6fd7a3"/>
        <g id="Grupo_85516" data-name="Grupo 85516">
          <path id="Trazado_121298" data-name="Trazado 121298" d="M51.976,130.943a23.227,23.227,0,0,1-28.446-28.45,23.224,23.224,0,0,1,28.446,28.45Z" fill="#6fd7a3"/>
          <path id="Trazado_121299" data-name="Trazado 121299" d="M51.976,130.943a23.227,23.227,0,0,1-28.446-28.45Z" fill="#3ec3a4"/>
        </g>
      </g>
      <g id="Grupo_85520" data-name="Grupo 85520">
        <g id="Grupo_85518" data-name="Grupo 85518">
          <ellipse id="Elipse_5068" data-name="Elipse 5068" cx="17.2" cy="9.932" rx="17.2" ry="9.932" transform="translate(112.954 130.063) rotate(-45)" fill="#6fd7a3"/>
          <path id="Trazado_121300" data-name="Trazado 121300" d="M144.331,112.758A19.863,19.863,0,0,1,120,137.087Z" fill="#3ec3a4"/>
        </g>
        <path id="Trazado_121301" data-name="Trazado 121301" d="M119.421,157.33a3.018,3.018,0,0,1-3.018-3.018V130.944a3.018,3.018,0,1,1,6.035,0v23.369A3.018,3.018,0,0,1,119.421,157.33Z" fill="#6fd7a3"/>
        <g id="Grupo_85519" data-name="Grupo 85519">
          <path id="Trazado_121302" data-name="Trazado 121302" d="M119.421,130.943a23.227,23.227,0,0,1-28.446-28.45,23.224,23.224,0,0,1,28.446,28.45Z" fill="#6fd7a3"/>
          <path id="Trazado_121303" data-name="Trazado 121303" d="M119.421,130.943a23.227,23.227,0,0,1-28.446-28.45Z" fill="#3ec3a4"/>
        </g>
      </g>
      <path id="Trazado_121304" data-name="Trazado 121304" d="M141.016,142.355a83,83,0,0,1-116.031,0,10.835,10.835,0,0,1,16.769,5.363,10.839,10.839,0,0,1,20.624,0,10.839,10.839,0,0,1,20.624,0,10.839,10.839,0,0,1,20.624,0,10.839,10.839,0,0,1,20.624,0,10.835,10.835,0,0,1,16.769-5.363Z" fill="#b98080"/>
    </g>
  </g>
</svg>
