<svg xmlns="http://www.w3.org/2000/svg" xmlns:xlink="http://www.w3.org/1999/xlink" width="190" height="166" viewBox="0 0 190 166">
  <defs>
    <clipPath id="clip-path">
      <rect id="Imagen_11" data-name="Imagen 11" width="190" height="166" rx="19" transform="translate(915 4692)" fill="#01f6ff"/>
    </clipPath>
  </defs>
  <g id="Enmascarar_grupo_146" data-name="Enmascarar grupo 146" transform="translate(-915 -4692)" clip-path="url(#clip-path)">
    <g id="compost" transform="translate(927 4692)">
      <path id="Trazado_121361" data-name="Trazado 121361" d="M3.077,105.466a83.008,83.008,0,1,1,149.963,22.089,5.6,5.6,0,0,1-5.487,2.526L9.446,110.984a7.7,7.7,0,0,1-6.37-5.518Z" fill="#86befb"/>
      <path id="Trazado_121362" data-name="Trazado 121362" d="M149.693,51.8h-1.621V50.18a4.863,4.863,0,0,0-4.863-4.863h-9.727a4.863,4.863,0,0,0-4.863,4.863V51.8H127a4.863,4.863,0,1,0,0,9.727h22.7a4.863,4.863,0,0,0,0-9.727Zm3.746,43.555a4.863,4.863,0,0,1-4.863,4.863h-22.7a4.863,4.863,0,0,1,0-9.727h22.7A4.863,4.863,0,0,1,153.439,95.356ZM105.371,18.782H92.4a4.863,4.863,0,0,0,0,9.727h12.969a4.863,4.863,0,0,0,0-9.727ZM26.9,57.887H13.934a4.863,4.863,0,1,0,0,9.727H26.9a4.863,4.863,0,1,0,0-9.727Z" fill="#a7d0fc"/>
      <path id="Trazado_121363" data-name="Trazado 121363" d="M55.1,75.6A11.35,11.35,0,0,1,44.708,87.5a17.851,17.851,0,0,1-14.345,22.514,17.856,17.856,0,0,1-.558,17.628,9.87,9.87,0,0,1-16.687.16A82.568,82.568,0,0,1,2.91,104.865a17.765,17.765,0,0,1,8.875-4.137A17.842,17.842,0,0,1,32.46,75.253,11.348,11.348,0,0,1,55.1,75.6ZM87.539,40.527a11.348,11.348,0,0,0-22.594-1.52A11.348,11.348,0,1,0,77.711,51.774a11.35,11.35,0,0,0,9.828-11.247Z" fill="#b56d3c"/>
      <path id="Trazado_121364" data-name="Trazado 121364" d="M65.758,67.477c-9.7,2.814-19.72,1.048-26.409-5.641s-8.454-16.7-5.641-26.409c9.7-2.814,19.72-1.048,26.409,5.641S68.572,57.773,65.758,67.477Z" fill="#1ed688"/>
      <path id="Trazado_121365" data-name="Trazado 121365" d="M71.524,73.047a2.432,2.432,0,0,1-3.439,0L42.147,47.11a2.432,2.432,0,1,1,3.439-3.439L71.524,69.609A2.431,2.431,0,0,1,71.524,73.047Z" fill="#1ab975"/>
      <path id="Trazado_121366" data-name="Trazado 121366" d="M113.431,17.757c-4.288,4.288-10.71,5.421-16.932,3.617-1.8-6.222-.672-12.644,3.617-16.932S110.825-.979,117.048.825C118.852,7.047,117.719,13.469,113.431,17.757Z" fill="#1ab975"/>
      <path id="Trazado_121367" data-name="Trazado 121367" d="M152.874,28.277a4.863,4.863,0,0,1-4.863,4.863H137.549a6.248,6.248,0,0,0-6.241,6.241V87.539a4.863,4.863,0,0,1-9.727,0V39.381a15.985,15.985,0,0,1,15.967-15.967h10.462A4.863,4.863,0,0,1,152.874,28.277Z" fill="#fdbcbc"/>
      <path id="Trazado_121368" data-name="Trazado 121368" d="M153.065,110.068v17.448a83.023,83.023,0,0,1-140.129,0V110.068a9.726,9.726,0,0,1,9.727-9.727,3.276,3.276,0,0,0,3.276-3.276V88.619a9.726,9.726,0,0,1,9.727-9.727H40.2a8.48,8.48,0,0,0,8.48-8.48V67.337a9.726,9.726,0,0,1,9.727-9.727h7.033a8.48,8.48,0,0,0,8.48-8.48A9.726,9.726,0,0,1,83.648,39.4H94.023a9.726,9.726,0,0,1,9.727,9.727V53.77a3.841,3.841,0,0,0,3.841,3.841,9.726,9.726,0,0,1,9.727,9.727v3.409a8.147,8.147,0,0,0,8.147,8.147,9.726,9.726,0,0,1,9.727,9.727v3.575a8.147,8.147,0,0,0,8.147,8.147,9.727,9.727,0,0,1,9.727,9.727Z" fill="#c9885b"/>
      <path id="Trazado_121369" data-name="Trazado 121369" d="M66.465,139.694a4.863,4.863,0,0,1-4.863,4.863H51.158a6.271,6.271,0,0,0-6.264,6.264v8.047a4.863,4.863,0,0,1-9.727,0V150.82a16.008,16.008,0,0,1,15.99-15.99H61.6A4.863,4.863,0,0,1,66.465,139.694Z" fill="#fdbcbc"/>
      <path id="Trazado_121370" data-name="Trazado 121370" d="M131.7,46.31H121.2a1.621,1.621,0,0,1,0-3.242h10.5a1.621,1.621,0,0,1,0,3.242Zm8.526-11.624a1.621,1.621,0,0,0,.942-2.09l-3.721-9.818a1.621,1.621,0,1,0-3.032,1.149l3.721,9.818A1.621,1.621,0,0,0,140.228,34.687ZM133.3,38.54a1.621,1.621,0,0,0-1.347-1.855l-10.369-1.647a1.621,1.621,0,0,0-.508,3.2l10.369,1.647A1.621,1.621,0,0,0,133.3,38.54Zm2.345-3.385a1.621,1.621,0,0,0-.232-2.281l-8.138-6.634a1.621,1.621,0,1,0-2.048,2.513l8.138,6.634A1.621,1.621,0,0,0,135.648,35.155ZM47.062,155.849a1.621,1.621,0,0,0-1.621-1.621h-10.5a1.621,1.621,0,1,0,0,3.242h10.5A1.621,1.621,0,0,0,47.062,155.849Zm6.905-10a1.621,1.621,0,0,0,.942-2.09l-3.721-9.818a1.621,1.621,0,0,0-3.032,1.149l3.721,9.818A1.621,1.621,0,0,0,53.967,145.847ZM47.042,149.7a1.621,1.621,0,0,0-1.347-1.855L35.326,146.2a1.621,1.621,0,0,0-.508,3.2l10.369,1.647a1.621,1.621,0,0,0,1.855-1.347Zm2.345-3.384a1.621,1.621,0,0,0-.232-2.281L41.016,137.4a1.621,1.621,0,0,0-2.048,2.513l8.138,6.634a1.622,1.622,0,0,0,2.281-.232ZM133.323,52.16a1.621,1.621,0,0,0-1.621-1.621H121.2a1.621,1.621,0,0,0,0,3.242h10.5A1.621,1.621,0,0,0,133.323,52.16Zm0,7.47a1.621,1.621,0,0,0-1.621-1.621H121.2a1.621,1.621,0,0,0,0,3.242h10.5A1.621,1.621,0,0,0,133.323,59.63Zm0,7.47a1.621,1.621,0,0,0-1.621-1.621H121.2a1.621,1.621,0,0,0,0,3.242h10.5A1.621,1.621,0,0,0,133.323,67.1Zm0,7.47a1.621,1.621,0,0,0-1.621-1.621H121.2a1.621,1.621,0,0,0,0,3.242h10.5A1.621,1.621,0,0,0,133.323,74.57Zm11.709-49.55a1.621,1.621,0,1,0,1.621,1.621A1.621,1.621,0,0,0,145.031,25.02Z" fill="#fd9a9a"/>
      <path id="Trazado_121371" data-name="Trazado 121371" d="M75.218,103.5,60.259,88.537a8.106,8.106,0,1,1-5.617-12.5,8.1,8.1,0,1,1,12.5,5.617l8.314,8.314a9.735,9.735,0,0,0,1.6,10.535,9.729,9.729,0,0,0-1.83,2.988Z" fill="#ffe7c0"/>
      <path id="Trazado_121372" data-name="Trazado 121372" d="M55.117,110.234a3.242,3.242,0,1,1-3.242-3.242A3.242,3.242,0,0,1,55.117,110.234ZM103.75,145.9a3.242,3.242,0,1,0,3.242,3.242A3.242,3.242,0,0,0,103.75,145.9Zm0-58.359a3.242,3.242,0,1,0-3.242,3.242A3.242,3.242,0,0,0,103.75,87.539ZM70.306,136.426a6.484,6.484,0,1,0-8.634,2.16,9.725,9.725,0,1,0,8.634-2.16Zm-2.22-42.4a9.727,9.727,0,1,0,9.727,9.727A9.726,9.726,0,0,0,68.086,94.023Zm57.549,3.242a8.919,8.919,0,0,0-7.9,13.048,6.478,6.478,0,1,0,5.138,4.347,8.917,8.917,0,1,0,2.765-17.395Z" fill="#b56d3c"/>
      <path id="Trazado_121373" data-name="Trazado 121373" d="M83.738,77.954c-1.614-5.565-.6-11.309,3.235-15.145s9.58-4.849,15.145-3.235c1.614,5.565.6,11.309-3.235,15.145S89.3,79.567,83.738,77.954ZM33,96.689c-3.271-3.271-8.17-4.135-12.916-2.759-1.376,4.746-.513,9.645,2.759,12.916s8.17,4.135,12.916,2.759C37.133,104.859,36.269,99.961,33,96.689Z" fill="#1ed688"/>
      <path id="Trazado_121374" data-name="Trazado 121374" d="M62.944,22.7,58.359,18.11a3.242,3.242,0,0,1,4.585-4.585L67.53,18.11A3.242,3.242,0,1,1,62.944,22.7Zm87.539,47.29a3.242,3.242,0,0,0-4.585,0l-4.585,4.585a3.242,3.242,0,0,0,4.585,4.585l4.585-4.585A3.242,3.242,0,0,0,150.484,69.985Z" fill="#e9f3fe"/>
      <path id="Trazado_121375" data-name="Trazado 121375" d="M58.359,22.7a3.242,3.242,0,0,1,0-4.585l4.585-4.585A3.242,3.242,0,0,1,67.53,18.11L62.944,22.7A3.242,3.242,0,0,1,58.359,22.7ZM150.484,74.57,145.9,69.985a3.242,3.242,0,0,0-4.585,4.585l4.585,4.585a3.242,3.242,0,0,0,4.585-4.585Z" fill="#376099"/>
    </g>
  </g>
</svg>
