<svg xmlns="http://www.w3.org/2000/svg" xmlns:xlink="http://www.w3.org/1999/xlink" width="190" height="166" viewBox="0 0 190 166">
  <defs>
    <clipPath id="clip-path">
      <rect id="Imagen_13" data-name="Imagen 13" width="190" height="166" rx="19" transform="translate(495 5320)" fill="#01f6ff"/>
    </clipPath>
  </defs>
  <g id="Enmascarar_grupo_149" data-name="Enmascarar grupo 149" transform="translate(-495 -5320)" clip-path="url(#clip-path)">
    <g id="parque-eolico" transform="translate(507 5320)">
      <path id="Trazado_121453" data-name="Trazado 121453" d="M162.355,84.822A81.178,81.178,0,1,1,81.178,3.645,81.178,81.178,0,0,1,162.355,84.822Z" fill="#62dafa"/>
      <path id="Trazado_121454" data-name="Trazado 121454" d="M64.279,26.507H24.706a81.524,81.524,0,0,1,12.511-9.94H64.279a4.97,4.97,0,1,1,0,9.94ZM94.1,29.82H67.593a4.97,4.97,0,0,0,0,9.94H94.1a4.97,4.97,0,0,0,0-9.94ZM81.178,3.645q-2.979,0-5.906.212a4.971,4.971,0,0,0,2.261,9.4h33.134a4.966,4.966,0,0,0,4.2-2.31A80.88,80.88,0,0,0,81.178,3.645Z" fill="#98e5fb"/>
      <path id="Trazado_121455" data-name="Trazado 121455" d="M162.343,83.417q.012.7.012,1.406A81.178,81.178,0,1,1,1.305,70.245l13.9,5.963a101.065,101.065,0,0,0,50.46,7.631L118.3,78.283a100.977,100.977,0,0,1,44.046,5.133Z" fill="#7ac9a5"/>
      <path id="Trazado_121456" data-name="Trazado 121456" d="M78.5,57.962a20.33,20.33,0,0,1-19.969,6.85l-17.7-3.867q-.7-.153-1.375-.35v42.12h.331a3.313,3.313,0,0,1,3.313,3.313v29.82a3.313,3.313,0,0,1-3.313,3.313h-10.6a3.313,3.313,0,0,1-3.313-3.313v-29.82a3.313,3.313,0,0,1,3.313-3.313h.331V64.894L8.144,88.362a1.655,1.655,0,0,1-2.775-.527A20.331,20.331,0,0,1,9.422,67.117L26.253,48.844,20.525,30.866a81.634,81.634,0,0,1,10.519-9.9,20.457,20.457,0,0,1,1.441,3.418l7.21,22.629L77.568,55.3A1.655,1.655,0,0,1,78.5,57.962Zm42.916,7.245h-.331V23.087q.676.2,1.375.35l15.522,3.392A81.162,81.162,0,0,0,106.735,7.75l1.143,3.587L91.047,29.61a20.33,20.33,0,0,0-4.052,20.718,1.655,1.655,0,0,0,2.775.527l21.375-23.468V65.207h-.331a3.313,3.313,0,0,0-3.313,3.313v29.82a3.313,3.313,0,0,0,3.313,3.313h10.6a3.313,3.313,0,0,0,3.313-3.313V68.521a3.313,3.313,0,0,0-3.313-3.313Z" fill="#01988c"/>
      <path id="Trazado_121457" data-name="Trazado 121457" d="M9.3,122.595H41.076a69.877,69.877,0,0,0,34.142-8.909l31.928-17.88a69.882,69.882,0,0,1,55.04-5.712,81.258,81.258,0,0,1-98.239,74.074c-2.934-.634-5.81-4.74-8.617-5.682-2.95-.99-5.825,1.168-8.613-.141A81.52,81.52,0,0,1,9.3,122.595Z" fill="#008a80"/>
      <path id="Trazado_121458" data-name="Trazado 121458" d="M147.014,132.323H122.377a3.389,3.389,0,0,1-3.42-3.093,3.314,3.314,0,0,1,3.306-3.534h29.066a80.676,80.676,0,0,0,10.747-34.1,86.464,86.464,0,0,0-36.926,16.051l-32.059,24.11a.6.6,0,0,0,.17,1.047,3.214,3.214,0,0,1,2.495,3.008,3.388,3.388,0,0,1-3.4,3.353H86.4a13.548,13.548,0,0,0-6.7,1.782,86.529,86.529,0,0,1-31.191,10.535l-11.386,1.539a81.055,81.055,0,0,0,9.594,5.326c2.393,1.124,4.85-.848,7.363.041,3.2,1.134,6.5,5.054,9.867,5.783a81.318,81.318,0,0,0,82.979-31.725c.222-.3.279-.385.087-.12Zm-1.557-26.295h3.313a3.313,3.313,0,1,1,0,6.627h-3.313a3.313,3.313,0,1,1,0-6.627ZM85.816,159.042H79.19a3.313,3.313,0,1,1,0-6.627h6.627a3.313,3.313,0,1,1,0,6.627Zm36.447-13.254H105.7a3.313,3.313,0,1,1,0-6.627h16.567a3.313,3.313,0,1,1,0,6.627Z" fill="#059b7e"/>
      <path id="Trazado_121459" data-name="Trazado 121459" d="M60.3,159.042h-9.94V86.148H60.3ZM129.884,48.826h-9.94V121.72h9.94Z" fill="#c7eefd"/>
      <path id="Trazado_121460" data-name="Trazado 121460" d="M63.948,136.511v27.657a80.581,80.581,0,0,1-17.23-5.823V136.511a3.313,3.313,0,0,1,3.313-3.313h10.6A3.313,3.313,0,0,1,63.948,136.511Zm69.581-7.5V99.189a3.313,3.313,0,0,0-3.313-3.313h-10.6a3.313,3.313,0,0,0-3.313,3.313v29.82a3.313,3.313,0,0,0,3.313,3.313h10.6A3.313,3.313,0,0,0,133.529,129.01Z" fill="#98e5fb"/>
      <path id="Trazado_121461" data-name="Trazado 121461" d="M95.665,102.836a20.33,20.33,0,0,1-21.106.465L58.872,94.243C56.889,93.1,48.653,91.47,48.653,90.235V38.987a1.655,1.655,0,0,1,2.407-1.479A20.33,20.33,0,0,1,62.014,55.553V73.668A20.31,20.31,0,0,1,61,80.041l34.592,19.972a1.655,1.655,0,0,1,.078,2.824Zm69.5-40.145L130.576,42.719a20.311,20.311,0,0,0,1.019-6.372V18.232A20.33,20.33,0,0,0,120.64.186a1.655,1.655,0,0,0-2.407,1.479V52.913c0,1.236,8.236,2.863,10.219,4.008l15.688,9.057a20.33,20.33,0,0,0,21.106-.465,1.655,1.655,0,0,0-.078-2.823Z" fill="#98e5fb"/>
      <path id="Trazado_121462" data-name="Trazado 121462" d="M91.543,104.848A20.288,20.288,0,0,1,74.56,103.3L58.872,94.243a20.291,20.291,0,0,1-5.556-4.706L19.4,109.117a1.655,1.655,0,0,1-2.484-1.344,20.33,20.33,0,0,1,10.151-18.51l15.688-9.057a20.241,20.241,0,0,1,12.107-2.633v-37.5a20.288,20.288,0,0,1,7.151,15.481V73.668a20.341,20.341,0,0,1-.778,5.589c.905.4-2.067,6.9-2.067,6.9ZM128.75,48.836S131.6,38.285,131.6,36.347V18.232A20.288,20.288,0,0,0,124.444,2.75v37.5a20.241,20.241,0,0,0-12.107,2.633L96.649,51.941A20.331,20.331,0,0,0,86.5,70.451,1.655,1.655,0,0,0,88.983,71.8L122.9,52.214a20.285,20.285,0,0,0,5.556,4.706l15.688,9.057a20.287,20.287,0,0,0,16.983,1.548Z" fill="#c7eefd"/>
      <path id="Trazado_121463" data-name="Trazado 121463" d="M27.068,89.263l15.688-9.057a20.287,20.287,0,0,1,16.983-1.548L17.236,103.2a20.286,20.286,0,0,1,9.832-13.933ZM86.817,65.875l42.5-24.539a20.288,20.288,0,0,0-16.983,1.548L96.649,51.941A20.287,20.287,0,0,0,86.817,65.875Z" fill="#98e5fb"/>
      <path id="Trazado_121464" data-name="Trazado 121464" d="M66.93,84.822a11.6,11.6,0,1,1-11.6-11.6A11.6,11.6,0,0,1,66.93,84.822ZM124.914,35.9a11.6,11.6,0,1,0,11.6,11.6A11.6,11.6,0,0,0,124.914,35.9Z" fill="#fff5f5"/>
      <path id="Trazado_121465" data-name="Trazado 121465" d="M60.3,84.822a4.97,4.97,0,1,1-4.97-4.97A4.97,4.97,0,0,1,60.3,84.822ZM124.914,42.53a4.97,4.97,0,1,0,4.97,4.97A4.97,4.97,0,0,0,124.914,42.53Z" fill="#c7eefd"/>
      <path id="Trazado_121466" data-name="Trazado 121466" d="M118.542,133.542c-.674-3.173-.647-5.93.1-7.724a12.459,12.459,0,0,1,5.066,3.911c.3-4.693,1.563-8.545,3.359-10.373,2.467,2.083,4.4,7.446,4.692,13.811q.008.185.016.375H118.542Z" fill="#059b7e"/>
    </g>
  </g>
</svg>
