<svg xmlns="http://www.w3.org/2000/svg" xmlns:xlink="http://www.w3.org/1999/xlink" width="190" height="166" viewBox="0 0 190 166">
  <defs>
    <clipPath id="clip-path">
      <rect id="Imagen_6" data-name="Imagen 6" width="190" height="166" rx="19" transform="translate(915 3847)" fill="#01f6ff"/>
    </clipPath>
  </defs>
  <g id="Enmascarar_grupo_142" data-name="Enmascarar grupo 142" transform="translate(-915 -3847)" clip-path="url(#clip-path)">
    <g id="la-biodiversidad" transform="translate(927 3847)">
      <path id="Trazado_121258" data-name="Trazado 121258" d="M166,83A83,83,0,1,1,83,0,83,83,0,0,1,166,83Z" fill="#a7d0fc"/>
      <path id="Trazado_121259" data-name="Trazado 121259" d="M149.667,93.225a66.972,66.972,0,0,1-6.99,21.213c-2.032,3.848-6.672,5.851-9.381,9.214-11.565,9.318-24.023,16.522-40.031,16.522A67.438,67.438,0,0,1,25.827,72.735c0-16.008,6.763-26.589,16.08-38.154,1.73-1.394,2.345-6.827,4.209-8.047a67.508,67.508,0,0,1,69.812-2.4c2.717,1.523.551,7.085,3.019,8.957,16.237,12.314,26.269,29.152,26.269,51.1C145.216,87.669,150.175,89.891,149.667,93.225Z" fill="#2476ed"/>
      <path id="Trazado_121260" data-name="Trazado 121260" d="M105.909,146.447A67.314,67.314,0,0,1,83,150.438q-2.723,0-5.394-.213c-1.393-.111-4.034-3.562-5.4-3.756-22.8-3.238-39.332-16.62-48.84-36.724-.556-1.176-2.447-.363-2.935-1.575a67.06,67.06,0,0,1-4.843-23.344c-.016-.607,1.652-1.215,1.652-1.826a64.781,64.781,0,0,1,2.373-17.128c1.955-7.3,10.971-6.256,10.87,1.3q-.008.6-.006,1.206A67.6,67.6,0,0,0,97.7,135.523q2.906.009,5.752-.224c6.678-.542,8.76,8.872,2.459,11.147Z" fill="#0a66ea"/>
      <path id="Trazado_121261" data-name="Trazado 121261" d="M15.587,84.825q-.024-.909-.024-1.825A67.38,67.38,0,0,1,46.116,26.534C53.9,27.894,60.834,30.5,61.8,34.995c1.074,4.985-5.45,11.153-14.4,19.619-7.7,7.281-11.09,8.237-11.424,12.169-.618,7.288,10.439,10.981,9.437,18.377-.5,3.717-3.829,6.726-6.705,7.947-6.492,2.757-15.657-1.493-23.119-8.281Zm40.255,48.511c-5.518-10.715,5.348-20.724.248-27.565-6.017-8.072-28.506-4.018-35.672,2.4a67.485,67.485,0,0,0,57.189,42.051q-.246-.6-.539-1.166c-4.747-9.137-16.238-6.038-21.226-15.723Zm31.787-7.2c.6,6.471,15.86,5.912,18.377,15.148a8.962,8.962,0,0,1-.157,5.185,67.661,67.661,0,0,0,36.828-32.031A45.578,45.578,0,0,0,122.148,109c-17.432-.34-35.179,9.985-34.519,17.135Zm28.3-102c-3.417-1.915-24.584,2.451-24.823,7.135-.33,6.464,10.665,9.462,9.933,15.4-1.049,8.5-24.077,6.045-30.794,18.874-5.8,11.069,2.322,29.893,11.92,32.78.563.169,4.369,1.314,7.7-.5,3.8-2.069,3.273-6.028,6.208-10.678,3.545-5.617,10.885-10.265,17.549-9.8,6.148.433,11.877,5.235,14.7,7.6a54.664,54.664,0,0,0,7.2,5.065,28.256,28.256,0,0,0,3.757,1.847,21.668,21.668,0,0,0,10.384,1.361,67.55,67.55,0,0,0-33.739-69.09Z" fill="#1ed688"/>
      <path id="Trazado_121262" data-name="Trazado 121262" d="M77.067,149.059q.294.566.539,1.166a67.485,67.485,0,0,1-57.189-42.051c3.685-3.3,11.424-5.978,18.89-6.7a67.759,67.759,0,0,0,15.887,18.8c-1.086,4.1-1.694,8.521.647,13.067C60.829,143.022,72.321,139.922,77.067,149.059Zm24.387-13.627a10.31,10.31,0,0,1,4.551,5.852,8.962,8.962,0,0,1-.157,5.185,67.613,67.613,0,0,0,31.711-23.823,67.088,67.088,0,0,1-36.1,12.787ZM35.59,93.891a67.541,67.541,0,0,1,7.765-65.451A67.346,67.346,0,0,0,15.562,83q0,.916.024,1.825c6.332,5.76,13.892,9.693,20,9.066Z" fill="#1ab975"/>
      <path id="Trazado_121263" data-name="Trazado 121263" d="M152.829,80.612c0-.022,0-.044,0-.065A69.869,69.869,0,0,0,33.6,33.6,69.374,69.374,0,0,0,13.173,80.547c0,.022,0,.044,0,.065q-.04,1.191-.04,2.388A69.869,69.869,0,0,0,132.4,132.4,69.413,69.413,0,0,0,152.869,83q0-1.2-.04-2.388Zm-4.967-1.955a342.07,342.07,0,0,1-35.205,4.514c0-.057,0-.113,0-.171a152.08,152.08,0,0,0-3.8-34.7c9.243-.61,18.333-1.55,27.2-2.815a64.62,64.62,0,0,1,11.8,33.172Zm-15.24-37.606c-8.174,1.1-16.53,1.917-25.016,2.456a91.156,91.156,0,0,0-3.1-9.1c-2.633-6.521-5.74-11.65-9.17-15.236a65.045,65.045,0,0,1,37.286,21.882ZM83,84.293q-12.572,0-24.793-.78,0-.256,0-.513a146.168,146.168,0,0,1,3.867-34.407q10.36.55,20.927.551t20.927-.551A146.181,146.181,0,0,1,107.794,83q0,.257,0,.513-12.207.779-24.793.78Zm24.707,4.1A133.821,133.821,0,0,1,102.2,123.6q-9.512.468-19.2.469T63.8,123.6a133.832,133.832,0,0,1-5.507-35.206q12.17.764,24.707.765T107.707,88.391ZM83,17.994c6.124,0,12.319,6.645,17,18.23.96,2.377,1.837,4.906,2.629,7.565Q92.9,44.279,83,44.28t-19.625-.49c.792-2.659,1.669-5.188,2.629-7.565,4.678-11.586,10.872-18.23,17-18.23ZM70.664,19.168c-3.43,3.586-6.538,8.714-9.17,15.236a91.155,91.155,0,0,0-3.1,9.1c-8.486-.539-16.842-1.359-25.016-2.456A65.044,65.044,0,0,1,70.664,19.168ZM29.939,45.485c8.871,1.264,17.962,2.2,27.2,2.815a152.081,152.081,0,0,0-3.8,34.7c0,.057,0,.113,0,.171a342.068,342.068,0,0,1-35.205-4.514,64.629,64.629,0,0,1,11.8-33.172Zm-.124,74.855A64.638,64.638,0,0,1,18,83.574a347.961,347.961,0,0,0,35.42,4.479,141.633,141.633,0,0,0,5.213,35.254C48.825,122.691,39.194,121.7,29.815,120.339Zm4.335,5.5c8.526,1.108,17.24,1.921,26.088,2.433q.6,1.7,1.256,3.319c2.633,6.521,5.74,11.65,9.17,15.236A65.022,65.022,0,0,1,34.15,125.844ZM83,148.006c-6.124,0-12.319-6.645-17-18.23q-.246-.608-.484-1.229,8.671.383,17.48.383t17.48-.383q-.238.621-.484,1.229c-4.677,11.586-10.872,18.23-17,18.23Zm12.336-1.174c3.431-3.586,6.538-8.715,9.17-15.236q.653-1.617,1.256-3.319c8.848-.512,17.562-1.324,26.088-2.433a65.022,65.022,0,0,1-36.514,20.987Zm40.849-26.492c-9.379,1.36-19.011,2.352-28.815,2.968a141.629,141.629,0,0,0,5.213-35.254A347.956,347.956,0,0,0,148,83.574,64.638,64.638,0,0,1,136.185,120.339Z" fill="#5596fb"/>
      <path id="Trazado_121264" data-name="Trazado 121264" d="M111.954,17.734a2.432,2.432,0,1,1-3.439,3.439L95.546,8.2a2.432,2.432,0,0,1,3.439-3.439ZM161.559,4.765a2.431,2.431,0,0,0-3.439,0L138.667,24.218a2.432,2.432,0,1,0,3.439,3.439L161.559,8.2a2.431,2.431,0,0,0,0-3.439ZM99.275,63.287,84.361,78.2A2.432,2.432,0,1,0,87.8,81.639l14.914-14.914a2.432,2.432,0,0,0-3.439-3.439ZM138.215,61.5a2.432,2.432,0,0,0-3.439,3.439l20.912,20.912a2.432,2.432,0,0,0,3.439-3.439Z" fill="#f44545"/>
      <path id="Trazado_121265" data-name="Trazado 121265" d="M151.529,62.209a8.445,8.445,0,0,1-2.066,2.234A34.7,34.7,0,0,1,99.1,18.564a10.65,10.65,0,0,1,2.841-3.08,34.7,34.7,0,0,1,49.591,46.725Z" fill="#fc7979"/>
      <path id="Trazado_121266" data-name="Trazado 121266" d="M151.739,61.874a34.695,34.695,0,1,1-49.252-46.779,34.7,34.7,0,0,0,49.252,46.779Z" fill="#fb5858"/>
      <path id="Trazado_121267" data-name="Trazado 121267" d="M136.75,56.506v8.7a1.621,1.621,0,0,1-1.621,1.621l-.074,0-.074,0h-7.739a1.621,1.621,0,1,1,0-3.242h6.266v-4.5h-9.342a1.621,1.621,0,0,1,0-3.242h9.323A11.291,11.291,0,0,0,122.23,45.229a14.536,14.536,0,0,1-14.519-14.519V21.422a1.621,1.621,0,0,1,1.621-1.621h7.739a1.621,1.621,0,0,1,0,3.242h-6.118v4.5h8.7a1.621,1.621,0,0,1,0,3.242h-8.7a11.29,11.29,0,0,0,11.277,11.2A14.536,14.536,0,0,1,136.75,56.506Z" fill="#fcc1b8"/>
      <path id="Trazado_121268" data-name="Trazado 121268" d="M136.75,21.687v9.022A14.536,14.536,0,0,1,122.23,45.229a11.291,11.291,0,0,0-11.258,10.615h4.679a1.621,1.621,0,0,1,0,3.242h-4.7V65.2a1.621,1.621,0,0,1-3.242,0v-8.7A14.536,14.536,0,0,1,122.23,41.986a11.29,11.29,0,0,0,11.277-11.2h-5.137a1.621,1.621,0,1,1,0-3.242h5.137V21.687a1.621,1.621,0,0,1,3.242,0Zm-11.94,1.356h2.58a1.621,1.621,0,0,0,0-3.242h-2.58a1.621,1.621,0,0,0,0,3.242Zm-5.159,15.478h5.159a1.621,1.621,0,0,0,0-3.242h-5.159a1.621,1.621,0,0,0,0,3.242Zm-.645,25.061h-2.58a1.621,1.621,0,1,0,0,3.242h2.58a1.621,1.621,0,1,0,0-3.242ZM124.165,48.1h-5.159a1.621,1.621,0,0,0,0,3.242h5.159a1.621,1.621,0,0,0,0-3.242Z" fill="#fff"/>
      <path id="Trazado_121269" data-name="Trazado 121269" d="M85.722,23.946a6.486,6.486,0,1,1-8.512-8.512.673.673,0,0,1,.941.668,6.644,6.644,0,0,0,.031,1.211,6.5,6.5,0,0,0,5.662,5.662,6.673,6.673,0,0,0,1.211.031.672.672,0,0,1,.667.941ZM63.027,9.032A6.486,6.486,0,1,1,54.515.52a.673.673,0,0,1,.941.668A6.644,6.644,0,0,0,55.487,2.4a6.5,6.5,0,0,0,5.662,5.662,6.673,6.673,0,0,0,1.211.031A.672.672,0,0,1,63.027,9.032Zm99.859,105.7a6.486,6.486,0,1,1-8.512-8.512.673.673,0,0,1,.941.668,6.644,6.644,0,0,0,.031,1.211,6.5,6.5,0,0,0,5.662,5.662,6.673,6.673,0,0,0,1.211.031.672.672,0,0,1,.667.941ZM104.12,9.032A6.486,6.486,0,1,1,95.607.52a.673.673,0,0,1,.941.668A6.644,6.644,0,0,0,96.58,2.4a6.5,6.5,0,0,0,5.662,5.662,6.673,6.673,0,0,0,1.211.031.672.672,0,0,1,.667.941Zm61.114,78.851a9.56,9.56,0,1,1-12.547-12.547.992.992,0,0,1,1.387.984,9.836,9.836,0,0,0,.046,1.785,9.581,9.581,0,0,0,8.345,8.345,9.806,9.806,0,0,0,1.785.046A.992.992,0,0,1,165.234,87.883Zm.246-78.851A6.486,6.486,0,1,1,156.968.52a.673.673,0,0,1,.941.668A6.644,6.644,0,0,0,157.94,2.4,6.5,6.5,0,0,0,163.6,8.061a6.673,6.673,0,0,0,1.211.031.672.672,0,0,1,.667.941ZM92.207,82.306a6.486,6.486,0,1,1-8.513-8.512.673.673,0,0,1,.941.668,6.644,6.644,0,0,0,.031,1.211,6.5,6.5,0,0,0,5.662,5.662,6.674,6.674,0,0,0,1.211.031.673.673,0,0,1,.667.941Z" fill="#fb5858"/>
      <path id="Trazado_121270" data-name="Trazado 121270" d="M86.242,21.4a6.456,6.456,0,0,1-.573,2.669,6.487,6.487,0,0,1-8.58-8.58A6.487,6.487,0,0,1,86.242,21.4ZM63.547,6.484a6.456,6.456,0,0,1-.573,2.669A6.487,6.487,0,0,1,53.82,3.242,6.456,6.456,0,0,1,54.394.573a6.487,6.487,0,0,1,9.153,5.911Zm99.859,105.7a6.456,6.456,0,0,1-.573,2.669,6.487,6.487,0,0,1-8.58-8.58,6.487,6.487,0,0,1,9.153,5.911ZM104.64,6.484a6.456,6.456,0,0,1-.573,2.669,6.487,6.487,0,0,1-8.58-8.58,6.487,6.487,0,0,1,9.153,5.911ZM166,84.128a9.526,9.526,0,0,1-.845,3.934,9.562,9.562,0,0,1-12.647-12.647A9.562,9.562,0,0,1,166,84.128Zm0-77.644a6.456,6.456,0,0,1-.573,2.669,6.487,6.487,0,0,1-9.153-5.911,6.456,6.456,0,0,1,.573-2.669A6.487,6.487,0,0,1,166,6.484ZM92.727,79.758a6.456,6.456,0,0,1-.573,2.669,6.487,6.487,0,0,1-8.58-8.58,6.487,6.487,0,0,1,9.153,5.911Z" fill="#fc7979"/>
      <path id="Trazado_121271" data-name="Trazado 121271" d="M44.528,60.791a4.863,4.863,0,0,1-4.863,4.863H16.97a4.863,4.863,0,1,1,0-9.727h22.7A4.863,4.863,0,0,1,44.528,60.791Zm25.779,59.78H68.686V118.95a4.863,4.863,0,0,0-4.863-4.863H54.1a4.863,4.863,0,0,0-4.863,4.863v1.621H47.612a4.863,4.863,0,1,0,0,9.727h22.7a4.863,4.863,0,0,0,0-9.727Zm43.59-16.443H100.929a4.863,4.863,0,1,0,0,9.727H113.9a4.863,4.863,0,0,0,0-9.727Z" fill="#c8e2fd"/>
      <path id="Trazado_121272" data-name="Trazado 121272" d="M84.9,125.434a4.863,4.863,0,0,1-4.863,4.863h-22.7a4.863,4.863,0,0,1,0-9.727H58.96V118.95a4.863,4.863,0,0,1,4.863-4.863H73.55a4.863,4.863,0,0,1,4.863,4.863v1.621h1.621A4.863,4.863,0,0,1,84.9,125.434ZM39.665,55.928H26.7a4.863,4.863,0,0,0,0,9.727H39.665a4.863,4.863,0,0,0,0-9.727Zm78.792,48.2h-7.8a4.863,4.863,0,0,0,0,9.727h7.8a4.863,4.863,0,0,0,0-9.727Z" fill="#e9f3fe"/>
    </g>
  </g>
</svg>
