<svg xmlns="http://www.w3.org/2000/svg" xmlns:xlink="http://www.w3.org/1999/xlink" width="190" height="166" viewBox="0 0 190 166">
  <defs>
    <clipPath id="clip-path">
      <rect id="Imagen_9" data-name="Imagen 9" width="190" height="166" rx="19" transform="translate(495 4481)" fill="#01f6ff"/>
    </clipPath>
  </defs>
  <g id="Enmascarar_grupo_145" data-name="Enmascarar grupo 145" transform="translate(-495 -4481)" clip-path="url(#clip-path)">
    <g id="energia-renovable" transform="translate(507 4481)">
      <g id="Grupo_85532" data-name="Grupo 85532">
        <g id="Grupo_85531" data-name="Grupo 85531">
          <g id="Grupo_85530" data-name="Grupo 85530">
            <g id="Grupo_85527" data-name="Grupo 85527">
              <circle id="Elipse_5069" data-name="Elipse 5069" cx="66.023" cy="66.023" r="66.023" transform="translate(16.977 18.654)" fill="#73e1ff"/>
              <path id="Trazado_121318" data-name="Trazado 121318" d="M90.652,102.2H58.081a4.56,4.56,0,1,1,0-9.12H90.652a4.56,4.56,0,1,1,0,9.12Z" fill="#b6f0ff"/>
              <g id="Grupo_85522" data-name="Grupo 85522">
                <g id="Grupo_85521" data-name="Grupo 85521">
                  <path id="Trazado_121319" data-name="Trazado 121319" d="M143.139,111.96A66.129,66.129,0,0,1,96.105,149.4a8.1,8.1,0,0,1,.3-6.752c1.242-2.262,3.46-3.795,5.133-5.762,3.626-4.073-6-7.653-5.639-10.643.483-4.037,6.891-2.742,5.305-15.379q-.527-6.681-1.06-13.362a40.869,40.869,0,0,1-.152-5.7,4.366,4.366,0,0,1,4.05-4.073c.02,0,.04,0,.063-.006A4.36,4.36,0,0,1,108.248,90c3.235,5.994,5.818,12.554,10.385,17.465,2.954,2.129,6.957,1.586,10.6,1.55a33.119,33.119,0,0,1,13.909,2.944Z" fill="#79ff79"/>
                </g>
              </g>
              <path id="Trazado_121320" data-name="Trazado 121320" d="M149.023,84.677A66.036,66.036,0,0,1,22.8,111.828,66.038,66.038,0,0,0,132.317,40.776a65.781,65.781,0,0,1,16.707,43.9Z" fill="#5cceff"/>
              <g id="Grupo_85523" data-name="Grupo 85523">
                <path id="Trazado_121321" data-name="Trazado 121321" d="M149.02,84.358c-4.474,3.222-11.114,5.2-17.663,5.325-8.12-4.057-5.037-17.935-1.765-24.608.04-.05.076-.106.113-.159a3.415,3.415,0,0,0-5.106-4.454c-3.288,2.8-7.819,2.341-11.564-2.808-5.51-11.216-9.683-20.071-24.243-19.054-8.54,1.388,2,7.438-7.762,13.074-2.9,1.56-6.272,1.917-9.474,2.7C63.477,56.28,46.87,64.46,59.7,72.646c2.527,1.768,11.067,4.239,8.858,8.223-.57.444-1.388.285-2.1.421-2,.384-2.706,3.09-1.94,4.981s2.434,3.232,3.755,4.782c3.129,3.672,4.215,9.514,1.215,13.292-6.3,6.126-14.574,6.885-8.133,17.107,2,3.98,4.54,12.09-2.97,10.743-4.99-1.083-8.06-6.077-9.908-10.832-5.765-21.816-20.147-15.432-29.81-21.787A66.028,66.028,0,1,1,149.02,84.358Z" fill="#79ff79"/>
              </g>
              <path id="Trazado_121322" data-name="Trazado 121322" d="M95.213,97.638a4.555,4.555,0,0,1-4.562,4.559H53.078a4.559,4.559,0,1,1,0-9.118H90.651A4.56,4.56,0,0,1,95.213,97.638Z" fill="#b6f0ff"/>
              <g id="Grupo_85524" data-name="Grupo 85524">
                <path id="Trazado_121323" data-name="Trazado 121323" d="M70.7,102.2H53.078a4.559,4.559,0,1,1,0-9.118H69.67A11.183,11.183,0,0,1,70.7,102.2Z" fill="#c2ffc2"/>
              </g>
              <path id="Trazado_121324" data-name="Trazado 121324" d="M134.549,89.478a66.3,66.3,0,0,0-2.229-48.7,65.777,65.777,0,0,1,16.7,43.576,31.18,31.18,0,0,1-14.471,5.119Z" fill="#29e088"/>
              <g id="Grupo_85526" data-name="Grupo 85526">
                <g id="Grupo_85525" data-name="Grupo 85525">
                  <path id="Trazado_121325" data-name="Trazado 121325" d="M143.139,111.96A66.129,66.129,0,0,1,96.105,149.4a8.1,8.1,0,0,1,.3-6.752c1.242-2.262,3.46-3.795,5.133-5.762,2.6-2.924-1.619-5.59-4.076-7.967a66.249,66.249,0,0,0,26.31-19.856c1.795.116,3.669-.027,5.457-.043A33.119,33.119,0,0,1,143.139,111.96Z" fill="#29e088"/>
                </g>
              </g>
              <path id="Trazado_121326" data-name="Trazado 121326" d="M44.181,37.912l-.063-.077a4.934,4.934,0,0,0-7.249-.384,66.024,66.024,0,0,0-8.174,84.785,4.929,4.929,0,0,0,7.265.936l.076-.065a4.946,4.946,0,0,0,.824-6.576,55.978,55.978,0,0,1,6.967-71.953,4.929,4.929,0,0,0,.354-6.665Z" fill="#c2ffc2"/>
              <path id="Trazado_121327" data-name="Trazado 121327" d="M36.035,123.107c-.023.023-.05.043-.076.066a4.927,4.927,0,0,1-7.262-.937A65.594,65.594,0,0,1,18.666,99.575c3.421,2.248,7.431,2.9,11.445,3.775a55.913,55.913,0,0,0,6.749,13.18A4.946,4.946,0,0,1,36.035,123.107Z" fill="#b6f0ff"/>
            </g>
            <g id="Grupo_85528" data-name="Grupo 85528">
              <path id="Trazado_121328" data-name="Trazado 121328" d="M114.766,78.619H93.986a4.56,4.56,0,1,1,0-9.12h20.78a4.56,4.56,0,0,1,0,9.12Z" fill="#b6f0ff"/>
              <path id="Trazado_121329" data-name="Trazado 121329" d="M100.472,78.619H97.905a4.56,4.56,0,0,1,0-9.12h2.567a4.56,4.56,0,0,1,0,9.12Z" fill="#dcfeff"/>
            </g>
            <g id="Grupo_85529" data-name="Grupo 85529">
              <path id="Trazado_121330" data-name="Trazado 121330" d="M62.3,102.2H58.081a4.56,4.56,0,0,1,0-9.12H62.3a4.56,4.56,0,1,1,0,9.12Z" fill="#efe"/>
              <path id="Trazado_121331" data-name="Trazado 121331" d="M46.532,86.49H42.309a4.56,4.56,0,1,1,0-9.12h4.223a4.56,4.56,0,1,1,0,9.12Z" fill="#29e088"/>
              <path id="Trazado_121332" data-name="Trazado 121332" d="M67.815,47.974H63.592a4.56,4.56,0,0,1,0-9.12h4.223a4.56,4.56,0,0,1,0,9.12Z" fill="#c2ffc2"/>
              <path id="Trazado_121333" data-name="Trazado 121333" d="M123.092,52.534h-4.223a4.56,4.56,0,1,1,0-9.12h4.223a4.56,4.56,0,0,1,0,9.12Z" fill="#29e088"/>
              <path id="Trazado_121334" data-name="Trazado 121334" d="M113.444,40.45h-4.223a4.56,4.56,0,0,1,0-9.12h4.223a4.56,4.56,0,1,1,0,9.12Z" fill="#c2ffc2"/>
              <path id="Trazado_121335" data-name="Trazado 121335" d="M79.279,70.652H75.057a4.56,4.56,0,0,1,0-9.12H79.28a4.56,4.56,0,1,1,0,9.12Z" fill="#b6f0ff"/>
              <path id="Trazado_121336" data-name="Trazado 121336" d="M85.111,125.825H80.888a4.56,4.56,0,1,1,0-9.12h4.223a4.56,4.56,0,1,1,0,9.12Z" fill="#5cceff"/>
            </g>
            <circle id="Elipse_5070" data-name="Elipse 5070" cx="5.02" cy="5.02" r="5.02" transform="translate(46.526 27.378)" fill="#c2ffc2"/>
          </g>
        </g>
      </g>
      <g id="Grupo_85540" data-name="Grupo 85540">
        <g id="Grupo_85539" data-name="Grupo 85539">
          <g id="Grupo_85538" data-name="Grupo 85538">
            <g id="Grupo_85533" data-name="Grupo 85533">
              <path id="Trazado_121337" data-name="Trazado 121337" d="M83,166A81.323,81.323,0,0,1,25.5,27.173,81.323,81.323,0,1,1,140.5,142.181,80.791,80.791,0,0,1,83,166ZM83,13.594A71.083,71.083,0,0,0,32.737,134.94,71.083,71.083,0,0,0,133.263,34.414,70.618,70.618,0,0,0,83,13.594Z" fill="#038fbf"/>
            </g>
            <g id="Grupo_85534" data-name="Grupo 85534">
              <path id="Trazado_121338" data-name="Trazado 121338" d="M147.771,55.4a71.087,71.087,0,0,1,5.783,20.893,5.088,5.088,0,0,0,5.052,4.5h.1a5.1,5.1,0,0,0,5.057-5.689,80.634,80.634,0,0,0-6.624-23.929,5.1,5.1,0,0,0-6.966-2.458l-.092.047a5.092,5.092,0,0,0-2.314,6.641Z" fill="#00addb"/>
            </g>
            <g id="Grupo_85535" data-name="Grupo 85535">
              <path id="Trazado_121339" data-name="Trazado 121339" d="M73.428,155.121A70.318,70.318,0,0,1,42.2,142.9a5.056,5.056,0,0,0-6.466.567l-.073.073a5.08,5.08,0,0,0,.671,7.761,80.445,80.445,0,0,0,35.69,13.965,5.083,5.083,0,0,0,5.782-5.023v-.1a5.062,5.062,0,0,0-4.38-5.022Z" fill="#00addb"/>
            </g>
            <g id="Grupo_85537" data-name="Grupo 85537">
              <g id="Grupo_85536" data-name="Grupo 85536">
                <path id="Trazado_121340" data-name="Trazado 121340" d="M12.14,79.084a70.535,70.535,0,0,1,6.645-24.967,5.092,5.092,0,0,0-.974-5.8l-.075-.075A5.074,5.074,0,0,0,9.57,49.647,80.7,80.7,0,0,0,1.925,78.295a5.082,5.082,0,0,0,5.053,5.495h.107a5.079,5.079,0,0,0,5.055-4.705Z" fill="#00addb"/>
                <path id="Trazado_121341" data-name="Trazado 121341" d="M12.782,95.8l-.015-.093a4.4,4.4,0,0,0-4.339-3.748H6.943A4.383,4.383,0,0,0,2.6,96.976q.05.332.1.664a4.384,4.384,0,0,0,5.579,3.5l1.421-.421A4.4,4.4,0,0,0,12.782,95.8Z" fill="#00addb"/>
              </g>
              <path id="Trazado_121342" data-name="Trazado 121342" d="M123.061,13.874A80.439,80.439,0,0,0,93.808,4.067a5.077,5.077,0,0,0-5.753,5.025v.1a5.066,5.066,0,0,0,4.4,5.023,70.306,70.306,0,0,1,25.549,8.566,5.055,5.055,0,0,0,6.308-1.093l.068-.078A5.074,5.074,0,0,0,123.061,13.874Z" fill="#00addb"/>
            </g>
          </g>
        </g>
      </g>
      <g id="Grupo_85543" data-name="Grupo 85543">
        <g id="Grupo_85541" data-name="Grupo 85541">
          <circle id="Elipse_5071" data-name="Elipse 5071" cx="23.478" cy="23.478" r="23.478" transform="translate(59.522 0)" fill="#f1eee0"/>
          <path id="Trazado_121343" data-name="Trazado 121343" d="M106.479,23.479A23.483,23.483,0,0,1,62.142,34.268,20.875,20.875,0,1,0,85.141.1a23.481,23.481,0,0,1,21.338,23.383Z" fill="#e8e4d8"/>
          <path id="Trazado_121344" data-name="Trazado 121344" d="M66.892,29.634a5.122,5.122,0,0,0,2.683-5.014q-.048-.564-.048-1.141a13.43,13.43,0,0,1,4.3-9.852,5.007,5.007,0,0,0-6.812-7.339,23.41,23.41,0,0,0-7.49,17.191q0,1.135.106,2.244a4.975,4.975,0,0,0,7.264,3.911Z" fill="#f9f8f2"/>
        </g>
        <g id="Grupo_85542" data-name="Grupo 85542">
          <path id="Trazado_121345" data-name="Trazado 121345" d="M89.152,23.478H85.683L88.731,9.461A1.078,1.078,0,0,0,86.9,8.49L75.545,20.444a1.8,1.8,0,0,0,1.3,3.034h3.469L77.269,37.495a1.078,1.078,0,0,0,1.835.971L90.454,26.512A1.8,1.8,0,0,0,89.152,23.478Z" fill="#ffc751"/>
          <path id="Trazado_121346" data-name="Trazado 121346" d="M90.455,26.511,79.1,38.466a1.077,1.077,0,0,1-1.834-.97l.753-3.46c4.116-3.526,6.913-10.456,6.913-18.428a32.807,32.807,0,0,0-.334-4.7L86.895,8.49a1.078,1.078,0,0,1,1.836.97L85.683,23.478h3.47A1.8,1.8,0,0,1,90.455,26.511Z" fill="#ffaf40"/>
        </g>
      </g>
      <g id="Grupo_85558" data-name="Grupo 85558">
        <g id="Grupo_85554" data-name="Grupo 85554">
          <g id="Grupo_85544" data-name="Grupo 85544">
            <circle id="Elipse_5072" data-name="Elipse 5072" cx="23.478" cy="23.478" r="23.478" transform="translate(114.591 91.215)" fill="#f1eee0"/>
            <path id="Trazado_121347" data-name="Trazado 121347" d="M161.548,114.694a23.483,23.483,0,0,1-44.337,10.789,20.875,20.875,0,1,0,23-34.172A23.481,23.481,0,0,1,161.548,114.694Z" fill="#e8e4d8"/>
            <path id="Trazado_121348" data-name="Trazado 121348" d="M121.96,120.849a5.122,5.122,0,0,0,2.683-5.014q-.048-.564-.048-1.141a13.43,13.43,0,0,1,4.3-9.852A5.007,5.007,0,0,0,122.08,97.5a23.41,23.41,0,0,0-7.49,17.191q0,1.135.106,2.244a4.975,4.975,0,0,0,7.264,3.911Z" fill="#f9f8f2"/>
          </g>
          <g id="Grupo_85553" data-name="Grupo 85553">
            <g id="Grupo_85548" data-name="Grupo 85548">
              <g id="Grupo_85545" data-name="Grupo 85545">
                <path id="Trazado_121349" data-name="Trazado 121349" d="M137.065,121.49v-5.3a9.806,9.806,0,0,1,9.806-9.806h5.3a1.512,1.512,0,0,1,1.512,1.512v5.3A9.806,9.806,0,0,1,143.876,123h-5.3A1.511,1.511,0,0,1,137.065,121.49Z" fill="#79ff79"/>
              </g>
              <g id="Grupo_85546" data-name="Grupo 85546">
                <path id="Trazado_121350" data-name="Trazado 121350" d="M153.684,107.894v5.3A9.807,9.807,0,0,1,143.878,123h-5.3a1.509,1.509,0,0,1-1.07-.442l15.734-15.73A1.507,1.507,0,0,1,153.684,107.894Z" fill="#29e088"/>
              </g>
              <g id="Grupo_85547" data-name="Grupo 85547">
                <path id="Trazado_121351" data-name="Trazado 121351" d="M153.34,115.765A9.8,9.8,0,0,1,143.878,123h-5.3a1.509,1.509,0,0,1-1.07-.442l2.756-2.756a12.971,12.971,0,0,0,13.076-4.037Z" fill="#0cc166"/>
                <path id="Trazado_121352" data-name="Trazado 121352" d="M140.264,119.8l-2.756,2.756a1.521,1.521,0,0,1-.442-1.07v-3a12.761,12.761,0,0,0,3.2,1.316Z" fill="#29e088"/>
              </g>
            </g>
            <g id="Grupo_85552" data-name="Grupo 85552">
              <g id="Grupo_85549" data-name="Grupo 85549">
                <path id="Trazado_121353" data-name="Trazado 121353" d="M137.065,121.672v-4.659a8.622,8.622,0,0,0-8.622-8.622h-4.659a1.329,1.329,0,0,0-1.329,1.329v4.659A8.622,8.622,0,0,0,131.077,123h4.659A1.329,1.329,0,0,0,137.065,121.672Z" fill="#29e088"/>
              </g>
              <g id="Grupo_85550" data-name="Grupo 85550">
                <path id="Trazado_121354" data-name="Trazado 121354" d="M122.453,109.719v4.66A8.623,8.623,0,0,0,131.075,123h4.66a1.326,1.326,0,0,0,.941-.389l-13.834-13.831a1.326,1.326,0,0,0-.389.937Z" fill="#79ff79"/>
              </g>
              <g id="Grupo_85551" data-name="Grupo 85551">
                <path id="Trazado_121355" data-name="Trazado 121355" d="M122.756,116.639A8.62,8.62,0,0,0,131.075,123h4.66a1.326,1.326,0,0,0,.941-.389l-2.423-2.423a11.4,11.4,0,0,1-11.5-3.55Z" fill="#29e088"/>
                <path id="Trazado_121356" data-name="Trazado 121356" d="M134.253,120.189l2.423,2.423a1.338,1.338,0,0,0,.389-.941v-2.639a11.253,11.253,0,0,1-2.812,1.156Z" fill="#0cc166"/>
              </g>
            </g>
          </g>
        </g>
        <g id="Grupo_85557" data-name="Grupo 85557">
          <g id="Grupo_85555" data-name="Grupo 85555">
            <circle id="Elipse_5073" data-name="Elipse 5073" cx="23.478" cy="23.478" r="23.478" transform="translate(4.453 91.215)" fill="#f1eee0"/>
            <path id="Trazado_121357" data-name="Trazado 121357" d="M51.411,114.694A23.483,23.483,0,0,1,7.074,125.483a20.875,20.875,0,1,0,23-34.172A23.481,23.481,0,0,1,51.411,114.694Z" fill="#e8e4d8"/>
            <path id="Trazado_121358" data-name="Trazado 121358" d="M11.823,120.849a5.122,5.122,0,0,0,2.683-5.014q-.048-.564-.048-1.141a13.43,13.43,0,0,1,4.3-9.852A5.007,5.007,0,0,0,11.943,97.5a23.41,23.41,0,0,0-7.49,17.191q0,1.135.106,2.244A4.975,4.975,0,0,0,11.823,120.849Z" fill="#f9f8f2"/>
          </g>
          <g id="Grupo_85556" data-name="Grupo 85556">
            <path id="Trazado_121359" data-name="Trazado 121359" d="M27.931,100.331a1.71,1.71,0,0,0-1.549.992c-2.852,6.124-8.646,13.99-8.646,18.235,0,5.63,4.564,9.5,10.2,9.5s10.2-3.864,10.2-9.5c0-4.245-5.794-12.111-8.646-18.235A1.71,1.71,0,0,0,27.931,100.331Z" fill="#73e1ff"/>
            <path id="Trazado_121360" data-name="Trazado 121360" d="M38.126,119.559c0,5.629-4.564,9.5-10.2,9.5a11.982,11.982,0,0,1-2.086-.182,15.474,15.474,0,0,0-.274-25.9q.435-.84.812-1.648a1.705,1.705,0,0,1,3.1,0c2.852,6.123,8.645,13.99,8.645,18.235Z" fill="#5cceff"/>
          </g>
        </g>
      </g>
    </g>
  </g>
</svg>
