<svg xmlns="http://www.w3.org/2000/svg" width="830" height="196.12" viewBox="0 0 830 196.12">
  <g id="Grupo_86310" data-name="Grupo 86310" transform="translate(4904 -1484.938)">
    <g id="Grupo_86309" data-name="Grupo 86309" transform="translate(-4904 1484.938)">
      <g id="Grupo_86308" data-name="Grupo 86308">
        <path id="Rectángulo_33936" data-name="Rectángulo 33936" d="M0,0H745a85,85,0,0,1,85,85V185a0,0,0,0,1,0,0H0a0,0,0,0,1,0,0V0A0,0,0,0,1,0,0Z" fill="#deebad"/>
        <g id="Grupo_80262" data-name="Grupo 80262" transform="translate(723.684 117.985) rotate(-9)">
          <path id="Trazado_113591" data-name="Trazado 113591" d="M26.364.108c-6.639.835-8.483,7.079-7.723,12.93.654,5.029,4.037,9.876,3.725,15-.222,3.642-3.955,2.7-6.474,2.058-3.184-.811-6.487-1.955-9.82-1.7C3.532,28.589.96,29.947.18,32.541c-.665,2.21.609,4.225,2.2,5.659,4.665,4.192,11.827,5.988,17.542,8.137,2.12.8,8.744,1.669,9.283,4.215.375,1.78-3.523,1.885-4.655,1.967-4.212.309-8.412-.241-12.621-.146-2.768.062-9.752.412-9.123,4.68.43,2.9,3.575,5.173,5.9,6.515A71.96,71.96,0,0,0,19.6,68.617a94.9,94.9,0,0,0,14.609,3.819,108.834,108.834,0,0,0,14.45,2.134c2.225.138,4.451.1,6.674.288a1.125,1.125,0,0,0,.807.945,74.411,74.411,0,0,0,13.027,3.085c3.48.445,7.277.387,10.211-1.8,3.332-2.478,5.274-6.657,7.616-9.985,2.155-3.066,4.778-5.96,6.328-9.4,1.591-3.533,3.153-9.647-1.093-12.022-5.4-3.015-11.709,2.447-17.039,3.007-1.3.136-3.513.017-4.062-1.492-.373-1.031.4-2.235.934-3.062a34.579,34.579,0,0,1,6.094-6.5c3.758-3.412,8.295-7.2,5.984-12.9-2.628-6.48-11.2-6.814-16.274-3.173A18.737,18.737,0,0,0,61.9,29.8a31.006,31.006,0,0,0-1.4,4.167c-.638,2.406-2.212,3.574-4.618,2.023-3.675-2.367-4.9-7.927-6.322-11.728A68.211,68.211,0,0,0,43.745,11.68C39.848,5.483,34.47-.912,26.364.108Z" transform="translate(0 0)" fill="#add031"/>
          <g id="Grupo_80153" data-name="Grupo 80153" transform="translate(25.644 10.582)">
            <path id="Trazado_113592" data-name="Trazado 113592" d="M.006.74A49.018,49.018,0,0,0,2.541,12.068a82.126,82.126,0,0,0,4.651,9.993A119.911,119.911,0,0,0,19.683,40.776,124.034,124.034,0,0,0,35.739,56.982q4.1,3.472,8.444,6.659c3.015,2.208,6.39,4.937,10.1,5.764.488.109.934-.512.517-.889-2.634-2.381-6.03-3.97-8.931-6.021-3.033-2.146-5.978-4.437-8.83-6.818A111.573,111.573,0,0,1,22,40.249,120.844,120.844,0,0,1,9.873,22.041C6.274,15.452,2.868,7.967,1.5.538c-.152-.831-1.6-.65-1.492.2Z" transform="translate(0 0)" fill="#4f9638"/>
          </g>
          <g id="Grupo_80154" data-name="Grupo 80154" transform="translate(70.627 49.079)">
            <path id="Trazado_113593" data-name="Trazado 113593" d="M1.089,20.222c2.148-3.344,4.173-6.768,6.359-10.086C8.516,8.515,9.621,6.92,10.8,5.38c1.239-1.62,2.677-3.14,3.764-4.867.171-.27-.181-.658-.457-.457A20.573,20.573,0,0,0,10.121,4.3C8.884,5.9,7.723,7.56,6.608,9.251,4.359,12.665,2.291,16.194.093,19.639c-.4.63.6,1.208,1,.584Z" transform="translate(0)" fill="#4f9638"/>
          </g>
          <g id="Grupo_80155" data-name="Grupo 80155" transform="translate(38.159 7.936)">
            <path id="Trazado_113594" data-name="Trazado 113594" d="M5.272,33.336c1.947-5.281,1.541-11.287.6-16.731a68.394,68.394,0,0,0-2.2-9.057C2.917,5.139,2.142,2.18.6.14.4-.129-.095.009.016.387c.7,2.364,1.926,4.595,2.7,6.954A68.926,68.926,0,0,1,4.965,16.1C6,21.6,6.8,27.837,5.037,33.272c-.049.15.181.208.235.064Z" fill="#4f9638"/>
          </g>
          <g id="Grupo_80156" data-name="Grupo 80156" transform="translate(2.34 34.465)">
            <path id="Trazado_113595" data-name="Trazado 113595" d="M35.339,6.315c-3.167-.294-6.271-.4-9.429-.844-3.013-.418-6.058-.578-9.065-1.049a80.509,80.509,0,0,1-9.1-1.91C5.263,1.821,2.915.141.324,0A.338.338,0,0,0,.155.625C5.133,3.8,11.414,4.932,17.17,5.72c2.85.389,5.723.619,8.586.881,3.21.294,6.375.054,9.582.231.335.018.327-.486,0-.517Z" transform="translate(0)" fill="#4f9638"/>
          </g>
          <g id="Grupo_80157" data-name="Grupo 80157" transform="translate(8.229 57.266)">
            <path id="Trazado_113596" data-name="Trazado 113596" d="M.234.881c6.707,3.188,14.076,4.461,21.433,5.2a80.633,80.633,0,0,0,11.913.142c1.928-.093,3.856-.216,5.783-.3,1.729-.078,3.671.233,5.223-.6a.491.491,0,0,0,0-.84c-1.373-.7-2.885-.418-4.4-.358-1.928.078-3.856.185-5.783.268a94.5,94.5,0,0,1-11.57-.086A98.687,98.687,0,0,1,.6.021C.1-.138-.254.65.234.881Z" fill="#4f9638"/>
          </g>
          <g id="Grupo_80158" data-name="Grupo 80158" transform="translate(55.153 22.441)">
            <path id="Trazado_113597" data-name="Trazado 113597" d="M.454,33.349c1.432-3.488,2.918-6.9,4.653-10.25a61.16,61.16,0,0,1,6.017-9.09,45.453,45.453,0,0,1,7.7-7.435c1.27-1.035,2.434-2.192,3.721-3.206C23.7,2.461,25.326,1.853,26.326.82a.475.475,0,0,0-.208-.788c-2.653-.416-5.544,3.367-7.3,4.91C17.463,6.136,15.966,7.148,14.657,8.4c-1.461,1.4-2.729,2.974-4.107,4.455A37.549,37.549,0,0,0,4.1,22.189,97.861,97.861,0,0,0,.014,33.228c-.1.282.331.385.44.121Z" fill="#4f9638"/>
          </g>
        </g>
      </g>
    </g>
  </g>
</svg>
