<svg xmlns="http://www.w3.org/2000/svg" width="298.063" height="346.023" viewBox="0 0 298.063 346.023">
  <g id="Grupo_86298" data-name="Grupo 86298" transform="translate(5379 5189.012)">
    <g id="Grupo_86296" data-name="Grupo 86296">
      <rect id="Rectángulo_34761" data-name="Rectángulo 34761" width="298.063" height="346" rx="20" transform="translate(-5379 -5189.012)" fill="#ffe9e1"/>
      <g id="Grupo_86008" data-name="Grupo 86008" transform="translate(-5400.566 -5198.17)">
        <path id="Trazado_119107" data-name="Trazado 119107" d="M72.177,226.379H258.7a3.167,3.167,0,0,1,.07-1.307c.677-2.506,3.916-3.572,6.6-4.536,8.456-3.03,16.045-10.114,15.354-18.179-.424-4.95-3.918-9.362-8.344-12.358a31.549,31.549,0,0,0-2.869-1.706c4.635-3.521,7.232-9.441,4.359-14.08l-2.39-9.18c-4.415-5.762,1.1-13.642,8.2-16.977s15.559-4.12,22.631-7.488,12.492-11.324,7.966-17.024c-4.261-5.365-14.167-5.046-19.478-9.692a8.948,8.948,0,0,1-1.633-11.861c2.222-3.159,6.279-4.981,9.675-7.273s6.444-5.834,5.31-9.382c-4.006-9.4-37.193-3.106-55.694-6.166-5.16-.853-11.247-3.451-10.991-7.894.154-2.668,2.662-4.788,3.673-7.318,2.41-6.035-4.649-12.224-12.044-13.42s-14.909.823-22.37,1.676a72.3,72.3,0,0,1-17.347-.118,9.242,9.242,0,0,1-4.692-1.543c-1.128-.927-1.589-2.279-2.463-3.385-2.3-2.906-14.359-7.735-26.123-7.891-31.016-.412-40.168-.088-73.017,6.726A59.64,59.64,0,0,0,69.56,51.5c-2.615,1.713-4.411,4.624-3.551,7.326,2.055,3.136,8.275,3.746,12.413,5.62,1.242.562,2.619,1.274,2.873,2.447.393,1.811-2.065,3.051-4.129,3.635-18.328,5.183-28.1,3.966-43.483,13.868-1.76,1.134-3.5,2.515-3.983,4.342-1.006,3.835,3.844,6.851,8.175,8.263,6.789,2.212,10.255,2.183,17.449,3.264,5.222.784,4.211.459,7.187,1.428s5.271,2.458,4.536,5.084c-.805,2.877-9.678,5.383-12.923,6.48-10.205,3.451-19.343,11.562-18.466,20.832.539,5.689,4.784,10.772,10.15,14.23S57.6,153.828,64,155.639q9.746,2.757,19.715,4.9a8.048,8.048,0,0,0,.088,7.528l1.943,7.983c3.631,5-.963,11.876-6.845,14.8s-12.887,3.628-18.75,6.577-10.377,9.889-6.654,14.837c3.505,4.659,11.7,4.355,16.078,8.384A8.135,8.135,0,0,1,72.177,226.379Z" transform="translate(0 0)" fill="#d4f9ec"/>
        <g id="Grupo_84822" data-name="Grupo 84822" transform="translate(61.736 49.116)">
          <path id="Trazado_119108" data-name="Trazado 119108" d="M289.384,88.233H318.79a8.223,8.223,0,0,0-7.611-11.345,8.378,8.378,0,0,0-.854.044,11.968,11.968,0,0,0-21.919-.761,8.568,8.568,0,0,0-10.344,12.062Z" transform="translate(-150.73 -59.979)" fill="#fff"/>
          <path id="Trazado_119109" data-name="Trazado 119109" d="M250.067,170.014H269.02a5.3,5.3,0,0,0-4.905-7.313,5.4,5.4,0,0,0-.551.029,7.714,7.714,0,0,0-14.128-.491,5.522,5.522,0,0,0-6.667,7.775Z" transform="translate(-138.164 -91.791)" fill="#fff"/>
          <path id="Trazado_119110" data-name="Trazado 119110" d="M175.73,74.51h30.878a8.637,8.637,0,0,0-8.889-11.867,12.567,12.567,0,0,0-23.016-.8A9,9,0,0,0,163.841,74.51Z" transform="translate(-109.648 -54.706)" fill="#fff"/>
          <path id="Trazado_119111" data-name="Trazado 119111" d="M92.692,174.281H123.57a8.637,8.637,0,0,0-8.889-11.867,12.567,12.567,0,0,0-23.016-.8A9,9,0,0,0,80.8,174.281Z" transform="translate(-79.794 -90.576)" fill="#fff"/>
          <path id="Trazado_119112" data-name="Trazado 119112" d="M378.619,145.956h19.15a5.355,5.355,0,0,0-4.956-7.389,5.517,5.517,0,0,0-.557.029,7.794,7.794,0,0,0-14.274-.5,5.579,5.579,0,0,0-6.736,7.855Z" transform="translate(-184.351 -83.096)" fill="#fff"/>
          <path id="Trazado_119113" data-name="Trazado 119113" d="M355.953,197.845h15.564a4.352,4.352,0,0,0-4.028-6.005,4.391,4.391,0,0,0-.452.024,6.335,6.335,0,0,0-11.6-.4,4.535,4.535,0,0,0-5.475,6.384Z" transform="translate(-176.741 -102.579)" fill="#fff"/>
        </g>
        <ellipse id="Elipse_4952" data-name="Elipse 4952" cx="96.318" cy="11.926" rx="96.318" ry="11.926" transform="translate(74.432 280.829)" fill="#cee284"/>
        <g id="Grupo_84873" data-name="Grupo 84873" transform="translate(65.945 40.27)">
          <g id="Grupo_84864" data-name="Grupo 84864" transform="translate(12.227 0)">
            <g id="Grupo_84837" data-name="Grupo 84837">
              <g id="Grupo_84832" data-name="Grupo 84832" transform="translate(0 16.858)">
                <g id="Grupo_84831" data-name="Grupo 84831">
                  <g id="Grupo_84825" data-name="Grupo 84825" transform="translate(0 120.402)">
                    <g id="Grupo_84823" data-name="Grupo 84823" transform="translate(0 1.088)">
                      <path id="Trazado_119114" data-name="Trazado 119114" d="M113.815,258.875a4.085,4.085,0,0,0,.6,3.812c1.4,1.854,8.739,3.331,9.689,5.5.807,1.843-.375,3.233-3.6,3.074-1.871-.092-6.174.132-8.651-1.967a70.991,70.991,0,0,1-6.338-5.793c-.577-.932,3.355-5.2,3.2-6.333S113.815,258.875,113.815,258.875Z" transform="translate(-105.455 -256.899)" fill="#366163"/>
                    </g>
                    <g id="Grupo_84824" data-name="Grupo 84824" transform="translate(0.53)">
                      <path id="Trazado_119115" data-name="Trazado 119115" d="M114.642,257.176a4.085,4.085,0,0,0,.6,3.812c1.4,1.854,7.4,4.385,8.907,6.209.958,1.161.407,2.522-2.821,2.363-1.871-.092-6.174.132-8.651-1.967a70.984,70.984,0,0,1-6.338-5.793c-.577-.932,3.355-5.2,3.2-6.333S114.642,257.176,114.642,257.176Z" transform="translate(-106.282 -255.2)" fill="#f9ba1c"/>
                    </g>
                  </g>
                  <g id="Grupo_84827" data-name="Grupo 84827" transform="translate(33.39 122.404)">
                    <g id="Grupo_84826" data-name="Grupo 84826">
                      <path id="Trazado_119116" data-name="Trazado 119116" d="M163.17,258.326s-.585,2.057,1.895,2.6,9.279,1.845,11.608,2.96,2.819,3.4-.664,3.961-16.614.434-17.754.07-.7-5.112.447-8.442C159.108,258.3,163.17,258.326,163.17,258.326Z" transform="translate(-157.587 -258.326)" fill="#f9ba1c"/>
                      <path id="Trazado_119117" data-name="Trazado 119117" d="M157.909,270.388c1.14.364,14.69.3,18.174-.263,1.334-.215,1.975-.659,2.129-1.187.728,1.091.24,2.331-2.2,2.724-3.484.561-16.614.434-17.754.07-.455-.145-.76-.646-.637-1.487A.611.611,0,0,0,157.909,270.388Z" transform="translate(-157.589 -262.141)" fill="#366163"/>
                    </g>
                  </g>
                  <g id="Grupo_84830" data-name="Grupo 84830" transform="translate(2.468)">
                    <g id="Grupo_84829" data-name="Grupo 84829">
                      <path id="Trazado_119118" data-name="Trazado 119118" d="M155.057,145.283s4.326,28.963,4.488,33.52-3.271,40.475-3.271,40.475l-5.705.509s-1.745-31.968-1.472-38.824c-.652-2.349-4.413-19.717-7.628-23.518s-5.341-7.8-5.216-11.36S155.057,145.283,155.057,145.283Z" transform="translate(-118.993 -94.916)" fill="#264649"/>
                      <path id="Trazado_119119" data-name="Trazado 119119" d="M144.652,148.176s-5.182,29.126-6.931,33.634-21.606,35.618-21.606,35.618l-5.571-1.836s13.347-29.376,16.463-35.948c.368-2.557,3.327-16.437-.678-19.786-7.7-6.442-4.539-14.174-2.939-17.589S144.652,148.176,144.652,148.176Z" transform="translate(-109.752 -93.928)" fill="#366163"/>
                      <g id="Grupo_84828" data-name="Grupo 84828">
                        <path id="Trazado_119120" data-name="Trazado 119120" d="M109.308,67.214" transform="translate(-109.308 -67.214)" fill="#ffc9a4"/>
                        <path id="Trazado_119121" data-name="Trazado 119121" d="M128.992,79.862s-8.864,12.259-14.313,23.762c-2.119,4.692,12.9,18.479,12.9,18.479Z" transform="translate(-111.165 -71.761)" fill="#5bcece"/>
                        <path id="Trazado_119122" data-name="Trazado 119122" d="M139.835,70.166s-12.5,2.3-13.69,28.571a239.447,239.447,0,0,0-.088,24.518s17.167,4.087,27.749-.917C153.806,100.68,151.868,72.384,139.835,70.166Z" transform="translate(-115.24 -68.275)" fill="#62c2cd"/>
                      </g>
                    </g>
                  </g>
                </g>
              </g>
              <g id="Grupo_84836" data-name="Grupo 84836" transform="translate(23.053)">
                <path id="Trazado_119123" data-name="Trazado 119123" d="M164.374,45.716s2.717.107,4.688,3.569,2.557,6.765,1.492,11.879-4.795,4.027-5.54,4.3a4.221,4.221,0,0,0,2.755-3.452,16.7,16.7,0,0,1-2.755,2.584c-.746.586-1.811,5.141.213,6.739-1.492-.746-2.824-2.983-2.5-4.262A4.254,4.254,0,0,0,163.4,70.7a4.212,4.212,0,0,1-1.685-1.971c.213,1.545.107,2.078,1.305,3.2-4.661-.852-7.644-3.516-9.455-8.363S162.616,45.823,164.374,45.716Z" transform="translate(-145.73 -42.627)" fill="#264649"/>
                <path id="Trazado_119124" data-name="Trazado 119124" d="M168.086,51.888s1.439,3.236-.479,5.554-1.918,3.756-1.638,5.593c-.4.559-1.878,0-1.878,0a4.089,4.089,0,0,1-.279.939,4.622,4.622,0,0,1-1.119.16c.06.519.2.819,0,.9s-.839.12-1.019.42-.486,1.978-1.845,1.552-5.274-5.034-3.835-9.349,6.552-6.979,7.244-7.4S168.3,51.4,168.086,51.888Z" transform="translate(-146.565 -44.231)" fill="#ffc9a4"/>
                <path id="Trazado_119125" data-name="Trazado 119125" d="M153.955,68.818a2.585,2.585,0,0,0-2.2,1.478c-.719,1.478,2.2,6.833,1.558,6.833-3.306-.487-9.27-8.311-9.27-8.311s4.036-2.637,5.354-4.555a7.626,7.626,0,0,1,2.7-2.557Z" transform="translate(-142.382 -48.376)" fill="#f7bb92"/>
                <g id="Grupo_84833" data-name="Grupo 84833" transform="translate(17.146 12.971)">
                  <path id="Trazado_119126" data-name="Trazado 119126" d="M170.094,62.942a1.941,1.941,0,0,1-1.871-1.628.139.139,0,1,1,.272-.059,1.641,1.641,0,0,0,1.6,1.408h0a.139.139,0,0,1,0,.279Z" transform="translate(-168.219 -61.145)" fill="#365b5b"/>
                </g>
                <g id="Grupo_84834" data-name="Grupo 84834" transform="translate(17.526 11.182)">
                  <path id="Trazado_119127" data-name="Trazado 119127" d="M171.628,60.54a.139.139,0,0,1-.136-.107,2.2,2.2,0,0,0-2.515-1.754.138.138,0,0,1-.163-.11.14.14,0,0,1,.11-.164c2.246-.439,2.834,1.939,2.84,1.962a.14.14,0,0,1-.1.168A.133.133,0,0,1,171.628,60.54Z" transform="translate(-168.812 -58.351)" fill="#365b5b"/>
                </g>
                <path id="Trazado_119128" data-name="Trazado 119128" d="M163.315,49.123a11.2,11.2,0,0,0-3.712-6.685c-3.24-2.663-7.981-2.078-12.349,3.3s-7.4,11.666-4.9,15.342c.373-.054,2.344-1.492,3.25-.906s2.606,2.983,5.565,3.782a14.517,14.517,0,0,1-2.322-2.93,7.279,7.279,0,0,0,3.728,2.5,5.764,5.764,0,0,1-1.75-2.4c1.012,1.385,1.551,1.158,2.905,1.878-.562-1.025-3.841-8.358-.79-11.3.9-.681.441.4.441.4a2.864,2.864,0,0,0,3.3-.783C158.068,49.682,161.6,51.352,163.315,49.123Z" transform="translate(-141.448 -40.893)" fill="#365b5b"/>
                <g id="Grupo_84835" data-name="Grupo 84835">
                  <path id="Trazado_119129" data-name="Trazado 119129" d="M147.254,45.74c4.368-5.381,9.11-5.966,12.349-3.3a11.108,11.108,0,0,1,3.61,6.12,10.377,10.377,0,0,0-2.836-3.783c-3.24-2.664-7.98-2.078-12.348,3.3a15.679,15.679,0,0,0-3.136,11.969,12.069,12.069,0,0,0-2.54,1.036C139.85,57.407,142.886,51.12,147.254,45.74Z" transform="translate(-141.448 -40.893)" fill="#264649"/>
                </g>
                <path id="Trazado_119130" data-name="Trazado 119130" d="M159.436,57.361s-.12-3.237-1.478-2.677-1.8,3.156-.76,4.635c.48.4,1,.079,1.479-.719S159.436,57.361,159.436,57.361Z" transform="translate(-146.904 -45.828)" fill="#ffc9a4"/>
              </g>
            </g>
            <g id="Grupo_84839" data-name="Grupo 84839" transform="translate(94.645 79.957)">
              <g id="Grupo_84838" data-name="Grupo 84838">
                <path id="Trazado_119131" data-name="Trazado 119131" d="M262.857,217.537s-6.013,1.584-7.743,1.982-2.388,1.519-1.482,4.7c1.03,3.619,4.636,4.73,5.244,3.11s3.6-4.788,4.918-5.012S262.857,217.537,262.857,217.537Z" transform="translate(-253.226 -184.357)" fill="#f7c09a"/>
                <path id="Trazado_119132" data-name="Trazado 119132" d="M291.859,187.333s8.388-20.257,12.088-21.419,6.488,3.441,4.907,8.4-11.624,22.257-14.017,23.221-25.984,6.756-27.934,7.173a34.83,34.83,0,0,1-1.343-5.928Z" transform="translate(-257.66 -165.732)" fill="#ffc81a"/>
              </g>
              <path id="Trazado_119133" data-name="Trazado 119133" d="M319.749,224.216s-22.577-19.479-32.291-14.928c-6.375,2.987,2.283,17.689,12.519,32.811C304.507,242.994,319.749,224.216,319.749,224.216Z" transform="translate(-264.749 -181.143)" fill="#264649"/>
            </g>
            <g id="Grupo_84841" data-name="Grupo 84841" transform="translate(24.161 83.497)">
              <g id="Grupo_84840" data-name="Grupo 84840">
                <path id="Trazado_119134" data-name="Trazado 119134" d="M207.87,193.731s-2.734-8.279,2.959-14.542,13.073-.985,18.924-4.768C226.862,184.059,221.865,194.75,207.87,193.731Z" transform="translate(-166.2 -172.396)" fill="#7ac1a4"/>
                <path id="Trazado_119135" data-name="Trazado 119135" d="M186.279,194.053s5.039-9.468.71-18.12-19.205,2.159-25.052-4.673c2.226,8.833,5.567,13.393,11.753,16.317S184.455,188.29,186.279,194.053Z" transform="translate(-149.922 -171.26)" fill="#87d6b4"/>
                <path id="Trazado_119136" data-name="Trazado 119136" d="M173.026,205.252s-4.061-9.32-13.706-9.591-7.891,10.485-16.143,13.752c7.248,1.722,15.868-.52,18.643-2.041C165.053,205.6,169,204.1,173.026,205.252Z" transform="translate(-143.178 -180.031)" fill="#7ac1a4"/>
                <path id="Trazado_119137" data-name="Trazado 119137" d="M203.247,184.331c-8.707,4.711-12.031,14.162-13.071,23.061a75.8,75.8,0,0,0-2.08-11.909c-2.828-8.381-7.851-12.181-14.861-12.39,4.344.791,11.12,4.464,13.578,13.827,1.039,3.956,1.44,10.061,1.557,15.792-.909-3.984-2.365-8.11-4.695-11.028-6.091-7.629-16.59-4.622-18.673-3.46,5.666-1.13,13.681-.6,17.548,6.541,3.285,6.066,5.415,18.031,5.661,21.773-.006.138-.012.262-.016.377a6.646,6.646,0,0,0,7.107-1.887C188.668,200.707,197.244,191.108,203.247,184.331Z" transform="translate(-151.024 -175.514)" fill="#18898b"/>
              </g>
            </g>
            <g id="Grupo_84843" data-name="Grupo 84843" transform="translate(34.464 34.992)">
              <g id="Grupo_84842" data-name="Grupo 84842">
                <path id="Trazado_119138" data-name="Trazado 119138" d="M248.837,139.77s-1.5-11.7,7.674-18.547,17.613,2.059,26.355-1.458C276.546,131.819,267.158,144.728,248.837,139.77Z" transform="translate(-191.434 -103.805)" fill="#85c68e"/>
                <path id="Trazado_119139" data-name="Trazado 119139" d="M222.438,132.062s9.129-11.275,5.609-23.877-26.057-2.079-32.061-12.657c.68,12.3,3.943,19.218,11.4,24.693S221.5,123.94,222.438,132.062Z" transform="translate(-172.466 -95.528)" fill="#9edda4"/>
                <path id="Trazado_119140" data-name="Trazado 119140" d="M199.969,145.652s-2.993-13.421-15.729-16.263-13.178,11.891-24.976,14.1c9.181,4.152,21.2,3.4,25.28,2.091C189.292,144.066,194.916,143.092,199.969,145.652Z" transform="translate(-159.264 -107.571)" fill="#85c68e"/>
                <path id="Trazado_119141" data-name="Trazado 119141" d="M245.285,124.712c-12.774,4.012-19.622,15.706-23.293,27.254.472-6.572.743-13.094.3-16.349-1.6-11.857-7.289-18.2-16.544-20.279,5.566,2.169,13.617,8.791,14.469,21.856.361,5.522-.679,13.731-2,21.371-.182-5.523-1.051-11.378-3.393-15.853-6.124-11.7-20.839-10.41-23.9-9.4,7.815-.042,18.321,2.722,21.617,13.2,2.8,8.9,2,42.47,1.363,47.5l-.118.5a8.989,8.989,0,0,0,9.923-.676C221.165,159.837,226.428,133.2,245.285,124.712Z" transform="translate(-170.647 -102.65)" fill="#18898b"/>
              </g>
            </g>
            <g id="Grupo_84845" data-name="Grupo 84845" transform="translate(77.479 89.722)">
              <g id="Grupo_84844" data-name="Grupo 84844">
                <path id="Trazado_119142" data-name="Trazado 119142" d="M271.364,202.458s-.889-5.853,3.634-9.4,8.863.827,13.209-1.041C285.178,198.144,280.617,204.732,271.364,202.458Z" transform="translate(-242.555 -184.806)" fill="#bbd981"/>
                <path id="Trazado_119143" data-name="Trazado 119143" d="M257.9,199s4.45-5.765,2.536-12.049-13.1-.738-16.239-5.976c.486,6.167,2.2,9.6,6.013,12.259S257.334,194.939,257.9,199Z" transform="translate(-232.813 -180.978)" fill="#cde88b"/>
                <path id="Trazado_119144" data-name="Trazado 119144" d="M246.878,205.943s-1.659-6.7-8.084-7.978-6.475,6.122-12.37,7.371a21.379,21.379,0,0,0,12.712.753C241.5,205.271,244.311,204.716,246.878,205.943Z" transform="translate(-226.424 -187.032)" fill="#bbd981"/>
                <path id="Trazado_119145" data-name="Trazado 119145" d="M269.4,194.95c-6.364,2.163-9.664,8.112-11.372,13.951a51.49,51.49,0,0,0-.038-8.208c-.941-5.932-3.871-9.047-8.54-9.984,2.819,1.023,6.937,4.252,7.518,10.8a52.057,52.057,0,0,1-.753,10.749,19.063,19.063,0,0,0-1.889-7.916c-3.21-5.8-10.581-4.98-12.107-4.439,3.922-.112,9.227,1.152,11,6.373,1.509,4.434,1.575,12.686,1.314,15.218-.02.092-.037.174-.054.25a4.515,4.515,0,0,0,4.973-.455C257.778,204.255,264.61,198.8,269.4,194.95Z" transform="translate(-232.102 -184.476)" fill="#18898b"/>
              </g>
            </g>
            <path id="Trazado_119146" data-name="Trazado 119146" d="M128.808,260.556s18.663-5.158,23.279-13.131,9.03-7.034,11.639-8.207l2.609-1.172s8.027-9.849,14.65-9.614,13.169-3.518,21.735-.938,14.688-.82,21.31,2.345,14.75,5.628,18.663,10.552,8.133,15.11,28.241,20.166Z" transform="translate(-113.851 -107.653)" fill="#b2831b"/>
            <path id="Trazado_119147" data-name="Trazado 119147" d="M128.808,264.889s18.663-3.986,23.279-10.147,9.03-5.436,11.639-6.342l2.609-.906s8.027-7.61,14.65-7.429,13.169-2.718,21.735-.725,14.688-.634,21.31,1.812,14.75,4.349,18.663,8.154,8.133,11.677,28.241,15.584Z" transform="translate(-113.851 -111.986)" fill="#a87716"/>
            <g id="Grupo_84851" data-name="Grupo 84851" transform="translate(98.004 61.627)">
              <g id="Grupo_84849" data-name="Grupo 84849" transform="translate(15.97)">
                <path id="Trazado_119148" data-name="Trazado 119148" d="M367.759,251.956a78.349,78.349,0,0,0,7.672-2.385c1.676,3.481,2.45,13.117,2.45,14.183s-2.192,1.066-4.578,1.066h-6.286c-.387,0,.516-2.871,3.127-3.451,3.7-.709.935-4.513.774-5.093s-1.762,0-1.762,0Z" transform="translate(-313.434 -177.544)" fill="#ffc9a4"/>
                <path id="Trazado_119149" data-name="Trazado 119149" d="M375.43,249.571a26.133,26.133,0,0,1-3.489,1.2,5.246,5.246,0,0,1-.522,6.514c.665,1.355,1.448,3.557-1.276,4.08-2.611.58-3.514,3.451-3.127,3.451H373.3c2.386,0,4.578,0,4.578-1.066S377.106,253.052,375.43,249.571Z" transform="translate(-313.434 -177.544)" fill="#18898b"/>
                <path id="Trazado_119150" data-name="Trazado 119150" d="M375.431,249.571a7.726,7.726,0,0,1-1,.409c1.326,4.134,1.944,11.919,1.944,12.871,0,1.066-2.192,1.066-4.577,1.066h-4.665c-.225.516-.258.9-.117.9H373.3c2.386,0,4.578,0,4.578-1.066S377.107,253.052,375.431,249.571Z" transform="translate(-313.434 -177.544)" fill="#264649"/>
                <path id="Trazado_119151" data-name="Trazado 119151" d="M315.041,227.261s-23.236,12.034-29.426,18.911,1.06,10.3,16.175,8.157,38.506-6.352,38.506-6.352l-1.558-7.478-21.662,2.331s31.117.419,20.458-20.727C329.971,216.258,315.041,227.261,315.041,227.261Z" transform="translate(-283.405 -167.053)" fill="#366163"/>
                <path id="Trazado_119152" data-name="Trazado 119152" d="M328.38,161.666s10.849,5.424,18.585,22.784,6.113,22.648,6.113,22.648S330.6,205.713,322.8,208.55c-4.711-13.667-4.46-32.771-2.564-41.756S328.38,161.666,328.38,161.666Z" transform="translate(-296.187 -145.644)" fill="#ffbd17"/>
                <g id="Grupo_84848" data-name="Grupo 84848" transform="translate(16.911)">
                  <path id="Trazado_119153" data-name="Trazado 119153" d="M326.191,152.9a22.1,22.1,0,0,1,2.293,8.273c.018,1.409-2.529,3.076-3.937,3.129a11.923,11.923,0,0,1-3.163-.248l-.588-2.914S324.059,152.7,326.191,152.9Z" transform="translate(-313.758 -142.786)" fill="#f7bb92"/>
                  <path id="Trazado_119154" data-name="Trazado 119154" d="M310.147,146.718a11.739,11.739,0,0,0,.64,4.675c.834,1.812-.5,3.752-.391,4.152.3.569,1.368.387,1.757.182,1.045,1.4,1.686,4.077,2.666,4.622s5.9-.911,6.843-4.152a6.365,6.365,0,0,0-.19-4.472s1.563-.179,1.474-1.447-1.3-3.245-2.676-2.686-1.1,1.234-1.1,1.234.534-3.566-1.49-4.845S310.4,144.689,310.147,146.718Z" transform="translate(-309.923 -139.437)" fill="#ffc9a4"/>
                  <path id="Trazado_119155" data-name="Trazado 119155" d="M324.275,151.119c-.019.257-.042.418-.042.418A.568.568,0,0,1,324.275,151.119Z" transform="translate(-314.986 -142.148)" fill="#ffc9a4"/>
                  <path id="Trazado_119156" data-name="Trazado 119156" d="M327.944,144.406c.071-.154-1.088.158-1.041,0-1.569.067-1.739.824-2.37-.631-.587-1.355-1.4-5.458-2.087-6.662a47.243,47.243,0,0,1-12.03.984v.282l.155.618-.763,8.233a9.9,9.9,0,0,0,5.023-2.858A6.785,6.785,0,0,0,317.6,146.6c.875.257.917,2.554.917,2.554l1.165-.128-.206-1.545a1.9,1.9,0,0,1,.912-1.924c.574-.316,1.376-.168,2.1,1.261a2.659,2.659,0,0,1,.131,1.928c-.008.022.012.046.017.07a20.71,20.71,0,0,0,1.384,3.733,1.467,1.467,0,0,0,.238.486c.953,1.2,2.576-.437,2.148-2.5,0,0,2.654-2.062,1.105-3.719C327.841,146.314,328.483,147.1,327.944,144.406Z" transform="translate(-309.808 -137.113)" fill="#264649"/>
                  <g id="Grupo_84846" data-name="Grupo 84846" transform="translate(2.382 11.746)">
                    <path id="Trazado_119157" data-name="Trazado 119157" d="M315.133,156.428a3.874,3.874,0,0,0,.836-.826.095.095,0,0,0-.154-.111c-.012.016-1.138,1.554-2.144.952a.1.1,0,1,0-.1.163A1.388,1.388,0,0,0,315.133,156.428Z" transform="translate(-313.527 -155.453)" fill="#264649"/>
                  </g>
                  <g id="Grupo_84847" data-name="Grupo 84847" transform="translate(3.24 16.288)">
                    <path id="Trazado_119158" data-name="Trazado 119158" d="M317.806,162.591a.095.095,0,0,1,.165.094,3.671,3.671,0,0,1-1.1,1.213,4,4,0,0,1-1.924.687l-.084-.184A3.622,3.622,0,0,0,317.806,162.591Z" transform="translate(-314.867 -162.543)" fill="#264649"/>
                  </g>
                  <path id="Trazado_119159" data-name="Trazado 119159" d="M315.6,153.6a6.493,6.493,0,0,0-2.78.469c-.753.526-.8-.153-.63-.486S315.247,152.618,315.6,153.6Z" transform="translate(-310.636 -142.851)" fill="#264649"/>
                </g>
              </g>
              <g id="Grupo_84850" data-name="Grupo 84850" transform="translate(0 24.606)">
                <path id="Trazado_119160" data-name="Trazado 119160" d="M268.528,222.93s-6.146.945-7.908,1.161-2.534,1.26-1.966,4.523c.645,3.707,4.115,5.19,4.889,3.643s4.083-4.384,5.415-4.47S268.528,222.93,268.528,222.93Z" transform="translate(-258.47 -192.571)" fill="#ffc9a4"/>
                <path id="Trazado_119161" data-name="Trazado 119161" d="M299.634,196s10-19.512,13.779-20.372,6.189,3.954,4.212,8.768-13.384,21.245-15.847,22.012-26.445,4.635-28.423,4.893a34.846,34.846,0,0,1-.859-6.017Z" transform="translate(-263.513 -175.53)" fill="#ffd41d"/>
              </g>
            </g>
            <path id="Trazado_119162" data-name="Trazado 119162" d="M309.5,141.556l1.532-9.112,14.105,1.568.877,8.182Z" transform="translate(-178.814 -73.807)" fill="#18898b"/>
            <rect id="Rectángulo_34412" data-name="Rectángulo 34412" width="30.835" height="2.837" rx="1.419" transform="translate(123.957 67.238) rotate(1.833)" fill="#264649"/>
            <g id="Grupo_84863" data-name="Grupo 84863" transform="translate(17.208 27.671)">
              <g id="Grupo_84861" data-name="Grupo 84861" transform="translate(37.978 35.831)">
                <path id="Trazado_119163" data-name="Trazado 119163" d="M212.01,164.528l10.555.375,1.833.854a.376.376,0,0,0,.432-.6l-3.434-3.633a.375.375,0,0,0-.648.228l-.077.976-6.345-1.886Z" transform="translate(-198.948 -147.52)" fill="#ffe340"/>
                <g id="Grupo_84855" data-name="Grupo 84855" transform="translate(22.928 15.771)">
                  <g id="Grupo_84854" data-name="Grupo 84854">
                    <g id="Grupo_84852" data-name="Grupo 84852" transform="translate(0 7.483)">
                      <path id="Trazado_119164" data-name="Trazado 119164" d="M230.73,176.348s1.773,1.408,1.1,5.112-3.792,4.6-4.33,2.636,1.64-3.163,2.335-4.492S230.952,177.049,230.73,176.348Z" transform="translate(-227.414 -176.348)" fill="#5bcece"/>
                    </g>
                    <path id="Trazado_119165" data-name="Trazado 119165" d="M239.442,183.794s.918.225,1.406,1.882-.461,2.648-1.043,1.948-.033-1.627-.044-2.312A2.7,2.7,0,0,0,239.442,183.794Z" transform="translate(-231.738 -171.542)" fill="#5bcece"/>
                    <g id="Grupo_84853" data-name="Grupo 84853" transform="translate(3.364)">
                      <path id="Trazado_119166" data-name="Trazado 119166" d="M232.666,165.361s.523-.788,2.247-.687,2.335,1.329,1.48,1.64-1.543-.52-2.191-.741A2.688,2.688,0,0,0,232.666,165.361Z" transform="translate(-232.666 -164.665)" fill="#5bcece"/>
                    </g>
                  </g>
                </g>
                <path id="Trazado_119167" data-name="Trazado 119167" d="M231.59,166.966s2.258-.177,4.286,2.995.355,5.951-1.376,4.879-.954-3.433-1.35-4.879S232.23,167.328,231.59,166.966Z" transform="translate(-205.988 -149.721)" fill="#5bcece"/>
                <g id="Grupo_84860" data-name="Grupo 84860">
                  <g id="Grupo_84856" data-name="Grupo 84856" transform="translate(13.345 2.062)">
                    <path id="Trazado_119168" data-name="Trazado 119168" d="M218.249,149.433a3.944,3.944,0,0,0-5.8-5.21Z" transform="translate(-212.453 -143.262)" fill="#ffe340"/>
                  </g>
                  <g id="Grupo_84858" data-name="Grupo 84858" transform="translate(1.46 2.776)">
                    <g id="Grupo_84857" data-name="Grupo 84857">
                      <path id="Trazado_119169" data-name="Trazado 119169" d="M197.951,161.787l-2.611-2.347a4.358,4.358,0,0,1-.061-6.427l8.816-8.232a1.508,1.508,0,0,1,2.037-.019L211.4,149.5a1.508,1.508,0,0,1,.2,2.028l-7.251,9.639A4.358,4.358,0,0,1,197.951,161.787Z" transform="translate(-193.896 -144.376)" fill="#f9ba1c"/>
                    </g>
                  </g>
                  <g id="Grupo_84859" data-name="Grupo 84859">
                    <path id="Trazado_119170" data-name="Trazado 119170" d="M192.634,150.864a3.249,3.249,0,0,1-.569-.663,3.031,3.031,0,0,1-.261-2.666c.9-2.821,4.4-6.6,6.8-7.357a1.94,1.94,0,0,1,1.85.19,12.227,12.227,0,0,1,2.948,4.075l-1.162.515a11.007,11.007,0,0,0-2.558-3.581.849.849,0,0,0-.7.013c-1.845.578-5.133,3.913-5.971,6.532a1.8,1.8,0,0,0,.119,1.591,4.691,4.691,0,0,0,2.973,1.479l-.156,1.261A6.857,6.857,0,0,1,192.634,150.864Z" transform="translate(-191.617 -140.042)" fill="#f9ba1c"/>
                  </g>
                </g>
              </g>
              <g id="Grupo_84862" data-name="Grupo 84862">
                <path id="Trazado_119171" data-name="Trazado 119171" d="M189.039,140.07s5.816-.911,8.025,1.293c2.233,2.228,1.2,6.992-4.884,6.313-.5-1.508-2.117-1.459-2.608-1.549S189.039,140.07,189.039,140.07Z" transform="translate(-152.712 -104.154)" fill="#fccb9d"/>
                <path id="Trazado_119172" data-name="Trazado 119172" d="M135.577,89.8s3.366-7.31,8.479-5.372-.974,25.095.43,28.441,19.519,6.079,25.694,6.713a26.883,26.883,0,0,1-.081,6.762c-.086.455-19.167,1.262-28.378-1.445S129.3,104.322,135.577,89.8Z" transform="translate(-132.321 -84.097)" fill="#6fd3d8"/>
              </g>
            </g>
          </g>
          <g id="Grupo_84869" data-name="Grupo 84869" transform="translate(0 148.825)">
            <path id="Trazado_119173" data-name="Trazado 119173" d="M86.368,273.258c0,.062,0,.124,0,.186a104.805,104.805,0,1,0,209.61,0c0-.062,0-.124,0-.186Z" transform="translate(-86.365 -273.258)" fill="#083c62"/>
            <path id="Trazado_119174" data-name="Trazado 119174" d="M137.3,273.258c0,.031,0,.062,0,.093,0,28.941,32.316,52.4,72.18,52.4s72.18-23.461,72.18-52.4c0-.031,0-.062,0-.093Z" transform="translate(-104.678 -273.258)" fill="#0d4e75"/>
            <g id="Grupo_84868" data-name="Grupo 84868" transform="translate(23.171)">
              <g id="Grupo_84867" data-name="Grupo 84867">
                <path id="Trazado_119175" data-name="Trazado 119175" d="M389.12,273.258c1.722,1.638,4.77,2.9,3.856,4.937-.312.7-1.085,1.209-1.1,1.974-.013.634.5,1.132.92,1.61a7.116,7.116,0,0,1,.915,1.349,60.435,60.435,0,0,0,3.055-9.87Z" transform="translate(-218.382 -273.258)" fill="#8bca20"/>
                <g id="Grupo_84866" data-name="Grupo 84866">
                  <g id="Grupo_84865" data-name="Grupo 84865">
                    <path id="Trazado_119176" data-name="Trazado 119176" d="M342.621,345.789l-.524,2.071a5.876,5.876,0,0,1-2.891,5.816c-.435.241-.937.462-1.139.916a8.129,8.129,0,0,0-.2.922,2.171,2.171,0,0,1-2.078,1.191,5.83,5.83,0,0,0-2.5.348c-1.227.666-1.419,2.309-2.074,3.542-1.13,2.127-3.722,3.067-5.135,5.017a30.273,30.273,0,0,0-1.6,3.031,3.929,3.929,0,0,1-2.54,2.135c4.064,1.075,8.465-.332,11.891-2.768s6.054-5.808,8.621-9.137a11.015,11.015,0,0,0,2.746-8.675c.036-1.991.038-4.109-1.016-5.8A1.566,1.566,0,0,0,342.621,345.789Z" transform="translate(-194.228 -298.834)" fill="#18898b"/>
                    <path id="Trazado_119177" data-name="Trazado 119177" d="M404.819,273.258h-15.7c1.722,1.638,4.77,2.9,3.856,4.937-.312.7-1.085,1.209-1.1,1.974-.013.634.5,1.132.92,1.61,3.311,3.808,1.426,9.587.552,14.557a31.323,31.323,0,0,0,2.734,19.057,104.439,104.439,0,0,0,8.741-41.95C404.821,273.382,404.819,273.32,404.819,273.258Z" transform="translate(-218.382 -273.258)" fill="#18898b"/>
                    <path id="Trazado_119178" data-name="Trazado 119178" d="M335.977,275.521a1.673,1.673,0,0,0-.649.55c-.762-.9-1.474-1.841-2.144-2.812H256.318l-3.277,11.688c-.065.23-.129.463-.186.7s-.105.471-.138.708c-.016.118-.029.237-.036.355s-.01.236-.007.354a2.983,2.983,0,0,0,.1.7,3.984,3.984,0,0,0,1.568,2.054c.119.09.241.178.364.262s.247.166.371.245q.517.328,1.052.627a22.407,22.407,0,0,0,8.089,2.666c.793.1,1.624.175,2.41.346.239.053.475.111.7.186a5.345,5.345,0,0,1,.571.222,3.906,3.906,0,0,1,1.02.67,5.008,5.008,0,0,1,.416.439,6.322,6.322,0,0,0,1.25,1.3,3.666,3.666,0,0,0,2.753.306l.177-.036c.3-.063.6-.139.885-.217a22.241,22.241,0,0,0,4.375-1.527q.294-.151.579-.321c.178-.106.353-.219.526-.336.616-.416,1.2-.882,1.8-1.324q.281-.208.569-.405c.117-.079.234-.156.353-.232q.3-.194.624-.363c.085-.045.168-.095.254-.136a5.2,5.2,0,0,1,2.459-.528,3.548,3.548,0,0,1,1.188.256,2.7,2.7,0,0,1,.982.689,12.867,12.867,0,0,1-3.309,6.82q-.376.4-.786.769c-.464.415-.969.82-1.422,1.259a4.069,4.069,0,0,0-1.259,1.971,3.367,3.367,0,0,0,.024,1.5c.037.165.083.33.135.494a19.823,19.823,0,0,0,.8,1.929h0c.18.407.338.822.486,1.241.042.12.08.241.119.362q.157.478.286.966c.031.116.062.232.09.348a18.184,18.184,0,0,1,.445,2.709c0,.044.006.089.01.134q.052.647.059,1.3c0,.048,0,.1,0,.144a19.29,19.29,0,0,1-.473,4.314h0a18.6,18.6,0,0,1-2.312,5.707c-1.674,1.151-3.452,2.611-3.487,4.62-.015.844.3,1.67.262,2.514-.076,1.88-1.78,3.274-2.372,5.06-.477,1.439-.22,3.106-.995,4.409a6.317,6.317,0,0,1-2.654,2.1l-5.773,3.056a3.044,3.044,0,0,0-1.076.792,1.979,1.979,0,0,0,.391,2.509,4.06,4.06,0,0,0,2.563.92c2.837.179,5.567-.986,8.171-2.126l7.231-3.168,8.336-3.652a6.077,6.077,0,0,0,1.993-1.2c.842-.864,1.15-2.2,2.148-2.882.9-.61,2.074-.507,3.151-.635a7.01,7.01,0,0,0,5.091-3.276,18.916,18.916,0,0,0,.967-1.987,2.036,2.036,0,0,0,.252-.156c.779-.587,1.038-1.7,1.855-2.235s1.925-.316,2.807-.731c1.435-.676,1.634-2.582,1.845-4.155a23.533,23.533,0,0,1,5.75-11.9h0c.52-.62,1.064-1.225,1.624-1.817l.109-.117c.216-.227.437-.45.658-.673.111-.111.22-.224.332-.334.2-.2.4-.4.608-.591q.208-.2.419-.4.282-.266.569-.528.251-.23.5-.456c.17-.153.341-.306.512-.457q.316-.279.635-.551c.134-.115.268-.232.4-.346q.527-.448,1.057-.884c.359-.3.726-.592,1.109-.863a7.435,7.435,0,0,1,1.2-.708,4.788,4.788,0,0,1,.87-.306,5.8,5.8,0,0,1,.638-.108,16.741,16.741,0,0,0,2.492-.281c1.926-.53,3.026-2.337,3.546-4.346.012-.047.024-.093.035-.14a11.681,11.681,0,0,0,.261-1.476c.006-.056.012-.112.018-.168.024-.243.044-.484.053-.722.005-.131.009-.263.008-.4a3.849,3.849,0,0,0-.022-.4,1.956,1.956,0,0,0-.225-.74c-.856-1.515-3.215-.542-4.395.737a16.019,16.019,0,0,1-1.218,1.214c-.176.152-.355.3-.538.428q-.137.1-.277.186a2.282,2.282,0,0,1-2.314.286,1.77,1.77,0,0,1-.852-.895,2.11,2.11,0,0,1-.1-.293,2.685,2.685,0,0,1-.089-.641c0-.111,0-.225.009-.34a4.46,4.46,0,0,1,.215-1.045c.038-.115.081-.23.127-.343a5.02,5.02,0,0,1,.723-1.237,10.129,10.129,0,0,1,1.31-1.347q.357-.306.741-.579a10.435,10.435,0,0,1,4.309-1.791,8.366,8.366,0,0,0,1.517-.313,2.349,2.349,0,0,0,.458-.223,2.61,2.61,0,0,0,.85-.923,11.1,11.1,0,0,0,.694-1.616c.053-.138.107-.273.164-.407a43.157,43.157,0,0,1,2.529-4.118c.1-.175.193-.357.281-.542a6.072,6.072,0,0,0,.623-2.347,3.56,3.56,0,0,0-.351-1.724A2.688,2.688,0,0,0,335.977,275.521Z" transform="translate(-169.326 -273.258)" fill="#18898b"/>
                    <path id="Trazado_119179" data-name="Trazado 119179" d="M252.855,285.644c-.056.234-.105.471-.138.708-.017.118-.029.237-.036.355s-.01.236-.007.354a2.983,2.983,0,0,0,.1.7,3.986,3.986,0,0,0,1.568,2.054c.119.09.241.178.364.262s.247.166.371.245q.517.328,1.052.627a22.407,22.407,0,0,0,8.089,2.666c.793.1,1.624.175,2.41.346.239.053.475.111.7.186a5.345,5.345,0,0,1,.571.222,3.906,3.906,0,0,1,1.02.67,5.008,5.008,0,0,1,.416.439,6.322,6.322,0,0,0,1.25,1.3,3.666,3.666,0,0,0,2.753.306l.177-.036c.3-.063.6-.139.885-.217a22.241,22.241,0,0,0,4.375-1.527q.294-.151.579-.321c.178-.106.353-.219.526-.336.616-.416,1.2-.882,1.8-1.324q.281-.208.569-.405c.117-.079.234-.156.353-.232q.3-.194.624-.364c.085-.045.168-.094.254-.136a5.2,5.2,0,0,1,2.459-.528,3.548,3.548,0,0,1,1.188.256,2.7,2.7,0,0,1,.982.689,12.867,12.867,0,0,1-3.309,6.82q-.376.4-.786.769c-.464.415-.969.82-1.422,1.259a4.069,4.069,0,0,0-1.259,1.971,3.358,3.358,0,0,0,.024,1.5c.037.165.083.33.135.494a19.823,19.823,0,0,0,.8,1.929h0c.18.407.339.822.486,1.241.042.12.08.241.119.362q.157.478.286.966c.031.116.062.232.09.348a18.184,18.184,0,0,1,.445,2.709c0,.044.006.089.01.134q.052.647.059,1.3c0,.048,0,.1,0,.144a19.29,19.29,0,0,1-.473,4.314q-.169.75-.4,1.485c23.828-8.559,40.216-26.385,40.216-46.993,0-.031,0-.062,0-.093H256.318l-3.277,11.688C252.976,285.176,252.912,285.409,252.855,285.644Z" transform="translate(-169.326 -273.258)" fill="#1e9b9b"/>
                    <path id="Trazado_119180" data-name="Trazado 119180" d="M180.5,299.135a8.044,8.044,0,0,0-1.993-2.38,4.791,4.791,0,0,0-.829-.457c.009-.068.021-.136.024-.2.1-1.916-1.926-3.282-3.815-3.616-.726-.128-1.593-.252-1.915-.915a7.475,7.475,0,0,1-.243-.937c-.357-1.07-1.726-1.328-2.852-1.408l-4.882-.346c-1.168-.083-2.686-.514-2.694-1.684,0-.75.667-1.3,1.043-1.949.92-1.581.032-3.577.19-5.4.19-2.2,1.915-4.12,1.759-6.318-.006-.089-.027-.175-.04-.263H127.014c0,.077,0,.154-.006.23a6.869,6.869,0,0,1-.648,3.269,13.255,13.255,0,0,1-2.034,2.193,7.319,7.319,0,0,0,.5,10.1,19.833,19.833,0,0,1,3,2.494,7.008,7.008,0,0,1,1.048,4.605,9.252,9.252,0,0,0,.077,2.557,2.464,2.464,0,0,0,1.578,1.87,2.6,2.6,0,0,1,.74.227c.424.273.459.865.5,1.368A7.622,7.622,0,0,0,134.058,307a10.138,10.138,0,0,0,2.127,1.524,5.116,5.116,0,0,1,.3,1.032c.355,2.128-.952,4.218-.861,6.373.161,3.838,4.461,6.208,5.616,9.871a15.77,15.77,0,0,1,.365,4.832c-.031,6.267,1.845,12.872,6.55,17.012a31.976,31.976,0,0,0,4.645,3.2c3.13,1.9,6.316,3.817,9.858,4.737,1.886.49,4.294.486,5.317-1.172.939-1.522.054-3.609-1.368-4.693s-3.234-1.472-4.923-2.059-3.429-1.529-4.118-3.179c-.67-1.6-.172-3.432.332-5.1a2.7,2.7,0,0,1,.459-1c.712-.833,2.108-.532,3.03-1.123,1.347-.863.936-2.881,1.234-4.453a17.79,17.79,0,0,1,1.408-3.359,3.509,3.509,0,0,0-.105-3.478c-.713-.9-2.24-1.7-1.674-2.7a1.618,1.618,0,0,1,1.05-.639,10.125,10.125,0,0,1,4.933-.073,8.182,8.182,0,0,0,3.044.483c1.741-.261,2.867-2.025,3.28-3.735s.355-3.524.917-5.192c.861-2.555,3.131-4.649,3.211-7.344a6.56,6.56,0,0,0,2.744.619,2.5,2.5,0,0,0,2.245-1.459c.389-1.065-.245-2.207-.854-3.164Z" transform="translate(-122.542 -273.258)" fill="#18898b"/>
                    <path id="Trazado_119181" data-name="Trazado 119181" d="M179.231,320.939a6.676,6.676,0,0,0,.631-1.623c.413-1.711.355-3.524.917-5.192.861-2.555,3.131-4.649,3.211-7.344a6.56,6.56,0,0,0,2.744.619,2.5,2.5,0,0,0,2.245-1.459c.389-1.065-.245-2.207-.854-3.164l-2.32-3.642a8.043,8.043,0,0,0-1.993-2.38,4.792,4.792,0,0,0-.829-.457c.009-.068.02-.136.024-.2.1-1.916-1.926-3.282-3.815-3.616-.726-.128-1.593-.252-1.915-.915a7.47,7.47,0,0,1-.243-.937c-.357-1.07-1.726-1.328-2.852-1.408l-4.882-.346c-1.168-.083-2.686-.514-2.694-1.684,0-.75.667-1.3,1.043-1.949.92-1.581.032-3.577.19-5.4.19-2.2,1.915-4.12,1.759-6.318-.006-.089-.027-.175-.04-.263H137.3c0,.031,0,.062,0,.093C137.3,294.449,154.479,312.632,179.231,320.939Z" transform="translate(-127.849 -273.258)" fill="#1e9b9b"/>
                  </g>
                </g>
              </g>
            </g>
          </g>
          <g id="Grupo_84872" data-name="Grupo 84872" transform="translate(33.356 123.582)">
            <g id="Grupo_84870" data-name="Grupo 84870" transform="translate(1.697)">
              <path id="Trazado_119182" data-name="Trazado 119182" d="M164.206,259.232H144.343l-2.562-24.987h24.987Z" transform="translate(-141.341 -233.989)" fill="#f9ba1c"/>
              <rect id="Rectángulo_34413" data-name="Rectángulo 34413" width="25.699" height="3.069" fill="#ffd41d"/>
            </g>
            <g id="Grupo_84871" data-name="Grupo 84871" transform="translate(0 1.214)">
              <path id="Trazado_119183" data-name="Trazado 119183" d="M154.5,235.776a.318.318,0,0,0-.43.14c-.069.134-6.911,13.495-11.791,16.927-1.325.932-2.317,1.192-2.792.736-.931-.892-.249-4.545,2.143-8.575l-.106-1.05c-2.769,4.345-3.86,8.766-2.481,10.088a1.451,1.451,0,0,0,1.045.4,4.726,4.726,0,0,0,2.559-1.07c5.009-3.524,11.71-16.605,11.993-17.161A.319.319,0,0,0,154.5,235.776Z" transform="translate(-138.445 -235.741)" fill="#264649"/>
            </g>
          </g>
        </g>
        <g id="Grupo_84883" data-name="Grupo 84883" transform="translate(108.779 175.287)">
          <g id="Grupo_84882" data-name="Grupo 84882" transform="translate(0 0)">
            <g id="Grupo_84874" data-name="Grupo 84874">
              <path id="Trazado_119184" data-name="Trazado 119184" d="M155.008,381.093h-1.765L176.555,251.7h1.765Z" transform="translate(-153.243 -251.699)" fill="#62c2cd"/>
            </g>
            <g id="Grupo_84875" data-name="Grupo 84875" transform="translate(26.996)">
              <path id="Trazado_119185" data-name="Trazado 119185" d="M197.158,381.093h-1.765L218.706,251.7h1.765Z" transform="translate(-195.393 -251.699)" fill="#62c2cd"/>
            </g>
            <g id="Grupo_84881" data-name="Grupo 84881" transform="translate(3.554 16.201)">
              <g id="Grupo_84876" data-name="Grupo 84876" transform="translate(17.404)">
                <path id="Trazado_119186" data-name="Trazado 119186" d="M212.962,278.76h-27l.318-1.765h27Z" transform="translate(-185.966 -276.994)" fill="#62c2cd"/>
              </g>
              <g id="Grupo_84877" data-name="Grupo 84877" transform="translate(13.053 24.15)">
                <path id="Trazado_119187" data-name="Trazado 119187" d="M206.169,316.465h-27l.318-1.765h27Z" transform="translate(-179.172 -314.7)" fill="#62c2cd"/>
              </g>
              <g id="Grupo_84878" data-name="Grupo 84878" transform="translate(8.702 48.299)">
                <path id="Trazado_119188" data-name="Trazado 119188" d="M199.375,354.171h-27l.318-1.765h27Z" transform="translate(-172.379 -352.405)" fill="#62c2cd"/>
              </g>
              <g id="Grupo_84879" data-name="Grupo 84879" transform="translate(4.351 72.449)">
                <path id="Trazado_119189" data-name="Trazado 119189" d="M192.582,391.876h-27l.318-1.765h27Z" transform="translate(-165.586 -390.111)" fill="#62c2cd"/>
              </g>
              <g id="Grupo_84880" data-name="Grupo 84880" transform="translate(0 96.599)">
                <path id="Trazado_119190" data-name="Trazado 119190" d="M185.789,429.582h-27l.318-1.765h27Z" transform="translate(-158.792 -427.816)" fill="#62c2cd"/>
              </g>
            </g>
          </g>
        </g>
      </g>
      <path id="Rectángulo_34754" data-name="Rectángulo 34754" d="M0,0H298.063a0,0,0,0,1,0,0V24a20,20,0,0,1-20,20H20A20,20,0,0,1,0,24V0A0,0,0,0,1,0,0Z" transform="translate(-5379 -4886.988)" fill="#adce32"/>
      <path id="Trazado_122757" data-name="Trazado 122757" d="M-28.84,0h-2.727L-35.6-7.078V0H-38.34V-11.375H-35.6L-31.574-4.3v-7.078h2.734Zm6.375,0a2.973,2.973,0,0,1-.25-.758,2.448,2.448,0,0,1-2.031.914,3,3,0,0,1-2.031-.723,2.3,2.3,0,0,1-.836-1.816A2.364,2.364,0,0,1-26.6-4.461a5.174,5.174,0,0,1,2.953-.7h.813v-.448q0-1.17-1.008-1.17a.824.824,0,0,0-.937.926H-27.41a2.36,2.36,0,0,1,1.043-1.99,4.383,4.383,0,0,1,2.66-.765,3.843,3.843,0,0,1,2.555.789,2.743,2.743,0,0,1,.961,2.164v3.742a3.832,3.832,0,0,0,.359,1.781V0Zm-1.648-1.719A1.469,1.469,0,0,0-23.3-1.93a1.322,1.322,0,0,0,.465-.477V-3.758H-23.6q-1.375,0-1.375,1.234a.754.754,0,0,0,.242.582A.876.876,0,0,0-24.113-1.719Zm8.445-8.836v2.1h1.391v1.828h-1.391v3.867a.987.987,0,0,0,.172.664.922.922,0,0,0,.68.188,3.862,3.862,0,0,0,.656-.047V-.07a4.859,4.859,0,0,1-1.484.227,2.758,2.758,0,0,1-2.008-.641A2.626,2.626,0,0,1-18.3-2.43v-4.2h-1.078V-8.453H-18.3v-2.1ZM-8.207-.914A2.714,2.714,0,0,1-10.465.156,2.662,2.662,0,0,1-12.57-.652a3.4,3.4,0,0,1-.715-2.324V-8.453h2.633v5.492A.946.946,0,0,0-9.6-1.875a1.376,1.376,0,0,0,1.289-.648v-5.93H-5.66V0H-8.129ZM.895-6.07.027-6.133a1.558,1.558,0,0,0-1.594.781V0H-4.2V-8.453H-1.73l.086,1.086A2.039,2.039,0,0,1,.207-8.609a2.567,2.567,0,0,1,.734.094ZM6.371,0a2.973,2.973,0,0,1-.25-.758A2.448,2.448,0,0,1,4.09.156,3,3,0,0,1,2.059-.566a2.3,2.3,0,0,1-.836-1.816A2.364,2.364,0,0,1,2.238-4.461a5.174,5.174,0,0,1,2.953-.7H6v-.448Q6-6.781,5-6.781a.824.824,0,0,0-.937.926H1.426a2.36,2.36,0,0,1,1.043-1.99,4.383,4.383,0,0,1,2.66-.765,3.843,3.843,0,0,1,2.555.789,2.743,2.743,0,0,1,.961,2.164v3.742A3.832,3.832,0,0,0,9-.133V0ZM4.723-1.719a1.469,1.469,0,0,0,.816-.211A1.322,1.322,0,0,0,6-2.406V-3.758H5.238q-1.375,0-1.375,1.234a.754.754,0,0,0,.242.582A.876.876,0,0,0,4.723-1.719ZM12.879,0H10.238V-12h2.641ZM18.59.156A4.345,4.345,0,0,1,15.441-1a4.006,4.006,0,0,1-1.2-3.02v-.219a5.191,5.191,0,0,1,.48-2.289,3.516,3.516,0,0,1,1.4-1.535,4.233,4.233,0,0,1,2.188-.543A3.659,3.659,0,0,1,21.121-7.5a4.344,4.344,0,0,1,1.031,3.082V-3.4H16.918a1.9,1.9,0,0,0,.617,1.117,1.836,1.836,0,0,0,1.234.406,2.366,2.366,0,0,0,1.953-.875l1.2,1.422A3.363,3.363,0,0,1,20.531-.246,4.713,4.713,0,0,1,18.59.156Zm-.3-6.734q-1.156,0-1.375,1.531h2.656v-.2a1.3,1.3,0,0,0-.32-.98A1.275,1.275,0,0,0,18.293-6.578Zm8.023,4.547h3.852V0h-7.18V-1.469l3.75-4.953H23.152V-8.453h6.93v1.422ZM36.207,0a2.973,2.973,0,0,1-.25-.758,2.448,2.448,0,0,1-2.031.914,3,3,0,0,1-2.031-.723,2.3,2.3,0,0,1-.836-1.816,2.364,2.364,0,0,1,1.016-2.078,5.174,5.174,0,0,1,2.953-.7h.813v-.448q0-1.17-1.008-1.17a.824.824,0,0,0-.937.926H31.262A2.36,2.36,0,0,1,32.3-7.845a4.383,4.383,0,0,1,2.66-.765,3.843,3.843,0,0,1,2.555.789,2.743,2.743,0,0,1,.961,2.164v3.742A3.832,3.832,0,0,0,38.84-.133V0ZM34.559-1.719a1.469,1.469,0,0,0,.816-.211,1.322,1.322,0,0,0,.465-.477V-3.758h-.766q-1.375,0-1.375,1.234a.754.754,0,0,0,.242.582A.876.876,0,0,0,34.559-1.719Z" transform="translate(-5228 -4858.988)" fill="#12263f"/>
    </g>
  </g>
</svg>
