<svg xmlns="http://www.w3.org/2000/svg" width="299.063" height="346" viewBox="0 0 299.063 346">
  <g id="Grupo_86297" data-name="Grupo 86297" transform="translate(-494 -6439.023)">
    <rect id="Rectángulo_34748" data-name="Rectángulo 34748" width="298.063" height="346" rx="20" transform="translate(494 6439.023)" fill="#ffe9e1"/>
    <path id="Rectángulo_34755" data-name="Rectángulo 34755" d="M0,0H298.063a0,0,0,0,1,0,0V24a20,20,0,0,1-20,20H20A20,20,0,0,1,0,24V0A0,0,0,0,1,0,0Z" transform="translate(495 6739.813)" fill="#adce32"/>
    <path id="Trazado_122758" data-name="Trazado 122758" d="M-60.707-3.023a1.127,1.127,0,0,0-.426-.937,5.292,5.292,0,0,0-1.5-.7,14.353,14.353,0,0,1-1.75-.7A3.314,3.314,0,0,1-66.59-8.336,2.676,2.676,0,0,1-66.039-10a3.562,3.562,0,0,1,1.559-1.125,6.065,6.065,0,0,1,2.266-.4,5.305,5.305,0,0,1,2.2.438A3.482,3.482,0,0,1-58.5-9.848,3.254,3.254,0,0,1-57.965-8H-60.7a1.375,1.375,0,0,0-.426-1.078,1.66,1.66,0,0,0-1.152-.383,1.872,1.872,0,0,0-1.16.324,1,1,0,0,0-.426.824,1,1,0,0,0,.469.793,5.911,5.911,0,0,0,1.648.734,10.1,10.1,0,0,1,1.938.816,3.256,3.256,0,0,1,1.844,2.93A2.778,2.778,0,0,1-59.09-.7a5,5,0,0,1-3.086.852,6.122,6.122,0,0,1-2.5-.5A3.775,3.775,0,0,1-66.367-1.7a3.542,3.542,0,0,1-.566-1.988h2.75a1.745,1.745,0,0,0,.473,1.348,2.234,2.234,0,0,0,1.535.434A1.765,1.765,0,0,0-61.1-2.2.967.967,0,0,0-60.707-3.023ZM-53.9,0h-2.641V-8.453H-53.9Zm-2.8-10.633a1.175,1.175,0,0,1,.406-.922,1.533,1.533,0,0,1,1.055-.359,1.533,1.533,0,0,1,1.055.359,1.175,1.175,0,0,1,.406.922,1.175,1.175,0,0,1-.406.922,1.533,1.533,0,0,1-1.055.359,1.533,1.533,0,0,1-1.055-.359A1.175,1.175,0,0,1-56.7-10.633Zm8.844,8.258a.608.608,0,0,0-.352-.539,5.348,5.348,0,0,0-1.336-.422,6.092,6.092,0,0,1-1.625-.574,2.722,2.722,0,0,1-.977-.863,2.061,2.061,0,0,1-.336-1.164,2.336,2.336,0,0,1,.961-1.918A3.958,3.958,0,0,1-49-8.609a4.386,4.386,0,0,1,2.688.758A2.37,2.37,0,0,1-45.3-5.859h-2.641q0-1.016-1.07-1.016a1.061,1.061,0,0,0-.7.23.714.714,0,0,0-.281.574.655.655,0,0,0,.344.57,3.248,3.248,0,0,0,1.1.359,9.485,9.485,0,0,1,1.324.336,2.406,2.406,0,0,1,1.906,2.352A2.214,2.214,0,0,1-46.344-.57,4.505,4.505,0,0,1-49,.156a4.6,4.6,0,0,1-1.937-.391A3.24,3.24,0,0,1-52.27-1.3a2.406,2.406,0,0,1-.477-1.414h2.461a1.017,1.017,0,0,0,.391.855,1.607,1.607,0,0,0,.961.27,1.264,1.264,0,0,0,.809-.219A.7.7,0,0,0-47.855-2.375Zm6.836-8.18v2.1h1.391v1.828H-41.02v3.867a.987.987,0,0,0,.172.664.922.922,0,0,0,.68.188,3.862,3.862,0,0,0,.656-.047V-.07A4.859,4.859,0,0,1-41,.156,2.758,2.758,0,0,1-43-.484a2.626,2.626,0,0,1-.648-1.945v-4.2H-44.73V-8.453h1.078v-2.1ZM-34.5.156A4.345,4.345,0,0,1-37.652-1a4.006,4.006,0,0,1-1.2-3.02v-.219a5.191,5.191,0,0,1,.48-2.289,3.516,3.516,0,0,1,1.4-1.535,4.233,4.233,0,0,1,2.188-.543A3.659,3.659,0,0,1-31.973-7.5a4.344,4.344,0,0,1,1.031,3.082V-3.4h-5.234a1.9,1.9,0,0,0,.617,1.117,1.836,1.836,0,0,0,1.234.406,2.366,2.366,0,0,0,1.953-.875l1.2,1.422A3.363,3.363,0,0,1-32.562-.246,4.713,4.713,0,0,1-34.5.156Zm-.3-6.734q-1.156,0-1.375,1.531h2.656v-.2a1.3,1.3,0,0,0-.32-.98A1.275,1.275,0,0,0-34.8-6.578Zm7.406-1.875.086.992a2.906,2.906,0,0,1,2.414-1.148A2.14,2.14,0,0,1-22.73-7.336a2.813,2.813,0,0,1,2.484-1.273q2.57,0,2.641,3.109V0h-2.641V-5.336a1.611,1.611,0,0,0-.219-.945.931.931,0,0,0-.8-.3,1.247,1.247,0,0,0-1.164.7l.008.109V0h-2.641V-5.32a1.694,1.694,0,0,0-.211-.961.929.929,0,0,0-.8-.3,1.263,1.263,0,0,0-1.156.7V0h-2.633V-8.453ZM-11.34,0a2.973,2.973,0,0,1-.25-.758,2.448,2.448,0,0,1-2.031.914,3,3,0,0,1-2.031-.723,2.3,2.3,0,0,1-.836-1.816,2.364,2.364,0,0,1,1.016-2.078,5.174,5.174,0,0,1,2.953-.7h.813v-.448q0-1.17-1.008-1.17a.824.824,0,0,0-.937.926h-2.633a2.36,2.36,0,0,1,1.043-1.99,4.383,4.383,0,0,1,2.66-.765,3.843,3.843,0,0,1,2.555.789,2.743,2.743,0,0,1,.961,2.164v3.742A3.832,3.832,0,0,0-8.707-.133V0Zm-1.648-1.719a1.469,1.469,0,0,0,.816-.211,1.322,1.322,0,0,0,.465-.477V-3.758h-.766q-1.375,0-1.375,1.234a.754.754,0,0,0,.242.582A.876.876,0,0,0-12.988-1.719ZM1.137,0a2.973,2.973,0,0,1-.25-.758A2.448,2.448,0,0,1-1.145.156,3,3,0,0,1-3.176-.566a2.3,2.3,0,0,1-.836-1.816A2.364,2.364,0,0,1-3-4.461a5.174,5.174,0,0,1,2.953-.7H.77v-.448q0-1.17-1.008-1.17a.824.824,0,0,0-.937.926H-3.809a2.36,2.36,0,0,1,1.043-1.99,4.383,4.383,0,0,1,2.66-.765,3.843,3.843,0,0,1,2.555.789A2.743,2.743,0,0,1,3.41-5.656v3.742A3.832,3.832,0,0,0,3.77-.133V0ZM-.512-1.719A1.469,1.469,0,0,0,.3-1.93,1.322,1.322,0,0,0,.77-2.406V-3.758H0q-1.375,0-1.375,1.234a.754.754,0,0,0,.242.582A.876.876,0,0,0-.512-1.719ZM7.355-8.453l.086.992A2.906,2.906,0,0,1,9.855-8.609,2.14,2.14,0,0,1,12.02-7.336,2.813,2.813,0,0,1,14.5-8.609q2.57,0,2.641,3.109V0H14.5V-5.336a1.611,1.611,0,0,0-.219-.945.931.931,0,0,0-.8-.3,1.247,1.247,0,0,0-1.164.7l.008.109V0H9.691V-5.32a1.694,1.694,0,0,0-.211-.961.929.929,0,0,0-.8-.3,1.263,1.263,0,0,0-1.156.7V0H4.887V-8.453ZM26.5-4.156a5.152,5.152,0,0,1-.859,3.2A2.878,2.878,0,0,1,23.215.156,2.5,2.5,0,0,1,21.137-.867L21.027,0H18.668V-12H21.3v4.227a2.41,2.41,0,0,1,1.9-.836,2.879,2.879,0,0,1,2.438,1.133A5.179,5.179,0,0,1,26.5-4.289Zm-2.641-.168a3.437,3.437,0,0,0-.324-1.735,1.093,1.093,0,0,0-1-.519A1.261,1.261,0,0,0,21.3-5.9v3.354a1.268,1.268,0,0,0,1.25.671,1.118,1.118,0,0,0,1.18-.9A6.5,6.5,0,0,0,23.855-4.324ZM30.434,0H27.793V-8.453h2.641Zm-2.8-10.633a1.175,1.175,0,0,1,.406-.922,1.533,1.533,0,0,1,1.055-.359,1.533,1.533,0,0,1,1.055.359,1.175,1.175,0,0,1,.406.922,1.175,1.175,0,0,1-.406.922,1.533,1.533,0,0,1-1.055.359,1.533,1.533,0,0,1-1.055-.359A1.175,1.175,0,0,1,27.637-10.633ZM36.145.156A4.345,4.345,0,0,1,33-1a4.006,4.006,0,0,1-1.2-3.02v-.219a5.191,5.191,0,0,1,.48-2.289,3.516,3.516,0,0,1,1.4-1.535,4.233,4.233,0,0,1,2.188-.543A3.659,3.659,0,0,1,38.676-7.5a4.344,4.344,0,0,1,1.031,3.082V-3.4H34.473a1.9,1.9,0,0,0,.617,1.117,1.836,1.836,0,0,0,1.234.406,2.366,2.366,0,0,0,1.953-.875l1.2,1.422A3.363,3.363,0,0,1,38.086-.246,4.713,4.713,0,0,1,36.145.156Zm-.3-6.734q-1.156,0-1.375,1.531h2.656v-.2a1.3,1.3,0,0,0-.32-.98A1.275,1.275,0,0,0,35.848-6.578Zm7.336-1.875.086.992a2.867,2.867,0,0,1,2.414-1.148,2.412,2.412,0,0,1,1.973.789,3.757,3.757,0,0,1,.676,2.375V0H45.691V-5.336a1.426,1.426,0,0,0-.258-.941,1.193,1.193,0,0,0-.937-.3,1.256,1.256,0,0,0-1.148.609V0H40.715V-8.453Zm9.672-2.1v2.1h1.391v1.828H52.855v3.867a.987.987,0,0,0,.172.664.922.922,0,0,0,.68.188,3.862,3.862,0,0,0,.656-.047V-.07a4.859,4.859,0,0,1-1.484.227,2.758,2.758,0,0,1-2.008-.641,2.626,2.626,0,0,1-.648-1.945v-4.2H49.145V-8.453h1.078v-2.1ZM60.043,0a2.973,2.973,0,0,1-.25-.758,2.448,2.448,0,0,1-2.031.914A3,3,0,0,1,55.73-.566a2.3,2.3,0,0,1-.836-1.816A2.364,2.364,0,0,1,55.91-4.461a5.174,5.174,0,0,1,2.953-.7h.813v-.448q0-1.17-1.008-1.17a.824.824,0,0,0-.937.926H55.1a2.36,2.36,0,0,1,1.043-1.99,4.383,4.383,0,0,1,2.66-.765,3.843,3.843,0,0,1,2.555.789,2.743,2.743,0,0,1,.961,2.164v3.742a3.832,3.832,0,0,0,.359,1.781V0ZM58.395-1.719a1.469,1.469,0,0,0,.816-.211,1.322,1.322,0,0,0,.465-.477V-3.758H58.91q-1.375,0-1.375,1.234a.754.754,0,0,0,.242.582A.876.876,0,0,0,58.395-1.719ZM66.551,0H63.91V-12h2.641Z" transform="translate(646 6767.813)" fill="#12263f"/>
    <g id="Grupo_85790" data-name="Grupo 85790" transform="translate(534.227 6405.12)">
      <g id="Grupo_85725" data-name="Grupo 85725" transform="translate(100.507 256.131)">
        <path id="Trazado_121820" data-name="Trazado 121820" d="M257.438,409.084a2.423,2.423,0,0,0-1.419,1c-4.731,6.133-16.278,9.306-23.685,11.391-9.3,2.623-31.7,5.2-42.523-8.53-1.865-2.363-6.069-8.623-5.681-19.88,5.942-2.421,11.987-4.992,16.892-6.063,7.743-1.691,17.112.84,22.579.851,11.964.035,19.487,1.905,19.979,4.639.457,2.6-5.472,7.048-11.466,7.98-6.648,1.037-18.908-1.7-20.575-1.813a10.04,10.04,0,0,0-1.963-.041c-.637.093-1.216.3-1.378,1s.649,1.077,1.031,1.291a4.394,4.394,0,0,0,1.361.347c2,.208,15.688,2.757,21.2,2.867,15.653.3,31.306-19.643,34.468-17.072a1.144,1.144,0,0,1,.266.324C267.925,389.771,264.7,399.8,257.438,409.084Z" transform="translate(-184.105 -386.415)" fill="#efcbb4"/>
      </g>
      <path id="Trazado_121821" data-name="Trazado 121821" d="M249.451,413.914a50.908,50.908,0,0,1-10.626,10.256c-12.972,9.161-32.957,12.428-32.957,12.428s-23.511-4.523-38.458-7.569l2.762-9.839q-2.536-.209-5.044-.5l11.014-20.8c-.388,11.258,3.816,17.518,5.681,19.88,10.823,13.73,33.223,11.153,42.523,8.53,7.407-2.085,18.954-5.258,23.685-11.391A2.423,2.423,0,0,1,249.451,413.914Z" transform="translate(-75.611 -135.114)" fill="#d8bca9"/>
      <g id="Grupo_85726" data-name="Grupo 85726" transform="translate(41.048 77.615)">
        <path id="Trazado_121822" data-name="Trazado 121822" d="M148.026,241.37l-.284.162c-5.438-3.15-10.887-6.277-16.3-9.468-.99-.585-1.407-.463-1.986.544-7.065,12.323-14.194,24.606-21.253,36.935-.95,1.656-1.61,3.48-2.508,5.455-.162-.284-.33-.562-.486-.834-.405-.689-.793-1.355-1.176-2.009-.07-.116-.139-.208-.208-.324V271.8c-.313-.533-.614-1.054-.915-1.575-.122-.208-.243-.388-.365-.6V269.6l-.069-.122c-.429-.747-.857-1.471-1.286-2.218v-.006c.006-.006.006-.006,0-.012-.429-.741-.851-1.482-1.28-2.224q-2.337-4.074-4.673-8.142c-.457-.8-.921-1.6-1.384-2.4v-.017c-.429-.741-.857-1.471-1.28-2.212v-.012c-.029-.046-.058-.087-.087-.133-.429-.741-.857-1.471-1.286-2.212v-.012q-.634-1.112-1.28-2.218-.886-1.537-1.772-3.069a11.178,11.178,0,0,1,.041-12.045c.811-1.39,1.616-2.768,2.421-4.164v-.017c.469-.811.932-1.616,1.4-2.426v-.012c.035-.058.064-.1.1-.156v-.012l.116-.18v-.017c.388-.672.782-1.332,1.17-2.009.029-.052.064-.11.093-.162s.064-.116.1-.174c.359-.637.724-1.268,1.094-1.9.515-.9,1.031-1.789,1.552-2.687.122-.214.249-.423.371-.637v-.006c.127-.22.255-.44.388-.66.139-.249.29-.5.434-.747.052-.093.1-.18.156-.272.081-.139.168-.284.249-.423s.168-.29.255-.434c.046-.081.093-.168.145-.249.081-.145.162-.29.249-.434a3.935,3.935,0,0,0,.29-.6,1.041,1.041,0,0,0,.052-.625c-.081-.324-.371-.6-.9-.892-.6-.336-1.193-.672-1.784-1.013-.429-.237-.857-.481-1.286-.724-.18-.1-.365-.208-.544-.313-.307-.18-.62-.359-.927-.539a.044.044,0,0,1-.023-.012l-1.268-.73a1.008,1.008,0,0,0-.1-.064c-.417-.237-.834-.481-1.245-.718q-3.388-1.954-6.77-3.92c-.822-.475-1.639-.967-2.536-1.494.579-.475,1.106-.272,1.575-.278H93.359q15.375,0,30.75-.023a2.649,2.649,0,0,1,2.664,1.517c6.642,11.623,13.354,23.2,20.043,34.8C147.239,239.87,147.627,240.623,148.026,241.37Z" transform="translate(-81.43 -130.617)" fill="#54733d"/>
        <path id="Trazado_121823" data-name="Trazado 121823" d="M193.746,327.877c.006,1.17.012,2.345.017,3.515a2.774,2.774,0,0,1-.139,1.037c-.2.51-.666.66-1.569.654-14.205-.046-28.416-.012-42.622-.023a14.344,14.344,0,0,1-3.619-.457c-.116-.029-.226-.064-.336-.1-.174-.046-.336-.1-.5-.151a13.168,13.168,0,0,1-6.3-4.476.839.839,0,0,1-.064-.087,13.143,13.143,0,0,1-2.507-5.913,13.387,13.387,0,0,1-.133-2.6,13.745,13.745,0,0,1,1.778-6.121c2.762-4.951,5.669-9.822,8.461-14.755a2.178,2.178,0,0,1,2.189-1.251c7.308.046,14.616.023,21.925.023v.023q5.177,0,10.354.006h2.293c.579,0,1.158,0,1.737-.006q3.692,0,7.384-.029c1.21-.006,1.679.22,1.674,1.569q-.052,9.824-.041,19.637,0,2.041.006,4.088.009,2.563.017,5.113Z" transform="translate(-104.38 -170.327)" fill="#9fb942"/>
        <path id="Trazado_121824" data-name="Trazado 121824" d="M363.6,227.936c-.006.359-.029.712-.069,1.066a12.374,12.374,0,0,1-.423,2.119,8.916,8.916,0,0,1-.353,1.071,1.8,1.8,0,0,1-.087.226q-.122.321-.278.643a1.4,1.4,0,0,1-.064.133,13.046,13.046,0,0,1-4.123,4.951c-.2.151-.411.29-.625.423a11.292,11.292,0,0,1-1.511.84c-.237.116-.486.226-.735.324h-.006a13.987,13.987,0,0,1-5.079.984l-2.646.017c-.394,0-.788.006-1.181,0-.614.006-1.228.006-1.842.006h-1.384c-3.272-.006-6.544-.017-9.816.012a2.057,2.057,0,0,1-2.073-1.176q-1.355-2.371-2.716-4.731v-.006c-.174-.307-.347-.608-.527-.909-.139-.249-.278-.492-.423-.741-.069-.122-.139-.249-.214-.371a.131.131,0,0,0-.04-.064q-.573-1.016-1.164-2.033c-.6-1.042-1.193-2.091-1.8-3.133a.772.772,0,0,0-.075-.133q-.226-.408-.469-.817c-.046-.093-.1-.185-.162-.278-.243-.44-.492-.874-.753-1.309-.469-.834-.95-1.668-1.43-2.5-.382-.672-.77-1.343-1.158-2.015s-.77-1.343-1.158-2.015c-.249-.434-.5-.869-.747-1.3q-.73-1.286-1.471-2.56c-.342-.6-.689-1.2-1.037-1.8-.266-.463-.527-.921-.793-1.384q-2.971-5.16-5.936-10.32c-.353-.614-.84-1.118.185-1.7q2.858-1.624,5.716-3.26c.29-.168.579-.336.874-.5q4.8-2.762,9.6-5.525l.973-.556q3.318-1.911,6.631-3.816c1.859-1.106,3.729-2.195,5.577-3.324.55-.336.921-.313,1.2.29.405.9,1.071,1.668,1.436,2.594a3.726,3.726,0,0,1,.139.452c0,.006.006.012.006.017q1.928,3.2,3.828,6.4c.365.62.73,1.239,1.089,1.859q1.433,2.432,2.849,4.87c.156.272.318.55.475.822q1.729,2.988,3.44,5.988l.261.452q1.65,2.893,3.3,5.791c.226.394.446.788.672,1.181q1.416,2.5,2.832,5c.029.046.052.093.075.133.208.365.417.735.625,1.1.261.458.515.915.776,1.372.139.243.266.486.388.735.174.353.336.712.475,1.066a13.265,13.265,0,0,1,.649,2.1c.081.359.145.718.2,1.077A12.755,12.755,0,0,1,363.6,227.936Z" transform="translate(-177.129 -121.972)" fill="#9fb942"/>
        <path id="Trazado_121825" data-name="Trazado 121825" d="M304.75,93.392c-2.71,4.61-5.386,9.15-8.055,13.69q-1.9,3.336-3.8,6.665c-.434.759-.869,1.523-1.3,2.282-.423.741-.845,1.477-1.274,2.218-.782,1.378-1.575,2.751-2.363,4.129q-.7,1.216-1.413,2.432c-.938,1.616-1.882,3.22-2.809,4.841v.006c-.2.359-.411.718-.614,1.077a2.078,2.078,0,0,1-.678.77c-.012.017-.029.023-.041.035a.2.2,0,0,1-.046.029.044.044,0,0,1-.023.012,1.95,1.95,0,0,1-1.037.243H281c-1.882-.006-3.758-.006-5.64-.006-1.164-.006-2.322-.006-3.486-.006q-11.64-.017-23.28-.017-4.96,0-9.926-.006a4.1,4.1,0,0,1-.55-.093c.168-.481.585-.579.9-.759q4.326-2.51,8.652-5.027c.851-.492,1.708-.99,2.565-1.483.591-.342,1.187-.683,1.784-1.019q1.26-.721,2.525-1.436c.99-.562,1.135-.973.544-1.986-.625-1.083-1.257-2.166-1.882-3.249-.411-.706-.817-1.407-1.222-2.114-.3-.515-.6-1.025-.892-1.54C245.253,103,239.451,92.905,233.6,82.846c-.9-1.564-2.085-2.965-3.156-4.459a2.134,2.134,0,0,1,1.425-.208c11.038-.012,22.081.046,33.119-.029a13.972,13.972,0,0,1,4.436.631c.272.087.533.185.788.29a11.358,11.358,0,0,1,5.762,5.478c.232.429.463.857.7,1.28l.625,1.129c.2.353.4.707.6,1.066,2.716,4.4,5.212,8.912,7.708,13.429.069.127.145.261.214.388a1.964,1.964,0,0,0,.8,1.037c.481.266,13.122-6.972,17.616-9.584C304.287,93.258,304.4,93.322,304.75,93.392Z" transform="translate(-144.149 -78.149)" fill="#54733d"/>
        <path id="Trazado_121826" data-name="Trazado 121826" d="M191.727,87.841c-5.575-8.733-17.572-8.356-22.763.607Q158.448,106.6,147.992,124.8c-1.232,2.136-1.235,2.15.887,3.365q9.367,5.36,18.744,10.7,4.737,2.787,9.471,5.577c.51.3.809.193,1.1-.319q4.092-7.253,8.214-14.488,7.188-12.38,14.383-24.756a1.418,1.418,0,0,0-.017-1.573C197.763,98.146,194.937,92.871,191.727,87.841Z" transform="translate(-109.094 -79.561)" fill="#9fb942"/>
        <path id="Trazado_121827" data-name="Trazado 121827" d="M336.652,281.21c-1.13-.065-32.725.268-46.883.317-1.3,0-1.6-.365-1.59-1.627.068-6.03.036-12.062.019-18.093,0-.284.262-.7-.309-.918-.092.246-.177.473-.263.7h0c-.2.291-.434.57-.612.877q-10.4,17.974-20.808,35.944a1.843,1.843,0,0,0,.1,2.108q10.384,17.987,20.738,35.992a3.04,3.04,0,0,0,.953,1.316,2.121,2.121,0,0,0,.181-1.4c.008-5.571-.02-11.143,0-16.715.011-2.675-.438-2.388,2.313-2.392,6.8-.011,13.6.055,20.394-.016a10.416,10.416,0,0,0,9.384-5.374c1.326-2.243,2.645-4.49,3.929-6.758,2.539-4.485,5.307-8.839,7.635-13.444h0q2.761-4.673,5.521-9.349C337.808,281.608,337.477,281.257,336.652,281.21Z" transform="translate(-159.081 -155.064)" fill="#54733d"/>
      </g>
      <path id="Trazado_121828" data-name="Trazado 121828" d="M270.215,150.015q-1.268.712-2.525,1.436a44.926,44.926,0,0,0,.88-4.407c.116-.753.22-1.511.307-2.264.625,1.083,1.257,2.166,1.882,3.249C271.35,149.042,271.205,149.453,270.215,150.015Z" transform="translate(-118.779 -28.579)" fill="#3c4f2c"/>
      <path id="Trazado_121829" data-name="Trazado 121829" d="M157.143,448.808a1.263,1.263,0,0,1-.058.2l-3.515-.984C154.508,448.234,155.718,448.5,157.143,448.808Z" transform="translate(-70.746 -156.213)" fill="#fff"/>
      <path id="Trazado_121830" data-name="Trazado 121830" d="M170.437,394.791l-.1.342-5.971,21.3q-3.544-.3-7.042-.741-2.849-.356-5.664-.811c-.724,2.623-1.471,5.229-2.293,7.806a.9.9,0,0,0-.029.486,1.029,1.029,0,0,0,.185.382l-.405-.116,2.4-8.576,6.6-23.523,4.951,1.384Z" transform="translate(-68.873 -132.357)" fill="#fff"/>
      <g id="Grupo_85727" data-name="Grupo 85727" transform="translate(-39.227 189.877)">
        <path id="Trazado_121831" data-name="Trazado 121831" d="M149.843,446.993c-.006-.006-.012-.017-.023-.023l2.172.608A12.439,12.439,0,0,1,149.843,446.993Z" transform="translate(-29.941 -345.648)" fill="#54733d"/>
        <path id="Trazado_121832" data-name="Trazado 121832" d="M157.143,448.808a1.263,1.263,0,0,1-.058.2l-3.515-.984C154.508,448.234,155.718,448.5,157.143,448.808Z" transform="translate(-31.519 -346.09)" fill="#54733d"/>
        <path id="Trazado_121833" data-name="Trazado 121833" d="M95.553,345.213c-.388,2.108-.851,4.2-1.355,6.289-.469,1.934-.979,3.857-1.506,5.774-.643,2.328-1.32,4.639-1.992,6.955-.979,3.365-1.6,6.8-2.247,10.238q-2.849-.356-5.664-.811c-.724,2.623-1.471,5.229-2.293,7.806a.9.9,0,0,0-.029.486,1.03,1.03,0,0,0,.185.382l-.405-.116,2.4-8.576c-46.131-7.4-118.379-44.109-121.877-46.356V281.012C-13.515,309.654,54.025,345.735,95.553,345.213Z" transform="translate(39.227 -281.012)" fill="#54733d"/>
      </g>
      <g id="Grupo_85728" data-name="Grupo 85728" transform="translate(114.863 147.671)">
        <path id="Trazado_121834" data-name="Trazado 121834" d="M213.548,237.923a8.947,8.947,0,0,0-4.653.429v1.912c1.454.893,3.054.474,4.6.475.819,0,1.56-.29,1.574-1.36C215.079,238.328,214.357,237.987,213.548,237.923Z" transform="translate(-208.895 -215.41)" fill="#f4d32c"/>
        <path id="Trazado_121835" data-name="Trazado 121835" d="M248.971,205.435c.711-.046,1.271-.433,1.284-1.136.032-1.759.643-3.629-.777-5.175h-1.434c-.95,1.608-.6,3.35-.475,5.054A1.226,1.226,0,0,0,248.971,205.435Z" transform="translate(-225.104 -199.124)" fill="#f4d32c"/>
        <path id="Trazado_121836" data-name="Trazado 121836" d="M248.405,217.261a14.507,14.507,0,0,0-15.212-2.419c-11.741,4.607-12.84,20.091-4.021,26.349.587.4,7.4,4.85,15.142,1.781.409-.162,8.048-3.336,9.626-11.111C254.775,227.739,255.177,222.767,248.405,217.261Z" transform="translate(-214.98 -205.255)" fill="#f4d32c"/>
        <path id="Trazado_121837" data-name="Trazado 121837" d="M274.467,210.545c-.728.045-3.693,3.024-3.722,3.782a1.5,1.5,0,0,0,.741,1.4,1.261,1.261,0,0,0,1.546-.149c.928-.856,1.824-1.753,2.669-2.691a1.208,1.208,0,0,0,.135-1.538A1.615,1.615,0,0,0,274.467,210.545Z" transform="translate(-234.927 -203.931)" fill="#f4d32c"/>
        <path id="Trazado_121838" data-name="Trazado 121838" d="M224.453,261.263a.982.982,0,0,0-1.306.146c-.972.926-1.909,1.89-2.856,2.842a1.037,1.037,0,0,0-.026,1.5c.419.574,1.045.951,1.638.536,1.3-.906,2.9-1.645,2.923-3.764C225.214,262.067,224.991,261.627,224.453,261.263Z" transform="translate(-213.552 -225.2)" fill="#f4d32c"/>
        <path id="Trazado_121839" data-name="Trazado 121839" d="M284,237.921c-.157-.016-.317,0-.635,0-.959.208-2.734-.605-2.772,1.419s1.7,1.359,2.853,1.486c.158.017.318,0,.477.005,1.2.034,2.707.226,2.755-1.427C286.73,237.67,285.12,238.038,284,237.921Z" transform="translate(-239.074 -215.451)" fill="#f4d32c"/>
        <path id="Trazado_121840" data-name="Trazado 121840" d="M248.945,270.941a1.224,1.224,0,0,0-1.38,1.285c-.034.555-.006,1.113-.006,1.67h-.036c0,.4,0,.8,0,1.193.013.987.034,2.03,1.378,2.062,1.194.028,1.363-.96,1.434-1.832.083-1.026.026-2.065.006-3.1C250.323,271.322,249.762,270.96,248.945,270.941Z" transform="translate(-225.152 -229.351)" fill="#f4d32c"/>
        <path id="Trazado_121841" data-name="Trazado 121841" d="M272.362,261.223a1.419,1.419,0,0,0-1.372.772,1.2,1.2,0,0,0,.053,1.543,22.548,22.548,0,0,0,2.7,2.67,1.387,1.387,0,0,0,2.245-1.078C275.981,264.427,273.1,261.3,272.362,261.223Z" transform="translate(-234.924 -225.258)" fill="#f4d32c"/>
        <path id="Trazado_121842" data-name="Trazado 121842" d="M223.444,215.786c.821.47,1.718.264,1.829-1,.1-1.146-2.652-4.1-3.905-4.048a1.248,1.248,0,0,0-.977,1.878A7.386,7.386,0,0,0,223.444,215.786Z" transform="translate(-213.663 -204.014)" fill="#f4d32c"/>
      </g>
      <g id="Grupo_85734" data-name="Grupo 85734" transform="translate(60.029 82.217)">
        <g id="Grupo_85729" data-name="Grupo 85729" transform="translate(12.853 34.229)">
          <rect id="Rectángulo_34692" data-name="Rectángulo 34692" width="0.29" height="3.823" transform="translate(0 0.057) rotate(-11.445)" fill="#c98349"/>
        </g>
        <g id="Grupo_85730" data-name="Grupo 85730" transform="translate(15.632 34.292)">
          <rect id="Rectángulo_34693" data-name="Rectángulo 34693" width="3.823" height="0.289" transform="translate(0 3.818) rotate(-86.975)" fill="#c98349"/>
        </g>
        <g id="Grupo_85731" data-name="Grupo 85731" transform="translate(18.224 34.223)">
          <rect id="Rectángulo_34694" data-name="Rectángulo 34694" width="3.861" height="0.29" transform="translate(0 3.748) rotate(-76.099)" fill="#c98349"/>
        </g>
        <g id="Grupo_85733" data-name="Grupo 85733" transform="translate(0 0)">
          <path id="Trazado_121843" data-name="Trazado 121843" d="M142.407,152.614c-.075.9-.158,1.806-.223,2.711-.071.983-.427,1.326-1.419,1.328-.656,0-1.313,0-1.969,0-.8-.006-1.122-.264-1.259-1.05a16.091,16.091,0,0,1-.233-3c.163-.249.423-.243.673-.246q1.881-.018,3.762,0C141.991,152.362,142.25,152.359,142.407,152.614Z" transform="translate(-123.928 -113.983)" fill="#c98349"/>
          <path id="Trazado_121844" data-name="Trazado 121844" d="M145.663,96.443a10.018,10.018,0,0,0-3.76-6.219,2.31,2.31,0,0,0-1.36-.563c-.323-.272-.632-.562-.972-.811a6.952,6.952,0,0,0-3.947-1.485h0a6.466,6.466,0,0,0-4.1-.821,2.542,2.542,0,0,0-2.027-.376c-.314.074-.489.4-.829.368h0a6.418,6.418,0,0,0-4.015.827,8.751,8.751,0,0,0-1.965.408,8.592,8.592,0,0,0-2.823,1.871,2.162,2.162,0,0,0-1.047.28,6.645,6.645,0,0,0-2.346,2.169,12.922,12.922,0,0,0-2.044,9.872,15.369,15.369,0,0,0,3.908,7.965,76.409,76.409,0,0,1,5.292,6.237c.587.8,2.562,3.838,2.8,4.188a3.142,3.142,0,0,1,.383-.025h7.026c.221-.341,1.064-1.726,1.064-1.726a62.3,62.3,0,0,1,4.943-6.436,32.305,32.305,0,0,0,3.63-4.3,17.957,17.957,0,0,0,2.26-5.514A13.423,13.423,0,0,0,145.663,96.443Z" transform="translate(-114.208 -86.097)" fill="#eec900"/>
          <g id="Grupo_85732" data-name="Grupo 85732" transform="translate(12.936 38.005)">
            <path id="Trazado_121845" data-name="Trazado 121845" d="M136.587,151.725c-.072.292-.1.567.4.617l5.1.009c.225.009.279-.107.364-.318a.39.39,0,0,0,0-.308Z" transform="translate(-136.546 -151.725)" fill="#eec900"/>
          </g>
        </g>
        <path id="Trazado_121846" data-name="Trazado 121846" d="M140.466,86.545a11.523,11.523,0,0,1,1.753,4.9,37.054,37.054,0,0,1,.29,10.446c-.211,2.115-.492,4.217-.9,6.3-.509,2.593-1.027,5.183-1.442,7.792-.065.411-.211.569-.63.532a4.514,4.514,0,0,1-1.373-.069c-.466-.214-.228-.833-.321-1.264-.26-1.206-.381-2.442-.654-3.644-.334-1.466-.607-2.942-.877-4.419a50.188,50.188,0,0,1-.814-6.546,49.579,49.579,0,0,1-.028-5.62,23.418,23.418,0,0,1,1.427-7.115,11.037,11.037,0,0,1,.713-1.3c.34.03.515-.294.829-.368A2.544,2.544,0,0,1,140.466,86.545Z" transform="translate(-123.127 -86.097)" fill="#fbf29f"/>
        <path id="Trazado_121847" data-name="Trazado 121847" d="M154.25,90.583a11.9,11.9,0,0,1,1.816,2.928,12.147,12.147,0,0,1,.878,3.575,21.9,21.9,0,0,1-.355,6.625,15.558,15.558,0,0,1-2.931,6.019,58.23,58.23,0,0,0-5.122,7.524,1.4,1.4,0,0,1-1.719.321c-.185-.134-.053-.276-.012-.412a34.6,34.6,0,0,1,2.644-6.135,37.548,37.548,0,0,0,2.915-6.962,16.387,16.387,0,0,0,.474-7.836,18.891,18.891,0,0,0-2.48-6.786,6.7,6.7,0,0,0-1.026-1.155,6.95,6.95,0,0,1,3.947,1.485C153.619,90.02,153.927,90.311,154.25,90.583Z" transform="translate(-127.893 -87.019)" fill="#fbf29f"/>
        <path id="Trazado_121848" data-name="Trazado 121848" d="M126.641,88.284a9.86,9.86,0,0,0-2.506,4.217,20.423,20.423,0,0,0-1.295,7.655,18.774,18.774,0,0,0,1.407,6.107,75.231,75.231,0,0,0,3.391,7.067c.618,1.222,1.03,2.531,1.533,3.8.114.287.05.488-.322.494a2.988,2.988,0,0,0-.629.092.534.534,0,0,1-.651-.332,55.516,55.516,0,0,0-5.076-7.491,16.748,16.748,0,0,1-3.4-8.282,17,17,0,0,1,.056-5.705,10.857,10.857,0,0,1,2.7-5.342,8.6,8.6,0,0,1,2.823-1.871A8.758,8.758,0,0,1,126.641,88.284Z" transform="translate(-116.175 -87.017)" fill="#fbf29f"/>
      </g>
      <g id="Grupo_85741" data-name="Grupo 85741" transform="translate(141.574 99.269)">
        <g id="Grupo_85735" data-name="Grupo 85735" transform="translate(0 0)">
          <path id="Trazado_121849" data-name="Trazado 121849" d="M300.682,127.679c-.539-.73.052-1.251.243-2.038a4.169,4.169,0,0,0-.122-2.473,4.7,4.7,0,0,0-2.855-2.884,4.205,4.205,0,0,0-1.071-.185c-.342-.041-.678.087-.944-.1s-.191-.417-.272-.718a5.6,5.6,0,0,0-.284-.979,4.648,4.648,0,0,0-2.594-2.45,6.2,6.2,0,0,0-3.978.058,5.144,5.144,0,0,0-3.075,2.212c-.417.666-1.112.394-1.72.585a5.314,5.314,0,0,1-1.633.029,8.262,8.262,0,0,0-4.123,1.135,8.632,8.632,0,0,0-3.5,4,17.831,17.831,0,0,0-.724,2.78,3.217,3.217,0,0,1-.741,1.459c-.087-1.1-.151-2.183-.237-3.283-.023-.313-.139-.51-.174-.869s.064-.8.052-1.2a6.279,6.279,0,0,0-.2-2.519c-.365-.811-1.378-.556-2.1-.544-2.276.029-4.5-.069-6.752-.075-.423,0-.811-.029-1.233-.046-.185-.006-.411-.087-.573.075-.475.452-.266,1.529-.261,2.056a13.493,13.493,0,0,1-.035,2.334,22.644,22.644,0,0,0-.191,2.913c-.023.5-.058.95-.1,1.471-.012.127-.029.266-.052.405.3.515.6,1.025.892,1.54.405.707.811,1.407,1.222,2.114.625,1.083,1.257,2.166,1.882,3.249.591,1.013.446,1.425-.544,1.986q-1.268.712-2.525,1.436c-.6.336-1.193.678-1.784,1.019-.857.492-1.714.99-2.565,1.482-.452,1-.944,1.981-1.465,2.936-.261.481-.533.955-.828,1.39a4,4,0,0,0-.695,1.268c4.447.162,8.843.185,13.3.18,6.15-.006,12.341.023,18.5.006.55,0,1.054.006,1.622-.012.33-.006.961.162,1.257-.029.539-.359-.266-1.077-.463-1.425a25.881,25.881,0,0,1-2-4.835,9.11,9.11,0,0,0,2.89-.533c-.029,2.247-.1,4.488-.174,6.729l2.751-.017h.093a.237.237,0,0,0-.006-.064c-.1-2.4-.4-4.8-.527-7.192,1.789.319,3.376.405,4.853-.8a5.04,5.04,0,0,0,1.616-3.764c.069-.724.776-.793,1.28-1.187a4.182,4.182,0,0,0,1.471-1.905A4.778,4.778,0,0,0,300.682,127.679Zm-27.166,13.476c-.168-.591-.336-1.181-.492-1.772.382.052.764.087,1.147.122A11.245,11.245,0,0,1,273.516,141.154Z" transform="translate(-255.02 -115.542)" fill="#3c4f2c"/>
        </g>
        <g id="Grupo_85740" data-name="Grupo 85740" transform="translate(3.874 0.405)">
          <g id="Grupo_85738" data-name="Grupo 85738" transform="translate(13.533)">
            <g id="Grupo_85736" data-name="Grupo 85736" transform="translate(9.639)">
              <path id="Trazado_121850" data-name="Trazado 121850" d="M311.366,140.552a4.6,4.6,0,0,1-6.094-2.072,4.035,4.035,0,0,1-.462-2.074.962.962,0,0,0-.6-1.118,4.478,4.478,0,0,1-1.293-7.048.716.716,0,0,0,.091-.947,4.508,4.508,0,0,1,1.976-6.2,4.168,4.168,0,0,1,2.414-.477c.4.031.553-.064.6-.51a4.581,4.581,0,0,1,5.628-3.7,4.479,4.479,0,0,1,3.348,3.666c.085.448.235.555.671.543a4.376,4.376,0,0,1,4.316,2.533,4.267,4.267,0,0,1-.03,4.066.8.8,0,0,0,.094,1.087,4.54,4.54,0,0,1-1.612,7.162c-.393.164-.49.328-.466.694a4.556,4.556,0,0,1-3.143,4.624,5.264,5.264,0,0,1-2.6.07c-.25-.045-.492-.129-.738-.195A2.034,2.034,0,0,0,311.366,140.552Z" transform="translate(-301.725 -116.241)" fill="#b9d410"/>
              <path id="Trazado_121851" data-name="Trazado 121851" d="M320.576,165.237c-.043-2.425-.266-4.842-.361-7.265a1.294,1.294,0,0,0-2.091-.1c-.017,1-.241,5.422-.343,7.367Z" transform="translate(-308.483 -133.559)" fill="#925224"/>
            </g>
            <g id="Grupo_85737" data-name="Grupo 85737" transform="translate(0 4.113)">
              <path id="Trazado_121852" data-name="Trazado 121852" d="M305.459,163.381q-.2-4.994-.4-9.989c-.87-.108-1.74-.234-2.6-.415,0,.325,0,.649-.014.973-.153,3.1-.334,6.193-.474,9.291,0,.05,0,.093-.006.14Z" transform="translate(-292.188 -135.816)" fill="#925224"/>
              <path id="Trazado_121853" data-name="Trazado 121853" d="M304.69,131.293c-.979-.423-.961-2.894-1.433-3.828a7.456,7.456,0,0,0-3.375-3.354,7.758,7.758,0,0,0-8.9,1.559,7.893,7.893,0,0,0-2.016,4.108c-.4,2.013-.519,1.72-1.952,3.172a6.706,6.706,0,0,0-.767,8.491c1.737,2.538,9.4,1.66,9.9,1.356s2.978,1.4,2.692,1.294a7.7,7.7,0,0,0,3.023.618C308.951,144.53,311.415,134.193,304.69,131.293Z" transform="translate(-285.079 -123.344)" fill="#9fb942"/>
            </g>
          </g>
          <g id="Grupo_85739" data-name="Grupo 85739" transform="translate(0 4.368)">
            <path id="Trazado_121854" data-name="Trazado 121854" d="M294.157,154.116c-.029.127-.185.156-.452.151-.318-.006-.643,0-.961,0H261.71a1.63,1.63,0,0,1,.041-.18.82.82,0,0,1,.035-.127,8.036,8.036,0,0,1,.759-1.315,30.478,30.478,0,0,0,2.629-6.943c.371-1.448.654-2.919.88-4.407.116-.753.22-1.511.307-2.264a63.915,63.915,0,0,0,.481-7.14c.006-.568.185-.776.782-.77q4.465.035,8.935,0c.237.006.475,0,.712,0,.452-.006.666.093.747.429a1.65,1.65,0,0,1,.041.324c.046,1.112.1,2.224.174,3.33a57.985,57.985,0,0,0,1.529,10.493c.052.2.11.405.168.608.162.585.347,1.17.515,1.749a9.269,9.269,0,0,0,.568-1.633c.226-.88.347-1.766.486-2.646.3-1.934.382-3.9.492-5.849.04-.706.324-.822.944-.817.654.012,1.315.017,1.969.023,1.529.012,3.063.006,4.592-.029.736-.012.886.22.921.921a51.1,51.1,0,0,0,1.077,9.115v.006c.029.151.064.29.1.44.029.133.064.261.1.394a24.331,24.331,0,0,0,1.187,3.492c0,.006.006.012.006.017a20.661,20.661,0,0,0,1.135,2.23c.035.058.058.11.081.156A.436.436,0,0,1,294.157,154.116Z" transform="translate(-261.71 -126.872)" fill="#e7eee9"/>
            <path id="Trazado_121855" data-name="Trazado 121855" d="M276.347,126.468c-1.572,0-3.143-.022-4.714.012-.6.013-.863-.119-.839-.785.082-2.337-.257-1.862,1.868-1.884,2.693-.028,5.388.024,8.081-.025.838-.015,1.124.215,1.095,1.078-.055,1.6-.005,1.6-1.642,1.6Z" transform="translate(-265.533 -123.785)" fill="#e7eee9"/>
            <path id="Trazado_121856" data-name="Trazado 121856" d="M300.93,137.492c-1.122,0-2.245-.034-3.365.013-.645.027-.764-.268-.709-.8.045-.448-.154-.984.657-.973,2.339.031,4.679.022,7.019,0,.834-.006.551.594.606,1.015.064.486-.042.779-.65.758C303.3,137.464,302.116,137.493,300.93,137.492Z" transform="translate(-276.498 -128.812)" fill="#e7eee9"/>
            <path id="Trazado_121857" data-name="Trazado 121857" d="M276.06,129.932c-1.6,0-3.206-.008-4.809.005-.437,0-.73-.038-.728-.6,0-.546.266-.624.716-.623q4.858.015,9.715,0c.438,0,.734.049.733.61s-.27.621-.721.617C279.33,129.923,277.695,129.933,276.06,129.932Z" transform="translate(-265.419 -125.859)" fill="#2c2c2c"/>
            <path id="Trazado_121858" data-name="Trazado 121858" d="M300.823,140.288c-1.188,0-2.377-.01-3.564,0-.42.005-.653-.09-.661-.581-.008-.517.2-.659.687-.656q3.516.024,7.033,0c.453,0,.72.083.715.629s-.3.61-.742.605C303.135,140.28,301.979,140.289,300.823,140.288Z" transform="translate(-276.394 -130.212)" fill="#353536"/>
            <path id="Trazado_121859" data-name="Trazado 121859" d="M278.2,143.546a2.72,2.72,0,0,1-.067-5.439,2.72,2.72,0,1,1,.067,5.439Z" transform="translate(-267.511 -129.813)" fill="#2c2c2c"/>
            <path id="Trazado_121860" data-name="Trazado 121860" d="M302.372,149.234a2.079,2.079,0,0,1-2.078-1.952,2.133,2.133,0,0,1,2.05-2.121,2.111,2.111,0,0,1,2.116,2.044A2.037,2.037,0,0,1,302.372,149.234Z" transform="translate(-277.95 -132.782)" fill="#2c2c2c"/>
          </g>
        </g>
      </g>
      <g id="Grupo_85748" data-name="Grupo 85748" transform="translate(175.491 140.898)">
        <g id="Grupo_85742" data-name="Grupo 85742">
          <path id="Trazado_121861" data-name="Trazado 121861" d="M368.589,201.142c-.058.058-.122.116-.185.168a3.431,3.431,0,0,0-1.471,2.785v.093a.791.791,0,0,1,.29.539,1.352,1.352,0,0,1,.023.226c.029.956-.5,1.147-1.685,1.077-.956-.058-1.923-.012-2.884-.012-.822,0-1.65-.023-2.473,0-.069,0-.139.006-.2.006-.915.029-1.616.012-1.645-.979a.911.911,0,0,1,.371-.874,3.27,3.27,0,0,0-1.332-2.681,8.125,8.125,0,0,1,3.284-13.95,3.719,3.719,0,0,1,.139.452,8.571,8.571,0,0,1,2.218-.51,10.65,10.65,0,0,1,1.477-.046,8.051,8.051,0,0,1,5.762,4.581A7.912,7.912,0,0,1,368.589,201.142Z" transform="translate(-330.831 -187.427)" fill="#8ea336"/>
          <path id="Trazado_121862" data-name="Trazado 121862" d="M369.76,222.632c-.021-.887-.431-1.013-1.27-.988-1.418.042-2.839.027-4.257,0-.878-.016-1.555-.045-1.531,1.08.023,1.059.659,1,1.465.974.654-.024,1.31,0,1.965,0,.764,0,1.532-.043,2.292.012C369.358,223.776,369.782,223.588,369.76,222.632Z" transform="translate(-334.26 -201.828)" fill="#8ea336"/>
          <path id="Trazado_121863" data-name="Trazado 121863" d="M368.545,226.705c-1.163.034-2.328.023-3.491,0-.72-.013-1.276-.036-1.255.886.018.868.54.824,1.2.8.536-.02,1.074,0,1.611,0,.627,0,1.257-.035,1.879.01.767.056,1.114-.1,1.1-.882C369.569,226.788,369.233,226.685,368.545,226.705Z" transform="translate(-334.722 -203.958)" fill="#8ea336"/>
          <path id="Trazado_121864" data-name="Trazado 121864" d="M353.308,276.93a4.574,4.574,0,0,1-2.23.793,3.424,3.424,0,0,1-.417.023h-.006l-.151-.035c0-.029-1.361-.614-1.627-.463a1.22,1.22,0,0,1-.2.064,1.975,1.975,0,0,0-1.008-.2,13.8,13.8,0,0,1-3.585.394,4.392,4.392,0,0,1-1.268.869,5.365,5.365,0,0,1-2.05.475h-.006c-.591-.174-1.338-.475-1.755-.3a1.922,1.922,0,0,0-1.251-.116,4.672,4.672,0,0,1-1.992.515h-.012c-2.328-.562-3.868-2.867-2.247-4.8a4.541,4.541,0,0,1,1.3-1c0,.035,1.517-.452,1.54-.712a6.836,6.836,0,0,1,1.193-1.662v-1.245c.07-.052.139-.1.214-.151a3.226,3.226,0,0,1,.956-.463,1.811,1.811,0,0,1,.423-.058,4.577,4.577,0,0,1,1.2.127,3.272,3.272,0,0,1,2.6,2.276c.029.133.052.237.069.336.006-.023.006-.046.012-.069a3.409,3.409,0,0,1,.5-1.309,3.233,3.233,0,0,1,.539-.649,5.5,5.5,0,0,1,4.818-1.187c.11.023.22.052.33.081a4.034,4.034,0,0,1,2.091,1.372c.307.4.382,1.523.973,1.674C355.427,272.3,355.444,275.424,353.308,276.93Z" transform="translate(-321.688 -221.445)" fill="#8ea336"/>
          <path id="Trazado_121865" data-name="Trazado 121865" d="M369.276,251.709a.976.976,0,0,1-.006.133,1.333,1.333,0,0,1-.029.226.75.75,0,0,1-.614.643H356.894v.133c-.006.863-.006,1.732-.012,2.594.058.017.122.035.18.058.006.006.012.006.017.012h.006l.052.017a2.128,2.128,0,0,1,.95.828.175.175,0,0,1,.029.041c.162.261.208.984.5,1.083a1.838,1.838,0,0,1,.973.741,2.131,2.131,0,0,1-1.268,3.185c-.191-.11-.625-.324-.73-.255a1.811,1.811,0,0,1-.475.122c-.191-.11-.625-.324-.73-.255a5.271,5.271,0,0,1-1.784.214,2.154,2.154,0,0,1-.62.544,2.028,2.028,0,0,1-.625.226c-.261-.11-.539-.214-.695-.116a1.741,1.741,0,0,1-.2.11c-.319-.11-.782-.388-1-.243a1.849,1.849,0,0,1-.614.255,2.233,2.233,0,0,1-1.233-1.621c-.394,0-.788.006-1.181,0a1.9,1.9,0,0,1,.255-1.517,2.2,2.2,0,0,1,.643-.625h.006c.046,0,.747-.278.753-.44s1.054-2.16,1.952-2.166a1.883,1.883,0,0,1,.88.214,1.947,1.947,0,0,1,1.042,1.367c.017.087.029.156.041.22,0-.017.006-.029.006-.046a2.4,2.4,0,0,1,.457-1.193c.012-.017.029-.035.041-.052a2.234,2.234,0,0,1,1.419-.776c.006-.84.006-1.685.006-2.525v-.133H344.212c-.405-.1-.654-.353-.654-1-.481.041-.649-.058-.457-.614q.651-1.928,1.3-3.857c.1-.318.214-.637.319-.956.035-.093.064-.18.093-.272.012-.041.029-.081.041-.122a1.515,1.515,0,0,1-.22-.012.975.975,0,0,1-.006.133,2.013,2.013,0,0,1-.035.278.936.936,0,0,1-.764.817h-14.4v.133q-.017,2.58-.023,5.166-.573-1.016-1.164-2.033c0-1.042,0-2.091.006-3.133V247.1H314.719a1.147,1.147,0,0,1-.475-1.094c-.591.052-.793-.069-.562-.741q2.172-6.359,4.291-12.752c-.266-.463-.527-.921-.793-1.384l.452-1.372a.959.959,0,0,1,1.071-.811q10.128.043,20.263,0a1.15,1.15,0,0,1,.614.133,1.077,1.077,0,0,1,.452.683q2.528,7.627,5.113,15.242c.191-.579.388-1.152.573-1.731.533-1.587,1.06-3.179,1.581-4.766.151-.469.336-.666.869-.666q7.079.026,14.153.006c.782,0,1.564,0,2.345-.006a.9.9,0,0,1,.544.133,1,1,0,0,1,.324.533c.081.255.168.51.255.764v.006l.539,1.627c.168.51.33,1.013.5,1.517l.556,1.685c.174.515.342,1.031.515,1.546.162.492.33.984.492,1.471a.043.043,0,0,1,.006.023c.2.6.4,1.2.608,1.8.133.4.266.793.4,1.187a.021.021,0,0,1,.006.017c.1.318.214.631.319.95C369.924,251.651,369.75,251.749,369.276,251.709Z" transform="translate(-313.588 -204.904)" fill="#8ea336"/>
        </g>
        <g id="Grupo_85744" data-name="Grupo 85744" transform="translate(24.929)">
          <g id="Grupo_85743" data-name="Grupo 85743">
            <path id="Trazado_121866" data-name="Trazado 121866" d="M370.49,201.443a5.345,5.345,0,0,0-.55.521,3.138,3.138,0,0,0-.932,2.345c.006.133.012.272.029.417H368.1c-.718-.006-1.436-.006-2.154-.006h-5.16a3.538,3.538,0,0,0,.029-.423,3.265,3.265,0,0,0-1.338-2.675,8.176,8.176,0,0,1,2.218-13.632,8.571,8.571,0,0,1,2.218-.51,10.649,10.649,0,0,1,1.477-.046,8.083,8.083,0,0,1,5.1,14.008Z" transform="translate(-356.636 -187.427)" fill="#f4d32c"/>
            <path id="Trazado_121867" data-name="Trazado 121867" d="M368,209.742c0-2.057.01-4.115.009-6.171,0-.795.131-1.586-.828-2.083-.5-.258-.312-.963-.214-1.469.107-.554.6-.532,1.033-.536.574-.006,1.15-.023,1.722,0,.449.019,1.082-.181,1.193.468.1.57.353,1.326-.331,1.693-.636.342-.518.852-.521,1.35-.012,2.248,0,4.5,0,6.745Z" transform="translate(-360.934 -192.496)" fill="#fcfcf2"/>
          </g>
          <path id="Trazado_121868" data-name="Trazado 121868" d="M367.525,218.263c-.825,0-1.651-.02-2.474,0-1.014.03-1.815.084-1.844-.975-.03-1.124.822-1.1,1.927-1.08,1.786.026,3.575.04,5.36,0,1.056-.025,1.572.1,1.6.988.028.957-.505,1.144-1.683,1.076C369.454,218.219,368.487,218.263,367.525,218.263Z" transform="translate(-359.402 -199.541)" fill="#f9f9f9"/>
          <path id="Trazado_121869" data-name="Trazado 121869" d="M368.215,223.925c-.655,0-1.311-.02-1.965,0-.806.03-1.441.084-1.465-.975-.024-1.124.653-1.1,1.531-1.08,1.418.026,2.839.041,4.257,0,.839-.025,1.249.1,1.27.989.022.956-.4,1.144-1.337,1.075C369.748,223.881,368.979,223.925,368.215,223.925Z" transform="translate(-360.066 -201.924)" fill="#f9f9f9"/>
          <path id="Trazado_121870" data-name="Trazado 121870" d="M368.695,228.617c-.537,0-1.075-.017-1.611,0-.661.025-1.183.069-1.2-.8-.02-.922.535-.9,1.255-.885,1.163.021,2.328.033,3.491,0,.688-.02,1.024.083,1.041.811.018.784-.329.938-1.1.882C369.951,228.581,369.321,228.618,368.695,228.617Z" transform="translate(-360.528 -204.055)" fill="#f9f9f9"/>
        </g>
        <g id="Grupo_85747" data-name="Grupo 85747" transform="translate(0 24.179)">
          <g id="Grupo_85745" data-name="Grupo 85745" transform="translate(30.641 8.897)">
            <path id="Trazado_121871" data-name="Trazado 121871" d="M389.747,269.533c-.007,2.059-.011,4.119-.024,6.178,0,.323.12.713-.465.717s-.48-.371-.481-.7q0-3.09.007-6.18C389.1,269.387,389.422,269.258,389.747,269.533Z" transform="translate(-375.874 -254.994)" fill="#2c2c2c"/>
            <path id="Trazado_121872" data-name="Trazado 121872" d="M367.033,258.4c-.48.042-.645-.058-.457-.609q2.134-6.282,4.2-12.587c.153-.467.338-.665.872-.663q8.248.035,16.5,0c.533,0,.717.2.871.664q2.072,6.3,4.2,12.587c.188.554.019.649-.458.608a2.159,2.159,0,0,1-1.154.227H368.186A2.158,2.158,0,0,1,367.033,258.4Z" transform="translate(-366.5 -244.543)" fill="#2c2c2c"/>
            <path id="Trazado_121873" data-name="Trazado 121873" d="M368.078,269.479h24.411c.4-.1.651-.355.652-1H367.42C367.422,269.125,367.674,269.382,368.078,269.479Z" transform="translate(-366.887 -254.616)" fill="#c6ebe9"/>
            <path id="Trazado_121874" data-name="Trazado 121874" d="M403.834,265.076c-.622,0-1.246-.024-1.868.008-.508.025-.748-.107-.818-.676-.178-1.447-.211-1.443,1.28-1.443.9,0,1.794.025,2.689-.01a.726.726,0,0,1,.845.6c.5,1.525.518,1.518-1.082,1.517Z" transform="translate(-381.047 -252.292)" fill="#c6ebe9"/>
            <path id="Trazado_121875" data-name="Trazado 121875" d="M371.567,265.075c-.673,0-1.346-.014-2.018.005-.423.012-.576-.063-.428-.547.478-1.563.458-1.569,2.088-1.569.872,0,1.745.025,2.615-.011.524-.022.664.183.568.658-.354,1.749.074,1.429-1.63,1.463C372.364,265.082,371.965,265.075,371.567,265.075Z" transform="translate(-367.58 -252.291)" fill="#c6ebe9"/>
            <path id="Trazado_121876" data-name="Trazado 121876" d="M393.085,265.073c-.67,0-1.341-.013-2.01.005-.385.011-.5-.144-.527-.522-.093-1.592-.1-1.591,1.465-1.591.918,0,1.838.024,2.754-.01.462-.017.673.14.736.6.241,1.764.506,1.51-1.227,1.525-.4,0-.794,0-1.191,0Z" transform="translate(-376.607 -252.292)" fill="#c6ebe9"/>
            <path id="Trazado_121877" data-name="Trazado 121877" d="M382.3,265.083c-.645,0-1.291,0-1.936,0-.145,0-.376.01-.42-.068-.3-.532.072-1.044.1-1.571.012-.248.092-.477.441-.473,1.34.012,2.68.009,4.02,0,.317,0,.459.133.442.445,0,.049,0,.1,0,.149-.025,1.849.23,1.472-1.456,1.516C383.094,265.092,382.7,265.082,382.3,265.083Z" transform="translate(-372.11 -252.298)" fill="#c6ebe9"/>
            <path id="Trazado_121878" data-name="Trazado 121878" d="M373.166,259.534c-.622,0-1.244.005-1.865,0-.341,0-.531-.133-.352-.508a1.455,1.455,0,0,0,.045-.142c.658-1.81.194-1.446,2.009-1.481.722-.014,1.444-.007,2.165,0,.169,0,.465.009.486.079a4.127,4.127,0,0,1-.163,1.666c-.034.346-.283.381-.534.387-.6.013-1.194,0-1.791,0Z" transform="translate(-368.343 -249.951)" fill="#c6ebe9"/>
            <path id="Trazado_121879" data-name="Trazado 121879" d="M402.59,259.556c-.249,0-.5,0-.747,0-1.988-.01-1.448.086-1.841-1.621-.086-.374.017-.553.44-.547,1.1.017,2.191.022,3.285-.005.46-.011.583.258.707.61.548,1.564.554,1.562-1.1,1.563Z" transform="translate(-380.589 -249.947)" fill="#c6ebe9"/>
            <path id="Trazado_121880" data-name="Trazado 121880" d="M392.906,259.556c-.572,0-1.143-.013-1.714,0-.429.013-.629-.127-.619-.6.043-1.933-.229-1.525,1.487-1.566.719-.017,1.441.021,2.16-.011.479-.021.69.112.779.631.263,1.546.292,1.541-1.273,1.541Z" transform="translate(-376.632 -249.947)" fill="#c6ebe9"/>
            <path id="Trazado_121881" data-name="Trazado 121881" d="M383.022,259.557c-.571,0-1.143,0-1.714,0-.17,0-.442.062-.484-.092a4.336,4.336,0,0,1,.167-1.738c.054-.394.374-.329.639-.331,1.043,0,2.087.014,3.129-.01.457-.01.605.158.594.608-.046,1.833.24,1.529-1.511,1.563C383.568,259.562,383.3,259.557,383.022,259.557Z" transform="translate(-372.508 -249.948)" fill="#c6ebe9"/>
            <path id="Trazado_121882" data-name="Trazado 121882" d="M374.734,254.028c-.174,0-.35.013-.522,0-.485-.045-1.282.214-1.39-.119-.176-.537.277-1.159.456-1.748.089-.292.35-.234.563-.236.92-.006,1.84.009,2.759-.009.391-.008.5.09.445.513-.2,1.6-.183,1.6-1.789,1.6Z" transform="translate(-369.144 -247.645)" fill="#c6ebe9"/>
            <path id="Trazado_121883" data-name="Trazado 121883" d="M401.364,254.032h-.522c-1.679,0-1.667,0-1.762-1.72-.018-.322.085-.391.36-.39q1.491.008,2.983,0a.481.481,0,0,1,.5.347c.779,1.736.767,1.762-1.106,1.76Z" transform="translate(-380.212 -247.649)" fill="#c6ebe9"/>
            <path id="Trazado_121884" data-name="Trazado 121884" d="M383.676,254.031c-.5,0-.993,0-1.49,0-.146,0-.39.011-.421-.059-.252-.563.1-1.091.138-1.643.016-.257.118-.406.412-.4q1.49.013,2.98,0c.326,0,.406.149.434.449.156,1.659.162,1.661-1.458,1.661Z" transform="translate(-372.887 -247.648)" fill="#c6ebe9"/>
            <path id="Trazado_121885" data-name="Trazado 121885" d="M390.651,253.85a4.565,4.565,0,0,1-.053-1.693c.011-.279.278-.232.467-.233.944,0,1.888.013,2.831-.005.357-.008.44.158.515.47.395,1.647.406,1.645-1.261,1.641C392.977,254.03,390.8,254.251,390.651,253.85Z" transform="translate(-376.62 -247.647)" fill="#c6ebe9"/>
            <path id="Trazado_121886" data-name="Trazado 121886" d="M376.227,248.558h-.149c-1.707,0-1.839-.248-1.007-1.826a.454.454,0,0,1,.459-.286c.795,0,1.589,0,2.384,0,.118,0,.32.022.34.082.188.569-.093,1.1-.151,1.659-.041.391-.329.368-.609.365C377.072,248.555,376.649,248.557,376.227,248.558Z" transform="translate(-369.898 -245.344)" fill="#c6ebe9"/>
            <path id="Trazado_121887" data-name="Trazado 121887" d="M400.177,248.558H399.8c-1.376,0-1.656-.3-1.64-1.718,0-.295.122-.4.4-.394.819,0,1.639.009,2.458,0,.287,0,.367.173.461.391.741,1.724.744,1.723-1.079,1.723Z" transform="translate(-379.827 -245.343)" fill="#c6ebe9"/>
            <path id="Trazado_121888" data-name="Trazado 121888" d="M384.375,248.554h-.224c-1.605,0-1.592,0-1.349-1.577.061-.4.206-.556.616-.541.744.025,1.489.016,2.234,0,.335,0,.523.107.5.467a.642.642,0,0,0,0,.075C386.247,248.554,386.247,248.554,384.375,248.554Z" transform="translate(-373.311 -245.339)" fill="#c6ebe9"/>
            <path id="Trazado_121889" data-name="Trazado 121889" d="M392.263,248.56h-.3c-1.571,0-1.627-.076-1.443-1.683.036-.317.159-.432.463-.429.793.008,1.586.007,2.379,0a.422.422,0,0,1,.484.436.64.64,0,0,0,.012.073C394.184,248.56,394.184,248.56,392.263,248.56Z" transform="translate(-376.581 -245.344)" fill="#c6ebe9"/>
          </g>
          <g id="Grupo_85746" data-name="Grupo 85746">
            <path id="Trazado_121890" data-name="Trazado 121890" d="M342.141,259.705v.394c-.006,1.714-.012,3.422-.017,5.137,0,.255,0,.51-.006.764,0,.417-.006.834-.006,1.251a.561.561,0,0,0,.006.1c-.006.006,0,.006,0,.006.012.371.081.764-.573.77-.712.006-.591-.452-.591-.857v-1.94q0-2.615.006-5.229v-.382C341.354,259.526,341.742,259.364,342.141,259.705Z" transform="translate(-325.103 -241.944)" fill="#2c2c2c"/>
            <path id="Trazado_121891" data-name="Trazado 121891" d="M346.054,246.119c-.064,0-.139-.006-.22-.012a2.234,2.234,0,0,1-1.118.272.894.894,0,0,1-.127.006H315.663a2.672,2.672,0,0,1-1.419-.278c-.591.052-.793-.07-.562-.741q2.172-6.359,4.291-12.752l.869-2.623a.95.95,0,0,1,1.066-.811q9.842.043,19.672,0h.591a.959.959,0,0,1,1.071.811q2.215,6.706,4.476,13.383c.208.625.423,1.245.631,1.865.017.041.029.087.046.127C346.592,245.951,346.471,246.119,346.054,246.119Z" transform="translate(-313.588 -229.18)" fill="#2c2c2c"/>
            <path id="Trazado_121892" data-name="Trazado 121892" d="M346.31,258.41c0,.793-.307,1.106-.8,1.228h-29.98a1.161,1.161,0,0,1-.336-.133,1.147,1.147,0,0,1-.475-1.094Z" transform="translate(-314.065 -241.483)" fill="#c6ebe9"/>
            <path id="Trazado_121893" data-name="Trazado 121893" d="M359.442,254.26c-.765,0-1.531-.028-2.294.009-.624.031-.918-.13-1-.826-.218-1.767-.26-1.762,1.572-1.762,1.1,0,2.2.03,3.3-.013a.89.89,0,0,1,1.037.738c.609,1.862.636,1.853-1.329,1.853Z" transform="translate(-331.456 -238.645)" fill="#c6ebe9"/>
            <path id="Trazado_121894" data-name="Trazado 121894" d="M319.815,254.259c-.826,0-1.653-.017-2.478.006-.519.014-.708-.078-.526-.668.587-1.909.563-1.917,2.564-1.917,1.071,0,2.143.031,3.212-.014.643-.027.816.224.7.8-.435,2.136.091,1.745-2,1.786C320.794,254.267,320.3,254.259,319.815,254.259Z" transform="translate(-314.916 -238.644)" fill="#c6ebe9"/>
            <path id="Trazado_121895" data-name="Trazado 121895" d="M346.242,254.257c-.823,0-1.646-.016-2.469.006-.473.013-.62-.176-.647-.638-.115-1.945-.129-1.943,1.8-1.943,1.128,0,2.256.028,3.382-.013.568-.021.827.171.9.728.3,2.155.621,1.844-1.507,1.862-.488,0-.975,0-1.463,0Z" transform="translate(-326.003 -238.645)" fill="#c6ebe9"/>
            <path id="Trazado_121896" data-name="Trazado 121896" d="M333,254.268c-.793,0-1.585.005-2.377,0-.178,0-.462.012-.516-.083-.367-.649.089-1.274.121-1.918.015-.3.112-.582.542-.579,1.645.015,3.291.011,4.937,0,.389,0,.563.163.543.544,0,.06,0,.121,0,.182-.031,2.258.283,1.8-1.788,1.852C333.971,254.278,333.483,254.268,333,254.268Z" transform="translate(-320.479 -238.652)" fill="#c6ebe9"/>
            <path id="Trazado_121897" data-name="Trazado 121897" d="M321.778,247.491c-.763,0-1.527.006-2.291,0-.418-.005-.651-.163-.431-.621.026-.054.034-.117.054-.174.808-2.212.238-1.766,2.467-1.809.887-.017,1.773-.009,2.659,0,.208,0,.572.011.6.1a5.023,5.023,0,0,1-.2,2.034c-.043.422-.348.466-.656.473-.733.016-1.466,0-2.2,0Z" transform="translate(-315.854 -235.786)" fill="#c6ebe9"/>
            <path id="Trazado_121898" data-name="Trazado 121898" d="M357.915,247.518c-.306,0-.612,0-.917,0-2.441-.012-1.778.105-2.261-1.979-.105-.457.021-.675.54-.667,1.345.021,2.69.026,4.035-.006.565-.014.716.316.867.745.674,1.909.68,1.908-1.346,1.908Z" transform="translate(-330.893 -235.782)" fill="#c6ebe9"/>
            <path id="Trazado_121899" data-name="Trazado 121899" d="M346.022,247.518c-.7,0-1.4-.017-2.1,0-.527.016-.773-.155-.76-.729.053-2.361-.281-1.862,1.825-1.913.884-.021,1.77.025,2.653-.013.588-.026.848.136.956.77.324,1.888.36,1.882-1.564,1.882Z" transform="translate(-326.034 -235.782)" fill="#c6ebe9"/>
            <path id="Trazado_121900" data-name="Trazado 121900" d="M333.883,247.52c-.7,0-1.4,0-2.1,0-.209,0-.543.076-.594-.112a5.275,5.275,0,0,1,.206-2.123c.066-.481.459-.4.784-.4,1.281,0,2.562.017,3.842-.012.562-.013.743.192.729.742-.056,2.239.295,1.867-1.856,1.909C334.554,247.525,334.219,247.52,333.883,247.52Z" transform="translate(-320.968 -235.783)" fill="#c6ebe9"/>
            <path id="Trazado_121901" data-name="Trazado 121901" d="M323.7,240.767c-.214,0-.429.016-.641,0-.6-.055-1.575.261-1.708-.145-.216-.655.34-1.415.561-2.134.109-.357.429-.286.691-.288,1.129-.008,2.26.011,3.389-.012.481-.009.612.11.546.627-.249,1.952-.225,1.956-2.2,1.956Z" transform="translate(-316.837 -232.97)" fill="#c6ebe9"/>
            <path id="Trazado_121902" data-name="Trazado 121902" d="M356.408,240.771h-.641c-2.062,0-2.047,0-2.164-2.1-.022-.393.1-.478.441-.476q1.832.01,3.664,0a.59.59,0,0,1,.608.423c.957,2.121.943,2.152-1.358,2.15Z" transform="translate(-330.43 -232.974)" fill="#c6ebe9"/>
            <path id="Trazado_121903" data-name="Trazado 121903" d="M334.686,240.77c-.61,0-1.22,0-1.83,0-.179,0-.479.013-.517-.071-.31-.688.127-1.333.17-2.006.02-.314.145-.5.506-.493q1.83.016,3.66,0c.4,0,.5.182.533.55.192,2.026.2,2.028-1.789,2.028Z" transform="translate(-321.434 -232.973)" fill="#c6ebe9"/>
            <path id="Trazado_121904" data-name="Trazado 121904" d="M343.252,240.55a5.543,5.543,0,0,1-.065-2.068c.013-.34.341-.284.573-.284,1.159-.005,2.319.016,3.478-.007.438-.009.54.192.632.574.486,2.011.5,2.008-1.548,2C346.108,240.77,343.434,241.04,343.252,240.55Z" transform="translate(-326.019 -232.973)" fill="#c6ebe9"/>
            <path id="Trazado_121905" data-name="Trazado 121905" d="M325.538,234.087h-.183c-2.1,0-2.258-.3-1.236-2.231a.557.557,0,0,1,.564-.349c.976.005,1.952,0,2.927.006.145,0,.393.027.417.1.231.695-.114,1.349-.185,2.026-.051.477-.4.449-.748.446C326.575,234.083,326.056,234.086,325.538,234.087Z" transform="translate(-317.763 -230.16)" fill="#c6ebe9"/>
            <path id="Trazado_121906" data-name="Trazado 121906" d="M354.95,234.086h-.457c-1.69,0-2.033-.368-2.014-2.1,0-.36.15-.483.486-.481,1.006.006,2.013.011,3.019,0,.352,0,.451.211.566.477.91,2.106.913,2.1-1.326,2.1Z" transform="translate(-329.957 -230.159)" fill="#c6ebe9"/>
            <path id="Trazado_121907" data-name="Trazado 121907" d="M335.545,234.082h-.275c-1.971,0-1.954,0-1.657-1.927.075-.487.253-.679.756-.662.914.032,1.829.02,2.744.006.412-.006.643.13.609.57a.675.675,0,0,0,0,.091C337.843,234.082,337.843,234.082,335.545,234.082Z" transform="translate(-321.955 -230.153)" fill="#c6ebe9"/>
            <path id="Trazado_121908" data-name="Trazado 121908" d="M345.233,234.089h-.365c-1.929,0-2-.093-1.771-2.056.045-.388.2-.528.568-.524q1.461.014,2.922,0a.518.518,0,0,1,.594.533c0,.03.009.06.015.089C347.59,234.089,347.59,234.089,345.233,234.089Z" transform="translate(-325.97 -230.16)" fill="#c6ebe9"/>
          </g>
          <path id="Trazado_121909" data-name="Trazado 121909" d="M354.7,277.061a4.889,4.889,0,0,1-4.331.708,9.357,9.357,0,0,0-4.253-.006c-1.886.316-3.2,1.624-5.349,1.221a4.873,4.873,0,0,0-2.205-.126,6.179,6.179,0,0,1-2.8.225c-1.542-.361-3.141-1.731-2.874-3.45.3-1.908,1.852-1.921,3.11-2.789,1.335-.922,1.819-2.843,3.534-3.509a3.587,3.587,0,0,1,4.691,2.527c1.031-4.124,6.511-4.263,8.58-1.091.775,1.188,2.355,1.34,2.971,2.714A3.058,3.058,0,0,1,354.7,277.061Z" transform="translate(-321.698 -245.755)" fill="#54733d"/>
          <path id="Trazado_121910" data-name="Trazado 121910" d="M385.49,280.854a16.762,16.762,0,0,1-2.183-.307c-.945-.019-1.207.419-1.928.637a5.243,5.243,0,0,1-2.023.024c-1.159,0-2.186.6-3.109-.6a2,2,0,0,1,.482-2.955c.93,0,1.2-1.575,1.792-2.049,1.2-.962,2.6-.33,2.881,1.244a2.2,2.2,0,0,1,1.871-2.062c1.29-.206,1.643.563,2.375,1.394.55.624,1.569,1.467,1.654,2.391A2.1,2.1,0,0,1,385.49,280.854Z" transform="translate(-339.775 -248.361)" fill="#54733d"/>
        </g>
      </g>
      <g id="Grupo_85751" data-name="Grupo 85751" transform="translate(44.935 76.88)">
        <g id="Grupo_85749" data-name="Grupo 85749" transform="translate(22.691 1.171)">
          <path id="Trazado_121911" data-name="Trazado 121911" d="M335.081,199.808c0,.122,0,.243-.012.359a2.54,2.54,0,0,1-2.6,2.444c-1.772.058-3.55.017-5.322.017-1.575,0-3.144.006-4.72-.006a2.883,2.883,0,0,1-2.728-1.39c.29-.168.579-.336.874-.5a3.088,3.088,0,0,1-.909-2.594,2.974,2.974,0,0,1,3.069-1.291c.724.11.927-.07,1.344-.666a4.031,4.031,0,0,1,6.1-.973,5.746,5.746,0,0,1,1.17,1.332,1.281,1.281,0,0,0,1.176.764C334.264,197.364,335.063,198.169,335.081,199.808Z" transform="translate(-208.279 -127.439)" fill="#8ea336"/>
          <path id="Trazado_121912" data-name="Trazado 121912" d="M138.143,219.8c-2.172,0-4.344.01-6.515,0-2.883-.016-4.461-1.74-4.289-4.664.126-2.135,2.206-3.689,4.71-3.307,1,.153,1.283-.1,1.86-.924,2.575-3.686,7.315-3.7,10.033.5a1.771,1.771,0,0,0,1.623,1.057c2.407.08,3.506,1.188,3.535,3.451a3.564,3.564,0,0,1-3.607,3.876C143.045,219.857,140.593,219.8,138.143,219.8Z" transform="translate(-127.325 -133.318)" fill="#3c4f2c"/>
          <path id="Trazado_121913" data-name="Trazado 121913" d="M161.1,304.613c-1.493,0-2.986.007-4.479,0a2.726,2.726,0,0,1-2.949-3.207,2.651,2.651,0,0,1,3.238-2.273c.69.1.882-.068,1.278-.635,1.77-2.534,5.029-2.546,6.9.34a1.218,1.218,0,0,0,1.116.727c1.654.055,2.41.817,2.43,2.372a2.449,2.449,0,0,1-2.48,2.664C164.474,304.654,162.788,304.613,161.1,304.613Z" transform="translate(-138.412 -170.545)" fill="#8ea336"/>
          <path id="Trazado_121914" data-name="Trazado 121914" d="M405.824,223.361a4.076,4.076,0,0,1-.052.759,3.513,3.513,0,0,1-3.208,1.946c-2.45.075-4.9.017-7.349.017-2.172,0-4.349.012-6.521,0a1.408,1.408,0,0,1-.22-.012c.226.394.446.788.672,1.181-.266.006-.527,0-.793,0-2.884-.017-4.459-1.743-4.291-4.668a3.359,3.359,0,0,1,1.118-2.3,4.279,4.279,0,0,1,3.6-1c1,.156,1.28-.1,1.859-.921,2.577-3.689,7.314-3.706,10.036.492a1.761,1.761,0,0,0,1.621,1.06C404.694,219.99,405.795,221.1,405.824,223.361Z" transform="translate(-235.381 -136.456)" fill="#8ea336"/>
          <path id="Trazado_121915" data-name="Trazado 121915" d="M186.27,116.87c-1.573,0-3.146.008-4.719,0a2.872,2.872,0,0,1-3.107-3.378,2.793,2.793,0,0,1,3.411-2.4c.727.111.93-.071,1.347-.669,1.865-2.67,5.3-2.682,7.267.358a1.284,1.284,0,0,0,1.176.766c1.743.057,2.539.86,2.561,2.5a2.581,2.581,0,0,1-2.613,2.807C189.821,116.914,188.045,116.87,186.27,116.87Z" transform="translate(-148.837 -91.344)" fill="#8ea336"/>
          <path id="Trazado_121916" data-name="Trazado 121916" d="M187.77,309.663c-1.493,0-2.986.008-4.479,0a2.725,2.725,0,0,1-2.949-3.206,2.651,2.651,0,0,1,3.238-2.274c.69.1.882-.068,1.278-.635,1.77-2.534,5.029-2.546,6.9.34a1.217,1.217,0,0,0,1.116.727c1.654.055,2.41.817,2.43,2.373a2.45,2.45,0,0,1-2.48,2.664C191.14,309.7,189.454,309.663,187.77,309.663Z" transform="translate(-149.636 -172.671)" fill="#8ea336"/>
          <path id="Trazado_121917" data-name="Trazado 121917" d="M261.945,105.922c-2.172,0-4.344.01-6.516,0-2.883-.016-4.461-1.74-4.289-4.664.125-2.135,2.206-3.689,4.71-3.307,1,.153,1.283-.1,1.859-.924,2.575-3.686,7.315-3.7,10.033.5a1.771,1.771,0,0,0,1.623,1.057c2.407.079,3.506,1.188,3.535,3.45a3.563,3.563,0,0,1-3.607,3.876C266.847,105.983,264.395,105.922,261.945,105.922Z" transform="translate(-179.434 -85.389)" fill="#3c4f2c"/>
          <path id="Trazado_121918" data-name="Trazado 121918" d="M303.867,84.489c0,.122-.006.237-.012.353a2.546,2.546,0,0,1-2.258,1.286l-.66.017.625,1.129c-.1.012-.2.017-.307.023-1.772.058-3.55.012-5.328.012-1.569,0-3.145.006-4.72,0a2.872,2.872,0,0,1-3.1-3.376,2.45,2.45,0,0,1,.336-1.1,2.971,2.971,0,0,1,3.075-1.3c.73.11.932-.069,1.349-.672a4.779,4.779,0,0,1,1.61-1.477c1.847-1.013,4.17-.457,5.658,1.836a1.281,1.281,0,0,0,1.176.77C303.05,82.045,303.844,82.85,303.867,84.489Z" transform="translate(-194.993 -78.902)" fill="#3c4f2c"/>
        </g>
        <g id="Grupo_85750" data-name="Grupo 85750">
          <path id="Trazado_121919" data-name="Trazado 121919" d="M335.428,197.783a3.086,3.086,0,0,1-.359,1.535,2.552,2.552,0,0,1-2.253,1.274c-1.778.058-3.55.012-5.328.017-1.569,0-3.144.006-4.72-.006a3.266,3.266,0,0,1-2.195-.718,3.088,3.088,0,0,1-.909-2.594v-.064a2.8,2.8,0,0,1,3.411-2.4c.73.11.932-.07,1.349-.666a4.073,4.073,0,0,1,6.723-.359,5.841,5.841,0,0,1,.544.718,1.275,1.275,0,0,0,1.176.764C334.612,195.345,335.405,196.144,335.428,197.783Z" transform="translate(-185.588 -125.419)" fill="#c6ebe9"/>
          <path id="Trazado_121920" data-name="Trazado 121920" d="M98.96,169.033c-2.172,0-4.344.01-6.515,0-2.883-.016-4.461-1.74-4.289-4.664.126-2.135,2.206-3.689,4.71-3.307,1,.153,1.283-.1,1.86-.924,2.575-3.686,7.315-3.7,10.033.5a1.771,1.771,0,0,0,1.623,1.057c2.406.079,3.506,1.188,3.535,3.45a3.564,3.564,0,0,1-3.607,3.876C103.862,169.094,101.41,169.033,98.96,169.033Z" transform="translate(-88.142 -110.781)" fill="#c6ebe9"/>
          <path id="Trazado_121921" data-name="Trazado 121921" d="M138.737,217.775c-2.172,0-4.344.01-6.515,0-2.883-.016-4.461-1.74-4.289-4.665.125-2.135,2.206-3.688,4.71-3.307,1,.153,1.284-.1,1.86-.923,2.575-3.686,7.315-3.7,10.033.5a1.771,1.771,0,0,0,1.623,1.057c2.407.08,3.506,1.188,3.535,3.451a3.564,3.564,0,0,1-3.607,3.876C143.64,217.836,141.188,217.775,138.737,217.775Z" transform="translate(-104.885 -131.297)" fill="#c6ebe9"/>
          <path id="Trazado_121922" data-name="Trazado 121922" d="M161.7,302.592c-1.493,0-2.986.007-4.479,0a2.726,2.726,0,0,1-2.949-3.207,2.651,2.651,0,0,1,3.238-2.273c.69.1.882-.068,1.278-.635,1.77-2.534,5.029-2.546,6.9.341a1.218,1.218,0,0,0,1.116.727c1.654.055,2.41.817,2.43,2.372a2.449,2.449,0,0,1-2.48,2.664C165.068,302.633,163.382,302.592,161.7,302.592Z" transform="translate(-115.972 -168.523)" fill="#c6ebe9"/>
          <path id="Trazado_121923" data-name="Trazado 121923" d="M406.423,221.341a4.2,4.2,0,0,1-.4,1.928,3.513,3.513,0,0,1-3.208,1.946c-2.45.075-4.9.017-7.349.017-2.172,0-4.349.012-6.521,0a1.4,1.4,0,0,1-.22-.012c-2.739-.1-4.233-1.807-4.065-4.656a1.515,1.515,0,0,1,.017-.162,3.2,3.2,0,0,1,.492-1.425,4.118,4.118,0,0,1,4.2-1.72c1,.151,1.286-.1,1.859-.921,2.577-3.689,7.314-3.706,10.036.492a1.783,1.783,0,0,0,1.621,1.06C405.294,217.964,406.394,219.076,406.423,221.341Z" transform="translate(-212.942 -134.435)" fill="#c6ebe9"/>
          <path id="Trazado_121924" data-name="Trazado 121924" d="M186.864,114.849c-1.573,0-3.146.008-4.719,0a2.871,2.871,0,0,1-3.107-3.378,2.793,2.793,0,0,1,3.412-2.4c.727.111.929-.071,1.346-.669,1.865-2.67,5.3-2.682,7.268.358a1.282,1.282,0,0,0,1.176.766c1.743.057,2.539.86,2.561,2.5a2.581,2.581,0,0,1-2.613,2.807C190.415,114.893,188.639,114.849,186.864,114.849Z" transform="translate(-126.397 -89.322)" fill="#c6ebe9"/>
          <path id="Trazado_121925" data-name="Trazado 121925" d="M188.364,307.642c-1.493,0-2.986.008-4.479,0a2.726,2.726,0,0,1-2.949-3.206,2.651,2.651,0,0,1,3.238-2.274c.69.1.882-.068,1.278-.635,1.77-2.534,5.029-2.546,6.9.34a1.218,1.218,0,0,0,1.116.727c1.654.055,2.411.817,2.43,2.373a2.45,2.45,0,0,1-2.48,2.664C191.734,307.684,190.048,307.642,188.364,307.642Z" transform="translate(-127.195 -170.649)" fill="#c6ebe9"/>
          <path id="Trazado_121926" data-name="Trazado 121926" d="M262.539,103.9c-2.172,0-4.344.01-6.516,0-2.883-.016-4.461-1.74-4.289-4.664.125-2.135,2.206-3.689,4.71-3.307,1,.153,1.283-.1,1.859-.924,2.575-3.686,7.315-3.7,10.033.5a1.77,1.77,0,0,0,1.623,1.057c2.407.08,3.506,1.188,3.535,3.451a3.563,3.563,0,0,1-3.607,3.876C267.441,103.962,264.989,103.9,262.539,103.9Z" transform="translate(-156.993 -83.367)" fill="#c6ebe9"/>
          <path id="Trazado_121927" data-name="Trazado 121927" d="M304.456,82.468a3.052,3.052,0,0,1-.353,1.523,2.546,2.546,0,0,1-2.258,1.286l-.66.017c-1.552.029-3.11-.006-4.662-.006-1.575,0-3.15.006-4.72,0a2.867,2.867,0,0,1-3.116-3.307.328.328,0,0,0,.006-.075,2.79,2.79,0,0,1,3.411-2.392c.73.11.932-.075,1.349-.672a5.54,5.54,0,0,1,.481-.6c1.934-2.056,4.98-1.836,6.787.956a1.272,1.272,0,0,0,1.176.764C303.639,80.024,304.438,80.829,304.456,82.468Z" transform="translate(-172.55 -76.88)" fill="#c6ebe9"/>
        </g>
      </g>
      <path id="Trazado_121928" data-name="Trazado 121928" d="M343.505,353.248q.89.069,1.78.152a1.783,1.783,0,0,0-.189-.113A1.943,1.943,0,0,0,343.505,353.248Z" transform="translate(-150.69 -116.26)" fill="#3c4f2c"/>
      <path id="Trazado_121929" data-name="Trazado 121929" d="M313.985,355.525c-.459-.034-1.048.8-1.217,1.1h2.3c0-.021,0-.04-.006-.065A1.175,1.175,0,0,0,313.985,355.525Z" transform="translate(-137.753 -117.282)" fill="#3c4f2c"/>
      <path id="Trazado_121930" data-name="Trazado 121930" d="M336.383,349.528c0-.207,0-.413,0-.62h0c.01-.016.024-.03.036-.045C336.4,349.085,336.394,349.307,336.383,349.528Z" transform="translate(-147.691 -114.478)" fill="#3c4f2c"/>
      <g id="Grupo_85761" data-name="Grupo 85761" transform="translate(159.95 209.477)">
        <path id="Trazado_121931" data-name="Trazado 121931" d="M332.695,322.668c-.177-2.179.944-.8.611-2.378-.152-.723-3.373-6.832-3.856-6.795-.6.046-2.563,4.5-2.942,5.179-2.116-3.223-1.94-7.366-5.6-9.331a7.413,7.413,0,0,0-9.85,3.043c-.979,1.707-1.7,7.748-4.011,3.454-.4-.749.683-2.232-.22-2.983-1.064-.884-1.7.188-1.786,1.229-1.826-1.09-.6-4.5-3.018-5.923-3.114-1.832-3.622.88-5.974,1.665-1.194.4-1.828-1.094-3.328-.239-.869.5-.856,1.914-1.431,2.3-1.136.771-2.708.626-3.626,2.25-.948,1.678.034,3.377-.221,4.967-.61,3.816-1.782,4.949,1.736,7.635,1.194.913,3.3,1.677,4.2,3.193,1.144,1.924.775,1.875,2.466,2.871-.149,3.179-.436,3.245,2.383,3.39q-.078-1.787-.155-3.574c2.443.335.321-1.77,2.295-2.23,1.253-.292,5.014,4.44,4.9,4.538-.155,1.35-.066,2.152,1.608,1.539.019-.007-.052-1.521-.032-1.543.167-.187.424-.45.724-.762a28.193,28.193,0,0,1,.262-3.672c.326-2.135,1.486-3.911,1.869-5.994.672-3.666,6.253-2.1,5.584,1.54-.337,1.837-1.412,3.385-1.741,5.226-.049.275-.085.551-.115.829a5.521,5.521,0,0,0,.276.485c-.4-.629,1.936,1.07,1.957,1.088q0,1.257,0,2.514,1.824.061,3.645.2-.094-2.552-.186-5.1c1.987,1.257,4.569-.583,2.837,2.55l4.4,0c-.017,5.6-.352,1.144-2.758,2.969,1.687.191,6.306,1.4,7.2.465.23-.239-.508-2.411-.56-3.429-3.085,0-.441,1.655-2.464,2.864-1.689,1.009-1-1.806-1-2.868,3.495,0,3.011.362,4.661-2.457a21.746,21.746,0,0,0,1.93-3.765l1.026-1.85Q333.538,324.212,332.695,322.668Z" transform="translate(-286.753 -306.562)" fill="#3c4f2c"/>
        <g id="Grupo_85760" data-name="Grupo 85760" transform="translate(0.304)">
          <g id="Grupo_85756" data-name="Grupo 85756">
            <g id="Grupo_85752" data-name="Grupo 85752" transform="translate(19.842 0.881)">
              <path id="Trazado_121932" data-name="Trazado 121932" d="M341.93,348.109c0-.152,0-.326-.013-.552q-.2-5.068-.4-10.136c-.87-.108-1.74-.234-2.6-.415,0,.324,0,.649-.014.973-.152,3.1-.333,6.193-.474,9.291-.016.356-.026.628-.016.839Z" transform="translate(-328.64 -319.845)" fill="#925224"/>
              <path id="Trazado_121933" data-name="Trazado 121933" d="M341.153,315.321c-.808-1.729-.625-2.227-1.433-3.827a7.461,7.461,0,0,0-3.374-3.354,7.759,7.759,0,0,0-8.9,1.56,7.894,7.894,0,0,0-2.016,4.108c-.4,2.013-.519,1.72-1.953,3.172a6.707,6.707,0,0,0-.767,8.491c1.683,2.458,6.053-1.234,9.9,1.356,1.013.683,1.533,1.448,3.032,1.921a7.214,7.214,0,0,0,4.471-.084c3.5-1.312,5.535-5.812,4.555-8.688C344.017,318.077,342.522,318.252,341.153,315.321Z" transform="translate(-321.542 -307.372)" fill="#9fb942"/>
            </g>
            <g id="Grupo_85753" data-name="Grupo 85753">
              <path id="Trazado_121934" data-name="Trazado 121934" d="M303.691,339.936c.329-.4.823-.639,1.077-1.119.178-.335.394-.409.605-.011.1.179.2.354.3.53q.2,4.233.4,8.467c.046.95.05.95-.892.949h-.835c-1.078,0-1.089,0-1.032-1.113C303.445,345.072,303.683,342.51,303.691,339.936Z" transform="translate(-294.021 -319.609)" fill="#935325"/>
              <path id="Trazado_121935" data-name="Trazado 121935" d="M307.852,315.424a.852.852,0,0,1-.451-.979,2.366,2.366,0,0,0-1.216-2.523,1.491,1.491,0,0,1-.935-1.8,4.226,4.226,0,0,0-2.758-4.006,4.282,4.282,0,0,0-5.063,1.491c-.272.394-.422.427-.843.2a2.826,2.826,0,0,0-3.893.9c-.309.478-.18,1.134-.526,1.467-.362.347-1.029,0-1.533.214-.042.019-.084.04-.128.055a3.414,3.414,0,0,0-1.9,4.919.77.77,0,0,1-.151,1.094,4.309,4.309,0,0,0,3,7.221.643.643,0,0,1,.722.543,3.216,3.216,0,0,0,2.471,2.254,4.9,4.9,0,0,0,2.3-.3,1.8,1.8,0,0,0,1.052-.815c.2-.284.386-.385.613-.03a.509.509,0,0,0,.317.244,4.037,4.037,0,0,1,.539.3,4.445,4.445,0,0,0,4.829.591,4.273,4.273,0,0,0,2.7-4.149.946.946,0,0,1,.62-.968A3.417,3.417,0,0,0,307.852,315.424Z" transform="translate(-287.278 -305.852)" fill="#9fb942"/>
            </g>
            <g id="Grupo_85754" data-name="Grupo 85754" transform="translate(14.764 4.585)">
              <path id="Trazado_121936" data-name="Trazado 121936" d="M316.986,334.325c-1.082-1.037-1.467-2.608-3.194-3.233-1.088-.394-.738-1.678.312-2.407,1.962-1.364,1.938-1.665-.3-2.716-.636-.3-1.064-.613-1.034-1.378.028-.687.453-.958,1.009-1.211,2.2-1,2.289-1.59.494-3.062-.484-.4-1.14-.711-.842-1.5a1.455,1.455,0,0,1,1.714-.882c1.52.2,1.92-.5,1.662-1.869a4.144,4.144,0,0,1,.023-1.317c.076-.534.334-.978.958-.984.695-.008,1.022.416,1.086,1.063a3.515,3.515,0,0,1,.006.945c-.261,1.484-.08,2.524,1.852,2.169a1.2,1.2,0,0,1,1.362.808c.293.757-.24,1.134-.74,1.551-1.87,1.56-1.81,2.015.4,3.053.609.285,1.1.6,1.065,1.381-.029.687-.455.953-1.01,1.211-2.269,1.056-2.277,1.174-.122,2.7.88.621,1.01,1.7.3,2.047-1.667.8-2.014,2.674-3.409,3.613A1.278,1.278,0,0,0,316.986,334.325Z" transform="translate(-312.773 -313.769)" fill="#c6da5e"/>
              <path id="Trazado_121937" data-name="Trazado 121937" d="M321.521,343.729c-.06-.895-.1-1.791-.154-2.686q-.24-7.221-.479-14.442c-1.316,4.79-.427,9.676-1.331,14.46q-.12,1.333-.242,2.667Z" transform="translate(-315.527 -319.17)" fill="#925224"/>
            </g>
            <g id="Grupo_85755" data-name="Grupo 85755" transform="translate(35.685 5.456)">
              <path id="Trazado_121938" data-name="Trazado 121938" d="M362.173,352.523c0-.033.006-.057,0-.094-.112-1.643-.192-3.288-.284-4.932l-1.574,0c.023,1.65-.152,3.291-.226,4.936,0,.034,0,.062,0,.092Z" transform="translate(-353.61 -328.836)" fill="#935225"/>
              <path id="Trazado_121939" data-name="Trazado 121939" d="M363.622,333.383c-.932-1.565-1.882-3.119-2.831-4.673-.14-.23-.437-.5-.329-.7.12-.228.5-.056.766-.091.282-.038.664.134.812-.1.074-.119-.227-.478-.371-.722q-1.287-2.177-2.582-4.35c-.191-.321-.082-.419.262-.4s.689,0,1.033.005c.295.006.316-.118.182-.338-.2-.335-.407-.671-.609-1.007-1.1-1.822-2.2-3.641-3.292-5.468-.215-.361-.309-.347-.5.028-.288.559-.647,1.082-.974,1.62q-1.445,2.382-2.893,4.762c-.172.282-.133.408.211.4.327-.005.656.019.981-.008.418-.034.376.166.237.419s-.283.464-.42.7c-.8,1.367-1.594,2.737-2.4,4.1-.17.285-.091.364.2.363.442,0,.885,0,1.422,0l-3.622,6.014c2.337,0,12.378-.008,14.426-.019.159,0,.378.095.469-.075S363.7,333.516,363.622,333.383Z" transform="translate(-348.9 -315.273)" fill="#c6da5e"/>
            </g>
          </g>
          <g id="Grupo_85757" data-name="Grupo 85757" transform="translate(36.731 16.751)">
            <path id="Trazado_121940" data-name="Trazado 121940" d="M356.9,351.819c.03-1.972,0-3.945,0-5.918a.3.3,0,0,0-.412.006c0,1.971-.019,3.941,0,5.912Z" transform="translate(-353.135 -339.426)" fill="#8ac501"/>
            <path id="Trazado_121941" data-name="Trazado 121941" d="M354.474,342l-.412.006a1.639,1.639,0,0,1-.138-.168c-.422-.681-.839-1.2-1.826-.839-.457.165-.762-.514-.437-1.129.257-.486.2-.668-.335-.784a.792.792,0,0,1-.618-.724.7.7,0,0,1,.53-.7c.506-.193.761-.414.426-.981a.69.69,0,0,1,.2-.916.724.724,0,0,1,.932.012c.418.3.61.133.75-.272.133-.385.372-.731.8-.72.39.01.619.369.73.714.135.422.262.616.721.309a.724.724,0,0,1,.993.05.8.8,0,0,1,.079,1.064c-.272.424-.146.553.273.707.351.13.742.352.694.822a.835.835,0,0,1-.7.724c-.357.1-.594.258-.306.708a.786.786,0,0,1-.051,1.008c-.327.347-.7.248-1.056.064-.326-.167-.581-.213-.68.249C354.965,341.537,354.648,341.719,354.474,342Z" transform="translate(-350.705 -334.779)" fill="#f4d32c"/>
            <path id="Trazado_121942" data-name="Trazado 121942" d="M356.091,339.207a1.114,1.114,0,0,1,1.055,1.045,1.19,1.19,0,0,1-1.106.972,1.089,1.089,0,0,1-1.028-1.015A1.018,1.018,0,0,1,356.091,339.207Z" transform="translate(-352.518 -336.642)" fill="#2c2c2c"/>
          </g>
          <g id="Grupo_85758" data-name="Grupo 85758" transform="translate(26.043 16.751)">
            <path id="Trazado_121943" data-name="Trazado 121943" d="M338.446,351.819c.03-1.972,0-3.945,0-5.918a.3.3,0,0,0-.412.006c0,1.971-.018,3.941,0,5.912Z" transform="translate(-334.679 -339.426)" fill="#8ac501"/>
            <path id="Trazado_121944" data-name="Trazado 121944" d="M336.018,342l-.412.006a1.633,1.633,0,0,1-.137-.168c-.422-.681-.84-1.2-1.826-.839-.457.165-.762-.514-.437-1.129.257-.486.2-.668-.335-.784a.792.792,0,0,1-.618-.724.7.7,0,0,1,.53-.7c.505-.193.761-.414.426-.981a.689.689,0,0,1,.2-.916.724.724,0,0,1,.932.012c.418.3.61.133.75-.272.134-.385.372-.731.8-.72.391.01.619.369.73.714.135.422.262.616.721.309a.725.725,0,0,1,.994.05.8.8,0,0,1,.078,1.064c-.272.424-.147.553.273.707.352.13.742.352.694.822a.835.835,0,0,1-.7.724c-.357.1-.593.258-.306.708a.786.786,0,0,1-.051,1.008c-.327.347-.7.248-1.056.064-.325-.167-.581-.213-.68.249C336.51,341.537,336.192,341.719,336.018,342Z" transform="translate(-332.249 -334.779)" fill="#f4d32c"/>
            <path id="Trazado_121945" data-name="Trazado 121945" d="M337.635,339.207a1.114,1.114,0,0,1,1.055,1.045,1.19,1.19,0,0,1-1.105.972,1.088,1.088,0,0,1-1.027-1.015A1.017,1.017,0,0,1,337.635,339.207Z" transform="translate(-334.062 -336.642)" fill="#2c2c2c"/>
          </g>
          <g id="Grupo_85759" data-name="Grupo 85759" transform="translate(7.107 16.95)">
            <path id="Trazado_121946" data-name="Trazado 121946" d="M305.748,352.162c.03-1.972,0-3.945,0-5.918a.3.3,0,0,0-.412.006c0,1.971-.019,3.941,0,5.912Z" transform="translate(-301.981 -339.769)" fill="#8ac501"/>
            <path id="Trazado_121947" data-name="Trazado 121947" d="M303.321,342.339l-.412.006a1.558,1.558,0,0,1-.137-.167c-.422-.68-.84-1.2-1.826-.839-.457.165-.762-.514-.437-1.129.257-.487.2-.668-.335-.784a.792.792,0,0,1-.618-.724.7.7,0,0,1,.53-.7c.5-.194.761-.414.426-.981a.69.69,0,0,1,.2-.916.725.725,0,0,1,.933.012c.418.3.609.133.75-.272.133-.385.372-.731.8-.72.391.01.619.369.73.714.135.422.262.616.721.309a.725.725,0,0,1,.994.05.8.8,0,0,1,.078,1.064c-.272.425-.147.553.274.708.351.129.742.352.693.821a.835.835,0,0,1-.7.725c-.357.1-.593.258-.306.708a.786.786,0,0,1-.051,1.008c-.327.347-.7.248-1.056.064-.326-.167-.581-.213-.681.249C303.812,341.88,303.495,342.062,303.321,342.339Z" transform="translate(-299.552 -335.122)" fill="#f4d32c"/>
            <path id="Trazado_121948" data-name="Trazado 121948" d="M304.938,339.55a1.114,1.114,0,0,1,1.054,1.045,1.189,1.189,0,0,1-1.1.972,1.088,1.088,0,0,1-1.028-1.015A1.018,1.018,0,0,1,304.938,339.55Z" transform="translate(-301.364 -336.985)" fill="#2c2c2c"/>
          </g>
          <path id="Trazado_121949" data-name="Trazado 121949" d="M335.3,351.723c-.236.126-.719-.265-.976-.32a1.875,1.875,0,0,0-1.188.136,1.9,1.9,0,0,0-.572.424,4.639,4.639,0,0,0-1.545.067c-.128.077-.749-.353-.677-.325a1.926,1.926,0,0,0-.76-.156,1.766,1.766,0,0,0-1.679,1.569c-.077-.232-.1-.549-.181-.7a1.874,1.874,0,0,0-.848-.843,1.951,1.951,0,0,0-2.238.392,1.986,1.986,0,0,0-.507,1.033c0,.016-.006.026-.009.04,0-.054-.01-.115-.019-.19a1.686,1.686,0,0,0-1.547-1.484c-.457-.034-1,.529-1.379,1.023a1.672,1.672,0,0,0-2.241-.664c-.237.126-.719-.265-.976-.32a1.876,1.876,0,0,0-1.189.136,1.9,1.9,0,0,0-.572.424,4.64,4.64,0,0,0-1.545.067c-.127.077-.749-.353-.677-.325a1.922,1.922,0,0,0-.76-.156,1.74,1.74,0,0,0-1.631,1.338,1.358,1.358,0,0,0-1.436.321,1.378,1.378,0,0,0-.353.719l-.006.028c0-.038-.007-.08-.013-.132a1.175,1.175,0,0,0-1.078-1.034c-.537-.039-1.255,1.1-1.268,1.205s-.517.254-.471.227c-.057.033-.108.07-.159.107a1.577,1.577,0,0,0-.894-.95c-.246-.106-.242-.727-.36-.962a1.877,1.877,0,0,0-.848-.843,1.951,1.951,0,0,0-2.238.392,1.987,1.987,0,0,0-.507,1.033c0,.016-.005.026-.008.04,0-.054-.01-.115-.019-.19a1.687,1.687,0,0,0-1.547-1.484c-.771-.057-1.8,1.585-1.82,1.73s-.743.364-.676.325a1.934,1.934,0,0,0-.6.5,1.783,1.783,0,0,0,2.191,2.663c.236-.126.719.265.976.319a1.871,1.871,0,0,0,1.188-.136,1.9,1.9,0,0,0,.572-.424,4.617,4.617,0,0,0,1.545-.067c.128-.077.749.353.677.325a1.937,1.937,0,0,0,.76.155,1.669,1.669,0,0,0,1.352-.74,1.156,1.156,0,0,0,1.524.409c.164-.088.5.185.68.222a1.305,1.305,0,0,0,.828-.095,1.319,1.319,0,0,0,.4-.3,3.224,3.224,0,0,0,1.076-.046c.089-.054.521.246.471.226a1.35,1.35,0,0,0,.529.108,1.163,1.163,0,0,0,.918-.48,1.859,1.859,0,0,0,.741.666,1.95,1.95,0,0,0,2.238-.392,1.987,1.987,0,0,0,.507-1.033c0-.015.006-.026.009-.04,0,.055.01.116.019.19a1.686,1.686,0,0,0,1.547,1.484c.458.034,1-.529,1.379-1.024a1.672,1.672,0,0,0,2.241.665c.237-.126.719.265.977.319a1.871,1.871,0,0,0,1.188-.136,1.9,1.9,0,0,0,.572-.424,4.618,4.618,0,0,0,1.545-.067c.127-.077.749.353.677.325a1.932,1.932,0,0,0,.76.155,1.766,1.766,0,0,0,1.679-1.569c.076.232.1.549.18.7a1.875,1.875,0,0,0,.848.843,1.95,1.95,0,0,0,2.238-.392,1.987,1.987,0,0,0,.507-1.033l.008-.04c0,.055.01.116.019.19a1.686,1.686,0,0,0,1.547,1.484c.771.057,1.8-1.586,1.82-1.731s.743-.364.676-.325a1.94,1.94,0,0,0,.6-.5A1.783,1.783,0,0,0,335.3,351.723Z" transform="translate(-291.345 -325.007)" fill="#9fb942"/>
        </g>
      </g>
      <path id="Trazado_121950" data-name="Trazado 121950" d="M136.1,345.849h-6.26c1.094-1.784,2.386-3.886,3.689-6a13.143,13.143,0,0,0,2.507,5.913A.831.831,0,0,0,136.1,345.849Z" transform="translate(-60.758 -110.684)" fill="#8ea336"/>
      <g id="Grupo_85766" data-name="Grupo 85766" transform="translate(64.321 202.072)">
        <path id="Trazado_121951" data-name="Trazado 121951" d="M198.1,327.915H138.674a.839.839,0,0,1-.064-.087,13.143,13.143,0,0,1-2.507-5.913,13.387,13.387,0,0,1-.133-2.6c.481-.776.95-1.54,1.4-2.27l4.239-6.885c.747-1.245,1.494-2.5,2.247-3.735.33-.539.411-.5.747.07.156.261.313.521.475.782.521.869,1.06,1.72,1.6,2.571a3.7,3.7,0,0,1,.208.4,1.252,1.252,0,0,0,.127.226.775.775,0,0,0,.185.226q1.824,3.032,3.654,6.052,2.206,3.64,4.413,7.273c.313-.44.625-.88.932-1.32,1.442-2.044,2.878-4.065,4.059-5.733,1.43-2.033,2.49-3.527,2.733-3.874.753-1.083,1.494-2.177,2.253-3.255.324-.469.411-.434.747.058.156.232.313.457.475.683.521.753,1.06,1.5,1.6,2.241a3.061,3.061,0,0,1,.208.347,2.282,2.282,0,0,0,.127.2.878.878,0,0,0,.191.2q1.564,2.258,3.133,4.523c.22-.515.44-1.031.666-1.546,1.488-3.463,2.977-6.909,4.181-9.712,1.39-3.208,2.4-5.571,2.641-6.127.486-1.152.973-2.311,1.459-3.463h2.293c.434,1.013.88,2.015,1.326,3.011.081.18.139.382.208.573.041.116.081.226.127.33a1.435,1.435,0,0,0,.185.319q1.824,4.326,3.648,8.646,2.441,5.742,4.882,11.484c.127.3.255.6.382.9q1.077,2.545,2.166,5.084c.041.1.087.214.133.319a3.135,3.135,0,0,1,.307-.1,2.694,2.694,0,0,1,1.39-.006.887.887,0,0,1,.168.041C197.962,327.863,198.032,327.886,198.1,327.915Z" transform="translate(-127.653 -294.822)" fill="#8ea336"/>
        <g id="Grupo_85765" data-name="Grupo 85765">
          <g id="Grupo_85764" data-name="Grupo 85764" transform="translate(2.004)">
            <path id="Trazado_121952" data-name="Trazado 121952" d="M178.477,343.553V324.117a.784.784,0,0,0-.8-.532,3.357,3.357,0,0,0-1.978.6c-.853,1.214-11.739,16.6-13.688,19.37Z" transform="translate(-140.626 -305.908)" fill="#b3b3b3"/>
            <path id="Trazado_121953" data-name="Trazado 121953" d="M190.21,327.845c0,3.253.032,14.306,0,16.067h16.117q-2.307-3.317-4.629-6.625-2.443-3.5-4.879-7.006-1.829-2.633-3.652-5.271a.678.678,0,0,0-.449-.163,5.854,5.854,0,0,1-2.025-.389.324.324,0,0,0-.357.071c-.188.157-.118.373-.119.566C190.206,326.012,190.21,326.928,190.21,327.845Z" transform="translate(-152.49 -306.267)" fill="#9e9e9e"/>
            <path id="Trazado_121954" data-name="Trazado 121954" d="M191.248,322.482a7.161,7.161,0,0,1-2.831-.481c-.717-.838-1.533-.207-2.309-.147a1.877,1.877,0,0,0-.456.159c.749-1.086,1.494-2.176,2.25-3.257.327-.469.412-.431.745.059.672.989,1.373,1.958,2.078,2.923C190.906,321.983,190.993,322.292,191.248,322.482Z" transform="translate(-150.575 -303.739)" fill="#dadada"/>
            <g id="Grupo_85762" data-name="Grupo 85762" transform="translate(37.611)">
              <path id="Trazado_121955" data-name="Trazado 121955" d="M206.489,334.266V302.4c-.142-.6-.488-.945-.8-.873-.675.156-1.417.137-1.977.98-.853,1.991-11.74,27.219-13.688,31.762Z" transform="translate(-190.028 -296.621)" fill="#b3b3b3"/>
              <path id="Trazado_121956" data-name="Trazado 121956" d="M218.222,308.509c0,5.335.032,23.458,0,26.346h16.116q-2.306-5.44-4.628-10.863-2.444-5.738-4.879-11.488-1.83-4.317-3.653-8.643a.551.551,0,0,0-.448-.268,3.936,3.936,0,0,1-2.025-.637c-.115-.088-.253-.041-.357.116a1.551,1.551,0,0,0-.12.928C218.218,305.5,218.222,307.007,218.222,308.509Z" transform="translate(-201.891 -297.21)" fill="#9e9e9e"/>
              <path id="Trazado_121957" data-name="Trazado 121957" d="M219.26,299.716a4.748,4.748,0,0,1-2.831-.788c-.717-1.374-1.533-.34-2.309-.24-.155.02-.3.17-.456.26.749-1.781,1.494-3.567,2.25-5.341.327-.767.412-.708.745.1.672,1.62,1.373,3.21,2.078,4.792A5.644,5.644,0,0,0,219.26,299.716Z" transform="translate(-199.977 -293.064)" fill="#dadada"/>
            </g>
            <g id="Grupo_85763" data-name="Grupo 85763" transform="translate(0 11.223)">
              <path id="Trazado_121958" data-name="Trazado 121958" d="M141.544,318.973V341.28H125.08c.434-.706,1.3-2.12,2.409-3.915l.006-.006c.11-.185.22-.371.342-.556,1.094-1.784,2.386-3.886,3.689-6,3.353-5.432,6.781-11,7.245-11.756a3.093,3.093,0,0,1,1.975-.683A.79.79,0,0,1,141.544,318.973Z" transform="translate(-125.08 -314.933)" fill="#b3b3b3"/>
              <path id="Trazado_121959" data-name="Trazado 121959" d="M153.276,323.253c0,3.733.032,16.417,0,18.437h16.116q-2.306-3.807-4.628-7.6-2.444-4.016-4.879-8.04-1.83-3.021-3.652-6.049a.63.63,0,0,0-.449-.187,5.2,5.2,0,0,1-2.025-.446.294.294,0,0,0-.357.082c-.188.18-.118.428-.119.649C153.271,321.15,153.276,322.2,153.276,323.253Z" transform="translate(-136.944 -315.345)" fill="#9e9e9e"/>
              <path id="Trazado_121960" data-name="Trazado 121960" d="M154.314,317.1a6.334,6.334,0,0,1-2.831-.551c-.718-.962-1.534-.238-2.309-.168a1.722,1.722,0,0,0-.456.182c.749-1.247,1.494-2.5,2.25-3.738.327-.537.412-.5.745.068.672,1.134,1.372,2.247,2.078,3.354A3.428,3.428,0,0,0,154.314,317.1Z" transform="translate(-135.029 -312.444)" fill="#dadada"/>
            </g>
          </g>
          <path id="Trazado_121961" data-name="Trazado 121961" d="M191.352,349.988c-.43.229-1.308-.482-1.776-.581a3.411,3.411,0,0,0-2.161.247,3.445,3.445,0,0,0-1.039.771,8.4,8.4,0,0,0-2.809.122c-.232.14-1.361-.642-1.231-.591a3.5,3.5,0,0,0-1.382-.283,3.21,3.21,0,0,0-3.052,2.852c-.14-.422-.187-1-.328-1.277a3.409,3.409,0,0,0-1.543-1.533,3.547,3.547,0,0,0-4.068.713,3.61,3.61,0,0,0-.922,1.877c-.005.028-.01.046-.015.072-.009-.1-.019-.21-.035-.345a3.067,3.067,0,0,0-2.813-2.7c-.831-.061-1.825.962-2.506,1.861a3.04,3.04,0,0,0-4.073-1.208c-.43.229-1.308-.482-1.775-.581a3.411,3.411,0,0,0-2.161.247,3.455,3.455,0,0,0-1.039.771,8.4,8.4,0,0,0-2.809.122c-.232.14-1.361-.642-1.231-.591a3.5,3.5,0,0,0-1.382-.283,3.164,3.164,0,0,0-2.965,2.432,2.466,2.466,0,0,0-2.609.584,2.513,2.513,0,0,0-.642,1.308c0,.019-.007.032-.01.05-.006-.07-.013-.147-.024-.241A2.135,2.135,0,0,0,143,351.928c-.976-.072-2.281,2.007-2.3,2.191s-.941.461-.856.412c-.1.06-.2.128-.29.2A2.865,2.865,0,0,0,137.92,353c-.447-.193-.439-1.323-.654-1.749a3.412,3.412,0,0,0-1.543-1.533,3.547,3.547,0,0,0-4.068.713,3.605,3.605,0,0,0-.922,1.877c-.005.028-.01.046-.016.072-.008-.1-.019-.21-.034-.345a3.067,3.067,0,0,0-2.813-2.7c-1.4-.1-3.276,2.882-3.309,3.146s-1.351.663-1.23.592a3.518,3.518,0,0,0-1.084.9c-1.96,2.583,1.027,6.413,3.982,4.84.43-.229,1.307.483,1.775.581a3.407,3.407,0,0,0,2.161-.248,3.452,3.452,0,0,0,1.039-.771,8.419,8.419,0,0,0,2.809-.122c.232-.141,1.361.642,1.231.591a3.526,3.526,0,0,0,1.382.283,3.037,3.037,0,0,0,2.457-1.345,2.1,2.1,0,0,0,2.77.744c.3-.16.91.336,1.236.4a2.371,2.371,0,0,0,1.5-.173,2.4,2.4,0,0,0,.723-.537,5.851,5.851,0,0,0,1.956-.085c.162-.1.948.447.857.412a2.451,2.451,0,0,0,.962.2,2.112,2.112,0,0,0,1.668-.872,3.378,3.378,0,0,0,1.347,1.211,3.546,3.546,0,0,0,4.068-.713,3.605,3.605,0,0,0,.922-1.877c.005-.028.01-.046.015-.072.009.1.019.21.035.346a3.066,3.066,0,0,0,2.813,2.7c.831.061,1.825-.961,2.506-1.861a3.04,3.04,0,0,0,4.073,1.207c.43-.229,1.308.483,1.775.581a3.407,3.407,0,0,0,2.161-.248,3.462,3.462,0,0,0,1.04-.771,8.417,8.417,0,0,0,2.809-.122c.232-.141,1.361.642,1.231.591a3.526,3.526,0,0,0,1.382.283,3.21,3.21,0,0,0,3.052-2.853c.14.422.187,1,.328,1.277a3.41,3.41,0,0,0,1.543,1.533,3.546,3.546,0,0,0,4.068-.713,3.6,3.6,0,0,0,.922-1.877c.005-.028.01-.046.016-.072.008.1.019.21.034.346a3.066,3.066,0,0,0,2.813,2.7c1.4.1,3.276-2.882,3.309-3.146s1.351-.662,1.23-.592a3.519,3.519,0,0,0,1.084-.9C197.293,352.246,194.306,348.415,191.352,349.988Z" transform="translate(-121.619 -316.748)" fill="#54733d"/>
        </g>
      </g>
      <g id="Grupo_85775" data-name="Grupo 85775" transform="translate(43.07 148.138)">
        <g id="Grupo_85771" data-name="Grupo 85771" transform="translate(6.467 1.703)">
          <g id="Grupo_85767" data-name="Grupo 85767">
            <path id="Trazado_121962" data-name="Trazado 121962" d="M98.742,266.734v.064c-.029-.046-.058-.087-.087-.133-.429-.741-.857-1.471-1.286-2.212v-.012c-.423-.741-.851-1.483-1.28-2.218.151-5.015.405-12.6.689-19.278v-.017c.469-.811.932-1.616,1.4-2.426v-.012c.041-.84.081-1.656.116-2.444v-.035c.012-.2.017-.394.029-.591.023.857.046,1.766.069,2.7v.017c.064,2.919.116,6.173.162,9.457.012.683.017,1.372.029,2.056,0,.1,0,.208.006.313,0,.214,0,.429.006.643v.006C98.655,257.909,98.7,263.034,98.742,266.734Z" transform="translate(-96.09 -217.412)" fill="#3c4f2c"/>
            <path id="Trazado_121963" data-name="Trazado 121963" d="M113.611,225.451a.356.356,0,0,1-.07.232c-.139.208-.5.214-.776.249-1.581.22-3.15.446-4.725.666.052-.093.1-.179.156-.272h-.012c.139-.249.29-.5.434-.747.052-.093.1-.18.156-.272.081-.139.168-.284.249-.423s.168-.29.255-.434c.046-.081.093-.168.145-.249,1.274.313,2.484.614,3.33.776C113.113,225.046,113.605,225.017,113.611,225.451Z" transform="translate(-101.12 -211.848)" fill="#3c4f2c"/>
            <path id="Trazado_121964" data-name="Trazado 121964" d="M100.216,209.611a3.36,3.36,0,0,1-.122.475,4.879,4.879,0,0,1-.817,1.511c-.041.052-.087.1-.133.156a.6.6,0,0,1-.058-.122,10.754,10.754,0,0,1-.284-2.287,1,1,0,0,0-.1-.064c-.417-.237-.834-.481-1.245-.718-.006-.174-.012-.359-.017-.539-.041-1.668-.046-3.486-.046-4.714v-.44h1.3a.171.171,0,0,0,.012.058c.417,1.714,1.233,3.307,1.523,5.061A4.752,4.752,0,0,1,100.216,209.611Z" transform="translate(-96.637 -202.87)" fill="#3c4f2c"/>
          </g>
          <g id="Grupo_85770" data-name="Grupo 85770" transform="translate(2.197 16.054)">
            <g id="Grupo_85768" data-name="Grupo 85768" transform="translate(7.947 13.379)">
              <path id="Trazado_121965" data-name="Trazado 121965" d="M116.063,290.858c0,.022.021.206-.013.174s-.046-.105-.065-.136a13.5,13.5,0,0,1-1.17-2.142c-.1-.346,0-.01-.021-.076-.023-.094,0-.018-.005-.027a24.089,24.089,0,0,1-1.181-2.351c.114-5.085.178-30.773,2.26-32.54.944-.8.068,5.865.29,9.439C116.534,269.256,116.226,283.137,116.063,290.858Z" transform="translate(-113.608 -253.694)" fill="#3c4f2c"/>
            </g>
            <path id="Trazado_121966" data-name="Trazado 121966" d="M122.066,254.939a5.1,5.1,0,0,1-4.083-1.578,1.6,1.6,0,0,1-.478-1.828c.393-.79,6.961,1.189,9.737,1.72.357.068.848.042.854.473s-.493.435-.847.485Z" transform="translate(-107.246 -239.329)" fill="#3c4f2c"/>
            <path id="Trazado_121967" data-name="Trazado 121967" d="M101.075,257.638c-.276.284-.611.7-1.033.35-.374-.309.012-.684.186-.941,1.147-1.678,1.821-3.664,3.319-5.112a5.431,5.431,0,0,1,3.268-1.526,1.419,1.419,0,0,1,1.56.752C108.608,251.741,101.615,257.081,101.075,257.638Z" transform="translate(-99.885 -238.926)" fill="#3c4f2c"/>
            <g id="Grupo_85769" data-name="Grupo 85769" transform="translate(8.563)">
              <path id="Trazado_121968" data-name="Trazado 121968" d="M115.344,231.222c.078-.41-.039-.634.321-.63s.769.05.807.528c.164,2.074.962,4.34,1.15,6.375a4.218,4.218,0,0,1-1.158,3.57c-.369.312-.665,1.551-1.44.192S114.928,233.392,115.344,231.222Z" transform="translate(-114.671 -230.592)" fill="#3c4f2c"/>
            </g>
          </g>
        </g>
        <g id="Grupo_85774" data-name="Grupo 85774">
          <g id="Grupo_85772" data-name="Grupo 85772">
            <path id="Trazado_121969" data-name="Trazado 121969" d="M99.643,260.249v-.006c-.017-.023-.029-.046-.046-.069v-.006c-.457-.788-.915-1.581-1.367-2.369.145-5.142.481-15.526.845-23.789V234c.041-.84.081-1.656.116-2.444v-.035c.012-.2.017-.394.029-.591v-.017q.052-1.042.1-2c.151-2.71.3-4.853.44-5.994,0-.023.006-.046.006-.064v-.006c.064-.55.133-.851.2-.851.093.006.168.475.243,1.3,0,.029.006.064.006.093.075.863.139,2.1.2,3.619.052,1.3.093,2.8.133,4.447.087,3.37.156,7.326.208,11.321,0,.069,0,.133.006.2v.006c.006.614.012,1.233.023,1.847,0,.1,0,.208.006.313v.168c0,.156,0,.319.006.475v.006c.081,6.718.133,13.169.18,16.776Z" transform="translate(-90.523 -209.219)" fill="#b3b3b3"/>
            <path id="Trazado_121970" data-name="Trazado 121970" d="M113.13,222.3c.006.446-.492.44-.845.486-.18.023-.353.052-.533.075-1.546.22-3.1.434-4.65.654a6.894,6.894,0,0,1-.695-.012,4.942,4.942,0,0,1-3.388-1.569,1.7,1.7,0,0,1-.55-1.65,1.087,1.087,0,0,1,.069-.174c.232-.469,2.618.029,5.108.631,1.726.411,3.492.869,4.633,1.089C112.632,221.9,113.125,221.876,113.13,222.3Z" transform="translate(-92.284 -208.348)" fill="#b3b3b3"/>
            <path id="Trazado_121971" data-name="Trazado 121971" d="M86.11,226.22c-.272.284-.608.695-1.031.347a.368.368,0,0,1-.156-.313,1.5,1.5,0,0,1,.342-.631c1.147-1.674,1.824-3.66,3.318-5.108a5.264,5.264,0,0,1,2.316-1.343,7.145,7.145,0,0,1,.956-.185,1.419,1.419,0,0,1,1.558.753C93.644,220.319,86.648,225.658,86.11,226.22Z" transform="translate(-84.922 -207.945)" fill="#b3b3b3"/>
            <path id="Trazado_121972" data-name="Trazado 121972" d="M102.47,208.049a4.306,4.306,0,0,1-.5,1.338,5.513,5.513,0,0,1-.434.649,1.289,1.289,0,0,1-1.372.539.154.154,0,0,1-.069-.058.6.6,0,0,1-.058-.122,10.754,10.754,0,0,1-.284-2.287c-.023-.51-.041-1.066-.058-1.645-.041-1.668-.046-3.486-.046-4.714v-.116c0-.486,0-.874-.006-1.106-.006-.284-.029-.608.266-.6s.793-.035.857.446a9.126,9.126,0,0,0,.261,1.257,48.694,48.694,0,0,1,1.454,4.795A4.752,4.752,0,0,1,102.47,208.049Z" transform="translate(-91.115 -199.929)" fill="#b3b3b3"/>
          </g>
          <g id="Grupo_85773" data-name="Grupo 85773" transform="translate(9.975 17.868)">
            <path id="Trazado_121973" data-name="Trazado 121973" d="M118.216,292.856c-.811-1.384-1.564-2.658-2.3-3.938-.145-.249-.29-.5-.434-.753.29-9.706,1.129-35.313,1.726-35.313C117.927,252.916,118.089,282.5,118.216,292.856Z" transform="translate(-107.76 -240.073)" fill="#b3b3b3"/>
            <path id="Trazado_121974" data-name="Trazado 121974" d="M124.329,254.376a5.1,5.1,0,0,1-4.083-1.578,1.6,1.6,0,0,1-.478-1.828c.394-.79,6.962,1.189,9.737,1.72.357.069.848.042.854.473s-.493.435-.847.485Z" transform="translate(-109.509 -239.204)" fill="#b3b3b3"/>
            <path id="Trazado_121975" data-name="Trazado 121975" d="M103.338,257.075c-.276.285-.61.7-1.033.35-.374-.309.012-.684.187-.941,1.147-1.678,1.821-3.664,3.319-5.112a5.437,5.437,0,0,1,3.268-1.526,1.418,1.418,0,0,1,1.56.753C110.871,251.178,103.878,256.518,103.338,257.075Z" transform="translate(-102.148 -238.801)" fill="#b3b3b3"/>
            <path id="Trazado_121976" data-name="Trazado 121976" d="M116.87,231.379c-.005-.283-.028-.609.264-.594s.794-.038.859.447c.279,2.1,1.374,3.959,1.713,6.051a4.445,4.445,0,0,1-.942,3.61,1.28,1.28,0,0,1-1.37.533C116.781,241.249,116.9,232.879,116.87,231.379Z" transform="translate(-108.343 -230.785)" fill="#b3b3b3"/>
          </g>
        </g>
      </g>
      <g id="Grupo_85781" data-name="Grupo 85781" transform="translate(30.028 177.279)">
        <g id="Grupo_85776" data-name="Grupo 85776" transform="translate(8.199 21.959)">
          <rect id="Rectángulo_34695" data-name="Rectángulo 34695" width="0.29" height="2.454" transform="translate(0 0.057) rotate(-11.445)" fill="#c98349"/>
        </g>
        <g id="Grupo_85777" data-name="Grupo 85777" transform="translate(9.981 22.007)">
          <path id="Trazado_121977" data-name="Trazado 121977" d="M79.925,290.719l-.289-.016.13-2.45.289.016Z" transform="translate(-79.636 -288.253)" fill="#c98349"/>
        </g>
        <g id="Grupo_85778" data-name="Grupo 85778" transform="translate(11.646 21.953)">
          <path id="Trazado_121978" data-name="Trazado 121978" d="M82.792,290.635l-.281-.07.6-2.405.281.07Z" transform="translate(-82.511 -288.16)" fill="#c98349"/>
        </g>
        <g id="Grupo_85780" data-name="Grupo 85780">
          <path id="Trazado_121979" data-name="Trazado 121979" d="M80.5,292.945c-.048.58-.1,1.159-.143,1.74-.046.631-.274.851-.91.853-.422,0-.843,0-1.264,0-.513,0-.72-.169-.808-.674a10.3,10.3,0,0,1-.149-1.924c.1-.16.272-.156.432-.158q1.207-.011,2.414,0C80.232,292.783,80.4,292.781,80.5,292.945Z" transform="translate(-68.639 -268.149)" fill="#c98349"/>
          <path id="Trazado_121980" data-name="Trazado 121980" d="M82.59,256.892a6.431,6.431,0,0,0-2.413-3.992,1.487,1.487,0,0,0-.873-.361c-.207-.174-.406-.361-.624-.521a4.467,4.467,0,0,0-2.534-.953h0a4.15,4.15,0,0,0-2.632-.527,1.634,1.634,0,0,0-1.3-.241c-.2.047-.314.256-.532.236h0a4.122,4.122,0,0,0-2.577.531,5.583,5.583,0,0,0-1.262.262,5.5,5.5,0,0,0-1.811,1.2,1.38,1.38,0,0,0-.672.18,4.26,4.26,0,0,0-1.506,1.392,8.3,8.3,0,0,0-1.312,6.337,9.868,9.868,0,0,0,2.509,5.112,49.086,49.086,0,0,1,3.4,4c.377.514,1.645,2.463,1.8,2.688a1.979,1.979,0,0,1,.246-.016H75c.141-.219.683-1.108.683-1.108a39.931,39.931,0,0,1,3.172-4.131,20.64,20.64,0,0,0,2.33-2.759,11.511,11.511,0,0,0,1.451-3.539A8.623,8.623,0,0,0,82.59,256.892Z" transform="translate(-62.4 -250.251)" fill="#eec900"/>
          <g id="Grupo_85779" data-name="Grupo 85779" transform="translate(8.303 24.393)">
            <path id="Trazado_121981" data-name="Trazado 121981" d="M76.764,292.374c-.047.188-.065.364.257.4l3.275.006c.145.005.179-.068.234-.2a.252.252,0,0,0,0-.2Z" transform="translate(-76.738 -292.374)" fill="#eec900"/>
          </g>
        </g>
        <path id="Trazado_121982" data-name="Trazado 121982" d="M79.254,250.538a7.407,7.407,0,0,1,1.125,3.146,23.775,23.775,0,0,1,.186,6.7c-.136,1.357-.316,2.706-.578,4.042-.327,1.664-.659,3.327-.925,5-.042.264-.136.365-.4.341a2.87,2.87,0,0,1-.881-.044c-.3-.137-.147-.534-.206-.811-.167-.774-.245-1.568-.42-2.339-.214-.94-.39-1.888-.563-2.836a33.012,33.012,0,0,1-.541-7.809,15.034,15.034,0,0,1,.916-4.567,7.159,7.159,0,0,1,.458-.835c.218.02.331-.189.532-.236A1.634,1.634,0,0,1,79.254,250.538Z" transform="translate(-68.125 -250.251)" fill="#fbf29f"/>
        <path id="Trazado_121983" data-name="Trazado 121983" d="M88.1,253.13a7.662,7.662,0,0,1,1.166,1.88,7.8,7.8,0,0,1,.563,2.294,14.034,14.034,0,0,1-.228,4.252,9.981,9.981,0,0,1-1.881,3.863,37.406,37.406,0,0,0-3.288,4.828.9.9,0,0,1-1.1.206c-.119-.086-.034-.177-.008-.264a22.232,22.232,0,0,1,1.7-3.938,24.094,24.094,0,0,0,1.872-4.468,10.528,10.528,0,0,0,.3-5.03A12.137,12.137,0,0,0,85.6,252.4a4.269,4.269,0,0,0-.658-.741,4.467,4.467,0,0,1,2.534.953C87.7,252.769,87.894,252.956,88.1,253.13Z" transform="translate(-71.184 -250.843)" fill="#fbf29f"/>
        <path id="Trazado_121984" data-name="Trazado 121984" d="M70.381,251.655a6.332,6.332,0,0,0-1.609,2.707,13.108,13.108,0,0,0-.831,4.913,12.053,12.053,0,0,0,.9,3.919,48.229,48.229,0,0,0,2.176,4.536c.4.785.661,1.625.984,2.44.073.184.032.313-.206.317a1.914,1.914,0,0,0-.4.06.344.344,0,0,1-.418-.214,35.727,35.727,0,0,0-3.258-4.808,10.741,10.741,0,0,1-2.181-5.316,10.9,10.9,0,0,1,.036-3.662,6.967,6.967,0,0,1,1.734-3.429,5.505,5.505,0,0,1,1.811-1.2A5.584,5.584,0,0,1,70.381,251.655Z" transform="translate(-63.663 -250.842)" fill="#fbf29f"/>
      </g>
      <g id="Grupo_85788" data-name="Grupo 85788" transform="translate(87.3 105.481)">
        <path id="Trazado_121985" data-name="Trazado 121985" d="M181.488,133.442a6.43,6.43,0,0,0-2.413-3.992,1.5,1.5,0,0,0-.857-.36l0,0c-.207-.174-.406-.361-.624-.521a4.467,4.467,0,0,0-2.533-.953l0,0-.016,0h0a4.142,4.142,0,0,0-2.62-.528,1.686,1.686,0,0,0-.956-.286,1.7,1.7,0,0,0-.358.045c-.2.047-.314.255-.532.236h0a4.119,4.119,0,0,0-2.577.531,5.614,5.614,0,0,0-1.262.262,5.524,5.524,0,0,0-1.811,1.2,1.393,1.393,0,0,0-.672.18,4.264,4.264,0,0,0-1.506,1.392,8.3,8.3,0,0,0-1.312,6.337,9.863,9.863,0,0,0,2.508,5.112,49.088,49.088,0,0,1,3.4,4c.377.514,1.645,2.463,1.8,2.688a15.125,15.125,0,0,1,.694,2.406h-.207c-.047.188-.065.364.257.4a10.292,10.292,0,0,0,.149,1.924c.087.506.295.671.808.675.422,0,.843,0,1.264,0,.636,0,.865-.222.91-.852.042-.58.095-1.16.143-1.74h0c.145.006.179-.068.234-.2a.25.25,0,0,0,0-.2,7.427,7.427,0,0,1,.9-3.058c.093-.166.189-.323.288-.472a39.988,39.988,0,0,1,3.173-4.13,20.713,20.713,0,0,0,2.329-2.759,11.523,11.523,0,0,0,1.451-3.539A8.623,8.623,0,0,0,181.488,133.442Z" transform="translate(-161.299 -126.493)" fill="#8ea336"/>
        <g id="Grupo_85787" data-name="Grupo 85787" transform="translate(1.122 0)">
          <g id="Grupo_85782" data-name="Grupo 85782" transform="translate(8.199 21.96)">
            <rect id="Rectángulo_34696" data-name="Rectángulo 34696" width="0.29" height="2.454" transform="translate(0 0.057) rotate(-11.445)" fill="#c98349"/>
          </g>
          <g id="Grupo_85783" data-name="Grupo 85783" transform="translate(9.982 22.007)">
            <rect id="Rectángulo_34697" data-name="Rectángulo 34697" width="2.454" height="0.289" transform="translate(0 2.45) rotate(-86.975)" fill="#c98349"/>
          </g>
          <g id="Grupo_85784" data-name="Grupo 85784" transform="translate(11.647 21.954)">
            <rect id="Rectángulo_34698" data-name="Rectángulo 34698" width="2.478" height="0.29" transform="translate(0 2.405) rotate(-76.099)" fill="#c98349"/>
          </g>
          <g id="Grupo_85786" data-name="Grupo 85786">
            <path id="Trazado_121986" data-name="Trazado 121986" d="M181.335,168.963c-.048.58-.1,1.159-.143,1.74-.045.631-.274.851-.91.853-.422,0-.843,0-1.264,0-.513,0-.72-.169-.808-.674a10.342,10.342,0,0,1-.149-1.924c.1-.16.272-.156.432-.158q1.207-.012,2.415,0C181.067,168.8,181.234,168.8,181.335,168.963Z" transform="translate(-169.475 -144.167)" fill="#c98349"/>
            <path id="Trazado_121987" data-name="Trazado 121987" d="M183.425,132.91a6.432,6.432,0,0,0-2.413-3.991,1.481,1.481,0,0,0-.873-.361c-.207-.174-.405-.361-.624-.521a4.463,4.463,0,0,0-2.533-.953h0a4.154,4.154,0,0,0-2.632-.527,1.634,1.634,0,0,0-1.3-.241c-.2.047-.313.256-.532.237h0a4.119,4.119,0,0,0-2.577.53,5.654,5.654,0,0,0-1.262.262,5.511,5.511,0,0,0-1.811,1.2,1.386,1.386,0,0,0-.672.18,4.263,4.263,0,0,0-1.505,1.392,8.293,8.293,0,0,0-1.312,6.337,9.861,9.861,0,0,0,2.508,5.112,49.178,49.178,0,0,1,3.4,4c.377.514,1.645,2.463,1.8,2.688a2.1,2.1,0,0,1,.246-.016h4.509c.141-.218.683-1.108.683-1.108a39.993,39.993,0,0,1,3.173-4.13,20.8,20.8,0,0,0,2.33-2.759,11.536,11.536,0,0,0,1.45-3.539A8.616,8.616,0,0,0,183.425,132.91Z" transform="translate(-163.236 -126.269)" fill="#eec900"/>
            <g id="Grupo_85785" data-name="Grupo 85785" transform="translate(8.303 24.393)">
              <path id="Trazado_121988" data-name="Trazado 121988" d="M177.6,168.392c-.046.188-.065.364.257.4l3.275.006c.145.006.179-.068.234-.2a.252.252,0,0,0,0-.2Z" transform="translate(-177.573 -168.392)" fill="#eec900"/>
            </g>
          </g>
          <path id="Trazado_121989" data-name="Trazado 121989" d="M180.089,126.556a7.407,7.407,0,0,1,1.125,3.146,23.8,23.8,0,0,1,.186,6.7c-.136,1.357-.316,2.707-.579,4.043-.327,1.664-.659,3.326-.925,5-.042.264-.136.365-.4.342a2.907,2.907,0,0,1-.881-.044c-.3-.137-.147-.535-.206-.811-.167-.774-.244-1.568-.42-2.34-.214-.94-.389-1.888-.563-2.836a32.25,32.25,0,0,1-.522-4.2,31.9,31.9,0,0,1-.019-3.607,15.046,15.046,0,0,1,.916-4.567,7.07,7.07,0,0,1,.458-.835c.219.019.331-.189.532-.237A1.634,1.634,0,0,1,180.089,126.556Z" transform="translate(-168.961 -126.269)" fill="#fbf29f"/>
          <path id="Trazado_121990" data-name="Trazado 121990" d="M188.936,129.149a7.63,7.63,0,0,1,1.166,1.879,7.813,7.813,0,0,1,.563,2.294,14.052,14.052,0,0,1-.228,4.252,9.988,9.988,0,0,1-1.881,3.863,37.353,37.353,0,0,0-3.288,4.829.9.9,0,0,1-1.1.207c-.119-.086-.034-.178-.008-.265a22.189,22.189,0,0,1,1.7-3.938,24.114,24.114,0,0,0,1.871-4.468,10.528,10.528,0,0,0,.3-5.03,12.126,12.126,0,0,0-1.593-4.356,4.312,4.312,0,0,0-.658-.741,4.463,4.463,0,0,1,2.533.953C188.531,128.788,188.729,128.974,188.936,129.149Z" transform="translate(-172.019 -126.861)" fill="#fbf29f"/>
          <path id="Trazado_121991" data-name="Trazado 121991" d="M171.216,127.673a6.335,6.335,0,0,0-1.609,2.707,13.11,13.11,0,0,0-.831,4.913,12.054,12.054,0,0,0,.9,3.919,48.23,48.23,0,0,0,2.177,4.536c.4.785.661,1.625.984,2.44.073.184.032.313-.207.317a1.876,1.876,0,0,0-.4.059.343.343,0,0,1-.418-.213,35.6,35.6,0,0,0-3.258-4.808,10.751,10.751,0,0,1-2.181-5.316,10.914,10.914,0,0,1,.036-3.662,6.97,6.97,0,0,1,1.734-3.429,5.513,5.513,0,0,1,1.811-1.2A5.655,5.655,0,0,1,171.216,127.673Z" transform="translate(-164.498 -126.86)" fill="#fbf29f"/>
        </g>
      </g>
      <path id="Trazado_121992" data-name="Trazado 121992" d="M88.453,391.1q-2.849-.356-5.664-.811c-.063.045-.12.092-.182.137l.043-.154a178.821,178.821,0,0,1-43.1-17.944c-21.316-12.366-69.472-33.955-78.777-44.677V362.7c27.513,18.78,92.482,40,125.346,38.6.043-.141.083-.283.125-.424h0c.01-.034.019-.068.028-.1.021-.074.045-.147.065-.221h0c.424-1.519.83-3.118,1.205-4.8Q88.077,393.337,88.453,391.1Z" transform="translate(0 -107.761)" fill="#3c4f2c"/>
      <path id="Trazado_121993" data-name="Trazado 121993" d="M149.34,440.27a1.029,1.029,0,0,0,.185.382l-.405-.116,2.4-8.576.139.017c-.724,2.623-1.471,5.229-2.293,7.806A.9.9,0,0,0,149.34,440.27Z" transform="translate(-68.873 -149.454)" fill="#3c4f2c"/>
      <path id="Trazado_121994" data-name="Trazado 121994" d="M149.82,446.97l2.172.608a12.439,12.439,0,0,1-2.148-.585C149.837,446.987,149.832,446.976,149.82,446.97Z" transform="translate(-69.168 -155.771)" fill="#3c4f2c"/>
      <g id="Grupo_85789" data-name="Grupo 85789" transform="translate(86.339 283.334)">
        <path id="Trazado_121995" data-name="Trazado 121995" d="M168.838,434.131l-2.762,9.839c-2.369-.486-4.523-.938-6.335-1.32.886-3.04,1.477-6.15,2.056-9.26Q165.3,433.833,168.838,434.131Z" transform="translate(-159.682 -433.39)" fill="#e2e1e0"/>
        <path id="Trazado_121996" data-name="Trazado 121996" d="M166.033,450.7l-.174.625-6.22-1.749a1.263,1.263,0,0,0,.058-.2C161.51,449.762,163.665,450.214,166.033,450.7Z" transform="translate(-159.64 -440.12)" fill="#e2e1e0"/>
      </g>
      <path id="Trazado_121997" data-name="Trazado 121997" d="M157.143,448.808a1.263,1.263,0,0,1-.058.2l-3.515-.984C154.508,448.234,155.718,448.5,157.143,448.808Z" transform="translate(-70.746 -156.213)" fill="#3c4f2c"/>
    </g>
  </g>
</svg>
