<svg xmlns="http://www.w3.org/2000/svg" xmlns:xlink="http://www.w3.org/1999/xlink" width="298.126" height="346" viewBox="0 0 298.126 346">
  <defs>
    <clipPath id="clip-path">
      <circle id="Elipse_5135" data-name="Elipse 5135" cx="80.664" cy="80.664" r="80.664" transform="translate(0 114.076) rotate(-45)" fill="#67a0f1"/>
    </clipPath>
  </defs>
  <g id="Grupo_86299" data-name="Grupo 86299" transform="translate(-807.937 -6439.023)">
    <rect id="Rectángulo_34749" data-name="Rectángulo 34749" width="298.063" height="346" rx="20" transform="translate(808 6439.023)" fill="#ffe9e1"/>
    <path id="Rectángulo_34756" data-name="Rectángulo 34756" d="M0,0H298.063a0,0,0,0,1,0,0V24a20,20,0,0,1-20,20H20A20,20,0,0,1,0,24V0A0,0,0,0,1,0,0Z" transform="translate(807.937 6739.813)" fill="#adce32"/>
    <path id="Trazado_122759" data-name="Trazado 122759" d="M-27.473-4.828h-4.312v2.719h5.094V0h-7.836V-11.375h7.852v2.117h-5.109v2.4h4.313ZM-25.082,0V-6.625h-1.227V-8.453h1.227v-.281a3.228,3.228,0,0,1,1.109-2.586,4.433,4.433,0,0,1,2.883-.844,10.23,10.23,0,0,1,2.75.453L-18.7-9.633l-.437-.117a6.962,6.962,0,0,0-1.8-.227q-1.508,0-1.508,1.375v.148h1.656v1.828h-1.656V0Zm7.953,0h-2.648V-8.453h2.648Zm5.18-1.875a1.171,1.171,0,0,0,.859-.3,1.1,1.1,0,0,0,.3-.84h2.469a2.922,2.922,0,0,1-1,2.281,3.705,3.705,0,0,1-2.566.891A3.751,3.751,0,0,1-14.793-1a4.556,4.556,0,0,1-1.062-3.2v-.109a5.149,5.149,0,0,1,.473-2.262A3.441,3.441,0,0,1-14.02-8.082a4.065,4.065,0,0,1,2.109-.527A3.658,3.658,0,0,1-9.293-7.7a3.242,3.242,0,0,1,.969,2.477h-2.469a1.445,1.445,0,0,0-.32-1.008,1.106,1.106,0,0,0-.859-.352q-1.023,0-1.2,1.3a9.206,9.206,0,0,0-.055,1.141,3.616,3.616,0,0,0,.3,1.766A1.055,1.055,0,0,0-11.949-1.875ZM-4.434,0H-7.074V-8.453h2.641Zm-2.8-10.633a1.175,1.175,0,0,1,.406-.922,1.533,1.533,0,0,1,1.055-.359,1.533,1.533,0,0,1,1.055.359,1.175,1.175,0,0,1,.406.922,1.175,1.175,0,0,1-.406.922,1.533,1.533,0,0,1-1.055.359,1.533,1.533,0,0,1-1.055-.359A1.175,1.175,0,0,1-7.23-10.633ZM1.277.156A4.345,4.345,0,0,1-1.871-1a4.006,4.006,0,0,1-1.2-3.02v-.219a5.191,5.191,0,0,1,.48-2.289,3.516,3.516,0,0,1,1.4-1.535A4.233,4.233,0,0,1,1-8.609,3.659,3.659,0,0,1,3.809-7.5,4.344,4.344,0,0,1,4.84-4.422V-3.4H-.395A1.9,1.9,0,0,0,.223-2.281a1.836,1.836,0,0,0,1.234.406A2.366,2.366,0,0,0,3.41-2.75l1.2,1.422A3.363,3.363,0,0,1,3.219-.246,4.713,4.713,0,0,1,1.277.156ZM.98-6.578q-1.156,0-1.375,1.531H2.262v-.2a1.3,1.3,0,0,0-.32-.98A1.275,1.275,0,0,0,.98-6.578ZM8.316-8.453l.086.992a2.867,2.867,0,0,1,2.414-1.148,2.412,2.412,0,0,1,1.973.789,3.757,3.757,0,0,1,.676,2.375V0H10.824V-5.336a1.426,1.426,0,0,0-.258-.941,1.193,1.193,0,0,0-.937-.3,1.256,1.256,0,0,0-1.148.609V0H5.848V-8.453ZM18.5-1.875a1.171,1.171,0,0,0,.859-.3,1.1,1.1,0,0,0,.3-.84h2.469a2.922,2.922,0,0,1-1,2.281,3.705,3.705,0,0,1-2.566.891A3.751,3.751,0,0,1,15.652-1,4.556,4.556,0,0,1,14.59-4.2v-.109a5.149,5.149,0,0,1,.473-2.262,3.441,3.441,0,0,1,1.363-1.508,4.065,4.065,0,0,1,2.109-.527,3.658,3.658,0,0,1,2.617.914,3.242,3.242,0,0,1,.969,2.477H19.652a1.445,1.445,0,0,0-.32-1.008,1.106,1.106,0,0,0-.859-.352q-1.023,0-1.2,1.3a9.206,9.206,0,0,0-.055,1.141,3.616,3.616,0,0,0,.3,1.766A1.055,1.055,0,0,0,18.5-1.875ZM26.012,0H23.371V-8.453h2.641Zm-2.8-10.633a1.175,1.175,0,0,1,.406-.922,1.533,1.533,0,0,1,1.055-.359,1.533,1.533,0,0,1,1.055.359,1.175,1.175,0,0,1,.406.922,1.175,1.175,0,0,1-.406.922,1.533,1.533,0,0,1-1.055.359,1.533,1.533,0,0,1-1.055-.359A1.175,1.175,0,0,1,23.215-10.633ZM32.395,0a2.973,2.973,0,0,1-.25-.758,2.448,2.448,0,0,1-2.031.914,3,3,0,0,1-2.031-.723,2.3,2.3,0,0,1-.836-1.816,2.364,2.364,0,0,1,1.016-2.078,5.174,5.174,0,0,1,2.953-.7h.813v-.448q0-1.17-1.008-1.17a.824.824,0,0,0-.937.926H27.449a2.36,2.36,0,0,1,1.043-1.99,4.383,4.383,0,0,1,2.66-.765,3.843,3.843,0,0,1,2.555.789,2.743,2.743,0,0,1,.961,2.164v3.742a3.832,3.832,0,0,0,.359,1.781V0ZM30.746-1.719a1.469,1.469,0,0,0,.816-.211,1.322,1.322,0,0,0,.465-.477V-3.758h-.766q-1.375,0-1.375,1.234a.754.754,0,0,0,.242.582A.876.876,0,0,0,30.746-1.719Z" transform="translate(958.937 6767.813)" fill="#12263f"/>
    <g id="Grupo_85838" data-name="Grupo 85838" transform="translate(794.866 6394.578)">
      <g id="Grupo_85791" data-name="Grupo 85791" transform="translate(49.946 107.808)">
        <path id="Trazado_121998" data-name="Trazado 121998" d="M117.194,134s.291-7.942,5.084-7.259,2.354,12.38.062,16.85c0,0-13.95-4.194-11.621-10.239C110.719,133.356,112.438,129.887,117.194,134Z" transform="translate(-78.227 -126.704)" fill="#e08181"/>
        <path id="Trazado_121999" data-name="Trazado 121999" d="M415.126,204.484s-.283-7.727-4.946-7.063-2.29,12.044-.06,16.393c0,0,13.571-4.08,11.306-9.961C421.426,203.853,419.753,200.478,415.126,204.484Z" transform="translate(-207.033 -157.351)" fill="#e08181"/>
        <path id="Trazado_122000" data-name="Trazado 122000" d="M60.063,283.169s-4.037-3.875-6.128-1.182,4.873,7.416,8.223,8.554c0,0,5-8.955.864-10.872C63.022,279.669,60.453,278.757,60.063,283.169Z" transform="translate(-53.551 -193)" fill="#e08181"/>
      </g>
      <g id="Grupo_85794" data-name="Grupo 85794" transform="translate(57.093 220.793)">
        <g id="Grupo_85792" data-name="Grupo 85792" transform="translate(139.72)">
          <path id="Trazado_122001" data-name="Trazado 122001" d="M394.3,360.34,393.177,345.3a6.348,6.348,0,0,0-.662-2.384l-6.224-12.343a1.222,1.222,0,0,0-1.482-.613,4.224,4.224,0,0,0-2.847,5.216c1.152,4.808,4.1,12.6,4.1,12.6l-.359,14.445-10.958,13.34,21.6-10.76Z" transform="translate(-339.699 -327.798)" fill="#dc927a"/>
          <path id="Trazado_122002" data-name="Trazado 122002" d="M384.208,363.892l-5.586-12.249L372.832,342a1.228,1.228,0,0,0-1.679-.422,4.449,4.449,0,0,0-2.25,4.9c1,4.181,6.457,16.453,6.457,16.453l-8.319,16.427,8.557-.072,8.868-11.543Z" transform="translate(-336.357 -332.791)" fill="#dc927a"/>
          <path id="Trazado_122003" data-name="Trazado 122003" d="M315.789,433.592s-8.746-12.248,4.013-23.166l24.127-13.659,29.468-8.045-36.228,42.311Z" transform="translate(-312.865 -353.308)" fill="#e9a88d"/>
          <path id="Trazado_122004" data-name="Trazado 122004" d="M398.942,361.608l1.3-1.358a6.222,6.222,0,0,0,1.721-3.961l.528-27.9c.06-1.084-1.27-2.439-2.319-2.16a5.8,5.8,0,0,0-4.188,3.481c-1.423,3.836-4.5,25.294-4.5,25.294l-19.712,14.958Z" transform="translate(-338.411 -326.194)" fill="#e9a88d"/>
          <path id="Trazado_122005" data-name="Trazado 122005" d="M379.535,381.764l-1.895,17.36-21.87,25.5-3.716-4.846L375.2,378.371Z" transform="translate(-329.859 -348.819)" fill="#dc927a"/>
          <path id="Trazado_122006" data-name="Trazado 122006" d="M313.321,424.769a18.634,18.634,0,0,1,8.232-18.991,196.556,196.556,0,0,1,26.121-14.588l5.657-6.052c2.23-2.386,4.976-4.377,8.118-3.489h0a1.592,1.592,0,0,1,1.03,2.161l-5.687,13.333a9.3,9.3,0,0,1-1.512,2.412l-16.438,26.4h0Z" transform="translate(-312.93 -350.147)" fill="#e9a88d"/>
          <path id="Trazado_122007" data-name="Trazado 122007" d="M338.684,458.365l5.865,49.073H318.683l-2.289-50.685Z" transform="translate(-314.395 -382.808)" fill="#e9a88d"/>
        </g>
        <g id="Grupo_85793" data-name="Grupo 85793" transform="translate(0)">
          <path id="Trazado_122008" data-name="Trazado 122008" d="M81.35,360.34,82.476,345.3a6.348,6.348,0,0,1,.662-2.384l6.223-12.343a1.222,1.222,0,0,1,1.482-.613,4.224,4.224,0,0,1,2.847,5.216c-1.152,4.808-4.1,12.6-4.1,12.6l.359,14.445,10.958,13.34-21.6-10.76Z" transform="translate(-71.868 -327.798)" fill="#dc927a"/>
          <path id="Trazado_122009" data-name="Trazado 122009" d="M94.636,363.892l5.586-12.249L106.012,342a1.228,1.228,0,0,1,1.68-.422,4.449,4.449,0,0,1,2.25,4.9c-1,4.181-6.457,16.453-6.457,16.453L111.8,379.36l-8.557-.072-8.868-11.543Z" transform="translate(-78.402 -332.791)" fill="#dc927a"/>
          <path id="Trazado_122010" data-name="Trazado 122010" d="M130.052,433.592s8.746-12.248-4.013-23.166l-24.127-13.659-29.467-8.045,36.228,42.311Z" transform="translate(-68.891 -353.308)" fill="#e9a88d"/>
          <path id="Trazado_122011" data-name="Trazado 122011" d="M69.724,361.608l-1.3-1.358A6.219,6.219,0,0,1,66.7,356.29l-.528-27.9c-.06-1.084,1.27-2.439,2.319-2.16a5.8,5.8,0,0,1,4.188,3.481c1.423,3.836,4.5,25.294,4.5,25.294L96.89,369.964Z" transform="translate(-66.171 -326.194)" fill="#e9a88d"/>
          <path id="Trazado_122012" data-name="Trazado 122012" d="M91.609,381.764l1.895,17.36,21.87,25.5,3.716-4.846L95.942,378.371Z" transform="translate(-77.202 -348.819)" fill="#dc927a"/>
          <path id="Trazado_122013" data-name="Trazado 122013" d="M140.893,424.769a18.635,18.635,0,0,0-8.232-18.991A196.543,196.543,0,0,0,106.54,391.19l-5.657-6.052c-2.23-2.386-4.975-4.377-8.118-3.489h0a1.592,1.592,0,0,0-1.03,2.161l5.686,13.333a9.3,9.3,0,0,0,1.513,2.412l16.438,26.4h0Z" transform="translate(-77.2 -350.147)" fill="#e9a88d"/>
          <path id="Trazado_122014" data-name="Trazado 122014" d="M132.1,458.376l-5.664,48.936H152.26l2.128-50.559Z" transform="translate(-92.303 -382.808)" fill="#e9a88d"/>
        </g>
      </g>
      <g id="Grupo_85837" data-name="Grupo 85837" transform="translate(45.237 83.128)">
        <g id="Grupo_85796" data-name="Grupo 85796" transform="translate(132.63 103.6)">
          <g id="Grupo_85795" data-name="Grupo 85795">
            <path id="Trazado_122015" data-name="Trazado 122015" d="M292.264,277.4a12.9,12.9,0,0,1,6.475,1.744,20.767,20.767,0,0,1,35.547-1.247,16.144,16.144,0,0,1,31.645,2.868,12.9,12.9,0,0,1,2.051-.18,13.171,13.171,0,0,1,11.7,7.252H279.412A13.283,13.283,0,0,1,292.264,277.4Z" transform="translate(-279.412 -266.047)" fill="#fff"/>
          </g>
        </g>
        <g id="Grupo_85832" data-name="Grupo 85832" transform="translate(0)">
          <g id="Grupo_85823" data-name="Grupo 85823">
            <g id="Grupo_85822" data-name="Grupo 85822">
              <circle id="Elipse_5134" data-name="Elipse 5134" cx="80.664" cy="80.664" r="80.664" transform="translate(0 114.076) rotate(-45)" fill="#67a0f1"/>
              <g id="Grupo_85821" data-name="Grupo 85821" clip-path="url(#clip-path)">
                <g id="Grupo_85820" data-name="Grupo 85820" transform="translate(32.266 38.282)">
                  <g id="Grupo_85797" data-name="Grupo 85797">
                    <path id="Trazado_122016" data-name="Trazado 122016" d="M112.495,174.645s12.277-9.477,22.83-3.446,16.8,5.384,9.907,13.784-9.261,10.769-4.523,14.431,4.717-.861,7.42-3.662,8.518-3.015,11.534,3.662,7.969,9.907,0,16.153-17.446,16.153-22.83,15.938-10.123.43-8.4,7.107,7.323,9.692,12.492,10.984,33.384,8.185,34.245,16.584S156.647,302.8,156.432,309.9s2.585,7.754-.646,9.046-10.985-9.476-10.554-10.554c0,0-.74-1.9.664-9.235s3.745-15.6-1.092-16.54-13.263-3.9-9.83-9.986,4.993-8.738,4.213-10.3-3.2-3.534-5.072-8.371-11.391-6.465-14.511-8.226-4.78-2.6-7.11-11.022-2.174-26.682-4.982-29.959a37.418,37.418,0,0,0-5.305-5.149Z" transform="translate(-102.207 -158.73)" fill="#afd16e"/>
                    <path id="Trazado_122017" data-name="Trazado 122017" d="M189.881,159.541s-1.7,4.782,3.388,5.473c5.774.784,11.467,2.606,11.206,8.861s-.522,11.988,7.036,13.551,6.254-6.776,8.079-8.079,7.037,1.3,9.121-10.164,7.716-15.012,1.3-17.2c-12.037-4.107-13.981,3.141-28.406,2.867C194.573,154.716,191.257,155.319,189.881,159.541Z" transform="translate(-140.107 -150.72)" fill="#afd16e"/>
                    <path id="Trazado_122018" data-name="Trazado 122018" d="M299.9,180.56a18.828,18.828,0,0,0-10.7,7.169c-6.356,8.665-17.936,24.942-17.553,28,.527,4.213,2.106,11.059,5.793,11.323,2.682.192,10.8-3.94,15.027-6.2a9.382,9.382,0,0,1,5.595-1.047c4.952.61,14.416,1.636,15.191.668,1.053-1.317,3.95-7.11,6.32-3.686s6.057,7.636,0,7.636-12.64-2.106-12.64,4.477,3.95,20.8,12.376,21.067,7.317-6.185,6.79-7.5-2.7-5.43-2.247-6.693c1.114-3.073,11.257-.288,11.257,3.662s-.527,14.747,8.426,16.326,5.178-7.459,6.057-11.323c.867-3.812,8.426-7.637,9.217,5s3.16,9,7.373,6.474,4.477-12.53,6.057-14.111,6.057-7.636,6.057-7.636l-16.853-59.513S335.9,171.77,299.9,180.56Z" transform="translate(-175.676 -160.902)" fill="#afd16e"/>
                    <path id="Trazado_122019" data-name="Trazado 122019" d="M291.382,280.147s-7.059-3.625-13.927-2.1-12.4,2.48-15.643,8.394-2.363,15.667,0,18.315c4.064,4.552,15.453,1.908,16.788,8.2s7.631,12.209,6.868,16.979-3.053,15.835,5.151,17.552,13.545-20.6,15.835-23.847,7.44-19.65,1.336-21.939a13.129,13.129,0,0,1-8.967-10.874C298.271,287.621,296.646,281.99,291.382,280.147Z" transform="translate(-170.5 -205.771)" fill="#afd16e"/>
                  </g>
                  <g id="Grupo_85819" data-name="Grupo 85819" transform="translate(13.486 4.365)">
                    <g id="Grupo_85812" data-name="Grupo 85812">
                      <g id="Grupo_85798" data-name="Grupo 85798" transform="translate(42.68 97.797)">
                        <path id="Trazado_122020" data-name="Trazado 122020" d="M203.792,347.942a.566.566,0,0,1-.031-1.132,6.488,6.488,0,0,0,4.566-2.462,7.172,7.172,0,0,0,1.644-5.42,8.206,8.206,0,0,0-8.025-6.694h0a.566.566,0,0,1,0-1.133h0a9.372,9.372,0,0,1,9.146,7.67,8.206,8.206,0,0,1-1.891,6.3,7.615,7.615,0,0,1-5.378,2.873Z" transform="translate(-201.376 -331.102)" fill="#a7c766"/>
                      </g>
                      <g id="Grupo_85799" data-name="Grupo 85799" transform="translate(24.892 109.626)">
                        <path id="Trazado_122021" data-name="Trazado 122021" d="M180.555,370.007a.567.567,0,0,1-.433-.932,5.926,5.926,0,0,0-1.241-8.39,11.917,11.917,0,0,0-4.666-1.419c-.7-.115-1.421-.234-2.123-.4a2.788,2.788,0,0,1-1.589-.82,2.449,2.449,0,0,1-.514-1.388,5.049,5.049,0,0,1,2.183-4.578.567.567,0,0,1,.626.945,3.885,3.885,0,0,0-1.68,3.525,1.379,1.379,0,0,0,.252.766,1.854,1.854,0,0,0,.98.448c.665.155,1.368.271,2.049.383a12.937,12.937,0,0,1,5.1,1.587,7.055,7.055,0,0,1,1.491,10.072A.565.565,0,0,1,180.555,370.007Z" transform="translate(-169.968 -351.987)" fill="#a7c766"/>
                      </g>
                      <g id="Grupo_85800" data-name="Grupo 85800" transform="translate(40.734 118.693)">
                        <path id="Trazado_122022" data-name="Trazado 122022" d="M198.506,381.286a.566.566,0,0,1-.525-.778,16.633,16.633,0,0,0,.2-11.752.567.567,0,0,1,1.065-.387,17.783,17.783,0,0,1-.216,12.563A.566.566,0,0,1,198.506,381.286Z" transform="translate(-197.939 -367.996)" fill="#a7c766"/>
                      </g>
                      <g id="Grupo_85801" data-name="Grupo 85801" transform="translate(0 57.921)">
                        <path id="Trazado_122023" data-name="Trazado 122023" d="M131.542,276.765a.566.566,0,0,1-.372-.139,15.333,15.333,0,0,1-4.593-15.52.566.566,0,1,1,1.089.312,14.37,14.37,0,0,0,4.248,14.354.566.566,0,0,1-.372.993Z" transform="translate(-126.018 -260.695)" fill="#a7c766"/>
                      </g>
                      <g id="Grupo_85802" data-name="Grupo 85802" transform="translate(17.156 34.424)">
                        <path id="Trazado_122024" data-name="Trazado 122024" d="M163.58,227.745a.587.587,0,0,1-.108-.01c-2.766-.535-5.736-1.425-6.785-3.967a7.1,7.1,0,0,1-.14-4.106.566.566,0,0,1,1.11.225,6.071,6.071,0,0,0,.078,3.448c.842,2.04,3.359,2.785,5.953,3.287a.566.566,0,0,1-.107,1.123Z" transform="translate(-156.31 -219.208)" fill="#a7c766"/>
                      </g>
                      <g id="Grupo_85803" data-name="Grupo 85803" transform="translate(54.095 19.258)">
                        <path id="Trazado_122025" data-name="Trazado 122025" d="M226.261,200.895l-.127,0a4.657,4.657,0,0,1-3.416-1.594,5.956,5.956,0,0,1-.386-6.577.566.566,0,1,1,.992.548,4.806,4.806,0,0,0,.263,5.3,3.509,3.509,0,0,0,2.577,1.189,2.75,2.75,0,0,0,2.154-.822.566.566,0,0,1,.828.773A3.872,3.872,0,0,1,226.261,200.895Z" transform="translate(-221.53 -192.43)" fill="#a7c766"/>
                      </g>
                      <g id="Grupo_85804" data-name="Grupo 85804" transform="translate(67.117)">
                        <path id="Trazado_122026" data-name="Trazado 122026" d="M251.788,166.382a.559.559,0,0,1-.188-.032.566.566,0,0,1-.347-.722,4.566,4.566,0,0,0-5.959-5.771.566.566,0,1,1-.41-1.056,5.7,5.7,0,0,1,7.438,7.2A.567.567,0,0,1,251.788,166.382Z" transform="translate(-244.523 -158.428)" fill="#a7c766"/>
                      </g>
                      <g id="Grupo_85805" data-name="Grupo 85805" transform="translate(45.839 4.911)">
                        <path id="Trazado_122027" data-name="Trazado 122027" d="M227.244,182.028a4.23,4.23,0,0,1-.689-.059l-3.856-.631a4.035,4.035,0,0,1-1.9-.673,3.632,3.632,0,0,1-.992-1.382,24.65,24.65,0,0,1-1.149-3.208A16.715,16.715,0,0,0,217.014,172a8.314,8.314,0,0,0-9.324-3.419.566.566,0,0,1-.343-1.079,9.475,9.475,0,0,1,10.626,3.9,17.839,17.839,0,0,1,1.764,4.342,23.81,23.81,0,0,0,1.093,3.062,2.583,2.583,0,0,0,.662.967,3.142,3.142,0,0,0,1.389.449l3.856.631c.566.092,1.186.038,1.244-.215a.566.566,0,1,1,1.1.253C228.919,181.619,228.235,182.028,227.244,182.028Z" transform="translate(-206.953 -167.098)" fill="#a7c766"/>
                      </g>
                      <g id="Grupo_85806" data-name="Grupo 85806" transform="translate(83.534 73.404)">
                        <path id="Trazado_122028" data-name="Trazado 122028" d="M278.159,305.725a.474.474,0,0,1-.049,0c-2.589-.224-4.358-2.783-4.571-5.129a11.611,11.611,0,0,1,1.9-6.643c1.938-3.348,5.386-6.625,9.255-5.786a.567.567,0,0,1-.24,1.107c-3.278-.713-6.3,2.245-8.035,5.246-1.354,2.341-1.912,4.239-1.753,5.972.171,1.882,1.542,3.931,3.54,4.1a.566.566,0,0,1-.048,1.13Z" transform="translate(-273.509 -288.032)" fill="#a7c766"/>
                      </g>
                      <g id="Grupo_85807" data-name="Grupo 85807" transform="translate(93.042 87.623)">
                        <path id="Trazado_122029" data-name="Trazado 122029" d="M295.282,328.2l-.052,0a.565.565,0,0,1-.514-.591,28.192,28.192,0,0,0-.3-7.516,9.082,9.082,0,0,0-3.842-5.9.567.567,0,1,1,.583-.971,10.209,10.209,0,0,1,4.364,6.627,23.422,23.422,0,0,1,.411,5.913.567.567,0,0,1,.118.428l-.2,1.526A.567.567,0,0,1,295.282,328.2Z" transform="translate(-290.297 -313.137)" fill="#a7c766"/>
                      </g>
                      <g id="Grupo_85808" data-name="Grupo 85808" transform="translate(102.508 87.957)">
                        <path id="Trazado_122030" data-name="Trazado 122030" d="M308.445,322.525a.575.575,0,0,1-.116-.012.567.567,0,0,1-.44-.669,11.892,11.892,0,0,0-.828-7.315.566.566,0,1,1,1.03-.472,13.035,13.035,0,0,1,.908,8.017A.566.566,0,0,1,308.445,322.525Z" transform="translate(-307.009 -313.727)" fill="#a7c766"/>
                      </g>
                      <g id="Grupo_85809" data-name="Grupo 85809" transform="translate(102.705 19.465)">
                        <path id="Trazado_122031" data-name="Trazado 122031" d="M308.491,212.6a.567.567,0,0,1-.541-.4c-.762-2.458-1.118-7.162,1.024-10.045a28.827,28.827,0,0,1,6.721-6.9,12.86,12.86,0,0,1,9.409-2.279.566.566,0,1,1-.214,1.112,11.738,11.738,0,0,0-8.563,2.106,27.824,27.824,0,0,0-6.445,6.641c-1.877,2.526-1.518,6.882-.851,9.034a.566.566,0,0,1-.373.709A.556.556,0,0,1,308.491,212.6Z" transform="translate(-307.358 -192.796)" fill="#a7c766"/>
                      </g>
                      <g id="Grupo_85810" data-name="Grupo 85810" transform="translate(111.151 26.226)">
                        <path id="Trazado_122032" data-name="Trazado 122032" d="M324.9,214.321a.565.565,0,0,1-.407-.173c-2.408-2.487-2.433-4.422-2.029-5.606.664-1.946,2.949-3.3,6.435-3.8a.566.566,0,0,1,.163,1.121c-3,.436-5.013,1.547-5.525,3.048-.433,1.269.179,2.809,1.77,4.452a.567.567,0,0,1-.407.961Z" transform="translate(-322.271 -204.733)" fill="#a7c766"/>
                      </g>
                      <g id="Grupo_85811" data-name="Grupo 85811" transform="translate(119.47 27.201)">
                        <path id="Trazado_122033" data-name="Trazado 122033" d="M337.8,225.466a.705.705,0,0,1-.215-.034,1.043,1.043,0,0,1-.608-1.261,4.8,4.8,0,0,1,3.582-3.841c.251-.058.514-.1.776-.138a2.525,2.525,0,0,0,1.558-.561,2.412,2.412,0,0,0,.372-1.338,44.007,44.007,0,0,0-.531-11.172.566.566,0,1,1,1.115-.2,45.12,45.12,0,0,1,.545,11.46,3.306,3.306,0,0,1-.641,1.985,3.405,3.405,0,0,1-2.249.945c-.234.035-.467.07-.69.121a3.713,3.713,0,0,0-2.652,2.6.616.616,0,0,1,.2.153.8.8,0,0,1,.031.949A.711.711,0,0,1,337.8,225.466Z" transform="translate(-336.959 -206.454)" fill="#a7c766"/>
                      </g>
                    </g>
                    <g id="Grupo_85818" data-name="Grupo 85818" transform="translate(3.886 6.575)">
                      <g id="Grupo_85813" data-name="Grupo 85813" transform="translate(78.242)">
                        <path id="Trazado_122034" data-name="Trazado 122034" d="M283.248,175.273a3.25,3.25,0,0,1-1.227-.262A5.784,5.784,0,0,1,279.7,173l-.232-.294a3.527,3.527,0,0,0-2.408-1.523,4.988,4.988,0,0,0-2.644.7,3.891,3.891,0,0,0-2.258,2.726.566.566,0,1,1-1.129-.086,4.971,4.971,0,0,1,2.875-3.651,6.019,6.019,0,0,1,3.264-.821A4.634,4.634,0,0,1,280.35,172l.241.3a4.75,4.75,0,0,0,1.865,1.665,1.89,1.89,0,0,0,1.028.154,2.025,2.025,0,0,0,1.118-.822l.123-.14a7.273,7.273,0,0,1,3.585-2.173,6.632,6.632,0,0,1,4.6.416,7.726,7.726,0,0,1,1.233.874,4.733,4.733,0,0,0,1.512.946.567.567,0,0,1-.352,1.077,5.7,5.7,0,0,1-1.876-1.145,6.747,6.747,0,0,0-1.053-.754,5.55,5.55,0,0,0-3.786-.317,6.134,6.134,0,0,0-3.021,1.83l-.117.133a3.049,3.049,0,0,1-1.77,1.192A2.46,2.46,0,0,1,283.248,175.273Z" transform="translate(-271.026 -170.037)" fill="#5f9ae4"/>
                      </g>
                      <g id="Grupo_85814" data-name="Grupo 85814" transform="translate(0 91.222)">
                        <path id="Trazado_122035" data-name="Trazado 122035" d="M139.013,337.836a4.142,4.142,0,0,1-1.131-.154c-2.316-.662-3.714-3.212-4.947-5.768a.566.566,0,1,1,1.019-.492c1.122,2.324,2.373,4.637,4.239,5.17a3.3,3.3,0,0,0,1.809-.031,5.075,5.075,0,0,0,2.532-1.749.566.566,0,1,1,.885.707,6.213,6.213,0,0,1-3.109,2.133A4.794,4.794,0,0,1,139.013,337.836Z" transform="translate(-132.879 -331.102)" fill="#5f9ae4"/>
                      </g>
                      <g id="Grupo_85815" data-name="Grupo 85815" transform="translate(68.9 103.513)">
                        <path id="Trazado_122036" data-name="Trazado 122036" d="M259.954,357.523c-.074,0-.148,0-.223,0a5.544,5.544,0,0,1-5.187-4.026.566.566,0,1,1,1.1-.247,4.444,4.444,0,0,0,4.127,3.142,4.553,4.553,0,0,0,4.432-2.81.567.567,0,0,1,1.077.354A5.652,5.652,0,0,1,259.954,357.523Z" transform="translate(-254.531 -352.803)" fill="#5f9ae4"/>
                      </g>
                      <g id="Grupo_85816" data-name="Grupo 85816" transform="translate(31.387 13.808)">
                        <path id="Trazado_122037" data-name="Trazado 122037" d="M193.174,198.666c-.055,0-.11,0-.165,0a6.484,6.484,0,0,1-4.593-2.866.566.566,0,1,1,.894-.7,5.582,5.582,0,0,0,3.758,2.431,2.687,2.687,0,0,0,2.114-.957,1.708,1.708,0,0,0,.415-1.462.566.566,0,1,1,1.1-.259,2.778,2.778,0,0,1-.649,2.447A3.875,3.875,0,0,1,193.174,198.666Z" transform="translate(-188.298 -194.416)" fill="#5f9ae4"/>
                      </g>
                      <g id="Grupo_85817" data-name="Grupo 85817" transform="translate(28.497 71.153)">
                        <path id="Trazado_122038" data-name="Trazado 122038" d="M193.523,301.623h-.075a5.294,5.294,0,0,1-3.794-1.592,10.144,10.144,0,0,1-.941-1.227,5.259,5.259,0,0,0-1.412-1.573,5.345,5.345,0,0,0-3.466-.289.566.566,0,0,1-.15-1.123,4.862,4.862,0,0,1,5.96,2.342,9.176,9.176,0,0,0,.834,1.095,4.156,4.156,0,0,0,2.982,1.235,4.244,4.244,0,0,0,3.014-1.158.566.566,0,1,1,.805.8A5.28,5.28,0,0,1,193.523,301.623Z" transform="translate(-183.194 -295.668)" fill="#5f9ae4"/>
                      </g>
                    </g>
                  </g>
                </g>
                <path id="Trazado_122039" data-name="Trazado 122039" d="M136.816,311.349s61.824,7.581,102.142-41.2c35.709-43.205,22.257-80.32,22.257-80.32l36.89,32.2-5.685,70.81-65.028,73.9L152.437,330.5l-16.344-21.318Z" transform="translate(-84.635 -129.396)" fill="#cfcfcf" opacity="0.59" style="mix-blend-mode: multiply;isolation: isolate"/>
                <path id="Trazado_122040" data-name="Trazado 122040" d="M182.528,101.3s-56.748-12.011-90.142,41.75c-29.576,47.615-11.334,77.926-11.334,77.926L40.168,194.029,36.281,123.1l54.5-81.972,79.148,25.833,19.061,18.927Z" transform="translate(-41.353 -64.914)" fill="#fff" opacity="0.25"/>
              </g>
            </g>
          </g>
          <g id="Grupo_85831" data-name="Grupo 85831" transform="translate(64.25 79.372)">
            <g id="Grupo_85825" data-name="Grupo 85825" transform="translate(26.218 18.766)">
              <path id="Trazado_122041" data-name="Trazado 122041" d="M212.1,256.4h30.3a7.088,7.088,0,0,1,6.414,10.15c-3.246,6.645-9.562,14.1-21.566,14.1s-18.32-7.458-21.566-14.1A7.088,7.088,0,0,1,212.1,256.4Z" transform="translate(-204.969 -256.403)" fill="#2d3647"/>
              <g id="Grupo_85824" data-name="Grupo 85824" transform="translate(8.062 3.506)">
                <path id="Trazado_122042" data-name="Trazado 122042" d="M223.379,267.886h0a4.175,4.175,0,0,1-4.175-4.174v-1.117h8.349v1.117A4.174,4.174,0,0,1,223.379,267.886Z" transform="translate(-219.204 -262.594)" fill="#fff"/>
                <path id="Rectángulo_34699" data-name="Rectángulo 34699" d="M0,0H8.349a0,0,0,0,1,0,0V1.117A4.175,4.175,0,0,1,4.175,5.292h0A4.175,4.175,0,0,1,0,1.117V0A0,0,0,0,1,0,0Z" transform="translate(10.046)" fill="#fff"/>
                <path id="Trazado_122043" data-name="Trazado 122043" d="M258.853,267.886h0a4.175,4.175,0,0,1-4.175-4.174v-1.117h8.349v1.117A4.175,4.175,0,0,1,258.853,267.886Z" transform="translate(-234.587 -262.594)" fill="#fff"/>
              </g>
              <path id="Trazado_122044" data-name="Trazado 122044" d="M222.16,284.766s3.608-3.233,11.625-3.233,12.021,3.233,12.021,3.233A24.827,24.827,0,0,1,222.16,284.766Z" transform="translate(-212.424 -267.3)" fill="#e08181"/>
            </g>
            <g id="Grupo_85826" data-name="Grupo 85826" transform="translate(0 13.1)">
              <ellipse id="Elipse_5136" data-name="Elipse 5136" cx="8.844" cy="4.29" rx="8.844" ry="4.29" fill="#e08181"/>
            </g>
            <g id="Grupo_85827" data-name="Grupo 85827" transform="translate(80.862 13.1)">
              <ellipse id="Elipse_5137" data-name="Elipse 5137" cx="8.844" cy="4.29" rx="8.844" ry="4.29" fill="#e08181"/>
            </g>
            <g id="Grupo_85830" data-name="Grupo 85830" transform="translate(22.629)">
              <g id="Grupo_85828" data-name="Grupo 85828" transform="translate(37.548)">
                <path id="Trazado_122045" data-name="Trazado 122045" d="M277.145,234.315a1.978,1.978,0,0,1-1.978-1.978v-1.972a3.141,3.141,0,1,0-6.281,0V232.2a1.978,1.978,0,0,1-3.957,0v-1.837a7.1,7.1,0,0,1,14.194,0v1.972A1.978,1.978,0,0,1,277.145,234.315Z" transform="translate(-264.929 -223.269)" fill="#2d3647"/>
              </g>
              <g id="Grupo_85829" data-name="Grupo 85829">
                <path id="Trazado_122046" data-name="Trazado 122046" d="M210.849,234.315a1.978,1.978,0,0,1-1.978-1.978v-1.972a3.141,3.141,0,1,0-6.281,0V232.2a1.978,1.978,0,0,1-3.957,0v-1.837a7.1,7.1,0,0,1,14.194,0v1.972A1.977,1.977,0,0,1,210.849,234.315Z" transform="translate(-198.633 -223.269)" fill="#2d3647"/>
              </g>
            </g>
          </g>
        </g>
        <g id="Grupo_85833" data-name="Grupo 85833" transform="translate(5.748 74.821)">
          <path id="Trazado_122047" data-name="Trazado 122047" d="M111.481,232.083h-56.1S59.5,215.235,74,215.235a21.225,21.225,0,0,1,18.5,10.321c4.24-1.658,13.369-3.671,18.978,6.527" transform="translate(-55.385 -215.235)" fill="#fff"/>
        </g>
        <g id="Grupo_85835" data-name="Grupo 85835" transform="translate(170.507 14.411)">
          <ellipse id="Elipse_5138" data-name="Elipse 5138" cx="11.77" cy="11.805" rx="11.77" ry="11.805" fill="#eed555"/>
          <g id="Grupo_85834" data-name="Grupo 85834" transform="translate(5.913 16.433)">
            <path id="Trazado_122048" data-name="Trazado 122048" d="M402.572,151.355H356.73s3.359-13.768,15.215-13.768a17.344,17.344,0,0,1,15.118,8.434c3.465-1.355,10.925-3,15.509,5.333" transform="translate(-356.73 -137.587)" fill="#fff"/>
          </g>
        </g>
        <g id="Grupo_85836" data-name="Grupo 85836" transform="translate(96.133 205.547)">
          <path id="Trazado_122049" data-name="Trazado 122049" d="M250.79,456.805H214.972s2.625-10.757,11.888-10.757a13.552,13.552,0,0,1,11.813,6.59c2.707-1.059,8.536-2.344,12.117,4.167" transform="translate(-214.972 -446.048)" fill="#fff"/>
        </g>
      </g>
    </g>
  </g>
</svg>
