<svg xmlns="http://www.w3.org/2000/svg" width="298.094" height="346.023" viewBox="0 0 298.094 346.023">
  <g id="Grupo_86301" data-name="Grupo 86301" transform="translate(-336.969 -6805)">
    <rect id="Rectángulo_34753" data-name="Rectángulo 34753" width="298.063" height="346" rx="20" transform="translate(337 6805)" fill="#ffe9e1"/>
    <path id="Rectángulo_34758" data-name="Rectángulo 34758" d="M0,0H298.063a0,0,0,0,1,0,0V24a20,20,0,0,1-20,20H20A20,20,0,0,1,0,24V0A0,0,0,0,1,0,0Z" transform="translate(336.969 7107.023)" fill="#adce32"/>
    <path id="Trazado_122761" data-name="Trazado 122761" d="M-54.82-9.258h-3.414V0h-2.742V-9.258h-3.352v-2.117h9.508ZM-49.7.156A4.345,4.345,0,0,1-52.844-1a4.006,4.006,0,0,1-1.2-3.02v-.219a5.191,5.191,0,0,1,.48-2.289,3.516,3.516,0,0,1,1.4-1.535,4.233,4.233,0,0,1,2.188-.543A3.659,3.659,0,0,1-47.164-7.5a4.344,4.344,0,0,1,1.031,3.082V-3.4h-5.234a1.9,1.9,0,0,0,.617,1.117,1.836,1.836,0,0,0,1.234.406,2.366,2.366,0,0,0,1.953-.875l1.2,1.422A3.363,3.363,0,0,1-47.754-.246,4.713,4.713,0,0,1-49.7.156Zm-.3-6.734q-1.156,0-1.375,1.531h2.656v-.2a1.3,1.3,0,0,0-.32-.98A1.275,1.275,0,0,0-49.992-6.578Zm8.492,4.7a1.171,1.171,0,0,0,.859-.3,1.1,1.1,0,0,0,.3-.84h2.469a2.922,2.922,0,0,1-1,2.281,3.705,3.705,0,0,1-2.566.891A3.751,3.751,0,0,1-44.344-1a4.556,4.556,0,0,1-1.062-3.2v-.109a5.149,5.149,0,0,1,.473-2.262A3.441,3.441,0,0,1-43.57-8.082a4.065,4.065,0,0,1,2.109-.527,3.658,3.658,0,0,1,2.617.914,3.242,3.242,0,0,1,.969,2.477h-2.469a1.445,1.445,0,0,0-.32-1.008,1.106,1.106,0,0,0-.859-.352q-1.023,0-1.2,1.3a9.206,9.206,0,0,0-.055,1.141,3.616,3.616,0,0,0,.3,1.766A1.055,1.055,0,0,0-41.5-1.875Zm7.156-6.578.086.992a2.867,2.867,0,0,1,2.414-1.148,2.412,2.412,0,0,1,1.973.789A3.757,3.757,0,0,1-29.2-5.445V0h-2.641V-5.336a1.426,1.426,0,0,0-.258-.941,1.193,1.193,0,0,0-.937-.3,1.256,1.256,0,0,0-1.148.609V0h-2.633V-8.453ZM-28.07-4.3a4.989,4.989,0,0,1,.492-2.254,3.52,3.52,0,0,1,1.414-1.52A4.259,4.259,0,0,1-24-8.609a3.887,3.887,0,0,1,2.992,1.176,4.512,4.512,0,0,1,1.094,3.2v.094A4.378,4.378,0,0,1-21.012-1,3.9,3.9,0,0,1-23.984.156a3.942,3.942,0,0,1-2.9-1.082,4.232,4.232,0,0,1-1.18-2.934Zm2.633.164a3.145,3.145,0,0,0,.367,1.719,1.223,1.223,0,0,0,1.086.547q1.406,0,1.438-2.164V-4.3q0-2.273-1.453-2.273-1.32,0-1.43,1.961ZM-15.977,0h-2.641V-12h2.641Zm1.289-4.3A4.989,4.989,0,0,1-14.2-6.559a3.52,3.52,0,0,1,1.414-1.52,4.259,4.259,0,0,1,2.164-.531A3.887,3.887,0,0,1-7.625-7.434a4.512,4.512,0,0,1,1.094,3.2v.094A4.378,4.378,0,0,1-7.629-1,3.9,3.9,0,0,1-10.6.156,3.942,3.942,0,0,1-13.5-.926a4.232,4.232,0,0,1-1.18-2.934Zm2.633.164a3.145,3.145,0,0,0,.367,1.719,1.223,1.223,0,0,0,1.086.547q1.406,0,1.438-2.164V-4.3q0-2.273-1.453-2.273-1.32,0-1.43,1.961Zm6.375-.148a5.708,5.708,0,0,1,.422-2.266,3.4,3.4,0,0,1,1.211-1.52,3.192,3.192,0,0,1,1.836-.535,2.538,2.538,0,0,1,2.063.891l.094-.734H2.336V-.32a3.564,3.564,0,0,1-.52,1.941,3.334,3.334,0,0,1-1.5,1.266,5.528,5.528,0,0,1-2.281.441,4.769,4.769,0,0,1-1.8-.352A3.251,3.251,0,0,1-5.1,2.063L-4,.516a2.414,2.414,0,0,0,1.938.867,1.568,1.568,0,0,0,1.75-1.8V-.68A2.472,2.472,0,0,1-2.227.156a3.055,3.055,0,0,1-2.5-1.184A4.9,4.9,0,0,1-5.68-4.2Zm2.641.164A3.007,3.007,0,0,0-2.648-2.48a1.232,1.232,0,0,0,1.094.605,1.4,1.4,0,0,0,1.242-.57V-6a1.363,1.363,0,0,0-1.227-.578,1.241,1.241,0,0,0-1.1.629A3.429,3.429,0,0,0-3.039-4.125ZM6.7,0H4.055V-8.453H6.7ZM5.719-11.844H8.5L6.328-9.391l-2.148,0ZM13.156,0a2.973,2.973,0,0,1-.25-.758,2.448,2.448,0,0,1-2.031.914A3,3,0,0,1,8.844-.566a2.3,2.3,0,0,1-.836-1.816A2.364,2.364,0,0,1,9.023-4.461a5.174,5.174,0,0,1,2.953-.7h.813v-.448q0-1.17-1.008-1.17a.824.824,0,0,0-.937.926H8.211a2.36,2.36,0,0,1,1.043-1.99,4.383,4.383,0,0,1,2.66-.765,3.843,3.843,0,0,1,2.555.789,2.743,2.743,0,0,1,.961,2.164v3.742a3.832,3.832,0,0,0,.359,1.781V0ZM11.508-1.719a1.469,1.469,0,0,0,.816-.211,1.322,1.322,0,0,0,.465-.477V-3.758h-.766q-1.375,0-1.375,1.234a.754.754,0,0,0,.242.582A.876.876,0,0,0,11.508-1.719ZM23.648,0H21.008V-12h2.641Zm4.4,0H25.406V-8.453h2.641Zm-2.8-10.633a1.175,1.175,0,0,1,.406-.922,1.533,1.533,0,0,1,1.055-.359,1.533,1.533,0,0,1,1.055.359,1.175,1.175,0,0,1,.406.922,1.175,1.175,0,0,1-.406.922,1.533,1.533,0,0,1-1.055.359,1.533,1.533,0,0,1-1.055-.359A1.175,1.175,0,0,1,25.25-10.633Zm6.906,2.18.086.992a2.906,2.906,0,0,1,2.414-1.148A2.14,2.14,0,0,1,36.82-7.336,2.813,2.813,0,0,1,39.3-8.609q2.57,0,2.641,3.109V0H39.3V-5.336a1.611,1.611,0,0,0-.219-.945.931.931,0,0,0-.8-.3,1.247,1.247,0,0,0-1.164.7l.008.109V0H34.492V-5.32a1.694,1.694,0,0,0-.211-.961.929.929,0,0,0-.8-.3,1.263,1.263,0,0,0-1.156.7V0H29.688V-8.453ZM51.3-4.164A5.1,5.1,0,0,1,50.41-1.02,2.843,2.843,0,0,1,48.016.156,2.437,2.437,0,0,1,46.1-.7V3.25H43.469v-11.7H45.93l.078.781A2.437,2.437,0,0,1,48-8.609a2.866,2.866,0,0,1,2.43,1.152A5.16,5.16,0,0,1,51.3-4.289Zm-2.633-.164q0-2.25-1.312-2.25a1.239,1.239,0,0,0-1.25.672v3.328a1.279,1.279,0,0,0,1.266.7q1.258,0,1.3-2.172ZM55.234,0H52.594V-8.453h2.641Zm-2.8-10.633a1.175,1.175,0,0,1,.406-.922,1.533,1.533,0,0,1,1.055-.359,1.533,1.533,0,0,1,1.055.359,1.175,1.175,0,0,1,.406.922,1.175,1.175,0,0,1-.406.922,1.533,1.533,0,0,1-1.055.359,1.533,1.533,0,0,1-1.055-.359A1.175,1.175,0,0,1,52.438-10.633ZM61.617,0a2.973,2.973,0,0,1-.25-.758,2.448,2.448,0,0,1-2.031.914A3,3,0,0,1,57.3-.566a2.3,2.3,0,0,1-.836-1.816,2.364,2.364,0,0,1,1.016-2.078,5.174,5.174,0,0,1,2.953-.7h.813v-.448q0-1.17-1.008-1.17a.824.824,0,0,0-.937.926H56.672a2.36,2.36,0,0,1,1.043-1.99,4.383,4.383,0,0,1,2.66-.765,3.843,3.843,0,0,1,2.555.789,2.743,2.743,0,0,1,.961,2.164v3.742A3.832,3.832,0,0,0,64.25-.133V0ZM59.969-1.719a1.469,1.469,0,0,0,.816-.211,1.322,1.322,0,0,0,.465-.477V-3.758h-.766q-1.375,0-1.375,1.234a.754.754,0,0,0,.242.582A.876.876,0,0,0,59.969-1.719Z" transform="translate(487.969 7135.023)" fill="#12263f"/>
    <g id="Grupo_85884" data-name="Grupo 85884" transform="translate(62.645 6827.595)">
      <g id="Grupo_85875" data-name="Grupo 85875" transform="translate(310.355 31.099)">
        <path id="Trazado_122097" data-name="Trazado 122097" d="M438.179,32.33h-8.147a3.938,3.938,0,0,0-3.924-3.715H417.47a3.692,3.692,0,0,0-3.2-5.572h-2.894a2.5,2.5,0,0,0,.108-.7,2.553,2.553,0,0,0-2.553-2.555h-6.5a2.521,2.521,0,0,0-2.445,3.25h-7.537a3.715,3.715,0,0,0,0,7.429h9.9a3.885,3.885,0,0,0,0,4.179h-2.7a3.946,3.946,0,1,0,0,7.892h14.392a3.931,3.931,0,0,0,3.336-6.034H422.4a3.016,3.016,0,0,0,2.784,1.857h13a3.018,3.018,0,1,0,0-6.036Z" transform="translate(-232.538 -19.793)" fill="#adc8e3"/>
        <g id="Grupo_85874" data-name="Grupo 85874" transform="translate(0 68.168)">
          <g id="Grupo_85873" data-name="Grupo 85873">
            <g id="Grupo_85868" data-name="Grupo 85868" transform="translate(0.891 16.495)">
              <path id="Trazado_122098" data-name="Trazado 122098" d="M470.43,87.456,399.416,62.883a14.99,14.99,0,0,0-8.434,0L319.967,87.456Z" transform="translate(-301.703 -62.277)" fill="#3f8a49"/>
              <path id="Trazado_122099" data-name="Trazado 122099" d="M410.637,78.69l-47.12-11.062a14.525,14.525,0,0,0-5.6,0L310.8,78.69Z" transform="translate(-310.802 -57.236)" fill="#266b32"/>
              <path id="Trazado_122100" data-name="Trazado 122100" d="M482.155,81.22,427.229,65.782a14.2,14.2,0,0,0-6.522,0L365.783,81.22Z" transform="translate(-256.217 -59.175)" fill="#277c33"/>
            </g>
            <g id="Grupo_85869" data-name="Grupo 85869" transform="translate(13.968 6.728)">
              <rect id="Rectángulo_34700" data-name="Rectángulo 34700" width="2.294" height="18.127" transform="translate(7.925 12.931)" fill="#bc7637"/>
              <path id="Trazado_122101" data-name="Trazado 122101" d="M335.716,71.35a4.985,4.985,0,0,0-2.051-4.021,4.472,4.472,0,0,0-3.6-7.023,3.119,3.119,0,0,0-5.976-1.046c-.018,0-.034-.006-.052-.006a3.521,3.521,0,0,0-3.31,4.787,6.534,6.534,0,0,0-2.351,7.533,4.155,4.155,0,0,0,5.4,6.2,4.981,4.981,0,0,0,9.153-1.961A4.987,4.987,0,0,0,335.716,71.35Z" transform="translate(-317.364 -57.376)" fill="#66a646"/>
              <path id="Trazado_122102" data-name="Trazado 122102" d="M333.171,65.821a4.464,4.464,0,0,0-2.794-6.927,11.932,11.932,0,0,1-5.524,6.056,8.133,8.133,0,0,1-6.991,10.484,4.121,4.121,0,0,0,5.424.833,4.981,4.981,0,0,0,9.153-1.961,4.971,4.971,0,0,0,.731-8.485Z" transform="translate(-316.87 -55.869)" fill="#277c33"/>
            </g>
            <g id="Grupo_85870" data-name="Grupo 85870" transform="translate(28.69)">
              <rect id="Rectángulo_34701" data-name="Rectángulo 34701" width="2.791" height="22.055" transform="translate(9.642 15.731)" fill="#bc7637"/>
              <path id="Trazado_122103" data-name="Trazado 122103" d="M347.079,71a6.066,6.066,0,0,0-2.495-4.894,5.44,5.44,0,0,0-4.38-8.543,3.794,3.794,0,0,0-7.27-1.273c-.022,0-.042-.006-.064-.006a4.286,4.286,0,0,0-4.027,5.823,7.952,7.952,0,0,0-2.86,9.165,5.056,5.056,0,0,0,6.574,7.547A6.062,6.062,0,0,0,343.7,76.431,6.071,6.071,0,0,0,347.079,71Z" transform="translate(-324.752 -54)" fill="#66a646"/>
              <path id="Trazado_122104" data-name="Trazado 122104" d="M343.983,64.274a5.431,5.431,0,0,0-3.4-8.428,14.517,14.517,0,0,1-6.722,7.369,9.894,9.894,0,0,1-8.505,12.754,5.011,5.011,0,0,0,6.6,1.016A6.062,6.062,0,0,0,343.094,74.6a6.049,6.049,0,0,0,.889-10.325Z" transform="translate(-324.15 -52.167)" fill="#277c33"/>
            </g>
            <g id="Grupo_85871" data-name="Grupo 85871" transform="translate(202.214 7.413)">
              <rect id="Rectángulo_34702" data-name="Rectángulo 34702" width="2.243" height="17.727" transform="translate(7.75 12.645)" fill="#bc7637"/>
              <path id="Trazado_122105" data-name="Trazado 122105" d="M429.774,71.385a4.874,4.874,0,0,0-2-3.932,4.375,4.375,0,0,0-3.521-6.869,3.049,3.049,0,0,0-5.843-1.022c-.018,0-.034-.006-.052-.006a3.446,3.446,0,0,0-3.238,4.681,6.391,6.391,0,0,0-2.3,7.367,4.037,4.037,0,0,0-.99,2.636,4.067,4.067,0,0,0,6.275,3.428,4.869,4.869,0,0,0,8.95-1.919A4.874,4.874,0,0,0,429.774,71.385Z" transform="translate(-411.827 -57.72)" fill="#66a646"/>
              <path id="Trazado_122106" data-name="Trazado 122106" d="M427.286,65.98a4.367,4.367,0,0,0-2.732-6.776,11.676,11.676,0,0,1-5.4,5.923,7.954,7.954,0,0,1-6.837,10.253,4.027,4.027,0,0,0,5.3.815,4.869,4.869,0,0,0,8.95-1.919,4.859,4.859,0,0,0,.717-8.3Z" transform="translate(-411.344 -56.247)" fill="#3f8a49"/>
            </g>
            <g id="Grupo_85872" data-name="Grupo 85872" transform="translate(185.606 0.998)">
              <rect id="Rectángulo_34703" data-name="Rectángulo 34703" width="2.717" height="21.472" transform="translate(9.388 15.316)" fill="#bc7637"/>
              <path id="Trazado_122107" data-name="Trazado 122107" d="M425.233,71.051a5.9,5.9,0,0,0-2.429-4.763,5.3,5.3,0,0,0-4.265-8.32,3.694,3.694,0,0,0-7.078-1.238.591.591,0,0,0-.062-.006,4.2,4.2,0,0,0-4.2,4.2,4.138,4.138,0,0,0,.279,1.469,7.739,7.739,0,0,0-2.786,8.924,4.923,4.923,0,0,0,6.4,7.347,5.9,5.9,0,0,0,10.843-2.326A5.909,5.909,0,0,0,425.233,71.051Z" transform="translate(-403.493 -54.501)" fill="#66a646"/>
              <path id="Trazado_122108" data-name="Trazado 122108" d="M422.218,64.5A5.289,5.289,0,0,0,418.91,56.3a14.14,14.14,0,0,1-6.544,7.174,9.636,9.636,0,0,1-8.282,12.419,4.883,4.883,0,0,0,6.425.988,5.9,5.9,0,0,0,10.843-2.326,5.886,5.886,0,0,0,.867-10.05Z" transform="translate(-402.907 -52.717)" fill="#3f8a49"/>
            </g>
            <path id="Trazado_122109" data-name="Trazado 122109" d="M310.355,72.768a113.991,113.991,0,0,0,227,0Z" transform="translate(-310.355 -35.367)" fill="#7f4c2f"/>
            <path id="Trazado_122110" data-name="Trazado 122110" d="M315.511,91.755a113.962,113.962,0,0,0,206.45,0s-38.274,19.482-103.225,8.976C353.39,90.159,315.511,91.755,315.511,91.755Z" transform="translate(-305.236 -16.602)" fill="#935638"/>
            <path id="Trazado_122111" data-name="Trazado 122111" d="M328.085,110.538a113.844,113.844,0,0,0,156.335,0s-37.556,17.746-79.609,5.131C356.763,101.253,328.085,110.538,328.085,110.538Z" transform="translate(-292.753 -0.79)" fill="#b16430"/>
            <path id="Trazado_122112" data-name="Trazado 122112" d="M534.555,89.39a113.814,113.814,0,0,0,2.8-16.622h-227a113.793,113.793,0,0,0,2.8,16.622s10.661-2.256,14.217-2.256c4.388,0,13.162,2.256,17.551,2.256,4.866,0,14.6-2.256,19.468-2.256,5.424,0,16.275,2.256,21.7,2.256,5.584,0,16.753-2.256,22.337-2.256,5.9,0,17.712,2.256,23.617,2.256,6.062,0,18.188-2.256,24.252-2.256,5.743,0,17.232,2.256,22.977,2.256,5.823,0,17.471-2.256,23.294-2.256,4.149,0,12.445,2.256,16.592,2.256Z" transform="translate(-310.355 -35.367)" fill="#66a646"/>
          </g>
        </g>
      </g>
      <g id="Grupo_85877" data-name="Grupo 85877" transform="translate(349.261 89.702)">
        <rect id="Rectángulo_34704" data-name="Rectángulo 34704" width="1.408" height="33.083" transform="translate(30.47 13.842)" fill="#125e7f"/>
        <g id="Grupo_85876" data-name="Grupo 85876" transform="translate(0 0)">
          <path id="Trazado_122113" data-name="Trazado 122113" d="M363.234,78.073H329.952l-.074-.727L383.668,49.2l.074.727Z" transform="translate(-329.879 -49.2)" fill="#a5a5a5"/>
          <path id="Trazado_122114" data-name="Trazado 122114" d="M363.161,77.346H329.879L356.354,49.2h27.314Z" transform="translate(-329.879 -49.2)" fill="#cacccb"/>
          <path id="Trazado_122115" data-name="Trazado 122115" d="M353.806,54.75h-12.95l5.1-5.449h12.425Z" transform="translate(-318.98 -49.1)" fill="#125e7f"/>
          <path id="Trazado_122116" data-name="Trazado 122116" d="M360.877,54.75h-12.95l4.525-5.449h12.425Z" transform="translate(-311.96 -49.1)" fill="#125e7f"/>
          <path id="Trazado_122117" data-name="Trazado 122117" d="M351.373,58.286H337.8l5.591-5.978h13Z" transform="translate(-322.019 -46.115)" fill="#125e7f"/>
          <path id="Trazado_122118" data-name="Trazado 122118" d="M358.787,58.286H345.21l4.965-5.978h13Z" transform="translate(-314.658 -46.115)" fill="#125e7f"/>
          <path id="Trazado_122119" data-name="Trazado 122119" d="M348.693,62.2h-14.27l6.162-6.589h13.635Z" transform="translate(-325.367 -42.84)" fill="#125e7f"/>
          <path id="Trazado_122120" data-name="Trazado 122120" d="M356.485,62.2h-14.27l5.472-6.589h13.635Z" transform="translate(-317.631 -42.84)" fill="#125e7f"/>
          <path id="Trazado_122121" data-name="Trazado 122121" d="M345.725,66.542H330.689l6.826-7.3h14.333Z" transform="translate(-329.074 -39.229)" fill="#125e7f"/>
          <path id="Trazado_122122" data-name="Trazado 122122" d="M353.935,66.542H338.9l6.061-7.3h14.333Z" transform="translate(-320.923 -39.229)" fill="#125e7f"/>
        </g>
      </g>
      <g id="Grupo_85879" data-name="Grupo 85879" transform="translate(379.612 77.598)">
        <rect id="Rectángulo_34705" data-name="Rectángulo 34705" width="1.771" height="41.616" transform="translate(38.329 17.413)" fill="#125e7f"/>
        <g id="Grupo_85878" data-name="Grupo 85878" transform="translate(0 0)">
          <path id="Trazado_122123" data-name="Trazado 122123" d="M387.068,79.447H345.2l-.092-.914,67.663-35.406.092.914Z" transform="translate(-345.109 -43.127)" fill="#a5a5a5"/>
          <path id="Trazado_122124" data-name="Trazado 122124" d="M386.975,78.533H345.109l33.3-35.406h34.358Z" transform="translate(-345.109 -43.127)" fill="#cacccb"/>
          <path id="Trazado_122125" data-name="Trazado 122125" d="M375.207,50.108h-16.29l6.41-6.854h15.63Z" transform="translate(-331.399 -43)" fill="#125e7f"/>
          <path id="Trazado_122126" data-name="Trazado 122126" d="M384.1,50.108h-16.29l5.692-6.854h15.63Z" transform="translate(-322.568 -43)" fill="#125e7f"/>
          <path id="Trazado_122127" data-name="Trazado 122127" d="M372.147,54.556h-17.08l7.034-7.52h16.355Z" transform="translate(-335.221 -39.246)" fill="#125e7f"/>
          <path id="Trazado_122128" data-name="Trazado 122128" d="M381.474,54.556h-17.08l6.246-7.52H387Z" transform="translate(-325.962 -39.246)" fill="#125e7f"/>
          <path id="Trazado_122129" data-name="Trazado 122129" d="M368.776,59.474h-17.95l7.752-8.288H375.73Z" transform="translate(-339.433 -35.125)" fill="#125e7f"/>
          <path id="Trazado_122130" data-name="Trazado 122130" d="M378.578,59.474h-17.95l6.883-8.288h17.152Z" transform="translate(-329.702 -35.125)" fill="#125e7f"/>
          <path id="Trazado_122131" data-name="Trazado 122131" d="M365.042,64.941H346.128l8.587-9.18h18.03Z" transform="translate(-344.097 -30.584)" fill="#125e7f"/>
          <path id="Trazado_122132" data-name="Trazado 122132" d="M375.37,64.941H356.456l7.625-9.18h18.03Z" transform="translate(-333.843 -30.584)" fill="#125e7f"/>
        </g>
      </g>
      <g id="Grupo_85881" data-name="Grupo 85881" transform="translate(418.84 59.783)">
        <rect id="Rectángulo_34706" data-name="Rectángulo 34706" width="2.305" height="54.176" transform="translate(49.896 22.668)" fill="#125e7f"/>
        <g id="Grupo_85880" data-name="Grupo 85880">
          <path id="Trazado_122133" data-name="Trazado 122133" d="M419.416,81.469h-54.5l-.12-1.19,88.084-46.092.12,1.19Z" transform="translate(-364.793 -34.187)" fill="#a5a5a5"/>
          <path id="Trazado_122134" data-name="Trazado 122134" d="M419.3,80.279h-54.5L408.15,34.187h44.728Z" transform="translate(-364.793 -34.187)" fill="#cacccb"/>
          <path id="Trazado_122135" data-name="Trazado 122135" d="M403.976,43.276H382.77l8.345-8.922h20.347Z" transform="translate(-346.947 -34.022)" fill="#125e7f"/>
          <path id="Trazado_122136" data-name="Trazado 122136" d="M415.556,43.276H394.349l7.41-8.922h20.347Z" transform="translate(-335.45 -34.022)" fill="#125e7f"/>
          <path id="Trazado_122137" data-name="Trazado 122137" d="M399.993,49.066H377.758l9.156-9.79h21.292Z" transform="translate(-351.922 -29.134)" fill="#125e7f"/>
          <path id="Trazado_122138" data-name="Trazado 122138" d="M412.134,49.066H389.9l8.13-9.79h21.292Z" transform="translate(-339.868 -29.134)" fill="#125e7f"/>
          <path id="Trazado_122139" data-name="Trazado 122139" d="M395.6,55.468H372.236l10.092-10.789h22.329Z" transform="translate(-357.405 -23.771)" fill="#125e7f"/>
          <path id="Trazado_122140" data-name="Trazado 122140" d="M408.364,55.468H385l8.961-10.789h22.329Z" transform="translate(-344.736 -23.771)" fill="#125e7f"/>
          <path id="Trazado_122141" data-name="Trazado 122141" d="M390.743,62.585H366.12L377.3,50.634H400.77Z" transform="translate(-363.476 -17.858)" fill="#125e7f"/>
          <path id="Trazado_122142" data-name="Trazado 122142" d="M404.188,62.585H379.566l9.926-11.951h23.472Z" transform="translate(-350.128 -17.858)" fill="#125e7f"/>
        </g>
      </g>
      <path id="Trazado_122143" data-name="Trazado 122143" d="M383.305,40.539h-4.067a4.767,4.767,0,0,0,.088-.883,4.716,4.716,0,0,0-4.715-4.717h-7.989a2.937,2.937,0,0,0-2.917-2.652h-3.928a3.675,3.675,0,0,0-3.294-2.065H341.155a3.67,3.67,0,0,0-3.135,5.6h-11.9a3.979,3.979,0,1,0,0,7.957h.149a3.791,3.791,0,0,0-.3,1.475,3.832,3.832,0,0,0,3.832,3.832h10.612a3.829,3.829,0,0,0,3.535-2.357h5.789a4.864,4.864,0,0,0,4.677,3.535h28.886a4.863,4.863,0,1,0,0-9.727Z" transform="translate(11.702 21.66)" fill="#adc8e3"/>
      <g id="Grupo_85883" data-name="Grupo 85883" transform="translate(400.456 8.405)">
        <path id="Trazado_122144" data-name="Trazado 122144" d="M399.517,41.175a18.848,18.848,0,0,0,.911-3.434l7.595-2.876-7.609-3.43a18.631,18.631,0,0,0-.927-3.43l5.139-6.285-8.286.833a18.96,18.96,0,0,0-2.533-2.525l1.3-8-6.772,4.874A18.837,18.837,0,0,0,384.906,16l-2.878-7.595L378.6,16.012a18.8,18.8,0,0,0-3.43.929L368.884,11.8l.833,8.284a19.065,19.065,0,0,0-2.523,2.535l-8-1.3,4.874,6.772a18.681,18.681,0,0,0-.909,3.434l-7.6,2.876,7.608,3.43a18.956,18.956,0,0,0,.927,3.43l-5.137,6.285,8.284-.833a19.074,19.074,0,0,0,2.533,2.525l-1.3,8,6.774-4.874a18.794,18.794,0,0,0,3.434.909l2.876,7.595,3.43-7.609a18.831,18.831,0,0,0,3.43-.925l6.285,5.137-.833-8.286a18.958,18.958,0,0,0,2.525-2.533l7.993,1.305Z" transform="translate(-355.568 -8.405)" fill="#ffef24"/>
        <g id="Grupo_85882" data-name="Grupo 85882" transform="translate(12.911 12.17)">
          <path id="Trazado_122145" data-name="Trazado 122145" d="M394,31.678,401.59,28.8l-7.609-3.43a18.626,18.626,0,0,0-.927-3.43l5.139-6.285-8.286.833a18.805,18.805,0,0,0-1.985-1.979,24.59,24.59,0,0,1-24.486,28.326c-.149,0-.293-.018-.442-.022.126.11.225.249.355.355l-1.3,8,6.774-4.874a18.8,18.8,0,0,0,3.434.909l2.876,7.595,3.43-7.609a18.831,18.831,0,0,0,3.43-.925l6.285,5.137-.833-8.286a18.958,18.958,0,0,0,2.525-2.533l7.993,1.305-4.874-6.774A18.846,18.846,0,0,0,394,31.678Z" transform="translate(-362.047 -14.512)" fill="#ffbc27"/>
        </g>
      </g>
    </g>
  </g>
</svg>
