<svg xmlns="http://www.w3.org/2000/svg" width="298.063" height="346" viewBox="0 0 298.063 346">
  <g id="Grupo_86302" data-name="Grupo 86302" transform="translate(-650.969 -6805.023)">
    <rect id="Rectángulo_34751" data-name="Rectángulo 34751" width="298.063" height="346" rx="20" transform="translate(650.969 6805.023)" fill="#ffe9e1"/>
    <path id="Rectángulo_34759" data-name="Rectángulo 34759" d="M0,0H298.063a0,0,0,0,1,0,0V24a20,20,0,0,1-20,20H20A20,20,0,0,1,0,24V0A0,0,0,0,1,0,0Z" transform="translate(650.969 7107.023)" fill="#adce32"/>
    <path id="Trazado_122762" data-name="Trazado 122762" d="M-33.77-4.828h-4.312v2.719h5.094V0h-7.836V-11.375h7.852v2.117h-5.109v2.4h4.313Zm5.2,2.953a1.171,1.171,0,0,0,.859-.3,1.1,1.1,0,0,0,.3-.84h2.469a2.922,2.922,0,0,1-1,2.281A3.705,3.705,0,0,1-28.5.156,3.751,3.751,0,0,1-31.41-1a4.556,4.556,0,0,1-1.062-3.2v-.109A5.149,5.149,0,0,1-32-6.574a3.441,3.441,0,0,1,1.363-1.508,4.065,4.065,0,0,1,2.109-.527A3.658,3.658,0,0,1-25.91-7.7a3.242,3.242,0,0,1,.969,2.477H-27.41a1.445,1.445,0,0,0-.32-1.008,1.106,1.106,0,0,0-.859-.352q-1.023,0-1.2,1.3a9.206,9.206,0,0,0-.055,1.141,3.616,3.616,0,0,0,.3,1.766A1.055,1.055,0,0,0-28.566-1.875ZM-24.16-4.3a4.989,4.989,0,0,1,.492-2.254,3.52,3.52,0,0,1,1.414-1.52,4.259,4.259,0,0,1,2.164-.531A3.887,3.887,0,0,1-17.1-7.434,4.512,4.512,0,0,1-16-4.234v.094A4.378,4.378,0,0,1-17.1-1,3.9,3.9,0,0,1-20.074.156a3.942,3.942,0,0,1-2.9-1.082,4.232,4.232,0,0,1-1.18-2.934Zm2.633.164a3.145,3.145,0,0,0,.367,1.719,1.223,1.223,0,0,0,1.086.547q1.406,0,1.438-2.164V-4.3q0-2.273-1.453-2.273-1.32,0-1.43,1.961Zm11.109,1.766a.608.608,0,0,0-.352-.539,5.348,5.348,0,0,0-1.336-.422A6.092,6.092,0,0,1-13.73-3.91a2.722,2.722,0,0,1-.977-.863,2.061,2.061,0,0,1-.336-1.164,2.336,2.336,0,0,1,.961-1.918,3.958,3.958,0,0,1,2.516-.754,4.386,4.386,0,0,1,2.688.758A2.37,2.37,0,0,1-7.863-5.859H-10.5q0-1.016-1.07-1.016a1.061,1.061,0,0,0-.7.23.714.714,0,0,0-.281.574.655.655,0,0,0,.344.57,3.248,3.248,0,0,0,1.1.359A9.485,9.485,0,0,1-9.785-4.8,2.406,2.406,0,0,1-7.879-2.453,2.214,2.214,0,0,1-8.906-.57a4.505,4.505,0,0,1-2.66.727A4.6,4.6,0,0,1-13.5-.234,3.24,3.24,0,0,1-14.832-1.3a2.406,2.406,0,0,1-.477-1.414h2.461a1.017,1.017,0,0,0,.391.855,1.607,1.607,0,0,0,.961.27,1.264,1.264,0,0,0,.809-.219A.7.7,0,0,0-10.418-2.375ZM-3.871,0H-6.512V-8.453h2.641Zm-2.8-10.633a1.175,1.175,0,0,1,.406-.922,1.533,1.533,0,0,1,1.055-.359,1.533,1.533,0,0,1,1.055.359,1.175,1.175,0,0,1,.406.922,1.175,1.175,0,0,1-.406.922,1.533,1.533,0,0,1-1.055.359,1.533,1.533,0,0,1-1.055-.359A1.175,1.175,0,0,1-6.668-10.633ZM2.176-2.375a.608.608,0,0,0-.352-.539A5.348,5.348,0,0,0,.488-3.336,6.092,6.092,0,0,1-1.137-3.91a2.722,2.722,0,0,1-.977-.863,2.061,2.061,0,0,1-.336-1.164,2.336,2.336,0,0,1,.961-1.918,3.958,3.958,0,0,1,2.516-.754,4.386,4.386,0,0,1,2.688.758A2.37,2.37,0,0,1,4.73-5.859H2.09q0-1.016-1.07-1.016a1.061,1.061,0,0,0-.7.23.714.714,0,0,0-.281.574.655.655,0,0,0,.344.57,3.248,3.248,0,0,0,1.1.359A9.485,9.485,0,0,1,2.809-4.8,2.406,2.406,0,0,1,4.715-2.453,2.214,2.214,0,0,1,3.688-.57a4.505,4.505,0,0,1-2.66.727A4.6,4.6,0,0,1-.91-.234,3.24,3.24,0,0,1-2.238-1.3a2.406,2.406,0,0,1-.477-1.414H-.254a1.017,1.017,0,0,0,.391.855,1.607,1.607,0,0,0,.961.27A1.264,1.264,0,0,0,1.906-1.8.7.7,0,0,0,2.176-2.375Zm6.836-8.18v2.1H10.4v1.828H9.012v3.867a.987.987,0,0,0,.172.664.922.922,0,0,0,.68.188,3.862,3.862,0,0,0,.656-.047V-.07A4.859,4.859,0,0,1,9.035.156,2.758,2.758,0,0,1,7.027-.484,2.626,2.626,0,0,1,6.379-2.43v-4.2H5.3V-8.453H6.379v-2.1ZM15.527.156A4.345,4.345,0,0,1,12.379-1a4.006,4.006,0,0,1-1.2-3.02v-.219a5.191,5.191,0,0,1,.48-2.289,3.516,3.516,0,0,1,1.4-1.535,4.233,4.233,0,0,1,2.188-.543A3.659,3.659,0,0,1,18.059-7.5,4.344,4.344,0,0,1,19.09-4.422V-3.4H13.855a1.9,1.9,0,0,0,.617,1.117,1.836,1.836,0,0,0,1.234.406A2.366,2.366,0,0,0,17.66-2.75l1.2,1.422A3.363,3.363,0,0,1,17.469-.246,4.713,4.713,0,0,1,15.527.156Zm-.3-6.734q-1.156,0-1.375,1.531h2.656v-.2a1.3,1.3,0,0,0-.32-.98A1.275,1.275,0,0,0,15.23-6.578Zm7.406-1.875.086.992a2.906,2.906,0,0,1,2.414-1.148A2.14,2.14,0,0,1,27.3-7.336a2.813,2.813,0,0,1,2.484-1.273q2.57,0,2.641,3.109V0H29.785V-5.336a1.611,1.611,0,0,0-.219-.945.931.931,0,0,0-.8-.3,1.247,1.247,0,0,0-1.164.7l.008.109V0H24.973V-5.32a1.694,1.694,0,0,0-.211-.961.929.929,0,0,0-.8-.3,1.263,1.263,0,0,0-1.156.7V0H20.168V-8.453ZM38.691,0a2.973,2.973,0,0,1-.25-.758A2.448,2.448,0,0,1,36.41.156a3,3,0,0,1-2.031-.723,2.3,2.3,0,0,1-.836-1.816,2.364,2.364,0,0,1,1.016-2.078,5.174,5.174,0,0,1,2.953-.7h.813v-.448q0-1.17-1.008-1.17a.824.824,0,0,0-.937.926H33.746a2.36,2.36,0,0,1,1.043-1.99,4.383,4.383,0,0,1,2.66-.765A3.843,3.843,0,0,1,40-7.82a2.743,2.743,0,0,1,.961,2.164v3.742a3.832,3.832,0,0,0,.359,1.781V0ZM37.043-1.719a1.469,1.469,0,0,0,.816-.211,1.322,1.322,0,0,0,.465-.477V-3.758h-.766q-1.375,0-1.375,1.234a.754.754,0,0,0,.242.582A.876.876,0,0,0,37.043-1.719Z" transform="translate(801.969 7135.023)" fill="#12263f"/>
    <g id="Grupo_85996" data-name="Grupo 85996" transform="translate(634.977 6749.386)">
      <path id="Trazado_122146" data-name="Trazado 122146" d="M249.586,428.739c.354,0,.708.014,1.063.014a93.427,93.427,0,0,0,69.441-30.808h-70.5Z" transform="translate(-84.818 -110.451)" fill="#aaabb0"/>
      <path id="Trazado_122147" data-name="Trazado 122147" d="M206.862,428.739V397.945H138.484A93.419,93.419,0,0,0,206.862,428.739Z" transform="translate(-42.093 -110.451)" fill="#83b7be"/>
      <path id="Trazado_122148" data-name="Trazado 122148" d="M250.03,375.934h70.023a93.517,93.517,0,0,0,20.624-37.059H250.03Z" transform="translate(-84.989 -87.736)" fill="#c8c7c7"/>
      <path id="Trazado_122149" data-name="Trazado 122149" d="M125.259,375.934h68.859V338.875H104.635A93.51,93.51,0,0,0,125.259,375.934Z" transform="translate(-29.077 -87.736)" fill="#c5e2f2"/>
      <g id="Grupo_85888" data-name="Grupo 85888" transform="translate(35.237 197.63)">
        <g id="Grupo_85887" data-name="Grupo 85887" transform="translate(0)">
          <g id="Grupo_85886" data-name="Grupo 85886">
            <path id="Trazado_122150" data-name="Trazado 122150" d="M66.343,260.617l-.306,0a4.716,4.716,0,0,0-5.649-4.7,5.523,5.523,0,0,0-10.694.591,4.36,4.36,0,0,0-.572-.051,4.311,4.311,0,0,0-4.37,4.128,7.934,7.934,0,0,0-5.633,5.577l33.634.519C71.936,263.257,70.011,260.672,66.343,260.617Z" transform="translate(-39.119 -251.971)" fill="#b8e3ff"/>
            <g id="Grupo_85885" data-name="Grupo 85885" transform="translate(0.003)">
              <path id="Trazado_122151" data-name="Trazado 122151" d="M61.948,251.932a5.525,5.525,0,0,0-5.534,4.431,4.31,4.31,0,0,1,3.635,3.943l7.063-4.461A5.527,5.527,0,0,0,61.948,251.932Z" transform="translate(-45.773 -251.931)" fill="#b8e3ff"/>
              <path id="Trazado_122152" data-name="Trazado 122152" d="M48.34,263.139l4.969-4.042a4.355,4.355,0,0,0-.572-.055A4.31,4.31,0,0,0,48.34,263.139Z" transform="translate(-42.668 -254.665)" fill="#b8e3ff"/>
              <path id="Trazado_122153" data-name="Trazado 122153" d="M56.414,259.132l3.635,3.943A4.31,4.31,0,0,0,56.414,259.132Z" transform="translate(-45.773 -254.7)" fill="#b8e3ff"/>
              <path id="Trazado_122154" data-name="Trazado 122154" d="M74.4,258.151a4.739,4.739,0,0,0-1,.086l-.641,4.6,6.258.137A4.722,4.722,0,0,0,74.4,258.151Z" transform="translate(-52.057 -254.322)" fill="#b8e3ff"/>
              <path id="Trazado_122155" data-name="Trazado 122155" d="M66.386,265.885l-.306-.007-21.293-.057c0-.041.007-.081.009-.121a7.934,7.934,0,0,0-5.672,5.538L73.039,272C72.246,268.572,70.053,265.965,66.386,265.885Z" transform="translate(-39.124 -257.226)" fill="#b8e3ff"/>
              <path id="Trazado_122156" data-name="Trazado 122156" d="M61.616,267.755a4.288,4.288,0,0,0,.445-1.808c0-.138,0-.274-.012-.409Z" transform="translate(-47.773 -257.164)" fill="#b8e3ff"/>
              <path id="Trazado_122157" data-name="Trazado 122157" d="M61.616,267.755a4.288,4.288,0,0,0,.445-1.808c0-.138,0-.274-.012-.409Z" transform="translate(-47.773 -257.164)" fill="#b8e3ff"/>
            </g>
          </g>
          <path id="Trazado_122158" data-name="Trazado 122158" d="M56.413,259.385s2.942.955,2.8,3.7a3.959,3.959,0,0,1-2.8,3.7,3.7,3.7,0,1,0,0-7.4Z" transform="translate(-45.769 -254.797)" fill="#c6e9ff"/>
        </g>
        <path id="Trazado_122159" data-name="Trazado 122159" d="M81.606,266.422a5.46,5.46,0,0,0-5.54,5.377s1.464-4.588,5.509-4.31a5.99,5.99,0,0,1,5.408,4.473A5.459,5.459,0,0,0,81.606,266.422Z" transform="translate(-53.327 -257.503)" fill="#c6e9ff"/>
      </g>
      <g id="Grupo_85890" data-name="Grupo 85890" transform="translate(98.65 160.92)">
        <g id="Grupo_85889" data-name="Grupo 85889" transform="translate(0.028)">
          <path id="Trazado_122160" data-name="Trazado 122160" d="M177.52,203.063a5.4,5.4,0,0,0-6.233-5.142,6.966,6.966,0,0,0-13.489-.746,5.949,5.949,0,0,0-7.125,5.926l-.386.006c-4.626.069-7.054,3.331-8.085,7.645l42.424-.654A10.009,10.009,0,0,0,177.52,203.063Z" transform="translate(-142.202 -192.284)" fill="#b8e3ff"/>
        </g>
        <path id="Trazado_122161" data-name="Trazado 122161" d="M186.4,201.554a4.665,4.665,0,1,0,0,9.33,5,5,0,0,1-3.526-4.665C182.693,202.759,186.4,201.554,186.4,201.554Z" transform="translate(-157.378 -195.849)" fill="#c6e9ff"/>
        <path id="Trazado_122162" data-name="Trazado 122162" d="M148.939,210.43a6.885,6.885,0,0,0-6.782,6.988,7.556,7.556,0,0,1,6.822-5.642c5.1-.35,6.948,5.436,6.948,5.436A6.886,6.886,0,0,0,148.939,210.43Z" transform="translate(-142.156 -199.261)" fill="#c6e9ff"/>
      </g>
      <g id="Grupo_85894" data-name="Grupo 85894" transform="translate(137.882 268.372)">
        <g id="Grupo_85891" data-name="Grupo 85891">
          <path id="Trazado_122163" data-name="Trazado 122163" d="M228.864,366.932l-.03-.032-.029.033a6.766,6.766,0,0,1-4.717,2.48h-.022a6.256,6.256,0,0,1-4.736-2.5l-.03-.037-.031.036a6.721,6.721,0,0,1-4.739,2.522h-.022a6.206,6.206,0,0,1-4.695-2.521l-.03-.038-.032.036a6.939,6.939,0,0,1-3.852,2.44l.015.079a6.985,6.985,0,0,0,3.866-2.43,6.274,6.274,0,0,0,4.727,2.513h.022A6.765,6.765,0,0,0,219.3,367a6.323,6.323,0,0,0,4.768,2.493h.022a6.636,6.636,0,0,0,4.746-2.473,7.2,7.2,0,0,0,4,2.409l.014-.079A7.151,7.151,0,0,1,228.864,366.932Z" transform="translate(-205.901 -366.875)" fill="#0076ce" stroke="#0065c4" stroke-miterlimit="10" stroke-width="0.283"/>
        </g>
        <g id="Grupo_85892" data-name="Grupo 85892" transform="translate(0 1.268)">
          <path id="Trazado_122164" data-name="Trazado 122164" d="M228.864,368.993l-.03-.032-.029.033a6.77,6.77,0,0,1-4.717,2.48h-.022a6.255,6.255,0,0,1-4.736-2.5l-.03-.037-.031.036a6.721,6.721,0,0,1-4.739,2.523h-.022a6.208,6.208,0,0,1-4.695-2.521l-.03-.038-.032.036a6.937,6.937,0,0,1-3.852,2.44l.015.079a6.986,6.986,0,0,0,3.866-2.43,6.276,6.276,0,0,0,4.727,2.513h.022a6.77,6.77,0,0,0,4.767-2.514,6.325,6.325,0,0,0,4.768,2.493h.022a6.637,6.637,0,0,0,4.746-2.474,7.2,7.2,0,0,0,4,2.41l.014-.079A7.154,7.154,0,0,1,228.864,368.993Z" transform="translate(-205.901 -368.936)" fill="#0076ce" stroke="#0065c4" stroke-miterlimit="10" stroke-width="0.283"/>
        </g>
        <g id="Grupo_85893" data-name="Grupo 85893" transform="translate(0 2.536)">
          <path id="Trazado_122165" data-name="Trazado 122165" d="M228.864,371.053l-.03-.032-.029.033a6.768,6.768,0,0,1-4.717,2.48h-.022a6.256,6.256,0,0,1-4.736-2.5L219.3,371l-.031.036a6.721,6.721,0,0,1-4.739,2.523h-.022a6.21,6.21,0,0,1-4.695-2.521l-.03-.038-.032.036a6.932,6.932,0,0,1-3.852,2.44l.015.079a6.986,6.986,0,0,0,3.866-2.43,6.274,6.274,0,0,0,4.727,2.513h.022a6.767,6.767,0,0,0,4.767-2.513,6.324,6.324,0,0,0,4.768,2.492h.022a6.636,6.636,0,0,0,4.746-2.473,7.037,7.037,0,0,0,4.216,2.44l.009-.079A6.989,6.989,0,0,1,228.864,371.053Z" transform="translate(-205.901 -370.996)" fill="#0076ce" stroke="#0065c4" stroke-miterlimit="10" stroke-width="0.283"/>
        </g>
      </g>
      <g id="Grupo_85898" data-name="Grupo 85898" transform="translate(165.041 268.372)">
        <g id="Grupo_85895" data-name="Grupo 85895">
          <path id="Trazado_122166" data-name="Trazado 122166" d="M272.993,366.932l-.03-.032-.03.033a6.766,6.766,0,0,1-4.717,2.48H268.2a6.256,6.256,0,0,1-4.736-2.5l-.03-.037-.031.036a6.721,6.721,0,0,1-4.739,2.522h-.022a6.206,6.206,0,0,1-4.695-2.521l-.03-.038-.032.036a6.939,6.939,0,0,1-3.852,2.44l.015.079a6.989,6.989,0,0,0,3.866-2.43,6.273,6.273,0,0,0,4.727,2.513h.022A6.767,6.767,0,0,0,263.428,367a6.321,6.321,0,0,0,4.768,2.493h.022a6.635,6.635,0,0,0,4.746-2.473,7.2,7.2,0,0,0,4,2.409l.013-.079A7.151,7.151,0,0,1,272.993,366.932Z" transform="translate(-250.03 -366.875)" fill="#424445" stroke="#424445" stroke-miterlimit="10" stroke-width="0.283"/>
        </g>
        <g id="Grupo_85896" data-name="Grupo 85896" transform="translate(0 1.268)">
          <path id="Trazado_122167" data-name="Trazado 122167" d="M272.993,368.993l-.03-.032-.03.033a6.77,6.77,0,0,1-4.717,2.48H268.2a6.255,6.255,0,0,1-4.736-2.5l-.03-.037-.031.036a6.721,6.721,0,0,1-4.739,2.523h-.022a6.206,6.206,0,0,1-4.695-2.521l-.03-.038-.032.036a6.937,6.937,0,0,1-3.852,2.44l.015.079a6.989,6.989,0,0,0,3.866-2.43,6.275,6.275,0,0,0,4.727,2.513h.022a6.771,6.771,0,0,0,4.768-2.514,6.323,6.323,0,0,0,4.768,2.493h.022a6.636,6.636,0,0,0,4.746-2.474,7.2,7.2,0,0,0,4,2.41l.013-.079A7.154,7.154,0,0,1,272.993,368.993Z" transform="translate(-250.03 -368.936)" fill="#424445" stroke="#424445" stroke-miterlimit="10" stroke-width="0.283"/>
        </g>
        <g id="Grupo_85897" data-name="Grupo 85897" transform="translate(0 2.536)">
          <path id="Trazado_122168" data-name="Trazado 122168" d="M272.993,371.053l-.03-.032-.03.033a6.768,6.768,0,0,1-4.717,2.48H268.2a6.256,6.256,0,0,1-4.736-2.5l-.03-.037-.031.036a6.721,6.721,0,0,1-4.739,2.523h-.022a6.21,6.21,0,0,1-4.695-2.521l-.03-.038-.032.036a6.932,6.932,0,0,1-3.852,2.44l.015.079a6.989,6.989,0,0,0,3.866-2.43,6.273,6.273,0,0,0,4.727,2.513h.022a6.769,6.769,0,0,0,4.768-2.513,6.322,6.322,0,0,0,4.768,2.492h.022a6.635,6.635,0,0,0,4.746-2.473,7.037,7.037,0,0,0,4.216,2.44l.01-.079A6.988,6.988,0,0,1,272.993,371.053Z" transform="translate(-250.03 -370.996)" fill="#424445" stroke="#424445" stroke-miterlimit="10" stroke-width="0.283"/>
        </g>
      </g>
      <g id="Grupo_85902" data-name="Grupo 85902" transform="translate(216.594 279.945)">
        <g id="Grupo_85899" data-name="Grupo 85899">
          <path id="Trazado_122169" data-name="Trazado 122169" d="M349.342,387.849h-.018a5.35,5.35,0,0,1-4.048-2.137l-.025-.032-.027.031a5.747,5.747,0,0,1-4.051,2.157h-.018a5.307,5.307,0,0,1-4.013-2.155l-.026-.032-.027.031A5.929,5.929,0,0,1,333.8,387.8l.013.067a5.972,5.972,0,0,0,3.3-2.077,5.362,5.362,0,0,0,4.04,2.148h.019a5.785,5.785,0,0,0,4.076-2.148,5.407,5.407,0,0,0,4.076,2.131h.018a3.94,3.94,0,0,0,.457-.033l-.012-.067A3.909,3.909,0,0,1,349.342,387.849Z" transform="translate(-333.795 -385.68)" fill="#424445" stroke="#424445" stroke-miterlimit="10" stroke-width="0.283"/>
        </g>
        <g id="Grupo_85900" data-name="Grupo 85900" transform="translate(0 1.084)">
          <path id="Trazado_122170" data-name="Trazado 122170" d="M349.342,389.61h-.018a5.348,5.348,0,0,1-4.048-2.137l-.025-.032-.027.031a5.747,5.747,0,0,1-4.051,2.157h-.018a5.3,5.3,0,0,1-4.013-2.155l-.026-.033-.027.031a5.93,5.93,0,0,1-3.293,2.086l.013.067a5.972,5.972,0,0,0,3.3-2.077,5.361,5.361,0,0,0,4.04,2.149h.019a5.785,5.785,0,0,0,4.076-2.149,5.405,5.405,0,0,0,4.076,2.131h.018a3.835,3.835,0,0,0,.488-.036v-.069A3.744,3.744,0,0,1,349.342,389.61Z" transform="translate(-333.795 -387.441)" fill="#424445" stroke="#424445" stroke-miterlimit="10" stroke-width="0.283"/>
        </g>
        <g id="Grupo_85901" data-name="Grupo 85901" transform="translate(0 2.168)">
          <path id="Trazado_122171" data-name="Trazado 122171" d="M349.323,391.371a5.348,5.348,0,0,1-4.048-2.137l-.025-.031-.027.031a5.747,5.747,0,0,1-4.051,2.156h-.018a5.3,5.3,0,0,1-4.013-2.155l-.026-.033-.027.031a5.928,5.928,0,0,1-3.293,2.085l.013.068a5.976,5.976,0,0,0,3.3-2.077,5.362,5.362,0,0,0,4.04,2.149h.019a5.785,5.785,0,0,0,4.076-2.149,5.406,5.406,0,0,0,4.076,2.13h.018a3.873,3.873,0,0,0,.484-.036c0-.023,0-.046,0-.069a3.8,3.8,0,0,1-.484.036Z" transform="translate(-333.795 -389.202)" fill="#424445" stroke="#424445" stroke-miterlimit="10" stroke-width="0.283"/>
        </g>
      </g>
      <g id="Grupo_85904" data-name="Grupo 85904" transform="translate(80.166 135.623)">
        <path id="Trazado_122172" data-name="Trazado 122172" d="M144.677,159.481a3.42,3.42,0,0,0-1.826.528,4.592,4.592,0,0,0-6.713-3.338,9.526,9.526,0,0,0-17.434.431,5.853,5.853,0,0,0-6.427,7.152h28.962c.066-.055.135-.109.2-.168.02.057.044.113.068.168h6.35a3.445,3.445,0,0,0-3.178-4.773Z" transform="translate(-112.121 -151.186)" fill="#c6e9ff"/>
        <g id="Grupo_85903" data-name="Grupo 85903">
          <path id="Trazado_122173" data-name="Trazado 122173" d="M131.629,151.18a9.526,9.526,0,0,0-8.812,5.908,5.868,5.868,0,0,1,5.157,5.823l12.277-6.254A9.525,9.525,0,0,0,131.629,151.18Z" transform="translate(-116.234 -151.18)" fill="#c6e9ff"/>
          <path id="Trazado_122174" data-name="Trazado 122174" d="M112.121,166.572l6.583-5.823a5.84,5.84,0,0,0-6.583,5.823Z" transform="translate(-112.121 -154.842)" fill="#c6e9ff"/>
          <path id="Trazado_122175" data-name="Trazado 122175" d="M122.817,160.779l5.157,5.823A5.868,5.868,0,0,0,122.817,160.779Z" transform="translate(-116.234 -154.871)" fill="#c6e9ff"/>
          <path id="Trazado_122176" data-name="Trazado 122176" d="M153.322,159.188a4.577,4.577,0,0,0-2.177.548l6.713,3.338A4.594,4.594,0,0,0,153.322,159.188Z" transform="translate(-127.128 -154.259)" fill="#c6e9ff"/>
        </g>
      </g>
      <g id="Grupo_85906" data-name="Grupo 85906" transform="translate(123.033 111.316)">
        <path id="Trazado_122177" data-name="Trazado 122177" d="M198.486,114.945a3.218,3.218,0,0,0-.4.026,5.284,5.284,0,0,0-9.671-.239,2.546,2.546,0,0,0-3.723,1.851,1.91,1.91,0,0,0-2.776,2.355h3.522c.014-.031.026-.062.038-.093.036.033.073.062.11.093h16.064a3.245,3.245,0,0,0-3.169-3.993Z" transform="translate(-181.773 -111.689)" fill="#fff"/>
        <g id="Grupo_85905" data-name="Grupo 85905" transform="translate(2.924)">
          <path id="Trazado_122178" data-name="Trazado 122178" d="M197.356,111.686a5.284,5.284,0,0,0-4.783,3.038l6.81,3.469a3.254,3.254,0,0,1,2.861-3.229A5.284,5.284,0,0,0,197.356,111.686Z" transform="translate(-188.85 -111.686)" fill="#fff"/>
          <path id="Trazado_122179" data-name="Trazado 122179" d="M208.681,116.968a3.218,3.218,0,0,0-.4.026l3.651,3.229A3.256,3.256,0,0,0,208.681,116.968Z" transform="translate(-194.893 -113.717)" fill="#fff"/>
          <path id="Trazado_122180" data-name="Trazado 122180" d="M203.638,120.24l2.861-3.229A3.254,3.254,0,0,0,203.638,120.24Z" transform="translate(-193.105 -113.734)" fill="#fff"/>
          <path id="Trazado_122181" data-name="Trazado 122181" d="M186.524,118.283l3.723-1.851a2.547,2.547,0,0,0-3.723,1.851Z" transform="translate(-186.524 -113.394)" fill="#fff"/>
        </g>
      </g>
      <path id="Trazado_122182" data-name="Trazado 122182" d="M82.864,200.608a4.155,4.155,0,0,0-1.384.24,8.144,8.144,0,0,0-16.258-.118,3.257,3.257,0,0,0-2.369,4.329H87.017c.006-.095.014-.188.014-.284A4.167,4.167,0,0,0,82.864,200.608Z" transform="translate(-12.929 -31.688)" fill="#fff"/>
      <path id="Trazado_122183" data-name="Trazado 122183" d="M395.24,234.737a3,3,0,0,0-1,.174,5.892,5.892,0,0,0-11.763-.086,2.356,2.356,0,0,0-1.714,3.132h17.483c0-.068.01-.136.01-.206A3.015,3.015,0,0,0,395.24,234.737Z" transform="translate(-135.204 -45.608)" fill="#c8c7c7"/>
      <path id="Trazado_122184" data-name="Trazado 122184" d="M110.4,156.317a11.023,11.023,0,0,0-22.007.16,5.629,5.629,0,0,0-7.514,5.316c0,.129.011.257.02.384h32.709a4.409,4.409,0,0,0-3.208-5.86Z" transform="translate(-19.941 -13.575)" fill="#b8e3ff"/>
      <g id="Grupo_85909" data-name="Grupo 85909" transform="translate(50.649 186.903)">
        <g id="Grupo_85908" data-name="Grupo 85908">
          <g id="Grupo_85907" data-name="Grupo 85907">
            <path id="Trazado_122185" data-name="Trazado 122185" d="M94.438,259.487a1.826,1.826,0,0,1-1.819-1.819v-6.015a1.816,1.816,0,0,0-3.631,0v1.957A1.69,1.69,0,0,1,87.3,255.29H87.14a1.685,1.685,0,0,1-1.66-1.448L64.788,283.155c-1.433,2.032-.269,5.065,2.081,5.236.076.007.158.007.234.007H131c.082,0,.158,0,.234-.007,2.349-.172,3.514-3.211,2.073-5.236l-22.649-31.847v4.044a1.687,1.687,0,0,1-1.681,1.681h-.159a1.689,1.689,0,0,1-1.688-1.681v-4.83a1.816,1.816,0,0,0-3.631,0v6.457a1.811,1.811,0,0,1-3.618.145v-3.287a1.819,1.819,0,0,0-3.638,0v3.831A1.821,1.821,0,0,1,94.438,259.487Z" transform="translate(-64.162 -239.966)" fill="#fff"/>
            <path id="Trazado_122186" data-name="Trazado 122186" d="M107.678,252.2a1.816,1.816,0,1,0,3.631,0v-3.831a1.819,1.819,0,0,1,3.638,0v3.287a1.811,1.811,0,0,0,3.618-.145v-6.457a1.816,1.816,0,0,1,3.631,0v4.83a1.689,1.689,0,0,0,1.688,1.681h.159a1.688,1.688,0,0,0,1.681-1.681v-4.044l-5.857-8.234a7.148,7.148,0,0,0-5.815-3.108,7.308,7.308,0,0,0-5.967,3.2l-4.762,6.746,1.034.73a1.816,1.816,0,0,1,3.321,1.013Z" transform="translate(-79.221 -234.502)" fill="#fff"/>
          </g>
        </g>
        <path id="Trazado_122187" data-name="Trazado 122187" d="M126.452,289.024h-54.8l-6.8,9.639c-1.43,2.025-.266,5.053,2.08,5.227.076.006.154.009.231.009H131c.078,0,.156,0,.232-.009,2.347-.174,3.507-3.208,2.07-5.229Z" transform="translate(-64.185 -255.469)" fill="#007980"/>
      </g>
      <g id="Grupo_85912" data-name="Grupo 85912" transform="translate(91.439 168.702)">
        <g id="Grupo_85911" data-name="Grupo 85911">
          <g id="Grupo_85910" data-name="Grupo 85910">
            <path id="Trazado_122188" data-name="Trazado 122188" d="M186.148,227.032a2.694,2.694,0,0,0-5.388,0v5.684a2.694,2.694,0,0,1-5.388,0h.021V221.829a2.689,2.689,0,0,0-4.6-1.9,2.676,2.676,0,0,0-.792,1.9v15.855a2.694,2.694,0,1,1-5.388,0v-14.8L131.3,270.076c-1.977,2.8-.366,6.987,2.88,7.228.1.007.214.014.317.014h88.306c.11,0,.214-.007.317-.014,3.252-.241,4.851-4.437,2.866-7.228l-34.445-48.453v14.325a2.7,2.7,0,0,1-5.4,0Z" transform="translate(-130.438 -210.391)" fill="#fff"/>
            <path id="Trazado_122189" data-name="Trazado 122189" d="M202.909,219.667a2.689,2.689,0,0,1,4.6,1.9v8.916a2.7,2.7,0,0,0,5.4,0V216.159l-4.94-6.939a9.891,9.891,0,0,0-8.041-4.293,10.138,10.138,0,0,0-8.248,4.417l-5.7,8.075v14.8a2.694,2.694,0,0,0,5.388,0V216.366a2.706,2.706,0,0,1,2.694-2.694,2.7,2.7,0,0,1,2.694,2.694v10.887h-.021a2.694,2.694,0,0,0,5.388,0v-5.684A2.689,2.689,0,0,1,202.909,219.667Z" transform="translate(-151.794 -204.928)" fill="#83b7be"/>
          </g>
        </g>
        <path id="Trazado_122190" data-name="Trazado 122190" d="M216.514,280.241h-75.8l-9.411,13.332c-1.977,2.8-.368,6.99,2.876,7.23.106.008.213.012.321.012h88.3q.162,0,.321-.012c3.246-.241,4.851-4.437,2.863-7.233Z" transform="translate(-130.44 -233.89)" fill="#62898f"/>
      </g>
      <g id="Grupo_85924" data-name="Grupo 85924" transform="translate(178.383 195.826)">
        <rect id="Rectángulo_34707" data-name="Rectángulo 34707" width="33.011" height="40.024" transform="translate(0.196)" fill="#615654"/>
        <rect id="Rectángulo_34708" data-name="Rectángulo 34708" width="33.011" height="2.032" transform="translate(0.196 14.396)" fill="#d9cbca"/>
        <rect id="Rectángulo_34709" data-name="Rectángulo 34709" width="33.011" height="6.964" transform="translate(0.196 21.894)" fill="#d9cbca"/>
        <g id="Grupo_85923" data-name="Grupo 85923" transform="translate(0 21.61)">
          <g id="Grupo_85913" data-name="Grupo 85913" transform="translate(23.858)">
            <path id="Trazado_122191" data-name="Trazado 122191" d="M310.472,291.556h4.068v-7.443h-4.068Zm.391-7.054h3.285v6.665h-3.285Z" transform="translate(-310.472 -284.113)" fill="#615654"/>
          </g>
          <g id="Grupo_85914" data-name="Grupo 85914" transform="translate(16.506)">
            <path id="Trazado_122192" data-name="Trazado 122192" d="M298.526,291.556h4.068v-7.443h-4.068Zm.391-7.054H302.2v6.665h-3.285Z" transform="translate(-298.526 -284.113)" fill="#615654"/>
          </g>
          <g id="Grupo_85915" data-name="Grupo 85915" transform="translate(31.211)">
            <path id="Trazado_122193" data-name="Trazado 122193" d="M322.419,291.556h2.192v-7.443h-2.192Zm.391-7.054h1.409v6.665H322.81Z" transform="translate(-322.419 -284.113)" fill="#615654"/>
          </g>
          <g id="Grupo_85916" data-name="Grupo 85916" transform="translate(27.535)">
            <path id="Trazado_122194" data-name="Trazado 122194" d="M316.446,291.556h4.068v-7.443h-4.068Zm.391-7.054h3.285v6.665h-3.285Z" transform="translate(-316.446 -284.113)" fill="#615654"/>
          </g>
          <g id="Grupo_85917" data-name="Grupo 85917" transform="translate(20.182)">
            <path id="Trazado_122195" data-name="Trazado 122195" d="M304.5,291.556h4.068v-7.443H304.5Zm.391-7.054h3.285v6.665H304.89Z" transform="translate(-304.499 -284.113)" fill="#615654"/>
          </g>
          <g id="Grupo_85918" data-name="Grupo 85918">
            <path id="Trazado_122196" data-name="Trazado 122196" d="M271.707,291.556H273.9v-7.443h-2.192Zm.391-7.054h1.409v6.665H272.1Z" transform="translate(-271.707 -284.113)" fill="#615654"/>
          </g>
          <g id="Grupo_85919" data-name="Grupo 85919" transform="translate(1.8)">
            <path id="Trazado_122197" data-name="Trazado 122197" d="M274.632,291.556H278.7v-7.443h-4.068Zm.391-7.054h3.285v6.665h-3.285Z" transform="translate(-274.632 -284.113)" fill="#615654"/>
          </g>
          <g id="Grupo_85920" data-name="Grupo 85920" transform="translate(5.476)">
            <path id="Trazado_122198" data-name="Trazado 122198" d="M280.605,291.556h4.067v-7.443h-4.067ZM281,284.5h3.285v6.665H281Z" transform="translate(-280.605 -284.113)" fill="#615654"/>
          </g>
          <g id="Grupo_85921" data-name="Grupo 85921" transform="translate(12.828)">
            <path id="Trazado_122199" data-name="Trazado 122199" d="M292.551,291.556h4.068v-7.443h-4.068Zm.391-7.054h3.286v6.665h-3.286Z" transform="translate(-292.551 -284.113)" fill="#615654"/>
          </g>
          <g id="Grupo_85922" data-name="Grupo 85922" transform="translate(9.152)">
            <path id="Trazado_122200" data-name="Trazado 122200" d="M286.578,291.556h4.068v-7.443h-4.068Zm.391-7.054h3.285v6.665h-3.285Z" transform="translate(-286.578 -284.113)" fill="#615654"/>
          </g>
        </g>
      </g>
      <g id="Grupo_85926" data-name="Grupo 85926" transform="translate(188.3 173.23)">
        <path id="Trazado_122201" data-name="Trazado 122201" d="M290.627,212.286l-2.805,62.5,10.383.123-1.325-62.546Z" transform="translate(-287.822 -212.286)" fill="#a3a1a1"/>
        <path id="Trazado_122202" data-name="Trazado 122202" d="M287.822,274.883l5.191.061.74-62.522-3.126-.037Z" transform="translate(-287.822 -212.324)" fill="#757474"/>
        <g id="Grupo_85925" data-name="Grupo 85925" transform="translate(1.542 15.078)">
          <path id="Trazado_122203" data-name="Trazado 122203" d="M294.827,236.828l-3.585-.042-.163,3.628,3.7.044,3.7.044-.077-3.631Z" transform="translate(-290.616 -236.786)" fill="#edecec"/>
          <path id="Trazado_122204" data-name="Trazado 122204" d="M294.437,250.616l-3.873-.046-.238,5.3,4.048.048,4.048.048-.112-5.309Z" transform="translate(-290.326 -242.086)" fill="#edecec"/>
        </g>
      </g>
      <path id="Trazado_122205" data-name="Trazado 122205" d="M227.1,148.58a6.844,6.844,0,0,0-7.718,6.826h0v.011a6.873,6.873,0,0,0,.184,1.558H238.54V141.714c-.364-.036-.732-.06-1.105-.06A11.168,11.168,0,0,0,227.1,148.58Z" transform="translate(-73.204 -11.894)" fill="#b8e3ff"/>
      <path id="Trazado_122206" data-name="Trazado 122206" d="M269.322,151.339a4.055,4.055,0,0,0-2.163.625l0-.012h0A5.437,5.437,0,0,0,259.21,148a11.284,11.284,0,0,0-9.094-6.425v15.416h15.135c.079-.066.159-.129.234-.2.025.068.053.134.081.2h7.52a4.081,4.081,0,0,0-3.764-5.654Z" transform="translate(-85.022 -11.865)" fill="#95969c"/>
      <g id="Grupo_85932" data-name="Grupo 85932" transform="translate(235.252 200.457)">
        <g id="Grupo_85927" data-name="Grupo 85927" transform="translate(1.559 0.737)">
          <rect id="Rectángulo_34710" data-name="Rectángulo 34710" width="37.274" height="34.581" fill="#747176"/>
          <rect id="Rectángulo_34711" data-name="Rectángulo 34711" width="9.267" height="34.581" transform="translate(28.031 0.076)" fill="#a3a1a1"/>
        </g>
        <path id="Trazado_122207" data-name="Trazado 122207" d="M403.706,256.525H364.847a.737.737,0,0,0,0,1.474h38.859a.737.737,0,0,0,0-1.474Z" transform="translate(-364.11 -256.525)" fill="#525151"/>
        <g id="Grupo_85931" data-name="Grupo 85931" transform="translate(4.156 7.43)">
          <g id="Grupo_85928" data-name="Grupo 85928">
            <rect id="Rectángulo_34712" data-name="Rectángulo 34712" width="2.331" height="3.463" transform="translate(29.797)" fill="#edecec"/>
            <rect id="Rectángulo_34713" data-name="Rectángulo 34713" width="2.331" height="3.463" transform="translate(25.54)" fill="#edecec"/>
            <rect id="Rectángulo_34714" data-name="Rectángulo 34714" width="2.331" height="3.463" transform="translate(21.284)" fill="#edecec"/>
            <rect id="Rectángulo_34715" data-name="Rectángulo 34715" width="2.331" height="3.463" transform="translate(17.027)" fill="#edecec"/>
            <rect id="Rectángulo_34716" data-name="Rectángulo 34716" width="2.331" height="3.463" transform="translate(12.77)" fill="#edecec"/>
            <rect id="Rectángulo_34717" data-name="Rectángulo 34717" width="2.331" height="3.463" transform="translate(8.513)" fill="#edecec"/>
            <rect id="Rectángulo_34718" data-name="Rectángulo 34718" width="2.331" height="3.463" transform="translate(4.257)" fill="#edecec"/>
            <rect id="Rectángulo_34719" data-name="Rectángulo 34719" width="2.331" height="3.463" fill="#edecec"/>
          </g>
          <g id="Grupo_85929" data-name="Grupo 85929" transform="translate(0 6.657)">
            <rect id="Rectángulo_34720" data-name="Rectángulo 34720" width="2.331" height="3.463" transform="translate(29.797)" fill="#edecec"/>
            <rect id="Rectángulo_34721" data-name="Rectángulo 34721" width="2.331" height="3.463" transform="translate(25.54)" fill="#edecec"/>
            <rect id="Rectángulo_34722" data-name="Rectángulo 34722" width="2.331" height="3.463" transform="translate(21.284)" fill="#edecec"/>
            <rect id="Rectángulo_34723" data-name="Rectángulo 34723" width="2.331" height="3.463" transform="translate(17.027)" fill="#edecec"/>
            <rect id="Rectángulo_34724" data-name="Rectángulo 34724" width="2.331" height="3.463" transform="translate(12.77)" fill="#edecec"/>
            <rect id="Rectángulo_34725" data-name="Rectángulo 34725" width="2.331" height="3.463" transform="translate(8.513)" fill="#edecec"/>
            <rect id="Rectángulo_34726" data-name="Rectángulo 34726" width="2.331" height="3.463" transform="translate(4.257)" fill="#edecec"/>
            <rect id="Rectángulo_34727" data-name="Rectángulo 34727" width="2.331" height="3.463" fill="#edecec"/>
          </g>
          <g id="Grupo_85930" data-name="Grupo 85930" transform="translate(0 13.313)">
            <rect id="Rectángulo_34728" data-name="Rectángulo 34728" width="2.331" height="3.463" transform="translate(29.797)" fill="#edecec"/>
            <rect id="Rectángulo_34729" data-name="Rectángulo 34729" width="2.331" height="3.463" transform="translate(25.54)" fill="#edecec"/>
            <rect id="Rectángulo_34730" data-name="Rectángulo 34730" width="2.331" height="3.463" transform="translate(21.284)" fill="#edecec"/>
            <rect id="Rectángulo_34731" data-name="Rectángulo 34731" width="2.331" height="3.463" transform="translate(17.027)" fill="#edecec"/>
            <rect id="Rectángulo_34732" data-name="Rectángulo 34732" width="2.331" height="3.463" transform="translate(12.77)" fill="#edecec"/>
            <rect id="Rectángulo_34733" data-name="Rectángulo 34733" width="2.331" height="3.463" transform="translate(8.513)" fill="#edecec"/>
            <rect id="Rectángulo_34734" data-name="Rectángulo 34734" width="2.331" height="3.463" transform="translate(4.257)" fill="#edecec"/>
            <rect id="Rectángulo_34735" data-name="Rectángulo 34735" width="2.331" height="3.463" fill="#edecec"/>
          </g>
        </g>
        <rect id="Rectángulo_34736" data-name="Rectángulo 34736" width="37.298" height="2.236" transform="translate(1.517 32.789)" fill="#525151"/>
      </g>
      <g id="Grupo_85933" data-name="Grupo 85933" transform="translate(211.255 190.559)">
        <path id="Trazado_122208" data-name="Trazado 122208" d="M331.273,240.443s-1.934,40.248-6.153,45.291h30.938s-6.328-13.709-7.383-45.291Z" transform="translate(-325.12 -240.443)" fill="#7d6660"/>
        <path id="Trazado_122209" data-name="Trazado 122209" d="M350.254,240.443v45.291h15.469s-6.328-13.709-7.383-45.291Z" transform="translate(-334.785 -240.443)" fill="#97776c"/>
        <path id="Trazado_122210" data-name="Trazado 122210" d="M333.7,260.8l-.172,2.285h19.34l-.212-2.285Z" transform="translate(-328.354 -248.269)" fill="#624800"/>
        <path id="Trazado_122211" data-name="Trazado 122211" d="M332.431,275.362l-.23,2.3H353.47l-.328-2.3Z" transform="translate(-327.843 -253.871)" fill="#624800"/>
        <path id="Trazado_122212" data-name="Trazado 122212" d="M335.345,240.443l-.136,2.535,17.445.036-.1-2.572Z" transform="translate(-329 -240.443)" fill="#624800"/>
      </g>
      <g id="Grupo_85935" data-name="Grupo 85935" transform="translate(164.973 169.772)">
        <path id="Trazado_122213" data-name="Trazado 122213" d="M260.206,220.323a151.362,151.362,0,0,1-10.237-13.656l-.05,66.078h17.52s-.246-37.472-.7-39.989A26.051,26.051,0,0,0,260.206,220.323Z" transform="translate(-249.919 -206.667)" fill="#8f534a"/>
        <path id="Trazado_122214" data-name="Trazado 122214" d="M260.237,220.323A151.362,151.362,0,0,1,250,206.667l6.305,14.144c.267.6,4.863,9.837,4.916,19.619l.3,32.315h5.947s-.246-37.472-.7-39.989A26.052,26.052,0,0,0,260.237,220.323Z" transform="translate(-249.95 -206.667)" fill="#a5756e"/>
        <rect id="Rectángulo_34737" data-name="Rectángulo 34737" width="16.993" height="3.133" transform="translate(0.034 27.278)" fill="#bfa8a6"/>
        <g id="Grupo_85934" data-name="Grupo 85934" transform="translate(0 36.159)">
          <rect id="Rectángulo_34738" data-name="Rectángulo 34738" width="17.244" height="0.752" fill="#bfa8a6"/>
          <rect id="Rectángulo_34739" data-name="Rectángulo 34739" width="17.244" height="0.752" transform="translate(0 1.727)" fill="#bfa8a6"/>
          <rect id="Rectángulo_34740" data-name="Rectángulo 34740" width="17.244" height="0.752" transform="translate(0 3.455)" fill="#bfa8a6"/>
          <rect id="Rectángulo_34741" data-name="Rectángulo 34741" width="17.244" height="0.752" transform="translate(0 5.182)" fill="#bfa8a6"/>
          <rect id="Rectángulo_34742" data-name="Rectángulo 34742" width="17.244" height="0.752" transform="translate(0 6.91)" fill="#bfa8a6"/>
        </g>
      </g>
      <path id="Trazado_122215" data-name="Trazado 122215" d="M144.986,298.874c-10.415,0-19.219,3.8-22.106,9.026h44.212C164.2,302.676,155.4,298.874,144.986,298.874Z" transform="translate(-36.093 -72.353)" fill="#93b033"/>
      <g id="Grupo_85938" data-name="Grupo 85938" transform="translate(121.625 223.389)">
        <path id="Trazado_122216" data-name="Trazado 122216" d="M201.159,293.785c-10.212,0-18.843,5.173-21.674,12.283h43.349C220,298.958,211.371,293.785,201.159,293.785Z" transform="translate(-179.485 -293.785)" fill="#789c00"/>
        <g id="Grupo_85937" data-name="Grupo 85937" transform="translate(8.704 2.879)">
          <g id="Grupo_85936" data-name="Grupo 85936">
            <path id="Trazado_122217" data-name="Trazado 122217" d="M196.545,298.7c-2.037.6-3.259,2.1-2.833,3.029s2.121,1.033,3.872.519,3.108-1.513,2.966-2.525S198.582,298.1,196.545,298.7Z" transform="translate(-193.628 -298.463)" fill="#93b033"/>
            <path id="Trazado_122218" data-name="Trazado 122218" d="M208.933,299.433c-1.084.008-1.918.535-1.871,1.083s.889.915,1.886.908,1.839-.386,1.878-.935S210.016,299.425,208.933,299.433Z" transform="translate(-198.793 -298.836)" fill="#93b033"/>
          </g>
        </g>
      </g>
      <g id="Grupo_85941" data-name="Grupo 85941" transform="translate(79.826 219.076)">
        <path id="Trazado_122219" data-name="Trazado 122219" d="M119.246,290.16a3.383,3.383,0,1,0-6.765,0,3.462,3.462,0,0,0,.037.476,4.294,4.294,0,1,0,6.691,0A3.369,3.369,0,0,0,119.246,290.16Z" transform="translate(-111.57 -286.777)" fill="#dadf4d"/>
        <g id="Grupo_85940" data-name="Grupo 85940" transform="translate(2.27 4.964)">
          <g id="Grupo_85939" data-name="Grupo 85939" transform="translate(2.011)">
            <path id="Trazado_122220" data-name="Trazado 122220" d="M118.692,294.883l-.166,11.131a.164.164,0,0,0,.166.163h.022a.164.164,0,0,0,.166-.163s-.074-11.131-.166-11.131C118.714,294.883,118.692,294.792,118.692,294.883Z" transform="translate(-118.526 -294.843)" fill="#624800"/>
          </g>
          <path id="Trazado_122221" data-name="Trazado 122221" d="M116.259,300.291a5.073,5.073,0,0,1-1-.995c1.129,1.816,2.166,1.763,2.166,1.763l.022-.255S117.224,300.973,116.259,300.291Z" transform="translate(-115.259 -296.555)" fill="#624800"/>
          <path id="Trazado_122222" data-name="Trazado 122222" d="M119.823,299.342c-.82.58-1.009.436-1.009.436l.018.217s.881.045,1.84-1.5A4.318,4.318,0,0,1,119.823,299.342Z" transform="translate(-116.626 -296.248)" fill="#624800"/>
          <path id="Trazado_122223" data-name="Trazado 122223" d="M117.061,297.431a3.483,3.483,0,0,1-.686-.683c.774,1.246,1.486,1.209,1.486,1.209l.015-.175S117.723,297.9,117.061,297.431Z" transform="translate(-115.688 -295.575)" fill="#624800"/>
        </g>
      </g>
      <g id="Grupo_85944" data-name="Grupo 85944" transform="translate(148.613 200.374)">
        <path id="Trazado_122224" data-name="Trazado 122224" d="M233.1,256.84a3.049,3.049,0,0,0-3.189,0c-3.48,2.181-13.707,30.195,1.594,30.195C247.706,287.034,236.584,259.02,233.1,256.84Z" transform="translate(-223.337 -256.39)" fill="#33a257"/>
        <path id="Trazado_122225" data-name="Trazado 122225" d="M227.424,276.034c-.246-11.037,3.025-19.254,2.493-18.92-3.48,2.181-13.707,30.195,1.594,30.195C231.51,287.309,227.667,287,227.424,276.034Z" transform="translate(-223.337 -256.665)" fill="#00744c"/>
        <g id="Grupo_85943" data-name="Grupo 85943" transform="translate(2.821 13.921)">
          <g id="Grupo_85942" data-name="Grupo 85942" transform="translate(4.881)">
            <path id="Trazado_122226" data-name="Trazado 122226" d="M236.936,279.118l-1.086,21.093c.258-.012,1.948.015,2.207,0-.081-9.024-.9-21.093-1.062-21.093C237,279.118,236.936,278.872,236.936,279.118Z" transform="translate(-235.85 -279.009)" fill="#624800"/>
          </g>
          <path id="Trazado_122227" data-name="Trazado 122227" d="M230.661,293.943a13.891,13.891,0,0,1-2.741-2.726c3.093,4.977,5.936,4.832,5.936,4.832l.06-.7S233.3,295.814,230.661,293.943Z" transform="translate(-227.92 -283.703)" fill="#624800"/>
          <path id="Trazado_122228" data-name="Trazado 122228" d="M240.43,291.343c-2.248,1.59-2.767,1.194-2.767,1.194l.051.6s2.416.123,5.045-4.106A11.824,11.824,0,0,1,240.43,291.343Z" transform="translate(-231.667 -282.861)" fill="#624800"/>
          <path id="Trazado_122229" data-name="Trazado 122229" d="M232.859,286.1a9.537,9.537,0,0,1-1.88-1.87c2.122,3.414,4.072,3.314,4.072,3.314l.041-.481S234.673,287.387,232.859,286.1Z" transform="translate(-229.096 -281.018)" fill="#624800"/>
        </g>
      </g>
      <g id="Grupo_85947" data-name="Grupo 85947" transform="translate(115.559 211.145)">
        <path id="Trazado_122230" data-name="Trazado 122230" d="M176.432,274.205a2.123,2.123,0,0,0-2.221,0c-2.424,1.519-9.547,21.032,1.11,21.032C186.6,295.237,178.856,275.724,176.432,274.205Z" transform="translate(-169.629 -273.892)" fill="#33a257"/>
        <path id="Trazado_122231" data-name="Trazado 122231" d="M172.475,287.575c-.171-7.688,2.107-13.411,1.736-13.179-2.424,1.519-9.547,21.032,1.11,21.032C175.322,295.428,172.645,295.211,172.475,287.575Z" transform="translate(-169.629 -274.083)" fill="#00744c"/>
        <g id="Grupo_85946" data-name="Grupo 85946" transform="translate(1.965 9.697)">
          <g id="Grupo_85945" data-name="Grupo 85945" transform="translate(3.399)">
            <path id="Trazado_122232" data-name="Trazado 122232" d="M179.1,289.724l-.757,14.691c.18-.009,1.358.01,1.537,0-.056-6.285-.625-14.691-.739-14.691C179.142,289.724,179.1,289.552,179.1,289.724Z" transform="translate(-178.344 -289.648)" fill="#624800"/>
          </g>
          <path id="Trazado_122233" data-name="Trazado 122233" d="M174.729,300.049a9.671,9.671,0,0,1-1.908-1.9c2.154,3.466,4.135,3.365,4.135,3.365l.042-.489S176.572,301.353,174.729,300.049Z" transform="translate(-172.821 -292.918)" fill="#624800"/>
          <path id="Trazado_122234" data-name="Trazado 122234" d="M181.535,298.238c-1.566,1.108-1.928.831-1.928.831l.036.415s1.683.086,3.514-2.861A8.248,8.248,0,0,1,181.535,298.238Z" transform="translate(-175.431 -292.33)" fill="#624800"/>
          <path id="Trazado_122235" data-name="Trazado 122235" d="M176.262,294.588a6.638,6.638,0,0,1-1.31-1.3c1.478,2.378,2.837,2.309,2.837,2.309l.028-.335S177.525,295.483,176.262,294.588Z" transform="translate(-173.64 -291.047)" fill="#624800"/>
        </g>
      </g>
      <g id="Grupo_85950" data-name="Grupo 85950" transform="translate(140.396 207.91)">
        <path id="Trazado_122236" data-name="Trazado 122236" d="M218.011,268.976a2.31,2.31,0,0,0-2.415,0c-2.636,1.652-11.06,22.871,1.207,22.871C228.394,291.847,220.646,270.628,218.011,268.976Z" transform="translate(-210.114 -268.635)" fill="#97c266"/>
        <path id="Trazado_122237" data-name="Trazado 122237" d="M212.972,284.1c-.18-8.067,2.211-14.073,1.822-13.829-2.544,1.594-10.019,22.07,1.165,22.07C215.959,292.336,213.15,292.108,212.972,284.1Z" transform="translate(-209.985 -269.26)" fill="#71924d"/>
        <g id="Grupo_85949" data-name="Grupo 85949" transform="translate(1.954 12.038)">
          <g id="Grupo_85948" data-name="Grupo 85948" transform="translate(3.626)">
            <path id="Trazado_122238" data-name="Trazado 122238" d="M219.859,288.277l-.807,15.672c.192-.009,1.448.012,1.64,0-.06-6.7-.667-15.672-.788-15.672C219.9,288.277,219.859,288.094,219.859,288.277Z" transform="translate(-219.052 -288.196)" fill="#624800"/>
          </g>
          <path id="Trazado_122239" data-name="Trazado 122239" d="M215.2,299.292a10.322,10.322,0,0,1-2.037-2.025c2.3,3.7,4.411,3.59,4.411,3.59l.045-.521S217.161,300.683,215.2,299.292Z" transform="translate(-213.16 -291.684)" fill="#624800"/>
          <path id="Trazado_122240" data-name="Trazado 122240" d="M222.456,297.36c-1.67,1.182-2.056.887-2.056.887l.038.442s1.8.092,3.749-3.051A8.764,8.764,0,0,1,222.456,297.36Z" transform="translate(-215.944 -291.058)" fill="#624800"/>
          <path id="Trazado_122241" data-name="Trazado 122241" d="M216.83,293.467a7.1,7.1,0,0,1-1.4-1.39c1.577,2.537,3.026,2.463,3.026,2.463l.031-.358S218.178,294.421,216.83,293.467Z" transform="translate(-214.034 -289.688)" fill="#624800"/>
        </g>
      </g>
      <g id="Grupo_85953" data-name="Grupo 85953" transform="translate(97.169 207.817)">
        <path id="Trazado_122242" data-name="Trazado 122242" d="M147.775,268.825a2.309,2.309,0,0,0-2.416,0c-2.635,1.651-11.06,22.871,1.208,22.871C158.157,291.7,150.41,270.476,147.775,268.825Z" transform="translate(-139.877 -268.484)" fill="#009969"/>
        <path id="Trazado_122243" data-name="Trazado 122243" d="M142.736,283.944c-.18-8.067,2.211-14.073,1.822-13.83-2.543,1.594-10.019,22.071,1.166,22.071C145.723,292.185,142.914,291.957,142.736,283.944Z" transform="translate(-139.748 -269.108)" fill="#00744c"/>
        <g id="Grupo_85952" data-name="Grupo 85952" transform="translate(1.954 12.038)">
          <g id="Grupo_85951" data-name="Grupo 85951" transform="translate(3.627)">
            <path id="Trazado_122244" data-name="Trazado 122244" d="M149.623,288.126l-.807,15.672c.192-.009,1.448.011,1.64,0-.059-6.7-.667-15.672-.788-15.672C149.667,288.126,149.623,287.942,149.623,288.126Z" transform="translate(-148.816 -288.044)" fill="#624800"/>
          </g>
          <path id="Trazado_122245" data-name="Trazado 122245" d="M144.96,299.141a10.349,10.349,0,0,1-2.037-2.025c2.3,3.7,4.412,3.59,4.412,3.59l.044-.521S146.925,300.532,144.96,299.141Z" transform="translate(-142.923 -291.533)" fill="#624800"/>
          <path id="Trazado_122246" data-name="Trazado 122246" d="M152.219,297.208c-1.67,1.182-2.056.887-2.056.887l.038.443s1.8.092,3.749-3.051A8.8,8.8,0,0,1,152.219,297.208Z" transform="translate(-145.707 -290.906)" fill="#624800"/>
          <path id="Trazado_122247" data-name="Trazado 122247" d="M146.594,293.315a7.089,7.089,0,0,1-1.4-1.389c1.577,2.537,3.026,2.462,3.026,2.462l.031-.357S147.942,294.269,146.594,293.315Z" transform="translate(-143.797 -289.537)" fill="#624800"/>
        </g>
      </g>
      <g id="Grupo_85956" data-name="Grupo 85956" transform="translate(104.84 203.5)">
        <path id="Trazado_122248" data-name="Trazado 122248" d="M161.326,261.87a2.72,2.72,0,0,0-2.842,0c-3.1,1.944-13.016,26.917,1.421,26.917C173.545,288.786,164.428,263.814,161.326,261.87Z" transform="translate(-152.237 -261.469)" fill="#00b452"/>
        <path id="Trazado_122249" data-name="Trazado 122249" d="M155.761,279.807c-.214-9.582,2.626-16.716,2.164-16.426-3.021,1.893-11.9,26.214,1.384,26.214C159.309,289.6,155.973,289.324,155.761,279.807Z" transform="translate(-152.213 -262.201)" fill="#00873e"/>
        <g id="Grupo_85955" data-name="Grupo 85955" transform="translate(2.553 14.597)">
          <g id="Grupo_85954" data-name="Grupo 85954" transform="translate(4.031)">
            <path id="Trazado_122250" data-name="Trazado 122250" d="M163.809,285.278l-.9,17.421c.214-.01,1.609.012,1.823,0-.066-7.453-.742-17.421-.877-17.421C163.858,285.278,163.809,285.074,163.809,285.278Z" transform="translate(-162.912 -285.187)" fill="#624800"/>
          </g>
          <path id="Trazado_122251" data-name="Trazado 122251" d="M158.626,297.522a11.486,11.486,0,0,1-2.264-2.251c2.555,4.111,4.9,3.991,4.9,3.991l.05-.579S160.81,299.068,158.626,297.522Z" transform="translate(-156.362 -289.065)" fill="#624800"/>
          <path id="Trazado_122252" data-name="Trazado 122252" d="M166.7,295.374c-1.856,1.313-2.285.986-2.285.986l.042.492s2,.1,4.167-3.392A9.769,9.769,0,0,1,166.7,295.374Z" transform="translate(-159.457 -288.369)" fill="#624800"/>
          <path id="Trazado_122253" data-name="Trazado 122253" d="M160.442,291.046a7.887,7.887,0,0,1-1.553-1.544c1.753,2.82,3.363,2.738,3.363,2.738l.034-.4S161.94,292.107,160.442,291.046Z" transform="translate(-157.334 -286.847)" fill="#624800"/>
        </g>
      </g>
      <g id="Grupo_85959" data-name="Grupo 85959" transform="translate(88.185 211.486)">
        <path id="Trazado_122254" data-name="Trazado 122254" d="M136.579,279.481a5.036,5.036,0,1,0-10.016.709,6.392,6.392,0,1,0,9.96,0A4.986,4.986,0,0,0,136.579,279.481Z" transform="translate(-125.151 -274.445)" fill="#c2d56a"/>
        <g id="Grupo_85958" data-name="Grupo 85958" transform="translate(3.029 4.948)">
          <g id="Grupo_85957" data-name="Grupo 85957" transform="translate(3.342)">
            <path id="Trazado_122255" data-name="Trazado 122255" d="M135.778,282.553l-.276,18.835a.276.276,0,0,0,.276.276h.036a.276.276,0,0,0,.276-.276s-.124-18.835-.276-18.835C135.815,282.553,135.778,282.4,135.778,282.553Z" transform="translate(-135.502 -282.485)" fill="#624800"/>
          </g>
          <path id="Trazado_122256" data-name="Trazado 122256" d="M131.734,291.7a8.536,8.536,0,0,1-1.662-1.683c1.876,3.072,3.6,2.982,3.6,2.982l.036-.433S133.338,292.859,131.734,291.7Z" transform="translate(-130.072 -285.383)" fill="#624800"/>
          <path id="Trazado_122257" data-name="Trazado 122257" d="M137.658,290.1c-1.363.982-1.678.737-1.678.737l.031.368s1.465.076,3.059-2.535A7.245,7.245,0,0,1,137.658,290.1Z" transform="translate(-132.344 -284.863)" fill="#624800"/>
          <path id="Trazado_122258" data-name="Trazado 122258" d="M133.067,286.864a5.851,5.851,0,0,1-1.14-1.154c1.287,2.107,2.47,2.046,2.47,2.046l.025-.3S134.167,287.656,133.067,286.864Z" transform="translate(-130.785 -283.725)" fill="#624800"/>
        </g>
      </g>
      <g id="Grupo_85962" data-name="Grupo 85962" transform="translate(64.75 218.069)">
        <path id="Trazado_122259" data-name="Trazado 122259" d="M95.271,288.753a3.612,3.612,0,1,0-7.184.508,4.585,4.585,0,1,0,7.144,0A3.638,3.638,0,0,0,95.271,288.753Z" transform="translate(-87.074 -285.142)" fill="#c2d56a"/>
        <g id="Grupo_85961" data-name="Grupo 85961" transform="translate(2.173 3.549)">
          <g id="Grupo_85960" data-name="Grupo 85960" transform="translate(2.397)">
            <path id="Trazado_122260" data-name="Trazado 122260" d="M94.7,290.957l-.2,13.509a.2.2,0,0,0,.2.2h.026a.2.2,0,0,0,.2-.2s-.089-13.509-.2-13.509C94.723,290.957,94.7,290.847,94.7,290.957Z" transform="translate(-94.498 -290.908)" fill="#624800"/>
          </g>
          <path id="Trazado_122261" data-name="Trazado 122261" d="M91.8,297.52a6.115,6.115,0,0,1-1.192-1.207c1.345,2.2,2.582,2.139,2.582,2.139l.026-.311S92.946,298.348,91.8,297.52Z" transform="translate(-90.604 -292.986)" fill="#624800"/>
          <path id="Trazado_122262" data-name="Trazado 122262" d="M96.045,296.368c-.977.7-1.2.529-1.2.529l.022.264s1.051.055,2.194-1.818A5.206,5.206,0,0,1,96.045,296.368Z" transform="translate(-92.234 -292.613)" fill="#624800"/>
          <path id="Trazado_122263" data-name="Trazado 122263" d="M92.752,294.049a4.2,4.2,0,0,1-.817-.828c.923,1.512,1.771,1.467,1.771,1.467l.018-.213S93.541,294.617,92.752,294.049Z" transform="translate(-91.116 -291.797)" fill="#624800"/>
        </g>
      </g>
      <g id="Grupo_85964" data-name="Grupo 85964" transform="translate(47.764 228.046)">
        <path id="Trazado_122264" data-name="Trazado 122264" d="M76.108,305.989a1.392,1.392,0,0,0-.9.326c0-.066.01-.131.01-.2a2.667,2.667,0,0,0-4.728-1.692,1.851,1.851,0,0,0-1.344.078,3.714,3.714,0,0,0-7.385.564c0,.018,0,.035,0,.053a1.857,1.857,0,1,0-.435,3.663v.069H76.3v-.084a1.4,1.4,0,0,0-.194-2.781Z" transform="translate(-59.474 -301.352)" fill="#93b033"/>
        <g id="Grupo_85963" data-name="Grupo 85963" transform="translate(2.221 0.112)">
          <path id="Trazado_122265" data-name="Trazado 122265" d="M66.48,301.534a3.4,3.4,0,1,0,0,6.8,3.8,3.8,0,0,1,0-6.8Z" transform="translate(-63.082 -301.534)" fill="#6d9300"/>
          <path id="Trazado_122266" data-name="Trazado 122266" d="M75.436,306.27a1.771,1.771,0,0,0-1.744,1.8,1.979,1.979,0,0,1,3.541-.053A1.771,1.771,0,0,0,75.436,306.27Z" transform="translate(-67.162 -303.355)" fill="#6d9300"/>
        </g>
      </g>
      <path id="Trazado_122267" data-name="Trazado 122267" d="M155.96,255.406a2.606,2.606,0,0,0-.8.952,2.615,2.615,0,0,0-1.148-.444c-1.014-.15-1.762.2-1.854.831,0,0,.28-.57,1.79-.4a2.737,2.737,0,0,1,1.1.343l-.028.783.375-.086.439-.1-.4-.682a3.581,3.581,0,0,1,.795-.848c1.075-.862,1.762-.51,1.762-.51C157.605,254.739,156.781,254.791,155.96,255.406Z" transform="translate(-47.351 -55.444)" fill="#84888a"/>
      <path id="Trazado_122268" data-name="Trazado 122268" d="M99.082,228.208a2.25,2.25,0,0,0-.66.884,2.21,2.21,0,0,0-.985-.449c-.866-.166-1.493.151-1.556.744,0,0,.224-.533,1.512-.334a2.273,2.273,0,0,1,.939.352l0,.742.317-.073.371-.085-.356-.657a3.04,3.04,0,0,1,.655-.785c.892-.792,1.485-.441,1.485-.441C100.464,227.615,99.765,227.645,99.082,228.208Z" transform="translate(-25.71 -45.006)" fill="#84888a"/>
      <path id="Trazado_122269" data-name="Trazado 122269" d="M98.072,242.5a1.312,1.312,0,0,0-.411.471,1.327,1.327,0,0,0-.58-.215c-.513-.07-.894.106-.942.416,0,0,.144-.281.908-.2a1.408,1.408,0,0,1,.555.165l-.017.386.191-.044.223-.051-.2-.335a1.821,1.821,0,0,1,.4-.42c.548-.428.895-.257.895-.257C98.908,242.164,98.49,242.192,98.072,242.5Z" transform="translate(-25.81 -50.577)" fill="#84888a"/>
      <path id="Trazado_122270" data-name="Trazado 122270" d="M71.047,235.9a1.8,1.8,0,0,0-.56.643,1.8,1.8,0,0,0-.79-.293c-.7-.1-1.218.145-1.284.566,0,0,.2-.383,1.238-.275a1.915,1.915,0,0,1,.755.225l-.023.526.26-.06.3-.07-.273-.456a2.486,2.486,0,0,1,.553-.572c.747-.583,1.219-.351,1.219-.351C72.186,235.446,71.617,235.485,71.047,235.9Z" transform="translate(-15.147 -48.005)" fill="#84888a"/>
      <path id="Trazado_122271" data-name="Trazado 122271" d="M158.593,248.069a.951.951,0,0,0-.3.343.968.968,0,0,0-.422-.156c-.374-.051-.65.078-.686.3,0,0,.1-.2.661-.147a1.013,1.013,0,0,1,.4.121l-.012.28.138-.032.162-.037-.145-.243a1.31,1.31,0,0,1,.295-.305c.4-.311.651-.187.651-.187C159.2,247.826,158.9,247.847,158.593,248.069Z" transform="translate(-49.286 -52.746)" fill="#84888a"/>
      <g id="Grupo_85966" data-name="Grupo 85966" transform="translate(150.142 231.004)">
        <path id="Trazado_122272" data-name="Trazado 122272" d="M236.5,309.134a.9.9,0,0,0-.576.209c0-.042.007-.084.007-.127a1.712,1.712,0,0,0-3.035-1.086,1.207,1.207,0,0,0-.367-.058,1.187,1.187,0,0,0-.495.108,2.384,2.384,0,0,0-4.74.362c0,.011,0,.022,0,.033a1.225,1.225,0,0,0-.279-.034,1.193,1.193,0,1,0,0,2.385v.044h9.608v-.054a.9.9,0,0,0-.124-1.785Z" transform="translate(-225.821 -306.158)" fill="#93b033"/>
        <g id="Grupo_85965" data-name="Grupo 85965" transform="translate(1.425 0.071)">
          <path id="Trazado_122273" data-name="Trazado 122273" d="M230.317,306.274a2.181,2.181,0,1,0,0,4.362,2.438,2.438,0,0,1,0-4.362Z" transform="translate(-228.136 -306.274)" fill="#6d9300"/>
          <path id="Trazado_122274" data-name="Trazado 122274" d="M236.066,309.315a1.136,1.136,0,0,0-1.12,1.153,1.271,1.271,0,0,1,2.273-.034A1.136,1.136,0,0,0,236.066,309.315Z" transform="translate(-230.755 -307.443)" fill="#6d9300"/>
        </g>
      </g>
      <g id="Grupo_85968" data-name="Grupo 85968" transform="translate(77.923 230.58)">
        <path id="Trazado_122275" data-name="Trazado 122275" d="M119.187,307.931a1.229,1.229,0,0,0-.287.035c0-.012,0-.023,0-.035a2.459,2.459,0,0,0-4.89-.374,1.219,1.219,0,0,0-.889-.052,1.766,1.766,0,0,0-3.131,1.12c0,.044,0,.087.007.13a.925.925,0,1,0-.723,1.625v.055h9.912v-.046a1.23,1.23,0,1,0,0-2.461Z" transform="translate(-108.478 -305.47)" fill="#789c00"/>
        <g id="Grupo_85967" data-name="Grupo 85967" transform="translate(3.801 0.074)">
          <path id="Trazado_122276" data-name="Trazado 122276" d="M121.833,305.591a2.514,2.514,0,0,1,0,4.5,2.249,2.249,0,1,0,0-4.5Z" transform="translate(-117.415 -305.591)" fill="#00744c"/>
          <path id="Trazado_122277" data-name="Trazado 122277" d="M115.844,308.727a1.172,1.172,0,0,0-1.19,1.155,1.31,1.31,0,0,1,2.344.035A1.172,1.172,0,0,0,115.844,308.727Z" transform="translate(-114.654 -306.797)" fill="#00744c"/>
        </g>
      </g>
      <g id="Grupo_85971" data-name="Grupo 85971" transform="translate(69.461 213.18)">
        <path id="Trazado_122278" data-name="Trazado 122278" d="M105.24,281.829a4.632,4.632,0,1,0-9.213.652,5.88,5.88,0,1,0,9.162,0A4.648,4.648,0,0,0,105.24,281.829Z" transform="translate(-94.728 -277.197)" fill="#97c266"/>
        <g id="Grupo_85970" data-name="Grupo 85970" transform="translate(2.786 4.551)">
          <g id="Grupo_85969" data-name="Grupo 85969" transform="translate(3.074)">
            <path id="Trazado_122279" data-name="Trazado 122279" d="M104.5,284.654l-.254,17.327a.254.254,0,0,0,.254.254h.033a.254.254,0,0,0,.254-.254s-.114-17.327-.254-17.327C104.537,284.654,104.5,284.514,104.5,284.654Z" transform="translate(-104.25 -284.592)" fill="#624800"/>
          </g>
          <path id="Trazado_122280" data-name="Trazado 122280" d="M100.784,293.072a7.839,7.839,0,0,1-1.529-1.548c1.726,2.827,3.312,2.744,3.312,2.744l.033-.4S102.259,294.135,100.784,293.072Z" transform="translate(-99.255 -287.258)" fill="#624800"/>
          <path id="Trazado_122281" data-name="Trazado 122281" d="M106.234,291.6c-1.254.9-1.544.678-1.544.678l.029.339s1.348.07,2.814-2.332A6.652,6.652,0,0,1,106.234,291.6Z" transform="translate(-101.345 -286.779)" fill="#624800"/>
          <path id="Trazado_122282" data-name="Trazado 122282" d="M102.011,288.62a5.37,5.37,0,0,1-1.049-1.062c1.184,1.939,2.272,1.883,2.272,1.883l.023-.273S103.023,289.349,102.011,288.62Z" transform="translate(-99.911 -285.732)" fill="#624800"/>
        </g>
      </g>
      <path id="Trazado_122283" data-name="Trazado 122283" d="M339.859,201.646a3.473,3.473,0,1,0,3.473,3.473A3.473,3.473,0,0,0,339.859,201.646Z" transform="translate(-118.197 -34.964)" fill="#aaabb0"/>
      <path id="Trazado_122284" data-name="Trazado 122284" d="M292.442,201.1a2.209,2.209,0,1,0,2.209,2.209A2.209,2.209,0,0,0,292.442,201.1Z" transform="translate(-100.449 -34.753)" fill="#aaabb0"/>
      <path id="Trazado_122285" data-name="Trazado 122285" d="M299.42,187.542a4.27,4.27,0,1,0,4.27,4.269A4.27,4.27,0,0,0,299.42,187.542Z" transform="translate(-102.34 -29.54)" fill="#c8c7c7"/>
      <path id="Trazado_122286" data-name="Trazado 122286" d="M332.605,213.6a1.461,1.461,0,1,0,1.473,1.448A1.46,1.46,0,0,0,332.605,213.6Z" transform="translate(-116.186 -39.561)" fill="#aaabb0"/>
      <g id="Grupo_85974" data-name="Grupo 85974" transform="translate(241.183 153.396)">
        <g id="Grupo_85973" data-name="Grupo 85973">
          <path id="Trazado_122287" data-name="Trazado 122287" d="M399.907,188.1l-.3.006a4.564,4.564,0,0,0-5.62-4.359,5.346,5.346,0,0,0-10.327.924,4.236,4.236,0,0,0-.555-.03,4.172,4.172,0,0,0-4.091,4.137,7.679,7.679,0,0,0-5.266,5.581l32.555-.6C405.4,190.47,403.457,188.032,399.907,188.1Z" transform="translate(-373.749 -180.1)" fill="#95969c"/>
          <g id="Grupo_85972" data-name="Grupo 85972">
            <path id="Trazado_122288" data-name="Trazado 122288" d="M399.945,188.071l-.3,0a4.564,4.564,0,0,0-5.59-4.4,5.346,5.346,0,0,0-10.332.852,4.146,4.146,0,0,0-4.675,4.074,7.682,7.682,0,0,0-5.3,5.545l32.835-.382C405.7,190.477,403.5,188.027,399.945,188.071Z" transform="translate(-373.747 -180.059)" fill="#95969c"/>
          </g>
        </g>
        <path id="Trazado_122289" data-name="Trazado 122289" d="M389.113,187.226s2.848.924,2.706,3.58a3.832,3.832,0,0,1-2.706,3.58,3.58,3.58,0,0,0,0-7.16Z" transform="translate(-379.656 -182.815)" fill="#a3a1a1"/>
        <path id="Trazado_122290" data-name="Trazado 122290" d="M414.5,193.038a5.284,5.284,0,0,0-5.363,5.2s1.417-4.441,5.333-4.172a5.8,5.8,0,0,1,5.235,4.33A5.284,5.284,0,0,0,414.5,193.038Z" transform="translate(-387.356 -185.05)" fill="#a3a1a1"/>
      </g>
      <path id="Trazado_122291" data-name="Trazado 122291" d="M119.3,155.244a2.633,2.633,0,1,0,2.633,2.633A2.633,2.633,0,0,0,119.3,155.244Z" transform="translate(-33.705 -17.12)" fill="#dceef7"/>
      <path id="Trazado_122292" data-name="Trazado 122292" d="M97.07,166.956a.979.979,0,1,0,.979.979A.979.979,0,0,0,97.07,166.956Z" transform="translate(-25.791 -21.624)" fill="#fff"/>
      <path id="Trazado_122293" data-name="Trazado 122293" d="M179.654,214.7a1.242,1.242,0,1,0,1.242,1.242A1.242,1.242,0,0,0,179.654,214.7Z" transform="translate(-57.448 -39.983)" fill="#fff"/>
      <circle id="Elipse_5143" data-name="Elipse 5143" cx="6.303" cy="6.303" r="6.303" transform="translate(95.176 188.769) rotate(-45)" fill="#fdffb2"/>
      <path id="Trazado_122294" data-name="Trazado 122294" d="M147.407,227.293a6.3,6.3,0,1,0,0,12.606s-3.421-3.152-3.421-6.3S147.407,227.293,147.407,227.293Z" transform="translate(-43.101 -44.827)" fill="#fff566"/>
      <path id="Trazado_122295" data-name="Trazado 122295" d="M314.1,171.215h-7.27a4.022,4.022,0,0,0,0,8.043h7.27a4.022,4.022,0,1,0,0-8.043Z" transform="translate(-105.283 -23.262)" fill="#aaabb0"/>
      <g id="Grupo_85975" data-name="Grupo 85975" transform="translate(192.35 110.724)">
        <path id="Trazado_122296" data-name="Trazado 122296" d="M305.694,110.724h-7.27a4.021,4.021,0,1,0,0,8.043h7.27a4.021,4.021,0,1,0,0-8.043Z" transform="translate(-294.402 -110.724)" fill="#c8c7c7"/>
      </g>
      <path id="Trazado_122297" data-name="Trazado 122297" d="M254.236,187.945h-3.514v8.043h3.514a4.034,4.034,0,0,0,4.022-4.022h0A4.033,4.033,0,0,0,254.236,187.945Z" transform="translate(-85.255 -29.695)" fill="#aaabb0"/>
      <path id="Trazado_122298" data-name="Trazado 122298" d="M340.19,149.109H328.557a6.435,6.435,0,1,0,0,12.87H340.19a6.435,6.435,0,0,0,0-12.87Z" transform="translate(-112.712 -14.761)" fill="#c8c7c7"/>
      <g id="Grupo_85976" data-name="Grupo 85976" transform="translate(219.515 142.813)">
        <path id="Trazado_122299" data-name="Trazado 122299" d="M363.237,162.864h-20.6a4.1,4.1,0,1,0,0,8.2h20.6a4.1,4.1,0,1,0,0-8.2Z" transform="translate(-338.54 -162.864)" fill="#c8c7c7"/>
      </g>
      <g id="Grupo_85977" data-name="Grupo 85977" transform="translate(122.604 281.167)">
        <path id="Trazado_122300" data-name="Trazado 122300" d="M193.142,387.665H183.079a2,2,0,0,0,0,4.007h10.063a2,2,0,1,0,0-4.007Z" transform="translate(-181.076 -387.665)" fill="#a1d1e0"/>
      </g>
      <g id="Grupo_85978" data-name="Grupo 85978" transform="translate(91.177 269.691)">
        <path id="Trazado_122301" data-name="Trazado 122301" d="M166.047,369.019H134.969c-3.4,0-4.956,1.324-4.956,2.942s1.553,2.942,4.956,2.942h31.078c3.4,0,4.956-1.324,4.956-2.942S169.45,369.019,166.047,369.019Z" transform="translate(-130.013 -369.019)" fill="#a1d1e0"/>
      </g>
      <g id="Grupo_85979" data-name="Grupo 85979" transform="translate(214.447 262.724)">
        <path id="Trazado_122302" data-name="Trazado 122302" d="M344.634,357.7H332.685a2.379,2.379,0,1,0,0,4.758h11.949a2.379,2.379,0,0,0,0-4.758Z" transform="translate(-330.306 -357.699)" fill="#aaabb0"/>
      </g>
      <g id="Grupo_85980" data-name="Grupo 85980" transform="translate(197.976 265.724)">
        <path id="Trazado_122303" data-name="Trazado 122303" d="M326.932,362.573H307.426a3.883,3.883,0,0,0,0,7.766h19.506a3.883,3.883,0,1,0,0-7.766Z" transform="translate(-303.543 -362.573)" fill="#aaabb0"/>
      </g>
      <g id="Grupo_85987" data-name="Grupo 85987" transform="translate(97.233 260.514)">
        <g id="Grupo_85982" data-name="Grupo 85982">
          <g id="Grupo_85981" data-name="Grupo 85981">
            <path id="Trazado_122304" data-name="Trazado 122304" d="M155.113,356.186a3.513,3.513,0,0,1-.412.029,4.993,4.993,0,0,1-3.789-1.994l-.089-.114-.094.111a5.367,5.367,0,0,1-3.777,2.014,4.951,4.951,0,0,1-3.756-2.011l-.089-.113-.095.108a5.541,5.541,0,0,1-3.075,1.95l-.086.016.044.236.086-.016a5.694,5.694,0,0,0,3.114-1.922,5.159,5.159,0,0,0,3.837,1.991h.018a5.522,5.522,0,0,0,3.863-1.992,5.2,5.2,0,0,0,3.87,1.974,3.793,3.793,0,0,0,.462-.031l.094-.012-.046-.235Z" transform="translate(-139.852 -354.107)" fill="#0065c4"/>
          </g>
        </g>
        <g id="Grupo_85984" data-name="Grupo 85984" transform="translate(0 1.028)">
          <g id="Grupo_85983" data-name="Grupo 85983">
            <path id="Trazado_122305" data-name="Trazado 122305" d="M155.153,357.852a3.592,3.592,0,0,1-.452.034,4.993,4.993,0,0,1-3.789-1.994l-.089-.114-.094.111a5.367,5.367,0,0,1-3.777,2.014,4.953,4.953,0,0,1-3.756-2.011l-.089-.113-.095.108a5.541,5.541,0,0,1-3.075,1.95l-.086.016.044.236.086-.016a5.694,5.694,0,0,0,3.114-1.922,5.158,5.158,0,0,0,3.837,1.991h.018a5.522,5.522,0,0,0,3.863-1.992,5.2,5.2,0,0,0,3.87,1.974,3.842,3.842,0,0,0,.492-.034l.079-.01,0-.241Z" transform="translate(-139.852 -355.778)" fill="#0065c4"/>
          </g>
        </g>
        <g id="Grupo_85986" data-name="Grupo 85986" transform="translate(0 2.057)">
          <g id="Grupo_85985" data-name="Grupo 85985">
            <path id="Trazado_122306" data-name="Trazado 122306" d="M154.7,359.557a4.993,4.993,0,0,1-3.789-1.994l-.089-.114-.094.111a5.369,5.369,0,0,1-3.777,2.014,4.953,4.953,0,0,1-3.756-2.011l-.089-.113-.095.108a5.538,5.538,0,0,1-3.075,1.95l-.086.016.044.236.086-.016a5.694,5.694,0,0,0,3.114-1.922,5.158,5.158,0,0,0,3.837,1.991h.018a5.522,5.522,0,0,0,3.863-1.992,5.2,5.2,0,0,0,3.87,1.974,3.778,3.778,0,0,0,.488-.035l.074-.01,0-.241-.1.013A3.538,3.538,0,0,1,154.7,359.557Z" transform="translate(-139.852 -357.449)" fill="#0065c4"/>
          </g>
        </g>
      </g>
      <g id="Grupo_85993" data-name="Grupo 85993" transform="translate(29.023 235.291)">
        <g id="Grupo_85991" data-name="Grupo 85991" transform="translate(0 0)">
          <g id="Grupo_85988" data-name="Grupo 85988" transform="translate(10.64)">
            <path id="Trazado_122307" data-name="Trazado 122307" d="M292.283,313.125H52.071c-8.015,0-7.34,7.884,0,7.884H292.283C298.947,321.009,298.272,313.125,292.283,313.125Z" transform="translate(-46.311 -313.125)" fill="#009969"/>
          </g>
          <g id="Grupo_85989" data-name="Grupo 85989" transform="translate(29.97 15.706)">
            <path id="Trazado_122308" data-name="Trazado 122308" d="M287.3,338.7a4.53,4.53,0,0,0-.7-.058H82.693c-6.4.065-6.855,6.654,0,6.654H286.946C290.721,345.3,290.607,339.222,287.3,338.7Z" transform="translate(-77.719 -338.644)" fill="#84888a"/>
          </g>
          <g id="Grupo_85990" data-name="Grupo 85990" transform="translate(0 7.885)">
            <path id="Trazado_122309" data-name="Trazado 122309" d="M297.643,326.011a5.425,5.425,0,0,0-.829-.075H34.949c-7.789,0-8.014,7.886,0,7.886H297.23C302.085,333.822,302.34,326.745,297.643,326.011Z" transform="translate(-29.023 -325.936)" fill="#00744c"/>
          </g>
        </g>
        <g id="Grupo_85992" data-name="Grupo 85992" transform="translate(136 0)">
          <path id="Trazado_122310" data-name="Trazado 122310" d="M370.613,313.125H250v7.884H370.613C377.276,321.009,376.6,313.125,370.613,313.125Z" transform="translate(-250 -313.125)" fill="#cf9e50"/>
          <path id="Trazado_122311" data-name="Trazado 122311" d="M353.581,338.75H250v6.589H353.2C356.959,345.339,356.858,339.307,353.581,338.75Z" transform="translate(-250 -322.979)" fill="#84888a"/>
          <path id="Trazado_122312" data-name="Trazado 122312" d="M382.62,326.011a5.424,5.424,0,0,0-.829-.075H250v7.821H352.845a4.533,4.533,0,0,1,.7.058l.034.007h28.626C387.062,333.822,387.317,326.745,382.62,326.011Z" transform="translate(-250 -318.052)" fill="#ab6e37"/>
          <path id="Trazado_122313" data-name="Trazado 122313" d="M352.845,338.644H250v.065H353.581l-.034-.007A4.53,4.53,0,0,0,352.845,338.644Z" transform="translate(-250 -322.938)" fill="#ab6e37"/>
        </g>
      </g>
      <g id="Grupo_85995" data-name="Grupo 85995" transform="translate(206.898 180.988)">
        <path id="Trazado_122314" data-name="Trazado 122314" d="M320.5,224.891l-2.458,54.754,9.1.108-1.161-54.8Z" transform="translate(-318.04 -224.891)" fill="#a3a1a1"/>
        <path id="Trazado_122315" data-name="Trazado 122315" d="M318.04,279.646l4.548.054.648-54.776-2.739-.032Z" transform="translate(-318.04 -224.891)" fill="#757474"/>
        <g id="Grupo_85994" data-name="Grupo 85994" transform="translate(1.351 13.21)">
          <path id="Trazado_122316" data-name="Trazado 122316" d="M324.178,246.393l-3.14-.037-.143,3.179,3.245.038,3.246.038-.067-3.181Z" transform="translate(-320.489 -246.356)" fill="#edecec"/>
          <path id="Trazado_122317" data-name="Trazado 122317" d="M323.836,258.472l-3.393-.04-.209,4.648,3.547.042,3.547.042-.1-4.651Z" transform="translate(-320.235 -251)" fill="#edecec"/>
        </g>
      </g>
    </g>
  </g>
</svg>
